<?xml version="1.0" encoding="utf-8" standalone="no"?>
<!DOCTYPE svg PUBLIC "-//W3C//DTD SVG 1.1//EN"
  "http://www.w3.org/Graphics/SVG/1.1/DTD/svg11.dtd">
<svg xmlns:xlink="http://www.w3.org/1999/xlink" width="864pt" height="432pt" viewBox="0 0 864 432" xmlns="http://www.w3.org/2000/svg" version="1.1">
 <metadata>
  <rdf:RDF xmlns:dc="http://purl.org/dc/elements/1.1/" xmlns:cc="http://creativecommons.org/ns#" xmlns:rdf="http://www.w3.org/1999/02/22-rdf-syntax-ns#">
   <cc:Work>
    <dc:type rdf:resource="http://purl.org/dc/dcmitype/StillImage"/>
    <dc:date>2025-02-27T15:09:39.243384</dc:date>
    <dc:format>image/svg+xml</dc:format>
    <dc:creator>
     <cc:Agent>
      <dc:title>Matplotlib v3.10.0, https://matplotlib.org/</dc:title>
     </cc:Agent>
    </dc:creator>
   </cc:Work>
  </rdf:RDF>
 </metadata>
 <defs>
  <style type="text/css">*{stroke-linejoin: round; stroke-linecap: butt}</style>
 </defs>
 <g id="figure_1">
  <g id="patch_1">
   <path d="M 0 432 
L 864 432 
L 864 0 
L 0 0 
z
" style="fill: #ffffff"/>
  </g>
  <g id="axes_1">
   <g id="patch_2">
    <path d="M 36.625 390.04 
L 853.2 390.04 
L 853.2 10.8 
L 36.625 10.8 
z
" style="fill: #ffffff"/>
   </g>
   <g id="matplotlib.axis_1">
    <g id="xtick_1">
     <g id="line2d_1">
      <path d="M 73.616211 390.04 
L 73.616211 10.8 
" clip-path="url(#p7131a4624e)" style="fill: none; stroke: #b0b0b0; stroke-width: 0.8; stroke-linecap: square"/>
     </g>
     <g id="line2d_2">
      <defs>
       <path id="m57f41ad7b2" d="M 0 0 
L 0 3.5 
" style="stroke: #000000; stroke-width: 0.8"/>
      </defs>
      <g>
       <use xlink:href="#m57f41ad7b2" x="73.616211" y="390.04" style="stroke: #000000; stroke-width: 0.8"/>
      </g>
     </g>
     <g id="text_1">
      <!-- 0 -->
      <g transform="translate(70.434961 404.638438) scale(0.1 -0.1)">
       <defs>
        <path id="DejaVuSans-30" d="M 2034 4250 
Q 1547 4250 1301 3770 
Q 1056 3291 1056 2328 
Q 1056 1369 1301 889 
Q 1547 409 2034 409 
Q 2525 409 2770 889 
Q 3016 1369 3016 2328 
Q 3016 3291 2770 3770 
Q 2525 4250 2034 4250 
z
M 2034 4750 
Q 2819 4750 3233 4129 
Q 3647 3509 3647 2328 
Q 3647 1150 3233 529 
Q 2819 -91 2034 -91 
Q 1250 -91 836 529 
Q 422 1150 422 2328 
Q 422 3509 836 4129 
Q 1250 4750 2034 4750 
z
" transform="scale(0.015625)"/>
       </defs>
       <use xlink:href="#DejaVuSans-30"/>
      </g>
     </g>
    </g>
    <g id="xtick_2">
     <g id="line2d_3">
      <path d="M 178.477879 390.04 
L 178.477879 10.8 
" clip-path="url(#p7131a4624e)" style="fill: none; stroke: #b0b0b0; stroke-width: 0.8; stroke-linecap: square"/>
     </g>
     <g id="line2d_4">
      <g>
       <use xlink:href="#m57f41ad7b2" x="178.477879" y="390.04" style="stroke: #000000; stroke-width: 0.8"/>
      </g>
     </g>
     <g id="text_2">
      <!-- 25000 -->
      <g transform="translate(162.571629 404.638438) scale(0.1 -0.1)">
       <defs>
        <path id="DejaVuSans-32" d="M 1228 531 
L 3431 531 
L 3431 0 
L 469 0 
L 469 531 
Q 828 903 1448 1529 
Q 2069 2156 2228 2338 
Q 2531 2678 2651 2914 
Q 2772 3150 2772 3378 
Q 2772 3750 2511 3984 
Q 2250 4219 1831 4219 
Q 1534 4219 1204 4116 
Q 875 4013 500 3803 
L 500 4441 
Q 881 4594 1212 4672 
Q 1544 4750 1819 4750 
Q 2544 4750 2975 4387 
Q 3406 4025 3406 3419 
Q 3406 3131 3298 2873 
Q 3191 2616 2906 2266 
Q 2828 2175 2409 1742 
Q 1991 1309 1228 531 
z
" transform="scale(0.015625)"/>
        <path id="DejaVuSans-35" d="M 691 4666 
L 3169 4666 
L 3169 4134 
L 1269 4134 
L 1269 2991 
Q 1406 3038 1543 3061 
Q 1681 3084 1819 3084 
Q 2600 3084 3056 2656 
Q 3513 2228 3513 1497 
Q 3513 744 3044 326 
Q 2575 -91 1722 -91 
Q 1428 -91 1123 -41 
Q 819 9 494 109 
L 494 744 
Q 775 591 1075 516 
Q 1375 441 1709 441 
Q 2250 441 2565 725 
Q 2881 1009 2881 1497 
Q 2881 1984 2565 2268 
Q 2250 2553 1709 2553 
Q 1456 2553 1204 2497 
Q 953 2441 691 2322 
L 691 4666 
z
" transform="scale(0.015625)"/>
       </defs>
       <use xlink:href="#DejaVuSans-32"/>
       <use xlink:href="#DejaVuSans-35" transform="translate(63.623047 0)"/>
       <use xlink:href="#DejaVuSans-30" transform="translate(127.246094 0)"/>
       <use xlink:href="#DejaVuSans-30" transform="translate(190.869141 0)"/>
       <use xlink:href="#DejaVuSans-30" transform="translate(254.492188 0)"/>
      </g>
     </g>
    </g>
    <g id="xtick_3">
     <g id="line2d_5">
      <path d="M 283.339546 390.04 
L 283.339546 10.8 
" clip-path="url(#p7131a4624e)" style="fill: none; stroke: #b0b0b0; stroke-width: 0.8; stroke-linecap: square"/>
     </g>
     <g id="line2d_6">
      <g>
       <use xlink:href="#m57f41ad7b2" x="283.339546" y="390.04" style="stroke: #000000; stroke-width: 0.8"/>
      </g>
     </g>
     <g id="text_3">
      <!-- 50000 -->
      <g transform="translate(267.433296 404.638438) scale(0.1 -0.1)">
       <use xlink:href="#DejaVuSans-35"/>
       <use xlink:href="#DejaVuSans-30" transform="translate(63.623047 0)"/>
       <use xlink:href="#DejaVuSans-30" transform="translate(127.246094 0)"/>
       <use xlink:href="#DejaVuSans-30" transform="translate(190.869141 0)"/>
       <use xlink:href="#DejaVuSans-30" transform="translate(254.492188 0)"/>
      </g>
     </g>
    </g>
    <g id="xtick_4">
     <g id="line2d_7">
      <path d="M 388.201213 390.04 
L 388.201213 10.8 
" clip-path="url(#p7131a4624e)" style="fill: none; stroke: #b0b0b0; stroke-width: 0.8; stroke-linecap: square"/>
     </g>
     <g id="line2d_8">
      <g>
       <use xlink:href="#m57f41ad7b2" x="388.201213" y="390.04" style="stroke: #000000; stroke-width: 0.8"/>
      </g>
     </g>
     <g id="text_4">
      <!-- 75000 -->
      <g transform="translate(372.294963 404.638438) scale(0.1 -0.1)">
       <defs>
        <path id="DejaVuSans-37" d="M 525 4666 
L 3525 4666 
L 3525 4397 
L 1831 0 
L 1172 0 
L 2766 4134 
L 525 4134 
L 525 4666 
z
" transform="scale(0.015625)"/>
       </defs>
       <use xlink:href="#DejaVuSans-37"/>
       <use xlink:href="#DejaVuSans-35" transform="translate(63.623047 0)"/>
       <use xlink:href="#DejaVuSans-30" transform="translate(127.246094 0)"/>
       <use xlink:href="#DejaVuSans-30" transform="translate(190.869141 0)"/>
       <use xlink:href="#DejaVuSans-30" transform="translate(254.492188 0)"/>
      </g>
     </g>
    </g>
    <g id="xtick_5">
     <g id="line2d_9">
      <path d="M 493.06288 390.04 
L 493.06288 10.8 
" clip-path="url(#p7131a4624e)" style="fill: none; stroke: #b0b0b0; stroke-width: 0.8; stroke-linecap: square"/>
     </g>
     <g id="line2d_10">
      <g>
       <use xlink:href="#m57f41ad7b2" x="493.06288" y="390.04" style="stroke: #000000; stroke-width: 0.8"/>
      </g>
     </g>
     <g id="text_5">
      <!-- 100000 -->
      <g transform="translate(473.97538 404.638438) scale(0.1 -0.1)">
       <defs>
        <path id="DejaVuSans-31" d="M 794 531 
L 1825 531 
L 1825 4091 
L 703 3866 
L 703 4441 
L 1819 4666 
L 2450 4666 
L 2450 531 
L 3481 531 
L 3481 0 
L 794 0 
L 794 531 
z
" transform="scale(0.015625)"/>
       </defs>
       <use xlink:href="#DejaVuSans-31"/>
       <use xlink:href="#DejaVuSans-30" transform="translate(63.623047 0)"/>
       <use xlink:href="#DejaVuSans-30" transform="translate(127.246094 0)"/>
       <use xlink:href="#DejaVuSans-30" transform="translate(190.869141 0)"/>
       <use xlink:href="#DejaVuSans-30" transform="translate(254.492188 0)"/>
       <use xlink:href="#DejaVuSans-30" transform="translate(318.115234 0)"/>
      </g>
     </g>
    </g>
    <g id="xtick_6">
     <g id="line2d_11">
      <path d="M 597.924548 390.04 
L 597.924548 10.8 
" clip-path="url(#p7131a4624e)" style="fill: none; stroke: #b0b0b0; stroke-width: 0.8; stroke-linecap: square"/>
     </g>
     <g id="line2d_12">
      <g>
       <use xlink:href="#m57f41ad7b2" x="597.924548" y="390.04" style="stroke: #000000; stroke-width: 0.8"/>
      </g>
     </g>
     <g id="text_6">
      <!-- 125000 -->
      <g transform="translate(578.837048 404.638438) scale(0.1 -0.1)">
       <use xlink:href="#DejaVuSans-31"/>
       <use xlink:href="#DejaVuSans-32" transform="translate(63.623047 0)"/>
       <use xlink:href="#DejaVuSans-35" transform="translate(127.246094 0)"/>
       <use xlink:href="#DejaVuSans-30" transform="translate(190.869141 0)"/>
       <use xlink:href="#DejaVuSans-30" transform="translate(254.492188 0)"/>
       <use xlink:href="#DejaVuSans-30" transform="translate(318.115234 0)"/>
      </g>
     </g>
    </g>
    <g id="xtick_7">
     <g id="line2d_13">
      <path d="M 702.786215 390.04 
L 702.786215 10.8 
" clip-path="url(#p7131a4624e)" style="fill: none; stroke: #b0b0b0; stroke-width: 0.8; stroke-linecap: square"/>
     </g>
     <g id="line2d_14">
      <g>
       <use xlink:href="#m57f41ad7b2" x="702.786215" y="390.04" style="stroke: #000000; stroke-width: 0.8"/>
      </g>
     </g>
     <g id="text_7">
      <!-- 150000 -->
      <g transform="translate(683.698715 404.638438) scale(0.1 -0.1)">
       <use xlink:href="#DejaVuSans-31"/>
       <use xlink:href="#DejaVuSans-35" transform="translate(63.623047 0)"/>
       <use xlink:href="#DejaVuSans-30" transform="translate(127.246094 0)"/>
       <use xlink:href="#DejaVuSans-30" transform="translate(190.869141 0)"/>
       <use xlink:href="#DejaVuSans-30" transform="translate(254.492188 0)"/>
       <use xlink:href="#DejaVuSans-30" transform="translate(318.115234 0)"/>
      </g>
     </g>
    </g>
    <g id="xtick_8">
     <g id="line2d_15">
      <path d="M 807.647882 390.04 
L 807.647882 10.8 
" clip-path="url(#p7131a4624e)" style="fill: none; stroke: #b0b0b0; stroke-width: 0.8; stroke-linecap: square"/>
     </g>
     <g id="line2d_16">
      <g>
       <use xlink:href="#m57f41ad7b2" x="807.647882" y="390.04" style="stroke: #000000; stroke-width: 0.8"/>
      </g>
     </g>
     <g id="text_8">
      <!-- 175000 -->
      <g transform="translate(788.560382 404.638438) scale(0.1 -0.1)">
       <use xlink:href="#DejaVuSans-31"/>
       <use xlink:href="#DejaVuSans-37" transform="translate(63.623047 0)"/>
       <use xlink:href="#DejaVuSans-35" transform="translate(127.246094 0)"/>
       <use xlink:href="#DejaVuSans-30" transform="translate(190.869141 0)"/>
       <use xlink:href="#DejaVuSans-30" transform="translate(254.492188 0)"/>
       <use xlink:href="#DejaVuSans-30" transform="translate(318.115234 0)"/>
      </g>
     </g>
    </g>
    <g id="text_9">
     <!-- Run Time (seconds) -->
     <g transform="translate(395.575 418.316562) scale(0.1 -0.1)">
      <defs>
       <path id="DejaVuSans-52" d="M 2841 2188 
Q 3044 2119 3236 1894 
Q 3428 1669 3622 1275 
L 4263 0 
L 3584 0 
L 2988 1197 
Q 2756 1666 2539 1819 
Q 2322 1972 1947 1972 
L 1259 1972 
L 1259 0 
L 628 0 
L 628 4666 
L 2053 4666 
Q 2853 4666 3247 4331 
Q 3641 3997 3641 3322 
Q 3641 2881 3436 2590 
Q 3231 2300 2841 2188 
z
M 1259 4147 
L 1259 2491 
L 2053 2491 
Q 2509 2491 2742 2702 
Q 2975 2913 2975 3322 
Q 2975 3731 2742 3939 
Q 2509 4147 2053 4147 
L 1259 4147 
z
" transform="scale(0.015625)"/>
       <path id="DejaVuSans-75" d="M 544 1381 
L 544 3500 
L 1119 3500 
L 1119 1403 
Q 1119 906 1312 657 
Q 1506 409 1894 409 
Q 2359 409 2629 706 
Q 2900 1003 2900 1516 
L 2900 3500 
L 3475 3500 
L 3475 0 
L 2900 0 
L 2900 538 
Q 2691 219 2414 64 
Q 2138 -91 1772 -91 
Q 1169 -91 856 284 
Q 544 659 544 1381 
z
M 1991 3584 
L 1991 3584 
z
" transform="scale(0.015625)"/>
       <path id="DejaVuSans-6e" d="M 3513 2113 
L 3513 0 
L 2938 0 
L 2938 2094 
Q 2938 2591 2744 2837 
Q 2550 3084 2163 3084 
Q 1697 3084 1428 2787 
Q 1159 2491 1159 1978 
L 1159 0 
L 581 0 
L 581 3500 
L 1159 3500 
L 1159 2956 
Q 1366 3272 1645 3428 
Q 1925 3584 2291 3584 
Q 2894 3584 3203 3211 
Q 3513 2838 3513 2113 
z
" transform="scale(0.015625)"/>
       <path id="DejaVuSans-20" transform="scale(0.015625)"/>
       <path id="DejaVuSans-54" d="M -19 4666 
L 3928 4666 
L 3928 4134 
L 2272 4134 
L 2272 0 
L 1638 0 
L 1638 4134 
L -19 4134 
L -19 4666 
z
" transform="scale(0.015625)"/>
       <path id="DejaVuSans-69" d="M 603 3500 
L 1178 3500 
L 1178 0 
L 603 0 
L 603 3500 
z
M 603 4863 
L 1178 4863 
L 1178 4134 
L 603 4134 
L 603 4863 
z
" transform="scale(0.015625)"/>
       <path id="DejaVuSans-6d" d="M 3328 2828 
Q 3544 3216 3844 3400 
Q 4144 3584 4550 3584 
Q 5097 3584 5394 3201 
Q 5691 2819 5691 2113 
L 5691 0 
L 5113 0 
L 5113 2094 
Q 5113 2597 4934 2840 
Q 4756 3084 4391 3084 
Q 3944 3084 3684 2787 
Q 3425 2491 3425 1978 
L 3425 0 
L 2847 0 
L 2847 2094 
Q 2847 2600 2669 2842 
Q 2491 3084 2119 3084 
Q 1678 3084 1418 2786 
Q 1159 2488 1159 1978 
L 1159 0 
L 581 0 
L 581 3500 
L 1159 3500 
L 1159 2956 
Q 1356 3278 1631 3431 
Q 1906 3584 2284 3584 
Q 2666 3584 2933 3390 
Q 3200 3197 3328 2828 
z
" transform="scale(0.015625)"/>
       <path id="DejaVuSans-65" d="M 3597 1894 
L 3597 1613 
L 953 1613 
Q 991 1019 1311 708 
Q 1631 397 2203 397 
Q 2534 397 2845 478 
Q 3156 559 3463 722 
L 3463 178 
Q 3153 47 2828 -22 
Q 2503 -91 2169 -91 
Q 1331 -91 842 396 
Q 353 884 353 1716 
Q 353 2575 817 3079 
Q 1281 3584 2069 3584 
Q 2775 3584 3186 3129 
Q 3597 2675 3597 1894 
z
M 3022 2063 
Q 3016 2534 2758 2815 
Q 2500 3097 2075 3097 
Q 1594 3097 1305 2825 
Q 1016 2553 972 2059 
L 3022 2063 
z
" transform="scale(0.015625)"/>
       <path id="DejaVuSans-28" d="M 1984 4856 
Q 1566 4138 1362 3434 
Q 1159 2731 1159 2009 
Q 1159 1288 1364 580 
Q 1569 -128 1984 -844 
L 1484 -844 
Q 1016 -109 783 600 
Q 550 1309 550 2009 
Q 550 2706 781 3412 
Q 1013 4119 1484 4856 
L 1984 4856 
z
" transform="scale(0.015625)"/>
       <path id="DejaVuSans-73" d="M 2834 3397 
L 2834 2853 
Q 2591 2978 2328 3040 
Q 2066 3103 1784 3103 
Q 1356 3103 1142 2972 
Q 928 2841 928 2578 
Q 928 2378 1081 2264 
Q 1234 2150 1697 2047 
L 1894 2003 
Q 2506 1872 2764 1633 
Q 3022 1394 3022 966 
Q 3022 478 2636 193 
Q 2250 -91 1575 -91 
Q 1294 -91 989 -36 
Q 684 19 347 128 
L 347 722 
Q 666 556 975 473 
Q 1284 391 1588 391 
Q 1994 391 2212 530 
Q 2431 669 2431 922 
Q 2431 1156 2273 1281 
Q 2116 1406 1581 1522 
L 1381 1569 
Q 847 1681 609 1914 
Q 372 2147 372 2553 
Q 372 3047 722 3315 
Q 1072 3584 1716 3584 
Q 2034 3584 2315 3537 
Q 2597 3491 2834 3397 
z
" transform="scale(0.015625)"/>
       <path id="DejaVuSans-63" d="M 3122 3366 
L 3122 2828 
Q 2878 2963 2633 3030 
Q 2388 3097 2138 3097 
Q 1578 3097 1268 2742 
Q 959 2388 959 1747 
Q 959 1106 1268 751 
Q 1578 397 2138 397 
Q 2388 397 2633 464 
Q 2878 531 3122 666 
L 3122 134 
Q 2881 22 2623 -34 
Q 2366 -91 2075 -91 
Q 1284 -91 818 406 
Q 353 903 353 1747 
Q 353 2603 823 3093 
Q 1294 3584 2113 3584 
Q 2378 3584 2631 3529 
Q 2884 3475 3122 3366 
z
" transform="scale(0.015625)"/>
       <path id="DejaVuSans-6f" d="M 1959 3097 
Q 1497 3097 1228 2736 
Q 959 2375 959 1747 
Q 959 1119 1226 758 
Q 1494 397 1959 397 
Q 2419 397 2687 759 
Q 2956 1122 2956 1747 
Q 2956 2369 2687 2733 
Q 2419 3097 1959 3097 
z
M 1959 3584 
Q 2709 3584 3137 3096 
Q 3566 2609 3566 1747 
Q 3566 888 3137 398 
Q 2709 -91 1959 -91 
Q 1206 -91 779 398 
Q 353 888 353 1747 
Q 353 2609 779 3096 
Q 1206 3584 1959 3584 
z
" transform="scale(0.015625)"/>
       <path id="DejaVuSans-64" d="M 2906 2969 
L 2906 4863 
L 3481 4863 
L 3481 0 
L 2906 0 
L 2906 525 
Q 2725 213 2448 61 
Q 2172 -91 1784 -91 
Q 1150 -91 751 415 
Q 353 922 353 1747 
Q 353 2572 751 3078 
Q 1150 3584 1784 3584 
Q 2172 3584 2448 3432 
Q 2725 3281 2906 2969 
z
M 947 1747 
Q 947 1113 1208 752 
Q 1469 391 1925 391 
Q 2381 391 2643 752 
Q 2906 1113 2906 1747 
Q 2906 2381 2643 2742 
Q 2381 3103 1925 3103 
Q 1469 3103 1208 2742 
Q 947 2381 947 1747 
z
" transform="scale(0.015625)"/>
       <path id="DejaVuSans-29" d="M 513 4856 
L 1013 4856 
Q 1481 4119 1714 3412 
Q 1947 2706 1947 2009 
Q 1947 1309 1714 600 
Q 1481 -109 1013 -844 
L 513 -844 
Q 928 -128 1133 580 
Q 1338 1288 1338 2009 
Q 1338 2731 1133 3434 
Q 928 4138 513 4856 
z
" transform="scale(0.015625)"/>
      </defs>
      <use xlink:href="#DejaVuSans-52"/>
      <use xlink:href="#DejaVuSans-75" transform="translate(64.982422 0)"/>
      <use xlink:href="#DejaVuSans-6e" transform="translate(128.361328 0)"/>
      <use xlink:href="#DejaVuSans-20" transform="translate(191.740234 0)"/>
      <use xlink:href="#DejaVuSans-54" transform="translate(223.527344 0)"/>
      <use xlink:href="#DejaVuSans-69" transform="translate(281.486328 0)"/>
      <use xlink:href="#DejaVuSans-6d" transform="translate(309.269531 0)"/>
      <use xlink:href="#DejaVuSans-65" transform="translate(406.681641 0)"/>
      <use xlink:href="#DejaVuSans-20" transform="translate(468.205078 0)"/>
      <use xlink:href="#DejaVuSans-28" transform="translate(499.992188 0)"/>
      <use xlink:href="#DejaVuSans-73" transform="translate(539.005859 0)"/>
      <use xlink:href="#DejaVuSans-65" transform="translate(591.105469 0)"/>
      <use xlink:href="#DejaVuSans-63" transform="translate(652.628906 0)"/>
      <use xlink:href="#DejaVuSans-6f" transform="translate(707.609375 0)"/>
      <use xlink:href="#DejaVuSans-6e" transform="translate(768.791016 0)"/>
      <use xlink:href="#DejaVuSans-64" transform="translate(832.169922 0)"/>
      <use xlink:href="#DejaVuSans-73" transform="translate(895.646484 0)"/>
      <use xlink:href="#DejaVuSans-29" transform="translate(947.746094 0)"/>
     </g>
    </g>
   </g>
   <g id="matplotlib.axis_2">
    <g id="ytick_1">
     <g id="line2d_17">
      <path d="M 36.625 390.04 
L 853.2 390.04 
" clip-path="url(#p7131a4624e)" style="fill: none; stroke: #b0b0b0; stroke-width: 0.8; stroke-linecap: square"/>
     </g>
     <g id="line2d_18">
      <defs>
       <path id="m88cf5afd8a" d="M 0 0 
L -2 0 
" style="stroke: #000000; stroke-width: 0.6"/>
      </defs>
      <g>
       <use xlink:href="#m88cf5afd8a" x="36.625" y="390.04" style="stroke: #000000; stroke-width: 0.6"/>
      </g>
     </g>
     <g id="text_10">
      <!-- 6 -->
      <g transform="translate(24.8625 393.839219) scale(0.1 -0.1)">
       <defs>
        <path id="DejaVuSans-36" d="M 2113 2584 
Q 1688 2584 1439 2293 
Q 1191 2003 1191 1497 
Q 1191 994 1439 701 
Q 1688 409 2113 409 
Q 2538 409 2786 701 
Q 3034 994 3034 1497 
Q 3034 2003 2786 2293 
Q 2538 2584 2113 2584 
z
M 3366 4563 
L 3366 3988 
Q 3128 4100 2886 4159 
Q 2644 4219 2406 4219 
Q 1781 4219 1451 3797 
Q 1122 3375 1075 2522 
Q 1259 2794 1537 2939 
Q 1816 3084 2150 3084 
Q 2853 3084 3261 2657 
Q 3669 2231 3669 1497 
Q 3669 778 3244 343 
Q 2819 -91 2113 -91 
Q 1303 -91 875 529 
Q 447 1150 447 2328 
Q 447 3434 972 4092 
Q 1497 4750 2381 4750 
Q 2619 4750 2861 4703 
Q 3103 4656 3366 4563 
z
" transform="scale(0.015625)"/>
       </defs>
       <use xlink:href="#DejaVuSans-36"/>
      </g>
     </g>
    </g>
    <g id="ytick_2">
     <g id="line2d_19">
      <path d="M 36.625 304.534198 
L 853.2 304.534198 
" clip-path="url(#p7131a4624e)" style="fill: none; stroke: #b0b0b0; stroke-width: 0.8; stroke-linecap: square"/>
     </g>
     <g id="line2d_20">
      <g>
       <use xlink:href="#m88cf5afd8a" x="36.625" y="304.534198" style="stroke: #000000; stroke-width: 0.6"/>
      </g>
     </g>
     <g id="text_11">
      <!-- 6 -->
      <g transform="translate(24.8625 308.333417) scale(0.1 -0.1)">
       <use xlink:href="#DejaVuSans-36"/>
      </g>
     </g>
    </g>
    <g id="ytick_3">
     <g id="line2d_21">
      <path d="M 36.625 221.743329 
L 853.2 221.743329 
" clip-path="url(#p7131a4624e)" style="fill: none; stroke: #b0b0b0; stroke-width: 0.8; stroke-linecap: square"/>
     </g>
     <g id="line2d_22">
      <g>
       <use xlink:href="#m88cf5afd8a" x="36.625" y="221.743329" style="stroke: #000000; stroke-width: 0.6"/>
      </g>
     </g>
     <g id="text_12">
      <!-- 6 -->
      <g transform="translate(24.8625 225.542548) scale(0.1 -0.1)">
       <use xlink:href="#DejaVuSans-36"/>
      </g>
     </g>
    </g>
    <g id="ytick_4">
     <g id="line2d_23">
      <path d="M 36.625 141.50028 
L 853.2 141.50028 
" clip-path="url(#p7131a4624e)" style="fill: none; stroke: #b0b0b0; stroke-width: 0.8; stroke-linecap: square"/>
     </g>
     <g id="line2d_24">
      <g>
       <use xlink:href="#m88cf5afd8a" x="36.625" y="141.50028" style="stroke: #000000; stroke-width: 0.6"/>
      </g>
     </g>
     <g id="text_13">
      <!-- 7 -->
      <g transform="translate(24.8625 145.299499) scale(0.1 -0.1)">
       <use xlink:href="#DejaVuSans-37"/>
      </g>
     </g>
    </g>
    <g id="ytick_5">
     <g id="line2d_25">
      <path d="M 36.625 63.652908 
L 853.2 63.652908 
" clip-path="url(#p7131a4624e)" style="fill: none; stroke: #b0b0b0; stroke-width: 0.8; stroke-linecap: square"/>
     </g>
     <g id="line2d_26">
      <g>
       <use xlink:href="#m88cf5afd8a" x="36.625" y="63.652908" style="stroke: #000000; stroke-width: 0.6"/>
      </g>
     </g>
     <g id="text_14">
      <!-- 7 -->
      <g transform="translate(24.8625 67.452126) scale(0.1 -0.1)">
       <use xlink:href="#DejaVuSans-37"/>
      </g>
     </g>
    </g>
    <g id="text_15">
     <!-- Code Coverage [%] -->
     <g transform="translate(18.782812 249.009063) rotate(-90) scale(0.1 -0.1)">
      <defs>
       <path id="DejaVuSans-43" d="M 4122 4306 
L 4122 3641 
Q 3803 3938 3442 4084 
Q 3081 4231 2675 4231 
Q 1875 4231 1450 3742 
Q 1025 3253 1025 2328 
Q 1025 1406 1450 917 
Q 1875 428 2675 428 
Q 3081 428 3442 575 
Q 3803 722 4122 1019 
L 4122 359 
Q 3791 134 3420 21 
Q 3050 -91 2638 -91 
Q 1578 -91 968 557 
Q 359 1206 359 2328 
Q 359 3453 968 4101 
Q 1578 4750 2638 4750 
Q 3056 4750 3426 4639 
Q 3797 4528 4122 4306 
z
" transform="scale(0.015625)"/>
       <path id="DejaVuSans-76" d="M 191 3500 
L 800 3500 
L 1894 563 
L 2988 3500 
L 3597 3500 
L 2284 0 
L 1503 0 
L 191 3500 
z
" transform="scale(0.015625)"/>
       <path id="DejaVuSans-72" d="M 2631 2963 
Q 2534 3019 2420 3045 
Q 2306 3072 2169 3072 
Q 1681 3072 1420 2755 
Q 1159 2438 1159 1844 
L 1159 0 
L 581 0 
L 581 3500 
L 1159 3500 
L 1159 2956 
Q 1341 3275 1631 3429 
Q 1922 3584 2338 3584 
Q 2397 3584 2469 3576 
Q 2541 3569 2628 3553 
L 2631 2963 
z
" transform="scale(0.015625)"/>
       <path id="DejaVuSans-61" d="M 2194 1759 
Q 1497 1759 1228 1600 
Q 959 1441 959 1056 
Q 959 750 1161 570 
Q 1363 391 1709 391 
Q 2188 391 2477 730 
Q 2766 1069 2766 1631 
L 2766 1759 
L 2194 1759 
z
M 3341 1997 
L 3341 0 
L 2766 0 
L 2766 531 
Q 2569 213 2275 61 
Q 1981 -91 1556 -91 
Q 1019 -91 701 211 
Q 384 513 384 1019 
Q 384 1609 779 1909 
Q 1175 2209 1959 2209 
L 2766 2209 
L 2766 2266 
Q 2766 2663 2505 2880 
Q 2244 3097 1772 3097 
Q 1472 3097 1187 3025 
Q 903 2953 641 2809 
L 641 3341 
Q 956 3463 1253 3523 
Q 1550 3584 1831 3584 
Q 2591 3584 2966 3190 
Q 3341 2797 3341 1997 
z
" transform="scale(0.015625)"/>
       <path id="DejaVuSans-67" d="M 2906 1791 
Q 2906 2416 2648 2759 
Q 2391 3103 1925 3103 
Q 1463 3103 1205 2759 
Q 947 2416 947 1791 
Q 947 1169 1205 825 
Q 1463 481 1925 481 
Q 2391 481 2648 825 
Q 2906 1169 2906 1791 
z
M 3481 434 
Q 3481 -459 3084 -895 
Q 2688 -1331 1869 -1331 
Q 1566 -1331 1297 -1286 
Q 1028 -1241 775 -1147 
L 775 -588 
Q 1028 -725 1275 -790 
Q 1522 -856 1778 -856 
Q 2344 -856 2625 -561 
Q 2906 -266 2906 331 
L 2906 616 
Q 2728 306 2450 153 
Q 2172 0 1784 0 
Q 1141 0 747 490 
Q 353 981 353 1791 
Q 353 2603 747 3093 
Q 1141 3584 1784 3584 
Q 2172 3584 2450 3431 
Q 2728 3278 2906 2969 
L 2906 3500 
L 3481 3500 
L 3481 434 
z
" transform="scale(0.015625)"/>
       <path id="DejaVuSans-5b" d="M 550 4863 
L 1875 4863 
L 1875 4416 
L 1125 4416 
L 1125 -397 
L 1875 -397 
L 1875 -844 
L 550 -844 
L 550 4863 
z
" transform="scale(0.015625)"/>
       <path id="DejaVuSans-25" d="M 4653 2053 
Q 4381 2053 4226 1822 
Q 4072 1591 4072 1178 
Q 4072 772 4226 539 
Q 4381 306 4653 306 
Q 4919 306 5073 539 
Q 5228 772 5228 1178 
Q 5228 1588 5073 1820 
Q 4919 2053 4653 2053 
z
M 4653 2450 
Q 5147 2450 5437 2106 
Q 5728 1763 5728 1178 
Q 5728 594 5436 251 
Q 5144 -91 4653 -91 
Q 4153 -91 3862 251 
Q 3572 594 3572 1178 
Q 3572 1766 3864 2108 
Q 4156 2450 4653 2450 
z
M 1428 4353 
Q 1159 4353 1004 4120 
Q 850 3888 850 3481 
Q 850 3069 1003 2837 
Q 1156 2606 1428 2606 
Q 1700 2606 1854 2837 
Q 2009 3069 2009 3481 
Q 2009 3884 1853 4118 
Q 1697 4353 1428 4353 
z
M 4250 4750 
L 4750 4750 
L 1831 -91 
L 1331 -91 
L 4250 4750 
z
M 1428 4750 
Q 1922 4750 2215 4408 
Q 2509 4066 2509 3481 
Q 2509 2891 2217 2550 
Q 1925 2209 1428 2209 
Q 931 2209 642 2551 
Q 353 2894 353 3481 
Q 353 4063 643 4406 
Q 934 4750 1428 4750 
z
" transform="scale(0.015625)"/>
       <path id="DejaVuSans-5d" d="M 1947 4863 
L 1947 -844 
L 622 -844 
L 622 -397 
L 1369 -397 
L 1369 4416 
L 622 4416 
L 622 4863 
L 1947 4863 
z
" transform="scale(0.015625)"/>
      </defs>
      <use xlink:href="#DejaVuSans-43"/>
      <use xlink:href="#DejaVuSans-6f" transform="translate(69.824219 0)"/>
      <use xlink:href="#DejaVuSans-64" transform="translate(131.005859 0)"/>
      <use xlink:href="#DejaVuSans-65" transform="translate(194.482422 0)"/>
      <use xlink:href="#DejaVuSans-20" transform="translate(256.005859 0)"/>
      <use xlink:href="#DejaVuSans-43" transform="translate(287.792969 0)"/>
      <use xlink:href="#DejaVuSans-6f" transform="translate(357.617188 0)"/>
      <use xlink:href="#DejaVuSans-76" transform="translate(418.798828 0)"/>
      <use xlink:href="#DejaVuSans-65" transform="translate(477.978516 0)"/>
      <use xlink:href="#DejaVuSans-72" transform="translate(539.501953 0)"/>
      <use xlink:href="#DejaVuSans-61" transform="translate(580.615234 0)"/>
      <use xlink:href="#DejaVuSans-67" transform="translate(641.894531 0)"/>
      <use xlink:href="#DejaVuSans-65" transform="translate(705.371094 0)"/>
      <use xlink:href="#DejaVuSans-20" transform="translate(766.894531 0)"/>
      <use xlink:href="#DejaVuSans-5b" transform="translate(798.681641 0)"/>
      <use xlink:href="#DejaVuSans-25" transform="translate(837.695312 0)"/>
      <use xlink:href="#DejaVuSans-5d" transform="translate(932.714844 0)"/>
     </g>
    </g>
   </g>
   <g id="line2d_27">
    <path d="M 77.768136 433 
L 78.163013 411.02522 
L 78.196569 409.193367 
L 78.402098 397.932474 
L 78.410487 397.874148 
L 78.439848 394.521372 
L 78.599238 386.646775 
L 78.754433 380.913851 
L 78.834128 378.690158 
L 78.959962 376.156503 
L 79.698188 370.444061 
L 79.836606 369.031698 
L 79.899523 368.550214 
L 80.34833 362.008845 
L 80.486748 359.681254 
L 80.587415 357.882607 
L 80.780361 352.444256 
L 80.805527 352.32464 
L 81.896089 323.53032 
L 82.030312 318.455766 
L 82.256813 312.669394 
L 82.286174 312.644851 
L 82.474925 306.6583 
L 82.487509 306.381613 
L 83.095706 293.025448 
L 83.116679 292.738026 
L 83.250901 290.194017 
L 83.288652 289.52252 
L 83.527736 283.460123 
L 83.695515 280.908173 
L 84.656048 260.938059 
L 84.67702 260.839409 
L 84.807049 259.61743 
L 85.117439 255.042503 
L 85.167773 254.701628 
L 85.293607 254.000812 
L 85.415246 252.141682 
L 85.612386 249.373436 
L 85.704664 248.238226 
L 85.847276 246.617697 
L 85.905999 245.962112 
L 86.052805 243.169348 
L 86.061194 243.166958 
L 86.266723 240.70903 
L 86.275112 240.706642 
L 86.409335 238.048289 
L 86.426113 238.045904 
L 86.568725 235.997912 
L 86.589697 235.769133 
L 86.72392 234.354007 
L 87.021727 232.225618 
L 87.1182 231.599812 
L 87.244034 230.465177 
L 87.269201 230.436639 
L 87.411812 229.716161 
L 87.604758 228.304315 
L 87.738981 227.285124 
L 87.74737 227.261371 
L 87.902565 225.074682 
L 88.011621 224.222821 
L 88.133261 222.968078 
L 88.145844 222.911166 
L 88.271678 221.986526 
L 88.284261 221.986526 
L 88.418484 220.844219 
L 88.561096 220.389331 
L 88.678541 219.752148 
L 88.699514 219.711885 
L 88.821153 219.136431 
L 88.900848 218.688944 
L 89.064432 217.330378 
L 89.798464 212.687253 
L 89.941076 211.003681 
L 89.953659 210.991879 
L 90.071104 210.614229 
L 90.222105 210.387666 
L 90.331161 210.144605 
L 90.469579 208.783407 
L 91.266527 205.35643 
L 91.396556 204.275533 
L 91.425917 204.259052 
L 91.547557 203.632859 
L 91.627251 203.44456 
L 91.753085 202.762089 
L 91.803419 202.691499 
L 91.933447 202.183306 
L 91.99217 202.145666 
L 92.11381 201.599946 
L 92.503895 200.673426 
L 92.58359 200.586435 
L 92.705229 200.428917 
L 92.801702 200.346636 
L 92.952703 200.024588 
L 93.187593 199.566267 
L 93.309233 199.039884 
L 93.359566 199.016388 
L 93.4854 197.926372 
L 93.648984 197.731439 
L 93.770624 196.961243 
L 93.950986 196.444775 
L 94.005514 196.35323 
L 94.127154 196.23587 
L 94.232015 196.137291 
L 94.445933 195.564669 
L 94.525628 195.454383 
L 94.995408 193.641203 
L 95.087686 193.62479 
L 95.209326 192.963637 
L 95.549078 192.084705 
L 95.666523 191.576231 
L 95.708468 191.489543 
L 95.851079 190.742268 
L 95.884635 190.688397 
L 95.997886 190.435455 
L 96.073386 190.388617 
L 96.195026 190.020964 
L 96.425721 189.927303 
L 96.639639 189.285814 
L 96.71514 189.196861 
L 96.937446 188.831717 
L 97.092642 188.733418 
L 97.26042 188.384719 
L 97.918951 187.495632 
L 97.981868 187.486274 
L 98.107702 186.997407 
L 98.204175 186.915548 
L 98.32162 186.588139 
L 98.325815 186.588139 
L 98.447454 186.16023 
L 98.623622 186.05268 
L 99.66385 184.000714 
L 99.915518 183.697029 
L 100.049741 183.185517 
L 100.129435 183.14348 
L 100.242686 182.685781 
L 100.477576 182.576038 
L 100.729244 182.405596 
L 100.905412 181.847653 
L 100.943162 181.831313 
L 101.064801 181.590898 
L 101.287108 181.499873 
L 101.404553 181.035462 
L 101.542971 180.93979 
L 101.886917 180.216526 
L 101.962417 180.120884 
L 102.092446 180.001919 
L 102.268613 179.899287 
L 102.386058 179.614738 
L 102.549643 179.505124 
L 102.692255 179.360535 
L 102.822283 179.288244 
L 102.935534 179.020083 
L 103.052979 178.922153 
L 103.212368 178.469856 
L 103.443064 178.225089 
L 103.585676 178.106211 
L 103.610843 178.057263 
L 103.724093 177.838172 
L 103.753455 177.83351 
L 103.875094 177.567829 
L 104.042873 177.493257 
L 104.156123 177.367421 
L 104.281957 177.260233 
L 104.466514 177.071498 
L 104.550403 177.027229 
L 104.676237 176.640489 
L 104.785293 176.540318 
L 104.915322 176.363283 
L 105.062128 176.253806 
L 105.087295 176.239831 
L 105.208935 176.027879 
L 105.368324 175.951022 
L 105.481575 175.741423 
L 105.531908 175.697177 
L 105.645159 175.496912 
L 105.79616 175.392129 
L 106.001689 175.166277 
L 106.119134 174.693681 
L 106.328857 174.586602 
L 106.450497 174.444613 
L 106.601497 174.353837 
L 106.714748 174.111784 
L 106.844777 174.009383 
L 106.978999 173.883715 
L 107.171945 173.77667 
L 107.402641 173.68359 
L 107.494919 173.592841 
L 107.616558 173.509075 
L 107.771754 173.399718 
L 108.002449 173.306652 
L 108.1912 173.19963 
L 108.438674 173.090286 
L 108.568702 172.987926 
L 108.711314 172.897201 
L 108.921038 172.7995 
L 109.042677 172.72739 
L 109.29854 172.629696 
L 109.424374 172.573872 
L 109.558597 172.538983 
L 109.894154 172.445948 
L 110.032571 172.197095 
L 110.196155 172.101746 
L 110.326184 172.041283 
L 110.493963 171.973845 
L 110.758214 171.906408 
L 110.875659 171.669232 
L 111.114744 171.566927 
L 111.244772 171.443702 
L 111.399967 171.336757 
L 111.525801 171.225166 
L 111.727136 171.132178 
L 111.848775 171.029894 
L 112.108832 170.948535 
L 112.222083 170.902045 
L 112.884809 170.476703 
L 113.006448 170.232685 
L 113.144866 170.135084 
L 113.283283 169.997985 
L 113.430089 169.90504 
L 113.551729 169.791187 
L 113.820175 169.688956 
L 113.966981 169.633195 
L 114.256399 169.533294 
L 114.411594 169.382287 
L 114.705207 169.277749 
L 114.852013 169.203414 
L 115.099487 169.033844 
L 115.275655 168.717962 
L 115.548295 168.608806 
L 115.841908 168.497332 
L 115.955158 168.2326 
L 116.181659 168.128108 
L 116.341049 168.042196 
L 116.513022 167.937712 
L 116.680801 167.868058 
L 116.890524 167.812336 
L 117.007969 167.415353 
L 117.12122 167.331786 
L 117.242859 167.257506 
L 118.505394 166.558912 
L 118.61445 166.257252 
L 119.537233 165.927786 
L 119.654678 165.846586 
L 119.814068 165.742189 
L 120.002819 165.672594 
L 120.14543 165.505573 
L 120.275459 165.473098 
L 120.665544 165.389593 
L 120.787184 165.268978 
L 121.336659 165.013851 
L 121.496049 164.786577 
L 121.743522 164.679905 
L 121.869356 164.591787 
L 121.886134 164.589468 
L 122.011968 164.29731 
L 122.322359 164.183701 
L 122.716639 164.074735 
L 124.742566 163.080336 
L 125.128457 162.973733 
L 125.258485 162.871769 
L 125.42207 162.811519 
L 125.778599 162.70261 
L 125.80796 162.672487 
L 125.921211 162.466269 
L 126.139323 162.380543 
L 126.260963 162.262385 
L 126.382602 162.202149 
L 126.495853 162.005235 
L 126.571353 161.993653 
L 126.68041 161.766642 
L 126.919494 161.67399 
L 127.045328 161.632298 
L 127.355719 161.53965 
L 127.485747 161.456271 
L 127.900999 161.347418 
L 128.114917 161.273308 
L 128.601475 161.196885 
L 128.723115 161.127411 
L 129.251618 161.020888 
L 129.767537 160.861111 
L 129.968871 160.800908 
L 130.082122 160.550848 
L 130.312818 160.453609 
L 130.468013 160.340168 
L 130.921015 160.247567 
L 131.042655 160.208212 
L 131.1601 160.189693 
L 131.545991 160.083208 
L 131.701186 160.036911 
L 131.852187 159.962839 
L 131.969632 159.888768 
L 132.930165 158.993145 
L 133.458668 158.891336 
L 133.580307 158.831179 
L 133.932642 158.73169 
L 134.062671 158.64146 
L 134.377256 158.532724 
L 134.528257 158.491082 
L 134.717008 158.384667 
L 134.838647 158.324521 
L 135.388122 158.00762 
L 135.555901 157.90585 
L 135.673346 157.834151 
L 135.79918 157.679195 
L 136.185071 157.568187 
L 136.403183 157.491872 
L 136.671629 157.390122 
L 136.793269 157.343874 
L 136.893936 157.323062 
L 137.007187 157.075648 
L 137.397272 156.966978 
L 137.619579 156.886056 
L 138.194221 156.775082 
L 138.78564 156.573954 
L 139.532255 156.465305 
L 139.725201 156.414449 
L 139.989452 156.312742 
L 140.132064 156.259578 
L 140.564094 156.160187 
L 140.694123 156.079291 
L 141.205848 155.986841 
L 141.331682 155.92675 
L 141.763712 155.818128 
L 141.906324 155.771907 
L 142.506132 155.700267 
L 142.627772 155.630939 
L 143.252747 155.533883 
L 143.428915 155.413724 
L 144.108419 155.307434 
L 144.25103 155.261222 
L 144.351698 155.219632 
L 144.464948 155.027865 
L 144.905367 154.940073 
L 145.022812 154.886937 
L 145.383537 154.776048 
L 145.618427 154.44572 
L 146.104985 154.337159 
L 146.243402 154.309443 
L 146.855794 154.205507 
L 146.977434 154.147767 
L 147.199741 154.043838 
L 147.325575 154.009196 
L 147.707271 153.898344 
L 147.879244 153.826755 
L 148.198024 153.775951 
L 148.50422 153.688201 
L 148.625859 153.623545 
L 148.781055 153.549654 
L 149.255029 153.452676 
L 149.372474 153.392644 
L 149.60317 153.281818 
L 149.745782 153.191776 
L 150.081339 153.090194 
L 150.198784 153.020936 
L 150.500786 152.912434 
L 150.672759 152.887041 
L 150.752454 152.820097 
L 150.86151 152.760079 
L 151.52843 152.651589 
L 151.683625 152.605424 
L 152.006599 152.515405 
L 152.124044 152.464627 
L 152.564463 152.363073 
L 152.740631 152.19921 
L 153.130716 152.093051 
L 153.365607 152.039973 
L 153.667608 151.93382 
L 153.780859 151.889976 
L 154.196111 151.793059 
L 154.330334 151.767677 
L 154.393251 151.765369 
L 154.506502 151.573856 
L 154.997254 151.490795 
L 155.110505 151.292381 
L 155.286672 151.234705 
L 155.634813 151.14012 
L 155.752258 151.112437 
L 156.079427 151.008629 
L 156.196872 150.941732 
L 156.226233 150.930199 
L 156.335289 150.729521 
L 156.528234 150.628034 
L 156.658263 150.591131 
L 157.065126 150.487344 
L 157.195155 150.42738 
L 157.488767 150.325905 
L 157.618796 150.289006 
L 157.987909 150.210598 
L 158.394772 150.102213 
L 158.625468 150.053788 
L 159.242054 149.943104 
L 159.367888 149.89007 
L 160.164837 149.779394 
L 160.466839 149.735585 
L 160.806591 149.624915 
L 160.961786 149.551138 
L 161.209259 149.461224 
L 161.326704 149.380536 
L 161.674845 149.286017 
L 161.796485 149.237607 
L 162.333376 149.147704 
L 162.455016 149.099297 
L 163.306493 149.002484 
L 163.423938 148.926419 
L 163.76369 148.89415 
L 163.881135 148.748943 
L 164.254442 148.645229 
L 164.397054 148.559956 
L 165.047196 148.453945 
L 165.164641 148.407854 
L 165.747672 148.311067 
L 165.860923 148.276501 
L 166.368453 148.170502 
L 166.481704 147.887089 
L 166.603343 147.847921 
L 167.475793 147.739635 
L 167.605821 147.711988 
L 168.356631 147.608315 
L 168.482465 147.592188 
L 169.224885 147.493128 
L 169.354914 147.403285 
L 170.067973 147.295018 
L 170.185418 147.221306 
L 171.133368 147.126866 
L 171.250813 147.062373 
L 172.324596 146.954119 
L 172.517542 146.937997 
L 173.108961 146.829748 
L 173.230601 146.802111 
L 173.482269 146.698475 
L 173.608103 146.581025 
L 174.014966 146.491214 
L 174.128217 146.309298 
L 174.585414 146.207984 
L 174.719637 146.184958 
L 174.853859 146.164235 
L 174.96711 145.929389 
L 175.118111 145.922482 
L 175.877309 145.834996 
L 175.994754 145.782045 
L 176.737175 145.676147 
L 176.934315 145.655428 
L 177.274067 145.544931 
L 177.693513 145.441344 
L 177.882264 145.342365 
L 178.003904 145.277916 
L 178.18846 145.236485 
L 179.165771 145.130609 
L 179.279022 145.070768 
L 179.983692 144.960296 
L 180.407333 144.852129 
L 180.944225 144.741666 
L 181.057476 144.69334 
L 181.854424 144.582884 
L 181.976064 144.566776 
L 182.529734 144.458626 
L 182.647179 144.431014 
L 183.037264 144.320569 
L 183.217626 144.230836 
L 183.645462 144.1227 
L 183.754518 144.095091 
L 184.492744 143.98466 
L 184.928968 143.871934 
L 185.000274 143.851229 
L 185.117719 143.667197 
L 185.256137 143.646495 
L 185.902085 143.542983 
L 186.05728 143.517681 
L 186.745173 143.423375 
L 186.866812 143.386574 
L 187.076535 143.317573 
L 187.772817 143.211775 
L 187.890262 143.193375 
L 188.53621 143.082983 
L 188.834017 143.046186 
L 189.719049 142.949598 
L 189.861661 142.903604 
L 190.654415 142.793224 
L 190.776055 142.754132 
L 191.556226 142.643758 
L 191.791116 142.639159 
L 192.160229 142.52879 
L 192.571287 142.429921 
L 193.611514 142.319561 
L 193.724765 142.287373 
L 194.186156 142.181617 
L 194.31199 142.165524 
L 194.815326 142.055174 
L 194.94116 142.006898 
L 195.952027 141.896555 
L 196.124 141.871269 
L 197.566897 141.760933 
L 198.128955 141.721856 
L 199.676713 141.611526 
L 200.029049 141.542571 
L 200.448495 141.432248 
L 200.595302 141.38858 
L 201.182527 141.278264 
L 201.341917 141.218511 
L 201.94592 141.142673 
L 202.05917 141.071433 
L 202.390533 140.965726 
L 202.554117 140.90598 
L 203.485289 140.816365 
L 203.602734 140.781898 
L 204.135431 140.676202 
L 204.278043 140.664714 
L 205.146298 140.563619 
L 205.263743 140.439552 
L 205.737718 140.35225 
L 205.850968 140.313194 
L 206.173942 140.262653 
L 207.046391 140.152384 
L 207.163836 140.127115 
L 207.906257 140.016852 
L 208.141147 140.014555 
L 209.349154 139.906594 
L 209.537905 139.860654 
L 209.781184 139.780262 
L 209.902823 139.72973 
L 210.401965 139.619484 
L 210.515215 139.596517 
L 212.314641 139.495463 
L 212.453059 139.440344 
L 213.166118 139.33011 
L 213.359064 139.281884 
L 214.239902 139.155582 
L 215.032656 139.049953 
L 215.171073 138.976474 
L 216.001578 138.873148 
L 216.119023 138.80197 
L 217.075361 138.700947 
L 217.192806 138.6711 
L 218.149145 138.597632 
L 218.262395 138.542532 
L 218.669258 138.432336 
L 218.916732 138.423153 
L 219.743042 138.319849 
L 219.881459 138.283119 
L 220.732936 138.17523 
L 220.867159 138.156866 
L 222.054193 138.053572 
L 222.167444 138.026028 
L 222.956003 137.92274 
L 223.077643 137.908968 
L 224.36115 137.803389 
L 224.486984 137.748306 
L 225.451711 137.642734 
L 225.594323 137.615194 
L 226.328355 137.511921 
L 226.487744 137.477498 
L 227.42311 137.367347 
L 227.561528 137.326042 
L 229.088314 137.220486 
L 229.205759 137.206719 
L 230.048847 137.089695 
L 230.795462 137.027744 
L 230.908712 136.956617 
L 232.167052 136.857959 
L 232.276108 136.823545 
L 233.656088 136.724892 
L 233.773533 136.699656 
L 235.874961 136.589538 
L 236.143407 136.566597 
L 237.439497 136.456484 
L 237.670193 136.408312 
L 238.232251 136.298206 
L 238.353891 136.282149 
L 239.519952 136.172048 
L 240.174289 136.107825 
L 241.323573 136.000026 
L 241.449407 135.983971 
L 242.724525 135.873883 
L 243.54664 135.763799 
L 244.72948 135.653721 
L 244.846925 135.58951 
L 245.857792 135.484025 
L 245.979431 135.47256 
L 246.923186 135.371665 
L 247.040631 135.339563 
L 247.741107 135.245553 
L 247.854358 135.218038 
L 249.846729 135.112568 
L 249.972563 135.085055 
L 250.962458 134.997931 
L 251.071514 134.954371 
L 251.751017 134.8833 
L 252.715745 134.775551 
L 252.83319 134.757211 
L 253.412026 134.651759 
L 253.609166 134.633421 
L 255.580565 134.537143 
L 255.689621 134.491298 
L 257.057018 134.381273 
L 257.170268 134.342307 
L 258.709638 134.236872 
L 258.869027 134.18874 
L 260.630703 134.078728 
L 260.77751 134.048934 
L 262.539186 133.952678 
L 262.652436 133.929761 
L 263.44519 133.835801 
L 263.550052 133.789968 
L 264.674169 133.679973 
L 264.795809 133.641017 
L 265.672452 133.531028 
L 265.915731 133.524154 
L 267.207627 133.446248 
L 267.329267 133.409587 
L 269.413916 133.299608 
L 269.531362 133.196506 
L 271.297232 133.091118 
L 271.414677 133.077372 
L 272.870157 132.967407 
L 273.507716 132.907844 
L 274.904473 132.809339 
L 275.021918 132.756653 
L 275.730783 132.648991 
L 275.885979 132.64212 
L 277.182069 132.536754 
L 277.324681 132.506977 
L 278.381686 132.397036 
L 278.524298 132.346647 
L 280.705421 132.239003 
L 280.822866 132.21152 
L 281.984733 132.106172 
L 282.127345 132.08098 
L 283.612186 131.980217 
L 283.750604 131.964187 
L 284.17005 131.854268 
L 284.304273 131.80847 
L 287.424956 131.705428 
L 287.55079 131.689399 
L 288.213516 131.622997 
L 288.993687 131.513093 
L 289.161466 131.490197 
L 290.117804 131.387167 
L 290.235249 131.368851 
L 291.736868 131.279562 
L 291.850119 131.242932 
L 292.672234 131.137622 
L 292.877763 131.11244 
L 293.76699 131.004847 
L 293.897019 130.99569 
L 296.237531 130.890391 
L 296.350782 130.874367 
L 298.313792 130.764495 
L 299.425326 130.675227 
L 300.666888 130.613428 
L 300.775944 130.560785 
L 302.311119 130.450926 
L 302.562787 130.439482 
L 303.984711 130.329628 
L 304.169267 130.288434 
L 305.586997 130.208336 
L 305.700248 130.160279 
L 307.201867 130.064166 
L 307.323506 130.029841 
L 309.240378 129.931446 
L 309.353628 129.915428 
L 311.228555 129.805596 
L 311.46764 129.80102 
L 313.283844 129.691192 
L 313.552289 129.6706 
L 315.020353 129.579082 
L 315.133603 129.547051 
L 317.885174 129.466976 
L 318.006813 129.430371 
L 318.992513 129.322847 
L 319.126736 129.313696 
L 323.094701 129.20389 
L 323.346369 129.192452 
L 326.48383 129.08265 
L 326.609664 129.04605 
L 328.723675 128.947692 
L 328.841121 128.929393 
L 332.414806 128.844762 
L 332.528057 128.79673 
L 334.507845 128.721252 
L 334.616901 128.682371 
L 336.407938 128.581739 
L 336.521189 128.533711 
L 338.551311 128.442232 
L 338.664562 128.401068 
L 341.017657 128.295873 
L 341.277714 128.279866 
L 342.859028 128.170103 
L 343.177808 128.119796 
L 344.410981 128.014613 
L 344.541009 127.989461 
L 345.438625 127.918579 
L 345.551876 127.856845 
L 347.699443 127.7471 
L 348.030806 127.689943 
L 349.263979 127.596208 
L 349.381424 127.550484 
L 351.856159 127.440752 
L 351.977799 127.417891 
L 354.360256 127.308164 
L 354.481895 127.273876 
L 356.84338 127.164155 
L 357.430606 127.118439 
L 358.827363 127.038439 
L 358.944808 126.985868 
L 360.949763 126.885302 
L 361.079792 126.857875 
L 363.093136 126.748172 
L 363.21897 126.736744 
L 366.528404 126.629331 
L 366.641654 126.608764 
L 367.912578 126.512782 
L 368.034217 126.473933 
L 369.212862 126.364246 
L 369.334502 126.336825 
L 370.823538 126.236283 
L 370.940983 126.218004 
L 372.76977 126.112897 
L 372.945938 126.106042 
L 374.162333 125.998655 
L 374.271389 125.962099 
L 377.761186 125.854718 
L 377.878631 125.84101 
L 380.080726 125.733634 
L 380.193976 125.697081 
L 382.127625 125.587427 
L 382.249265 125.553161 
L 384.21647 125.466355 
L 384.346498 125.429806 
L 386.527621 125.3293 
L 386.636677 125.263059 
L 388.171852 125.155707 
L 388.30188 125.13515 
L 390.785005 125.025519 
L 391.846205 124.945583 
L 392.643153 124.83596 
L 392.752209 124.79942 
L 394.845248 124.698938 
L 394.958499 124.660116 
L 398.582518 124.559639 
L 398.699963 124.541371 
L 400.155443 124.447749 
L 400.272888 124.429482 
L 403.221598 124.31988 
L 403.469072 124.310747 
L 405.029413 124.201151 
L 405.151053 124.173752 
L 405.713112 124.071011 
L 405.830557 123.997953 
L 407.013396 123.890653 
L 407.130841 123.865541 
L 410.931028 123.760529 
L 411.052668 123.72857 
L 412.625593 123.623563 
L 412.747232 123.61215 
L 414.148184 123.516278 
L 414.269824 123.482039 
L 416.526447 123.379325 
L 416.635503 123.331394 
L 418.489457 123.224121 
L 418.606902 123.187603 
L 420.553135 123.112288 
L 420.666385 123.062079 
L 423.925486 122.954817 
L 424.076487 122.950253 
L 424.852463 122.872662 
L 424.974103 122.838432 
L 429.449599 122.728897 
L 429.915184 122.715206 
L 431.425192 122.614804 
L 431.538443 122.576013 
L 433.518231 122.468771 
L 433.64826 122.436828 
L 436.131384 122.336436 
L 436.244635 122.322747 
L 438.111172 122.240612 
L 438.220228 122.210953 
L 441.068271 122.101445 
L 441.185716 122.085475 
L 444.742624 121.978254 
L 444.927181 121.969129 
L 448.865785 121.871036 
L 448.979035 121.855068 
L 451.952912 121.745575 
L 452.221358 121.722765 
L 454.536704 121.62012 
L 454.658343 121.608715 
L 460.723542 121.501513 
L 460.86196 121.490109 
L 463.147944 121.396596 
L 463.261195 121.371508 
L 463.730975 121.357824 
L 466.172154 121.259755 
L 466.293794 121.200459 
L 469.917813 121.090993 
L 470.039453 121.07275 
L 471.897601 120.972411 
L 472.015047 120.940486 
L 474.405893 120.831031 
L 474.682727 120.803668 
L 476.452792 120.696499 
L 476.566043 120.680538 
L 479.967755 120.573374 
L 480.148117 120.564254 
L 482.513797 120.461655 
L 482.673186 120.447975 
L 485.961648 120.338541 
L 486.091677 120.331702 
L 490.986619 120.231392 
L 491.104064 120.217713 
L 493.473938 120.121967 
L 493.587189 120.087772 
L 497.290903 119.980633 
L 497.441904 119.976074 
L 500.419975 119.882615 
L 500.558392 119.830189 
L 501.929983 119.750412 
L 502.039039 119.704826 
L 506.480979 119.599981 
L 506.606813 119.588585 
L 508.32235 119.501978 
L 508.435601 119.467792 
L 510.562195 119.360678 
L 510.755141 119.344725 
L 513.87163 119.239895 
L 514.010047 119.166972 
L 517.302703 119.071264 
L 517.415954 119.055313 
L 519.53416 118.968724 
L 519.651605 118.884416 
L 521.149029 118.775047 
L 521.304225 118.770491 
L 524.17324 118.686189 
L 524.299074 118.6429 
L 528.443207 118.533542 
L 528.548069 118.499368 
L 531.987531 118.412797 
L 532.104976 118.362678 
L 534.890102 118.27839 
L 535.020131 118.241942 
L 535.963886 118.1326 
L 536.114886 118.114377 
L 538.182759 118.005041 
L 538.480566 117.968597 
L 540.829467 117.861544 
L 540.942718 117.841045 
L 544.81421 117.747663 
L 544.923266 117.7135 
L 546.995333 117.606458 
L 547.129556 117.599626 
L 548.480174 117.494866 
L 548.601814 117.483479 
L 550.451574 117.392387 
L 550.581602 117.351397 
L 553.572257 117.248924 
L 553.719063 117.194274 
L 556.4958 117.087253 
L 556.613245 117.073591 
L 560.723823 116.971129 
L 560.912574 116.925592 
L 564.763094 116.839073 
L 564.884733 116.750281 
L 566.20599 116.652385 
L 566.323436 116.634172 
L 567.879583 116.545386 
L 567.997028 116.490751 
L 569.507036 116.386035 
L 569.649648 116.374653 
L 570.89121 116.26539 
L 571.000266 116.231246 
L 574.884342 116.121989 
L 575.316372 116.119713 
L 577.405217 116.015012 
L 577.526856 115.994528 
L 581.381571 115.887556 
L 581.507405 115.878453 
L 585.894817 115.76921 
L 586.133902 115.764659 
L 588.184996 115.669075 
L 588.298247 115.628112 
L 591.574125 115.51888 
L 591.829987 115.505226 
L 594.317306 115.396 
L 594.556391 115.391449 
L 597.266016 115.298154 
L 597.383461 115.257197 
L 603.616439 115.147981 
L 603.738078 115.136604 
L 606.099563 115.029668 
L 606.342842 115.022842 
L 610.319197 114.913636 
L 610.474392 114.909086 
L 613.695742 114.804434 
L 613.813187 114.783959 
L 614.924721 114.71571 
L 615.042166 114.620165 
L 620.184582 114.522349 
L 620.297833 114.490503 
L 625.427666 114.381319 
L 625.66675 114.376769 
L 628.955212 114.269864 
L 629.076852 114.240296 
L 632.184951 114.135671 
L 632.348536 114.117475 
L 636.752726 114.017404 
L 636.874365 113.981015 
L 641.073026 113.896868 
L 641.182083 113.86503 
L 643.820402 113.762694 
L 643.975597 113.753597 
L 648.224592 113.646718 
L 648.337843 113.621704 
L 651.852806 113.517104 
L 651.999612 113.494365 
L 653.178257 113.38977 
L 653.31248 113.380675 
L 656.449941 113.271537 
L 656.57997 113.262443 
L 659.457374 113.16013 
L 659.616764 113.151036 
L 662.359945 113.048728 
L 662.481584 113.025994 
L 663.987398 112.916871 
L 664.415234 112.914597 
L 667.456222 112.805479 
L 667.930197 112.791839 
L 672.019802 112.684999 
L 672.258886 112.680453 
L 676.82666 112.571344 
L 676.944106 112.55316 
L 683.453918 112.444057 
L 683.693002 112.437238 
L 686.910158 112.348595 
L 687.048576 112.325867 
L 690.689373 112.216773 
L 690.806818 112.194046 
L 695.605288 112.091775 
L 695.718538 112.057686 
L 697.199185 111.955421 
L 697.312436 111.923606 
L 699.468392 111.814529 
L 699.606809 111.800895 
L 705.105755 111.691823 
L 705.365812 111.675917 
L 711.816902 111.578211 
L 711.934347 111.560034 
L 715.705172 111.464605 
L 715.818423 111.432796 
L 720.835005 111.335099 
L 720.95245 111.303292 
L 724.429663 111.194241 
L 724.547108 111.16925 
L 729.676941 111.060205 
L 729.936998 111.044303 
L 733.112209 110.967066 
L 733.233849 110.932991 
L 738.598571 110.823956 
L 738.716016 110.810327 
L 742.784649 110.712653 
L 742.923067 110.699025 
L 748.300373 110.589999 
L 748.417818 110.560472 
L 750.624107 110.480978 
L 750.745747 110.449181 
L 752.658424 110.340166 
L 752.901703 110.333352 
L 756.794168 110.237968 
L 756.911613 110.206174 
L 758.576816 110.117607 
L 758.690067 110.085814 
L 764.021234 109.976814 
L 764.470042 109.970002 
L 767.234195 109.863277 
L 767.414558 109.829217 
L 770.54363 109.731581 
L 770.677853 109.717957 
L 773.219699 109.613513 
L 773.337145 109.599891 
L 778.374699 109.490911 
L 778.617978 109.4841 
L 786.360964 109.377395 
L 786.520353 109.363774 
L 791.964771 109.254804 
L 792.119966 109.250263 
L 794.951231 109.141298 
L 795.123205 109.118598 
L 798.361333 109.027798 
L 798.478778 109.007368 
L 802.178297 108.905223 
L 802.295743 108.889334 
L 808.264469 108.784923 
L 808.390303 108.762226 
L 813.041966 108.65782 
L 813.180384 108.644202 
L 816.082955 108.544341 
L 816.082955 108.544341 
" clip-path="url(#p7131a4624e)" style="fill: none; stroke: #1f77b4; stroke-opacity: 0.7; stroke-width: 1.5; stroke-linecap: square"/>
   </g>
   <g id="line2d_28">
    <path d="M 76.482354 433 
L 76.896284 407.042138 
L 76.946618 405.091019 
L 77.093424 401.612137 
L 78.175597 377.992969 
L 78.192375 377.892307 
L 78.42307 374.934586 
L 78.46082 374.834042 
L 78.653766 373.826305 
L 78.687322 373.725804 
L 78.813156 373.200749 
L 78.943184 373.16307 
L 79.131935 372.145934 
L 79.161296 372.045498 
L 79.299714 371.327491 
L 79.345853 371.224576 
L 79.467492 370.910836 
L 79.60591 370.539417 
L 79.773689 370.429006 
L 79.975023 369.989914 
L 80.012773 369.879526 
L 80.058912 369.844403 
L 80.184746 368.95646 
L 80.19733 368.908811 
L 80.499331 364.298461 
L 80.50772 364.213346 
L 80.658721 361.878785 
L 80.755194 361.001051 
L 80.990084 353.438776 
L 81.757671 332.605883 
L 81.917061 326.871963 
L 81.950617 326.040468 
L 83.217346 297.135639 
L 83.276068 296.008714 
L 83.473208 290.018827 
L 83.494181 289.960433 
L 83.636792 286.847983 
L 83.666154 286.770219 
L 83.833932 283.282959 
L 84.056239 280.529959 
L 84.089795 279.894877 
L 84.228212 276.4531 
L 84.236601 276.438577 
L 84.425352 270.937814 
L 84.446324 270.440295 
L 84.622492 267.31245 
L 84.635075 267.278682 
L 84.777687 264.289537 
L 84.807049 264.178716 
L 84.832215 264.116079 
L 84.983216 261.75627 
L 85.176162 259.653504 
L 85.201328 259.34569 
L 85.385885 257.240062 
L 85.440413 256.199893 
L 85.591414 253.916822 
L 85.608192 253.794443 
L 85.746609 251.678904 
L 86.388363 243.071368 
L 86.522585 241.821857 
L 86.606475 241.482705 
L 87.109811 236.224328 
L 87.248228 233.57292 
L 87.260812 233.563396 
L 87.386646 232.708757 
L 88.049371 227.92415 
L 88.196178 226.56789 
L 88.238122 226.252085 
L 88.372345 223.83139 
L 88.41429 223.081905 
L 88.64918 219.868203 
L 88.678541 219.780569 
L 88.749847 218.968318 
L 88.888265 217.167114 
L 89.387406 212.701425 
L 89.395795 212.701425 
L 89.517435 211.520679 
L 89.534213 211.506514 
L 89.689408 209.875611 
L 89.74813 209.790672 
L 90.347939 204.791199 
L 90.364717 204.765296 
L 90.477968 204.336748 
L 90.545079 204.028332 
L 90.670913 203.100949 
L 90.717052 203.037409 
L 90.859664 201.451775 
L 90.905803 201.38122 
L 91.035832 200.45948 
L 91.09036 200.309022 
L 92.046698 196.266383 
L 92.180921 195.222094 
L 92.273199 195.1259 
L 92.420006 194.295492 
L 92.440978 194.279074 
L 92.62134 192.684691 
L 92.638118 192.651875 
L 92.789119 190.842985 
L 92.847841 190.784428 
L 92.969481 190.578317 
L 93.065953 189.96945 
L 93.191787 189.112592 
L 93.271482 189.023645 
L 93.581873 187.92142 
L 93.648984 187.841872 
L 93.75804 187.275746 
L 93.909041 186.906193 
L 94.122959 186.281815 
L 94.131348 186.281815 
L 94.248793 185.984878 
L 94.303321 185.809538 
L 94.424961 185.232167 
L 94.655656 183.993705 
L 94.773101 183.416736 
L 94.953464 183.192524 
L 94.982825 183.08276 
L 95.117048 182.562029 
L 95.17577 182.463966 
L 95.427438 181.765955 
L 95.536494 181.656252 
L 95.754607 180.865121 
L 95.76719 180.865121 
L 95.88883 180.216526 
L 96.077581 179.955268 
L 96.106942 179.922612 
L 96.23697 179.052727 
L 96.375388 178.504825 
L 96.413138 178.465194 
L 96.530583 178.176139 
L 96.622861 178.101549 
L 96.794834 177.446651 
L 97.990257 175.059179 
L 98.053174 174.949757 
L 98.229342 174.442285 
L 98.439065 173.906987 
L 98.55651 173.467193 
L 99.986824 170.913668 
L 100.104269 170.453462 
L 100.175575 170.372121 
L 100.343353 170.151351 
L 100.40627 170.042135 
L 100.662133 169.575113 
L 100.80055 169.489153 
L 100.972523 169.196445 
L 101.597499 168.077025 
L 101.672999 167.986471 
L 101.819805 167.69161 
L 102.033723 167.18787 
L 102.155363 166.932555 
L 102.25603 166.823474 
L 102.662893 165.688833 
L 102.801311 165.579803 
L 102.935534 165.343202 
L 103.011034 165.236506 
L 103.208174 164.851511 
L 103.296258 164.761068 
L 103.430481 164.575555 
L 103.501787 164.471209 
L 103.728288 164.060825 
L 103.766038 164.035323 
L 103.887678 163.733954 
L 104.013512 163.502156 
L 104.139346 163.376993 
L 104.69721 162.535779 
L 104.797877 162.461635 
L 104.927905 162.299454 
L 105.078906 162.146549 
L 105.196351 162.039984 
L 106.878332 160.113301 
L 106.995777 159.865622 
L 107.075472 159.745263 
L 107.201306 159.580935 
L 107.666892 159.018598 
L 107.750781 158.909847 
L 107.968894 158.555859 
L 108.019227 158.465635 
L 108.145061 158.292135 
L 108.283479 158.107081 
L 108.417702 157.891973 
L 109.004927 157.288376 
L 109.13915 157.114955 
L 109.311123 156.788954 
L 109.499874 156.587824 
L 109.642486 156.331234 
L 109.722181 156.220283 
L 109.994821 155.977596 
L 110.057738 155.901327 
L 110.183572 155.677157 
L 110.55688 155.351336 
L 110.795964 155.007072 
L 110.930187 154.896178 
L 111.10216 154.681334 
L 111.2993 154.454959 
L 111.345439 154.348708 
L 111.483857 154.136219 
L 111.651635 153.958388 
L 112.020748 153.635091 
L 112.192722 153.411115 
L 112.394056 153.286436 
L 112.553446 153.219481 
L 112.67928 153.039404 
L 112.859642 152.928594 
L 113.086143 152.487708 
L 113.14906 152.406925 
L 113.300061 152.026127 
L 113.404922 151.915359 
L 113.54334 151.763062 
L 113.65659 151.661535 
L 113.933425 151.26931 
L 114.008926 151.186258 
L 114.147343 150.974027 
L 114.298344 150.773346 
L 114.453539 150.60497 
L 114.541623 150.501182 
L 114.717791 150.300537 
L 114.826847 150.224434 
L 114.956875 149.936187 
L 115.015598 149.850872 
L 115.174987 149.498112 
L 115.648962 148.926419 
L 115.749629 148.827307 
L 115.925797 148.629096 
L 116.089381 148.527691 
L 116.21941 148.343329 
L 116.307493 148.241936 
L 116.508828 147.905522 
L 116.634662 147.808753 
L 116.773079 147.70738 
L 116.903108 147.5991 
L 117.268026 147.172934 
L 117.410638 146.908055 
L 117.561639 146.712293 
L 117.71264 146.484305 
L 117.90978 146.263246 
L 118.048197 146.035297 
L 118.404727 145.648522 
L 118.480227 145.542629 
L 118.631228 145.356176 
L 118.68995 145.254899 
L 118.824173 145.061562 
L 118.945813 144.953391 
L 119.08423 144.764679 
L 119.197481 144.661123 
L 119.323315 144.564475 
L 119.386232 144.419509 
L 119.541427 144.196324 
L 119.663067 144.095091 
L 119.847623 143.865032 
L 119.973457 143.761512 
L 120.313209 143.404975 
L 120.413876 143.301473 
L 120.548099 143.197975 
L 120.875268 142.795523 
L 121.005296 142.558681 
L 121.101769 142.466709 
L 121.231797 142.259784 
L 121.324076 142.158627 
L 121.441521 141.795412 
L 121.659633 141.55866 
L 122.15458 140.843938 
L 122.27622 140.749729 
L 122.443998 140.47861 
L 122.565638 140.375224 
L 122.913778 139.941049 
L 123.035418 139.842278 
L 123.17803 139.72284 
L 123.287086 139.621781 
L 123.433892 139.45642 
L 123.601671 139.359965 
L 124.331508 138.606815 
L 124.390231 138.503504 
L 124.558009 138.379535 
L 124.725788 138.271642 
L 125.031984 137.977826 
L 125.33818 137.688634 
L 125.531126 137.532576 
L 125.673738 137.390295 
L 125.795377 137.287032 
L 125.925406 137.144764 
L 126.130934 137.039216 
L 126.269352 136.947439 
L 126.495853 136.839605 
L 126.613298 136.750128 
L 126.894327 136.644596 
L 127.045328 136.490894 
L 127.141801 136.417487 
L 127.26344 136.282149 
L 127.393469 136.197279 
L 127.540275 136.036723 
L 127.758387 135.81884 
L 127.917777 135.713346 
L 128.52178 135.208867 
L 128.693754 135.107982 
L 128.848949 135.007102 
L 129.15095 134.901641 
L 129.297757 134.791598 
L 129.478119 134.6999 
L 129.603953 134.608205 
L 129.784315 134.502759 
L 129.931121 134.358352 
L 130.065344 134.264377 
L 130.270873 134.097063 
L 130.514152 133.911427 
L 130.656764 133.815176 
L 130.782598 133.677681 
L 131.12235 133.377509 
L 131.248184 133.269822 
L 132.351329 132.56424 
L 132.481357 132.429101 
L 132.745608 132.323744 
L 132.867248 132.264196 
L 132.997276 132.161136 
L 133.144083 132.028308 
L 133.2825 131.925257 
L 133.44189 131.780992 
L 133.664197 131.675661 
L 133.781642 131.606969 
L 133.945226 131.508514 
L 134.062671 131.396325 
L 134.18431 131.304746 
L 134.318533 131.231485 
L 134.490507 131.123887 
L 134.633118 130.924727 
L 135.300039 130.441771 
L 135.425873 130.336494 
L 135.513956 130.226644 
L 135.727874 130.089338 
L 135.966959 129.979499 
L 136.189266 129.823901 
L 136.382211 129.718649 
L 136.575156 129.615689 
L 136.717768 129.515021 
L 136.872964 129.315984 
L 137.116243 129.123825 
L 137.242077 129.002589 
L 137.372105 128.833326 
L 137.544078 128.732688 
L 137.674107 128.682371 
L 138.886308 128.147236 
L 139.041503 128.039765 
L 139.188309 127.916293 
L 139.532255 127.719664 
L 139.662284 127.559629 
L 139.888785 127.472757 
L 139.989452 127.379029 
L 140.106897 127.337882 
L 140.811568 127.038439 
L 140.937402 126.997296 
L 143.07658 125.719927 
L 143.202414 125.628547 
L 143.479249 125.518895 
L 146.046262 124.007085 
L 146.176291 123.934029 
L 146.33568 123.858692 
L 146.45732 123.726287 
L 146.721571 123.618998 
L 146.8516 123.564213 
L 147.040351 123.454649 
L 147.174574 123.408998 
L 147.942161 123.116852 
L 148.206413 123.016435 
L 148.332247 122.943406 
L 148.46647 122.88179 
L 149.561225 122.473335 
L 149.699643 122.414011 
L 149.926144 122.304495 
L 151.205456 121.852787 
L 151.339679 121.793478 
L 151.679431 121.688549 
L 151.809459 121.604153 
L 152.161795 121.496952 
L 152.430241 121.362385 
L 152.728048 121.257474 
L 152.887437 121.207301 
L 153.290106 121.109237 
L 153.424329 120.947327 
L 153.600497 120.840152 
L 153.743109 120.767184 
L 153.96961 120.685098 
L 154.099638 120.623535 
L 154.267417 120.514094 
L 154.955309 120.263308 
L 155.072755 120.176678 
L 155.1902 120.110568 
L 155.383145 120.014826 
L 155.504785 119.957838 
L 155.739675 119.855262 
L 155.865509 119.811954 
L 156.01651 119.727619 
L 156.142344 119.627332 
L 156.360456 119.517932 
L 156.498873 119.499699 
L 156.75893 119.392584 
L 157.094487 119.185203 
L 157.258072 119.075822 
L 157.392295 119.012018 
L 157.648157 118.904923 
L 157.828519 118.795554 
L 157.992103 118.71353 
L 158.113743 118.645178 
L 158.650635 118.538098 
L 158.797441 118.45836 
L 158.906497 118.403685 
L 159.028137 118.321673 
L 159.514695 118.214606 
L 159.653112 118.14399 
L 159.812502 118.034652 
L 160.521367 117.774994 
L 160.819174 117.672505 
L 160.940813 117.626955 
L 161.079231 117.544968 
L 161.272176 117.437933 
L 161.402205 117.392387 
L 161.670651 117.289913 
L 161.79229 117.22843 
L 162.283043 117.119131 
L 163.503633 116.672874 
L 164.191525 116.424734 
L 164.615166 116.320021 
L 164.745195 116.233522 
L 164.971696 116.126541 
L 165.139475 116.060534 
L 165.6512 115.95356 
L 165.76445 115.910316 
L 166.024507 115.803348 
L 166.217453 115.700936 
L 166.569788 115.596252 
L 166.699816 115.58715 
L 166.989234 115.477919 
L 167.148624 115.393724 
L 167.345764 115.304981 
L 167.463209 115.261748 
L 167.949767 115.152531 
L 168.063018 115.1002 
L 168.385992 114.99099 
L 168.788661 114.89771 
L 169.254246 114.788509 
L 169.849861 114.590593 
L 170.210585 114.481404 
L 170.390947 114.449558 
L 170.902672 114.340376 
L 171.091423 114.297159 
L 171.489897 114.19708 
L 171.619926 114.162964 
L 171.993233 114.071988 
L 172.110678 114.008307 
L 172.41268 113.910514 
L 172.530125 113.862755 
L 172.660153 113.817272 
L 172.794376 113.780886 
L 173.515825 113.678554 
L 173.662631 113.61943 
L 174.094661 113.510282 
L 174.279218 113.417055 
L 174.837082 113.312463 
L 175.013249 113.255622 
L 175.445279 113.157857 
L 175.575308 113.07601 
L 176.342895 112.969158 
L 176.594563 112.853217 
L 177.005621 112.744102 
L 177.123066 112.698638 
L 177.710291 112.598621 
L 177.831931 112.569071 
L 178.259766 112.46224 
L 178.368823 112.419054 
L 178.758908 112.314502 
L 178.947659 112.273592 
L 179.551662 112.171318 
L 179.669107 112.12132 
L 180.27311 112.012234 
L 180.390555 111.975874 
L 180.818391 111.878157 
L 180.961003 111.784988 
L 181.867008 111.687278 
L 181.984453 111.644105 
L 182.433261 111.53504 
L 183.028875 111.335099 
L 183.444127 111.237406 
L 183.561572 111.187425 
L 184.165576 111.082922 
L 184.278826 111.048846 
L 184.819912 110.962522 
L 184.933163 110.892102 
L 185.453277 110.783069 
L 188.913712 109.960919 
L 189.303797 109.856465 
L 189.421242 109.788346 
L 189.916189 109.683899 
L 190.050412 109.665735 
L 190.805416 109.590809 
L 190.918667 109.506803 
L 191.577198 109.404638 
L 191.707227 109.363774 
L 192.206368 109.268425 
L 192.323813 109.204861 
L 192.915233 109.109517 
L 193.028484 109.093627 
L 193.60732 108.984669 
L 196.010749 108.449022 
L 196.392446 108.344629 
L 196.505697 108.30605 
L 197.155839 108.199393 
L 197.311034 108.156278 
L 197.608841 108.051897 
L 197.768231 107.997439 
L 198.787486 107.888526 
L 198.976237 107.843147 
L 200.003882 107.736509 
L 200.2178 107.661639 
L 201.203499 107.55274 
L 201.325139 107.493755 
L 201.962698 107.412086 
L 202.080143 107.353104 
L 203.569178 107.260097 
L 203.682429 107.201118 
L 204.257071 107.092239 
L 204.382905 107.035533 
L 205.217604 106.933464 
L 205.339243 106.847276 
L 206.220081 106.761091 
L 206.333332 106.722536 
L 206.954113 106.627283 
L 207.075753 106.597801 
L 207.600061 106.513892 
L 207.713312 106.454931 
L 208.577372 106.361956 
L 208.699011 106.327941 
L 208.862595 106.312068 
L 209.676322 106.203226 
L 209.835712 106.191888 
L 210.12513 106.080783 
L 210.28452 106.069446 
L 210.859162 105.958347 
L 211.094052 105.865389 
L 211.85325 105.756566 
L 212.01264 105.747497 
L 212.536948 105.638678 
L 213.03609 105.493593 
L 213.824649 105.398386 
L 213.942095 105.359851 
L 214.139234 105.307715 
L 214.562876 105.196648 
L 214.83971 105.171715 
L 215.661826 105.06292 
L 215.896716 105.015324 
L 216.249051 104.949597 
L 216.802721 104.840812 
L 216.920166 104.756959 
L 217.209584 104.65498 
L 217.331224 104.616456 
L 217.717115 104.53261 
L 218.493091 104.428374 
L 218.610536 104.414778 
L 219.663347 104.303749 
L 219.79757 104.296952 
L 220.03246 104.188193 
L 220.179267 104.170067 
L 221.009771 104.061314 
L 221.148188 104.04772 
L 221.471162 103.952566 
L 221.592802 103.911786 
L 222.356195 103.818902 
L 222.47364 103.778124 
L 222.935031 103.705632 
L 223.048282 103.635408 
L 223.669063 103.533473 
L 223.790702 103.485904 
L 223.950092 103.38624 
L 224.092704 103.316024 
L 224.63379 103.209572 
L 224.772208 103.191452 
L 225.372016 103.08727 
L 225.493656 103.055563 
L 226.097659 102.946856 
L 226.227687 102.91968 
L 226.760385 102.810979 
L 226.894608 102.804186 
L 228.043892 102.693225 
L 228.182309 102.668316 
L 229.19737 102.557361 
L 229.360954 102.541511 
L 229.977541 102.457732 
L 230.094986 102.396598 
L 230.980018 102.287919 
L 231.097463 102.263014 
L 232.229969 102.176981 
L 232.347414 102.129437 
L 232.859139 102.025297 
L 232.984973 101.989075 
L 233.991645 101.887204 
L 234.125868 101.864566 
L 234.968956 101.755909 
L 235.149318 101.724219 
L 236.323769 101.613304 
L 236.449603 101.60425 
L 237.556942 101.49334 
L 237.758276 101.47297 
L 238.886588 101.282852 
L 239.654175 101.178745 
L 239.77162 101.147061 
L 239.880677 101.076906 
L 239.993927 101.004489 
L 240.568569 100.92076 
L 240.68182 100.859662 
L 241.344545 100.751047 
L 241.491352 100.735207 
L 242.074383 100.624335 
L 242.527385 100.504417 
L 243.022332 100.393554 
L 243.219472 100.375454 
L 243.869614 100.314369 
L 245.006315 100.205777 
L 245.195066 100.162793 
L 245.908125 100.083616 
L 246.021376 100.049683 
L 247.271327 99.938839 
L 247.392966 99.907171 
L 248.173137 99.816691 
L 248.290582 99.785024 
L 249.091725 99.678715 
L 249.213365 99.595028 
L 249.653784 99.504559 
L 249.767035 99.468373 
L 250.6269 99.359815 
L 250.735956 99.314585 
L 251.637767 99.212818 
L 251.784573 99.181158 
L 252.51441 99.070352 
L 252.652828 99.056784 
L 253.881806 98.945983 
L 254.003446 98.934677 
L 255.039479 98.837447 
L 255.165313 98.78092 
L 256.062929 98.699523 
L 256.180374 98.656565 
L 257.161879 98.54578 
L 257.480659 98.496042 
L 257.78266 98.416915 
L 257.895911 98.376222 
L 258.478942 98.288056 
L 258.600581 98.227019 
L 259.468836 98.125295 
L 259.590476 98.021315 
L 259.879894 97.924119 
L 259.997339 97.885694 
L 260.651676 97.779463 
L 260.77751 97.756861 
L 261.36054 97.652895 
L 261.515736 97.576054 
L 261.700292 97.492435 
L 261.817737 97.444976 
L 262.572741 97.334243 
L 262.757298 97.325204 
L 263.361301 97.225775 
L 263.474552 97.18736 
L 264.443473 97.081157 
L 264.560919 97.056302 
L 265.471118 96.954624 
L 265.588563 96.936548 
L 266.058343 96.830355 
L 266.192566 96.823577 
L 266.423262 96.712871 
L 266.687513 96.694797 
L 267.752908 96.606688 
L 267.874547 96.511804 
L 268.889608 96.40337 
L 269.074165 96.364967 
L 269.489417 96.258798 
L 269.707529 96.224915 
L 270.437366 96.116493 
L 270.596756 96.100681 
L 271.280454 95.99904 
L 271.38951 95.965161 
L 272.161292 95.863525 
L 272.29971 95.838681 
L 273.365104 95.734792 
L 273.507716 95.714466 
L 274.329831 95.62639 
L 274.455665 95.581224 
L 275.244225 95.475086 
L 275.36167 95.432181 
L 276.338981 95.321534 
L 276.775206 95.210891 
L 277.421153 95.104769 
L 277.542793 95.086706 
L 278.209713 95.021229 
L 279.207996 94.910599 
L 279.329636 94.829323 
L 280.348891 94.723216 
L 280.474725 94.711928 
L 280.885783 94.603569 
L 281.0242 94.590024 
L 282.068622 94.479413 
L 283.373102 94.242404 
L 283.742215 94.163405 
L 283.863854 94.075381 
L 284.862137 93.967049 
L 285.038305 93.937709 
L 286.263089 93.836152 
L 286.41409 93.800044 
L 286.925815 93.689466 
L 287.257178 93.635307 
L 287.638874 93.524736 
L 287.882153 93.517966 
L 288.448406 93.409656 
L 288.570046 93.38258 
L 289.05241 93.283301 
L 289.178244 93.235919 
L 289.857747 93.147926 
L 289.979387 93.093779 
L 291.254505 92.98323 
L 291.384533 92.962926 
L 292.055648 92.854639 
L 292.298927 92.847872 
L 293.347543 92.744101 
L 293.460794 92.701241 
L 294.073186 92.599732 
L 294.186437 92.568152 
L 295.029525 92.459882 
L 295.18472 92.453115 
L 296.573088 92.342594 
L 296.963174 92.254632 
L 297.680428 92.146375 
L 297.835623 92.141864 
L 299.11913 92.049398 
L 299.23238 92.008804 
L 299.941245 91.907322 
L 300.054496 91.837415 
L 301.283474 91.729175 
L 301.43867 91.724665 
L 303.116456 91.632214 
L 303.229707 91.609665 
L 303.552681 91.503689 
L 303.670126 91.454085 
L 304.844577 91.343606 
L 304.957827 91.300769 
L 306.04 91.199315 
L 306.203584 91.140699 
L 306.727892 91.052777 
L 306.857921 91.009944 
L 307.92751 90.899484 
L 308.057538 90.879196 
L 308.808348 90.770996 
L 309.127127 90.72366 
L 309.710158 90.613212 
L 310.435801 90.53207 
L 311.513779 90.423884 
L 311.677363 90.387823 
L 312.423978 90.279643 
L 312.562395 90.266121 
L 313.770402 90.1602 
L 313.933986 90.10386 
L 315.448188 89.993439 
L 315.582411 89.982171 
L 316.584889 89.874008 
L 316.744279 89.819929 
L 317.67545 89.720785 
L 317.792895 89.700506 
L 319.009291 89.594608 
L 319.13093 89.583343 
L 320.158575 89.477449 
L 320.27602 89.439148 
L 321.219775 89.328755 
L 321.345609 89.279192 
L 322.452948 89.186827 
L 322.574587 89.112488 
L 323.472203 89.002108 
L 323.673538 88.981835 
L 324.95285 88.871461 
L 325.267435 88.826411 
L 326.492219 88.725053 
L 326.609664 88.675502 
L 327.842837 88.567393 
L 327.981255 88.506584 
L 329.298317 88.39623 
L 329.55418 88.382718 
L 330.88802 88.272369 
L 331.294884 88.18004 
L 332.322528 88.096721 
L 332.444167 88.020161 
L 333.773813 87.909828 
L 333.903842 87.831021 
L 334.818236 87.720696 
L 334.927292 87.682421 
L 336.072381 87.576604 
L 336.282104 87.549588 
L 337.599167 87.439275 
L 337.859224 87.425767 
L 339.021091 87.326715 
L 339.142731 87.299701 
L 340.862462 87.202904 
L 340.984102 87.153382 
L 342.783528 87.043085 
L 343.353975 87.00482 
L 344.402592 86.896781 
L 344.595537 86.878774 
L 345.316986 86.790996 
L 345.434431 86.750484 
L 346.868938 86.640204 
L 347.003161 86.608697 
L 347.649109 86.514176 
L 347.76236 86.478169 
L 349.188478 86.379153 
L 349.310118 86.295892 
L 350.388096 86.210383 
L 350.501347 86.172131 
L 352.04491 86.064125 
L 352.162355 86.039375 
L 353.156444 85.935875 
L 353.273889 85.913376 
L 355.496956 85.812131 
L 355.610207 85.773884 
L 356.386183 85.670395 
L 356.503628 85.652397 
L 357.732607 85.542164 
L 357.887802 85.515169 
L 358.592473 85.404941 
L 358.940614 85.344206 
L 360.219926 85.238484 
L 360.362538 85.168755 
L 361.587322 85.081035 
L 361.700573 85.040549 
L 362.816301 84.932591 
L 362.946329 84.912349 
L 363.806195 84.815641 
L 363.927834 84.777409 
L 364.561199 84.667213 
L 364.775117 84.635729 
L 365.928595 84.527787 
L 366.067012 84.485062 
L 367.103046 84.390618 
L 367.216296 84.341149 
L 368.155857 84.235468 
L 368.277496 84.221977 
L 368.889888 84.114053 
L 369.028306 84.093818 
L 370.416674 83.990395 
L 370.529925 83.961168 
L 371.817626 83.851006 
L 372.182545 83.781314 
L 373.151467 83.67116 
L 373.306662 83.664416 
L 374.569196 83.558763 
L 374.69503 83.549771 
L 375.928204 83.439627 
L 376.184066 83.428388 
L 377.387878 83.322744 
L 377.522101 83.316001 
L 378.360994 83.237333 
L 378.478439 83.199124 
L 379.879391 83.093489 
L 380.030392 83.044045 
L 380.957369 82.940664 
L 381.074814 82.922685 
L 382.115042 82.814814 
L 382.270237 82.81032 
L 383.616661 82.702454 
L 383.771856 82.697959 
L 384.510082 82.587851 
L 384.652694 82.565381 
L 385.470615 82.466513 
L 385.592255 82.423821 
L 385.860701 82.405845 
L 387.479765 82.297996 
L 387.639155 82.286762 
L 388.545159 82.192398 
L 388.65841 82.151957 
L 390.201974 82.041872 
L 390.357169 82.037379 
L 391.628092 81.943024 
L 391.745537 81.900341 
L 392.924183 81.81273 
L 393.050017 81.78128 
L 394.304162 81.675703 
L 394.421607 81.646502 
L 395.570891 81.538684 
L 395.889671 81.491515 
L 397.965932 81.406164 
L 398.079182 81.358998 
L 400.067359 81.251192 
L 400.188999 81.215257 
L 401.728368 81.129915 
L 401.845813 81.085 
L 403.263543 80.983942 
L 403.376794 80.954748 
L 404.526077 80.849205 
L 404.656106 80.837977 
L 407.596427 80.730192 
L 407.764206 80.707738 
L 409.551049 80.60894 
L 409.664299 80.590977 
L 410.624832 80.480958 
L 410.759055 80.462996 
L 412.592037 80.355227 
L 412.701093 80.330531 
L 413.988794 80.251953 
L 414.102045 80.216032 
L 414.357907 80.204807 
L 416.66067 80.106029 
L 416.77392 80.081335 
L 417.734453 79.982561 
L 417.851898 79.964602 
L 419.378684 79.861343 
L 419.512907 79.834407 
L 419.894603 79.755844 
L 421.442362 79.663816 
L 421.555612 79.627904 
L 422.83073 79.529147 
L 422.943981 79.502214 
L 424.273627 79.39224 
L 424.449794 79.365309 
L 424.714046 79.349599 
L 425.909469 79.241876 
L 426.043692 79.235143 
L 427.645978 79.125181 
L 427.834729 79.084788 
L 430.254936 78.977076 
L 430.447882 78.961368 
L 431.790111 78.853661 
L 431.962084 78.813273 
L 433.732149 78.703328 
L 434.008984 78.678647 
L 435.984578 78.575439 
L 436.097828 78.537298 
L 436.36208 78.447557 
L 436.36208 78.447557 
" clip-path="url(#p7131a4624e)" style="fill: none; stroke: #ff7f0e; stroke-opacity: 0.7; stroke-width: 1.5; stroke-linecap: square"/>
   </g>
   <g id="line2d_29">
    <path d="M 75.363915 433 
L 75.583416 427.152018 
L 75.650528 422.982936 
L 75.822501 402.869488 
L 75.83089 402.183585 
L 76.086752 377.300998 
L 76.313254 360.448555 
L 77.810678 360.341069 
L 78.095902 356.252406 
L 78.288847 347.974846 
L 78.30982 347.566881 
L 78.616016 327.286576 
L 78.662155 324.661807 
L 79.324881 287.579561 
L 79.425548 284.768603 
L 79.572354 278.96435 
L 79.87855 267.066436 
L 79.899523 266.967555 
L 80.11344 261.400076 
L 80.130218 260.928434 
L 80.289608 256.699507 
L 80.327358 256.656267 
L 80.461581 254.1424 
L 80.620971 251.69329 
L 80.625165 251.686097 
L 80.780361 249.141085 
L 80.839083 248.959051 
L 81.019445 245.474119 
L 81.069779 245.136883 
L 81.224974 242.784621 
L 81.250141 242.710549 
L 81.388558 241.026591 
L 81.430503 240.680379 
L 81.669587 235.823943 
L 81.682171 235.759601 
L 82.202285 230.612628 
L 82.219063 230.574575 
L 82.349091 228.042946 
L 82.420397 227.855252 
L 82.550426 226.60351 
L 82.651093 225.827114 
L 82.78951 224.607191 
L 82.797899 224.607191 
L 82.969872 221.687866 
L 82.98665 221.687866 
L 83.116679 220.349058 
L 83.125067 220.349058 
L 83.25929 219.100914 
L 83.460625 218.071111 
L 83.527736 217.955136 
L 83.800377 217.025153 
L 83.884266 216.935249 
L 84.068822 215.338779 
L 84.186268 214.537365 
L 84.228212 214.480637 
L 84.354046 213.615689 
L 84.416963 213.594424 
L 84.534408 213.117175 
L 84.576353 213.079377 
L 84.718965 212.4487 
L 84.777687 212.179469 
L 84.928688 211.251544 
L 84.974827 210.99896 
L 85.104856 210.054937 
L 85.415246 209.165508 
L 85.490747 209.054646 
L 85.583025 208.849445 
L 85.717248 208.257519 
L 85.805332 208.172632 
L 85.922777 206.965652 
L 86.090555 206.458982 
L 86.208 205.994816 
L 86.359001 205.902936 
L 86.60228 204.793554 
L 86.648419 204.744102 
L 86.765865 204.37442 
L 87.000755 203.960062 
L 87.021727 203.863545 
L 87.143367 203.145663 
L 87.898371 200.621701 
L 87.994843 200.515903 
L 88.250706 200.21264 
L 88.342984 200.130366 
L 88.456235 199.519264 
L 88.493985 199.444061 
L 88.619819 198.760287 
L 88.632402 198.757937 
L 88.754042 197.651591 
L 88.84632 197.498947 
L 89.026682 196.980025 
L 89.08121 196.923678 
L 89.198655 196.440081 
L 89.257378 196.160762 
L 89.387406 195.200978 
L 89.643269 194.307219 
L 89.655852 194.269692 
L 89.794269 193.364529 
L 89.949465 193.263714 
L 90.175966 192.541713 
L 90.289217 192.431555 
L 90.415051 192.28156 
L 90.494745 192.190161 
L 90.61219 191.580917 
L 90.666719 191.344287 
L 90.784164 190.835958 
L 91.304277 190.31836 
L 91.421723 189.73999 
L 91.551751 189.585468 
L 91.669196 189.224951 
L 91.723724 189.117274 
L 91.836975 189.068118 
L 91.95442 188.974491 
L 92.273199 188.53449 
L 92.394839 188.452583 
L 92.54584 188.1437 
L 92.726202 188.038407 
L 93.028203 187.397383 
L 93.149843 187.074591 
L 93.351177 186.990391 
L 93.4854 186.829015 
L 93.581873 186.737807 
L 93.695123 186.225698 
L 93.900652 186.136849 
L 95.234493 182.739486 
L 95.25966 182.713801 
L 95.381299 182.363571 
L 95.591022 182.258512 
L 95.742023 181.910678 
L 96.19922 181.544218 
L 96.32086 181.448527 
L 96.337638 181.362175 
L 96.459277 181.266491 
L 96.664806 181.161475 
L 96.782251 180.820788 
L 96.916474 180.739122 
L 97.092642 180.624796 
L 97.314948 180.526805 
L 97.499505 180.405489 
L 97.629533 180.307507 
L 97.746978 180.239854 
L 97.847646 180.146544 
L 97.969285 180.062567 
L 98.103508 179.889957 
L 98.241925 179.789662 
L 98.401315 179.663715 
L 98.682344 179.561096 
L 98.896262 179.381523 
L 99.043069 179.274252 
L 99.173097 179.206627 
L 99.261181 179.176312 
L 99.378626 178.87552 
L 99.496071 178.770601 
L 99.647072 178.668018 
L 99.965851 178.558444 
L 100.104269 178.465194 
L 100.125241 178.437219 
L 100.242686 178.148167 
L 100.410465 178.071248 
L 100.523715 178.0223 
L 100.611799 177.992 
L 100.741828 177.474614 
L 100.834106 177.393054 
L 100.955745 177.299845 
L 101.115135 177.190329 
L 101.123524 177.183339 
L 101.240969 176.742993 
L 101.366803 176.605545 
L 102.054696 176.176942 
L 102.323141 176.074461 
L 102.440587 175.813616 
L 102.541254 175.80663 
L 102.654504 175.569099 
L 103.027812 175.464313 
L 103.141062 175.43637 
L 103.380147 175.338575 
L 103.497592 175.319947 
L 103.694732 175.212843 
L 103.963178 175.080132 
L 104.072234 174.984678 
L 104.189679 174.940444 
L 104.407791 174.835683 
L 104.609126 174.702992 
L 104.781099 174.605224 
L 104.906933 174.523753 
L 105.259268 174.416681 
L 105.406074 174.384095 
L 105.578048 174.288667 
L 105.754215 174.160658 
L 106.0688 174.051274 
L 106.446302 173.834846 
L 106.580525 173.765035 
L 106.798637 173.671955 
L 106.916082 173.611456 
L 106.949638 173.520709 
L 107.100639 173.257794 
L 107.381668 173.150774 
L 107.595586 173.006536 
L 107.826282 172.897201 
L 108.128283 172.601784 
L 108.283479 172.515724 
L 108.405118 172.427341 
L 108.732287 172.35059 
L 108.900065 172.00175 
L 109.051066 171.892456 
L 109.1769 171.878504 
L 109.717986 171.585528 
L 109.84382 171.174022 
L 110.011599 171.067088 
L 110.191961 170.981078 
L 111.49644 170.383741 
L 111.739719 170.276839 
L 111.873942 170.179236 
L 111.982998 170.169941 
L 112.096249 169.972425 
L 112.427612 169.87251 
L 112.549251 169.760982 
L 112.683474 169.656429 
L 112.817697 169.628549 
L 113.329422 169.470567 
L 113.472034 169.412488 
L 113.585285 169.20806 
L 113.857925 169.115143 
L 113.992148 169.02223 
L 114.243816 168.913061 
L 114.365455 168.820155 
L 114.612929 168.717962 
L 114.755541 168.643642 
L 115.11207 168.541456 
L 115.225321 168.357996 
L 115.502156 168.253499 
L 115.70349 168.227956 
L 115.892241 168.11882 
L 116.198437 168.074703 
L 116.487855 167.979505 
L 116.609495 167.914494 
L 116.65144 167.90985 
L 116.768885 167.505888 
L 116.907302 167.489638 
L 117.020553 167.28536 
L 117.435805 167.194833 
L 117.687473 166.858286 
L 117.691667 166.858286 
L 117.800724 166.591401 
L 119.7134 165.957946 
L 119.843429 165.886025 
L 119.969263 165.823386 
L 120.082513 165.667954 
L 120.418071 165.565885 
L 120.535516 165.52413 
L 121.059824 165.431345 
L 121.181464 165.315368 
L 121.357631 165.234187 
L 121.470882 164.997617 
L 122.167163 164.888616 
L 122.51111 164.821363 
L 122.825695 164.737878 
L 122.94314 164.663672 
L 123.303864 164.573236 
L 123.446476 164.503672 
L 123.589088 164.403967 
L 123.702338 164.18602 
L 124.222452 164.100237 
L 124.356675 163.958818 
L 124.885178 163.849861 
L 125.011012 163.833634 
L 125.120068 163.817406 
L 125.233319 163.576329 
L 125.430458 163.483613 
L 125.547904 163.261107 
L 125.786988 163.168403 
L 125.9296 163.087288 
L 126.130934 162.99459 
L 126.248379 162.915798 
L 126.768493 162.806885 
L 127.036939 162.783712 
L 127.678693 162.674804 
L 128.093945 162.47322 
L 128.21139 162.267019 
L 128.345613 162.236901 
L 128.760865 162.141915 
L 128.874116 162.065466 
L 129.222256 161.958905 
L 129.381646 161.907942 
L 129.465535 161.887094 
L 129.578786 161.678622 
L 130.358957 161.579025 
L 130.497374 161.544283 
L 130.719681 161.523438 
L 130.832932 161.319627 
L 131.290128 161.159832 
L 131.411768 160.935209 
L 131.587936 160.840271 
L 131.709575 160.81017 
L 131.919298 160.70829 
L 132.2213 160.479076 
L 132.753997 160.377209 
L 132.867248 160.354058 
L 133.475446 160.249882 
L 133.588696 160.222102 
L 134.050088 160.113301 
L 134.389839 160.0508 
L 134.570201 159.939692 
L 134.679258 159.888768 
L 135.17001 159.779981 
L 135.346178 159.701287 
L 135.857903 159.592507 
L 136.000515 159.550848 
L 136.289933 159.449018 
L 136.403183 159.407361 
L 136.82263 159.307851 
L 136.98202 159.044051 
L 137.271438 158.939926 
L 137.418244 158.921416 
L 137.762191 158.81961 
L 137.904802 158.740945 
L 138.521389 158.634519 
L 138.659806 158.493396 
L 138.819196 158.41474 
L 138.940836 158.188041 
L 139.347699 158.079324 
L 139.465144 158.021498 
L 139.838452 157.924354 
L 139.960091 157.831838 
L 140.442455 157.730075 
L 140.551511 157.503435 
L 140.929013 157.403997 
L 141.046458 157.36931 
L 141.344265 157.269877 
L 141.482682 157.156575 
L 142.044741 157.045589 
L 143.055607 156.610942 
L 143.504415 156.502291 
L 143.626055 156.469928 
L 143.647027 156.467617 
L 143.760278 156.259578 
L 144.062279 156.217972 
L 144.758561 156.107026 
L 144.892784 156.053867 
L 145.383537 155.949862 
L 145.542926 155.915194 
L 146.113374 155.820439 
L 146.251791 155.568545 
L 146.57896 155.46456 
L 146.734155 155.390617 
L 146.885156 155.349025 
L 147.531103 155.247359 
L 147.694688 155.20808 
L 148.080579 155.101798 
L 148.198024 155.071763 
L 148.948833 154.965486 
L 149.20889 154.893868 
L 149.766754 154.80608 
L 149.884199 154.762188 
L 149.926144 154.759877 
L 150.039395 154.570454 
L 150.660176 154.471128 
L 150.794399 154.450339 
L 151.348068 154.341779 
L 151.469708 154.277107 
L 151.901738 154.166244 
L 152.023377 154.12929 
L 152.346351 154.076171 
L 152.853882 153.967626 
L 152.967132 153.926057 
L 154.032527 153.819827 
L 154.149972 153.759786 
L 154.485529 153.699747 
L 154.850448 153.593527 
L 154.967893 153.575054 
L 155.634813 153.503474 
L 155.748064 153.438822 
L 156.037482 153.330304 
L 156.222038 153.291054 
L 156.989626 153.194085 
L 157.497156 153.099429 
L 157.635574 153.020936 
L 158.369605 152.914743 
L 158.508023 152.891658 
L 159.170749 152.785471 
L 159.309166 152.760079 
L 159.405639 152.75777 
L 159.518889 152.573109 
L 159.841863 152.492324 
L 159.959308 152.446162 
L 160.689145 152.349225 
L 160.806591 152.319221 
L 161.5574 152.208441 
L 163.918885 151.673072 
L 164.623555 151.56232 
L 164.757778 151.532325 
L 165.722505 151.426193 
L 165.860923 151.368515 
L 166.469121 151.267003 
L 166.578177 151.225477 
L 167.215736 151.123971 
L 167.34157 151.082447 
L 167.68971 151.013242 
L 168.511826 150.902518 
L 168.755105 150.893291 
L 169.233274 150.782572 
L 169.350719 150.75028 
L 170.030223 150.651099 
L 170.147668 150.616502 
L 170.751671 150.517326 
L 170.860727 150.478118 
L 171.779315 150.381254 
L 171.951289 150.270557 
L 172.249096 150.187537 
L 172.366541 150.13911 
L 173.163489 150.028423 
L 173.759104 149.825508 
L 174.723831 149.728668 
L 174.837082 149.689472 
L 175.172639 149.590332 
L 175.290084 149.567276 
L 176.154144 149.456614 
L 176.288367 149.447392 
L 177.022399 149.362093 
L 177.135649 149.322902 
L 177.580263 149.253744 
L 177.693513 149.198418 
L 178.230405 149.087771 
L 178.373017 149.062415 
L 179.086076 148.956384 
L 179.237077 148.88493 
L 180.411528 148.776601 
L 180.545751 148.765077 
L 181.112004 148.661362 
L 181.267199 148.599135 
L 182.022203 148.488513 
L 182.156426 148.467772 
L 182.78979 148.391723 
L 182.915624 148.331807 
L 183.830018 148.230414 
L 183.951658 148.211979 
L 185.272915 148.101374 
L 185.432304 148.050681 
L 186.124391 147.942387 
L 186.363476 147.882481 
L 186.711617 147.790321 
L 186.841645 147.730419 
L 187.919623 147.656695 
L 188.032874 147.603707 
L 188.515237 147.493128 
L 188.792072 147.467787 
L 189.748411 147.361821 
L 189.882634 147.347999 
L 190.33983 147.255858 
L 190.46147 147.198272 
L 191.417808 147.087709 
L 191.963089 147.053159 
L 193.192068 146.94721 
L 193.347263 146.901146 
L 194.366518 146.790596 
L 194.773382 146.693869 
L 195.679387 146.592539 
L 195.801026 146.500425 
L 196.438585 146.3968 
L 196.560225 146.343838 
L 197.256506 146.237917 
L 197.386535 146.196471 
L 199.223711 146.085951 
L 200.079382 145.966226 
L 201.727808 145.860321 
L 201.857836 145.775139 
L 202.499589 145.666939 
L 202.617034 145.627803 
L 203.128759 145.517308 
L 203.24201 145.49659 
L 204.655545 145.422929 
L 204.768796 145.356176 
L 205.116937 145.291726 
L 205.926469 145.185848 
L 206.043914 145.149022 
L 208.321509 145.047752 
L 208.451538 144.985612 
L 209.323987 144.88665 
L 209.454015 144.817609 
L 209.80635 144.707148 
L 209.932184 144.697943 
L 211.14858 144.587486 
L 211.375081 144.539163 
L 213.493287 144.428713 
L 214.239902 144.338976 
L 214.713876 144.244641 
L 214.831321 144.207828 
L 216.366496 144.099693 
L 216.580414 144.067483 
L 216.88661 144.023771 
L 218.065255 143.913343 
L 218.195284 143.894939 
L 218.358868 143.858131 
L 218.472119 143.671798 
L 219.990516 143.565986 
L 220.120544 143.556785 
L 221.274022 143.457877 
L 221.387273 143.414175 
L 222.280694 143.303773 
L 222.427501 143.271573 
L 223.333505 143.202575 
L 223.446756 143.151978 
L 225.233599 143.050786 
L 225.346849 142.993292 
L 227.066581 142.882908 
L 227.18822 142.846114 
L 228.471727 142.747233 
L 228.593367 142.719639 
L 229.058952 142.648357 
L 229.172203 142.59777 
L 230.644461 142.487402 
L 230.795462 142.482804 
L 233.110807 142.372441 
L 233.819672 142.291971 
L 235.182874 142.181617 
L 235.447125 142.163225 
L 237.024245 142.052875 
L 237.842166 141.942531 
L 239.431869 141.843685 
L 239.549314 141.795412 
L 240.493069 141.71496 
L 240.614708 141.678183 
L 241.478768 141.570153 
L 241.612991 141.540273 
L 242.518996 141.446039 
L 242.64483 141.386282 
L 243.701836 141.298948 
L 243.819281 141.269071 
L 244.842731 141.174846 
L 244.96437 141.142673 
L 245.601929 141.048453 
L 245.719374 141.016281 
L 246.780574 140.90598 
L 247.292299 140.880704 
L 249.775423 140.781898 
L 249.892869 140.715263 
L 250.379427 140.696882 
L 251.709073 140.586595 
L 251.990102 140.559023 
L 252.766078 140.453337 
L 252.917079 140.400496 
L 253.437193 140.372926 
L 254.838145 140.287924 
L 254.959784 140.235085 
L 256.05454 140.129412 
L 256.188763 140.111035 
L 257.329658 140.005366 
L 257.505826 139.998475 
L 258.403441 139.888218 
L 258.642526 139.883624 
L 260.735565 139.775668 
L 260.857204 139.725137 
L 261.670931 139.619484 
L 261.859682 139.545989 
L 263.554247 139.447234 
L 263.675886 139.428861 
L 264.883892 139.318628 
L 265.114588 139.272698 
L 265.697619 139.178546 
L 265.81087 139.146397 
L 266.855292 139.047657 
L 266.964348 139.010917 
L 268.751191 138.912182 
L 268.87283 138.886925 
L 269.548139 138.820338 
L 269.665584 138.774418 
L 270.861008 138.6711 
L 270.974258 138.622886 
L 272.480072 138.526461 
L 272.593322 138.508095 
L 274.787028 138.3979 
L 274.96739 138.391013 
L 276.238314 138.280824 
L 276.50676 138.257868 
L 278.054518 138.163752 
L 278.163574 138.115548 
L 279.686165 138.009961 
L 279.799416 137.989303 
L 281.405897 137.886016 
L 281.535925 137.869949 
L 282.945266 137.759782 
L 283.104656 137.748306 
L 284.845359 137.638144 
L 284.95861 137.585359 
L 285.076055 137.477498 
L 285.27739 137.452255 
L 286.774814 137.353579 
L 286.92162 137.323747 
L 288.783964 137.213602 
L 288.918187 137.202129 
L 290.117804 137.096579 
L 290.298166 137.057572 
L 291.334199 136.977266 
L 291.44745 136.931378 
L 292.722568 136.848782 
L 292.844207 136.757011 
L 295.092442 136.653773 
L 295.218276 136.614773 
L 296.195586 136.506952 
L 296.325615 136.50007 
L 297.743345 136.399136 
L 297.89854 136.350964 
L 299.085574 136.256917 
L 299.198824 136.222511 
L 300.771749 136.123881 
L 300.901778 136.071127 
L 303.980516 135.970209 
L 304.102156 135.940394 
L 305.217884 135.834894 
L 305.482136 135.761506 
L 307.33609 135.651427 
L 307.44934 135.610149 
L 308.963543 135.504663 
L 309.097766 135.495491 
L 310.335134 135.390009 
L 310.473551 135.357907 
L 312.214255 135.254724 
L 312.3317 135.234088 
L 313.619401 135.156131 
L 313.732652 135.059834 
L 315.708245 134.949785 
L 316.25772 134.913104 
L 318.598233 134.803061 
L 318.866679 134.780136 
L 320.129213 134.672391 
L 320.280214 134.665514 
L 321.702138 134.564651 
L 321.819583 134.548605 
L 323.279258 134.445454 
L 323.392508 134.406487 
L 326.425108 134.298757 
L 326.597081 134.273545 
L 328.954371 134.170405 
L 329.071816 134.152069 
L 330.88802 134.042059 
L 331.185827 134.003097 
L 334.151315 133.904552 
L 334.26876 133.88851 
L 336.751885 133.79226 
L 336.86933 133.773927 
L 338.639395 133.663932 
L 338.765229 133.654766 
L 340.157792 133.544776 
L 340.422043 133.526445 
L 342.322136 133.416461 
L 342.464748 133.405005 
L 344.205452 133.299608 
L 344.394203 133.285861 
L 346.160074 133.18276 
L 346.285908 133.173595 
L 349.092006 133.068208 
L 349.205256 133.015516 
L 351.164072 132.905553 
L 351.281517 132.891808 
L 352.531468 132.781851 
L 352.665691 132.774978 
L 356.415545 132.665026 
L 356.625268 132.630666 
L 358.156248 132.525301 
L 358.290471 132.504686 
L 360.295426 132.397036 
L 360.417066 132.383293 
L 362.686272 132.280228 
L 362.803717 132.259616 
L 363.063774 132.243584 
L 365.41687 132.138234 
L 365.546899 132.126783 
L 367.346325 132.037468 
L 367.467964 132.003117 
L 368.902472 131.897777 
L 369.036695 131.890907 
L 370.932594 131.780992 
L 371.196845 131.762673 
L 372.543269 131.655053 
L 372.669103 131.632156 
L 376.276344 131.524541 
L 376.406373 131.506224 
L 380.017809 131.400904 
L 380.131059 131.355114 
L 382.123431 131.263536 
L 382.240876 131.217749 
L 384.623333 131.107862 
L 384.854029 131.105572 
L 387.089679 131.007136 
L 387.20293 130.991112 
L 389.891583 130.894969 
L 390.017417 130.872078 
L 391.288341 130.771362 
L 391.401591 130.737027 
L 391.535814 130.73016 
L 393.855354 130.650049 
L 393.968605 130.592828 
L 397.173177 130.482968 
L 397.62618 130.473813 
L 400.738474 130.379977 
L 400.855919 130.309031 
L 403.800435 130.199182 
L 403.91788 130.174009 
L 408.145902 130.080185 
L 408.267542 130.027553 
L 411.19528 129.920004 
L 411.312725 129.903987 
L 414.299185 129.798732 
L 414.433408 129.787291 
L 416.350279 129.695768 
L 416.46353 129.656872 
L 417.906426 129.565354 
L 418.028066 129.528748 
L 419.68488 129.42122 
L 419.798131 129.391479 
L 421.647891 129.283957 
L 421.773725 129.26108 
L 424.479156 129.153563 
L 424.596601 129.1284 
L 427.738256 129.020889 
L 427.893451 129.011739 
L 430.745689 128.906519 
L 430.875717 128.899657 
L 433.191063 128.792155 
L 433.325286 128.785294 
L 438.241201 128.684658 
L 438.354451 128.638915 
L 441.307356 128.535998 
L 441.424801 128.517702 
L 445.136904 128.410216 
L 445.262738 128.401068 
L 447.64939 128.293587 
L 447.80039 128.289013 
L 449.679511 128.197543 
L 449.679511 128.197543 
" clip-path="url(#p7131a4624e)" style="fill: none; stroke: #2ca02c; stroke-opacity: 0.7; stroke-width: 1.5; stroke-linecap: square"/>
   </g>
   <g id="patch_3">
    <path d="M 36.625 390.04 
L 36.625 10.8 
" style="fill: none; stroke: #000000; stroke-width: 0.8; stroke-linejoin: miter; stroke-linecap: square"/>
   </g>
   <g id="patch_4">
    <path d="M 853.2 390.04 
L 853.2 10.8 
" style="fill: none; stroke: #000000; stroke-width: 0.8; stroke-linejoin: miter; stroke-linecap: square"/>
   </g>
   <g id="patch_5">
    <path d="M 36.625 390.04 
L 853.2 390.04 
" style="fill: none; stroke: #000000; stroke-width: 0.8; stroke-linejoin: miter; stroke-linecap: square"/>
   </g>
   <g id="patch_6">
    <path d="M 36.625 10.8 
L 853.2 10.8 
" style="fill: none; stroke: #000000; stroke-width: 0.8; stroke-linejoin: miter; stroke-linecap: square"/>
   </g>
   <g id="legend_1">
    <g id="patch_7">
     <path d="M 739.820312 62.834375 
L 846.2 62.834375 
Q 848.2 62.834375 848.2 60.834375 
L 848.2 17.8 
Q 848.2 15.8 846.2 15.8 
L 739.820312 15.8 
Q 737.820312 15.8 737.820312 17.8 
L 737.820312 60.834375 
Q 737.820312 62.834375 739.820312 62.834375 
z
" style="fill: #ffffff; opacity: 0.8; stroke: #cccccc; stroke-linejoin: miter"/>
    </g>
    <g id="line2d_30">
     <path d="M 741.820312 23.898438 
L 751.820312 23.898438 
L 761.820312 23.898438 
" style="fill: none; stroke: #1f77b4; stroke-opacity: 0.7; stroke-width: 1.5; stroke-linecap: square"/>
    </g>
    <g id="text_16">
     <!-- 10oc-both -->
     <g transform="translate(769.820312 27.398438) scale(0.1 -0.1)">
      <defs>
       <path id="DejaVuSans-2d" d="M 313 2009 
L 1997 2009 
L 1997 1497 
L 313 1497 
L 313 2009 
z
" transform="scale(0.015625)"/>
       <path id="DejaVuSans-62" d="M 3116 1747 
Q 3116 2381 2855 2742 
Q 2594 3103 2138 3103 
Q 1681 3103 1420 2742 
Q 1159 2381 1159 1747 
Q 1159 1113 1420 752 
Q 1681 391 2138 391 
Q 2594 391 2855 752 
Q 3116 1113 3116 1747 
z
M 1159 2969 
Q 1341 3281 1617 3432 
Q 1894 3584 2278 3584 
Q 2916 3584 3314 3078 
Q 3713 2572 3713 1747 
Q 3713 922 3314 415 
Q 2916 -91 2278 -91 
Q 1894 -91 1617 61 
Q 1341 213 1159 525 
L 1159 0 
L 581 0 
L 581 4863 
L 1159 4863 
L 1159 2969 
z
" transform="scale(0.015625)"/>
       <path id="DejaVuSans-74" d="M 1172 4494 
L 1172 3500 
L 2356 3500 
L 2356 3053 
L 1172 3053 
L 1172 1153 
Q 1172 725 1289 603 
Q 1406 481 1766 481 
L 2356 481 
L 2356 0 
L 1766 0 
Q 1100 0 847 248 
Q 594 497 594 1153 
L 594 3053 
L 172 3053 
L 172 3500 
L 594 3500 
L 594 4494 
L 1172 4494 
z
" transform="scale(0.015625)"/>
       <path id="DejaVuSans-68" d="M 3513 2113 
L 3513 0 
L 2938 0 
L 2938 2094 
Q 2938 2591 2744 2837 
Q 2550 3084 2163 3084 
Q 1697 3084 1428 2787 
Q 1159 2491 1159 1978 
L 1159 0 
L 581 0 
L 581 4863 
L 1159 4863 
L 1159 2956 
Q 1366 3272 1645 3428 
Q 1925 3584 2291 3584 
Q 2894 3584 3203 3211 
Q 3513 2838 3513 2113 
z
" transform="scale(0.015625)"/>
      </defs>
      <use xlink:href="#DejaVuSans-31"/>
      <use xlink:href="#DejaVuSans-30" transform="translate(63.623047 0)"/>
      <use xlink:href="#DejaVuSans-6f" transform="translate(127.246094 0)"/>
      <use xlink:href="#DejaVuSans-63" transform="translate(188.427734 0)"/>
      <use xlink:href="#DejaVuSans-2d" transform="translate(243.408203 0)"/>
      <use xlink:href="#DejaVuSans-62" transform="translate(279.492188 0)"/>
      <use xlink:href="#DejaVuSans-6f" transform="translate(342.96875 0)"/>
      <use xlink:href="#DejaVuSans-74" transform="translate(404.150391 0)"/>
      <use xlink:href="#DejaVuSans-68" transform="translate(443.359375 0)"/>
     </g>
    </g>
    <g id="line2d_31">
     <path d="M 741.820312 38.576563 
L 751.820312 38.576563 
L 761.820312 38.576563 
" style="fill: none; stroke: #ff7f0e; stroke-opacity: 0.7; stroke-width: 1.5; stroke-linecap: square"/>
    </g>
    <g id="text_17">
     <!-- 10oc-coverage -->
     <g transform="translate(769.820312 42.076563) scale(0.1 -0.1)">
      <use xlink:href="#DejaVuSans-31"/>
      <use xlink:href="#DejaVuSans-30" transform="translate(63.623047 0)"/>
      <use xlink:href="#DejaVuSans-6f" transform="translate(127.246094 0)"/>
      <use xlink:href="#DejaVuSans-63" transform="translate(188.427734 0)"/>
      <use xlink:href="#DejaVuSans-2d" transform="translate(243.408203 0)"/>
      <use xlink:href="#DejaVuSans-63" transform="translate(279.492188 0)"/>
      <use xlink:href="#DejaVuSans-6f" transform="translate(334.472656 0)"/>
      <use xlink:href="#DejaVuSans-76" transform="translate(395.654297 0)"/>
      <use xlink:href="#DejaVuSans-65" transform="translate(454.833984 0)"/>
      <use xlink:href="#DejaVuSans-72" transform="translate(516.357422 0)"/>
      <use xlink:href="#DejaVuSans-61" transform="translate(557.470703 0)"/>
      <use xlink:href="#DejaVuSans-67" transform="translate(618.75 0)"/>
      <use xlink:href="#DejaVuSans-65" transform="translate(682.226562 0)"/>
     </g>
    </g>
    <g id="line2d_32">
     <path d="M 741.820312 53.254687 
L 751.820312 53.254687 
L 761.820312 53.254687 
" style="fill: none; stroke: #2ca02c; stroke-opacity: 0.7; stroke-width: 1.5; stroke-linecap: square"/>
    </g>
    <g id="text_18">
     <!-- 10oc-state-diff -->
     <g transform="translate(769.820312 56.754687) scale(0.1 -0.1)">
      <defs>
       <path id="DejaVuSans-66" d="M 2375 4863 
L 2375 4384 
L 1825 4384 
Q 1516 4384 1395 4259 
Q 1275 4134 1275 3809 
L 1275 3500 
L 2222 3500 
L 2222 3053 
L 1275 3053 
L 1275 0 
L 697 0 
L 697 3053 
L 147 3053 
L 147 3500 
L 697 3500 
L 697 3744 
Q 697 4328 969 4595 
Q 1241 4863 1831 4863 
L 2375 4863 
z
" transform="scale(0.015625)"/>
      </defs>
      <use xlink:href="#DejaVuSans-31"/>
      <use xlink:href="#DejaVuSans-30" transform="translate(63.623047 0)"/>
      <use xlink:href="#DejaVuSans-6f" transform="translate(127.246094 0)"/>
      <use xlink:href="#DejaVuSans-63" transform="translate(188.427734 0)"/>
      <use xlink:href="#DejaVuSans-2d" transform="translate(243.408203 0)"/>
      <use xlink:href="#DejaVuSans-73" transform="translate(279.492188 0)"/>
      <use xlink:href="#DejaVuSans-74" transform="translate(331.591797 0)"/>
      <use xlink:href="#DejaVuSans-61" transform="translate(370.800781 0)"/>
      <use xlink:href="#DejaVuSans-74" transform="translate(432.080078 0)"/>
      <use xlink:href="#DejaVuSans-65" transform="translate(471.289062 0)"/>
      <use xlink:href="#DejaVuSans-2d" transform="translate(532.8125 0)"/>
      <use xlink:href="#DejaVuSans-64" transform="translate(568.896484 0)"/>
      <use xlink:href="#DejaVuSans-69" transform="translate(632.373047 0)"/>
      <use xlink:href="#DejaVuSans-66" transform="translate(660.15625 0)"/>
      <use xlink:href="#DejaVuSans-66" transform="translate(695.361328 0)"/>
     </g>
    </g>
   </g>
  </g>
 </g>
 <defs>
  <clipPath id="p7131a4624e">
   <rect x="36.625" y="10.8" width="816.575" height="379.24"/>
  </clipPath>
 </defs>
</svg>
