<?xml version="1.0" encoding="utf-8" standalone="no"?>
<!DOCTYPE svg PUBLIC "-//W3C//DTD SVG 1.1//EN"
  "http://www.w3.org/Graphics/SVG/1.1/DTD/svg11.dtd">
<svg xmlns:xlink="http://www.w3.org/1999/xlink" width="720pt" height="432pt" viewBox="0 0 720 432" xmlns="http://www.w3.org/2000/svg" version="1.1">
 <metadata>
  <rdf:RDF xmlns:dc="http://purl.org/dc/elements/1.1/" xmlns:cc="http://creativecommons.org/ns#" xmlns:rdf="http://www.w3.org/1999/02/22-rdf-syntax-ns#">
   <cc:Work>
    <dc:type rdf:resource="http://purl.org/dc/dcmitype/StillImage"/>
    <dc:date>2025-02-10T12:38:18.298951</dc:date>
    <dc:format>image/svg+xml</dc:format>
    <dc:creator>
     <cc:Agent>
      <dc:title>Matplotlib v3.9.2, https://matplotlib.org/</dc:title>
     </cc:Agent>
    </dc:creator>
   </cc:Work>
  </rdf:RDF>
 </metadata>
 <defs>
  <style type="text/css">*{stroke-linejoin: round; stroke-linecap: butt}</style>
 </defs>
 <g id="figure_1">
  <g id="patch_1">
   <path d="M 0 432 
L 720 432 
L 720 0 
L 0 0 
z
" style="fill: #ffffff"/>
  </g>
  <g id="axes_1">
   <g id="patch_2">
    <path d="M 47.72 365.026 
L 709.2 365.026 
L 709.2 10.8 
L 47.72 10.8 
z
" style="fill: #ffffff"/>
   </g>
   <g id="patch_3">
    <path d="M 77.787273 365.026999 
L 90.160634 365.026999 
L 90.160634 361.177131 
L 77.787273 361.177131 
z
" clip-path="url(#pa7c6c22d60)" style="fill: #cc0000"/>
   </g>
   <g id="patch_4">
    <path d="M 117.827798 365.026999 
L 124.360276 365.026999 
L 124.360276 365.015156 
L 117.827798 365.015156 
z
" clip-path="url(#pa7c6c22d60)" style="fill: #cc0000"/>
   </g>
   <g id="patch_5">
    <path d="M 129.552272 365.026999 
L 137.382525 365.026999 
L 137.382525 365.018311 
L 129.552272 365.018311 
z
" clip-path="url(#pa7c6c22d60)" style="fill: #cc0000"/>
   </g>
   <g id="patch_6">
    <path d="M 140.976973 365.026999 
L 150.704546 365.026999 
L 150.704546 365.026 
L 140.976973 365.026 
z
" clip-path="url(#pa7c6c22d60)" style="fill: #cc0000"/>
   </g>
   <g id="patch_7">
    <path d="M 152.839876 365.026999 
L 163.588366 365.026999 
L 163.588366 365.026212 
L 152.839876 365.026212 
z
" clip-path="url(#pa7c6c22d60)" style="fill: #cc0000"/>
   </g>
   <g id="patch_8">
    <path d="M 164.617972 365.026999 
L 176.556993 365.026999 
L 176.556993 365.021905 
L 164.617972 365.021905 
z
" clip-path="url(#pa7c6c22d60)" style="fill: #cc0000"/>
   </g>
   <g id="patch_9">
    <path d="M 176.964523 365.026999 
L 188.957165 365.026999 
L 188.957165 363.586923 
L 176.964523 363.586923 
z
" clip-path="url(#pa7c6c22d60)" style="fill: #cc0000"/>
   </g>
   <g id="patch_10">
    <path d="M 189.903486 365.026999 
L 200.764924 365.026999 
L 200.764924 360.383936 
L 189.903486 360.383936 
z
" clip-path="url(#pa7c6c22d60)" style="fill: #cc0000"/>
   </g>
   <g id="patch_11">
    <path d="M 202.836079 365.026999 
L 212.579054 365.026999 
L 212.579054 358.452551 
L 202.836079 358.452551 
z
" clip-path="url(#pa7c6c22d60)" style="fill: #cc0000"/>
   </g>
   <g id="patch_12">
    <path d="M 215.723131 365.026999 
L 224.438724 365.026999 
L 224.438724 357.974177 
L 215.723131 357.974177 
z
" clip-path="url(#pa7c6c22d60)" style="fill: #cc0000"/>
   </g>
   <g id="patch_13">
    <path d="M 228.652682 365.026999 
L 236.255896 365.026999 
L 236.255896 358.188526 
L 228.652682 358.188526 
z
" clip-path="url(#pa7c6c22d60)" style="fill: #cc0000"/>
   </g>
   <g id="patch_14">
    <path d="M 241.392463 365.026999 
L 248.262838 365.026999 
L 248.262838 358.513084 
L 241.392463 358.513084 
z
" clip-path="url(#pa7c6c22d60)" style="fill: #cc0000"/>
   </g>
   <g id="patch_15">
    <path d="M 254.130152 365.026999 
L 260.271871 365.026999 
L 260.271871 354.961192 
L 254.130152 354.961192 
z
" clip-path="url(#pa7c6c22d60)" style="fill: #cc0000"/>
   </g>
   <g id="patch_16">
    <path d="M 266.889898 365.026999 
L 272.258847 365.026999 
L 272.258847 351.944607 
L 266.889898 351.944607 
z
" clip-path="url(#pa7c6c22d60)" style="fill: #cc0000"/>
   </g>
   <g id="patch_17">
    <path d="M 279.486781 365.026999 
L 284.408687 365.026999 
L 284.408687 355.111179 
L 279.486781 355.111179 
z
" clip-path="url(#pa7c6c22d60)" style="fill: #cc0000"/>
   </g>
   <g id="patch_18">
    <path d="M 292.074252 365.026999 
L 296.567939 365.026999 
L 296.567939 358.391344 
L 292.074252 358.391344 
z
" clip-path="url(#pa7c6c22d60)" style="fill: #cc0000"/>
   </g>
   <g id="patch_19">
    <path d="M 304.679882 365.026999 
L 308.709032 365.026999 
L 308.709032 359.240147 
L 304.679882 359.240147 
z
" clip-path="url(#pa7c6c22d60)" style="fill: #cc0000"/>
   </g>
   <g id="patch_20">
    <path d="M 317.213254 365.026999 
L 320.922382 365.026999 
L 320.922382 359.296131 
L 317.213254 359.296131 
z
" clip-path="url(#pa7c6c22d60)" style="fill: #cc0000"/>
   </g>
   <g id="patch_21">
    <path d="M 329.717059 365.026999 
L 333.1653 365.026999 
L 333.1653 359.341374 
L 329.717059 359.341374 
z
" clip-path="url(#pa7c6c22d60)" style="fill: #cc0000"/>
   </g>
   <g id="patch_22">
    <path d="M 342.198996 365.026999 
L 345.430086 365.026999 
L 345.430086 359.452916 
L 342.198996 359.452916 
z
" clip-path="url(#pa7c6c22d60)" style="fill: #cc0000"/>
   </g>
   <g id="patch_23">
    <path d="M 354.628261 365.026999 
L 357.747543 365.026999 
L 357.747543 358.277331 
L 354.628261 358.277331 
z
" clip-path="url(#pa7c6c22d60)" style="fill: #cc0000"/>
   </g>
   <g id="patch_24">
    <path d="M 367.087571 365.026999 
L 370.034956 365.026999 
L 370.034956 359.208956 
L 367.087571 359.208956 
z
" clip-path="url(#pa7c6c22d60)" style="fill: #cc0000"/>
   </g>
   <g id="patch_25">
    <path d="M 379.506378 365.026999 
L 382.362872 365.026999 
L 382.362872 360.439088 
L 379.506378 360.439088 
z
" clip-path="url(#pa7c6c22d60)" style="fill: #cc0000"/>
   </g>
   <g id="patch_26">
    <path d="M 391.933837 365.026999 
L 394.682135 365.026999 
L 394.682135 360.370382 
L 391.933837 360.370382 
z
" clip-path="url(#pa7c6c22d60)" style="fill: #cc0000"/>
   </g>
   <g id="patch_27">
    <path d="M 404.338668 365.026999 
L 407.024027 365.026999 
L 407.024027 359.584009 
L 404.338668 359.584009 
z
" clip-path="url(#pa7c6c22d60)" style="fill: #cc0000"/>
   </g>
   <g id="patch_28">
    <path d="M 416.72572 365.026999 
L 419.383697 365.026999 
L 419.383697 358.70031 
L 416.72572 358.70031 
z
" clip-path="url(#pa7c6c22d60)" style="fill: #cc0000"/>
   </g>
   <g id="patch_29">
    <path d="M 429.132453 365.026999 
L 431.723687 365.026999 
L 431.723687 358.222338 
L 429.132453 358.222338 
z
" clip-path="url(#pa7c6c22d60)" style="fill: #cc0000"/>
   </g>
   <g id="patch_30">
    <path d="M 441.517889 365.026999 
L 444.084974 365.026999 
L 444.084974 358.846434 
L 441.517889 358.846434 
z
" clip-path="url(#pa7c6c22d60)" style="fill: #cc0000"/>
   </g>
   <g id="patch_31">
    <path d="M 453.903705 365.026999 
L 456.44588 365.026999 
L 456.44588 359.403436 
L 453.903705 359.403436 
z
" clip-path="url(#pa7c6c22d60)" style="fill: #cc0000"/>
   </g>
   <g id="patch_32">
    <path d="M 466.290186 365.026999 
L 468.806121 365.026999 
L 468.806121 358.004185 
L 466.290186 358.004185 
z
" clip-path="url(#pa7c6c22d60)" style="fill: #cc0000"/>
   </g>
   <g id="patch_33">
    <path d="M 478.66697 365.026999 
L 481.17606 365.026999 
L 481.17606 360.414421 
L 478.66697 360.414421 
z
" clip-path="url(#pa7c6c22d60)" style="fill: #cc0000"/>
   </g>
   <g id="patch_34">
    <path d="M 491.042518 365.026999 
L 493.547234 365.026999 
L 493.547234 356.741985 
L 491.042518 356.741985 
z
" clip-path="url(#pa7c6c22d60)" style="fill: #cc0000"/>
   </g>
   <g id="patch_35">
    <path d="M 503.421394 365.026999 
L 505.915081 365.026999 
L 505.915081 358.870736 
L 503.421394 358.870736 
z
" clip-path="url(#pa7c6c22d60)" style="fill: #cc0000"/>
   </g>
   <g id="patch_36">
    <path d="M 515.794755 365.026999 
L 518.288443 365.026999 
L 518.288443 359.856842 
L 515.794755 359.856842 
z
" clip-path="url(#pa7c6c22d60)" style="fill: #cc0000"/>
   </g>
   <g id="patch_37">
    <path d="M 528.17249 365.026999 
L 530.657431 365.026999 
L 530.657431 360.09278 
L 528.17249 360.09278 
z
" clip-path="url(#pa7c6c22d60)" style="fill: #cc0000"/>
   </g>
   <g id="patch_38">
    <path d="M 540.548038 365.026999 
L 543.028605 365.026999 
L 543.028605 358.845506 
L 540.548038 358.845506 
z
" clip-path="url(#pa7c6c22d60)" style="fill: #cc0000"/>
   </g>
   <g id="patch_39">
    <path d="M 552.92216 365.026999 
L 555.401206 365.026999 
L 555.401206 359.262954 
L 552.92216 359.262954 
z
" clip-path="url(#pa7c6c22d60)" style="fill: #cc0000"/>
   </g>
   <g id="patch_40">
    <path d="M 565.296092 365.026999 
L 567.773997 365.026999 
L 567.773997 355.374793 
L 565.296092 355.374793 
z
" clip-path="url(#pa7c6c22d60)" style="fill: #cc0000"/>
   </g>
   <g id="patch_41">
    <path d="M 577.670404 365.026999 
L 580.146407 365.026999 
L 580.146407 362.058658 
L 577.670404 362.058658 
z
" clip-path="url(#pa7c6c22d60)" style="fill: #cc0000"/>
   </g>
   <g id="patch_42">
    <path d="M 590.04367 365.026999 
L 592.519864 365.026999 
L 592.519864 356.817856 
L 590.04367 356.817856 
z
" clip-path="url(#pa7c6c22d60)" style="fill: #cc0000"/>
   </g>
   <g id="patch_43">
    <path d="M 602.417602 365.026999 
L 604.892655 365.026999 
L 604.892655 359.282116 
L 602.417602 359.282116 
z
" clip-path="url(#pa7c6c22d60)" style="fill: #cc0000"/>
   </g>
   <g id="patch_44">
    <path d="M 614.790868 365.026999 
L 617.266111 365.026999 
L 617.266111 361.503796 
L 614.790868 361.503796 
z
" clip-path="url(#pa7c6c22d60)" style="fill: #cc0000"/>
   </g>
   <g id="patch_45">
    <path d="M 627.164039 365.026999 
L 629.639662 365.026999 
L 629.639662 359.196531 
L 627.164039 359.196531 
z
" clip-path="url(#pa7c6c22d60)" style="fill: #cc0000"/>
   </g>
   <g id="patch_46">
    <path d="M 639.537686 365.026999 
L 642.012738 365.026999 
L 642.012738 360.548781 
L 639.537686 360.548781 
z
" clip-path="url(#pa7c6c22d60)" style="fill: #cc0000"/>
   </g>
   <g id="patch_47">
    <path d="M 676.657865 365.026999 
L 679.132727 365.026999 
L 679.132727 363.331727 
L 676.657865 363.331727 
z
" clip-path="url(#pa7c6c22d60)" style="fill: #cc0000"/>
   </g>
   <g id="patch_48">
    <path d="M 77.787273 361.177131 
L 90.160634 361.177131 
L 90.160634 341.283215 
L 77.787273 341.283215 
z
" clip-path="url(#pa7c6c22d60)" style="fill: #0066cc"/>
   </g>
   <g id="patch_49">
    <path d="M 117.827798 365.015156 
L 124.360276 365.015156 
L 124.360276 341.075556 
L 117.827798 341.075556 
z
" clip-path="url(#pa7c6c22d60)" style="fill: #0066cc"/>
   </g>
   <g id="patch_50">
    <path d="M 129.552272 365.018311 
L 137.382525 365.018311 
L 137.382525 344.352513 
L 129.552272 344.352513 
z
" clip-path="url(#pa7c6c22d60)" style="fill: #0066cc"/>
   </g>
   <g id="patch_51">
    <path d="M 140.976973 365.026 
L 150.704546 365.026 
L 150.704546 346.033958 
L 140.976973 346.033958 
z
" clip-path="url(#pa7c6c22d60)" style="fill: #0066cc"/>
   </g>
   <g id="patch_52">
    <path d="M 152.839876 365.026212 
L 163.588366 365.026212 
L 163.588366 346.731292 
L 152.839876 346.731292 
z
" clip-path="url(#pa7c6c22d60)" style="fill: #0066cc"/>
   </g>
   <g id="patch_53">
    <path d="M 164.617972 365.021905 
L 176.556993 365.021905 
L 176.556993 346.961876 
L 164.617972 346.961876 
z
" clip-path="url(#pa7c6c22d60)" style="fill: #0066cc"/>
   </g>
   <g id="patch_54">
    <path d="M 176.964523 363.586923 
L 188.957165 363.586923 
L 188.957165 344.504293 
L 176.964523 344.504293 
z
" clip-path="url(#pa7c6c22d60)" style="fill: #0066cc"/>
   </g>
   <g id="patch_55">
    <path d="M 189.903486 360.383936 
L 200.764924 360.383936 
L 200.764924 337.808005 
L 189.903486 337.808005 
z
" clip-path="url(#pa7c6c22d60)" style="fill: #0066cc"/>
   </g>
   <g id="patch_56">
    <path d="M 202.836079 358.452551 
L 212.579054 358.452551 
L 212.579054 337.925313 
L 202.836079 337.925313 
z
" clip-path="url(#pa7c6c22d60)" style="fill: #0066cc"/>
   </g>
   <g id="patch_57">
    <path d="M 215.723131 357.974177 
L 224.438724 357.974177 
L 224.438724 338.549 
L 215.723131 338.549 
z
" clip-path="url(#pa7c6c22d60)" style="fill: #0066cc"/>
   </g>
   <g id="patch_58">
    <path d="M 228.652682 358.188526 
L 236.255896 358.188526 
L 236.255896 339.082763 
L 228.652682 339.082763 
z
" clip-path="url(#pa7c6c22d60)" style="fill: #0066cc"/>
   </g>
   <g id="patch_59">
    <path d="M 241.392463 358.513084 
L 248.262838 358.513084 
L 248.262838 338.990085 
L 241.392463 338.990085 
z
" clip-path="url(#pa7c6c22d60)" style="fill: #0066cc"/>
   </g>
   <g id="patch_60">
    <path d="M 254.130152 354.961192 
L 260.271871 354.961192 
L 260.271871 335.839134 
L 254.130152 335.839134 
z
" clip-path="url(#pa7c6c22d60)" style="fill: #0066cc"/>
   </g>
   <g id="patch_61">
    <path d="M 266.889898 351.944607 
L 272.258847 351.944607 
L 272.258847 332.589848 
L 266.889898 332.589848 
z
" clip-path="url(#pa7c6c22d60)" style="fill: #0066cc"/>
   </g>
   <g id="patch_62">
    <path d="M 279.486781 355.111179 
L 284.408687 355.111179 
L 284.408687 334.840882 
L 279.486781 334.840882 
z
" clip-path="url(#pa7c6c22d60)" style="fill: #0066cc"/>
   </g>
   <g id="patch_63">
    <path d="M 292.074252 358.391344 
L 296.567939 358.391344 
L 296.567939 337.774174 
L 292.074252 337.774174 
z
" clip-path="url(#pa7c6c22d60)" style="fill: #0066cc"/>
   </g>
   <g id="patch_64">
    <path d="M 304.679882 359.240147 
L 308.709032 359.240147 
L 308.709032 340.007895 
L 304.679882 340.007895 
z
" clip-path="url(#pa7c6c22d60)" style="fill: #0066cc"/>
   </g>
   <g id="patch_65">
    <path d="M 317.213254 359.296131 
L 320.922382 359.296131 
L 320.922382 340.061724 
L 317.213254 340.061724 
z
" clip-path="url(#pa7c6c22d60)" style="fill: #0066cc"/>
   </g>
   <g id="patch_66">
    <path d="M 329.717059 359.341374 
L 333.1653 359.341374 
L 333.1653 340.208175 
L 329.717059 340.208175 
z
" clip-path="url(#pa7c6c22d60)" style="fill: #0066cc"/>
   </g>
   <g id="patch_67">
    <path d="M 342.198996 359.452916 
L 345.430086 359.452916 
L 345.430086 340.797742 
L 342.198996 340.797742 
z
" clip-path="url(#pa7c6c22d60)" style="fill: #0066cc"/>
   </g>
   <g id="patch_68">
    <path d="M 354.628261 358.277331 
L 357.747543 358.277331 
L 357.747543 340.052715 
L 354.628261 340.052715 
z
" clip-path="url(#pa7c6c22d60)" style="fill: #0066cc"/>
   </g>
   <g id="patch_69">
    <path d="M 367.087571 359.208956 
L 370.034956 359.208956 
L 370.034956 339.957977 
L 367.087571 339.957977 
z
" clip-path="url(#pa7c6c22d60)" style="fill: #0066cc"/>
   </g>
   <g id="patch_70">
    <path d="M 379.506378 360.439088 
L 382.362872 360.439088 
L 382.362872 341.090863 
L 379.506378 341.090863 
z
" clip-path="url(#pa7c6c22d60)" style="fill: #0066cc"/>
   </g>
   <g id="patch_71">
    <path d="M 391.933837 360.370382 
L 394.682135 360.370382 
L 394.682135 341.641781 
L 391.933837 341.641781 
z
" clip-path="url(#pa7c6c22d60)" style="fill: #0066cc"/>
   </g>
   <g id="patch_72">
    <path d="M 404.338668 359.584009 
L 407.024027 359.584009 
L 407.024027 340.900712 
L 404.338668 340.900712 
z
" clip-path="url(#pa7c6c22d60)" style="fill: #0066cc"/>
   </g>
   <g id="patch_73">
    <path d="M 416.72572 358.70031 
L 419.383697 358.70031 
L 419.383697 340.453487 
L 416.72572 340.453487 
z
" clip-path="url(#pa7c6c22d60)" style="fill: #0066cc"/>
   </g>
   <g id="patch_74">
    <path d="M 429.132453 358.222338 
L 431.723687 358.222338 
L 431.723687 339.495605 
L 429.132453 339.495605 
z
" clip-path="url(#pa7c6c22d60)" style="fill: #0066cc"/>
   </g>
   <g id="patch_75">
    <path d="M 441.517889 358.846434 
L 444.084974 358.846434 
L 444.084974 340.556861 
L 441.517889 340.556861 
z
" clip-path="url(#pa7c6c22d60)" style="fill: #0066cc"/>
   </g>
   <g id="patch_76">
    <path d="M 453.903705 359.403436 
L 456.44588 359.403436 
L 456.44588 342.013069 
L 453.903705 342.013069 
z
" clip-path="url(#pa7c6c22d60)" style="fill: #0066cc"/>
   </g>
   <g id="patch_77">
    <path d="M 466.290186 358.004185 
L 468.806121 358.004185 
L 468.806121 339.839191 
L 466.290186 339.839191 
z
" clip-path="url(#pa7c6c22d60)" style="fill: #0066cc"/>
   </g>
   <g id="patch_78">
    <path d="M 478.66697 360.414421 
L 481.17606 360.414421 
L 481.17606 343.676846 
L 478.66697 343.676846 
z
" clip-path="url(#pa7c6c22d60)" style="fill: #0066cc"/>
   </g>
   <g id="patch_79">
    <path d="M 491.042518 356.741985 
L 493.547234 356.741985 
L 493.547234 344.173736 
L 491.042518 344.173736 
z
" clip-path="url(#pa7c6c22d60)" style="fill: #0066cc"/>
   </g>
   <g id="patch_80">
    <path d="M 503.421394 358.870736 
L 505.915081 358.870736 
L 505.915081 343.869183 
L 503.421394 343.869183 
z
" clip-path="url(#pa7c6c22d60)" style="fill: #0066cc"/>
   </g>
   <g id="patch_81">
    <path d="M 515.794755 359.856842 
L 518.288443 359.856842 
L 518.288443 345.437636 
L 515.794755 345.437636 
z
" clip-path="url(#pa7c6c22d60)" style="fill: #0066cc"/>
   </g>
   <g id="patch_82">
    <path d="M 528.17249 360.09278 
L 530.657431 360.09278 
L 530.657431 345.27142 
L 528.17249 345.27142 
z
" clip-path="url(#pa7c6c22d60)" style="fill: #0066cc"/>
   </g>
   <g id="patch_83">
    <path d="M 540.548038 358.845506 
L 543.028605 358.845506 
L 543.028605 343.296828 
L 540.548038 343.296828 
z
" clip-path="url(#pa7c6c22d60)" style="fill: #0066cc"/>
   </g>
   <g id="patch_84">
    <path d="M 552.92216 359.262954 
L 555.401206 359.262954 
L 555.401206 341.49238 
L 552.92216 341.49238 
z
" clip-path="url(#pa7c6c22d60)" style="fill: #0066cc"/>
   </g>
   <g id="patch_85">
    <path d="M 565.296092 355.374793 
L 567.773997 355.374793 
L 567.773997 330.08031 
L 565.296092 330.08031 
z
" clip-path="url(#pa7c6c22d60)" style="fill: #0066cc"/>
   </g>
   <g id="patch_86">
    <path d="M 577.670404 362.058658 
L 580.146407 362.058658 
L 580.146407 345.551858 
L 577.670404 345.551858 
z
" clip-path="url(#pa7c6c22d60)" style="fill: #0066cc"/>
   </g>
   <g id="patch_87">
    <path d="M 590.04367 356.817856 
L 592.519864 356.817856 
L 592.519864 347.537364 
L 590.04367 347.537364 
z
" clip-path="url(#pa7c6c22d60)" style="fill: #0066cc"/>
   </g>
   <g id="patch_88">
    <path d="M 602.417602 359.282116 
L 604.892655 359.282116 
L 604.892655 336.485934 
L 602.417602 336.485934 
z
" clip-path="url(#pa7c6c22d60)" style="fill: #0066cc"/>
   </g>
   <g id="patch_89">
    <path d="M 614.790868 361.503796 
L 617.266111 361.503796 
L 617.266111 344.513112 
L 614.790868 344.513112 
z
" clip-path="url(#pa7c6c22d60)" style="fill: #0066cc"/>
   </g>
   <g id="patch_90">
    <path d="M 627.164039 359.196531 
L 629.639662 359.196531 
L 629.639662 347.120965 
L 627.164039 347.120965 
z
" clip-path="url(#pa7c6c22d60)" style="fill: #0066cc"/>
   </g>
   <g id="patch_91">
    <path d="M 639.537686 360.548781 
L 642.012738 360.548781 
L 642.012738 351.364881 
L 639.537686 351.364881 
z
" clip-path="url(#pa7c6c22d60)" style="fill: #0066cc"/>
   </g>
   <g id="patch_92">
    <path d="M 676.657865 363.331727 
L 679.132727 363.331727 
L 679.132727 353.160098 
L 676.657865 353.160098 
z
" clip-path="url(#pa7c6c22d60)" style="fill: #0066cc"/>
   </g>
   <g id="patch_93">
    <path d="M 77.787273 341.283215 
L 90.160634 341.283215 
L 90.160634 332.31809 
L 77.787273 332.31809 
z
" clip-path="url(#pa7c6c22d60)" style="fill: #006600"/>
   </g>
   <g id="patch_94">
    <path d="M 117.827798 341.075556 
L 124.360276 341.075556 
L 124.360276 341.075556 
L 117.827798 341.075556 
z
" clip-path="url(#pa7c6c22d60)" style="fill: #006600"/>
   </g>
   <g id="patch_95">
    <path d="M 129.552272 344.352513 
L 137.382525 344.352513 
L 137.382525 344.352513 
L 129.552272 344.352513 
z
" clip-path="url(#pa7c6c22d60)" style="fill: #006600"/>
   </g>
   <g id="patch_96">
    <path d="M 140.976973 346.033958 
L 150.704546 346.033958 
L 150.704546 346.033493 
L 140.976973 346.033493 
z
" clip-path="url(#pa7c6c22d60)" style="fill: #006600"/>
   </g>
   <g id="patch_97">
    <path d="M 152.839876 346.731292 
L 163.588366 346.731292 
L 163.588366 346.726558 
L 152.839876 346.726558 
z
" clip-path="url(#pa7c6c22d60)" style="fill: #006600"/>
   </g>
   <g id="patch_98">
    <path d="M 164.617972 346.961876 
L 176.556993 346.961876 
L 176.556993 346.604225 
L 164.617972 346.604225 
z
" clip-path="url(#pa7c6c22d60)" style="fill: #006600"/>
   </g>
   <g id="patch_99">
    <path d="M 176.964523 344.504293 
L 188.957165 344.504293 
L 188.957165 338.312927 
L 176.964523 338.312927 
z
" clip-path="url(#pa7c6c22d60)" style="fill: #006600"/>
   </g>
   <g id="patch_100">
    <path d="M 189.903486 337.808005 
L 200.764924 337.808005 
L 200.764924 324.742945 
L 189.903486 324.742945 
z
" clip-path="url(#pa7c6c22d60)" style="fill: #006600"/>
   </g>
   <g id="patch_101">
    <path d="M 202.836079 337.925313 
L 212.579054 337.925313 
L 212.579054 322.256037 
L 202.836079 322.256037 
z
" clip-path="url(#pa7c6c22d60)" style="fill: #006600"/>
   </g>
   <g id="patch_102">
    <path d="M 215.723131 338.549 
L 224.438724 338.549 
L 224.438724 318.616129 
L 215.723131 318.616129 
z
" clip-path="url(#pa7c6c22d60)" style="fill: #006600"/>
   </g>
   <g id="patch_103">
    <path d="M 228.652682 339.082763 
L 236.255896 339.082763 
L 236.255896 320.319659 
L 228.652682 320.319659 
z
" clip-path="url(#pa7c6c22d60)" style="fill: #006600"/>
   </g>
   <g id="patch_104">
    <path d="M 241.392463 338.990085 
L 248.262838 338.990085 
L 248.262838 320.173998 
L 241.392463 320.173998 
z
" clip-path="url(#pa7c6c22d60)" style="fill: #006600"/>
   </g>
   <g id="patch_105">
    <path d="M 254.130152 335.839134 
L 260.271871 335.839134 
L 260.271871 322.021358 
L 254.130152 322.021358 
z
" clip-path="url(#pa7c6c22d60)" style="fill: #006600"/>
   </g>
   <g id="patch_106">
    <path d="M 266.889898 332.589848 
L 272.258847 332.589848 
L 272.258847 320.741627 
L 266.889898 320.741627 
z
" clip-path="url(#pa7c6c22d60)" style="fill: #006600"/>
   </g>
   <g id="patch_107">
    <path d="M 279.486781 334.840882 
L 284.408687 334.840882 
L 284.408687 318.261355 
L 279.486781 318.261355 
z
" clip-path="url(#pa7c6c22d60)" style="fill: #006600"/>
   </g>
   <g id="patch_108">
    <path d="M 292.074252 337.774174 
L 296.567939 337.774174 
L 296.567939 320.111742 
L 292.074252 320.111742 
z
" clip-path="url(#pa7c6c22d60)" style="fill: #006600"/>
   </g>
   <g id="patch_109">
    <path d="M 304.679882 340.007895 
L 308.709032 340.007895 
L 308.709032 324.126101 
L 304.679882 324.126101 
z
" clip-path="url(#pa7c6c22d60)" style="fill: #006600"/>
   </g>
   <g id="patch_110">
    <path d="M 317.213254 340.061724 
L 320.922382 340.061724 
L 320.922382 323.552939 
L 317.213254 323.552939 
z
" clip-path="url(#pa7c6c22d60)" style="fill: #006600"/>
   </g>
   <g id="patch_111">
    <path d="M 329.717059 340.208175 
L 333.1653 340.208175 
L 333.1653 324.937369 
L 329.717059 324.937369 
z
" clip-path="url(#pa7c6c22d60)" style="fill: #006600"/>
   </g>
   <g id="patch_112">
    <path d="M 342.198996 340.797742 
L 345.430086 340.797742 
L 345.430086 328.348538 
L 342.198996 328.348538 
z
" clip-path="url(#pa7c6c22d60)" style="fill: #006600"/>
   </g>
   <g id="patch_113">
    <path d="M 354.628261 340.052715 
L 357.747543 340.052715 
L 357.747543 328.891689 
L 354.628261 328.891689 
z
" clip-path="url(#pa7c6c22d60)" style="fill: #006600"/>
   </g>
   <g id="patch_114">
    <path d="M 367.087571 339.957977 
L 370.034956 339.957977 
L 370.034956 331.470123 
L 367.087571 331.470123 
z
" clip-path="url(#pa7c6c22d60)" style="fill: #006600"/>
   </g>
   <g id="patch_115">
    <path d="M 379.506378 341.090863 
L 382.362872 341.090863 
L 382.362872 333.078292 
L 379.506378 333.078292 
z
" clip-path="url(#pa7c6c22d60)" style="fill: #006600"/>
   </g>
   <g id="patch_116">
    <path d="M 391.933837 341.641781 
L 394.682135 341.641781 
L 394.682135 332.843279 
L 391.933837 332.843279 
z
" clip-path="url(#pa7c6c22d60)" style="fill: #006600"/>
   </g>
   <g id="patch_117">
    <path d="M 404.338668 340.900712 
L 407.024027 340.900712 
L 407.024027 330.158077 
L 404.338668 330.158077 
z
" clip-path="url(#pa7c6c22d60)" style="fill: #006600"/>
   </g>
   <g id="patch_118">
    <path d="M 416.72572 340.453487 
L 419.383697 340.453487 
L 419.383697 333.37754 
L 416.72572 333.37754 
z
" clip-path="url(#pa7c6c22d60)" style="fill: #006600"/>
   </g>
   <g id="patch_119">
    <path d="M 429.132453 339.495605 
L 431.723687 339.495605 
L 431.723687 334.206287 
L 429.132453 334.206287 
z
" clip-path="url(#pa7c6c22d60)" style="fill: #006600"/>
   </g>
   <g id="patch_120">
    <path d="M 441.517889 340.556861 
L 444.084974 340.556861 
L 444.084974 334.597059 
L 441.517889 334.597059 
z
" clip-path="url(#pa7c6c22d60)" style="fill: #006600"/>
   </g>
   <g id="patch_121">
    <path d="M 453.903705 342.013069 
L 456.44588 342.013069 
L 456.44588 335.566367 
L 453.903705 335.566367 
z
" clip-path="url(#pa7c6c22d60)" style="fill: #006600"/>
   </g>
   <g id="patch_122">
    <path d="M 466.290186 339.839191 
L 468.806121 339.839191 
L 468.806121 333.255514 
L 466.290186 333.255514 
z
" clip-path="url(#pa7c6c22d60)" style="fill: #006600"/>
   </g>
   <g id="patch_123">
    <path d="M 478.66697 343.676846 
L 481.17606 343.676846 
L 481.17606 334.825685 
L 478.66697 334.825685 
z
" clip-path="url(#pa7c6c22d60)" style="fill: #006600"/>
   </g>
   <g id="patch_124">
    <path d="M 491.042518 344.173736 
L 493.547234 344.173736 
L 493.547234 339.461221 
L 491.042518 339.461221 
z
" clip-path="url(#pa7c6c22d60)" style="fill: #006600"/>
   </g>
   <g id="patch_125">
    <path d="M 503.421394 343.869183 
L 505.915081 343.869183 
L 505.915081 339.46373 
L 503.421394 339.46373 
z
" clip-path="url(#pa7c6c22d60)" style="fill: #006600"/>
   </g>
   <g id="patch_126">
    <path d="M 515.794755 345.437636 
L 518.288443 345.437636 
L 518.288443 341.363727 
L 515.794755 341.363727 
z
" clip-path="url(#pa7c6c22d60)" style="fill: #006600"/>
   </g>
   <g id="patch_127">
    <path d="M 528.17249 345.27142 
L 530.657431 345.27142 
L 530.657431 343.022709 
L 528.17249 343.022709 
z
" clip-path="url(#pa7c6c22d60)" style="fill: #006600"/>
   </g>
   <g id="patch_128">
    <path d="M 540.548038 343.296828 
L 543.028605 343.296828 
L 543.028605 336.87556 
L 540.548038 336.87556 
z
" clip-path="url(#pa7c6c22d60)" style="fill: #006600"/>
   </g>
   <g id="patch_129">
    <path d="M 552.92216 341.49238 
L 555.401206 341.49238 
L 555.401206 337.908264 
L 552.92216 337.908264 
z
" clip-path="url(#pa7c6c22d60)" style="fill: #006600"/>
   </g>
   <g id="patch_130">
    <path d="M 565.296092 330.08031 
L 567.773997 330.08031 
L 567.773997 326.531135 
L 565.296092 326.531135 
z
" clip-path="url(#pa7c6c22d60)" style="fill: #006600"/>
   </g>
   <g id="patch_131">
    <path d="M 577.670404 345.551858 
L 580.146407 345.551858 
L 580.146407 339.401367 
L 577.670404 339.401367 
z
" clip-path="url(#pa7c6c22d60)" style="fill: #006600"/>
   </g>
   <g id="patch_132">
    <path d="M 590.04367 347.537364 
L 592.519864 347.537364 
L 592.519864 342.767977 
L 590.04367 342.767977 
z
" clip-path="url(#pa7c6c22d60)" style="fill: #006600"/>
   </g>
   <g id="patch_133">
    <path d="M 602.417602 336.485934 
L 604.892655 336.485934 
L 604.892655 330.679936 
L 602.417602 330.679936 
z
" clip-path="url(#pa7c6c22d60)" style="fill: #006600"/>
   </g>
   <g id="patch_134">
    <path d="M 614.790868 344.513112 
L 617.266111 344.513112 
L 617.266111 315.897835 
L 614.790868 315.897835 
z
" clip-path="url(#pa7c6c22d60)" style="fill: #006600"/>
   </g>
   <g id="patch_135">
    <path d="M 627.164039 347.120965 
L 629.639662 347.120965 
L 629.639662 310.462108 
L 627.164039 310.462108 
z
" clip-path="url(#pa7c6c22d60)" style="fill: #006600"/>
   </g>
   <g id="patch_136">
    <path d="M 639.537686 351.364881 
L 642.012738 351.364881 
L 642.012738 346.772931 
L 639.537686 346.772931 
z
" clip-path="url(#pa7c6c22d60)" style="fill: #006600"/>
   </g>
   <g id="patch_137">
    <path d="M 676.657865 353.160098 
L 679.132727 353.160098 
L 679.132727 273.482333 
L 676.657865 273.482333 
z
" clip-path="url(#pa7c6c22d60)" style="fill: #006600"/>
   </g>
   <g id="patch_138">
    <path d="M 77.787273 332.31809 
L 90.160634 332.31809 
L 90.160634 27.667952 
L 77.787273 27.667952 
z
" clip-path="url(#pa7c6c22d60)" style="fill: #cc6600"/>
   </g>
   <g id="patch_139">
    <path d="M 117.827798 341.075556 
L 124.360276 341.075556 
L 124.360276 27.667952 
L 117.827798 27.667952 
z
" clip-path="url(#pa7c6c22d60)" style="fill: #cc6600"/>
   </g>
   <g id="patch_140">
    <path d="M 129.552272 344.352513 
L 137.382525 344.352513 
L 137.382525 27.667952 
L 129.552272 27.667952 
z
" clip-path="url(#pa7c6c22d60)" style="fill: #cc6600"/>
   </g>
   <g id="patch_141">
    <path d="M 140.976973 346.033493 
L 150.704546 346.033493 
L 150.704546 27.667952 
L 140.976973 27.667952 
z
" clip-path="url(#pa7c6c22d60)" style="fill: #cc6600"/>
   </g>
   <g id="patch_142">
    <path d="M 152.839876 346.726558 
L 163.588366 346.726558 
L 163.588366 27.667952 
L 152.839876 27.667952 
z
" clip-path="url(#pa7c6c22d60)" style="fill: #cc6600"/>
   </g>
   <g id="patch_143">
    <path d="M 164.617972 346.604225 
L 176.556993 346.604225 
L 176.556993 27.667952 
L 164.617972 27.667952 
z
" clip-path="url(#pa7c6c22d60)" style="fill: #cc6600"/>
   </g>
   <g id="patch_144">
    <path d="M 176.964523 338.312927 
L 188.957165 338.312927 
L 188.957165 27.667952 
L 176.964523 27.667952 
z
" clip-path="url(#pa7c6c22d60)" style="fill: #cc6600"/>
   </g>
   <g id="patch_145">
    <path d="M 189.903486 324.742945 
L 200.764924 324.742945 
L 200.764924 27.667952 
L 189.903486 27.667952 
z
" clip-path="url(#pa7c6c22d60)" style="fill: #cc6600"/>
   </g>
   <g id="patch_146">
    <path d="M 202.836079 322.256037 
L 212.579054 322.256037 
L 212.579054 27.667952 
L 202.836079 27.667952 
z
" clip-path="url(#pa7c6c22d60)" style="fill: #cc6600"/>
   </g>
   <g id="patch_147">
    <path d="M 215.723131 318.616129 
L 224.438724 318.616129 
L 224.438724 27.667952 
L 215.723131 27.667952 
z
" clip-path="url(#pa7c6c22d60)" style="fill: #cc6600"/>
   </g>
   <g id="patch_148">
    <path d="M 228.652682 320.319659 
L 236.255896 320.319659 
L 236.255896 27.667952 
L 228.652682 27.667952 
z
" clip-path="url(#pa7c6c22d60)" style="fill: #cc6600"/>
   </g>
   <g id="patch_149">
    <path d="M 241.392463 320.173998 
L 248.262838 320.173998 
L 248.262838 27.667952 
L 241.392463 27.667952 
z
" clip-path="url(#pa7c6c22d60)" style="fill: #cc6600"/>
   </g>
   <g id="patch_150">
    <path d="M 254.130152 322.021358 
L 260.271871 322.021358 
L 260.271871 27.667952 
L 254.130152 27.667952 
z
" clip-path="url(#pa7c6c22d60)" style="fill: #cc6600"/>
   </g>
   <g id="patch_151">
    <path d="M 266.889898 320.741627 
L 272.258847 320.741627 
L 272.258847 27.667952 
L 266.889898 27.667952 
z
" clip-path="url(#pa7c6c22d60)" style="fill: #cc6600"/>
   </g>
   <g id="patch_152">
    <path d="M 279.486781 318.261355 
L 284.408687 318.261355 
L 284.408687 27.667952 
L 279.486781 27.667952 
z
" clip-path="url(#pa7c6c22d60)" style="fill: #cc6600"/>
   </g>
   <g id="patch_153">
    <path d="M 292.074252 320.111742 
L 296.567939 320.111742 
L 296.567939 27.667952 
L 292.074252 27.667952 
z
" clip-path="url(#pa7c6c22d60)" style="fill: #cc6600"/>
   </g>
   <g id="patch_154">
    <path d="M 304.679882 324.126101 
L 308.709032 324.126101 
L 308.709032 27.667952 
L 304.679882 27.667952 
z
" clip-path="url(#pa7c6c22d60)" style="fill: #cc6600"/>
   </g>
   <g id="patch_155">
    <path d="M 317.213254 323.552939 
L 320.922382 323.552939 
L 320.922382 27.667952 
L 317.213254 27.667952 
z
" clip-path="url(#pa7c6c22d60)" style="fill: #cc6600"/>
   </g>
   <g id="patch_156">
    <path d="M 329.717059 324.937369 
L 333.1653 324.937369 
L 333.1653 27.667952 
L 329.717059 27.667952 
z
" clip-path="url(#pa7c6c22d60)" style="fill: #cc6600"/>
   </g>
   <g id="patch_157">
    <path d="M 342.198996 328.348538 
L 345.430086 328.348538 
L 345.430086 27.667952 
L 342.198996 27.667952 
z
" clip-path="url(#pa7c6c22d60)" style="fill: #cc6600"/>
   </g>
   <g id="patch_158">
    <path d="M 354.628261 328.891689 
L 357.747543 328.891689 
L 357.747543 27.667952 
L 354.628261 27.667952 
z
" clip-path="url(#pa7c6c22d60)" style="fill: #cc6600"/>
   </g>
   <g id="patch_159">
    <path d="M 367.087571 331.470123 
L 370.034956 331.470123 
L 370.034956 27.667952 
L 367.087571 27.667952 
z
" clip-path="url(#pa7c6c22d60)" style="fill: #cc6600"/>
   </g>
   <g id="patch_160">
    <path d="M 379.506378 333.078292 
L 382.362872 333.078292 
L 382.362872 27.667952 
L 379.506378 27.667952 
z
" clip-path="url(#pa7c6c22d60)" style="fill: #cc6600"/>
   </g>
   <g id="patch_161">
    <path d="M 391.933837 332.843279 
L 394.682135 332.843279 
L 394.682135 27.667952 
L 391.933837 27.667952 
z
" clip-path="url(#pa7c6c22d60)" style="fill: #cc6600"/>
   </g>
   <g id="patch_162">
    <path d="M 404.338668 330.158077 
L 407.024027 330.158077 
L 407.024027 27.667952 
L 404.338668 27.667952 
z
" clip-path="url(#pa7c6c22d60)" style="fill: #cc6600"/>
   </g>
   <g id="patch_163">
    <path d="M 416.72572 333.37754 
L 419.383697 333.37754 
L 419.383697 27.667952 
L 416.72572 27.667952 
z
" clip-path="url(#pa7c6c22d60)" style="fill: #cc6600"/>
   </g>
   <g id="patch_164">
    <path d="M 429.132453 334.206287 
L 431.723687 334.206287 
L 431.723687 27.667952 
L 429.132453 27.667952 
z
" clip-path="url(#pa7c6c22d60)" style="fill: #cc6600"/>
   </g>
   <g id="patch_165">
    <path d="M 441.517889 334.597059 
L 444.084974 334.597059 
L 444.084974 27.667952 
L 441.517889 27.667952 
z
" clip-path="url(#pa7c6c22d60)" style="fill: #cc6600"/>
   </g>
   <g id="patch_166">
    <path d="M 453.903705 335.566367 
L 456.44588 335.566367 
L 456.44588 27.667952 
L 453.903705 27.667952 
z
" clip-path="url(#pa7c6c22d60)" style="fill: #cc6600"/>
   </g>
   <g id="patch_167">
    <path d="M 466.290186 333.255514 
L 468.806121 333.255514 
L 468.806121 27.667952 
L 466.290186 27.667952 
z
" clip-path="url(#pa7c6c22d60)" style="fill: #cc6600"/>
   </g>
   <g id="patch_168">
    <path d="M 478.66697 334.825685 
L 481.17606 334.825685 
L 481.17606 27.667952 
L 478.66697 27.667952 
z
" clip-path="url(#pa7c6c22d60)" style="fill: #cc6600"/>
   </g>
   <g id="patch_169">
    <path d="M 491.042518 339.461221 
L 493.547234 339.461221 
L 493.547234 27.667952 
L 491.042518 27.667952 
z
" clip-path="url(#pa7c6c22d60)" style="fill: #cc6600"/>
   </g>
   <g id="patch_170">
    <path d="M 503.421394 339.46373 
L 505.915081 339.46373 
L 505.915081 27.667952 
L 503.421394 27.667952 
z
" clip-path="url(#pa7c6c22d60)" style="fill: #cc6600"/>
   </g>
   <g id="patch_171">
    <path d="M 515.794755 341.363727 
L 518.288443 341.363727 
L 518.288443 27.667952 
L 515.794755 27.667952 
z
" clip-path="url(#pa7c6c22d60)" style="fill: #cc6600"/>
   </g>
   <g id="patch_172">
    <path d="M 528.17249 343.022709 
L 530.657431 343.022709 
L 530.657431 27.667952 
L 528.17249 27.667952 
z
" clip-path="url(#pa7c6c22d60)" style="fill: #cc6600"/>
   </g>
   <g id="patch_173">
    <path d="M 540.548038 336.87556 
L 543.028605 336.87556 
L 543.028605 27.667952 
L 540.548038 27.667952 
z
" clip-path="url(#pa7c6c22d60)" style="fill: #cc6600"/>
   </g>
   <g id="patch_174">
    <path d="M 552.92216 337.908264 
L 555.401206 337.908264 
L 555.401206 27.667952 
L 552.92216 27.667952 
z
" clip-path="url(#pa7c6c22d60)" style="fill: #cc6600"/>
   </g>
   <g id="patch_175">
    <path d="M 565.296092 326.531135 
L 567.773997 326.531135 
L 567.773997 27.667952 
L 565.296092 27.667952 
z
" clip-path="url(#pa7c6c22d60)" style="fill: #cc6600"/>
   </g>
   <g id="patch_176">
    <path d="M 577.670404 339.401367 
L 580.146407 339.401367 
L 580.146407 27.667952 
L 577.670404 27.667952 
z
" clip-path="url(#pa7c6c22d60)" style="fill: #cc6600"/>
   </g>
   <g id="patch_177">
    <path d="M 590.04367 342.767977 
L 592.519864 342.767977 
L 592.519864 27.667952 
L 590.04367 27.667952 
z
" clip-path="url(#pa7c6c22d60)" style="fill: #cc6600"/>
   </g>
   <g id="patch_178">
    <path d="M 602.417602 330.679936 
L 604.892655 330.679936 
L 604.892655 27.667952 
L 602.417602 27.667952 
z
" clip-path="url(#pa7c6c22d60)" style="fill: #cc6600"/>
   </g>
   <g id="patch_179">
    <path d="M 614.790868 315.897835 
L 617.266111 315.897835 
L 617.266111 27.667952 
L 614.790868 27.667952 
z
" clip-path="url(#pa7c6c22d60)" style="fill: #cc6600"/>
   </g>
   <g id="patch_180">
    <path d="M 627.164039 310.462108 
L 629.639662 310.462108 
L 629.639662 27.667952 
L 627.164039 27.667952 
z
" clip-path="url(#pa7c6c22d60)" style="fill: #cc6600"/>
   </g>
   <g id="patch_181">
    <path d="M 639.537686 346.772931 
L 642.012738 346.772931 
L 642.012738 27.667952 
L 639.537686 27.667952 
z
" clip-path="url(#pa7c6c22d60)" style="fill: #cc6600"/>
   </g>
   <g id="patch_182">
    <path d="M 676.657865 273.482333 
L 679.132727 273.482333 
L 679.132727 27.667952 
L 676.657865 27.667952 
z
" clip-path="url(#pa7c6c22d60)" style="fill: #cc6600"/>
   </g>
   <g id="matplotlib.axis_1">
    <g id="xtick_1">
     <g id="line2d_1">
      <defs>
       <path id="m118a1e222d" d="M 0 0 
L 0 3.5 
" style="stroke: #000000; stroke-width: 0.8"/>
      </defs>
      <g>
       <use xlink:href="#m118a1e222d" x="83.973953" y="365.026" style="stroke: #000000; stroke-width: 0.8"/>
      </g>
     </g>
     <g id="text_1">
      <!-- Weighted -->
      <g transform="translate(81.134422 419.365063) rotate(-90) scale(0.1 -0.1)">
       <defs>
        <path id="DejaVuSans-57" d="M 213 4666 
L 850 4666 
L 1831 722 
L 2809 4666 
L 3519 4666 
L 4500 722 
L 5478 4666 
L 6119 4666 
L 4947 0 
L 4153 0 
L 3169 4050 
L 2175 0 
L 1381 0 
L 213 4666 
z
" transform="scale(0.015625)"/>
        <path id="DejaVuSans-65" d="M 3597 1894 
L 3597 1613 
L 953 1613 
Q 991 1019 1311 708 
Q 1631 397 2203 397 
Q 2534 397 2845 478 
Q 3156 559 3463 722 
L 3463 178 
Q 3153 47 2828 -22 
Q 2503 -91 2169 -91 
Q 1331 -91 842 396 
Q 353 884 353 1716 
Q 353 2575 817 3079 
Q 1281 3584 2069 3584 
Q 2775 3584 3186 3129 
Q 3597 2675 3597 1894 
z
M 3022 2063 
Q 3016 2534 2758 2815 
Q 2500 3097 2075 3097 
Q 1594 3097 1305 2825 
Q 1016 2553 972 2059 
L 3022 2063 
z
" transform="scale(0.015625)"/>
        <path id="DejaVuSans-69" d="M 603 3500 
L 1178 3500 
L 1178 0 
L 603 0 
L 603 3500 
z
M 603 4863 
L 1178 4863 
L 1178 4134 
L 603 4134 
L 603 4863 
z
" transform="scale(0.015625)"/>
        <path id="DejaVuSans-67" d="M 2906 1791 
Q 2906 2416 2648 2759 
Q 2391 3103 1925 3103 
Q 1463 3103 1205 2759 
Q 947 2416 947 1791 
Q 947 1169 1205 825 
Q 1463 481 1925 481 
Q 2391 481 2648 825 
Q 2906 1169 2906 1791 
z
M 3481 434 
Q 3481 -459 3084 -895 
Q 2688 -1331 1869 -1331 
Q 1566 -1331 1297 -1286 
Q 1028 -1241 775 -1147 
L 775 -588 
Q 1028 -725 1275 -790 
Q 1522 -856 1778 -856 
Q 2344 -856 2625 -561 
Q 2906 -266 2906 331 
L 2906 616 
Q 2728 306 2450 153 
Q 2172 0 1784 0 
Q 1141 0 747 490 
Q 353 981 353 1791 
Q 353 2603 747 3093 
Q 1141 3584 1784 3584 
Q 2172 3584 2450 3431 
Q 2728 3278 2906 2969 
L 2906 3500 
L 3481 3500 
L 3481 434 
z
" transform="scale(0.015625)"/>
        <path id="DejaVuSans-68" d="M 3513 2113 
L 3513 0 
L 2938 0 
L 2938 2094 
Q 2938 2591 2744 2837 
Q 2550 3084 2163 3084 
Q 1697 3084 1428 2787 
Q 1159 2491 1159 1978 
L 1159 0 
L 581 0 
L 581 4863 
L 1159 4863 
L 1159 2956 
Q 1366 3272 1645 3428 
Q 1925 3584 2291 3584 
Q 2894 3584 3203 3211 
Q 3513 2838 3513 2113 
z
" transform="scale(0.015625)"/>
        <path id="DejaVuSans-74" d="M 1172 4494 
L 1172 3500 
L 2356 3500 
L 2356 3053 
L 1172 3053 
L 1172 1153 
Q 1172 725 1289 603 
Q 1406 481 1766 481 
L 2356 481 
L 2356 0 
L 1766 0 
Q 1100 0 847 248 
Q 594 497 594 1153 
L 594 3053 
L 172 3053 
L 172 3500 
L 594 3500 
L 594 4494 
L 1172 4494 
z
" transform="scale(0.015625)"/>
        <path id="DejaVuSans-64" d="M 2906 2969 
L 2906 4863 
L 3481 4863 
L 3481 0 
L 2906 0 
L 2906 525 
Q 2725 213 2448 61 
Q 2172 -91 1784 -91 
Q 1150 -91 751 415 
Q 353 922 353 1747 
Q 353 2572 751 3078 
Q 1150 3584 1784 3584 
Q 2172 3584 2448 3432 
Q 2725 3281 2906 2969 
z
M 947 1747 
Q 947 1113 1208 752 
Q 1469 391 1925 391 
Q 2381 391 2643 752 
Q 2906 1113 2906 1747 
Q 2906 2381 2643 2742 
Q 2381 3103 1925 3103 
Q 1469 3103 1208 2742 
Q 947 2381 947 1747 
z
" transform="scale(0.015625)"/>
       </defs>
       <use xlink:href="#DejaVuSans-57"/>
       <use xlink:href="#DejaVuSans-65" x="93.001953"/>
       <use xlink:href="#DejaVuSans-69" x="154.525391"/>
       <use xlink:href="#DejaVuSans-67" x="182.308594"/>
       <use xlink:href="#DejaVuSans-68" x="245.785156"/>
       <use xlink:href="#DejaVuSans-74" x="309.164062"/>
       <use xlink:href="#DejaVuSans-65" x="348.373047"/>
       <use xlink:href="#DejaVuSans-64" x="409.896484"/>
      </g>
      <!-- Average -->
      <g transform="translate(92.332235 416.228344) rotate(-90) scale(0.1 -0.1)">
       <defs>
        <path id="DejaVuSans-41" d="M 2188 4044 
L 1331 1722 
L 3047 1722 
L 2188 4044 
z
M 1831 4666 
L 2547 4666 
L 4325 0 
L 3669 0 
L 3244 1197 
L 1141 1197 
L 716 0 
L 50 0 
L 1831 4666 
z
" transform="scale(0.015625)"/>
        <path id="DejaVuSans-76" d="M 191 3500 
L 800 3500 
L 1894 563 
L 2988 3500 
L 3597 3500 
L 2284 0 
L 1503 0 
L 191 3500 
z
" transform="scale(0.015625)"/>
        <path id="DejaVuSans-72" d="M 2631 2963 
Q 2534 3019 2420 3045 
Q 2306 3072 2169 3072 
Q 1681 3072 1420 2755 
Q 1159 2438 1159 1844 
L 1159 0 
L 581 0 
L 581 3500 
L 1159 3500 
L 1159 2956 
Q 1341 3275 1631 3429 
Q 1922 3584 2338 3584 
Q 2397 3584 2469 3576 
Q 2541 3569 2628 3553 
L 2631 2963 
z
" transform="scale(0.015625)"/>
        <path id="DejaVuSans-61" d="M 2194 1759 
Q 1497 1759 1228 1600 
Q 959 1441 959 1056 
Q 959 750 1161 570 
Q 1363 391 1709 391 
Q 2188 391 2477 730 
Q 2766 1069 2766 1631 
L 2766 1759 
L 2194 1759 
z
M 3341 1997 
L 3341 0 
L 2766 0 
L 2766 531 
Q 2569 213 2275 61 
Q 1981 -91 1556 -91 
Q 1019 -91 701 211 
Q 384 513 384 1019 
Q 384 1609 779 1909 
Q 1175 2209 1959 2209 
L 2766 2209 
L 2766 2266 
Q 2766 2663 2505 2880 
Q 2244 3097 1772 3097 
Q 1472 3097 1187 3025 
Q 903 2953 641 2809 
L 641 3341 
Q 956 3463 1253 3523 
Q 1550 3584 1831 3584 
Q 2591 3584 2966 3190 
Q 3341 2797 3341 1997 
z
" transform="scale(0.015625)"/>
       </defs>
       <use xlink:href="#DejaVuSans-41"/>
       <use xlink:href="#DejaVuSans-76" x="62.533203"/>
       <use xlink:href="#DejaVuSans-65" x="121.712891"/>
       <use xlink:href="#DejaVuSans-72" x="183.236328"/>
       <use xlink:href="#DejaVuSans-61" x="224.349609"/>
       <use xlink:href="#DejaVuSans-67" x="285.628906"/>
       <use xlink:href="#DejaVuSans-65" x="349.105469"/>
      </g>
     </g>
    </g>
    <g id="xtick_2">
     <g id="line2d_2">
      <g>
       <use xlink:href="#m118a1e222d" x="121.094037" y="365.026" style="stroke: #000000; stroke-width: 0.8"/>
      </g>
     </g>
     <g id="text_2">
      <!-- 1 -->
      <g transform="translate(123.853412 378.3885) rotate(-90) scale(0.1 -0.1)">
       <defs>
        <path id="DejaVuSans-31" d="M 794 531 
L 1825 531 
L 1825 4091 
L 703 3866 
L 703 4441 
L 1819 4666 
L 2450 4666 
L 2450 531 
L 3481 531 
L 3481 0 
L 794 0 
L 794 531 
z
" transform="scale(0.015625)"/>
       </defs>
       <use xlink:href="#DejaVuSans-31"/>
      </g>
     </g>
    </g>
    <g id="xtick_3">
     <g id="line2d_3">
      <g>
       <use xlink:href="#m118a1e222d" x="133.467399" y="365.026" style="stroke: #000000; stroke-width: 0.8"/>
      </g>
     </g>
     <g id="text_3">
      <!-- 2 -->
      <g transform="translate(136.226774 378.3885) rotate(-90) scale(0.1 -0.1)">
       <defs>
        <path id="DejaVuSans-32" d="M 1228 531 
L 3431 531 
L 3431 0 
L 469 0 
L 469 531 
Q 828 903 1448 1529 
Q 2069 2156 2228 2338 
Q 2531 2678 2651 2914 
Q 2772 3150 2772 3378 
Q 2772 3750 2511 3984 
Q 2250 4219 1831 4219 
Q 1534 4219 1204 4116 
Q 875 4013 500 3803 
L 500 4441 
Q 881 4594 1212 4672 
Q 1544 4750 1819 4750 
Q 2544 4750 2975 4387 
Q 3406 4025 3406 3419 
Q 3406 3131 3298 2873 
Q 3191 2616 2906 2266 
Q 2828 2175 2409 1742 
Q 1991 1309 1228 531 
z
" transform="scale(0.015625)"/>
       </defs>
       <use xlink:href="#DejaVuSans-32"/>
      </g>
     </g>
    </g>
    <g id="xtick_4">
     <g id="line2d_4">
      <g>
       <use xlink:href="#m118a1e222d" x="145.84076" y="365.026" style="stroke: #000000; stroke-width: 0.8"/>
      </g>
     </g>
     <g id="text_4">
      <!-- 3 -->
      <g transform="translate(148.600135 378.3885) rotate(-90) scale(0.1 -0.1)">
       <defs>
        <path id="DejaVuSans-33" d="M 2597 2516 
Q 3050 2419 3304 2112 
Q 3559 1806 3559 1356 
Q 3559 666 3084 287 
Q 2609 -91 1734 -91 
Q 1441 -91 1130 -33 
Q 819 25 488 141 
L 488 750 
Q 750 597 1062 519 
Q 1375 441 1716 441 
Q 2309 441 2620 675 
Q 2931 909 2931 1356 
Q 2931 1769 2642 2001 
Q 2353 2234 1838 2234 
L 1294 2234 
L 1294 2753 
L 1863 2753 
Q 2328 2753 2575 2939 
Q 2822 3125 2822 3475 
Q 2822 3834 2567 4026 
Q 2313 4219 1838 4219 
Q 1578 4219 1281 4162 
Q 984 4106 628 3988 
L 628 4550 
Q 988 4650 1302 4700 
Q 1616 4750 1894 4750 
Q 2613 4750 3031 4423 
Q 3450 4097 3450 3541 
Q 3450 3153 3228 2886 
Q 3006 2619 2597 2516 
z
" transform="scale(0.015625)"/>
       </defs>
       <use xlink:href="#DejaVuSans-33"/>
      </g>
     </g>
    </g>
    <g id="xtick_5">
     <g id="line2d_5">
      <g>
       <use xlink:href="#m118a1e222d" x="158.214121" y="365.026" style="stroke: #000000; stroke-width: 0.8"/>
      </g>
     </g>
     <g id="text_5">
      <!-- 4 -->
      <g transform="translate(160.973496 378.3885) rotate(-90) scale(0.1 -0.1)">
       <defs>
        <path id="DejaVuSans-34" d="M 2419 4116 
L 825 1625 
L 2419 1625 
L 2419 4116 
z
M 2253 4666 
L 3047 4666 
L 3047 1625 
L 3713 1625 
L 3713 1100 
L 3047 1100 
L 3047 0 
L 2419 0 
L 2419 1100 
L 313 1100 
L 313 1709 
L 2253 4666 
z
" transform="scale(0.015625)"/>
       </defs>
       <use xlink:href="#DejaVuSans-34"/>
      </g>
     </g>
    </g>
    <g id="xtick_6">
     <g id="line2d_6">
      <g>
       <use xlink:href="#m118a1e222d" x="170.587483" y="365.026" style="stroke: #000000; stroke-width: 0.8"/>
      </g>
     </g>
     <g id="text_6">
      <!-- 5 -->
      <g transform="translate(173.346858 378.3885) rotate(-90) scale(0.1 -0.1)">
       <defs>
        <path id="DejaVuSans-35" d="M 691 4666 
L 3169 4666 
L 3169 4134 
L 1269 4134 
L 1269 2991 
Q 1406 3038 1543 3061 
Q 1681 3084 1819 3084 
Q 2600 3084 3056 2656 
Q 3513 2228 3513 1497 
Q 3513 744 3044 326 
Q 2575 -91 1722 -91 
Q 1428 -91 1123 -41 
Q 819 9 494 109 
L 494 744 
Q 775 591 1075 516 
Q 1375 441 1709 441 
Q 2250 441 2565 725 
Q 2881 1009 2881 1497 
Q 2881 1984 2565 2268 
Q 2250 2553 1709 2553 
Q 1456 2553 1204 2497 
Q 953 2441 691 2322 
L 691 4666 
z
" transform="scale(0.015625)"/>
       </defs>
       <use xlink:href="#DejaVuSans-35"/>
      </g>
     </g>
    </g>
    <g id="xtick_7">
     <g id="line2d_7">
      <g>
       <use xlink:href="#m118a1e222d" x="182.960844" y="365.026" style="stroke: #000000; stroke-width: 0.8"/>
      </g>
     </g>
     <g id="text_7">
      <!-- 6 -->
      <g transform="translate(185.720219 378.3885) rotate(-90) scale(0.1 -0.1)">
       <defs>
        <path id="DejaVuSans-36" d="M 2113 2584 
Q 1688 2584 1439 2293 
Q 1191 2003 1191 1497 
Q 1191 994 1439 701 
Q 1688 409 2113 409 
Q 2538 409 2786 701 
Q 3034 994 3034 1497 
Q 3034 2003 2786 2293 
Q 2538 2584 2113 2584 
z
M 3366 4563 
L 3366 3988 
Q 3128 4100 2886 4159 
Q 2644 4219 2406 4219 
Q 1781 4219 1451 3797 
Q 1122 3375 1075 2522 
Q 1259 2794 1537 2939 
Q 1816 3084 2150 3084 
Q 2853 3084 3261 2657 
Q 3669 2231 3669 1497 
Q 3669 778 3244 343 
Q 2819 -91 2113 -91 
Q 1303 -91 875 529 
Q 447 1150 447 2328 
Q 447 3434 972 4092 
Q 1497 4750 2381 4750 
Q 2619 4750 2861 4703 
Q 3103 4656 3366 4563 
z
" transform="scale(0.015625)"/>
       </defs>
       <use xlink:href="#DejaVuSans-36"/>
      </g>
     </g>
    </g>
    <g id="xtick_8">
     <g id="line2d_8">
      <g>
       <use xlink:href="#m118a1e222d" x="195.334205" y="365.026" style="stroke: #000000; stroke-width: 0.8"/>
      </g>
     </g>
     <g id="text_8">
      <!-- 7 -->
      <g transform="translate(198.09358 378.3885) rotate(-90) scale(0.1 -0.1)">
       <defs>
        <path id="DejaVuSans-37" d="M 525 4666 
L 3525 4666 
L 3525 4397 
L 1831 0 
L 1172 0 
L 2766 4134 
L 525 4134 
L 525 4666 
z
" transform="scale(0.015625)"/>
       </defs>
       <use xlink:href="#DejaVuSans-37"/>
      </g>
     </g>
    </g>
    <g id="xtick_9">
     <g id="line2d_9">
      <g>
       <use xlink:href="#m118a1e222d" x="207.707566" y="365.026" style="stroke: #000000; stroke-width: 0.8"/>
      </g>
     </g>
     <g id="text_9">
      <!-- 8 -->
      <g transform="translate(210.466941 378.3885) rotate(-90) scale(0.1 -0.1)">
       <defs>
        <path id="DejaVuSans-38" d="M 2034 2216 
Q 1584 2216 1326 1975 
Q 1069 1734 1069 1313 
Q 1069 891 1326 650 
Q 1584 409 2034 409 
Q 2484 409 2743 651 
Q 3003 894 3003 1313 
Q 3003 1734 2745 1975 
Q 2488 2216 2034 2216 
z
M 1403 2484 
Q 997 2584 770 2862 
Q 544 3141 544 3541 
Q 544 4100 942 4425 
Q 1341 4750 2034 4750 
Q 2731 4750 3128 4425 
Q 3525 4100 3525 3541 
Q 3525 3141 3298 2862 
Q 3072 2584 2669 2484 
Q 3125 2378 3379 2068 
Q 3634 1759 3634 1313 
Q 3634 634 3220 271 
Q 2806 -91 2034 -91 
Q 1263 -91 848 271 
Q 434 634 434 1313 
Q 434 1759 690 2068 
Q 947 2378 1403 2484 
z
M 1172 3481 
Q 1172 3119 1398 2916 
Q 1625 2713 2034 2713 
Q 2441 2713 2670 2916 
Q 2900 3119 2900 3481 
Q 2900 3844 2670 4047 
Q 2441 4250 2034 4250 
Q 1625 4250 1398 4047 
Q 1172 3844 1172 3481 
z
" transform="scale(0.015625)"/>
       </defs>
       <use xlink:href="#DejaVuSans-38"/>
      </g>
     </g>
    </g>
    <g id="xtick_10">
     <g id="line2d_10">
      <g>
       <use xlink:href="#m118a1e222d" x="220.080928" y="365.026" style="stroke: #000000; stroke-width: 0.8"/>
      </g>
     </g>
     <g id="text_10">
      <!-- 9 -->
      <g transform="translate(222.840303 378.3885) rotate(-90) scale(0.1 -0.1)">
       <defs>
        <path id="DejaVuSans-39" d="M 703 97 
L 703 672 
Q 941 559 1184 500 
Q 1428 441 1663 441 
Q 2288 441 2617 861 
Q 2947 1281 2994 2138 
Q 2813 1869 2534 1725 
Q 2256 1581 1919 1581 
Q 1219 1581 811 2004 
Q 403 2428 403 3163 
Q 403 3881 828 4315 
Q 1253 4750 1959 4750 
Q 2769 4750 3195 4129 
Q 3622 3509 3622 2328 
Q 3622 1225 3098 567 
Q 2575 -91 1691 -91 
Q 1453 -91 1209 -44 
Q 966 3 703 97 
z
M 1959 2075 
Q 2384 2075 2632 2365 
Q 2881 2656 2881 3163 
Q 2881 3666 2632 3958 
Q 2384 4250 1959 4250 
Q 1534 4250 1286 3958 
Q 1038 3666 1038 3163 
Q 1038 2656 1286 2365 
Q 1534 2075 1959 2075 
z
" transform="scale(0.015625)"/>
       </defs>
       <use xlink:href="#DejaVuSans-39"/>
      </g>
     </g>
    </g>
    <g id="xtick_11">
     <g id="line2d_11">
      <g>
       <use xlink:href="#m118a1e222d" x="232.454289" y="365.026" style="stroke: #000000; stroke-width: 0.8"/>
      </g>
     </g>
     <g id="text_11">
      <!-- 10 -->
      <g transform="translate(235.213664 384.751) rotate(-90) scale(0.1 -0.1)">
       <defs>
        <path id="DejaVuSans-30" d="M 2034 4250 
Q 1547 4250 1301 3770 
Q 1056 3291 1056 2328 
Q 1056 1369 1301 889 
Q 1547 409 2034 409 
Q 2525 409 2770 889 
Q 3016 1369 3016 2328 
Q 3016 3291 2770 3770 
Q 2525 4250 2034 4250 
z
M 2034 4750 
Q 2819 4750 3233 4129 
Q 3647 3509 3647 2328 
Q 3647 1150 3233 529 
Q 2819 -91 2034 -91 
Q 1250 -91 836 529 
Q 422 1150 422 2328 
Q 422 3509 836 4129 
Q 1250 4750 2034 4750 
z
" transform="scale(0.015625)"/>
       </defs>
       <use xlink:href="#DejaVuSans-31"/>
       <use xlink:href="#DejaVuSans-30" x="63.623047"/>
      </g>
     </g>
    </g>
    <g id="xtick_12">
     <g id="line2d_12">
      <g>
       <use xlink:href="#m118a1e222d" x="244.82765" y="365.026" style="stroke: #000000; stroke-width: 0.8"/>
      </g>
     </g>
     <g id="text_12">
      <!-- 11 -->
      <g transform="translate(247.587025 384.751) rotate(-90) scale(0.1 -0.1)">
       <use xlink:href="#DejaVuSans-31"/>
       <use xlink:href="#DejaVuSans-31" x="63.623047"/>
      </g>
     </g>
    </g>
    <g id="xtick_13">
     <g id="line2d_13">
      <g>
       <use xlink:href="#m118a1e222d" x="257.201012" y="365.026" style="stroke: #000000; stroke-width: 0.8"/>
      </g>
     </g>
     <g id="text_13">
      <!-- 12 -->
      <g transform="translate(259.960387 384.751) rotate(-90) scale(0.1 -0.1)">
       <use xlink:href="#DejaVuSans-31"/>
       <use xlink:href="#DejaVuSans-32" x="63.623047"/>
      </g>
     </g>
    </g>
    <g id="xtick_14">
     <g id="line2d_14">
      <g>
       <use xlink:href="#m118a1e222d" x="269.574373" y="365.026" style="stroke: #000000; stroke-width: 0.8"/>
      </g>
     </g>
     <g id="text_14">
      <!-- 13 -->
      <g transform="translate(272.333748 384.751) rotate(-90) scale(0.1 -0.1)">
       <use xlink:href="#DejaVuSans-31"/>
       <use xlink:href="#DejaVuSans-33" x="63.623047"/>
      </g>
     </g>
    </g>
    <g id="xtick_15">
     <g id="line2d_15">
      <g>
       <use xlink:href="#m118a1e222d" x="281.947734" y="365.026" style="stroke: #000000; stroke-width: 0.8"/>
      </g>
     </g>
     <g id="text_15">
      <!-- 14 -->
      <g transform="translate(284.707109 384.751) rotate(-90) scale(0.1 -0.1)">
       <use xlink:href="#DejaVuSans-31"/>
       <use xlink:href="#DejaVuSans-34" x="63.623047"/>
      </g>
     </g>
    </g>
    <g id="xtick_16">
     <g id="line2d_16">
      <g>
       <use xlink:href="#m118a1e222d" x="294.321096" y="365.026" style="stroke: #000000; stroke-width: 0.8"/>
      </g>
     </g>
     <g id="text_16">
      <!-- 15 -->
      <g transform="translate(297.080471 384.751) rotate(-90) scale(0.1 -0.1)">
       <use xlink:href="#DejaVuSans-31"/>
       <use xlink:href="#DejaVuSans-35" x="63.623047"/>
      </g>
     </g>
    </g>
    <g id="xtick_17">
     <g id="line2d_17">
      <g>
       <use xlink:href="#m118a1e222d" x="306.694457" y="365.026" style="stroke: #000000; stroke-width: 0.8"/>
      </g>
     </g>
     <g id="text_17">
      <!-- 16 -->
      <g transform="translate(309.453832 384.751) rotate(-90) scale(0.1 -0.1)">
       <use xlink:href="#DejaVuSans-31"/>
       <use xlink:href="#DejaVuSans-36" x="63.623047"/>
      </g>
     </g>
    </g>
    <g id="xtick_18">
     <g id="line2d_18">
      <g>
       <use xlink:href="#m118a1e222d" x="319.067818" y="365.026" style="stroke: #000000; stroke-width: 0.8"/>
      </g>
     </g>
     <g id="text_18">
      <!-- 17 -->
      <g transform="translate(321.827193 384.751) rotate(-90) scale(0.1 -0.1)">
       <use xlink:href="#DejaVuSans-31"/>
       <use xlink:href="#DejaVuSans-37" x="63.623047"/>
      </g>
     </g>
    </g>
    <g id="xtick_19">
     <g id="line2d_19">
      <g>
       <use xlink:href="#m118a1e222d" x="331.441179" y="365.026" style="stroke: #000000; stroke-width: 0.8"/>
      </g>
     </g>
     <g id="text_19">
      <!-- 18 -->
      <g transform="translate(334.200554 384.751) rotate(-90) scale(0.1 -0.1)">
       <use xlink:href="#DejaVuSans-31"/>
       <use xlink:href="#DejaVuSans-38" x="63.623047"/>
      </g>
     </g>
    </g>
    <g id="xtick_20">
     <g id="line2d_20">
      <g>
       <use xlink:href="#m118a1e222d" x="343.814541" y="365.026" style="stroke: #000000; stroke-width: 0.8"/>
      </g>
     </g>
     <g id="text_20">
      <!-- 19 -->
      <g transform="translate(346.573916 384.751) rotate(-90) scale(0.1 -0.1)">
       <use xlink:href="#DejaVuSans-31"/>
       <use xlink:href="#DejaVuSans-39" x="63.623047"/>
      </g>
     </g>
    </g>
    <g id="xtick_21">
     <g id="line2d_21">
      <g>
       <use xlink:href="#m118a1e222d" x="356.187902" y="365.026" style="stroke: #000000; stroke-width: 0.8"/>
      </g>
     </g>
     <g id="text_21">
      <!-- 20 -->
      <g transform="translate(358.947277 384.751) rotate(-90) scale(0.1 -0.1)">
       <use xlink:href="#DejaVuSans-32"/>
       <use xlink:href="#DejaVuSans-30" x="63.623047"/>
      </g>
     </g>
    </g>
    <g id="xtick_22">
     <g id="line2d_22">
      <g>
       <use xlink:href="#m118a1e222d" x="368.561263" y="365.026" style="stroke: #000000; stroke-width: 0.8"/>
      </g>
     </g>
     <g id="text_22">
      <!-- 21 -->
      <g transform="translate(371.320638 384.751) rotate(-90) scale(0.1 -0.1)">
       <use xlink:href="#DejaVuSans-32"/>
       <use xlink:href="#DejaVuSans-31" x="63.623047"/>
      </g>
     </g>
    </g>
    <g id="xtick_23">
     <g id="line2d_23">
      <g>
       <use xlink:href="#m118a1e222d" x="380.934625" y="365.026" style="stroke: #000000; stroke-width: 0.8"/>
      </g>
     </g>
     <g id="text_23">
      <!-- 22 -->
      <g transform="translate(383.694 384.751) rotate(-90) scale(0.1 -0.1)">
       <use xlink:href="#DejaVuSans-32"/>
       <use xlink:href="#DejaVuSans-32" x="63.623047"/>
      </g>
     </g>
    </g>
    <g id="xtick_24">
     <g id="line2d_24">
      <g>
       <use xlink:href="#m118a1e222d" x="393.307986" y="365.026" style="stroke: #000000; stroke-width: 0.8"/>
      </g>
     </g>
     <g id="text_24">
      <!-- 23 -->
      <g transform="translate(396.067361 384.751) rotate(-90) scale(0.1 -0.1)">
       <use xlink:href="#DejaVuSans-32"/>
       <use xlink:href="#DejaVuSans-33" x="63.623047"/>
      </g>
     </g>
    </g>
    <g id="xtick_25">
     <g id="line2d_25">
      <g>
       <use xlink:href="#m118a1e222d" x="405.681347" y="365.026" style="stroke: #000000; stroke-width: 0.8"/>
      </g>
     </g>
     <g id="text_25">
      <!-- 24 -->
      <g transform="translate(408.440722 384.751) rotate(-90) scale(0.1 -0.1)">
       <use xlink:href="#DejaVuSans-32"/>
       <use xlink:href="#DejaVuSans-34" x="63.623047"/>
      </g>
     </g>
    </g>
    <g id="xtick_26">
     <g id="line2d_26">
      <g>
       <use xlink:href="#m118a1e222d" x="418.054709" y="365.026" style="stroke: #000000; stroke-width: 0.8"/>
      </g>
     </g>
     <g id="text_26">
      <!-- 25 -->
      <g transform="translate(420.814084 384.751) rotate(-90) scale(0.1 -0.1)">
       <use xlink:href="#DejaVuSans-32"/>
       <use xlink:href="#DejaVuSans-35" x="63.623047"/>
      </g>
     </g>
    </g>
    <g id="xtick_27">
     <g id="line2d_27">
      <g>
       <use xlink:href="#m118a1e222d" x="430.42807" y="365.026" style="stroke: #000000; stroke-width: 0.8"/>
      </g>
     </g>
     <g id="text_27">
      <!-- 26 -->
      <g transform="translate(433.187445 384.751) rotate(-90) scale(0.1 -0.1)">
       <use xlink:href="#DejaVuSans-32"/>
       <use xlink:href="#DejaVuSans-36" x="63.623047"/>
      </g>
     </g>
    </g>
    <g id="xtick_28">
     <g id="line2d_28">
      <g>
       <use xlink:href="#m118a1e222d" x="442.801431" y="365.026" style="stroke: #000000; stroke-width: 0.8"/>
      </g>
     </g>
     <g id="text_28">
      <!-- 27 -->
      <g transform="translate(445.560806 384.751) rotate(-90) scale(0.1 -0.1)">
       <use xlink:href="#DejaVuSans-32"/>
       <use xlink:href="#DejaVuSans-37" x="63.623047"/>
      </g>
     </g>
    </g>
    <g id="xtick_29">
     <g id="line2d_29">
      <g>
       <use xlink:href="#m118a1e222d" x="455.174793" y="365.026" style="stroke: #000000; stroke-width: 0.8"/>
      </g>
     </g>
     <g id="text_29">
      <!-- 28 -->
      <g transform="translate(457.934168 384.751) rotate(-90) scale(0.1 -0.1)">
       <use xlink:href="#DejaVuSans-32"/>
       <use xlink:href="#DejaVuSans-38" x="63.623047"/>
      </g>
     </g>
    </g>
    <g id="xtick_30">
     <g id="line2d_30">
      <g>
       <use xlink:href="#m118a1e222d" x="467.548154" y="365.026" style="stroke: #000000; stroke-width: 0.8"/>
      </g>
     </g>
     <g id="text_30">
      <!-- 29 -->
      <g transform="translate(470.307529 384.751) rotate(-90) scale(0.1 -0.1)">
       <use xlink:href="#DejaVuSans-32"/>
       <use xlink:href="#DejaVuSans-39" x="63.623047"/>
      </g>
     </g>
    </g>
    <g id="xtick_31">
     <g id="line2d_31">
      <g>
       <use xlink:href="#m118a1e222d" x="479.921515" y="365.026" style="stroke: #000000; stroke-width: 0.8"/>
      </g>
     </g>
     <g id="text_31">
      <!-- 30 -->
      <g transform="translate(482.68089 384.751) rotate(-90) scale(0.1 -0.1)">
       <use xlink:href="#DejaVuSans-33"/>
       <use xlink:href="#DejaVuSans-30" x="63.623047"/>
      </g>
     </g>
    </g>
    <g id="xtick_32">
     <g id="line2d_32">
      <g>
       <use xlink:href="#m118a1e222d" x="492.294876" y="365.026" style="stroke: #000000; stroke-width: 0.8"/>
      </g>
     </g>
     <g id="text_32">
      <!-- 31 -->
      <g transform="translate(495.054251 384.751) rotate(-90) scale(0.1 -0.1)">
       <use xlink:href="#DejaVuSans-33"/>
       <use xlink:href="#DejaVuSans-31" x="63.623047"/>
      </g>
     </g>
    </g>
    <g id="xtick_33">
     <g id="line2d_33">
      <g>
       <use xlink:href="#m118a1e222d" x="504.668238" y="365.026" style="stroke: #000000; stroke-width: 0.8"/>
      </g>
     </g>
     <g id="text_33">
      <!-- 32 -->
      <g transform="translate(507.427613 384.751) rotate(-90) scale(0.1 -0.1)">
       <use xlink:href="#DejaVuSans-33"/>
       <use xlink:href="#DejaVuSans-32" x="63.623047"/>
      </g>
     </g>
    </g>
    <g id="xtick_34">
     <g id="line2d_34">
      <g>
       <use xlink:href="#m118a1e222d" x="517.041599" y="365.026" style="stroke: #000000; stroke-width: 0.8"/>
      </g>
     </g>
     <g id="text_34">
      <!-- 33 -->
      <g transform="translate(519.800974 384.751) rotate(-90) scale(0.1 -0.1)">
       <use xlink:href="#DejaVuSans-33"/>
       <use xlink:href="#DejaVuSans-33" x="63.623047"/>
      </g>
     </g>
    </g>
    <g id="xtick_35">
     <g id="line2d_35">
      <g>
       <use xlink:href="#m118a1e222d" x="529.41496" y="365.026" style="stroke: #000000; stroke-width: 0.8"/>
      </g>
     </g>
     <g id="text_35">
      <!-- 34 -->
      <g transform="translate(532.174335 384.751) rotate(-90) scale(0.1 -0.1)">
       <use xlink:href="#DejaVuSans-33"/>
       <use xlink:href="#DejaVuSans-34" x="63.623047"/>
      </g>
     </g>
    </g>
    <g id="xtick_36">
     <g id="line2d_36">
      <g>
       <use xlink:href="#m118a1e222d" x="541.788322" y="365.026" style="stroke: #000000; stroke-width: 0.8"/>
      </g>
     </g>
     <g id="text_36">
      <!-- 35 -->
      <g transform="translate(544.547697 384.751) rotate(-90) scale(0.1 -0.1)">
       <use xlink:href="#DejaVuSans-33"/>
       <use xlink:href="#DejaVuSans-35" x="63.623047"/>
      </g>
     </g>
    </g>
    <g id="xtick_37">
     <g id="line2d_37">
      <g>
       <use xlink:href="#m118a1e222d" x="554.161683" y="365.026" style="stroke: #000000; stroke-width: 0.8"/>
      </g>
     </g>
     <g id="text_37">
      <!-- 36 -->
      <g transform="translate(556.921058 384.751) rotate(-90) scale(0.1 -0.1)">
       <use xlink:href="#DejaVuSans-33"/>
       <use xlink:href="#DejaVuSans-36" x="63.623047"/>
      </g>
     </g>
    </g>
    <g id="xtick_38">
     <g id="line2d_38">
      <g>
       <use xlink:href="#m118a1e222d" x="566.535044" y="365.026" style="stroke: #000000; stroke-width: 0.8"/>
      </g>
     </g>
     <g id="text_38">
      <!-- 37 -->
      <g transform="translate(569.294419 384.751) rotate(-90) scale(0.1 -0.1)">
       <use xlink:href="#DejaVuSans-33"/>
       <use xlink:href="#DejaVuSans-37" x="63.623047"/>
      </g>
     </g>
    </g>
    <g id="xtick_39">
     <g id="line2d_39">
      <g>
       <use xlink:href="#m118a1e222d" x="578.908406" y="365.026" style="stroke: #000000; stroke-width: 0.8"/>
      </g>
     </g>
     <g id="text_39">
      <!-- 38 -->
      <g transform="translate(581.667781 384.751) rotate(-90) scale(0.1 -0.1)">
       <use xlink:href="#DejaVuSans-33"/>
       <use xlink:href="#DejaVuSans-38" x="63.623047"/>
      </g>
     </g>
    </g>
    <g id="xtick_40">
     <g id="line2d_40">
      <g>
       <use xlink:href="#m118a1e222d" x="591.281767" y="365.026" style="stroke: #000000; stroke-width: 0.8"/>
      </g>
     </g>
     <g id="text_40">
      <!-- 39 -->
      <g transform="translate(594.041142 384.751) rotate(-90) scale(0.1 -0.1)">
       <use xlink:href="#DejaVuSans-33"/>
       <use xlink:href="#DejaVuSans-39" x="63.623047"/>
      </g>
     </g>
    </g>
    <g id="xtick_41">
     <g id="line2d_41">
      <g>
       <use xlink:href="#m118a1e222d" x="603.655128" y="365.026" style="stroke: #000000; stroke-width: 0.8"/>
      </g>
     </g>
     <g id="text_41">
      <!-- 40 -->
      <g transform="translate(606.414503 384.751) rotate(-90) scale(0.1 -0.1)">
       <use xlink:href="#DejaVuSans-34"/>
       <use xlink:href="#DejaVuSans-30" x="63.623047"/>
      </g>
     </g>
    </g>
    <g id="xtick_42">
     <g id="line2d_42">
      <g>
       <use xlink:href="#m118a1e222d" x="616.02849" y="365.026" style="stroke: #000000; stroke-width: 0.8"/>
      </g>
     </g>
     <g id="text_42">
      <!-- 41 -->
      <g transform="translate(618.787865 384.751) rotate(-90) scale(0.1 -0.1)">
       <use xlink:href="#DejaVuSans-34"/>
       <use xlink:href="#DejaVuSans-31" x="63.623047"/>
      </g>
     </g>
    </g>
    <g id="xtick_43">
     <g id="line2d_43">
      <g>
       <use xlink:href="#m118a1e222d" x="628.401851" y="365.026" style="stroke: #000000; stroke-width: 0.8"/>
      </g>
     </g>
     <g id="text_43">
      <!-- 42 -->
      <g transform="translate(631.161226 384.751) rotate(-90) scale(0.1 -0.1)">
       <use xlink:href="#DejaVuSans-34"/>
       <use xlink:href="#DejaVuSans-32" x="63.623047"/>
      </g>
     </g>
    </g>
    <g id="xtick_44">
     <g id="line2d_44">
      <g>
       <use xlink:href="#m118a1e222d" x="640.775212" y="365.026" style="stroke: #000000; stroke-width: 0.8"/>
      </g>
     </g>
     <g id="text_44">
      <!-- 43 -->
      <g transform="translate(643.534587 384.751) rotate(-90) scale(0.1 -0.1)">
       <use xlink:href="#DejaVuSans-34"/>
       <use xlink:href="#DejaVuSans-33" x="63.623047"/>
      </g>
     </g>
    </g>
    <g id="xtick_45">
     <g id="line2d_45">
      <g>
       <use xlink:href="#m118a1e222d" x="677.895296" y="365.026" style="stroke: #000000; stroke-width: 0.8"/>
      </g>
     </g>
     <g id="text_45">
      <!-- 46 -->
      <g transform="translate(680.654671 384.751) rotate(-90) scale(0.1 -0.1)">
       <use xlink:href="#DejaVuSans-34"/>
       <use xlink:href="#DejaVuSans-36" x="63.623047"/>
      </g>
     </g>
    </g>
    <g id="text_46">
     <!-- Input Length -->
     <g transform="translate(346.677188 406.9635) scale(0.1 -0.1)">
      <defs>
       <path id="DejaVuSans-49" d="M 628 4666 
L 1259 4666 
L 1259 0 
L 628 0 
L 628 4666 
z
" transform="scale(0.015625)"/>
       <path id="DejaVuSans-6e" d="M 3513 2113 
L 3513 0 
L 2938 0 
L 2938 2094 
Q 2938 2591 2744 2837 
Q 2550 3084 2163 3084 
Q 1697 3084 1428 2787 
Q 1159 2491 1159 1978 
L 1159 0 
L 581 0 
L 581 3500 
L 1159 3500 
L 1159 2956 
Q 1366 3272 1645 3428 
Q 1925 3584 2291 3584 
Q 2894 3584 3203 3211 
Q 3513 2838 3513 2113 
z
" transform="scale(0.015625)"/>
       <path id="DejaVuSans-70" d="M 1159 525 
L 1159 -1331 
L 581 -1331 
L 581 3500 
L 1159 3500 
L 1159 2969 
Q 1341 3281 1617 3432 
Q 1894 3584 2278 3584 
Q 2916 3584 3314 3078 
Q 3713 2572 3713 1747 
Q 3713 922 3314 415 
Q 2916 -91 2278 -91 
Q 1894 -91 1617 61 
Q 1341 213 1159 525 
z
M 3116 1747 
Q 3116 2381 2855 2742 
Q 2594 3103 2138 3103 
Q 1681 3103 1420 2742 
Q 1159 2381 1159 1747 
Q 1159 1113 1420 752 
Q 1681 391 2138 391 
Q 2594 391 2855 752 
Q 3116 1113 3116 1747 
z
" transform="scale(0.015625)"/>
       <path id="DejaVuSans-75" d="M 544 1381 
L 544 3500 
L 1119 3500 
L 1119 1403 
Q 1119 906 1312 657 
Q 1506 409 1894 409 
Q 2359 409 2629 706 
Q 2900 1003 2900 1516 
L 2900 3500 
L 3475 3500 
L 3475 0 
L 2900 0 
L 2900 538 
Q 2691 219 2414 64 
Q 2138 -91 1772 -91 
Q 1169 -91 856 284 
Q 544 659 544 1381 
z
M 1991 3584 
L 1991 3584 
z
" transform="scale(0.015625)"/>
       <path id="DejaVuSans-20" transform="scale(0.015625)"/>
       <path id="DejaVuSans-4c" d="M 628 4666 
L 1259 4666 
L 1259 531 
L 3531 531 
L 3531 0 
L 628 0 
L 628 4666 
z
" transform="scale(0.015625)"/>
      </defs>
      <use xlink:href="#DejaVuSans-49"/>
      <use xlink:href="#DejaVuSans-6e" x="29.492188"/>
      <use xlink:href="#DejaVuSans-70" x="92.871094"/>
      <use xlink:href="#DejaVuSans-75" x="156.347656"/>
      <use xlink:href="#DejaVuSans-74" x="219.726562"/>
      <use xlink:href="#DejaVuSans-20" x="258.935547"/>
      <use xlink:href="#DejaVuSans-4c" x="290.722656"/>
      <use xlink:href="#DejaVuSans-65" x="344.685547"/>
      <use xlink:href="#DejaVuSans-6e" x="406.208984"/>
      <use xlink:href="#DejaVuSans-67" x="469.587891"/>
      <use xlink:href="#DejaVuSans-74" x="533.064453"/>
      <use xlink:href="#DejaVuSans-68" x="572.273438"/>
     </g>
     <!-- (Bar width indicates relative number of samples) -->
     <g transform="translate(256.142031 418.161313) scale(0.1 -0.1)">
      <defs>
       <path id="DejaVuSans-28" d="M 1984 4856 
Q 1566 4138 1362 3434 
Q 1159 2731 1159 2009 
Q 1159 1288 1364 580 
Q 1569 -128 1984 -844 
L 1484 -844 
Q 1016 -109 783 600 
Q 550 1309 550 2009 
Q 550 2706 781 3412 
Q 1013 4119 1484 4856 
L 1984 4856 
z
" transform="scale(0.015625)"/>
       <path id="DejaVuSans-42" d="M 1259 2228 
L 1259 519 
L 2272 519 
Q 2781 519 3026 730 
Q 3272 941 3272 1375 
Q 3272 1813 3026 2020 
Q 2781 2228 2272 2228 
L 1259 2228 
z
M 1259 4147 
L 1259 2741 
L 2194 2741 
Q 2656 2741 2882 2914 
Q 3109 3088 3109 3444 
Q 3109 3797 2882 3972 
Q 2656 4147 2194 4147 
L 1259 4147 
z
M 628 4666 
L 2241 4666 
Q 2963 4666 3353 4366 
Q 3744 4066 3744 3513 
Q 3744 3084 3544 2831 
Q 3344 2578 2956 2516 
Q 3422 2416 3680 2098 
Q 3938 1781 3938 1306 
Q 3938 681 3513 340 
Q 3088 0 2303 0 
L 628 0 
L 628 4666 
z
" transform="scale(0.015625)"/>
       <path id="DejaVuSans-77" d="M 269 3500 
L 844 3500 
L 1563 769 
L 2278 3500 
L 2956 3500 
L 3675 769 
L 4391 3500 
L 4966 3500 
L 4050 0 
L 3372 0 
L 2619 2869 
L 1863 0 
L 1184 0 
L 269 3500 
z
" transform="scale(0.015625)"/>
       <path id="DejaVuSans-63" d="M 3122 3366 
L 3122 2828 
Q 2878 2963 2633 3030 
Q 2388 3097 2138 3097 
Q 1578 3097 1268 2742 
Q 959 2388 959 1747 
Q 959 1106 1268 751 
Q 1578 397 2138 397 
Q 2388 397 2633 464 
Q 2878 531 3122 666 
L 3122 134 
Q 2881 22 2623 -34 
Q 2366 -91 2075 -91 
Q 1284 -91 818 406 
Q 353 903 353 1747 
Q 353 2603 823 3093 
Q 1294 3584 2113 3584 
Q 2378 3584 2631 3529 
Q 2884 3475 3122 3366 
z
" transform="scale(0.015625)"/>
       <path id="DejaVuSans-73" d="M 2834 3397 
L 2834 2853 
Q 2591 2978 2328 3040 
Q 2066 3103 1784 3103 
Q 1356 3103 1142 2972 
Q 928 2841 928 2578 
Q 928 2378 1081 2264 
Q 1234 2150 1697 2047 
L 1894 2003 
Q 2506 1872 2764 1633 
Q 3022 1394 3022 966 
Q 3022 478 2636 193 
Q 2250 -91 1575 -91 
Q 1294 -91 989 -36 
Q 684 19 347 128 
L 347 722 
Q 666 556 975 473 
Q 1284 391 1588 391 
Q 1994 391 2212 530 
Q 2431 669 2431 922 
Q 2431 1156 2273 1281 
Q 2116 1406 1581 1522 
L 1381 1569 
Q 847 1681 609 1914 
Q 372 2147 372 2553 
Q 372 3047 722 3315 
Q 1072 3584 1716 3584 
Q 2034 3584 2315 3537 
Q 2597 3491 2834 3397 
z
" transform="scale(0.015625)"/>
       <path id="DejaVuSans-6c" d="M 603 4863 
L 1178 4863 
L 1178 0 
L 603 0 
L 603 4863 
z
" transform="scale(0.015625)"/>
       <path id="DejaVuSans-6d" d="M 3328 2828 
Q 3544 3216 3844 3400 
Q 4144 3584 4550 3584 
Q 5097 3584 5394 3201 
Q 5691 2819 5691 2113 
L 5691 0 
L 5113 0 
L 5113 2094 
Q 5113 2597 4934 2840 
Q 4756 3084 4391 3084 
Q 3944 3084 3684 2787 
Q 3425 2491 3425 1978 
L 3425 0 
L 2847 0 
L 2847 2094 
Q 2847 2600 2669 2842 
Q 2491 3084 2119 3084 
Q 1678 3084 1418 2786 
Q 1159 2488 1159 1978 
L 1159 0 
L 581 0 
L 581 3500 
L 1159 3500 
L 1159 2956 
Q 1356 3278 1631 3431 
Q 1906 3584 2284 3584 
Q 2666 3584 2933 3390 
Q 3200 3197 3328 2828 
z
" transform="scale(0.015625)"/>
       <path id="DejaVuSans-62" d="M 3116 1747 
Q 3116 2381 2855 2742 
Q 2594 3103 2138 3103 
Q 1681 3103 1420 2742 
Q 1159 2381 1159 1747 
Q 1159 1113 1420 752 
Q 1681 391 2138 391 
Q 2594 391 2855 752 
Q 3116 1113 3116 1747 
z
M 1159 2969 
Q 1341 3281 1617 3432 
Q 1894 3584 2278 3584 
Q 2916 3584 3314 3078 
Q 3713 2572 3713 1747 
Q 3713 922 3314 415 
Q 2916 -91 2278 -91 
Q 1894 -91 1617 61 
Q 1341 213 1159 525 
L 1159 0 
L 581 0 
L 581 4863 
L 1159 4863 
L 1159 2969 
z
" transform="scale(0.015625)"/>
       <path id="DejaVuSans-6f" d="M 1959 3097 
Q 1497 3097 1228 2736 
Q 959 2375 959 1747 
Q 959 1119 1226 758 
Q 1494 397 1959 397 
Q 2419 397 2687 759 
Q 2956 1122 2956 1747 
Q 2956 2369 2687 2733 
Q 2419 3097 1959 3097 
z
M 1959 3584 
Q 2709 3584 3137 3096 
Q 3566 2609 3566 1747 
Q 3566 888 3137 398 
Q 2709 -91 1959 -91 
Q 1206 -91 779 398 
Q 353 888 353 1747 
Q 353 2609 779 3096 
Q 1206 3584 1959 3584 
z
" transform="scale(0.015625)"/>
       <path id="DejaVuSans-66" d="M 2375 4863 
L 2375 4384 
L 1825 4384 
Q 1516 4384 1395 4259 
Q 1275 4134 1275 3809 
L 1275 3500 
L 2222 3500 
L 2222 3053 
L 1275 3053 
L 1275 0 
L 697 0 
L 697 3053 
L 147 3053 
L 147 3500 
L 697 3500 
L 697 3744 
Q 697 4328 969 4595 
Q 1241 4863 1831 4863 
L 2375 4863 
z
" transform="scale(0.015625)"/>
       <path id="DejaVuSans-29" d="M 513 4856 
L 1013 4856 
Q 1481 4119 1714 3412 
Q 1947 2706 1947 2009 
Q 1947 1309 1714 600 
Q 1481 -109 1013 -844 
L 513 -844 
Q 928 -128 1133 580 
Q 1338 1288 1338 2009 
Q 1338 2731 1133 3434 
Q 928 4138 513 4856 
z
" transform="scale(0.015625)"/>
      </defs>
      <use xlink:href="#DejaVuSans-28"/>
      <use xlink:href="#DejaVuSans-42" x="39.013672"/>
      <use xlink:href="#DejaVuSans-61" x="107.617188"/>
      <use xlink:href="#DejaVuSans-72" x="168.896484"/>
      <use xlink:href="#DejaVuSans-20" x="210.009766"/>
      <use xlink:href="#DejaVuSans-77" x="241.796875"/>
      <use xlink:href="#DejaVuSans-69" x="323.583984"/>
      <use xlink:href="#DejaVuSans-64" x="351.367188"/>
      <use xlink:href="#DejaVuSans-74" x="414.84375"/>
      <use xlink:href="#DejaVuSans-68" x="454.052734"/>
      <use xlink:href="#DejaVuSans-20" x="517.431641"/>
      <use xlink:href="#DejaVuSans-69" x="549.21875"/>
      <use xlink:href="#DejaVuSans-6e" x="577.001953"/>
      <use xlink:href="#DejaVuSans-64" x="640.380859"/>
      <use xlink:href="#DejaVuSans-69" x="703.857422"/>
      <use xlink:href="#DejaVuSans-63" x="731.640625"/>
      <use xlink:href="#DejaVuSans-61" x="786.621094"/>
      <use xlink:href="#DejaVuSans-74" x="847.900391"/>
      <use xlink:href="#DejaVuSans-65" x="887.109375"/>
      <use xlink:href="#DejaVuSans-73" x="948.632812"/>
      <use xlink:href="#DejaVuSans-20" x="1000.732422"/>
      <use xlink:href="#DejaVuSans-72" x="1032.519531"/>
      <use xlink:href="#DejaVuSans-65" x="1071.382812"/>
      <use xlink:href="#DejaVuSans-6c" x="1132.90625"/>
      <use xlink:href="#DejaVuSans-61" x="1160.689453"/>
      <use xlink:href="#DejaVuSans-74" x="1221.96875"/>
      <use xlink:href="#DejaVuSans-69" x="1261.177734"/>
      <use xlink:href="#DejaVuSans-76" x="1288.960938"/>
      <use xlink:href="#DejaVuSans-65" x="1348.140625"/>
      <use xlink:href="#DejaVuSans-20" x="1409.664062"/>
      <use xlink:href="#DejaVuSans-6e" x="1441.451172"/>
      <use xlink:href="#DejaVuSans-75" x="1504.830078"/>
      <use xlink:href="#DejaVuSans-6d" x="1568.208984"/>
      <use xlink:href="#DejaVuSans-62" x="1665.621094"/>
      <use xlink:href="#DejaVuSans-65" x="1729.097656"/>
      <use xlink:href="#DejaVuSans-72" x="1790.621094"/>
      <use xlink:href="#DejaVuSans-20" x="1831.734375"/>
      <use xlink:href="#DejaVuSans-6f" x="1863.521484"/>
      <use xlink:href="#DejaVuSans-66" x="1924.703125"/>
      <use xlink:href="#DejaVuSans-20" x="1959.908203"/>
      <use xlink:href="#DejaVuSans-73" x="1991.695312"/>
      <use xlink:href="#DejaVuSans-61" x="2043.794922"/>
      <use xlink:href="#DejaVuSans-6d" x="2105.074219"/>
      <use xlink:href="#DejaVuSans-70" x="2202.486328"/>
      <use xlink:href="#DejaVuSans-6c" x="2265.962891"/>
      <use xlink:href="#DejaVuSans-65" x="2293.746094"/>
      <use xlink:href="#DejaVuSans-73" x="2355.269531"/>
      <use xlink:href="#DejaVuSans-29" x="2407.369141"/>
     </g>
    </g>
   </g>
   <g id="matplotlib.axis_2">
    <g id="ytick_1">
     <g id="line2d_46">
      <defs>
       <path id="me3d099c3a0" d="M 0 0 
L -3.5 0 
" style="stroke: #000000; stroke-width: 0.8"/>
      </defs>
      <g>
       <use xlink:href="#me3d099c3a0" x="47.72" y="297.555189" style="stroke: #000000; stroke-width: 0.8"/>
      </g>
     </g>
     <g id="text_47">
      <!-- 0.2 -->
      <g transform="translate(24.816875 301.354408) scale(0.1 -0.1)">
       <defs>
        <path id="DejaVuSans-2e" d="M 684 794 
L 1344 794 
L 1344 0 
L 684 0 
L 684 794 
z
" transform="scale(0.015625)"/>
       </defs>
       <use xlink:href="#DejaVuSans-30"/>
       <use xlink:href="#DejaVuSans-2e" x="63.623047"/>
       <use xlink:href="#DejaVuSans-32" x="95.410156"/>
      </g>
     </g>
    </g>
    <g id="ytick_2">
     <g id="line2d_47">
      <g>
       <use xlink:href="#me3d099c3a0" x="47.72" y="230.08338" style="stroke: #000000; stroke-width: 0.8"/>
      </g>
     </g>
     <g id="text_48">
      <!-- 0.4 -->
      <g transform="translate(24.816875 233.882599) scale(0.1 -0.1)">
       <use xlink:href="#DejaVuSans-30"/>
       <use xlink:href="#DejaVuSans-2e" x="63.623047"/>
       <use xlink:href="#DejaVuSans-34" x="95.410156"/>
      </g>
     </g>
    </g>
    <g id="ytick_3">
     <g id="line2d_48">
      <g>
       <use xlink:href="#me3d099c3a0" x="47.72" y="162.611571" style="stroke: #000000; stroke-width: 0.8"/>
      </g>
     </g>
     <g id="text_49">
      <!-- 0.6 -->
      <g transform="translate(24.816875 166.41079) scale(0.1 -0.1)">
       <use xlink:href="#DejaVuSans-30"/>
       <use xlink:href="#DejaVuSans-2e" x="63.623047"/>
       <use xlink:href="#DejaVuSans-36" x="95.410156"/>
      </g>
     </g>
    </g>
    <g id="ytick_4">
     <g id="line2d_49">
      <g>
       <use xlink:href="#me3d099c3a0" x="47.72" y="95.139762" style="stroke: #000000; stroke-width: 0.8"/>
      </g>
     </g>
     <g id="text_50">
      <!-- 0.8 -->
      <g transform="translate(24.816875 98.93898) scale(0.1 -0.1)">
       <use xlink:href="#DejaVuSans-30"/>
       <use xlink:href="#DejaVuSans-2e" x="63.623047"/>
       <use xlink:href="#DejaVuSans-38" x="95.410156"/>
      </g>
     </g>
    </g>
    <g id="ytick_5">
     <g id="line2d_50">
      <g>
       <use xlink:href="#me3d099c3a0" x="47.72" y="27.667952" style="stroke: #000000; stroke-width: 0.8"/>
      </g>
     </g>
     <g id="text_51">
      <!-- 1.0 -->
      <g transform="translate(24.816875 31.467171) scale(0.1 -0.1)">
       <use xlink:href="#DejaVuSans-31"/>
       <use xlink:href="#DejaVuSans-2e" x="63.623047"/>
       <use xlink:href="#DejaVuSans-30" x="95.410156"/>
      </g>
     </g>
    </g>
    <g id="text_52">
     <!-- Ratio -->
     <g transform="translate(18.737188 200.747375) rotate(-90) scale(0.1 -0.1)">
      <defs>
       <path id="DejaVuSans-52" d="M 2841 2188 
Q 3044 2119 3236 1894 
Q 3428 1669 3622 1275 
L 4263 0 
L 3584 0 
L 2988 1197 
Q 2756 1666 2539 1819 
Q 2322 1972 1947 1972 
L 1259 1972 
L 1259 0 
L 628 0 
L 628 4666 
L 2053 4666 
Q 2853 4666 3247 4331 
Q 3641 3997 3641 3322 
Q 3641 2881 3436 2590 
Q 3231 2300 2841 2188 
z
M 1259 4147 
L 1259 2491 
L 2053 2491 
Q 2509 2491 2742 2702 
Q 2975 2913 2975 3322 
Q 2975 3731 2742 3939 
Q 2509 4147 2053 4147 
L 1259 4147 
z
" transform="scale(0.015625)"/>
      </defs>
      <use xlink:href="#DejaVuSans-52"/>
      <use xlink:href="#DejaVuSans-61" x="67.232422"/>
      <use xlink:href="#DejaVuSans-74" x="128.511719"/>
      <use xlink:href="#DejaVuSans-69" x="167.720703"/>
      <use xlink:href="#DejaVuSans-6f" x="195.503906"/>
     </g>
    </g>
   </g>
   <g id="patch_183">
    <path d="M 47.72 365.026 
L 47.72 10.8 
" style="fill: none; stroke: #000000; stroke-width: 0.8; stroke-linejoin: miter; stroke-linecap: square"/>
   </g>
   <g id="patch_184">
    <path d="M 709.2 365.026 
L 709.2 10.8 
" style="fill: none; stroke: #000000; stroke-width: 0.8; stroke-linejoin: miter; stroke-linecap: square"/>
   </g>
   <g id="patch_185">
    <path d="M 47.72 365.026 
L 709.2 365.026 
" style="fill: none; stroke: #000000; stroke-width: 0.8; stroke-linejoin: miter; stroke-linecap: square"/>
   </g>
   <g id="patch_186">
    <path d="M 47.72 10.8 
L 709.2 10.8 
" style="fill: none; stroke: #000000; stroke-width: 0.8; stroke-linejoin: miter; stroke-linecap: square"/>
   </g>
   <g id="legend_1">
    <g id="patch_187">
     <path d="M 574.914062 77.5125 
L 702.2 77.5125 
Q 704.2 77.5125 704.2 75.5125 
L 704.2 17.8 
Q 704.2 15.8 702.2 15.8 
L 574.914062 15.8 
Q 572.914062 15.8 572.914062 17.8 
L 572.914062 75.5125 
Q 572.914062 77.5125 574.914062 77.5125 
z
" style="fill: #ffffff; opacity: 0.8; stroke: #cccccc; stroke-linejoin: miter"/>
    </g>
    <g id="patch_188">
     <path d="M 576.914062 27.398438 
L 596.914062 27.398438 
L 596.914062 20.398438 
L 576.914062 20.398438 
z
" style="fill: #cc0000"/>
    </g>
    <g id="text_53">
     <!-- Both Unstable -->
     <g transform="translate(604.914062 27.398438) scale(0.1 -0.1)">
      <defs>
       <path id="DejaVuSans-55" d="M 556 4666 
L 1191 4666 
L 1191 1831 
Q 1191 1081 1462 751 
Q 1734 422 2344 422 
Q 2950 422 3222 751 
Q 3494 1081 3494 1831 
L 3494 4666 
L 4128 4666 
L 4128 1753 
Q 4128 841 3676 375 
Q 3225 -91 2344 -91 
Q 1459 -91 1007 375 
Q 556 841 556 1753 
L 556 4666 
z
" transform="scale(0.015625)"/>
      </defs>
      <use xlink:href="#DejaVuSans-42"/>
      <use xlink:href="#DejaVuSans-6f" x="68.603516"/>
      <use xlink:href="#DejaVuSans-74" x="129.785156"/>
      <use xlink:href="#DejaVuSans-68" x="168.994141"/>
      <use xlink:href="#DejaVuSans-20" x="232.373047"/>
      <use xlink:href="#DejaVuSans-55" x="264.160156"/>
      <use xlink:href="#DejaVuSans-6e" x="337.353516"/>
      <use xlink:href="#DejaVuSans-73" x="400.732422"/>
      <use xlink:href="#DejaVuSans-74" x="452.832031"/>
      <use xlink:href="#DejaVuSans-61" x="492.041016"/>
      <use xlink:href="#DejaVuSans-62" x="553.320312"/>
      <use xlink:href="#DejaVuSans-6c" x="616.796875"/>
      <use xlink:href="#DejaVuSans-65" x="644.580078"/>
     </g>
    </g>
    <g id="patch_189">
     <path d="M 576.914062 42.076563 
L 596.914062 42.076563 
L 596.914062 35.076563 
L 576.914062 35.076563 
z
" style="fill: #0066cc"/>
    </g>
    <g id="text_54">
     <!-- Coverage Unstable -->
     <g transform="translate(604.914062 42.076563) scale(0.1 -0.1)">
      <defs>
       <path id="DejaVuSans-43" d="M 4122 4306 
L 4122 3641 
Q 3803 3938 3442 4084 
Q 3081 4231 2675 4231 
Q 1875 4231 1450 3742 
Q 1025 3253 1025 2328 
Q 1025 1406 1450 917 
Q 1875 428 2675 428 
Q 3081 428 3442 575 
Q 3803 722 4122 1019 
L 4122 359 
Q 3791 134 3420 21 
Q 3050 -91 2638 -91 
Q 1578 -91 968 557 
Q 359 1206 359 2328 
Q 359 3453 968 4101 
Q 1578 4750 2638 4750 
Q 3056 4750 3426 4639 
Q 3797 4528 4122 4306 
z
" transform="scale(0.015625)"/>
      </defs>
      <use xlink:href="#DejaVuSans-43"/>
      <use xlink:href="#DejaVuSans-6f" x="69.824219"/>
      <use xlink:href="#DejaVuSans-76" x="131.005859"/>
      <use xlink:href="#DejaVuSans-65" x="190.185547"/>
      <use xlink:href="#DejaVuSans-72" x="251.708984"/>
      <use xlink:href="#DejaVuSans-61" x="292.822266"/>
      <use xlink:href="#DejaVuSans-67" x="354.101562"/>
      <use xlink:href="#DejaVuSans-65" x="417.578125"/>
      <use xlink:href="#DejaVuSans-20" x="479.101562"/>
      <use xlink:href="#DejaVuSans-55" x="510.888672"/>
      <use xlink:href="#DejaVuSans-6e" x="584.082031"/>
      <use xlink:href="#DejaVuSans-73" x="647.460938"/>
      <use xlink:href="#DejaVuSans-74" x="699.560547"/>
      <use xlink:href="#DejaVuSans-61" x="738.769531"/>
      <use xlink:href="#DejaVuSans-62" x="800.048828"/>
      <use xlink:href="#DejaVuSans-6c" x="863.525391"/>
      <use xlink:href="#DejaVuSans-65" x="891.308594"/>
     </g>
    </g>
    <g id="patch_190">
     <path d="M 576.914062 56.754687 
L 596.914062 56.754687 
L 596.914062 49.754687 
L 576.914062 49.754687 
z
" style="fill: #006600"/>
    </g>
    <g id="text_55">
     <!-- State Unstable -->
     <g transform="translate(604.914062 56.754687) scale(0.1 -0.1)">
      <defs>
       <path id="DejaVuSans-53" d="M 3425 4513 
L 3425 3897 
Q 3066 4069 2747 4153 
Q 2428 4238 2131 4238 
Q 1616 4238 1336 4038 
Q 1056 3838 1056 3469 
Q 1056 3159 1242 3001 
Q 1428 2844 1947 2747 
L 2328 2669 
Q 3034 2534 3370 2195 
Q 3706 1856 3706 1288 
Q 3706 609 3251 259 
Q 2797 -91 1919 -91 
Q 1588 -91 1214 -16 
Q 841 59 441 206 
L 441 856 
Q 825 641 1194 531 
Q 1563 422 1919 422 
Q 2459 422 2753 634 
Q 3047 847 3047 1241 
Q 3047 1584 2836 1778 
Q 2625 1972 2144 2069 
L 1759 2144 
Q 1053 2284 737 2584 
Q 422 2884 422 3419 
Q 422 4038 858 4394 
Q 1294 4750 2059 4750 
Q 2388 4750 2728 4690 
Q 3069 4631 3425 4513 
z
" transform="scale(0.015625)"/>
      </defs>
      <use xlink:href="#DejaVuSans-53"/>
      <use xlink:href="#DejaVuSans-74" x="63.476562"/>
      <use xlink:href="#DejaVuSans-61" x="102.685547"/>
      <use xlink:href="#DejaVuSans-74" x="163.964844"/>
      <use xlink:href="#DejaVuSans-65" x="203.173828"/>
      <use xlink:href="#DejaVuSans-20" x="264.697266"/>
      <use xlink:href="#DejaVuSans-55" x="296.484375"/>
      <use xlink:href="#DejaVuSans-6e" x="369.677734"/>
      <use xlink:href="#DejaVuSans-73" x="433.056641"/>
      <use xlink:href="#DejaVuSans-74" x="485.15625"/>
      <use xlink:href="#DejaVuSans-61" x="524.365234"/>
      <use xlink:href="#DejaVuSans-62" x="585.644531"/>
      <use xlink:href="#DejaVuSans-6c" x="649.121094"/>
      <use xlink:href="#DejaVuSans-65" x="676.904297"/>
     </g>
    </g>
    <g id="patch_191">
     <path d="M 576.914062 71.432813 
L 596.914062 71.432813 
L 596.914062 64.432813 
L 576.914062 64.432813 
z
" style="fill: #cc6600"/>
    </g>
    <g id="text_56">
     <!-- Both Stable -->
     <g transform="translate(604.914062 71.432813) scale(0.1 -0.1)">
      <use xlink:href="#DejaVuSans-42"/>
      <use xlink:href="#DejaVuSans-6f" x="68.603516"/>
      <use xlink:href="#DejaVuSans-74" x="129.785156"/>
      <use xlink:href="#DejaVuSans-68" x="168.994141"/>
      <use xlink:href="#DejaVuSans-20" x="232.373047"/>
      <use xlink:href="#DejaVuSans-53" x="264.160156"/>
      <use xlink:href="#DejaVuSans-74" x="327.636719"/>
      <use xlink:href="#DejaVuSans-61" x="366.845703"/>
      <use xlink:href="#DejaVuSans-62" x="428.125"/>
      <use xlink:href="#DejaVuSans-6c" x="491.601562"/>
      <use xlink:href="#DejaVuSans-65" x="519.384766"/>
     </g>
    </g>
   </g>
  </g>
 </g>
 <defs>
  <clipPath id="pa7c6c22d60">
   <rect x="47.72" y="10.8" width="661.48" height="354.226"/>
  </clipPath>
 </defs>
</svg>
