<?xml version="1.0" encoding="utf-8" standalone="no"?>
<!DOCTYPE svg PUBLIC "-//W3C//DTD SVG 1.1//EN"
  "http://www.w3.org/Graphics/SVG/1.1/DTD/svg11.dtd">
<svg xmlns:xlink="http://www.w3.org/1999/xlink" width="720pt" height="432pt" viewBox="0 0 720 432" xmlns="http://www.w3.org/2000/svg" version="1.1">
 <metadata>
  <rdf:RDF xmlns:dc="http://purl.org/dc/elements/1.1/" xmlns:cc="http://creativecommons.org/ns#" xmlns:rdf="http://www.w3.org/1999/02/22-rdf-syntax-ns#">
   <cc:Work>
    <dc:type rdf:resource="http://purl.org/dc/dcmitype/StillImage"/>
    <dc:date>2025-02-10T12:48:49.610065</dc:date>
    <dc:format>image/svg+xml</dc:format>
    <dc:creator>
     <cc:Agent>
      <dc:title>Matplotlib v3.9.2, https://matplotlib.org/</dc:title>
     </cc:Agent>
    </dc:creator>
   </cc:Work>
  </rdf:RDF>
 </metadata>
 <defs>
  <style type="text/css">*{stroke-linejoin: round; stroke-linecap: butt}</style>
 </defs>
 <g id="figure_1">
  <g id="patch_1">
   <path d="M 0 432 
L 720 432 
L 720 0 
L 0 0 
z
" style="fill: #ffffff"/>
  </g>
  <g id="axes_1">
   <g id="patch_2">
    <path d="M 47.72 365.026 
L 709.2 365.026 
L 709.2 10.8 
L 47.72 10.8 
z
" style="fill: #ffffff"/>
   </g>
   <g id="patch_3">
    <path d="M 77.787273 365.028387 
L 90.691678 365.028387 
L 90.691678 356.078331 
L 77.787273 356.078331 
z
" clip-path="url(#p30710d50f3)" style="fill: #cc0000"/>
   </g>
   <g id="patch_4">
    <path d="M 118.889319 365.028387 
L 127.016066 365.028387 
L 127.016066 365.026 
L 118.889319 365.026 
z
" clip-path="url(#p30710d50f3)" style="fill: #cc0000"/>
   </g>
   <g id="patch_5">
    <path d="M 131.1018 365.028387 
L 140.612396 365.028387 
L 140.612396 365.02824 
L 131.1018 365.02824 
z
" clip-path="url(#p30710d50f3)" style="fill: #cc0000"/>
   </g>
   <g id="patch_6">
    <path d="M 143.328442 365.028387 
L 154.194565 365.028387 
L 154.194565 365.027527 
L 143.328442 365.027527 
z
" clip-path="url(#p30710d50f3)" style="fill: #cc0000"/>
   </g>
   <g id="patch_7">
    <path d="M 155.879727 365.028387 
L 167.452091 365.028387 
L 167.452091 365.020815 
L 155.879727 365.020815 
z
" clip-path="url(#p30710d50f3)" style="fill: #cc0000"/>
   </g>
   <g id="patch_8">
    <path d="M 168.36944 365.028387 
L 180.771189 365.028387 
L 180.771189 364.671154 
L 168.36944 364.671154 
z
" clip-path="url(#p30710d50f3)" style="fill: #cc0000"/>
   </g>
   <g id="patch_9">
    <path d="M 181.221047 365.028387 
L 193.728394 365.028387 
L 193.728394 360.049873 
L 181.221047 360.049873 
z
" clip-path="url(#p30710d50f3)" style="fill: #cc0000"/>
   </g>
   <g id="patch_10">
    <path d="M 195.220833 365.028387 
L 205.537418 365.028387 
L 205.537418 350.753633 
L 195.220833 350.753633 
z
" clip-path="url(#p30710d50f3)" style="fill: #cc0000"/>
   </g>
   <g id="patch_11">
    <path d="M 208.772831 365.028387 
L 217.794232 365.028387 
L 217.794232 346.49872 
L 208.772831 346.49872 
z
" clip-path="url(#p30710d50f3)" style="fill: #cc0000"/>
   </g>
   <g id="patch_12">
    <path d="M 222.218616 365.028387 
L 230.157258 365.028387 
L 230.157258 341.753153 
L 222.218616 341.753153 
z
" clip-path="url(#p30710d50f3)" style="fill: #cc0000"/>
   </g>
   <g id="patch_13">
    <path d="M 235.489226 365.028387 
L 242.695459 365.028387 
L 242.695459 344.713111 
L 235.489226 344.713111 
z
" clip-path="url(#p30710d50f3)" style="fill: #cc0000"/>
   </g>
   <g id="patch_14">
    <path d="M 248.833262 365.028387 
L 255.160235 365.028387 
L 255.160235 344.66352 
L 248.833262 344.66352 
z
" clip-path="url(#p30710d50f3)" style="fill: #cc0000"/>
   </g>
   <g id="patch_15">
    <path d="M 262.178683 365.028387 
L 267.623625 365.028387 
L 267.623625 342.863608 
L 262.178683 342.863608 
z
" clip-path="url(#p30710d50f3)" style="fill: #cc0000"/>
   </g>
   <g id="patch_16">
    <path d="M 275.335229 365.028387 
L 280.27589 365.028387 
L 280.27589 344.11427 
L 275.335229 344.11427 
z
" clip-path="url(#p30710d50f3)" style="fill: #cc0000"/>
   </g>
   <g id="patch_17">
    <path d="M 288.409422 365.028387 
L 293.010508 365.028387 
L 293.010508 345.691811 
L 288.409422 345.691811 
z
" clip-path="url(#p30710d50f3)" style="fill: #cc0000"/>
   </g>
   <g id="patch_18">
    <path d="M 301.546727 365.028387 
L 305.682014 365.028387 
L 305.682014 347.782422 
L 301.546727 347.782422 
z
" clip-path="url(#p30710d50f3)" style="fill: #cc0000"/>
   </g>
   <g id="patch_19">
    <path d="M 314.6417 365.028387 
L 318.395852 365.028387 
L 318.395852 349.481582 
L 314.6417 349.481582 
z
" clip-path="url(#p30710d50f3)" style="fill: #cc0000"/>
   </g>
   <g id="patch_20">
    <path d="M 327.653243 365.028387 
L 331.193121 365.028387 
L 331.193121 351.275311 
L 327.653243 351.275311 
z
" clip-path="url(#p30710d50f3)" style="fill: #cc0000"/>
   </g>
   <g id="patch_21">
    <path d="M 340.690338 365.028387 
L 343.964837 365.028387 
L 343.964837 350.199366 
L 340.690338 350.199366 
z
" clip-path="url(#p30710d50f3)" style="fill: #cc0000"/>
   </g>
   <g id="patch_22">
    <path d="M 353.705574 365.028387 
L 356.758411 365.028387 
L 356.758411 351.834598 
L 353.705574 351.834598 
z
" clip-path="url(#p30710d50f3)" style="fill: #cc0000"/>
   </g>
   <g id="patch_23">
    <path d="M 366.672169 365.028387 
L 369.600628 365.028387 
L 369.600628 350.737872 
L 366.672169 350.737872 
z
" clip-path="url(#p30710d50f3)" style="fill: #cc0000"/>
   </g>
   <g id="patch_24">
    <path d="M 379.632144 365.028387 
L 382.449465 365.028387 
L 382.449465 351.320329 
L 379.632144 351.320329 
z
" clip-path="url(#p30710d50f3)" style="fill: #cc0000"/>
   </g>
   <g id="patch_25">
    <path d="M 392.560101 365.028387 
L 395.330319 365.028387 
L 395.330319 353.098649 
L 392.560101 353.098649 
z
" clip-path="url(#p30710d50f3)" style="fill: #cc0000"/>
   </g>
   <g id="patch_26">
    <path d="M 405.492214 365.028387 
L 408.207016 365.028387 
L 408.207016 356.720904 
L 405.492214 356.720904 
z
" clip-path="url(#p30710d50f3)" style="fill: #cc0000"/>
   </g>
   <g id="patch_27">
    <path d="M 418.410936 365.028387 
L 421.097106 365.028387 
L 421.097106 353.755381 
L 418.410936 353.755381 
z
" clip-path="url(#p30710d50f3)" style="fill: #cc0000"/>
   </g>
   <g id="patch_28">
    <path d="M 431.326424 365.028387 
L 433.990429 365.028387 
L 433.990429 354.571549 
L 431.326424 354.571549 
z
" clip-path="url(#p30710d50f3)" style="fill: #cc0000"/>
   </g>
   <g id="patch_29">
    <path d="M 444.240528 365.028387 
L 446.885137 365.028387 
L 446.885137 357.678874 
L 444.240528 357.678874 
z
" clip-path="url(#p30710d50f3)" style="fill: #cc0000"/>
   </g>
   <g id="patch_30">
    <path d="M 457.156786 365.028387 
L 459.777689 365.028387 
L 459.777689 357.795343 
L 457.156786 357.795343 
z
" clip-path="url(#p30710d50f3)" style="fill: #cc0000"/>
   </g>
   <g id="patch_31">
    <path d="M 470.06581 365.028387 
L 472.677477 365.028387 
L 472.677477 354.854437 
L 470.06581 354.854437 
z
" clip-path="url(#p30710d50f3)" style="fill: #cc0000"/>
   </g>
   <g id="patch_32">
    <path d="M 482.974217 365.028387 
L 485.57788 365.028387 
L 485.57788 352.722758 
L 482.974217 352.722758 
z
" clip-path="url(#p30710d50f3)" style="fill: #cc0000"/>
   </g>
   <g id="patch_33">
    <path d="M 495.884011 365.028387 
L 498.476898 365.028387 
L 498.476898 355.601656 
L 495.884011 355.601656 
z
" clip-path="url(#p30710d50f3)" style="fill: #cc0000"/>
   </g>
   <g id="patch_34">
    <path d="M 508.789494 365.028387 
L 511.380226 365.028387 
L 511.380226 355.925874 
L 508.789494 355.925874 
z
" clip-path="url(#p30710d50f3)" style="fill: #cc0000"/>
   </g>
   <g id="patch_35">
    <path d="M 521.692206 365.028387 
L 524.286325 365.028387 
L 524.286325 361.147564 
L 521.692206 361.147564 
z
" clip-path="url(#p30710d50f3)" style="fill: #cc0000"/>
   </g>
   <g id="patch_36">
    <path d="M 534.59969 365.028387 
L 537.187652 365.028387 
L 537.187652 352.837879 
L 534.59969 352.837879 
z
" clip-path="url(#p30710d50f3)" style="fill: #cc0000"/>
   </g>
   <g id="patch_37">
    <path d="M 547.505019 365.028387 
L 550.091134 365.028387 
L 550.091134 360.868201 
L 547.505019 360.868201 
z
" clip-path="url(#p30710d50f3)" style="fill: #cc0000"/>
   </g>
   <g id="patch_38">
    <path d="M 560.410503 365.028387 
L 562.994462 365.028387 
L 562.994462 354.804275 
L 560.410503 354.804275 
z
" clip-path="url(#p30710d50f3)" style="fill: #cc0000"/>
   </g>
   <g id="patch_39">
    <path d="M 573.315986 365.028387 
L 575.89779 365.028387 
L 575.89779 335.764403 
L 573.315986 335.764403 
z
" clip-path="url(#p30710d50f3)" style="fill: #cc0000"/>
   </g>
   <g id="patch_40">
    <path d="M 586.219929 365.028387 
L 588.802658 365.028387 
L 588.802658 351.229681 
L 586.219929 351.229681 
z
" clip-path="url(#p30710d50f3)" style="fill: #cc0000"/>
   </g>
   <g id="patch_41">
    <path d="M 599.124489 365.028387 
L 601.706909 365.028387 
L 601.706909 365.028387 
L 599.124489 365.028387 
z
" clip-path="url(#p30710d50f3)" style="fill: #cc0000"/>
   </g>
   <g id="patch_42">
    <path d="M 612.029049 365.028387 
L 614.611161 365.028387 
L 614.611161 364.201523 
L 612.029049 364.201523 
z
" clip-path="url(#p30710d50f3)" style="fill: #cc0000"/>
   </g>
   <g id="patch_43">
    <path d="M 624.933454 365.028387 
L 627.515567 365.028387 
L 627.515567 363.37466 
L 624.933454 363.37466 
z
" clip-path="url(#p30710d50f3)" style="fill: #cc0000"/>
   </g>
   <g id="patch_44">
    <path d="M 650.742573 365.028387 
L 653.32407 365.028387 
L 653.32407 365.028387 
L 650.742573 365.028387 
z
" clip-path="url(#p30710d50f3)" style="fill: #cc0000"/>
   </g>
   <g id="patch_45">
    <path d="M 676.551538 365.028387 
L 679.132727 365.028387 
L 679.132727 358.4777 
L 676.551538 358.4777 
z
" clip-path="url(#p30710d50f3)" style="fill: #cc0000"/>
   </g>
   <g id="patch_46">
    <path d="M 77.787273 356.078331 
L 90.691678 356.078331 
L 90.691678 27.668018 
L 77.787273 27.668018 
z
" clip-path="url(#p30710d50f3)" style="fill: #cc6600"/>
   </g>
   <g id="patch_47">
    <path d="M 118.889319 365.026 
L 127.016066 365.026 
L 127.016066 27.668018 
L 118.889319 27.668018 
z
" clip-path="url(#p30710d50f3)" style="fill: #cc6600"/>
   </g>
   <g id="patch_48">
    <path d="M 131.1018 365.02824 
L 140.612396 365.02824 
L 140.612396 27.668018 
L 131.1018 27.668018 
z
" clip-path="url(#p30710d50f3)" style="fill: #cc6600"/>
   </g>
   <g id="patch_49">
    <path d="M 143.328442 365.027527 
L 154.194565 365.027527 
L 154.194565 27.668018 
L 143.328442 27.668018 
z
" clip-path="url(#p30710d50f3)" style="fill: #cc6600"/>
   </g>
   <g id="patch_50">
    <path d="M 155.879727 365.020815 
L 167.452091 365.020815 
L 167.452091 27.668018 
L 155.879727 27.668018 
z
" clip-path="url(#p30710d50f3)" style="fill: #cc6600"/>
   </g>
   <g id="patch_51">
    <path d="M 168.36944 364.671154 
L 180.771189 364.671154 
L 180.771189 27.668018 
L 168.36944 27.668018 
z
" clip-path="url(#p30710d50f3)" style="fill: #cc6600"/>
   </g>
   <g id="patch_52">
    <path d="M 181.221047 360.049873 
L 193.728394 360.049873 
L 193.728394 27.668018 
L 181.221047 27.668018 
z
" clip-path="url(#p30710d50f3)" style="fill: #cc6600"/>
   </g>
   <g id="patch_53">
    <path d="M 195.220833 350.753633 
L 205.537418 350.753633 
L 205.537418 27.668018 
L 195.220833 27.668018 
z
" clip-path="url(#p30710d50f3)" style="fill: #cc6600"/>
   </g>
   <g id="patch_54">
    <path d="M 208.772831 346.49872 
L 217.794232 346.49872 
L 217.794232 27.668018 
L 208.772831 27.668018 
z
" clip-path="url(#p30710d50f3)" style="fill: #cc6600"/>
   </g>
   <g id="patch_55">
    <path d="M 222.218616 341.753153 
L 230.157258 341.753153 
L 230.157258 27.668018 
L 222.218616 27.668018 
z
" clip-path="url(#p30710d50f3)" style="fill: #cc6600"/>
   </g>
   <g id="patch_56">
    <path d="M 235.489226 344.713111 
L 242.695459 344.713111 
L 242.695459 27.668018 
L 235.489226 27.668018 
z
" clip-path="url(#p30710d50f3)" style="fill: #cc6600"/>
   </g>
   <g id="patch_57">
    <path d="M 248.833262 344.66352 
L 255.160235 344.66352 
L 255.160235 27.668018 
L 248.833262 27.668018 
z
" clip-path="url(#p30710d50f3)" style="fill: #cc6600"/>
   </g>
   <g id="patch_58">
    <path d="M 262.178683 342.863608 
L 267.623625 342.863608 
L 267.623625 27.668018 
L 262.178683 27.668018 
z
" clip-path="url(#p30710d50f3)" style="fill: #cc6600"/>
   </g>
   <g id="patch_59">
    <path d="M 275.335229 344.11427 
L 280.27589 344.11427 
L 280.27589 27.668018 
L 275.335229 27.668018 
z
" clip-path="url(#p30710d50f3)" style="fill: #cc6600"/>
   </g>
   <g id="patch_60">
    <path d="M 288.409422 345.691811 
L 293.010508 345.691811 
L 293.010508 27.668018 
L 288.409422 27.668018 
z
" clip-path="url(#p30710d50f3)" style="fill: #cc6600"/>
   </g>
   <g id="patch_61">
    <path d="M 301.546727 347.782422 
L 305.682014 347.782422 
L 305.682014 27.668018 
L 301.546727 27.668018 
z
" clip-path="url(#p30710d50f3)" style="fill: #cc6600"/>
   </g>
   <g id="patch_62">
    <path d="M 314.6417 349.481582 
L 318.395852 349.481582 
L 318.395852 27.668018 
L 314.6417 27.668018 
z
" clip-path="url(#p30710d50f3)" style="fill: #cc6600"/>
   </g>
   <g id="patch_63">
    <path d="M 327.653243 351.275311 
L 331.193121 351.275311 
L 331.193121 27.668018 
L 327.653243 27.668018 
z
" clip-path="url(#p30710d50f3)" style="fill: #cc6600"/>
   </g>
   <g id="patch_64">
    <path d="M 340.690338 350.199366 
L 343.964837 350.199366 
L 343.964837 27.668018 
L 340.690338 27.668018 
z
" clip-path="url(#p30710d50f3)" style="fill: #cc6600"/>
   </g>
   <g id="patch_65">
    <path d="M 353.705574 351.834598 
L 356.758411 351.834598 
L 356.758411 27.668018 
L 353.705574 27.668018 
z
" clip-path="url(#p30710d50f3)" style="fill: #cc6600"/>
   </g>
   <g id="patch_66">
    <path d="M 366.672169 350.737872 
L 369.600628 350.737872 
L 369.600628 27.668018 
L 366.672169 27.668018 
z
" clip-path="url(#p30710d50f3)" style="fill: #cc6600"/>
   </g>
   <g id="patch_67">
    <path d="M 379.632144 351.320329 
L 382.449465 351.320329 
L 382.449465 27.668018 
L 379.632144 27.668018 
z
" clip-path="url(#p30710d50f3)" style="fill: #cc6600"/>
   </g>
   <g id="patch_68">
    <path d="M 392.560101 353.098649 
L 395.330319 353.098649 
L 395.330319 27.668018 
L 392.560101 27.668018 
z
" clip-path="url(#p30710d50f3)" style="fill: #cc6600"/>
   </g>
   <g id="patch_69">
    <path d="M 405.492214 356.720904 
L 408.207016 356.720904 
L 408.207016 27.668018 
L 405.492214 27.668018 
z
" clip-path="url(#p30710d50f3)" style="fill: #cc6600"/>
   </g>
   <g id="patch_70">
    <path d="M 418.410936 353.755381 
L 421.097106 353.755381 
L 421.097106 27.668018 
L 418.410936 27.668018 
z
" clip-path="url(#p30710d50f3)" style="fill: #cc6600"/>
   </g>
   <g id="patch_71">
    <path d="M 431.326424 354.571549 
L 433.990429 354.571549 
L 433.990429 27.668018 
L 431.326424 27.668018 
z
" clip-path="url(#p30710d50f3)" style="fill: #cc6600"/>
   </g>
   <g id="patch_72">
    <path d="M 444.240528 357.678874 
L 446.885137 357.678874 
L 446.885137 27.668018 
L 444.240528 27.668018 
z
" clip-path="url(#p30710d50f3)" style="fill: #cc6600"/>
   </g>
   <g id="patch_73">
    <path d="M 457.156786 357.795343 
L 459.777689 357.795343 
L 459.777689 27.668018 
L 457.156786 27.668018 
z
" clip-path="url(#p30710d50f3)" style="fill: #cc6600"/>
   </g>
   <g id="patch_74">
    <path d="M 470.06581 354.854437 
L 472.677477 354.854437 
L 472.677477 27.668018 
L 470.06581 27.668018 
z
" clip-path="url(#p30710d50f3)" style="fill: #cc6600"/>
   </g>
   <g id="patch_75">
    <path d="M 482.974217 352.722758 
L 485.57788 352.722758 
L 485.57788 27.668018 
L 482.974217 27.668018 
z
" clip-path="url(#p30710d50f3)" style="fill: #cc6600"/>
   </g>
   <g id="patch_76">
    <path d="M 495.884011 355.601656 
L 498.476898 355.601656 
L 498.476898 27.668018 
L 495.884011 27.668018 
z
" clip-path="url(#p30710d50f3)" style="fill: #cc6600"/>
   </g>
   <g id="patch_77">
    <path d="M 508.789494 355.925874 
L 511.380226 355.925874 
L 511.380226 27.668018 
L 508.789494 27.668018 
z
" clip-path="url(#p30710d50f3)" style="fill: #cc6600"/>
   </g>
   <g id="patch_78">
    <path d="M 521.692206 361.147564 
L 524.286325 361.147564 
L 524.286325 27.668018 
L 521.692206 27.668018 
z
" clip-path="url(#p30710d50f3)" style="fill: #cc6600"/>
   </g>
   <g id="patch_79">
    <path d="M 534.59969 352.837879 
L 537.187652 352.837879 
L 537.187652 27.668018 
L 534.59969 27.668018 
z
" clip-path="url(#p30710d50f3)" style="fill: #cc6600"/>
   </g>
   <g id="patch_80">
    <path d="M 547.505019 360.868201 
L 550.091134 360.868201 
L 550.091134 27.668018 
L 547.505019 27.668018 
z
" clip-path="url(#p30710d50f3)" style="fill: #cc6600"/>
   </g>
   <g id="patch_81">
    <path d="M 560.410503 354.804275 
L 562.994462 354.804275 
L 562.994462 27.668018 
L 560.410503 27.668018 
z
" clip-path="url(#p30710d50f3)" style="fill: #cc6600"/>
   </g>
   <g id="patch_82">
    <path d="M 573.315986 335.764403 
L 575.89779 335.764403 
L 575.89779 27.668018 
L 573.315986 27.668018 
z
" clip-path="url(#p30710d50f3)" style="fill: #cc6600"/>
   </g>
   <g id="patch_83">
    <path d="M 586.219929 351.229681 
L 588.802658 351.229681 
L 588.802658 27.668018 
L 586.219929 27.668018 
z
" clip-path="url(#p30710d50f3)" style="fill: #cc6600"/>
   </g>
   <g id="patch_84">
    <path d="M 599.124489 365.028387 
L 601.706909 365.028387 
L 601.706909 27.668018 
L 599.124489 27.668018 
z
" clip-path="url(#p30710d50f3)" style="fill: #cc6600"/>
   </g>
   <g id="patch_85">
    <path d="M 612.029049 364.201523 
L 614.611161 364.201523 
L 614.611161 27.668018 
L 612.029049 27.668018 
z
" clip-path="url(#p30710d50f3)" style="fill: #cc6600"/>
   </g>
   <g id="patch_86">
    <path d="M 624.933454 363.37466 
L 627.515567 363.37466 
L 627.515567 27.668018 
L 624.933454 27.668018 
z
" clip-path="url(#p30710d50f3)" style="fill: #cc6600"/>
   </g>
   <g id="patch_87">
    <path d="M 650.742573 365.028387 
L 653.32407 365.028387 
L 653.32407 27.668018 
L 650.742573 27.668018 
z
" clip-path="url(#p30710d50f3)" style="fill: #cc6600"/>
   </g>
   <g id="patch_88">
    <path d="M 676.551538 358.4777 
L 679.132727 358.4777 
L 679.132727 27.668018 
L 676.551538 27.668018 
z
" clip-path="url(#p30710d50f3)" style="fill: #cc6600"/>
   </g>
   <g id="matplotlib.axis_1">
    <g id="xtick_1">
     <g id="line2d_1">
      <defs>
       <path id="m3cc1161d7a" d="M 0 0 
L 0 3.5 
" style="stroke: #000000; stroke-width: 0.8"/>
      </defs>
      <g>
       <use xlink:href="#m3cc1161d7a" x="84.239476" y="365.026" style="stroke: #000000; stroke-width: 0.8"/>
      </g>
     </g>
     <g id="text_1">
      <!-- Weighted -->
      <g transform="translate(81.399944 419.365063) rotate(-90) scale(0.1 -0.1)">
       <defs>
        <path id="DejaVuSans-57" d="M 213 4666 
L 850 4666 
L 1831 722 
L 2809 4666 
L 3519 4666 
L 4500 722 
L 5478 4666 
L 6119 4666 
L 4947 0 
L 4153 0 
L 3169 4050 
L 2175 0 
L 1381 0 
L 213 4666 
z
" transform="scale(0.015625)"/>
        <path id="DejaVuSans-65" d="M 3597 1894 
L 3597 1613 
L 953 1613 
Q 991 1019 1311 708 
Q 1631 397 2203 397 
Q 2534 397 2845 478 
Q 3156 559 3463 722 
L 3463 178 
Q 3153 47 2828 -22 
Q 2503 -91 2169 -91 
Q 1331 -91 842 396 
Q 353 884 353 1716 
Q 353 2575 817 3079 
Q 1281 3584 2069 3584 
Q 2775 3584 3186 3129 
Q 3597 2675 3597 1894 
z
M 3022 2063 
Q 3016 2534 2758 2815 
Q 2500 3097 2075 3097 
Q 1594 3097 1305 2825 
Q 1016 2553 972 2059 
L 3022 2063 
z
" transform="scale(0.015625)"/>
        <path id="DejaVuSans-69" d="M 603 3500 
L 1178 3500 
L 1178 0 
L 603 0 
L 603 3500 
z
M 603 4863 
L 1178 4863 
L 1178 4134 
L 603 4134 
L 603 4863 
z
" transform="scale(0.015625)"/>
        <path id="DejaVuSans-67" d="M 2906 1791 
Q 2906 2416 2648 2759 
Q 2391 3103 1925 3103 
Q 1463 3103 1205 2759 
Q 947 2416 947 1791 
Q 947 1169 1205 825 
Q 1463 481 1925 481 
Q 2391 481 2648 825 
Q 2906 1169 2906 1791 
z
M 3481 434 
Q 3481 -459 3084 -895 
Q 2688 -1331 1869 -1331 
Q 1566 -1331 1297 -1286 
Q 1028 -1241 775 -1147 
L 775 -588 
Q 1028 -725 1275 -790 
Q 1522 -856 1778 -856 
Q 2344 -856 2625 -561 
Q 2906 -266 2906 331 
L 2906 616 
Q 2728 306 2450 153 
Q 2172 0 1784 0 
Q 1141 0 747 490 
Q 353 981 353 1791 
Q 353 2603 747 3093 
Q 1141 3584 1784 3584 
Q 2172 3584 2450 3431 
Q 2728 3278 2906 2969 
L 2906 3500 
L 3481 3500 
L 3481 434 
z
" transform="scale(0.015625)"/>
        <path id="DejaVuSans-68" d="M 3513 2113 
L 3513 0 
L 2938 0 
L 2938 2094 
Q 2938 2591 2744 2837 
Q 2550 3084 2163 3084 
Q 1697 3084 1428 2787 
Q 1159 2491 1159 1978 
L 1159 0 
L 581 0 
L 581 4863 
L 1159 4863 
L 1159 2956 
Q 1366 3272 1645 3428 
Q 1925 3584 2291 3584 
Q 2894 3584 3203 3211 
Q 3513 2838 3513 2113 
z
" transform="scale(0.015625)"/>
        <path id="DejaVuSans-74" d="M 1172 4494 
L 1172 3500 
L 2356 3500 
L 2356 3053 
L 1172 3053 
L 1172 1153 
Q 1172 725 1289 603 
Q 1406 481 1766 481 
L 2356 481 
L 2356 0 
L 1766 0 
Q 1100 0 847 248 
Q 594 497 594 1153 
L 594 3053 
L 172 3053 
L 172 3500 
L 594 3500 
L 594 4494 
L 1172 4494 
z
" transform="scale(0.015625)"/>
        <path id="DejaVuSans-64" d="M 2906 2969 
L 2906 4863 
L 3481 4863 
L 3481 0 
L 2906 0 
L 2906 525 
Q 2725 213 2448 61 
Q 2172 -91 1784 -91 
Q 1150 -91 751 415 
Q 353 922 353 1747 
Q 353 2572 751 3078 
Q 1150 3584 1784 3584 
Q 2172 3584 2448 3432 
Q 2725 3281 2906 2969 
z
M 947 1747 
Q 947 1113 1208 752 
Q 1469 391 1925 391 
Q 2381 391 2643 752 
Q 2906 1113 2906 1747 
Q 2906 2381 2643 2742 
Q 2381 3103 1925 3103 
Q 1469 3103 1208 2742 
Q 947 2381 947 1747 
z
" transform="scale(0.015625)"/>
       </defs>
       <use xlink:href="#DejaVuSans-57"/>
       <use xlink:href="#DejaVuSans-65" x="93.001953"/>
       <use xlink:href="#DejaVuSans-69" x="154.525391"/>
       <use xlink:href="#DejaVuSans-67" x="182.308594"/>
       <use xlink:href="#DejaVuSans-68" x="245.785156"/>
       <use xlink:href="#DejaVuSans-74" x="309.164062"/>
       <use xlink:href="#DejaVuSans-65" x="348.373047"/>
       <use xlink:href="#DejaVuSans-64" x="409.896484"/>
      </g>
      <!-- Average -->
      <g transform="translate(92.597757 416.228344) rotate(-90) scale(0.1 -0.1)">
       <defs>
        <path id="DejaVuSans-41" d="M 2188 4044 
L 1331 1722 
L 3047 1722 
L 2188 4044 
z
M 1831 4666 
L 2547 4666 
L 4325 0 
L 3669 0 
L 3244 1197 
L 1141 1197 
L 716 0 
L 50 0 
L 1831 4666 
z
" transform="scale(0.015625)"/>
        <path id="DejaVuSans-76" d="M 191 3500 
L 800 3500 
L 1894 563 
L 2988 3500 
L 3597 3500 
L 2284 0 
L 1503 0 
L 191 3500 
z
" transform="scale(0.015625)"/>
        <path id="DejaVuSans-72" d="M 2631 2963 
Q 2534 3019 2420 3045 
Q 2306 3072 2169 3072 
Q 1681 3072 1420 2755 
Q 1159 2438 1159 1844 
L 1159 0 
L 581 0 
L 581 3500 
L 1159 3500 
L 1159 2956 
Q 1341 3275 1631 3429 
Q 1922 3584 2338 3584 
Q 2397 3584 2469 3576 
Q 2541 3569 2628 3553 
L 2631 2963 
z
" transform="scale(0.015625)"/>
        <path id="DejaVuSans-61" d="M 2194 1759 
Q 1497 1759 1228 1600 
Q 959 1441 959 1056 
Q 959 750 1161 570 
Q 1363 391 1709 391 
Q 2188 391 2477 730 
Q 2766 1069 2766 1631 
L 2766 1759 
L 2194 1759 
z
M 3341 1997 
L 3341 0 
L 2766 0 
L 2766 531 
Q 2569 213 2275 61 
Q 1981 -91 1556 -91 
Q 1019 -91 701 211 
Q 384 513 384 1019 
Q 384 1609 779 1909 
Q 1175 2209 1959 2209 
L 2766 2209 
L 2766 2266 
Q 2766 2663 2505 2880 
Q 2244 3097 1772 3097 
Q 1472 3097 1187 3025 
Q 903 2953 641 2809 
L 641 3341 
Q 956 3463 1253 3523 
Q 1550 3584 1831 3584 
Q 2591 3584 2966 3190 
Q 3341 2797 3341 1997 
z
" transform="scale(0.015625)"/>
       </defs>
       <use xlink:href="#DejaVuSans-41"/>
       <use xlink:href="#DejaVuSans-76" x="62.533203"/>
       <use xlink:href="#DejaVuSans-65" x="121.712891"/>
       <use xlink:href="#DejaVuSans-72" x="183.236328"/>
       <use xlink:href="#DejaVuSans-61" x="224.349609"/>
       <use xlink:href="#DejaVuSans-67" x="285.628906"/>
       <use xlink:href="#DejaVuSans-65" x="349.105469"/>
      </g>
     </g>
    </g>
    <g id="xtick_2">
     <g id="line2d_2">
      <g>
       <use xlink:href="#m3cc1161d7a" x="122.952692" y="365.026" style="stroke: #000000; stroke-width: 0.8"/>
      </g>
     </g>
     <g id="text_2">
      <!-- 1 -->
      <g transform="translate(125.712067 378.3885) rotate(-90) scale(0.1 -0.1)">
       <defs>
        <path id="DejaVuSans-31" d="M 794 531 
L 1825 531 
L 1825 4091 
L 703 3866 
L 703 4441 
L 1819 4666 
L 2450 4666 
L 2450 531 
L 3481 531 
L 3481 0 
L 794 0 
L 794 531 
z
" transform="scale(0.015625)"/>
       </defs>
       <use xlink:href="#DejaVuSans-31"/>
      </g>
     </g>
    </g>
    <g id="xtick_3">
     <g id="line2d_3">
      <g>
       <use xlink:href="#m3cc1161d7a" x="135.857098" y="365.026" style="stroke: #000000; stroke-width: 0.8"/>
      </g>
     </g>
     <g id="text_3">
      <!-- 2 -->
      <g transform="translate(138.616473 378.3885) rotate(-90) scale(0.1 -0.1)">
       <defs>
        <path id="DejaVuSans-32" d="M 1228 531 
L 3431 531 
L 3431 0 
L 469 0 
L 469 531 
Q 828 903 1448 1529 
Q 2069 2156 2228 2338 
Q 2531 2678 2651 2914 
Q 2772 3150 2772 3378 
Q 2772 3750 2511 3984 
Q 2250 4219 1831 4219 
Q 1534 4219 1204 4116 
Q 875 4013 500 3803 
L 500 4441 
Q 881 4594 1212 4672 
Q 1544 4750 1819 4750 
Q 2544 4750 2975 4387 
Q 3406 4025 3406 3419 
Q 3406 3131 3298 2873 
Q 3191 2616 2906 2266 
Q 2828 2175 2409 1742 
Q 1991 1309 1228 531 
z
" transform="scale(0.015625)"/>
       </defs>
       <use xlink:href="#DejaVuSans-32"/>
      </g>
     </g>
    </g>
    <g id="xtick_4">
     <g id="line2d_4">
      <g>
       <use xlink:href="#m3cc1161d7a" x="148.761503" y="365.026" style="stroke: #000000; stroke-width: 0.8"/>
      </g>
     </g>
     <g id="text_4">
      <!-- 3 -->
      <g transform="translate(151.520878 378.3885) rotate(-90) scale(0.1 -0.1)">
       <defs>
        <path id="DejaVuSans-33" d="M 2597 2516 
Q 3050 2419 3304 2112 
Q 3559 1806 3559 1356 
Q 3559 666 3084 287 
Q 2609 -91 1734 -91 
Q 1441 -91 1130 -33 
Q 819 25 488 141 
L 488 750 
Q 750 597 1062 519 
Q 1375 441 1716 441 
Q 2309 441 2620 675 
Q 2931 909 2931 1356 
Q 2931 1769 2642 2001 
Q 2353 2234 1838 2234 
L 1294 2234 
L 1294 2753 
L 1863 2753 
Q 2328 2753 2575 2939 
Q 2822 3125 2822 3475 
Q 2822 3834 2567 4026 
Q 2313 4219 1838 4219 
Q 1578 4219 1281 4162 
Q 984 4106 628 3988 
L 628 4550 
Q 988 4650 1302 4700 
Q 1616 4750 1894 4750 
Q 2613 4750 3031 4423 
Q 3450 4097 3450 3541 
Q 3450 3153 3228 2886 
Q 3006 2619 2597 2516 
z
" transform="scale(0.015625)"/>
       </defs>
       <use xlink:href="#DejaVuSans-33"/>
      </g>
     </g>
    </g>
    <g id="xtick_5">
     <g id="line2d_5">
      <g>
       <use xlink:href="#m3cc1161d7a" x="161.665909" y="365.026" style="stroke: #000000; stroke-width: 0.8"/>
      </g>
     </g>
     <g id="text_5">
      <!-- 4 -->
      <g transform="translate(164.425284 378.3885) rotate(-90) scale(0.1 -0.1)">
       <defs>
        <path id="DejaVuSans-34" d="M 2419 4116 
L 825 1625 
L 2419 1625 
L 2419 4116 
z
M 2253 4666 
L 3047 4666 
L 3047 1625 
L 3713 1625 
L 3713 1100 
L 3047 1100 
L 3047 0 
L 2419 0 
L 2419 1100 
L 313 1100 
L 313 1709 
L 2253 4666 
z
" transform="scale(0.015625)"/>
       </defs>
       <use xlink:href="#DejaVuSans-34"/>
      </g>
     </g>
    </g>
    <g id="xtick_6">
     <g id="line2d_6">
      <g>
       <use xlink:href="#m3cc1161d7a" x="174.570315" y="365.026" style="stroke: #000000; stroke-width: 0.8"/>
      </g>
     </g>
     <g id="text_6">
      <!-- 5 -->
      <g transform="translate(177.32969 378.3885) rotate(-90) scale(0.1 -0.1)">
       <defs>
        <path id="DejaVuSans-35" d="M 691 4666 
L 3169 4666 
L 3169 4134 
L 1269 4134 
L 1269 2991 
Q 1406 3038 1543 3061 
Q 1681 3084 1819 3084 
Q 2600 3084 3056 2656 
Q 3513 2228 3513 1497 
Q 3513 744 3044 326 
Q 2575 -91 1722 -91 
Q 1428 -91 1123 -41 
Q 819 9 494 109 
L 494 744 
Q 775 591 1075 516 
Q 1375 441 1709 441 
Q 2250 441 2565 725 
Q 2881 1009 2881 1497 
Q 2881 1984 2565 2268 
Q 2250 2553 1709 2553 
Q 1456 2553 1204 2497 
Q 953 2441 691 2322 
L 691 4666 
z
" transform="scale(0.015625)"/>
       </defs>
       <use xlink:href="#DejaVuSans-35"/>
      </g>
     </g>
    </g>
    <g id="xtick_7">
     <g id="line2d_7">
      <g>
       <use xlink:href="#m3cc1161d7a" x="187.47472" y="365.026" style="stroke: #000000; stroke-width: 0.8"/>
      </g>
     </g>
     <g id="text_7">
      <!-- 6 -->
      <g transform="translate(190.234095 378.3885) rotate(-90) scale(0.1 -0.1)">
       <defs>
        <path id="DejaVuSans-36" d="M 2113 2584 
Q 1688 2584 1439 2293 
Q 1191 2003 1191 1497 
Q 1191 994 1439 701 
Q 1688 409 2113 409 
Q 2538 409 2786 701 
Q 3034 994 3034 1497 
Q 3034 2003 2786 2293 
Q 2538 2584 2113 2584 
z
M 3366 4563 
L 3366 3988 
Q 3128 4100 2886 4159 
Q 2644 4219 2406 4219 
Q 1781 4219 1451 3797 
Q 1122 3375 1075 2522 
Q 1259 2794 1537 2939 
Q 1816 3084 2150 3084 
Q 2853 3084 3261 2657 
Q 3669 2231 3669 1497 
Q 3669 778 3244 343 
Q 2819 -91 2113 -91 
Q 1303 -91 875 529 
Q 447 1150 447 2328 
Q 447 3434 972 4092 
Q 1497 4750 2381 4750 
Q 2619 4750 2861 4703 
Q 3103 4656 3366 4563 
z
" transform="scale(0.015625)"/>
       </defs>
       <use xlink:href="#DejaVuSans-36"/>
      </g>
     </g>
    </g>
    <g id="xtick_8">
     <g id="line2d_8">
      <g>
       <use xlink:href="#m3cc1161d7a" x="200.379126" y="365.026" style="stroke: #000000; stroke-width: 0.8"/>
      </g>
     </g>
     <g id="text_8">
      <!-- 7 -->
      <g transform="translate(203.138501 378.3885) rotate(-90) scale(0.1 -0.1)">
       <defs>
        <path id="DejaVuSans-37" d="M 525 4666 
L 3525 4666 
L 3525 4397 
L 1831 0 
L 1172 0 
L 2766 4134 
L 525 4134 
L 525 4666 
z
" transform="scale(0.015625)"/>
       </defs>
       <use xlink:href="#DejaVuSans-37"/>
      </g>
     </g>
    </g>
    <g id="xtick_9">
     <g id="line2d_9">
      <g>
       <use xlink:href="#m3cc1161d7a" x="213.283531" y="365.026" style="stroke: #000000; stroke-width: 0.8"/>
      </g>
     </g>
     <g id="text_9">
      <!-- 8 -->
      <g transform="translate(216.042906 378.3885) rotate(-90) scale(0.1 -0.1)">
       <defs>
        <path id="DejaVuSans-38" d="M 2034 2216 
Q 1584 2216 1326 1975 
Q 1069 1734 1069 1313 
Q 1069 891 1326 650 
Q 1584 409 2034 409 
Q 2484 409 2743 651 
Q 3003 894 3003 1313 
Q 3003 1734 2745 1975 
Q 2488 2216 2034 2216 
z
M 1403 2484 
Q 997 2584 770 2862 
Q 544 3141 544 3541 
Q 544 4100 942 4425 
Q 1341 4750 2034 4750 
Q 2731 4750 3128 4425 
Q 3525 4100 3525 3541 
Q 3525 3141 3298 2862 
Q 3072 2584 2669 2484 
Q 3125 2378 3379 2068 
Q 3634 1759 3634 1313 
Q 3634 634 3220 271 
Q 2806 -91 2034 -91 
Q 1263 -91 848 271 
Q 434 634 434 1313 
Q 434 1759 690 2068 
Q 947 2378 1403 2484 
z
M 1172 3481 
Q 1172 3119 1398 2916 
Q 1625 2713 2034 2713 
Q 2441 2713 2670 2916 
Q 2900 3119 2900 3481 
Q 2900 3844 2670 4047 
Q 2441 4250 2034 4250 
Q 1625 4250 1398 4047 
Q 1172 3844 1172 3481 
z
" transform="scale(0.015625)"/>
       </defs>
       <use xlink:href="#DejaVuSans-38"/>
      </g>
     </g>
    </g>
    <g id="xtick_10">
     <g id="line2d_10">
      <g>
       <use xlink:href="#m3cc1161d7a" x="226.187937" y="365.026" style="stroke: #000000; stroke-width: 0.8"/>
      </g>
     </g>
     <g id="text_10">
      <!-- 9 -->
      <g transform="translate(228.947312 378.3885) rotate(-90) scale(0.1 -0.1)">
       <defs>
        <path id="DejaVuSans-39" d="M 703 97 
L 703 672 
Q 941 559 1184 500 
Q 1428 441 1663 441 
Q 2288 441 2617 861 
Q 2947 1281 2994 2138 
Q 2813 1869 2534 1725 
Q 2256 1581 1919 1581 
Q 1219 1581 811 2004 
Q 403 2428 403 3163 
Q 403 3881 828 4315 
Q 1253 4750 1959 4750 
Q 2769 4750 3195 4129 
Q 3622 3509 3622 2328 
Q 3622 1225 3098 567 
Q 2575 -91 1691 -91 
Q 1453 -91 1209 -44 
Q 966 3 703 97 
z
M 1959 2075 
Q 2384 2075 2632 2365 
Q 2881 2656 2881 3163 
Q 2881 3666 2632 3958 
Q 2384 4250 1959 4250 
Q 1534 4250 1286 3958 
Q 1038 3666 1038 3163 
Q 1038 2656 1286 2365 
Q 1534 2075 1959 2075 
z
" transform="scale(0.015625)"/>
       </defs>
       <use xlink:href="#DejaVuSans-39"/>
      </g>
     </g>
    </g>
    <g id="xtick_11">
     <g id="line2d_11">
      <g>
       <use xlink:href="#m3cc1161d7a" x="239.092343" y="365.026" style="stroke: #000000; stroke-width: 0.8"/>
      </g>
     </g>
     <g id="text_11">
      <!-- 10 -->
      <g transform="translate(241.851718 384.751) rotate(-90) scale(0.1 -0.1)">
       <defs>
        <path id="DejaVuSans-30" d="M 2034 4250 
Q 1547 4250 1301 3770 
Q 1056 3291 1056 2328 
Q 1056 1369 1301 889 
Q 1547 409 2034 409 
Q 2525 409 2770 889 
Q 3016 1369 3016 2328 
Q 3016 3291 2770 3770 
Q 2525 4250 2034 4250 
z
M 2034 4750 
Q 2819 4750 3233 4129 
Q 3647 3509 3647 2328 
Q 3647 1150 3233 529 
Q 2819 -91 2034 -91 
Q 1250 -91 836 529 
Q 422 1150 422 2328 
Q 422 3509 836 4129 
Q 1250 4750 2034 4750 
z
" transform="scale(0.015625)"/>
       </defs>
       <use xlink:href="#DejaVuSans-31"/>
       <use xlink:href="#DejaVuSans-30" x="63.623047"/>
      </g>
     </g>
    </g>
    <g id="xtick_12">
     <g id="line2d_12">
      <g>
       <use xlink:href="#m3cc1161d7a" x="251.996748" y="365.026" style="stroke: #000000; stroke-width: 0.8"/>
      </g>
     </g>
     <g id="text_12">
      <!-- 11 -->
      <g transform="translate(254.756123 384.751) rotate(-90) scale(0.1 -0.1)">
       <use xlink:href="#DejaVuSans-31"/>
       <use xlink:href="#DejaVuSans-31" x="63.623047"/>
      </g>
     </g>
    </g>
    <g id="xtick_13">
     <g id="line2d_13">
      <g>
       <use xlink:href="#m3cc1161d7a" x="264.901154" y="365.026" style="stroke: #000000; stroke-width: 0.8"/>
      </g>
     </g>
     <g id="text_13">
      <!-- 12 -->
      <g transform="translate(267.660529 384.751) rotate(-90) scale(0.1 -0.1)">
       <use xlink:href="#DejaVuSans-31"/>
       <use xlink:href="#DejaVuSans-32" x="63.623047"/>
      </g>
     </g>
    </g>
    <g id="xtick_14">
     <g id="line2d_14">
      <g>
       <use xlink:href="#m3cc1161d7a" x="277.805559" y="365.026" style="stroke: #000000; stroke-width: 0.8"/>
      </g>
     </g>
     <g id="text_14">
      <!-- 13 -->
      <g transform="translate(280.564934 384.751) rotate(-90) scale(0.1 -0.1)">
       <use xlink:href="#DejaVuSans-31"/>
       <use xlink:href="#DejaVuSans-33" x="63.623047"/>
      </g>
     </g>
    </g>
    <g id="xtick_15">
     <g id="line2d_15">
      <g>
       <use xlink:href="#m3cc1161d7a" x="290.709965" y="365.026" style="stroke: #000000; stroke-width: 0.8"/>
      </g>
     </g>
     <g id="text_15">
      <!-- 14 -->
      <g transform="translate(293.46934 384.751) rotate(-90) scale(0.1 -0.1)">
       <use xlink:href="#DejaVuSans-31"/>
       <use xlink:href="#DejaVuSans-34" x="63.623047"/>
      </g>
     </g>
    </g>
    <g id="xtick_16">
     <g id="line2d_16">
      <g>
       <use xlink:href="#m3cc1161d7a" x="303.614371" y="365.026" style="stroke: #000000; stroke-width: 0.8"/>
      </g>
     </g>
     <g id="text_16">
      <!-- 15 -->
      <g transform="translate(306.373746 384.751) rotate(-90) scale(0.1 -0.1)">
       <use xlink:href="#DejaVuSans-31"/>
       <use xlink:href="#DejaVuSans-35" x="63.623047"/>
      </g>
     </g>
    </g>
    <g id="xtick_17">
     <g id="line2d_17">
      <g>
       <use xlink:href="#m3cc1161d7a" x="316.518776" y="365.026" style="stroke: #000000; stroke-width: 0.8"/>
      </g>
     </g>
     <g id="text_17">
      <!-- 16 -->
      <g transform="translate(319.278151 384.751) rotate(-90) scale(0.1 -0.1)">
       <use xlink:href="#DejaVuSans-31"/>
       <use xlink:href="#DejaVuSans-36" x="63.623047"/>
      </g>
     </g>
    </g>
    <g id="xtick_18">
     <g id="line2d_18">
      <g>
       <use xlink:href="#m3cc1161d7a" x="329.423182" y="365.026" style="stroke: #000000; stroke-width: 0.8"/>
      </g>
     </g>
     <g id="text_18">
      <!-- 17 -->
      <g transform="translate(332.182557 384.751) rotate(-90) scale(0.1 -0.1)">
       <use xlink:href="#DejaVuSans-31"/>
       <use xlink:href="#DejaVuSans-37" x="63.623047"/>
      </g>
     </g>
    </g>
    <g id="xtick_19">
     <g id="line2d_19">
      <g>
       <use xlink:href="#m3cc1161d7a" x="342.327587" y="365.026" style="stroke: #000000; stroke-width: 0.8"/>
      </g>
     </g>
     <g id="text_19">
      <!-- 18 -->
      <g transform="translate(345.086962 384.751) rotate(-90) scale(0.1 -0.1)">
       <use xlink:href="#DejaVuSans-31"/>
       <use xlink:href="#DejaVuSans-38" x="63.623047"/>
      </g>
     </g>
    </g>
    <g id="xtick_20">
     <g id="line2d_20">
      <g>
       <use xlink:href="#m3cc1161d7a" x="355.231993" y="365.026" style="stroke: #000000; stroke-width: 0.8"/>
      </g>
     </g>
     <g id="text_20">
      <!-- 19 -->
      <g transform="translate(357.991368 384.751) rotate(-90) scale(0.1 -0.1)">
       <use xlink:href="#DejaVuSans-31"/>
       <use xlink:href="#DejaVuSans-39" x="63.623047"/>
      </g>
     </g>
    </g>
    <g id="xtick_21">
     <g id="line2d_21">
      <g>
       <use xlink:href="#m3cc1161d7a" x="368.136399" y="365.026" style="stroke: #000000; stroke-width: 0.8"/>
      </g>
     </g>
     <g id="text_21">
      <!-- 20 -->
      <g transform="translate(370.895774 384.751) rotate(-90) scale(0.1 -0.1)">
       <use xlink:href="#DejaVuSans-32"/>
       <use xlink:href="#DejaVuSans-30" x="63.623047"/>
      </g>
     </g>
    </g>
    <g id="xtick_22">
     <g id="line2d_22">
      <g>
       <use xlink:href="#m3cc1161d7a" x="381.040804" y="365.026" style="stroke: #000000; stroke-width: 0.8"/>
      </g>
     </g>
     <g id="text_22">
      <!-- 21 -->
      <g transform="translate(383.800179 384.751) rotate(-90) scale(0.1 -0.1)">
       <use xlink:href="#DejaVuSans-32"/>
       <use xlink:href="#DejaVuSans-31" x="63.623047"/>
      </g>
     </g>
    </g>
    <g id="xtick_23">
     <g id="line2d_23">
      <g>
       <use xlink:href="#m3cc1161d7a" x="393.94521" y="365.026" style="stroke: #000000; stroke-width: 0.8"/>
      </g>
     </g>
     <g id="text_23">
      <!-- 22 -->
      <g transform="translate(396.704585 384.751) rotate(-90) scale(0.1 -0.1)">
       <use xlink:href="#DejaVuSans-32"/>
       <use xlink:href="#DejaVuSans-32" x="63.623047"/>
      </g>
     </g>
    </g>
    <g id="xtick_24">
     <g id="line2d_24">
      <g>
       <use xlink:href="#m3cc1161d7a" x="406.849615" y="365.026" style="stroke: #000000; stroke-width: 0.8"/>
      </g>
     </g>
     <g id="text_24">
      <!-- 23 -->
      <g transform="translate(409.60899 384.751) rotate(-90) scale(0.1 -0.1)">
       <use xlink:href="#DejaVuSans-32"/>
       <use xlink:href="#DejaVuSans-33" x="63.623047"/>
      </g>
     </g>
    </g>
    <g id="xtick_25">
     <g id="line2d_25">
      <g>
       <use xlink:href="#m3cc1161d7a" x="419.754021" y="365.026" style="stroke: #000000; stroke-width: 0.8"/>
      </g>
     </g>
     <g id="text_25">
      <!-- 24 -->
      <g transform="translate(422.513396 384.751) rotate(-90) scale(0.1 -0.1)">
       <use xlink:href="#DejaVuSans-32"/>
       <use xlink:href="#DejaVuSans-34" x="63.623047"/>
      </g>
     </g>
    </g>
    <g id="xtick_26">
     <g id="line2d_26">
      <g>
       <use xlink:href="#m3cc1161d7a" x="432.658427" y="365.026" style="stroke: #000000; stroke-width: 0.8"/>
      </g>
     </g>
     <g id="text_26">
      <!-- 25 -->
      <g transform="translate(435.417802 384.751) rotate(-90) scale(0.1 -0.1)">
       <use xlink:href="#DejaVuSans-32"/>
       <use xlink:href="#DejaVuSans-35" x="63.623047"/>
      </g>
     </g>
    </g>
    <g id="xtick_27">
     <g id="line2d_27">
      <g>
       <use xlink:href="#m3cc1161d7a" x="445.562832" y="365.026" style="stroke: #000000; stroke-width: 0.8"/>
      </g>
     </g>
     <g id="text_27">
      <!-- 26 -->
      <g transform="translate(448.322207 384.751) rotate(-90) scale(0.1 -0.1)">
       <use xlink:href="#DejaVuSans-32"/>
       <use xlink:href="#DejaVuSans-36" x="63.623047"/>
      </g>
     </g>
    </g>
    <g id="xtick_28">
     <g id="line2d_28">
      <g>
       <use xlink:href="#m3cc1161d7a" x="458.467238" y="365.026" style="stroke: #000000; stroke-width: 0.8"/>
      </g>
     </g>
     <g id="text_28">
      <!-- 27 -->
      <g transform="translate(461.226613 384.751) rotate(-90) scale(0.1 -0.1)">
       <use xlink:href="#DejaVuSans-32"/>
       <use xlink:href="#DejaVuSans-37" x="63.623047"/>
      </g>
     </g>
    </g>
    <g id="xtick_29">
     <g id="line2d_29">
      <g>
       <use xlink:href="#m3cc1161d7a" x="471.371643" y="365.026" style="stroke: #000000; stroke-width: 0.8"/>
      </g>
     </g>
     <g id="text_29">
      <!-- 28 -->
      <g transform="translate(474.131018 384.751) rotate(-90) scale(0.1 -0.1)">
       <use xlink:href="#DejaVuSans-32"/>
       <use xlink:href="#DejaVuSans-38" x="63.623047"/>
      </g>
     </g>
    </g>
    <g id="xtick_30">
     <g id="line2d_30">
      <g>
       <use xlink:href="#m3cc1161d7a" x="484.276049" y="365.026" style="stroke: #000000; stroke-width: 0.8"/>
      </g>
     </g>
     <g id="text_30">
      <!-- 29 -->
      <g transform="translate(487.035424 384.751) rotate(-90) scale(0.1 -0.1)">
       <use xlink:href="#DejaVuSans-32"/>
       <use xlink:href="#DejaVuSans-39" x="63.623047"/>
      </g>
     </g>
    </g>
    <g id="xtick_31">
     <g id="line2d_31">
      <g>
       <use xlink:href="#m3cc1161d7a" x="497.180454" y="365.026" style="stroke: #000000; stroke-width: 0.8"/>
      </g>
     </g>
     <g id="text_31">
      <!-- 30 -->
      <g transform="translate(499.939829 384.751) rotate(-90) scale(0.1 -0.1)">
       <use xlink:href="#DejaVuSans-33"/>
       <use xlink:href="#DejaVuSans-30" x="63.623047"/>
      </g>
     </g>
    </g>
    <g id="xtick_32">
     <g id="line2d_32">
      <g>
       <use xlink:href="#m3cc1161d7a" x="510.08486" y="365.026" style="stroke: #000000; stroke-width: 0.8"/>
      </g>
     </g>
     <g id="text_32">
      <!-- 31 -->
      <g transform="translate(512.844235 384.751) rotate(-90) scale(0.1 -0.1)">
       <use xlink:href="#DejaVuSans-33"/>
       <use xlink:href="#DejaVuSans-31" x="63.623047"/>
      </g>
     </g>
    </g>
    <g id="xtick_33">
     <g id="line2d_33">
      <g>
       <use xlink:href="#m3cc1161d7a" x="522.989266" y="365.026" style="stroke: #000000; stroke-width: 0.8"/>
      </g>
     </g>
     <g id="text_33">
      <!-- 32 -->
      <g transform="translate(525.748641 384.751) rotate(-90) scale(0.1 -0.1)">
       <use xlink:href="#DejaVuSans-33"/>
       <use xlink:href="#DejaVuSans-32" x="63.623047"/>
      </g>
     </g>
    </g>
    <g id="xtick_34">
     <g id="line2d_34">
      <g>
       <use xlink:href="#m3cc1161d7a" x="535.893671" y="365.026" style="stroke: #000000; stroke-width: 0.8"/>
      </g>
     </g>
     <g id="text_34">
      <!-- 33 -->
      <g transform="translate(538.653046 384.751) rotate(-90) scale(0.1 -0.1)">
       <use xlink:href="#DejaVuSans-33"/>
       <use xlink:href="#DejaVuSans-33" x="63.623047"/>
      </g>
     </g>
    </g>
    <g id="xtick_35">
     <g id="line2d_35">
      <g>
       <use xlink:href="#m3cc1161d7a" x="548.798077" y="365.026" style="stroke: #000000; stroke-width: 0.8"/>
      </g>
     </g>
     <g id="text_35">
      <!-- 34 -->
      <g transform="translate(551.557452 384.751) rotate(-90) scale(0.1 -0.1)">
       <use xlink:href="#DejaVuSans-33"/>
       <use xlink:href="#DejaVuSans-34" x="63.623047"/>
      </g>
     </g>
    </g>
    <g id="xtick_36">
     <g id="line2d_36">
      <g>
       <use xlink:href="#m3cc1161d7a" x="561.702482" y="365.026" style="stroke: #000000; stroke-width: 0.8"/>
      </g>
     </g>
     <g id="text_36">
      <!-- 35 -->
      <g transform="translate(564.461857 384.751) rotate(-90) scale(0.1 -0.1)">
       <use xlink:href="#DejaVuSans-33"/>
       <use xlink:href="#DejaVuSans-35" x="63.623047"/>
      </g>
     </g>
    </g>
    <g id="xtick_37">
     <g id="line2d_37">
      <g>
       <use xlink:href="#m3cc1161d7a" x="574.606888" y="365.026" style="stroke: #000000; stroke-width: 0.8"/>
      </g>
     </g>
     <g id="text_37">
      <!-- 36 -->
      <g transform="translate(577.366263 384.751) rotate(-90) scale(0.1 -0.1)">
       <use xlink:href="#DejaVuSans-33"/>
       <use xlink:href="#DejaVuSans-36" x="63.623047"/>
      </g>
     </g>
    </g>
    <g id="xtick_38">
     <g id="line2d_38">
      <g>
       <use xlink:href="#m3cc1161d7a" x="587.511294" y="365.026" style="stroke: #000000; stroke-width: 0.8"/>
      </g>
     </g>
     <g id="text_38">
      <!-- 37 -->
      <g transform="translate(590.270669 384.751) rotate(-90) scale(0.1 -0.1)">
       <use xlink:href="#DejaVuSans-33"/>
       <use xlink:href="#DejaVuSans-37" x="63.623047"/>
      </g>
     </g>
    </g>
    <g id="xtick_39">
     <g id="line2d_39">
      <g>
       <use xlink:href="#m3cc1161d7a" x="600.415699" y="365.026" style="stroke: #000000; stroke-width: 0.8"/>
      </g>
     </g>
     <g id="text_39">
      <!-- 38 -->
      <g transform="translate(603.175074 384.751) rotate(-90) scale(0.1 -0.1)">
       <use xlink:href="#DejaVuSans-33"/>
       <use xlink:href="#DejaVuSans-38" x="63.623047"/>
      </g>
     </g>
    </g>
    <g id="xtick_40">
     <g id="line2d_40">
      <g>
       <use xlink:href="#m3cc1161d7a" x="613.320105" y="365.026" style="stroke: #000000; stroke-width: 0.8"/>
      </g>
     </g>
     <g id="text_40">
      <!-- 39 -->
      <g transform="translate(616.07948 384.751) rotate(-90) scale(0.1 -0.1)">
       <use xlink:href="#DejaVuSans-33"/>
       <use xlink:href="#DejaVuSans-39" x="63.623047"/>
      </g>
     </g>
    </g>
    <g id="xtick_41">
     <g id="line2d_41">
      <g>
       <use xlink:href="#m3cc1161d7a" x="626.22451" y="365.026" style="stroke: #000000; stroke-width: 0.8"/>
      </g>
     </g>
     <g id="text_41">
      <!-- 40 -->
      <g transform="translate(628.983885 384.751) rotate(-90) scale(0.1 -0.1)">
       <use xlink:href="#DejaVuSans-34"/>
       <use xlink:href="#DejaVuSans-30" x="63.623047"/>
      </g>
     </g>
    </g>
    <g id="xtick_42">
     <g id="line2d_42">
      <g>
       <use xlink:href="#m3cc1161d7a" x="652.033322" y="365.026" style="stroke: #000000; stroke-width: 0.8"/>
      </g>
     </g>
     <g id="text_42">
      <!-- 42 -->
      <g transform="translate(654.792697 384.751) rotate(-90) scale(0.1 -0.1)">
       <use xlink:href="#DejaVuSans-34"/>
       <use xlink:href="#DejaVuSans-32" x="63.623047"/>
      </g>
     </g>
    </g>
    <g id="xtick_43">
     <g id="line2d_43">
      <g>
       <use xlink:href="#m3cc1161d7a" x="677.842133" y="365.026" style="stroke: #000000; stroke-width: 0.8"/>
      </g>
     </g>
     <g id="text_43">
      <!-- 44 -->
      <g transform="translate(680.601508 384.751) rotate(-90) scale(0.1 -0.1)">
       <use xlink:href="#DejaVuSans-34"/>
       <use xlink:href="#DejaVuSans-34" x="63.623047"/>
      </g>
     </g>
    </g>
    <g id="text_44">
     <!-- Input Length -->
     <g transform="translate(346.677188 406.9635) scale(0.1 -0.1)">
      <defs>
       <path id="DejaVuSans-49" d="M 628 4666 
L 1259 4666 
L 1259 0 
L 628 0 
L 628 4666 
z
" transform="scale(0.015625)"/>
       <path id="DejaVuSans-6e" d="M 3513 2113 
L 3513 0 
L 2938 0 
L 2938 2094 
Q 2938 2591 2744 2837 
Q 2550 3084 2163 3084 
Q 1697 3084 1428 2787 
Q 1159 2491 1159 1978 
L 1159 0 
L 581 0 
L 581 3500 
L 1159 3500 
L 1159 2956 
Q 1366 3272 1645 3428 
Q 1925 3584 2291 3584 
Q 2894 3584 3203 3211 
Q 3513 2838 3513 2113 
z
" transform="scale(0.015625)"/>
       <path id="DejaVuSans-70" d="M 1159 525 
L 1159 -1331 
L 581 -1331 
L 581 3500 
L 1159 3500 
L 1159 2969 
Q 1341 3281 1617 3432 
Q 1894 3584 2278 3584 
Q 2916 3584 3314 3078 
Q 3713 2572 3713 1747 
Q 3713 922 3314 415 
Q 2916 -91 2278 -91 
Q 1894 -91 1617 61 
Q 1341 213 1159 525 
z
M 3116 1747 
Q 3116 2381 2855 2742 
Q 2594 3103 2138 3103 
Q 1681 3103 1420 2742 
Q 1159 2381 1159 1747 
Q 1159 1113 1420 752 
Q 1681 391 2138 391 
Q 2594 391 2855 752 
Q 3116 1113 3116 1747 
z
" transform="scale(0.015625)"/>
       <path id="DejaVuSans-75" d="M 544 1381 
L 544 3500 
L 1119 3500 
L 1119 1403 
Q 1119 906 1312 657 
Q 1506 409 1894 409 
Q 2359 409 2629 706 
Q 2900 1003 2900 1516 
L 2900 3500 
L 3475 3500 
L 3475 0 
L 2900 0 
L 2900 538 
Q 2691 219 2414 64 
Q 2138 -91 1772 -91 
Q 1169 -91 856 284 
Q 544 659 544 1381 
z
M 1991 3584 
L 1991 3584 
z
" transform="scale(0.015625)"/>
       <path id="DejaVuSans-20" transform="scale(0.015625)"/>
       <path id="DejaVuSans-4c" d="M 628 4666 
L 1259 4666 
L 1259 531 
L 3531 531 
L 3531 0 
L 628 0 
L 628 4666 
z
" transform="scale(0.015625)"/>
      </defs>
      <use xlink:href="#DejaVuSans-49"/>
      <use xlink:href="#DejaVuSans-6e" x="29.492188"/>
      <use xlink:href="#DejaVuSans-70" x="92.871094"/>
      <use xlink:href="#DejaVuSans-75" x="156.347656"/>
      <use xlink:href="#DejaVuSans-74" x="219.726562"/>
      <use xlink:href="#DejaVuSans-20" x="258.935547"/>
      <use xlink:href="#DejaVuSans-4c" x="290.722656"/>
      <use xlink:href="#DejaVuSans-65" x="344.685547"/>
      <use xlink:href="#DejaVuSans-6e" x="406.208984"/>
      <use xlink:href="#DejaVuSans-67" x="469.587891"/>
      <use xlink:href="#DejaVuSans-74" x="533.064453"/>
      <use xlink:href="#DejaVuSans-68" x="572.273438"/>
     </g>
     <!-- (Bar width indicates relative number of samples) -->
     <g transform="translate(256.142031 418.161313) scale(0.1 -0.1)">
      <defs>
       <path id="DejaVuSans-28" d="M 1984 4856 
Q 1566 4138 1362 3434 
Q 1159 2731 1159 2009 
Q 1159 1288 1364 580 
Q 1569 -128 1984 -844 
L 1484 -844 
Q 1016 -109 783 600 
Q 550 1309 550 2009 
Q 550 2706 781 3412 
Q 1013 4119 1484 4856 
L 1984 4856 
z
" transform="scale(0.015625)"/>
       <path id="DejaVuSans-42" d="M 1259 2228 
L 1259 519 
L 2272 519 
Q 2781 519 3026 730 
Q 3272 941 3272 1375 
Q 3272 1813 3026 2020 
Q 2781 2228 2272 2228 
L 1259 2228 
z
M 1259 4147 
L 1259 2741 
L 2194 2741 
Q 2656 2741 2882 2914 
Q 3109 3088 3109 3444 
Q 3109 3797 2882 3972 
Q 2656 4147 2194 4147 
L 1259 4147 
z
M 628 4666 
L 2241 4666 
Q 2963 4666 3353 4366 
Q 3744 4066 3744 3513 
Q 3744 3084 3544 2831 
Q 3344 2578 2956 2516 
Q 3422 2416 3680 2098 
Q 3938 1781 3938 1306 
Q 3938 681 3513 340 
Q 3088 0 2303 0 
L 628 0 
L 628 4666 
z
" transform="scale(0.015625)"/>
       <path id="DejaVuSans-77" d="M 269 3500 
L 844 3500 
L 1563 769 
L 2278 3500 
L 2956 3500 
L 3675 769 
L 4391 3500 
L 4966 3500 
L 4050 0 
L 3372 0 
L 2619 2869 
L 1863 0 
L 1184 0 
L 269 3500 
z
" transform="scale(0.015625)"/>
       <path id="DejaVuSans-63" d="M 3122 3366 
L 3122 2828 
Q 2878 2963 2633 3030 
Q 2388 3097 2138 3097 
Q 1578 3097 1268 2742 
Q 959 2388 959 1747 
Q 959 1106 1268 751 
Q 1578 397 2138 397 
Q 2388 397 2633 464 
Q 2878 531 3122 666 
L 3122 134 
Q 2881 22 2623 -34 
Q 2366 -91 2075 -91 
Q 1284 -91 818 406 
Q 353 903 353 1747 
Q 353 2603 823 3093 
Q 1294 3584 2113 3584 
Q 2378 3584 2631 3529 
Q 2884 3475 3122 3366 
z
" transform="scale(0.015625)"/>
       <path id="DejaVuSans-73" d="M 2834 3397 
L 2834 2853 
Q 2591 2978 2328 3040 
Q 2066 3103 1784 3103 
Q 1356 3103 1142 2972 
Q 928 2841 928 2578 
Q 928 2378 1081 2264 
Q 1234 2150 1697 2047 
L 1894 2003 
Q 2506 1872 2764 1633 
Q 3022 1394 3022 966 
Q 3022 478 2636 193 
Q 2250 -91 1575 -91 
Q 1294 -91 989 -36 
Q 684 19 347 128 
L 347 722 
Q 666 556 975 473 
Q 1284 391 1588 391 
Q 1994 391 2212 530 
Q 2431 669 2431 922 
Q 2431 1156 2273 1281 
Q 2116 1406 1581 1522 
L 1381 1569 
Q 847 1681 609 1914 
Q 372 2147 372 2553 
Q 372 3047 722 3315 
Q 1072 3584 1716 3584 
Q 2034 3584 2315 3537 
Q 2597 3491 2834 3397 
z
" transform="scale(0.015625)"/>
       <path id="DejaVuSans-6c" d="M 603 4863 
L 1178 4863 
L 1178 0 
L 603 0 
L 603 4863 
z
" transform="scale(0.015625)"/>
       <path id="DejaVuSans-6d" d="M 3328 2828 
Q 3544 3216 3844 3400 
Q 4144 3584 4550 3584 
Q 5097 3584 5394 3201 
Q 5691 2819 5691 2113 
L 5691 0 
L 5113 0 
L 5113 2094 
Q 5113 2597 4934 2840 
Q 4756 3084 4391 3084 
Q 3944 3084 3684 2787 
Q 3425 2491 3425 1978 
L 3425 0 
L 2847 0 
L 2847 2094 
Q 2847 2600 2669 2842 
Q 2491 3084 2119 3084 
Q 1678 3084 1418 2786 
Q 1159 2488 1159 1978 
L 1159 0 
L 581 0 
L 581 3500 
L 1159 3500 
L 1159 2956 
Q 1356 3278 1631 3431 
Q 1906 3584 2284 3584 
Q 2666 3584 2933 3390 
Q 3200 3197 3328 2828 
z
" transform="scale(0.015625)"/>
       <path id="DejaVuSans-62" d="M 3116 1747 
Q 3116 2381 2855 2742 
Q 2594 3103 2138 3103 
Q 1681 3103 1420 2742 
Q 1159 2381 1159 1747 
Q 1159 1113 1420 752 
Q 1681 391 2138 391 
Q 2594 391 2855 752 
Q 3116 1113 3116 1747 
z
M 1159 2969 
Q 1341 3281 1617 3432 
Q 1894 3584 2278 3584 
Q 2916 3584 3314 3078 
Q 3713 2572 3713 1747 
Q 3713 922 3314 415 
Q 2916 -91 2278 -91 
Q 1894 -91 1617 61 
Q 1341 213 1159 525 
L 1159 0 
L 581 0 
L 581 4863 
L 1159 4863 
L 1159 2969 
z
" transform="scale(0.015625)"/>
       <path id="DejaVuSans-6f" d="M 1959 3097 
Q 1497 3097 1228 2736 
Q 959 2375 959 1747 
Q 959 1119 1226 758 
Q 1494 397 1959 397 
Q 2419 397 2687 759 
Q 2956 1122 2956 1747 
Q 2956 2369 2687 2733 
Q 2419 3097 1959 3097 
z
M 1959 3584 
Q 2709 3584 3137 3096 
Q 3566 2609 3566 1747 
Q 3566 888 3137 398 
Q 2709 -91 1959 -91 
Q 1206 -91 779 398 
Q 353 888 353 1747 
Q 353 2609 779 3096 
Q 1206 3584 1959 3584 
z
" transform="scale(0.015625)"/>
       <path id="DejaVuSans-66" d="M 2375 4863 
L 2375 4384 
L 1825 4384 
Q 1516 4384 1395 4259 
Q 1275 4134 1275 3809 
L 1275 3500 
L 2222 3500 
L 2222 3053 
L 1275 3053 
L 1275 0 
L 697 0 
L 697 3053 
L 147 3053 
L 147 3500 
L 697 3500 
L 697 3744 
Q 697 4328 969 4595 
Q 1241 4863 1831 4863 
L 2375 4863 
z
" transform="scale(0.015625)"/>
       <path id="DejaVuSans-29" d="M 513 4856 
L 1013 4856 
Q 1481 4119 1714 3412 
Q 1947 2706 1947 2009 
Q 1947 1309 1714 600 
Q 1481 -109 1013 -844 
L 513 -844 
Q 928 -128 1133 580 
Q 1338 1288 1338 2009 
Q 1338 2731 1133 3434 
Q 928 4138 513 4856 
z
" transform="scale(0.015625)"/>
      </defs>
      <use xlink:href="#DejaVuSans-28"/>
      <use xlink:href="#DejaVuSans-42" x="39.013672"/>
      <use xlink:href="#DejaVuSans-61" x="107.617188"/>
      <use xlink:href="#DejaVuSans-72" x="168.896484"/>
      <use xlink:href="#DejaVuSans-20" x="210.009766"/>
      <use xlink:href="#DejaVuSans-77" x="241.796875"/>
      <use xlink:href="#DejaVuSans-69" x="323.583984"/>
      <use xlink:href="#DejaVuSans-64" x="351.367188"/>
      <use xlink:href="#DejaVuSans-74" x="414.84375"/>
      <use xlink:href="#DejaVuSans-68" x="454.052734"/>
      <use xlink:href="#DejaVuSans-20" x="517.431641"/>
      <use xlink:href="#DejaVuSans-69" x="549.21875"/>
      <use xlink:href="#DejaVuSans-6e" x="577.001953"/>
      <use xlink:href="#DejaVuSans-64" x="640.380859"/>
      <use xlink:href="#DejaVuSans-69" x="703.857422"/>
      <use xlink:href="#DejaVuSans-63" x="731.640625"/>
      <use xlink:href="#DejaVuSans-61" x="786.621094"/>
      <use xlink:href="#DejaVuSans-74" x="847.900391"/>
      <use xlink:href="#DejaVuSans-65" x="887.109375"/>
      <use xlink:href="#DejaVuSans-73" x="948.632812"/>
      <use xlink:href="#DejaVuSans-20" x="1000.732422"/>
      <use xlink:href="#DejaVuSans-72" x="1032.519531"/>
      <use xlink:href="#DejaVuSans-65" x="1071.382812"/>
      <use xlink:href="#DejaVuSans-6c" x="1132.90625"/>
      <use xlink:href="#DejaVuSans-61" x="1160.689453"/>
      <use xlink:href="#DejaVuSans-74" x="1221.96875"/>
      <use xlink:href="#DejaVuSans-69" x="1261.177734"/>
      <use xlink:href="#DejaVuSans-76" x="1288.960938"/>
      <use xlink:href="#DejaVuSans-65" x="1348.140625"/>
      <use xlink:href="#DejaVuSans-20" x="1409.664062"/>
      <use xlink:href="#DejaVuSans-6e" x="1441.451172"/>
      <use xlink:href="#DejaVuSans-75" x="1504.830078"/>
      <use xlink:href="#DejaVuSans-6d" x="1568.208984"/>
      <use xlink:href="#DejaVuSans-62" x="1665.621094"/>
      <use xlink:href="#DejaVuSans-65" x="1729.097656"/>
      <use xlink:href="#DejaVuSans-72" x="1790.621094"/>
      <use xlink:href="#DejaVuSans-20" x="1831.734375"/>
      <use xlink:href="#DejaVuSans-6f" x="1863.521484"/>
      <use xlink:href="#DejaVuSans-66" x="1924.703125"/>
      <use xlink:href="#DejaVuSans-20" x="1959.908203"/>
      <use xlink:href="#DejaVuSans-73" x="1991.695312"/>
      <use xlink:href="#DejaVuSans-61" x="2043.794922"/>
      <use xlink:href="#DejaVuSans-6d" x="2105.074219"/>
      <use xlink:href="#DejaVuSans-70" x="2202.486328"/>
      <use xlink:href="#DejaVuSans-6c" x="2265.962891"/>
      <use xlink:href="#DejaVuSans-65" x="2293.746094"/>
      <use xlink:href="#DejaVuSans-73" x="2355.269531"/>
      <use xlink:href="#DejaVuSans-29" x="2407.369141"/>
     </g>
    </g>
   </g>
   <g id="matplotlib.axis_2">
    <g id="ytick_1">
     <g id="line2d_44">
      <defs>
       <path id="m0c9f4c9a55" d="M 0 0 
L -3.5 0 
" style="stroke: #000000; stroke-width: 0.8"/>
      </defs>
      <g>
       <use xlink:href="#m0c9f4c9a55" x="47.72" y="297.556313" style="stroke: #000000; stroke-width: 0.8"/>
      </g>
     </g>
     <g id="text_45">
      <!-- 0.2 -->
      <g transform="translate(24.816875 301.355532) scale(0.1 -0.1)">
       <defs>
        <path id="DejaVuSans-2e" d="M 684 794 
L 1344 794 
L 1344 0 
L 684 0 
L 684 794 
z
" transform="scale(0.015625)"/>
       </defs>
       <use xlink:href="#DejaVuSans-30"/>
       <use xlink:href="#DejaVuSans-2e" x="63.623047"/>
       <use xlink:href="#DejaVuSans-32" x="95.410156"/>
      </g>
     </g>
    </g>
    <g id="ytick_2">
     <g id="line2d_45">
      <g>
       <use xlink:href="#m0c9f4c9a55" x="47.72" y="230.084239" style="stroke: #000000; stroke-width: 0.8"/>
      </g>
     </g>
     <g id="text_46">
      <!-- 0.4 -->
      <g transform="translate(24.816875 233.883458) scale(0.1 -0.1)">
       <use xlink:href="#DejaVuSans-30"/>
       <use xlink:href="#DejaVuSans-2e" x="63.623047"/>
       <use xlink:href="#DejaVuSans-34" x="95.410156"/>
      </g>
     </g>
    </g>
    <g id="ytick_3">
     <g id="line2d_46">
      <g>
       <use xlink:href="#m0c9f4c9a55" x="47.72" y="162.612166" style="stroke: #000000; stroke-width: 0.8"/>
      </g>
     </g>
     <g id="text_47">
      <!-- 0.6 -->
      <g transform="translate(24.816875 166.411385) scale(0.1 -0.1)">
       <use xlink:href="#DejaVuSans-30"/>
       <use xlink:href="#DejaVuSans-2e" x="63.623047"/>
       <use xlink:href="#DejaVuSans-36" x="95.410156"/>
      </g>
     </g>
    </g>
    <g id="ytick_4">
     <g id="line2d_47">
      <g>
       <use xlink:href="#m0c9f4c9a55" x="47.72" y="95.140092" style="stroke: #000000; stroke-width: 0.8"/>
      </g>
     </g>
     <g id="text_48">
      <!-- 0.8 -->
      <g transform="translate(24.816875 98.939311) scale(0.1 -0.1)">
       <use xlink:href="#DejaVuSans-30"/>
       <use xlink:href="#DejaVuSans-2e" x="63.623047"/>
       <use xlink:href="#DejaVuSans-38" x="95.410156"/>
      </g>
     </g>
    </g>
    <g id="ytick_5">
     <g id="line2d_48">
      <g>
       <use xlink:href="#m0c9f4c9a55" x="47.72" y="27.668018" style="stroke: #000000; stroke-width: 0.8"/>
      </g>
     </g>
     <g id="text_49">
      <!-- 1.0 -->
      <g transform="translate(24.816875 31.467237) scale(0.1 -0.1)">
       <use xlink:href="#DejaVuSans-31"/>
       <use xlink:href="#DejaVuSans-2e" x="63.623047"/>
       <use xlink:href="#DejaVuSans-30" x="95.410156"/>
      </g>
     </g>
    </g>
    <g id="text_50">
     <!-- Ratio -->
     <g transform="translate(18.737188 200.747375) rotate(-90) scale(0.1 -0.1)">
      <defs>
       <path id="DejaVuSans-52" d="M 2841 2188 
Q 3044 2119 3236 1894 
Q 3428 1669 3622 1275 
L 4263 0 
L 3584 0 
L 2988 1197 
Q 2756 1666 2539 1819 
Q 2322 1972 1947 1972 
L 1259 1972 
L 1259 0 
L 628 0 
L 628 4666 
L 2053 4666 
Q 2853 4666 3247 4331 
Q 3641 3997 3641 3322 
Q 3641 2881 3436 2590 
Q 3231 2300 2841 2188 
z
M 1259 4147 
L 1259 2491 
L 2053 2491 
Q 2509 2491 2742 2702 
Q 2975 2913 2975 3322 
Q 2975 3731 2742 3939 
Q 2509 4147 2053 4147 
L 1259 4147 
z
" transform="scale(0.015625)"/>
      </defs>
      <use xlink:href="#DejaVuSans-52"/>
      <use xlink:href="#DejaVuSans-61" x="67.232422"/>
      <use xlink:href="#DejaVuSans-74" x="128.511719"/>
      <use xlink:href="#DejaVuSans-69" x="167.720703"/>
      <use xlink:href="#DejaVuSans-6f" x="195.503906"/>
     </g>
    </g>
   </g>
   <g id="patch_89">
    <path d="M 47.72 365.026 
L 47.72 10.8 
" style="fill: none; stroke: #000000; stroke-width: 0.8; stroke-linejoin: miter; stroke-linecap: square"/>
   </g>
   <g id="patch_90">
    <path d="M 709.2 365.026 
L 709.2 10.8 
" style="fill: none; stroke: #000000; stroke-width: 0.8; stroke-linejoin: miter; stroke-linecap: square"/>
   </g>
   <g id="patch_91">
    <path d="M 47.72 365.026 
L 709.2 365.026 
" style="fill: none; stroke: #000000; stroke-width: 0.8; stroke-linejoin: miter; stroke-linecap: square"/>
   </g>
   <g id="patch_92">
    <path d="M 47.72 10.8 
L 709.2 10.8 
" style="fill: none; stroke: #000000; stroke-width: 0.8; stroke-linejoin: miter; stroke-linecap: square"/>
   </g>
   <g id="legend_1">
    <g id="patch_93">
     <path d="M 626.00625 48.15625 
L 702.2 48.15625 
Q 704.2 48.15625 704.2 46.15625 
L 704.2 17.8 
Q 704.2 15.8 702.2 15.8 
L 626.00625 15.8 
Q 624.00625 15.8 624.00625 17.8 
L 624.00625 46.15625 
Q 624.00625 48.15625 626.00625 48.15625 
z
" style="fill: #ffffff; opacity: 0.8; stroke: #cccccc; stroke-linejoin: miter"/>
    </g>
    <g id="patch_94">
     <path d="M 628.00625 27.398438 
L 648.00625 27.398438 
L 648.00625 20.398438 
L 628.00625 20.398438 
z
" style="fill: #cc0000"/>
    </g>
    <g id="text_51">
     <!-- Unstable -->
     <g transform="translate(656.00625 27.398438) scale(0.1 -0.1)">
      <defs>
       <path id="DejaVuSans-55" d="M 556 4666 
L 1191 4666 
L 1191 1831 
Q 1191 1081 1462 751 
Q 1734 422 2344 422 
Q 2950 422 3222 751 
Q 3494 1081 3494 1831 
L 3494 4666 
L 4128 4666 
L 4128 1753 
Q 4128 841 3676 375 
Q 3225 -91 2344 -91 
Q 1459 -91 1007 375 
Q 556 841 556 1753 
L 556 4666 
z
" transform="scale(0.015625)"/>
      </defs>
      <use xlink:href="#DejaVuSans-55"/>
      <use xlink:href="#DejaVuSans-6e" x="73.193359"/>
      <use xlink:href="#DejaVuSans-73" x="136.572266"/>
      <use xlink:href="#DejaVuSans-74" x="188.671875"/>
      <use xlink:href="#DejaVuSans-61" x="227.880859"/>
      <use xlink:href="#DejaVuSans-62" x="289.160156"/>
      <use xlink:href="#DejaVuSans-6c" x="352.636719"/>
      <use xlink:href="#DejaVuSans-65" x="380.419922"/>
     </g>
    </g>
    <g id="patch_95">
     <path d="M 628.00625 42.076563 
L 648.00625 42.076563 
L 648.00625 35.076563 
L 628.00625 35.076563 
z
" style="fill: #cc6600"/>
    </g>
    <g id="text_52">
     <!-- Stable -->
     <g transform="translate(656.00625 42.076563) scale(0.1 -0.1)">
      <defs>
       <path id="DejaVuSans-53" d="M 3425 4513 
L 3425 3897 
Q 3066 4069 2747 4153 
Q 2428 4238 2131 4238 
Q 1616 4238 1336 4038 
Q 1056 3838 1056 3469 
Q 1056 3159 1242 3001 
Q 1428 2844 1947 2747 
L 2328 2669 
Q 3034 2534 3370 2195 
Q 3706 1856 3706 1288 
Q 3706 609 3251 259 
Q 2797 -91 1919 -91 
Q 1588 -91 1214 -16 
Q 841 59 441 206 
L 441 856 
Q 825 641 1194 531 
Q 1563 422 1919 422 
Q 2459 422 2753 634 
Q 3047 847 3047 1241 
Q 3047 1584 2836 1778 
Q 2625 1972 2144 2069 
L 1759 2144 
Q 1053 2284 737 2584 
Q 422 2884 422 3419 
Q 422 4038 858 4394 
Q 1294 4750 2059 4750 
Q 2388 4750 2728 4690 
Q 3069 4631 3425 4513 
z
" transform="scale(0.015625)"/>
      </defs>
      <use xlink:href="#DejaVuSans-53"/>
      <use xlink:href="#DejaVuSans-74" x="63.476562"/>
      <use xlink:href="#DejaVuSans-61" x="102.685547"/>
      <use xlink:href="#DejaVuSans-62" x="163.964844"/>
      <use xlink:href="#DejaVuSans-6c" x="227.441406"/>
      <use xlink:href="#DejaVuSans-65" x="255.224609"/>
     </g>
    </g>
   </g>
  </g>
 </g>
 <defs>
  <clipPath id="p30710d50f3">
   <rect x="47.72" y="10.8" width="661.48" height="354.226"/>
  </clipPath>
 </defs>
</svg>
