<?xml version="1.0" encoding="utf-8" standalone="no"?>
<!DOCTYPE svg PUBLIC "-//W3C//DTD SVG 1.1//EN"
  "http://www.w3.org/Graphics/SVG/1.1/DTD/svg11.dtd">
<svg xmlns:xlink="http://www.w3.org/1999/xlink" width="720pt" height="432pt" viewBox="0 0 720 432" xmlns="http://www.w3.org/2000/svg" version="1.1">
 <metadata>
  <rdf:RDF xmlns:dc="http://purl.org/dc/elements/1.1/" xmlns:cc="http://creativecommons.org/ns#" xmlns:rdf="http://www.w3.org/1999/02/22-rdf-syntax-ns#">
   <cc:Work>
    <dc:type rdf:resource="http://purl.org/dc/dcmitype/StillImage"/>
    <dc:date>2025-02-27T15:44:19.223577</dc:date>
    <dc:format>image/svg+xml</dc:format>
    <dc:creator>
     <cc:Agent>
      <dc:title>Matplotlib v3.10.0, https://matplotlib.org/</dc:title>
     </cc:Agent>
    </dc:creator>
   </cc:Work>
  </rdf:RDF>
 </metadata>
 <defs>
  <style type="text/css">*{stroke-linejoin: round; stroke-linecap: butt}</style>
 </defs>
 <g id="figure_1">
  <g id="patch_1">
   <path d="M 0 432 
L 720 432 
L 720 0 
L 0 0 
z
" style="fill: #ffffff"/>
  </g>
  <g id="axes_1">
   <g id="patch_2">
    <path d="M 60.635 365.161 
L 709.2 365.161 
L 709.2 14.76 
L 60.635 14.76 
z
" style="fill: #ffffff"/>
   </g>
   <g id="patch_3">
    <path d="M 64.722595 365.161 
L 78.34791 365.161 
L 78.34791 355.605833 
L 64.722595 355.605833 
z
" clip-path="url(#pd03dd8275d)" style="fill: #cc0000"/>
   </g>
   <g id="patch_4">
    <path d="M 107.680085 365.161 
L 117.14231 365.161 
L 117.14231 365.158591 
L 107.680085 365.158591 
z
" clip-path="url(#pd03dd8275d)" style="fill: #cc0000"/>
   </g>
   <g id="patch_5">
    <path d="M 120.632593 365.161 
L 131.440432 365.161 
L 131.440432 365.160852 
L 120.632593 365.160852 
z
" clip-path="url(#pd03dd8275d)" style="fill: #cc0000"/>
   </g>
   <g id="patch_6">
    <path d="M 133.572781 365.161 
L 145.750874 365.161 
L 145.750874 365.160138 
L 133.572781 365.160138 
z
" clip-path="url(#pd03dd8275d)" style="fill: #cc0000"/>
   </g>
   <g id="patch_7">
    <path d="M 146.845315 365.161 
L 159.728971 365.161 
L 159.728971 365.153431 
L 146.845315 365.153431 
z
" clip-path="url(#pd03dd8275d)" style="fill: #cc0000"/>
   </g>
   <g id="patch_8">
    <path d="M 160.066685 365.161 
L 173.758231 365.161 
L 173.758231 364.790923 
L 160.066685 364.790923 
z
" clip-path="url(#pd03dd8275d)" style="fill: #cc0000"/>
   </g>
   <g id="patch_9">
    <path d="M 173.627792 365.161 
L 187.447754 365.161 
L 187.447754 359.791771 
L 173.627792 359.791771 
z
" clip-path="url(#pd03dd8275d)" style="fill: #cc0000"/>
   </g>
   <g id="patch_10">
    <path d="M 188.289276 365.161 
L 200.0369 365.161 
L 200.0369 350.195301 
L 188.289276 350.195301 
z
" clip-path="url(#pd03dd8275d)" style="fill: #cc0000"/>
   </g>
   <g id="patch_11">
    <path d="M 202.539859 365.161 
L 213.036948 365.161 
L 213.036948 345.866118 
L 202.539859 345.866118 
z
" clip-path="url(#pd03dd8275d)" style="fill: #cc0000"/>
   </g>
   <g id="patch_12">
    <path d="M 216.679997 365.161 
L 226.14744 365.161 
L 226.14744 340.909837 
L 216.679997 340.909837 
z
" clip-path="url(#pd03dd8275d)" style="fill: #cc0000"/>
   </g>
   <g id="patch_13">
    <path d="M 230.663312 365.161 
L 239.414755 365.161 
L 239.414755 343.70813 
L 230.663312 343.70813 
z
" clip-path="url(#pd03dd8275d)" style="fill: #cc0000"/>
   </g>
   <g id="patch_14">
    <path d="M 244.734604 365.161 
L 252.594093 365.161 
L 252.594093 343.877611 
L 244.734604 343.877611 
z
" clip-path="url(#pd03dd8275d)" style="fill: #cc0000"/>
   </g>
   <g id="patch_15">
    <path d="M 258.796911 365.161 
L 265.782417 365.161 
L 265.782417 341.917826 
L 258.796911 341.917826 
z
" clip-path="url(#pd03dd8275d)" style="fill: #cc0000"/>
   </g>
   <g id="patch_16">
    <path d="M 272.660651 365.161 
L 279.169307 365.161 
L 279.169307 342.929277 
L 272.660651 342.929277 
z
" clip-path="url(#pd03dd8275d)" style="fill: #cc0000"/>
   </g>
   <g id="patch_17">
    <path d="M 286.471923 365.161 
L 292.608666 365.161 
L 292.608666 344.678878 
L 286.471923 344.678878 
z
" clip-path="url(#pd03dd8275d)" style="fill: #cc0000"/>
   </g>
   <g id="patch_18">
    <path d="M 300.324357 365.161 
L 306.006861 365.161 
L 306.006861 347.15531 
L 300.324357 347.15531 
z
" clip-path="url(#pd03dd8275d)" style="fill: #cc0000"/>
   </g>
   <g id="patch_19">
    <path d="M 314.142731 365.161 
L 319.439118 365.161 
L 319.439118 348.779697 
L 314.142731 348.779697 
z
" clip-path="url(#pd03dd8275d)" style="fill: #cc0000"/>
   </g>
   <g id="patch_20">
    <path d="M 327.872982 365.161 
L 332.959497 365.161 
L 332.959497 350.799481 
L 327.872982 350.799481 
z
" clip-path="url(#pd03dd8275d)" style="fill: #cc0000"/>
   </g>
   <g id="patch_21">
    <path d="M 341.636569 365.161 
L 346.44654 365.161 
L 346.44654 349.238052 
L 341.636569 349.238052 
z
" clip-path="url(#pd03dd8275d)" style="fill: #cc0000"/>
   </g>
   <g id="patch_22">
    <path d="M 355.373922 365.161 
L 359.959817 365.161 
L 359.959817 351.157744 
L 355.373922 351.157744 
z
" clip-path="url(#pd03dd8275d)" style="fill: #cc0000"/>
   </g>
   <g id="patch_23">
    <path d="M 369.061416 365.161 
L 373.522954 365.161 
L 373.522954 350.295258 
L 369.061416 350.295258 
z
" clip-path="url(#pd03dd8275d)" style="fill: #cc0000"/>
   </g>
   <g id="patch_24">
    <path d="M 382.746881 365.161 
L 387.088119 365.161 
L 387.088119 350.592932 
L 382.746881 350.592932 
z
" clip-path="url(#pd03dd8275d)" style="fill: #cc0000"/>
   </g>
   <g id="patch_25">
    <path d="M 396.395966 365.161 
L 400.689664 365.161 
L 400.689664 352.709576 
L 396.395966 352.709576 
z
" clip-path="url(#pd03dd8275d)" style="fill: #cc0000"/>
   </g>
   <g id="patch_26">
    <path d="M 410.049834 365.161 
L 414.286426 365.161 
L 414.286426 355.270623 
L 410.049834 355.270623 
z
" clip-path="url(#pd03dd8275d)" style="fill: #cc0000"/>
   </g>
   <g id="patch_27">
    <path d="M 423.692107 365.161 
L 427.894783 365.161 
L 427.894783 354.284787 
L 423.692107 354.284787 
z
" clip-path="url(#pd03dd8275d)" style="fill: #cc0000"/>
   </g>
   <g id="patch_28">
    <path d="M 437.329162 365.161 
L 441.508359 365.161 
L 441.508359 354.796489 
L 437.329162 354.796489 
z
" clip-path="url(#pd03dd8275d)" style="fill: #cc0000"/>
   </g>
   <g id="patch_29">
    <path d="M 450.963174 365.161 
L 455.124977 365.161 
L 455.124977 357.8671 
L 450.963174 357.8671 
z
" clip-path="url(#pd03dd8275d)" style="fill: #cc0000"/>
   </g>
   <g id="patch_30">
    <path d="M 464.604143 365.161 
L 468.734639 365.161 
L 468.734639 356.312577 
L 464.604143 356.312577 
z
" clip-path="url(#pd03dd8275d)" style="fill: #cc0000"/>
   </g>
   <g id="patch_31">
    <path d="M 478.233371 365.161 
L 482.356041 365.161 
L 482.356041 351.089584 
L 478.233371 351.089584 
z
" clip-path="url(#pd03dd8275d)" style="fill: #cc0000"/>
   </g>
   <g id="patch_32">
    <path d="M 491.863759 365.161 
L 495.976283 365.161 
L 495.976283 352.868115 
L 491.863759 352.868115 
z
" clip-path="url(#pd03dd8275d)" style="fill: #cc0000"/>
   </g>
   <g id="patch_33">
    <path d="M 505.495451 365.161 
L 509.595221 365.161 
L 509.595221 356.069246 
L 505.495451 356.069246 
z
" clip-path="url(#pd03dd8275d)" style="fill: #cc0000"/>
   </g>
   <g id="patch_34">
    <path d="M 519.121636 365.161 
L 523.219666 365.161 
L 523.219666 356.569936 
L 519.121636 356.569936 
z
" clip-path="url(#pd03dd8275d)" style="fill: #cc0000"/>
   </g>
   <g id="patch_35">
    <path d="M 532.745212 365.161 
L 536.846721 365.161 
L 536.846721 361.067966 
L 532.745212 361.067966 
z
" clip-path="url(#pd03dd8275d)" style="fill: #cc0000"/>
   </g>
   <g id="patch_36">
    <path d="M 546.373861 365.161 
L 550.468702 365.161 
L 550.468702 351.720684 
L 546.373861 351.720684 
z
" clip-path="url(#pd03dd8275d)" style="fill: #cc0000"/>
   </g>
   <g id="patch_37">
    <path d="M 559.999901 365.161 
L 564.093293 365.161 
L 564.093293 350.643629 
L 559.999901 350.643629 
z
" clip-path="url(#pd03dd8275d)" style="fill: #cc0000"/>
   </g>
   <g id="patch_38">
    <path d="M 573.626665 365.161 
L 577.717158 365.161 
L 577.717158 354.541676 
L 573.626665 354.541676 
z
" clip-path="url(#pd03dd8275d)" style="fill: #cc0000"/>
   </g>
   <g id="patch_39">
    <path d="M 587.252995 365.161 
L 591.341459 365.161 
L 591.341459 334.76582 
L 587.252995 334.76582 
z
" clip-path="url(#pd03dd8275d)" style="fill: #cc0000"/>
   </g>
   <g id="patch_40">
    <path d="M 600.877875 365.161 
L 604.967209 365.161 
L 604.967209 350.828906 
L 600.877875 350.828906 
z
" clip-path="url(#pd03dd8275d)" style="fill: #cc0000"/>
   </g>
   <g id="patch_41">
    <path d="M 614.50319 365.161 
L 618.592524 365.161 
L 618.592524 362.03242 
L 614.50319 362.03242 
z
" clip-path="url(#pd03dd8275d)" style="fill: #cc0000"/>
   </g>
   <g id="patch_42">
    <path d="M 628.128795 365.161 
L 632.217549 365.161 
L 632.217549 364.302174 
L 628.128795 364.302174 
z
" clip-path="url(#pd03dd8275d)" style="fill: #cc0000"/>
   </g>
   <g id="patch_43">
    <path d="M 641.75411 365.161 
L 645.842864 365.161 
L 645.842864 363.443348 
L 641.75411 363.443348 
z
" clip-path="url(#pd03dd8275d)" style="fill: #cc0000"/>
   </g>
   <g id="patch_44">
    <path d="M 669.005031 365.161 
L 673.093205 365.161 
L 673.093205 365.161 
L 669.005031 365.161 
z
" clip-path="url(#pd03dd8275d)" style="fill: #cc0000"/>
   </g>
   <g id="patch_45">
    <path d="M 696.255806 365.161 
L 700.34369 365.161 
L 700.34369 358.357097 
L 696.255806 358.357097 
z
" clip-path="url(#pd03dd8275d)" style="fill: #cc0000"/>
   </g>
   <g id="patch_46">
    <path d="M 64.722595 355.605833 
L 78.34791 355.605833 
L 78.34791 14.76 
L 64.722595 14.76 
z
" clip-path="url(#pd03dd8275d)" style="fill: #006600"/>
   </g>
   <g id="patch_47">
    <path d="M 107.680085 365.158591 
L 117.14231 365.158591 
L 117.14231 14.76 
L 107.680085 14.76 
z
" clip-path="url(#pd03dd8275d)" style="fill: #006600"/>
   </g>
   <g id="patch_48">
    <path d="M 120.632593 365.160852 
L 131.440432 365.160852 
L 131.440432 14.76 
L 120.632593 14.76 
z
" clip-path="url(#pd03dd8275d)" style="fill: #006600"/>
   </g>
   <g id="patch_49">
    <path d="M 133.572781 365.160138 
L 145.750874 365.160138 
L 145.750874 14.76 
L 133.572781 14.76 
z
" clip-path="url(#pd03dd8275d)" style="fill: #006600"/>
   </g>
   <g id="patch_50">
    <path d="M 146.845315 365.153431 
L 159.728971 365.153431 
L 159.728971 14.76 
L 146.845315 14.76 
z
" clip-path="url(#pd03dd8275d)" style="fill: #006600"/>
   </g>
   <g id="patch_51">
    <path d="M 160.066685 364.790923 
L 173.758231 364.790923 
L 173.758231 14.76 
L 160.066685 14.76 
z
" clip-path="url(#pd03dd8275d)" style="fill: #006600"/>
   </g>
   <g id="patch_52">
    <path d="M 173.627792 359.791771 
L 187.447754 359.791771 
L 187.447754 14.76 
L 173.627792 14.76 
z
" clip-path="url(#pd03dd8275d)" style="fill: #006600"/>
   </g>
   <g id="patch_53">
    <path d="M 188.289276 350.195301 
L 200.0369 350.195301 
L 200.0369 14.76 
L 188.289276 14.76 
z
" clip-path="url(#pd03dd8275d)" style="fill: #006600"/>
   </g>
   <g id="patch_54">
    <path d="M 202.539859 345.866118 
L 213.036948 345.866118 
L 213.036948 14.76 
L 202.539859 14.76 
z
" clip-path="url(#pd03dd8275d)" style="fill: #006600"/>
   </g>
   <g id="patch_55">
    <path d="M 216.679997 340.909837 
L 226.14744 340.909837 
L 226.14744 14.76 
L 216.679997 14.76 
z
" clip-path="url(#pd03dd8275d)" style="fill: #006600"/>
   </g>
   <g id="patch_56">
    <path d="M 230.663312 343.70813 
L 239.414755 343.70813 
L 239.414755 14.76 
L 230.663312 14.76 
z
" clip-path="url(#pd03dd8275d)" style="fill: #006600"/>
   </g>
   <g id="patch_57">
    <path d="M 244.734604 343.877611 
L 252.594093 343.877611 
L 252.594093 14.76 
L 244.734604 14.76 
z
" clip-path="url(#pd03dd8275d)" style="fill: #006600"/>
   </g>
   <g id="patch_58">
    <path d="M 258.796911 341.917826 
L 265.782417 341.917826 
L 265.782417 14.76 
L 258.796911 14.76 
z
" clip-path="url(#pd03dd8275d)" style="fill: #006600"/>
   </g>
   <g id="patch_59">
    <path d="M 272.660651 342.929277 
L 279.169307 342.929277 
L 279.169307 14.76 
L 272.660651 14.76 
z
" clip-path="url(#pd03dd8275d)" style="fill: #006600"/>
   </g>
   <g id="patch_60">
    <path d="M 286.471923 344.678878 
L 292.608666 344.678878 
L 292.608666 14.76 
L 286.471923 14.76 
z
" clip-path="url(#pd03dd8275d)" style="fill: #006600"/>
   </g>
   <g id="patch_61">
    <path d="M 300.324357 347.15531 
L 306.006861 347.15531 
L 306.006861 14.76 
L 300.324357 14.76 
z
" clip-path="url(#pd03dd8275d)" style="fill: #006600"/>
   </g>
   <g id="patch_62">
    <path d="M 314.142731 348.779697 
L 319.439118 348.779697 
L 319.439118 14.76 
L 314.142731 14.76 
z
" clip-path="url(#pd03dd8275d)" style="fill: #006600"/>
   </g>
   <g id="patch_63">
    <path d="M 327.872982 350.799481 
L 332.959497 350.799481 
L 332.959497 14.76 
L 327.872982 14.76 
z
" clip-path="url(#pd03dd8275d)" style="fill: #006600"/>
   </g>
   <g id="patch_64">
    <path d="M 341.636569 349.238052 
L 346.44654 349.238052 
L 346.44654 14.76 
L 341.636569 14.76 
z
" clip-path="url(#pd03dd8275d)" style="fill: #006600"/>
   </g>
   <g id="patch_65">
    <path d="M 355.373922 351.157744 
L 359.959817 351.157744 
L 359.959817 14.76 
L 355.373922 14.76 
z
" clip-path="url(#pd03dd8275d)" style="fill: #006600"/>
   </g>
   <g id="patch_66">
    <path d="M 369.061416 350.295258 
L 373.522954 350.295258 
L 373.522954 14.76 
L 369.061416 14.76 
z
" clip-path="url(#pd03dd8275d)" style="fill: #006600"/>
   </g>
   <g id="patch_67">
    <path d="M 382.746881 350.592932 
L 387.088119 350.592932 
L 387.088119 14.76 
L 382.746881 14.76 
z
" clip-path="url(#pd03dd8275d)" style="fill: #006600"/>
   </g>
   <g id="patch_68">
    <path d="M 396.395966 352.709576 
L 400.689664 352.709576 
L 400.689664 14.76 
L 396.395966 14.76 
z
" clip-path="url(#pd03dd8275d)" style="fill: #006600"/>
   </g>
   <g id="patch_69">
    <path d="M 410.049834 355.270623 
L 414.286426 355.270623 
L 414.286426 14.76 
L 410.049834 14.76 
z
" clip-path="url(#pd03dd8275d)" style="fill: #006600"/>
   </g>
   <g id="patch_70">
    <path d="M 423.692107 354.284787 
L 427.894783 354.284787 
L 427.894783 14.76 
L 423.692107 14.76 
z
" clip-path="url(#pd03dd8275d)" style="fill: #006600"/>
   </g>
   <g id="patch_71">
    <path d="M 437.329162 354.796489 
L 441.508359 354.796489 
L 441.508359 14.76 
L 437.329162 14.76 
z
" clip-path="url(#pd03dd8275d)" style="fill: #006600"/>
   </g>
   <g id="patch_72">
    <path d="M 450.963174 357.8671 
L 455.124977 357.8671 
L 455.124977 14.76 
L 450.963174 14.76 
z
" clip-path="url(#pd03dd8275d)" style="fill: #006600"/>
   </g>
   <g id="patch_73">
    <path d="M 464.604143 356.312577 
L 468.734639 356.312577 
L 468.734639 14.76 
L 464.604143 14.76 
z
" clip-path="url(#pd03dd8275d)" style="fill: #006600"/>
   </g>
   <g id="patch_74">
    <path d="M 478.233371 351.089584 
L 482.356041 351.089584 
L 482.356041 14.76 
L 478.233371 14.76 
z
" clip-path="url(#pd03dd8275d)" style="fill: #006600"/>
   </g>
   <g id="patch_75">
    <path d="M 491.863759 352.868115 
L 495.976283 352.868115 
L 495.976283 14.76 
L 491.863759 14.76 
z
" clip-path="url(#pd03dd8275d)" style="fill: #006600"/>
   </g>
   <g id="patch_76">
    <path d="M 505.495451 356.069246 
L 509.595221 356.069246 
L 509.595221 14.76 
L 505.495451 14.76 
z
" clip-path="url(#pd03dd8275d)" style="fill: #006600"/>
   </g>
   <g id="patch_77">
    <path d="M 519.121636 356.569936 
L 523.219666 356.569936 
L 523.219666 14.76 
L 519.121636 14.76 
z
" clip-path="url(#pd03dd8275d)" style="fill: #006600"/>
   </g>
   <g id="patch_78">
    <path d="M 532.745212 361.067966 
L 536.846721 361.067966 
L 536.846721 14.76 
L 532.745212 14.76 
z
" clip-path="url(#pd03dd8275d)" style="fill: #006600"/>
   </g>
   <g id="patch_79">
    <path d="M 546.373861 351.720684 
L 550.468702 351.720684 
L 550.468702 14.76 
L 546.373861 14.76 
z
" clip-path="url(#pd03dd8275d)" style="fill: #006600"/>
   </g>
   <g id="patch_80">
    <path d="M 559.999901 350.643629 
L 564.093293 350.643629 
L 564.093293 14.76 
L 559.999901 14.76 
z
" clip-path="url(#pd03dd8275d)" style="fill: #006600"/>
   </g>
   <g id="patch_81">
    <path d="M 573.626665 354.541676 
L 577.717158 354.541676 
L 577.717158 14.76 
L 573.626665 14.76 
z
" clip-path="url(#pd03dd8275d)" style="fill: #006600"/>
   </g>
   <g id="patch_82">
    <path d="M 587.252995 334.76582 
L 591.341459 334.76582 
L 591.341459 14.76 
L 587.252995 14.76 
z
" clip-path="url(#pd03dd8275d)" style="fill: #006600"/>
   </g>
   <g id="patch_83">
    <path d="M 600.877875 350.828906 
L 604.967209 350.828906 
L 604.967209 14.76 
L 600.877875 14.76 
z
" clip-path="url(#pd03dd8275d)" style="fill: #006600"/>
   </g>
   <g id="patch_84">
    <path d="M 614.50319 362.03242 
L 618.592524 362.03242 
L 618.592524 14.76 
L 614.50319 14.76 
z
" clip-path="url(#pd03dd8275d)" style="fill: #006600"/>
   </g>
   <g id="patch_85">
    <path d="M 628.128795 364.302174 
L 632.217549 364.302174 
L 632.217549 14.76 
L 628.128795 14.76 
z
" clip-path="url(#pd03dd8275d)" style="fill: #006600"/>
   </g>
   <g id="patch_86">
    <path d="M 641.75411 363.443348 
L 645.842864 363.443348 
L 645.842864 14.76 
L 641.75411 14.76 
z
" clip-path="url(#pd03dd8275d)" style="fill: #006600"/>
   </g>
   <g id="patch_87">
    <path d="M 669.005031 365.161 
L 673.093205 365.161 
L 673.093205 14.76 
L 669.005031 14.76 
z
" clip-path="url(#pd03dd8275d)" style="fill: #006600"/>
   </g>
   <g id="patch_88">
    <path d="M 696.255806 358.357097 
L 700.34369 358.357097 
L 700.34369 14.76 
L 696.255806 14.76 
z
" clip-path="url(#pd03dd8275d)" style="fill: #006600"/>
   </g>
   <g id="matplotlib.axis_1">
    <g id="xtick_1">
     <g id="line2d_1">
      <defs>
       <path id="m2b03ac70b6" d="M 0 0 
L 0 3.5 
" style="stroke: #000000; stroke-width: 0.8"/>
      </defs>
      <g>
       <use xlink:href="#m2b03ac70b6" x="71.535252" y="365.161" style="stroke: #000000; stroke-width: 0.8"/>
      </g>
     </g>
     <g id="text_1">
      <!-- Weighted -->
      <g transform="translate(68.695721 419.500063) rotate(-90) scale(0.1 -0.1)">
       <defs>
        <path id="DejaVuSans-57" d="M 213 4666 
L 850 4666 
L 1831 722 
L 2809 4666 
L 3519 4666 
L 4500 722 
L 5478 4666 
L 6119 4666 
L 4947 0 
L 4153 0 
L 3169 4050 
L 2175 0 
L 1381 0 
L 213 4666 
z
" transform="scale(0.015625)"/>
        <path id="DejaVuSans-65" d="M 3597 1894 
L 3597 1613 
L 953 1613 
Q 991 1019 1311 708 
Q 1631 397 2203 397 
Q 2534 397 2845 478 
Q 3156 559 3463 722 
L 3463 178 
Q 3153 47 2828 -22 
Q 2503 -91 2169 -91 
Q 1331 -91 842 396 
Q 353 884 353 1716 
Q 353 2575 817 3079 
Q 1281 3584 2069 3584 
Q 2775 3584 3186 3129 
Q 3597 2675 3597 1894 
z
M 3022 2063 
Q 3016 2534 2758 2815 
Q 2500 3097 2075 3097 
Q 1594 3097 1305 2825 
Q 1016 2553 972 2059 
L 3022 2063 
z
" transform="scale(0.015625)"/>
        <path id="DejaVuSans-69" d="M 603 3500 
L 1178 3500 
L 1178 0 
L 603 0 
L 603 3500 
z
M 603 4863 
L 1178 4863 
L 1178 4134 
L 603 4134 
L 603 4863 
z
" transform="scale(0.015625)"/>
        <path id="DejaVuSans-67" d="M 2906 1791 
Q 2906 2416 2648 2759 
Q 2391 3103 1925 3103 
Q 1463 3103 1205 2759 
Q 947 2416 947 1791 
Q 947 1169 1205 825 
Q 1463 481 1925 481 
Q 2391 481 2648 825 
Q 2906 1169 2906 1791 
z
M 3481 434 
Q 3481 -459 3084 -895 
Q 2688 -1331 1869 -1331 
Q 1566 -1331 1297 -1286 
Q 1028 -1241 775 -1147 
L 775 -588 
Q 1028 -725 1275 -790 
Q 1522 -856 1778 -856 
Q 2344 -856 2625 -561 
Q 2906 -266 2906 331 
L 2906 616 
Q 2728 306 2450 153 
Q 2172 0 1784 0 
Q 1141 0 747 490 
Q 353 981 353 1791 
Q 353 2603 747 3093 
Q 1141 3584 1784 3584 
Q 2172 3584 2450 3431 
Q 2728 3278 2906 2969 
L 2906 3500 
L 3481 3500 
L 3481 434 
z
" transform="scale(0.015625)"/>
        <path id="DejaVuSans-68" d="M 3513 2113 
L 3513 0 
L 2938 0 
L 2938 2094 
Q 2938 2591 2744 2837 
Q 2550 3084 2163 3084 
Q 1697 3084 1428 2787 
Q 1159 2491 1159 1978 
L 1159 0 
L 581 0 
L 581 4863 
L 1159 4863 
L 1159 2956 
Q 1366 3272 1645 3428 
Q 1925 3584 2291 3584 
Q 2894 3584 3203 3211 
Q 3513 2838 3513 2113 
z
" transform="scale(0.015625)"/>
        <path id="DejaVuSans-74" d="M 1172 4494 
L 1172 3500 
L 2356 3500 
L 2356 3053 
L 1172 3053 
L 1172 1153 
Q 1172 725 1289 603 
Q 1406 481 1766 481 
L 2356 481 
L 2356 0 
L 1766 0 
Q 1100 0 847 248 
Q 594 497 594 1153 
L 594 3053 
L 172 3053 
L 172 3500 
L 594 3500 
L 594 4494 
L 1172 4494 
z
" transform="scale(0.015625)"/>
        <path id="DejaVuSans-64" d="M 2906 2969 
L 2906 4863 
L 3481 4863 
L 3481 0 
L 2906 0 
L 2906 525 
Q 2725 213 2448 61 
Q 2172 -91 1784 -91 
Q 1150 -91 751 415 
Q 353 922 353 1747 
Q 353 2572 751 3078 
Q 1150 3584 1784 3584 
Q 2172 3584 2448 3432 
Q 2725 3281 2906 2969 
z
M 947 1747 
Q 947 1113 1208 752 
Q 1469 391 1925 391 
Q 2381 391 2643 752 
Q 2906 1113 2906 1747 
Q 2906 2381 2643 2742 
Q 2381 3103 1925 3103 
Q 1469 3103 1208 2742 
Q 947 2381 947 1747 
z
" transform="scale(0.015625)"/>
       </defs>
       <use xlink:href="#DejaVuSans-57"/>
       <use xlink:href="#DejaVuSans-65" transform="translate(93.001953 0)"/>
       <use xlink:href="#DejaVuSans-69" transform="translate(154.525391 0)"/>
       <use xlink:href="#DejaVuSans-67" transform="translate(182.308594 0)"/>
       <use xlink:href="#DejaVuSans-68" transform="translate(245.785156 0)"/>
       <use xlink:href="#DejaVuSans-74" transform="translate(309.164062 0)"/>
       <use xlink:href="#DejaVuSans-65" transform="translate(348.373047 0)"/>
       <use xlink:href="#DejaVuSans-64" transform="translate(409.896484 0)"/>
      </g>
      <!-- Average -->
      <g transform="translate(79.893533 416.363344) rotate(-90) scale(0.1 -0.1)">
       <defs>
        <path id="DejaVuSans-41" d="M 2188 4044 
L 1331 1722 
L 3047 1722 
L 2188 4044 
z
M 1831 4666 
L 2547 4666 
L 4325 0 
L 3669 0 
L 3244 1197 
L 1141 1197 
L 716 0 
L 50 0 
L 1831 4666 
z
" transform="scale(0.015625)"/>
        <path id="DejaVuSans-76" d="M 191 3500 
L 800 3500 
L 1894 563 
L 2988 3500 
L 3597 3500 
L 2284 0 
L 1503 0 
L 191 3500 
z
" transform="scale(0.015625)"/>
        <path id="DejaVuSans-72" d="M 2631 2963 
Q 2534 3019 2420 3045 
Q 2306 3072 2169 3072 
Q 1681 3072 1420 2755 
Q 1159 2438 1159 1844 
L 1159 0 
L 581 0 
L 581 3500 
L 1159 3500 
L 1159 2956 
Q 1341 3275 1631 3429 
Q 1922 3584 2338 3584 
Q 2397 3584 2469 3576 
Q 2541 3569 2628 3553 
L 2631 2963 
z
" transform="scale(0.015625)"/>
        <path id="DejaVuSans-61" d="M 2194 1759 
Q 1497 1759 1228 1600 
Q 959 1441 959 1056 
Q 959 750 1161 570 
Q 1363 391 1709 391 
Q 2188 391 2477 730 
Q 2766 1069 2766 1631 
L 2766 1759 
L 2194 1759 
z
M 3341 1997 
L 3341 0 
L 2766 0 
L 2766 531 
Q 2569 213 2275 61 
Q 1981 -91 1556 -91 
Q 1019 -91 701 211 
Q 384 513 384 1019 
Q 384 1609 779 1909 
Q 1175 2209 1959 2209 
L 2766 2209 
L 2766 2266 
Q 2766 2663 2505 2880 
Q 2244 3097 1772 3097 
Q 1472 3097 1187 3025 
Q 903 2953 641 2809 
L 641 3341 
Q 956 3463 1253 3523 
Q 1550 3584 1831 3584 
Q 2591 3584 2966 3190 
Q 3341 2797 3341 1997 
z
" transform="scale(0.015625)"/>
       </defs>
       <use xlink:href="#DejaVuSans-41"/>
       <use xlink:href="#DejaVuSans-76" transform="translate(62.533203 0)"/>
       <use xlink:href="#DejaVuSans-65" transform="translate(121.712891 0)"/>
       <use xlink:href="#DejaVuSans-72" transform="translate(183.236328 0)"/>
       <use xlink:href="#DejaVuSans-61" transform="translate(224.349609 0)"/>
       <use xlink:href="#DejaVuSans-67" transform="translate(285.628906 0)"/>
       <use xlink:href="#DejaVuSans-65" transform="translate(349.105469 0)"/>
      </g>
     </g>
    </g>
    <g id="xtick_2">
     <g id="line2d_2">
      <g>
       <use xlink:href="#m2b03ac70b6" x="112.411197" y="365.161" style="stroke: #000000; stroke-width: 0.8"/>
      </g>
     </g>
     <g id="text_2">
      <!-- 1 -->
      <g transform="translate(115.170572 378.5235) rotate(-90) scale(0.1 -0.1)">
       <defs>
        <path id="DejaVuSans-31" d="M 794 531 
L 1825 531 
L 1825 4091 
L 703 3866 
L 703 4441 
L 1819 4666 
L 2450 4666 
L 2450 531 
L 3481 531 
L 3481 0 
L 794 0 
L 794 531 
z
" transform="scale(0.015625)"/>
       </defs>
       <use xlink:href="#DejaVuSans-31"/>
      </g>
     </g>
    </g>
    <g id="xtick_3">
     <g id="line2d_3">
      <g>
       <use xlink:href="#m2b03ac70b6" x="126.036513" y="365.161" style="stroke: #000000; stroke-width: 0.8"/>
      </g>
     </g>
     <g id="text_3">
      <!-- 2 -->
      <g transform="translate(128.795888 378.5235) rotate(-90) scale(0.1 -0.1)">
       <defs>
        <path id="DejaVuSans-32" d="M 1228 531 
L 3431 531 
L 3431 0 
L 469 0 
L 469 531 
Q 828 903 1448 1529 
Q 2069 2156 2228 2338 
Q 2531 2678 2651 2914 
Q 2772 3150 2772 3378 
Q 2772 3750 2511 3984 
Q 2250 4219 1831 4219 
Q 1534 4219 1204 4116 
Q 875 4013 500 3803 
L 500 4441 
Q 881 4594 1212 4672 
Q 1544 4750 1819 4750 
Q 2544 4750 2975 4387 
Q 3406 4025 3406 3419 
Q 3406 3131 3298 2873 
Q 3191 2616 2906 2266 
Q 2828 2175 2409 1742 
Q 1991 1309 1228 531 
z
" transform="scale(0.015625)"/>
       </defs>
       <use xlink:href="#DejaVuSans-32"/>
      </g>
     </g>
    </g>
    <g id="xtick_4">
     <g id="line2d_4">
      <g>
       <use xlink:href="#m2b03ac70b6" x="139.661828" y="365.161" style="stroke: #000000; stroke-width: 0.8"/>
      </g>
     </g>
     <g id="text_4">
      <!-- 3 -->
      <g transform="translate(142.421203 378.5235) rotate(-90) scale(0.1 -0.1)">
       <defs>
        <path id="DejaVuSans-33" d="M 2597 2516 
Q 3050 2419 3304 2112 
Q 3559 1806 3559 1356 
Q 3559 666 3084 287 
Q 2609 -91 1734 -91 
Q 1441 -91 1130 -33 
Q 819 25 488 141 
L 488 750 
Q 750 597 1062 519 
Q 1375 441 1716 441 
Q 2309 441 2620 675 
Q 2931 909 2931 1356 
Q 2931 1769 2642 2001 
Q 2353 2234 1838 2234 
L 1294 2234 
L 1294 2753 
L 1863 2753 
Q 2328 2753 2575 2939 
Q 2822 3125 2822 3475 
Q 2822 3834 2567 4026 
Q 2313 4219 1838 4219 
Q 1578 4219 1281 4162 
Q 984 4106 628 3988 
L 628 4550 
Q 988 4650 1302 4700 
Q 1616 4750 1894 4750 
Q 2613 4750 3031 4423 
Q 3450 4097 3450 3541 
Q 3450 3153 3228 2886 
Q 3006 2619 2597 2516 
z
" transform="scale(0.015625)"/>
       </defs>
       <use xlink:href="#DejaVuSans-33"/>
      </g>
     </g>
    </g>
    <g id="xtick_5">
     <g id="line2d_5">
      <g>
       <use xlink:href="#m2b03ac70b6" x="153.287143" y="365.161" style="stroke: #000000; stroke-width: 0.8"/>
      </g>
     </g>
     <g id="text_5">
      <!-- 4 -->
      <g transform="translate(156.046518 378.5235) rotate(-90) scale(0.1 -0.1)">
       <defs>
        <path id="DejaVuSans-34" d="M 2419 4116 
L 825 1625 
L 2419 1625 
L 2419 4116 
z
M 2253 4666 
L 3047 4666 
L 3047 1625 
L 3713 1625 
L 3713 1100 
L 3047 1100 
L 3047 0 
L 2419 0 
L 2419 1100 
L 313 1100 
L 313 1709 
L 2253 4666 
z
" transform="scale(0.015625)"/>
       </defs>
       <use xlink:href="#DejaVuSans-34"/>
      </g>
     </g>
    </g>
    <g id="xtick_6">
     <g id="line2d_6">
      <g>
       <use xlink:href="#m2b03ac70b6" x="166.912458" y="365.161" style="stroke: #000000; stroke-width: 0.8"/>
      </g>
     </g>
     <g id="text_6">
      <!-- 5 -->
      <g transform="translate(169.671833 378.5235) rotate(-90) scale(0.1 -0.1)">
       <defs>
        <path id="DejaVuSans-35" d="M 691 4666 
L 3169 4666 
L 3169 4134 
L 1269 4134 
L 1269 2991 
Q 1406 3038 1543 3061 
Q 1681 3084 1819 3084 
Q 2600 3084 3056 2656 
Q 3513 2228 3513 1497 
Q 3513 744 3044 326 
Q 2575 -91 1722 -91 
Q 1428 -91 1123 -41 
Q 819 9 494 109 
L 494 744 
Q 775 591 1075 516 
Q 1375 441 1709 441 
Q 2250 441 2565 725 
Q 2881 1009 2881 1497 
Q 2881 1984 2565 2268 
Q 2250 2553 1709 2553 
Q 1456 2553 1204 2497 
Q 953 2441 691 2322 
L 691 4666 
z
" transform="scale(0.015625)"/>
       </defs>
       <use xlink:href="#DejaVuSans-35"/>
      </g>
     </g>
    </g>
    <g id="xtick_7">
     <g id="line2d_7">
      <g>
       <use xlink:href="#m2b03ac70b6" x="180.537773" y="365.161" style="stroke: #000000; stroke-width: 0.8"/>
      </g>
     </g>
     <g id="text_7">
      <!-- 6 -->
      <g transform="translate(183.297148 378.5235) rotate(-90) scale(0.1 -0.1)">
       <defs>
        <path id="DejaVuSans-36" d="M 2113 2584 
Q 1688 2584 1439 2293 
Q 1191 2003 1191 1497 
Q 1191 994 1439 701 
Q 1688 409 2113 409 
Q 2538 409 2786 701 
Q 3034 994 3034 1497 
Q 3034 2003 2786 2293 
Q 2538 2584 2113 2584 
z
M 3366 4563 
L 3366 3988 
Q 3128 4100 2886 4159 
Q 2644 4219 2406 4219 
Q 1781 4219 1451 3797 
Q 1122 3375 1075 2522 
Q 1259 2794 1537 2939 
Q 1816 3084 2150 3084 
Q 2853 3084 3261 2657 
Q 3669 2231 3669 1497 
Q 3669 778 3244 343 
Q 2819 -91 2113 -91 
Q 1303 -91 875 529 
Q 447 1150 447 2328 
Q 447 3434 972 4092 
Q 1497 4750 2381 4750 
Q 2619 4750 2861 4703 
Q 3103 4656 3366 4563 
z
" transform="scale(0.015625)"/>
       </defs>
       <use xlink:href="#DejaVuSans-36"/>
      </g>
     </g>
    </g>
    <g id="xtick_8">
     <g id="line2d_8">
      <g>
       <use xlink:href="#m2b03ac70b6" x="194.163088" y="365.161" style="stroke: #000000; stroke-width: 0.8"/>
      </g>
     </g>
     <g id="text_8">
      <!-- 7 -->
      <g transform="translate(196.922463 378.5235) rotate(-90) scale(0.1 -0.1)">
       <defs>
        <path id="DejaVuSans-37" d="M 525 4666 
L 3525 4666 
L 3525 4397 
L 1831 0 
L 1172 0 
L 2766 4134 
L 525 4134 
L 525 4666 
z
" transform="scale(0.015625)"/>
       </defs>
       <use xlink:href="#DejaVuSans-37"/>
      </g>
     </g>
    </g>
    <g id="xtick_9">
     <g id="line2d_9">
      <g>
       <use xlink:href="#m2b03ac70b6" x="207.788403" y="365.161" style="stroke: #000000; stroke-width: 0.8"/>
      </g>
     </g>
     <g id="text_9">
      <!-- 8 -->
      <g transform="translate(210.547778 378.5235) rotate(-90) scale(0.1 -0.1)">
       <defs>
        <path id="DejaVuSans-38" d="M 2034 2216 
Q 1584 2216 1326 1975 
Q 1069 1734 1069 1313 
Q 1069 891 1326 650 
Q 1584 409 2034 409 
Q 2484 409 2743 651 
Q 3003 894 3003 1313 
Q 3003 1734 2745 1975 
Q 2488 2216 2034 2216 
z
M 1403 2484 
Q 997 2584 770 2862 
Q 544 3141 544 3541 
Q 544 4100 942 4425 
Q 1341 4750 2034 4750 
Q 2731 4750 3128 4425 
Q 3525 4100 3525 3541 
Q 3525 3141 3298 2862 
Q 3072 2584 2669 2484 
Q 3125 2378 3379 2068 
Q 3634 1759 3634 1313 
Q 3634 634 3220 271 
Q 2806 -91 2034 -91 
Q 1263 -91 848 271 
Q 434 634 434 1313 
Q 434 1759 690 2068 
Q 947 2378 1403 2484 
z
M 1172 3481 
Q 1172 3119 1398 2916 
Q 1625 2713 2034 2713 
Q 2441 2713 2670 2916 
Q 2900 3119 2900 3481 
Q 2900 3844 2670 4047 
Q 2441 4250 2034 4250 
Q 1625 4250 1398 4047 
Q 1172 3844 1172 3481 
z
" transform="scale(0.015625)"/>
       </defs>
       <use xlink:href="#DejaVuSans-38"/>
      </g>
     </g>
    </g>
    <g id="xtick_10">
     <g id="line2d_10">
      <g>
       <use xlink:href="#m2b03ac70b6" x="221.413718" y="365.161" style="stroke: #000000; stroke-width: 0.8"/>
      </g>
     </g>
     <g id="text_10">
      <!-- 9 -->
      <g transform="translate(224.173093 378.5235) rotate(-90) scale(0.1 -0.1)">
       <defs>
        <path id="DejaVuSans-39" d="M 703 97 
L 703 672 
Q 941 559 1184 500 
Q 1428 441 1663 441 
Q 2288 441 2617 861 
Q 2947 1281 2994 2138 
Q 2813 1869 2534 1725 
Q 2256 1581 1919 1581 
Q 1219 1581 811 2004 
Q 403 2428 403 3163 
Q 403 3881 828 4315 
Q 1253 4750 1959 4750 
Q 2769 4750 3195 4129 
Q 3622 3509 3622 2328 
Q 3622 1225 3098 567 
Q 2575 -91 1691 -91 
Q 1453 -91 1209 -44 
Q 966 3 703 97 
z
M 1959 2075 
Q 2384 2075 2632 2365 
Q 2881 2656 2881 3163 
Q 2881 3666 2632 3958 
Q 2384 4250 1959 4250 
Q 1534 4250 1286 3958 
Q 1038 3666 1038 3163 
Q 1038 2656 1286 2365 
Q 1534 2075 1959 2075 
z
" transform="scale(0.015625)"/>
       </defs>
       <use xlink:href="#DejaVuSans-39"/>
      </g>
     </g>
    </g>
    <g id="xtick_11">
     <g id="line2d_11">
      <g>
       <use xlink:href="#m2b03ac70b6" x="235.039034" y="365.161" style="stroke: #000000; stroke-width: 0.8"/>
      </g>
     </g>
     <g id="text_11">
      <!-- 10 -->
      <g transform="translate(237.798409 384.886) rotate(-90) scale(0.1 -0.1)">
       <defs>
        <path id="DejaVuSans-30" d="M 2034 4250 
Q 1547 4250 1301 3770 
Q 1056 3291 1056 2328 
Q 1056 1369 1301 889 
Q 1547 409 2034 409 
Q 2525 409 2770 889 
Q 3016 1369 3016 2328 
Q 3016 3291 2770 3770 
Q 2525 4250 2034 4250 
z
M 2034 4750 
Q 2819 4750 3233 4129 
Q 3647 3509 3647 2328 
Q 3647 1150 3233 529 
Q 2819 -91 2034 -91 
Q 1250 -91 836 529 
Q 422 1150 422 2328 
Q 422 3509 836 4129 
Q 1250 4750 2034 4750 
z
" transform="scale(0.015625)"/>
       </defs>
       <use xlink:href="#DejaVuSans-31"/>
       <use xlink:href="#DejaVuSans-30" transform="translate(63.623047 0)"/>
      </g>
     </g>
    </g>
    <g id="xtick_12">
     <g id="line2d_12">
      <g>
       <use xlink:href="#m2b03ac70b6" x="248.664349" y="365.161" style="stroke: #000000; stroke-width: 0.8"/>
      </g>
     </g>
     <g id="text_12">
      <!-- 11 -->
      <g transform="translate(251.423724 384.886) rotate(-90) scale(0.1 -0.1)">
       <use xlink:href="#DejaVuSans-31"/>
       <use xlink:href="#DejaVuSans-31" transform="translate(63.623047 0)"/>
      </g>
     </g>
    </g>
    <g id="xtick_13">
     <g id="line2d_13">
      <g>
       <use xlink:href="#m2b03ac70b6" x="262.289664" y="365.161" style="stroke: #000000; stroke-width: 0.8"/>
      </g>
     </g>
     <g id="text_13">
      <!-- 12 -->
      <g transform="translate(265.049039 384.886) rotate(-90) scale(0.1 -0.1)">
       <use xlink:href="#DejaVuSans-31"/>
       <use xlink:href="#DejaVuSans-32" transform="translate(63.623047 0)"/>
      </g>
     </g>
    </g>
    <g id="xtick_14">
     <g id="line2d_14">
      <g>
       <use xlink:href="#m2b03ac70b6" x="275.914979" y="365.161" style="stroke: #000000; stroke-width: 0.8"/>
      </g>
     </g>
     <g id="text_14">
      <!-- 13 -->
      <g transform="translate(278.674354 384.886) rotate(-90) scale(0.1 -0.1)">
       <use xlink:href="#DejaVuSans-31"/>
       <use xlink:href="#DejaVuSans-33" transform="translate(63.623047 0)"/>
      </g>
     </g>
    </g>
    <g id="xtick_15">
     <g id="line2d_15">
      <g>
       <use xlink:href="#m2b03ac70b6" x="289.540294" y="365.161" style="stroke: #000000; stroke-width: 0.8"/>
      </g>
     </g>
     <g id="text_15">
      <!-- 14 -->
      <g transform="translate(292.299669 384.886) rotate(-90) scale(0.1 -0.1)">
       <use xlink:href="#DejaVuSans-31"/>
       <use xlink:href="#DejaVuSans-34" transform="translate(63.623047 0)"/>
      </g>
     </g>
    </g>
    <g id="xtick_16">
     <g id="line2d_16">
      <g>
       <use xlink:href="#m2b03ac70b6" x="303.165609" y="365.161" style="stroke: #000000; stroke-width: 0.8"/>
      </g>
     </g>
     <g id="text_16">
      <!-- 15 -->
      <g transform="translate(305.924984 384.886) rotate(-90) scale(0.1 -0.1)">
       <use xlink:href="#DejaVuSans-31"/>
       <use xlink:href="#DejaVuSans-35" transform="translate(63.623047 0)"/>
      </g>
     </g>
    </g>
    <g id="xtick_17">
     <g id="line2d_17">
      <g>
       <use xlink:href="#m2b03ac70b6" x="316.790924" y="365.161" style="stroke: #000000; stroke-width: 0.8"/>
      </g>
     </g>
     <g id="text_17">
      <!-- 16 -->
      <g transform="translate(319.550299 384.886) rotate(-90) scale(0.1 -0.1)">
       <use xlink:href="#DejaVuSans-31"/>
       <use xlink:href="#DejaVuSans-36" transform="translate(63.623047 0)"/>
      </g>
     </g>
    </g>
    <g id="xtick_18">
     <g id="line2d_18">
      <g>
       <use xlink:href="#m2b03ac70b6" x="330.416239" y="365.161" style="stroke: #000000; stroke-width: 0.8"/>
      </g>
     </g>
     <g id="text_18">
      <!-- 17 -->
      <g transform="translate(333.175614 384.886) rotate(-90) scale(0.1 -0.1)">
       <use xlink:href="#DejaVuSans-31"/>
       <use xlink:href="#DejaVuSans-37" transform="translate(63.623047 0)"/>
      </g>
     </g>
    </g>
    <g id="xtick_19">
     <g id="line2d_19">
      <g>
       <use xlink:href="#m2b03ac70b6" x="344.041555" y="365.161" style="stroke: #000000; stroke-width: 0.8"/>
      </g>
     </g>
     <g id="text_19">
      <!-- 18 -->
      <g transform="translate(346.80093 384.886) rotate(-90) scale(0.1 -0.1)">
       <use xlink:href="#DejaVuSans-31"/>
       <use xlink:href="#DejaVuSans-38" transform="translate(63.623047 0)"/>
      </g>
     </g>
    </g>
    <g id="xtick_20">
     <g id="line2d_20">
      <g>
       <use xlink:href="#m2b03ac70b6" x="357.66687" y="365.161" style="stroke: #000000; stroke-width: 0.8"/>
      </g>
     </g>
     <g id="text_20">
      <!-- 19 -->
      <g transform="translate(360.426245 384.886) rotate(-90) scale(0.1 -0.1)">
       <use xlink:href="#DejaVuSans-31"/>
       <use xlink:href="#DejaVuSans-39" transform="translate(63.623047 0)"/>
      </g>
     </g>
    </g>
    <g id="xtick_21">
     <g id="line2d_21">
      <g>
       <use xlink:href="#m2b03ac70b6" x="371.292185" y="365.161" style="stroke: #000000; stroke-width: 0.8"/>
      </g>
     </g>
     <g id="text_21">
      <!-- 20 -->
      <g transform="translate(374.05156 384.886) rotate(-90) scale(0.1 -0.1)">
       <use xlink:href="#DejaVuSans-32"/>
       <use xlink:href="#DejaVuSans-30" transform="translate(63.623047 0)"/>
      </g>
     </g>
    </g>
    <g id="xtick_22">
     <g id="line2d_22">
      <g>
       <use xlink:href="#m2b03ac70b6" x="384.9175" y="365.161" style="stroke: #000000; stroke-width: 0.8"/>
      </g>
     </g>
     <g id="text_22">
      <!-- 21 -->
      <g transform="translate(387.676875 384.886) rotate(-90) scale(0.1 -0.1)">
       <use xlink:href="#DejaVuSans-32"/>
       <use xlink:href="#DejaVuSans-31" transform="translate(63.623047 0)"/>
      </g>
     </g>
    </g>
    <g id="xtick_23">
     <g id="line2d_23">
      <g>
       <use xlink:href="#m2b03ac70b6" x="398.542815" y="365.161" style="stroke: #000000; stroke-width: 0.8"/>
      </g>
     </g>
     <g id="text_23">
      <!-- 22 -->
      <g transform="translate(401.30219 384.886) rotate(-90) scale(0.1 -0.1)">
       <use xlink:href="#DejaVuSans-32"/>
       <use xlink:href="#DejaVuSans-32" transform="translate(63.623047 0)"/>
      </g>
     </g>
    </g>
    <g id="xtick_24">
     <g id="line2d_24">
      <g>
       <use xlink:href="#m2b03ac70b6" x="412.16813" y="365.161" style="stroke: #000000; stroke-width: 0.8"/>
      </g>
     </g>
     <g id="text_24">
      <!-- 23 -->
      <g transform="translate(414.927505 384.886) rotate(-90) scale(0.1 -0.1)">
       <use xlink:href="#DejaVuSans-32"/>
       <use xlink:href="#DejaVuSans-33" transform="translate(63.623047 0)"/>
      </g>
     </g>
    </g>
    <g id="xtick_25">
     <g id="line2d_25">
      <g>
       <use xlink:href="#m2b03ac70b6" x="425.793445" y="365.161" style="stroke: #000000; stroke-width: 0.8"/>
      </g>
     </g>
     <g id="text_25">
      <!-- 24 -->
      <g transform="translate(428.55282 384.886) rotate(-90) scale(0.1 -0.1)">
       <use xlink:href="#DejaVuSans-32"/>
       <use xlink:href="#DejaVuSans-34" transform="translate(63.623047 0)"/>
      </g>
     </g>
    </g>
    <g id="xtick_26">
     <g id="line2d_26">
      <g>
       <use xlink:href="#m2b03ac70b6" x="439.418761" y="365.161" style="stroke: #000000; stroke-width: 0.8"/>
      </g>
     </g>
     <g id="text_26">
      <!-- 25 -->
      <g transform="translate(442.178136 384.886) rotate(-90) scale(0.1 -0.1)">
       <use xlink:href="#DejaVuSans-32"/>
       <use xlink:href="#DejaVuSans-35" transform="translate(63.623047 0)"/>
      </g>
     </g>
    </g>
    <g id="xtick_27">
     <g id="line2d_27">
      <g>
       <use xlink:href="#m2b03ac70b6" x="453.044076" y="365.161" style="stroke: #000000; stroke-width: 0.8"/>
      </g>
     </g>
     <g id="text_27">
      <!-- 26 -->
      <g transform="translate(455.803451 384.886) rotate(-90) scale(0.1 -0.1)">
       <use xlink:href="#DejaVuSans-32"/>
       <use xlink:href="#DejaVuSans-36" transform="translate(63.623047 0)"/>
      </g>
     </g>
    </g>
    <g id="xtick_28">
     <g id="line2d_28">
      <g>
       <use xlink:href="#m2b03ac70b6" x="466.669391" y="365.161" style="stroke: #000000; stroke-width: 0.8"/>
      </g>
     </g>
     <g id="text_28">
      <!-- 27 -->
      <g transform="translate(469.428766 384.886) rotate(-90) scale(0.1 -0.1)">
       <use xlink:href="#DejaVuSans-32"/>
       <use xlink:href="#DejaVuSans-37" transform="translate(63.623047 0)"/>
      </g>
     </g>
    </g>
    <g id="xtick_29">
     <g id="line2d_29">
      <g>
       <use xlink:href="#m2b03ac70b6" x="480.294706" y="365.161" style="stroke: #000000; stroke-width: 0.8"/>
      </g>
     </g>
     <g id="text_29">
      <!-- 28 -->
      <g transform="translate(483.054081 384.886) rotate(-90) scale(0.1 -0.1)">
       <use xlink:href="#DejaVuSans-32"/>
       <use xlink:href="#DejaVuSans-38" transform="translate(63.623047 0)"/>
      </g>
     </g>
    </g>
    <g id="xtick_30">
     <g id="line2d_30">
      <g>
       <use xlink:href="#m2b03ac70b6" x="493.920021" y="365.161" style="stroke: #000000; stroke-width: 0.8"/>
      </g>
     </g>
     <g id="text_30">
      <!-- 29 -->
      <g transform="translate(496.679396 384.886) rotate(-90) scale(0.1 -0.1)">
       <use xlink:href="#DejaVuSans-32"/>
       <use xlink:href="#DejaVuSans-39" transform="translate(63.623047 0)"/>
      </g>
     </g>
    </g>
    <g id="xtick_31">
     <g id="line2d_31">
      <g>
       <use xlink:href="#m2b03ac70b6" x="507.545336" y="365.161" style="stroke: #000000; stroke-width: 0.8"/>
      </g>
     </g>
     <g id="text_31">
      <!-- 30 -->
      <g transform="translate(510.304711 384.886) rotate(-90) scale(0.1 -0.1)">
       <use xlink:href="#DejaVuSans-33"/>
       <use xlink:href="#DejaVuSans-30" transform="translate(63.623047 0)"/>
      </g>
     </g>
    </g>
    <g id="xtick_32">
     <g id="line2d_32">
      <g>
       <use xlink:href="#m2b03ac70b6" x="521.170651" y="365.161" style="stroke: #000000; stroke-width: 0.8"/>
      </g>
     </g>
     <g id="text_32">
      <!-- 31 -->
      <g transform="translate(523.930026 384.886) rotate(-90) scale(0.1 -0.1)">
       <use xlink:href="#DejaVuSans-33"/>
       <use xlink:href="#DejaVuSans-31" transform="translate(63.623047 0)"/>
      </g>
     </g>
    </g>
    <g id="xtick_33">
     <g id="line2d_33">
      <g>
       <use xlink:href="#m2b03ac70b6" x="534.795966" y="365.161" style="stroke: #000000; stroke-width: 0.8"/>
      </g>
     </g>
     <g id="text_33">
      <!-- 32 -->
      <g transform="translate(537.555341 384.886) rotate(-90) scale(0.1 -0.1)">
       <use xlink:href="#DejaVuSans-33"/>
       <use xlink:href="#DejaVuSans-32" transform="translate(63.623047 0)"/>
      </g>
     </g>
    </g>
    <g id="xtick_34">
     <g id="line2d_34">
      <g>
       <use xlink:href="#m2b03ac70b6" x="548.421282" y="365.161" style="stroke: #000000; stroke-width: 0.8"/>
      </g>
     </g>
     <g id="text_34">
      <!-- 33 -->
      <g transform="translate(551.180657 384.886) rotate(-90) scale(0.1 -0.1)">
       <use xlink:href="#DejaVuSans-33"/>
       <use xlink:href="#DejaVuSans-33" transform="translate(63.623047 0)"/>
      </g>
     </g>
    </g>
    <g id="xtick_35">
     <g id="line2d_35">
      <g>
       <use xlink:href="#m2b03ac70b6" x="562.046597" y="365.161" style="stroke: #000000; stroke-width: 0.8"/>
      </g>
     </g>
     <g id="text_35">
      <!-- 34 -->
      <g transform="translate(564.805972 384.886) rotate(-90) scale(0.1 -0.1)">
       <use xlink:href="#DejaVuSans-33"/>
       <use xlink:href="#DejaVuSans-34" transform="translate(63.623047 0)"/>
      </g>
     </g>
    </g>
    <g id="xtick_36">
     <g id="line2d_36">
      <g>
       <use xlink:href="#m2b03ac70b6" x="575.671912" y="365.161" style="stroke: #000000; stroke-width: 0.8"/>
      </g>
     </g>
     <g id="text_36">
      <!-- 35 -->
      <g transform="translate(578.431287 384.886) rotate(-90) scale(0.1 -0.1)">
       <use xlink:href="#DejaVuSans-33"/>
       <use xlink:href="#DejaVuSans-35" transform="translate(63.623047 0)"/>
      </g>
     </g>
    </g>
    <g id="xtick_37">
     <g id="line2d_37">
      <g>
       <use xlink:href="#m2b03ac70b6" x="589.297227" y="365.161" style="stroke: #000000; stroke-width: 0.8"/>
      </g>
     </g>
     <g id="text_37">
      <!-- 36 -->
      <g transform="translate(592.056602 384.886) rotate(-90) scale(0.1 -0.1)">
       <use xlink:href="#DejaVuSans-33"/>
       <use xlink:href="#DejaVuSans-36" transform="translate(63.623047 0)"/>
      </g>
     </g>
    </g>
    <g id="xtick_38">
     <g id="line2d_38">
      <g>
       <use xlink:href="#m2b03ac70b6" x="602.922542" y="365.161" style="stroke: #000000; stroke-width: 0.8"/>
      </g>
     </g>
     <g id="text_38">
      <!-- 37 -->
      <g transform="translate(605.681917 384.886) rotate(-90) scale(0.1 -0.1)">
       <use xlink:href="#DejaVuSans-33"/>
       <use xlink:href="#DejaVuSans-37" transform="translate(63.623047 0)"/>
      </g>
     </g>
    </g>
    <g id="xtick_39">
     <g id="line2d_39">
      <g>
       <use xlink:href="#m2b03ac70b6" x="616.547857" y="365.161" style="stroke: #000000; stroke-width: 0.8"/>
      </g>
     </g>
     <g id="text_39">
      <!-- 38 -->
      <g transform="translate(619.307232 384.886) rotate(-90) scale(0.1 -0.1)">
       <use xlink:href="#DejaVuSans-33"/>
       <use xlink:href="#DejaVuSans-38" transform="translate(63.623047 0)"/>
      </g>
     </g>
    </g>
    <g id="xtick_40">
     <g id="line2d_40">
      <g>
       <use xlink:href="#m2b03ac70b6" x="630.173172" y="365.161" style="stroke: #000000; stroke-width: 0.8"/>
      </g>
     </g>
     <g id="text_40">
      <!-- 39 -->
      <g transform="translate(632.932547 384.886) rotate(-90) scale(0.1 -0.1)">
       <use xlink:href="#DejaVuSans-33"/>
       <use xlink:href="#DejaVuSans-39" transform="translate(63.623047 0)"/>
      </g>
     </g>
    </g>
    <g id="xtick_41">
     <g id="line2d_41">
      <g>
       <use xlink:href="#m2b03ac70b6" x="643.798487" y="365.161" style="stroke: #000000; stroke-width: 0.8"/>
      </g>
     </g>
     <g id="text_41">
      <!-- 40 -->
      <g transform="translate(646.557862 384.886) rotate(-90) scale(0.1 -0.1)">
       <use xlink:href="#DejaVuSans-34"/>
       <use xlink:href="#DejaVuSans-30" transform="translate(63.623047 0)"/>
      </g>
     </g>
    </g>
    <g id="xtick_42">
     <g id="line2d_42">
      <g>
       <use xlink:href="#m2b03ac70b6" x="671.049118" y="365.161" style="stroke: #000000; stroke-width: 0.8"/>
      </g>
     </g>
     <g id="text_42">
      <!-- 42 -->
      <g transform="translate(673.808493 384.886) rotate(-90) scale(0.1 -0.1)">
       <use xlink:href="#DejaVuSans-34"/>
       <use xlink:href="#DejaVuSans-32" transform="translate(63.623047 0)"/>
      </g>
     </g>
    </g>
    <g id="xtick_43">
     <g id="line2d_43">
      <g>
       <use xlink:href="#m2b03ac70b6" x="698.299748" y="365.161" style="stroke: #000000; stroke-width: 0.8"/>
      </g>
     </g>
     <g id="text_43">
      <!-- 44 -->
      <g transform="translate(701.059123 384.886) rotate(-90) scale(0.1 -0.1)">
       <use xlink:href="#DejaVuSans-34"/>
       <use xlink:href="#DejaVuSans-34" transform="translate(63.623047 0)"/>
      </g>
     </g>
    </g>
    <g id="text_44">
     <!-- Input Length -->
     <g transform="translate(353.134688 407.0985) scale(0.1 -0.1)">
      <defs>
       <path id="DejaVuSans-49" d="M 628 4666 
L 1259 4666 
L 1259 0 
L 628 0 
L 628 4666 
z
" transform="scale(0.015625)"/>
       <path id="DejaVuSans-6e" d="M 3513 2113 
L 3513 0 
L 2938 0 
L 2938 2094 
Q 2938 2591 2744 2837 
Q 2550 3084 2163 3084 
Q 1697 3084 1428 2787 
Q 1159 2491 1159 1978 
L 1159 0 
L 581 0 
L 581 3500 
L 1159 3500 
L 1159 2956 
Q 1366 3272 1645 3428 
Q 1925 3584 2291 3584 
Q 2894 3584 3203 3211 
Q 3513 2838 3513 2113 
z
" transform="scale(0.015625)"/>
       <path id="DejaVuSans-70" d="M 1159 525 
L 1159 -1331 
L 581 -1331 
L 581 3500 
L 1159 3500 
L 1159 2969 
Q 1341 3281 1617 3432 
Q 1894 3584 2278 3584 
Q 2916 3584 3314 3078 
Q 3713 2572 3713 1747 
Q 3713 922 3314 415 
Q 2916 -91 2278 -91 
Q 1894 -91 1617 61 
Q 1341 213 1159 525 
z
M 3116 1747 
Q 3116 2381 2855 2742 
Q 2594 3103 2138 3103 
Q 1681 3103 1420 2742 
Q 1159 2381 1159 1747 
Q 1159 1113 1420 752 
Q 1681 391 2138 391 
Q 2594 391 2855 752 
Q 3116 1113 3116 1747 
z
" transform="scale(0.015625)"/>
       <path id="DejaVuSans-75" d="M 544 1381 
L 544 3500 
L 1119 3500 
L 1119 1403 
Q 1119 906 1312 657 
Q 1506 409 1894 409 
Q 2359 409 2629 706 
Q 2900 1003 2900 1516 
L 2900 3500 
L 3475 3500 
L 3475 0 
L 2900 0 
L 2900 538 
Q 2691 219 2414 64 
Q 2138 -91 1772 -91 
Q 1169 -91 856 284 
Q 544 659 544 1381 
z
M 1991 3584 
L 1991 3584 
z
" transform="scale(0.015625)"/>
       <path id="DejaVuSans-20" transform="scale(0.015625)"/>
       <path id="DejaVuSans-4c" d="M 628 4666 
L 1259 4666 
L 1259 531 
L 3531 531 
L 3531 0 
L 628 0 
L 628 4666 
z
" transform="scale(0.015625)"/>
      </defs>
      <use xlink:href="#DejaVuSans-49"/>
      <use xlink:href="#DejaVuSans-6e" transform="translate(29.492188 0)"/>
      <use xlink:href="#DejaVuSans-70" transform="translate(92.871094 0)"/>
      <use xlink:href="#DejaVuSans-75" transform="translate(156.347656 0)"/>
      <use xlink:href="#DejaVuSans-74" transform="translate(219.726562 0)"/>
      <use xlink:href="#DejaVuSans-20" transform="translate(258.935547 0)"/>
      <use xlink:href="#DejaVuSans-4c" transform="translate(290.722656 0)"/>
      <use xlink:href="#DejaVuSans-65" transform="translate(344.685547 0)"/>
      <use xlink:href="#DejaVuSans-6e" transform="translate(406.208984 0)"/>
      <use xlink:href="#DejaVuSans-67" transform="translate(469.587891 0)"/>
      <use xlink:href="#DejaVuSans-74" transform="translate(533.064453 0)"/>
      <use xlink:href="#DejaVuSans-68" transform="translate(572.273438 0)"/>
     </g>
     <!-- (Bar width indicates relative number of samples) -->
     <g transform="translate(262.599531 418.296312) scale(0.1 -0.1)">
      <defs>
       <path id="DejaVuSans-28" d="M 1984 4856 
Q 1566 4138 1362 3434 
Q 1159 2731 1159 2009 
Q 1159 1288 1364 580 
Q 1569 -128 1984 -844 
L 1484 -844 
Q 1016 -109 783 600 
Q 550 1309 550 2009 
Q 550 2706 781 3412 
Q 1013 4119 1484 4856 
L 1984 4856 
z
" transform="scale(0.015625)"/>
       <path id="DejaVuSans-42" d="M 1259 2228 
L 1259 519 
L 2272 519 
Q 2781 519 3026 730 
Q 3272 941 3272 1375 
Q 3272 1813 3026 2020 
Q 2781 2228 2272 2228 
L 1259 2228 
z
M 1259 4147 
L 1259 2741 
L 2194 2741 
Q 2656 2741 2882 2914 
Q 3109 3088 3109 3444 
Q 3109 3797 2882 3972 
Q 2656 4147 2194 4147 
L 1259 4147 
z
M 628 4666 
L 2241 4666 
Q 2963 4666 3353 4366 
Q 3744 4066 3744 3513 
Q 3744 3084 3544 2831 
Q 3344 2578 2956 2516 
Q 3422 2416 3680 2098 
Q 3938 1781 3938 1306 
Q 3938 681 3513 340 
Q 3088 0 2303 0 
L 628 0 
L 628 4666 
z
" transform="scale(0.015625)"/>
       <path id="DejaVuSans-77" d="M 269 3500 
L 844 3500 
L 1563 769 
L 2278 3500 
L 2956 3500 
L 3675 769 
L 4391 3500 
L 4966 3500 
L 4050 0 
L 3372 0 
L 2619 2869 
L 1863 0 
L 1184 0 
L 269 3500 
z
" transform="scale(0.015625)"/>
       <path id="DejaVuSans-63" d="M 3122 3366 
L 3122 2828 
Q 2878 2963 2633 3030 
Q 2388 3097 2138 3097 
Q 1578 3097 1268 2742 
Q 959 2388 959 1747 
Q 959 1106 1268 751 
Q 1578 397 2138 397 
Q 2388 397 2633 464 
Q 2878 531 3122 666 
L 3122 134 
Q 2881 22 2623 -34 
Q 2366 -91 2075 -91 
Q 1284 -91 818 406 
Q 353 903 353 1747 
Q 353 2603 823 3093 
Q 1294 3584 2113 3584 
Q 2378 3584 2631 3529 
Q 2884 3475 3122 3366 
z
" transform="scale(0.015625)"/>
       <path id="DejaVuSans-73" d="M 2834 3397 
L 2834 2853 
Q 2591 2978 2328 3040 
Q 2066 3103 1784 3103 
Q 1356 3103 1142 2972 
Q 928 2841 928 2578 
Q 928 2378 1081 2264 
Q 1234 2150 1697 2047 
L 1894 2003 
Q 2506 1872 2764 1633 
Q 3022 1394 3022 966 
Q 3022 478 2636 193 
Q 2250 -91 1575 -91 
Q 1294 -91 989 -36 
Q 684 19 347 128 
L 347 722 
Q 666 556 975 473 
Q 1284 391 1588 391 
Q 1994 391 2212 530 
Q 2431 669 2431 922 
Q 2431 1156 2273 1281 
Q 2116 1406 1581 1522 
L 1381 1569 
Q 847 1681 609 1914 
Q 372 2147 372 2553 
Q 372 3047 722 3315 
Q 1072 3584 1716 3584 
Q 2034 3584 2315 3537 
Q 2597 3491 2834 3397 
z
" transform="scale(0.015625)"/>
       <path id="DejaVuSans-6c" d="M 603 4863 
L 1178 4863 
L 1178 0 
L 603 0 
L 603 4863 
z
" transform="scale(0.015625)"/>
       <path id="DejaVuSans-6d" d="M 3328 2828 
Q 3544 3216 3844 3400 
Q 4144 3584 4550 3584 
Q 5097 3584 5394 3201 
Q 5691 2819 5691 2113 
L 5691 0 
L 5113 0 
L 5113 2094 
Q 5113 2597 4934 2840 
Q 4756 3084 4391 3084 
Q 3944 3084 3684 2787 
Q 3425 2491 3425 1978 
L 3425 0 
L 2847 0 
L 2847 2094 
Q 2847 2600 2669 2842 
Q 2491 3084 2119 3084 
Q 1678 3084 1418 2786 
Q 1159 2488 1159 1978 
L 1159 0 
L 581 0 
L 581 3500 
L 1159 3500 
L 1159 2956 
Q 1356 3278 1631 3431 
Q 1906 3584 2284 3584 
Q 2666 3584 2933 3390 
Q 3200 3197 3328 2828 
z
" transform="scale(0.015625)"/>
       <path id="DejaVuSans-62" d="M 3116 1747 
Q 3116 2381 2855 2742 
Q 2594 3103 2138 3103 
Q 1681 3103 1420 2742 
Q 1159 2381 1159 1747 
Q 1159 1113 1420 752 
Q 1681 391 2138 391 
Q 2594 391 2855 752 
Q 3116 1113 3116 1747 
z
M 1159 2969 
Q 1341 3281 1617 3432 
Q 1894 3584 2278 3584 
Q 2916 3584 3314 3078 
Q 3713 2572 3713 1747 
Q 3713 922 3314 415 
Q 2916 -91 2278 -91 
Q 1894 -91 1617 61 
Q 1341 213 1159 525 
L 1159 0 
L 581 0 
L 581 4863 
L 1159 4863 
L 1159 2969 
z
" transform="scale(0.015625)"/>
       <path id="DejaVuSans-6f" d="M 1959 3097 
Q 1497 3097 1228 2736 
Q 959 2375 959 1747 
Q 959 1119 1226 758 
Q 1494 397 1959 397 
Q 2419 397 2687 759 
Q 2956 1122 2956 1747 
Q 2956 2369 2687 2733 
Q 2419 3097 1959 3097 
z
M 1959 3584 
Q 2709 3584 3137 3096 
Q 3566 2609 3566 1747 
Q 3566 888 3137 398 
Q 2709 -91 1959 -91 
Q 1206 -91 779 398 
Q 353 888 353 1747 
Q 353 2609 779 3096 
Q 1206 3584 1959 3584 
z
" transform="scale(0.015625)"/>
       <path id="DejaVuSans-66" d="M 2375 4863 
L 2375 4384 
L 1825 4384 
Q 1516 4384 1395 4259 
Q 1275 4134 1275 3809 
L 1275 3500 
L 2222 3500 
L 2222 3053 
L 1275 3053 
L 1275 0 
L 697 0 
L 697 3053 
L 147 3053 
L 147 3500 
L 697 3500 
L 697 3744 
Q 697 4328 969 4595 
Q 1241 4863 1831 4863 
L 2375 4863 
z
" transform="scale(0.015625)"/>
       <path id="DejaVuSans-29" d="M 513 4856 
L 1013 4856 
Q 1481 4119 1714 3412 
Q 1947 2706 1947 2009 
Q 1947 1309 1714 600 
Q 1481 -109 1013 -844 
L 513 -844 
Q 928 -128 1133 580 
Q 1338 1288 1338 2009 
Q 1338 2731 1133 3434 
Q 928 4138 513 4856 
z
" transform="scale(0.015625)"/>
      </defs>
      <use xlink:href="#DejaVuSans-28"/>
      <use xlink:href="#DejaVuSans-42" transform="translate(39.013672 0)"/>
      <use xlink:href="#DejaVuSans-61" transform="translate(107.617188 0)"/>
      <use xlink:href="#DejaVuSans-72" transform="translate(168.896484 0)"/>
      <use xlink:href="#DejaVuSans-20" transform="translate(210.009766 0)"/>
      <use xlink:href="#DejaVuSans-77" transform="translate(241.796875 0)"/>
      <use xlink:href="#DejaVuSans-69" transform="translate(323.583984 0)"/>
      <use xlink:href="#DejaVuSans-64" transform="translate(351.367188 0)"/>
      <use xlink:href="#DejaVuSans-74" transform="translate(414.84375 0)"/>
      <use xlink:href="#DejaVuSans-68" transform="translate(454.052734 0)"/>
      <use xlink:href="#DejaVuSans-20" transform="translate(517.431641 0)"/>
      <use xlink:href="#DejaVuSans-69" transform="translate(549.21875 0)"/>
      <use xlink:href="#DejaVuSans-6e" transform="translate(577.001953 0)"/>
      <use xlink:href="#DejaVuSans-64" transform="translate(640.380859 0)"/>
      <use xlink:href="#DejaVuSans-69" transform="translate(703.857422 0)"/>
      <use xlink:href="#DejaVuSans-63" transform="translate(731.640625 0)"/>
      <use xlink:href="#DejaVuSans-61" transform="translate(786.621094 0)"/>
      <use xlink:href="#DejaVuSans-74" transform="translate(847.900391 0)"/>
      <use xlink:href="#DejaVuSans-65" transform="translate(887.109375 0)"/>
      <use xlink:href="#DejaVuSans-73" transform="translate(948.632812 0)"/>
      <use xlink:href="#DejaVuSans-20" transform="translate(1000.732422 0)"/>
      <use xlink:href="#DejaVuSans-72" transform="translate(1032.519531 0)"/>
      <use xlink:href="#DejaVuSans-65" transform="translate(1071.382812 0)"/>
      <use xlink:href="#DejaVuSans-6c" transform="translate(1132.90625 0)"/>
      <use xlink:href="#DejaVuSans-61" transform="translate(1160.689453 0)"/>
      <use xlink:href="#DejaVuSans-74" transform="translate(1221.96875 0)"/>
      <use xlink:href="#DejaVuSans-69" transform="translate(1261.177734 0)"/>
      <use xlink:href="#DejaVuSans-76" transform="translate(1288.960938 0)"/>
      <use xlink:href="#DejaVuSans-65" transform="translate(1348.140625 0)"/>
      <use xlink:href="#DejaVuSans-20" transform="translate(1409.664062 0)"/>
      <use xlink:href="#DejaVuSans-6e" transform="translate(1441.451172 0)"/>
      <use xlink:href="#DejaVuSans-75" transform="translate(1504.830078 0)"/>
      <use xlink:href="#DejaVuSans-6d" transform="translate(1568.208984 0)"/>
      <use xlink:href="#DejaVuSans-62" transform="translate(1665.621094 0)"/>
      <use xlink:href="#DejaVuSans-65" transform="translate(1729.097656 0)"/>
      <use xlink:href="#DejaVuSans-72" transform="translate(1790.621094 0)"/>
      <use xlink:href="#DejaVuSans-20" transform="translate(1831.734375 0)"/>
      <use xlink:href="#DejaVuSans-6f" transform="translate(1863.521484 0)"/>
      <use xlink:href="#DejaVuSans-66" transform="translate(1924.703125 0)"/>
      <use xlink:href="#DejaVuSans-20" transform="translate(1959.908203 0)"/>
      <use xlink:href="#DejaVuSans-73" transform="translate(1991.695312 0)"/>
      <use xlink:href="#DejaVuSans-61" transform="translate(2043.794922 0)"/>
      <use xlink:href="#DejaVuSans-6d" transform="translate(2105.074219 0)"/>
      <use xlink:href="#DejaVuSans-70" transform="translate(2202.486328 0)"/>
      <use xlink:href="#DejaVuSans-6c" transform="translate(2265.962891 0)"/>
      <use xlink:href="#DejaVuSans-65" transform="translate(2293.746094 0)"/>
      <use xlink:href="#DejaVuSans-73" transform="translate(2355.269531 0)"/>
      <use xlink:href="#DejaVuSans-29" transform="translate(2407.369141 0)"/>
     </g>
    </g>
   </g>
   <g id="matplotlib.axis_2">
    <g id="ytick_1">
     <g id="line2d_44">
      <defs>
       <path id="m2b4333f34c" d="M 0 0 
L -3.5 0 
" style="stroke: #000000; stroke-width: 0.8"/>
      </defs>
      <g>
       <use xlink:href="#m2b4333f34c" x="60.635" y="365.161" style="stroke: #000000; stroke-width: 0.8"/>
      </g>
     </g>
     <g id="text_45">
      <!-- 0.000 -->
      <g transform="translate(25.006875 368.960219) scale(0.1 -0.1)">
       <defs>
        <path id="DejaVuSans-2e" d="M 684 794 
L 1344 794 
L 1344 0 
L 684 0 
L 684 794 
z
" transform="scale(0.015625)"/>
       </defs>
       <use xlink:href="#DejaVuSans-30"/>
       <use xlink:href="#DejaVuSans-2e" transform="translate(63.623047 0)"/>
       <use xlink:href="#DejaVuSans-30" transform="translate(95.410156 0)"/>
       <use xlink:href="#DejaVuSans-30" transform="translate(159.033203 0)"/>
       <use xlink:href="#DejaVuSans-30" transform="translate(222.65625 0)"/>
      </g>
     </g>
    </g>
    <g id="ytick_2">
     <g id="line2d_45">
      <g>
       <use xlink:href="#m2b4333f34c" x="60.635" y="355.605833" style="stroke: #000000; stroke-width: 0.8"/>
      </g>
     </g>
     <g id="text_46">
      <!-- 0.027 -->
      <g style="fill: #cc0000" transform="translate(25.006875 359.405051) scale(0.1 -0.1)">
       <use xlink:href="#DejaVuSans-30"/>
       <use xlink:href="#DejaVuSans-2e" transform="translate(63.623047 0)"/>
       <use xlink:href="#DejaVuSans-30" transform="translate(95.410156 0)"/>
       <use xlink:href="#DejaVuSans-32" transform="translate(159.033203 0)"/>
       <use xlink:href="#DejaVuSans-37" transform="translate(222.65625 0)"/>
      </g>
     </g>
    </g>
    <g id="ytick_3">
     <g id="line2d_46">
      <g>
       <use xlink:href="#m2b4333f34c" x="60.635" y="295.0808" style="stroke: #000000; stroke-width: 0.8"/>
      </g>
     </g>
     <g id="text_47">
      <!-- 0.200 -->
      <g transform="translate(25.006875 298.880019) scale(0.1 -0.1)">
       <use xlink:href="#DejaVuSans-30"/>
       <use xlink:href="#DejaVuSans-2e" transform="translate(63.623047 0)"/>
       <use xlink:href="#DejaVuSans-32" transform="translate(95.410156 0)"/>
       <use xlink:href="#DejaVuSans-30" transform="translate(159.033203 0)"/>
       <use xlink:href="#DejaVuSans-30" transform="translate(222.65625 0)"/>
      </g>
     </g>
    </g>
    <g id="ytick_4">
     <g id="line2d_47">
      <g>
       <use xlink:href="#m2b4333f34c" x="60.635" y="225.0006" style="stroke: #000000; stroke-width: 0.8"/>
      </g>
     </g>
     <g id="text_48">
      <!-- 0.400 -->
      <g transform="translate(25.006875 228.799819) scale(0.1 -0.1)">
       <use xlink:href="#DejaVuSans-30"/>
       <use xlink:href="#DejaVuSans-2e" transform="translate(63.623047 0)"/>
       <use xlink:href="#DejaVuSans-34" transform="translate(95.410156 0)"/>
       <use xlink:href="#DejaVuSans-30" transform="translate(159.033203 0)"/>
       <use xlink:href="#DejaVuSans-30" transform="translate(222.65625 0)"/>
      </g>
     </g>
    </g>
    <g id="ytick_5">
     <g id="line2d_48">
      <g>
       <use xlink:href="#m2b4333f34c" x="60.635" y="154.9204" style="stroke: #000000; stroke-width: 0.8"/>
      </g>
     </g>
     <g id="text_49">
      <!-- 0.600 -->
      <g transform="translate(25.006875 158.719619) scale(0.1 -0.1)">
       <use xlink:href="#DejaVuSans-30"/>
       <use xlink:href="#DejaVuSans-2e" transform="translate(63.623047 0)"/>
       <use xlink:href="#DejaVuSans-36" transform="translate(95.410156 0)"/>
       <use xlink:href="#DejaVuSans-30" transform="translate(159.033203 0)"/>
       <use xlink:href="#DejaVuSans-30" transform="translate(222.65625 0)"/>
      </g>
     </g>
    </g>
    <g id="ytick_6">
     <g id="line2d_49">
      <g>
       <use xlink:href="#m2b4333f34c" x="60.635" y="84.8402" style="stroke: #000000; stroke-width: 0.8"/>
      </g>
     </g>
     <g id="text_50">
      <!-- 0.800 -->
      <g transform="translate(25.006875 88.639419) scale(0.1 -0.1)">
       <use xlink:href="#DejaVuSans-30"/>
       <use xlink:href="#DejaVuSans-2e" transform="translate(63.623047 0)"/>
       <use xlink:href="#DejaVuSans-38" transform="translate(95.410156 0)"/>
       <use xlink:href="#DejaVuSans-30" transform="translate(159.033203 0)"/>
       <use xlink:href="#DejaVuSans-30" transform="translate(222.65625 0)"/>
      </g>
     </g>
    </g>
    <g id="ytick_7">
     <g id="line2d_50">
      <g>
       <use xlink:href="#m2b4333f34c" x="60.635" y="14.76" style="stroke: #000000; stroke-width: 0.8"/>
      </g>
     </g>
     <g id="text_51">
      <!-- 1.000 -->
      <g transform="translate(25.006875 18.559219) scale(0.1 -0.1)">
       <use xlink:href="#DejaVuSans-31"/>
       <use xlink:href="#DejaVuSans-2e" transform="translate(63.623047 0)"/>
       <use xlink:href="#DejaVuSans-30" transform="translate(95.410156 0)"/>
       <use xlink:href="#DejaVuSans-30" transform="translate(159.033203 0)"/>
       <use xlink:href="#DejaVuSans-30" transform="translate(222.65625 0)"/>
      </g>
     </g>
    </g>
    <g id="text_52">
     <!-- Ratio -->
     <g transform="translate(18.927187 202.794875) rotate(-90) scale(0.1 -0.1)">
      <defs>
       <path id="DejaVuSans-52" d="M 2841 2188 
Q 3044 2119 3236 1894 
Q 3428 1669 3622 1275 
L 4263 0 
L 3584 0 
L 2988 1197 
Q 2756 1666 2539 1819 
Q 2322 1972 1947 1972 
L 1259 1972 
L 1259 0 
L 628 0 
L 628 4666 
L 2053 4666 
Q 2853 4666 3247 4331 
Q 3641 3997 3641 3322 
Q 3641 2881 3436 2590 
Q 3231 2300 2841 2188 
z
M 1259 4147 
L 1259 2491 
L 2053 2491 
Q 2509 2491 2742 2702 
Q 2975 2913 2975 3322 
Q 2975 3731 2742 3939 
Q 2509 4147 2053 4147 
L 1259 4147 
z
" transform="scale(0.015625)"/>
      </defs>
      <use xlink:href="#DejaVuSans-52"/>
      <use xlink:href="#DejaVuSans-61" transform="translate(67.232422 0)"/>
      <use xlink:href="#DejaVuSans-74" transform="translate(128.511719 0)"/>
      <use xlink:href="#DejaVuSans-69" transform="translate(167.720703 0)"/>
      <use xlink:href="#DejaVuSans-6f" transform="translate(195.503906 0)"/>
     </g>
    </g>
   </g>
   <g id="LineCollection_1">
    <path d="M 32.94154 355.605833 
L 721 355.605833 
" clip-path="url(#pd03dd8275d)" style="fill: none; stroke-dasharray: 5.55,2.4; stroke-dashoffset: 0; stroke: #cc0000; stroke-width: 1.5"/>
   </g>
   <g id="patch_89">
    <path d="M 60.635 365.161 
L 60.635 14.76 
" style="fill: none; stroke: #000000; stroke-width: 0.8; stroke-linejoin: miter; stroke-linecap: square"/>
   </g>
   <g id="patch_90">
    <path d="M 709.2 365.161 
L 709.2 14.76 
" style="fill: none; stroke: #000000; stroke-width: 0.8; stroke-linejoin: miter; stroke-linecap: square"/>
   </g>
   <g id="patch_91">
    <path d="M 60.635 365.161 
L 709.2 365.161 
" style="fill: none; stroke: #000000; stroke-width: 0.8; stroke-linejoin: miter; stroke-linecap: square"/>
   </g>
   <g id="patch_92">
    <path d="M 60.635 14.76 
L 709.2 14.76 
" style="fill: none; stroke: #000000; stroke-width: 0.8; stroke-linejoin: miter; stroke-linecap: square"/>
   </g>
   <g id="legend_1">
    <g id="patch_93">
     <path d="M 626.00625 52.11625 
L 702.2 52.11625 
Q 704.2 52.11625 704.2 50.11625 
L 704.2 21.76 
Q 704.2 19.76 702.2 19.76 
L 626.00625 19.76 
Q 624.00625 19.76 624.00625 21.76 
L 624.00625 50.11625 
Q 624.00625 52.11625 626.00625 52.11625 
z
" style="fill: #ffffff; stroke: #cccccc; stroke-linejoin: miter"/>
    </g>
    <g id="patch_94">
     <path d="M 628.00625 31.358438 
L 648.00625 31.358438 
L 648.00625 24.358438 
L 628.00625 24.358438 
z
" style="fill: #cc0000"/>
    </g>
    <g id="text_53">
     <!-- Unstable -->
     <g transform="translate(656.00625 31.358438) scale(0.1 -0.1)">
      <defs>
       <path id="DejaVuSans-55" d="M 556 4666 
L 1191 4666 
L 1191 1831 
Q 1191 1081 1462 751 
Q 1734 422 2344 422 
Q 2950 422 3222 751 
Q 3494 1081 3494 1831 
L 3494 4666 
L 4128 4666 
L 4128 1753 
Q 4128 841 3676 375 
Q 3225 -91 2344 -91 
Q 1459 -91 1007 375 
Q 556 841 556 1753 
L 556 4666 
z
" transform="scale(0.015625)"/>
      </defs>
      <use xlink:href="#DejaVuSans-55"/>
      <use xlink:href="#DejaVuSans-6e" transform="translate(73.193359 0)"/>
      <use xlink:href="#DejaVuSans-73" transform="translate(136.572266 0)"/>
      <use xlink:href="#DejaVuSans-74" transform="translate(188.671875 0)"/>
      <use xlink:href="#DejaVuSans-61" transform="translate(227.880859 0)"/>
      <use xlink:href="#DejaVuSans-62" transform="translate(289.160156 0)"/>
      <use xlink:href="#DejaVuSans-6c" transform="translate(352.636719 0)"/>
      <use xlink:href="#DejaVuSans-65" transform="translate(380.419922 0)"/>
     </g>
    </g>
    <g id="patch_95">
     <path d="M 628.00625 46.036563 
L 648.00625 46.036563 
L 648.00625 39.036563 
L 628.00625 39.036563 
z
" style="fill: #006600"/>
    </g>
    <g id="text_54">
     <!-- Stable -->
     <g transform="translate(656.00625 46.036563) scale(0.1 -0.1)">
      <defs>
       <path id="DejaVuSans-53" d="M 3425 4513 
L 3425 3897 
Q 3066 4069 2747 4153 
Q 2428 4238 2131 4238 
Q 1616 4238 1336 4038 
Q 1056 3838 1056 3469 
Q 1056 3159 1242 3001 
Q 1428 2844 1947 2747 
L 2328 2669 
Q 3034 2534 3370 2195 
Q 3706 1856 3706 1288 
Q 3706 609 3251 259 
Q 2797 -91 1919 -91 
Q 1588 -91 1214 -16 
Q 841 59 441 206 
L 441 856 
Q 825 641 1194 531 
Q 1563 422 1919 422 
Q 2459 422 2753 634 
Q 3047 847 3047 1241 
Q 3047 1584 2836 1778 
Q 2625 1972 2144 2069 
L 1759 2144 
Q 1053 2284 737 2584 
Q 422 2884 422 3419 
Q 422 4038 858 4394 
Q 1294 4750 2059 4750 
Q 2388 4750 2728 4690 
Q 3069 4631 3425 4513 
z
" transform="scale(0.015625)"/>
      </defs>
      <use xlink:href="#DejaVuSans-53"/>
      <use xlink:href="#DejaVuSans-74" transform="translate(63.476562 0)"/>
      <use xlink:href="#DejaVuSans-61" transform="translate(102.685547 0)"/>
      <use xlink:href="#DejaVuSans-62" transform="translate(163.964844 0)"/>
      <use xlink:href="#DejaVuSans-6c" transform="translate(227.441406 0)"/>
      <use xlink:href="#DejaVuSans-65" transform="translate(255.224609 0)"/>
     </g>
    </g>
   </g>
  </g>
 </g>
 <defs>
  <clipPath id="pd03dd8275d">
   <rect x="60.635" y="14.76" width="648.565" height="350.401"/>
  </clipPath>
 </defs>
</svg>
