<?xml version="1.0" encoding="utf-8" standalone="no"?>
<!DOCTYPE svg PUBLIC "-//W3C//DTD SVG 1.1//EN"
  "http://www.w3.org/Graphics/SVG/1.1/DTD/svg11.dtd">
<svg xmlns:xlink="http://www.w3.org/1999/xlink" width="720pt" height="432pt" viewBox="0 0 720 432" xmlns="http://www.w3.org/2000/svg" version="1.1">
 <metadata>
  <rdf:RDF xmlns:dc="http://purl.org/dc/elements/1.1/" xmlns:cc="http://creativecommons.org/ns#" xmlns:rdf="http://www.w3.org/1999/02/22-rdf-syntax-ns#">
   <cc:Work>
    <dc:type rdf:resource="http://purl.org/dc/dcmitype/StillImage"/>
    <dc:date>2025-02-27T15:44:19.836996</dc:date>
    <dc:format>image/svg+xml</dc:format>
    <dc:creator>
     <cc:Agent>
      <dc:title>Matplotlib v3.10.0, https://matplotlib.org/</dc:title>
     </cc:Agent>
    </dc:creator>
   </cc:Work>
  </rdf:RDF>
 </metadata>
 <defs>
  <style type="text/css">*{stroke-linejoin: round; stroke-linecap: butt}</style>
 </defs>
 <g id="figure_1">
  <g id="patch_1">
   <path d="M 0 432 
L 720 432 
L 720 0 
L 0 0 
z
" style="fill: #ffffff"/>
  </g>
  <g id="axes_1">
   <g id="patch_2">
    <path d="M 60.635 365.161 
L 709.2 365.161 
L 709.2 14.76 
L 60.635 14.76 
z
" style="fill: #ffffff"/>
   </g>
   <g id="patch_3">
    <path d="M 66.60339 365.161 
L 86.498021 365.161 
L 86.498021 363.909553 
L 66.60339 363.909553 
z
" clip-path="url(#pf6144938ed)" style="fill: #cc0000"/>
   </g>
   <g id="patch_4">
    <path d="M 126.783765 365.161 
L 145.685437 365.161 
L 145.685437 365.161 
L 126.783765 365.161 
z
" clip-path="url(#pf6144938ed)" style="fill: #cc0000"/>
   </g>
   <g id="patch_5">
    <path d="M 147.985088 365.161 
L 164.273379 365.161 
L 164.273379 365.161 
L 147.985088 365.161 
z
" clip-path="url(#pf6144938ed)" style="fill: #cc0000"/>
   </g>
   <g id="patch_6">
    <path d="M 166.409887 365.161 
L 185.637843 365.161 
L 185.637843 365.161 
L 166.409887 365.161 
z
" clip-path="url(#pf6144938ed)" style="fill: #cc0000"/>
   </g>
   <g id="patch_7">
    <path d="M 186.049707 365.161 
L 205.787287 365.161 
L 205.787287 365.161 
L 186.049707 365.161 
z
" clip-path="url(#pf6144938ed)" style="fill: #cc0000"/>
   </g>
   <g id="patch_8">
    <path d="M 205.723708 365.161 
L 225.902549 365.161 
L 225.902549 365.160387 
L 205.723708 365.160387 
z
" clip-path="url(#pf6144938ed)" style="fill: #cc0000"/>
   </g>
   <g id="patch_9">
    <path d="M 226.294215 365.161 
L 245.121307 365.161 
L 245.121307 364.448795 
L 226.294215 364.448795 
z
" clip-path="url(#pf6144938ed)" style="fill: #cc0000"/>
   </g>
   <g id="patch_10">
    <path d="M 247.486214 365.161 
L 263.718571 365.161 
L 263.718571 361.227753 
L 247.486214 361.227753 
z
" clip-path="url(#pf6144938ed)" style="fill: #cc0000"/>
   </g>
   <g id="patch_11">
    <path d="M 267.800354 365.161 
L 283.193695 365.161 
L 283.193695 363.472628 
L 267.800354 363.472628 
z
" clip-path="url(#pf6144938ed)" style="fill: #cc0000"/>
   </g>
   <g id="patch_12">
    <path d="M 288.785708 365.161 
L 301.997605 365.161 
L 301.997605 362.87905 
L 288.785708 362.87905 
z
" clip-path="url(#pf6144938ed)" style="fill: #cc0000"/>
   </g>
   <g id="patch_13">
    <path d="M 309.410595 365.161 
L 321.161982 365.161 
L 321.161982 363.052881 
L 309.410595 363.052881 
z
" clip-path="url(#pf6144938ed)" style="fill: #cc0000"/>
   </g>
   <g id="patch_14">
    <path d="M 330.198624 365.161 
L 340.163217 365.161 
L 340.163217 359.835557 
L 330.198624 359.835557 
z
" clip-path="url(#pf6144938ed)" style="fill: #cc0000"/>
   </g>
   <g id="patch_15">
    <path d="M 350.414878 365.161 
L 359.736226 365.161 
L 359.736226 360.034589 
L 350.414878 360.034589 
z
" clip-path="url(#pf6144938ed)" style="fill: #cc0000"/>
   </g>
   <g id="patch_16">
    <path d="M 370.783399 365.161 
L 379.156969 365.161 
L 379.156969 359.386207 
L 370.783399 359.386207 
z
" clip-path="url(#pf6144938ed)" style="fill: #cc0000"/>
   </g>
   <g id="patch_17">
    <path d="M 391.095985 365.161 
L 398.633646 365.161 
L 398.633646 361.501247 
L 391.095985 361.501247 
z
" clip-path="url(#pf6144938ed)" style="fill: #cc0000"/>
   </g>
   <g id="patch_18">
    <path d="M 410.951774 365.161 
L 418.567122 365.161 
L 418.567122 363.617772 
L 410.951774 363.617772 
z
" clip-path="url(#pf6144938ed)" style="fill: #cc0000"/>
   </g>
   <g id="patch_19">
    <path d="M 431.270575 365.161 
L 438.037584 365.161 
L 438.037584 363.647665 
L 431.270575 363.647665 
z
" clip-path="url(#pf6144938ed)" style="fill: #cc0000"/>
   </g>
   <g id="patch_20">
    <path d="M 451.312812 365.161 
L 457.784611 365.161 
L 457.784611 362.548884 
L 451.312812 362.548884 
z
" clip-path="url(#pf6144938ed)" style="fill: #cc0000"/>
   </g>
   <g id="patch_21">
    <path d="M 471.21832 365.161 
L 477.668367 365.161 
L 477.668367 364.16191 
L 471.21832 364.16191 
z
" clip-path="url(#pf6144938ed)" style="fill: #cc0000"/>
   </g>
   <g id="patch_22">
    <path d="M 491.049249 365.161 
L 497.626702 365.161 
L 497.626702 364.301468 
L 491.049249 364.301468 
z
" clip-path="url(#pf6144938ed)" style="fill: #cc0000"/>
   </g>
   <g id="patch_23">
    <path d="M 511.148974 365.161 
L 517.316241 365.161 
L 517.316241 364.735481 
L 511.148974 364.735481 
z
" clip-path="url(#pf6144938ed)" style="fill: #cc0000"/>
   </g>
   <g id="patch_24">
    <path d="M 531.051374 365.161 
L 537.203104 365.161 
L 537.203104 364.697493 
L 531.051374 364.697493 
z
" clip-path="url(#pf6144938ed)" style="fill: #cc0000"/>
   </g>
   <g id="patch_25">
    <path d="M 550.998833 365.161 
L 557.044909 365.161 
L 557.044909 363.004746 
L 550.998833 363.004746 
z
" clip-path="url(#pf6144938ed)" style="fill: #cc0000"/>
   </g>
   <g id="patch_26">
    <path d="M 570.909002 365.161 
L 576.924004 365.161 
L 576.924004 365.009311 
L 570.909002 365.009311 
z
" clip-path="url(#pf6144938ed)" style="fill: #cc0000"/>
   </g>
   <g id="patch_27">
    <path d="M 590.811403 365.161 
L 596.810867 365.161 
L 596.810867 365.161 
L 590.811403 365.161 
z
" clip-path="url(#pf6144938ed)" style="fill: #cc0000"/>
   </g>
   <g id="patch_28">
    <path d="M 610.715357 365.161 
L 616.696177 365.161 
L 616.696177 365.161 
L 610.715357 365.161 
z
" clip-path="url(#pf6144938ed)" style="fill: #cc0000"/>
   </g>
   <g id="patch_29">
    <path d="M 630.606882 365.161 
L 636.593916 365.161 
L 636.593916 365.161 
L 630.606882 365.161 
z
" clip-path="url(#pf6144938ed)" style="fill: #cc0000"/>
   </g>
   <g id="patch_30">
    <path d="M 650.506175 365.161 
L 656.483887 365.161 
L 656.483887 365.161 
L 650.506175 365.161 
z
" clip-path="url(#pf6144938ed)" style="fill: #cc0000"/>
   </g>
   <g id="patch_31">
    <path d="M 670.403914 365.161 
L 676.375411 365.161 
L 676.375411 365.161 
L 670.403914 365.161 
z
" clip-path="url(#pf6144938ed)" style="fill: #cc0000"/>
   </g>
   <g id="patch_32">
    <path d="M 690.298546 365.161 
L 696.270043 365.161 
L 696.270043 365.161 
L 690.298546 365.161 
z
" clip-path="url(#pf6144938ed)" style="fill: #cc0000"/>
   </g>
   <g id="patch_33">
    <path d="M 66.60339 363.909553 
L 86.498021 363.909553 
L 86.498021 357.427266 
L 66.60339 357.427266 
z
" clip-path="url(#pf6144938ed)" style="fill: #0066cc"/>
   </g>
   <g id="patch_34">
    <path d="M 126.783765 365.161 
L 145.685437 365.161 
L 145.685437 365.015952 
L 126.783765 365.015952 
z
" clip-path="url(#pf6144938ed)" style="fill: #0066cc"/>
   </g>
   <g id="patch_35">
    <path d="M 147.985088 365.161 
L 164.273379 365.161 
L 164.273379 365.029708 
L 147.985088 365.029708 
z
" clip-path="url(#pf6144938ed)" style="fill: #0066cc"/>
   </g>
   <g id="patch_36">
    <path d="M 166.409887 365.161 
L 185.637843 365.161 
L 185.637843 365.012276 
L 166.409887 365.012276 
z
" clip-path="url(#pf6144938ed)" style="fill: #0066cc"/>
   </g>
   <g id="patch_37">
    <path d="M 186.049707 365.161 
L 205.787287 365.161 
L 205.787287 365.020822 
L 186.049707 365.020822 
z
" clip-path="url(#pf6144938ed)" style="fill: #0066cc"/>
   </g>
   <g id="patch_38">
    <path d="M 205.723708 365.160387 
L 225.902549 365.160387 
L 225.902549 364.976949 
L 205.723708 364.976949 
z
" clip-path="url(#pf6144938ed)" style="fill: #0066cc"/>
   </g>
   <g id="patch_39">
    <path d="M 226.294215 364.448795 
L 245.121307 364.448795 
L 245.121307 359.592638 
L 226.294215 359.592638 
z
" clip-path="url(#pf6144938ed)" style="fill: #0066cc"/>
   </g>
   <g id="patch_40">
    <path d="M 247.486214 361.227753 
L 263.718571 361.227753 
L 263.718571 346.255335 
L 247.486214 346.255335 
z
" clip-path="url(#pf6144938ed)" style="fill: #0066cc"/>
   </g>
   <g id="patch_41">
    <path d="M 267.800354 363.472628 
L 283.193695 363.472628 
L 283.193695 346.736451 
L 267.800354 346.736451 
z
" clip-path="url(#pf6144938ed)" style="fill: #0066cc"/>
   </g>
   <g id="patch_42">
    <path d="M 288.785708 362.87905 
L 301.997605 362.87905 
L 301.997605 347.724918 
L 288.785708 347.724918 
z
" clip-path="url(#pf6144938ed)" style="fill: #0066cc"/>
   </g>
   <g id="patch_43">
    <path d="M 309.410595 363.052881 
L 321.161982 363.052881 
L 321.161982 345.010672 
L 309.410595 345.010672 
z
" clip-path="url(#pf6144938ed)" style="fill: #0066cc"/>
   </g>
   <g id="patch_44">
    <path d="M 330.198624 359.835557 
L 340.163217 359.835557 
L 340.163217 346.276662 
L 330.198624 346.276662 
z
" clip-path="url(#pf6144938ed)" style="fill: #0066cc"/>
   </g>
   <g id="patch_45">
    <path d="M 350.414878 360.034589 
L 359.736226 360.034589 
L 359.736226 345.784562 
L 350.414878 345.784562 
z
" clip-path="url(#pf6144938ed)" style="fill: #0066cc"/>
   </g>
   <g id="patch_46">
    <path d="M 370.783399 359.386207 
L 379.156969 359.386207 
L 379.156969 346.230401 
L 370.783399 346.230401 
z
" clip-path="url(#pf6144938ed)" style="fill: #0066cc"/>
   </g>
   <g id="patch_47">
    <path d="M 391.095985 361.501247 
L 398.633646 361.501247 
L 398.633646 348.89801 
L 391.095985 348.89801 
z
" clip-path="url(#pf6144938ed)" style="fill: #0066cc"/>
   </g>
   <g id="patch_48">
    <path d="M 410.951774 363.617772 
L 418.567122 363.617772 
L 418.567122 344.839668 
L 410.951774 344.839668 
z
" clip-path="url(#pf6144938ed)" style="fill: #0066cc"/>
   </g>
   <g id="patch_49">
    <path d="M 431.270575 363.647665 
L 438.037584 363.647665 
L 438.037584 348.734965 
L 431.270575 348.734965 
z
" clip-path="url(#pf6144938ed)" style="fill: #0066cc"/>
   </g>
   <g id="patch_50">
    <path d="M 451.312812 362.548884 
L 457.784611 362.548884 
L 457.784611 346.931106 
L 451.312812 346.931106 
z
" clip-path="url(#pf6144938ed)" style="fill: #0066cc"/>
   </g>
   <g id="patch_51">
    <path d="M 471.21832 364.16191 
L 477.668367 364.16191 
L 477.668367 349.82771 
L 471.21832 349.82771 
z
" clip-path="url(#pf6144938ed)" style="fill: #0066cc"/>
   </g>
   <g id="patch_52">
    <path d="M 491.049249 364.301468 
L 497.626702 364.301468 
L 497.626702 354.923202 
L 491.049249 354.923202 
z
" clip-path="url(#pf6144938ed)" style="fill: #0066cc"/>
   </g>
   <g id="patch_53">
    <path d="M 511.148974 364.735481 
L 517.316241 364.735481 
L 517.316241 351.040476 
L 511.148974 351.040476 
z
" clip-path="url(#pf6144938ed)" style="fill: #0066cc"/>
   </g>
   <g id="patch_54">
    <path d="M 531.051374 364.697493 
L 537.203104 364.697493 
L 537.203104 349.087137 
L 531.051374 349.087137 
z
" clip-path="url(#pf6144938ed)" style="fill: #0066cc"/>
   </g>
   <g id="patch_55">
    <path d="M 550.998833 363.004746 
L 557.044909 363.004746 
L 557.044909 350.488181 
L 550.998833 350.488181 
z
" clip-path="url(#pf6144938ed)" style="fill: #0066cc"/>
   </g>
   <g id="patch_56">
    <path d="M 570.909002 365.009311 
L 576.924004 365.009311 
L 576.924004 359.459842 
L 570.909002 359.459842 
z
" clip-path="url(#pf6144938ed)" style="fill: #0066cc"/>
   </g>
   <g id="patch_57">
    <path d="M 590.811403 365.161 
L 596.810867 365.161 
L 596.810867 360.255953 
L 590.811403 360.255953 
z
" clip-path="url(#pf6144938ed)" style="fill: #0066cc"/>
   </g>
   <g id="patch_58">
    <path d="M 610.715357 365.161 
L 616.696177 365.161 
L 616.696177 356.862686 
L 610.715357 356.862686 
z
" clip-path="url(#pf6144938ed)" style="fill: #0066cc"/>
   </g>
   <g id="patch_59">
    <path d="M 630.606882 365.161 
L 636.593916 365.161 
L 636.593916 349.576121 
L 630.606882 349.576121 
z
" clip-path="url(#pf6144938ed)" style="fill: #0066cc"/>
   </g>
   <g id="patch_60">
    <path d="M 650.506175 365.161 
L 656.483887 365.161 
L 656.483887 360.710229 
L 650.506175 360.710229 
z
" clip-path="url(#pf6144938ed)" style="fill: #0066cc"/>
   </g>
   <g id="patch_61">
    <path d="M 670.403914 365.161 
L 676.375411 365.161 
L 676.375411 358.422519 
L 670.403914 358.422519 
z
" clip-path="url(#pf6144938ed)" style="fill: #0066cc"/>
   </g>
   <g id="patch_62">
    <path d="M 690.298546 365.161 
L 696.270043 365.161 
L 696.270043 352.183185 
L 690.298546 352.183185 
z
" clip-path="url(#pf6144938ed)" style="fill: #0066cc"/>
   </g>
   <g id="patch_63">
    <path d="M 66.60339 357.427266 
L 86.498021 357.427266 
L 86.498021 351.363454 
L 66.60339 351.363454 
z
" clip-path="url(#pf6144938ed)" style="fill: #cc6600"/>
   </g>
   <g id="patch_64">
    <path d="M 126.783765 365.015952 
L 145.685437 365.015952 
L 145.685437 365.015952 
L 126.783765 365.015952 
z
" clip-path="url(#pf6144938ed)" style="fill: #cc6600"/>
   </g>
   <g id="patch_65">
    <path d="M 147.985088 365.029708 
L 164.273379 365.029708 
L 164.273379 365.029708 
L 147.985088 365.029708 
z
" clip-path="url(#pf6144938ed)" style="fill: #cc6600"/>
   </g>
   <g id="patch_66">
    <path d="M 166.409887 365.012276 
L 185.637843 365.012276 
L 185.637843 365.012276 
L 166.409887 365.012276 
z
" clip-path="url(#pf6144938ed)" style="fill: #cc6600"/>
   </g>
   <g id="patch_67">
    <path d="M 186.049707 365.020822 
L 205.787287 365.020822 
L 205.787287 365.020822 
L 186.049707 365.020822 
z
" clip-path="url(#pf6144938ed)" style="fill: #cc6600"/>
   </g>
   <g id="patch_68">
    <path d="M 205.723708 364.976949 
L 225.902549 364.976949 
L 225.902549 364.093511 
L 205.723708 364.093511 
z
" clip-path="url(#pf6144938ed)" style="fill: #cc6600"/>
   </g>
   <g id="patch_69">
    <path d="M 226.294215 359.592638 
L 245.121307 359.592638 
L 245.121307 357.601677 
L 226.294215 357.601677 
z
" clip-path="url(#pf6144938ed)" style="fill: #cc6600"/>
   </g>
   <g id="patch_70">
    <path d="M 247.486214 346.255335 
L 263.718571 346.255335 
L 263.718571 333.249481 
L 247.486214 333.249481 
z
" clip-path="url(#pf6144938ed)" style="fill: #cc6600"/>
   </g>
   <g id="patch_71">
    <path d="M 267.800354 346.736451 
L 283.193695 346.736451 
L 283.193695 333.385228 
L 267.800354 333.385228 
z
" clip-path="url(#pf6144938ed)" style="fill: #cc6600"/>
   </g>
   <g id="patch_72">
    <path d="M 288.785708 347.724918 
L 301.997605 347.724918 
L 301.997605 328.700984 
L 288.785708 328.700984 
z
" clip-path="url(#pf6144938ed)" style="fill: #cc6600"/>
   </g>
   <g id="patch_73">
    <path d="M 309.410595 345.010672 
L 321.161982 345.010672 
L 321.161982 329.752611 
L 309.410595 329.752611 
z
" clip-path="url(#pf6144938ed)" style="fill: #cc6600"/>
   </g>
   <g id="patch_74">
    <path d="M 330.198624 346.276662 
L 340.163217 346.276662 
L 340.163217 327.769329 
L 330.198624 327.769329 
z
" clip-path="url(#pf6144938ed)" style="fill: #cc6600"/>
   </g>
   <g id="patch_75">
    <path d="M 350.414878 345.784562 
L 359.736226 345.784562 
L 359.736226 331.355358 
L 350.414878 331.355358 
z
" clip-path="url(#pf6144938ed)" style="fill: #cc6600"/>
   </g>
   <g id="patch_76">
    <path d="M 370.783399 346.230401 
L 379.156969 346.230401 
L 379.156969 332.239913 
L 370.783399 332.239913 
z
" clip-path="url(#pf6144938ed)" style="fill: #cc6600"/>
   </g>
   <g id="patch_77">
    <path d="M 391.095985 348.89801 
L 398.633646 348.89801 
L 398.633646 333.818866 
L 391.095985 333.818866 
z
" clip-path="url(#pf6144938ed)" style="fill: #cc6600"/>
   </g>
   <g id="patch_78">
    <path d="M 410.951774 344.839668 
L 418.567122 344.839668 
L 418.567122 329.116246 
L 410.951774 329.116246 
z
" clip-path="url(#pf6144938ed)" style="fill: #cc6600"/>
   </g>
   <g id="patch_79">
    <path d="M 431.270575 348.734965 
L 438.037584 348.734965 
L 438.037584 330.120224 
L 431.270575 330.120224 
z
" clip-path="url(#pf6144938ed)" style="fill: #cc6600"/>
   </g>
   <g id="patch_80">
    <path d="M 451.312812 346.931106 
L 457.784611 346.931106 
L 457.784611 330.259092 
L 451.312812 330.259092 
z
" clip-path="url(#pf6144938ed)" style="fill: #cc6600"/>
   </g>
   <g id="patch_81">
    <path d="M 471.21832 349.82771 
L 477.668367 349.82771 
L 477.668367 335.404883 
L 471.21832 335.404883 
z
" clip-path="url(#pf6144938ed)" style="fill: #cc6600"/>
   </g>
   <g id="patch_82">
    <path d="M 491.049249 354.923202 
L 497.626702 354.923202 
L 497.626702 348.240148 
L 491.049249 348.240148 
z
" clip-path="url(#pf6144938ed)" style="fill: #cc6600"/>
   </g>
   <g id="patch_83">
    <path d="M 511.148974 351.040476 
L 517.316241 351.040476 
L 517.316241 341.967238 
L 511.148974 341.967238 
z
" clip-path="url(#pf6144938ed)" style="fill: #cc6600"/>
   </g>
   <g id="patch_84">
    <path d="M 531.051374 349.087137 
L 537.203104 349.087137 
L 537.203104 341.250075 
L 531.051374 341.250075 
z
" clip-path="url(#pf6144938ed)" style="fill: #cc6600"/>
   </g>
   <g id="patch_85">
    <path d="M 550.998833 350.488181 
L 557.044909 350.488181 
L 557.044909 339.994451 
L 550.998833 339.994451 
z
" clip-path="url(#pf6144938ed)" style="fill: #cc6600"/>
   </g>
   <g id="patch_86">
    <path d="M 570.909002 359.459842 
L 576.924004 359.459842 
L 576.924004 342.671879 
L 570.909002 342.671879 
z
" clip-path="url(#pf6144938ed)" style="fill: #cc6600"/>
   </g>
   <g id="patch_87">
    <path d="M 590.811403 360.255953 
L 596.810867 360.255953 
L 596.810867 349.374145 
L 590.811403 349.374145 
z
" clip-path="url(#pf6144938ed)" style="fill: #cc6600"/>
   </g>
   <g id="patch_88">
    <path d="M 610.715357 356.862686 
L 616.696177 356.862686 
L 616.696177 356.862686 
L 610.715357 356.862686 
z
" clip-path="url(#pf6144938ed)" style="fill: #cc6600"/>
   </g>
   <g id="patch_89">
    <path d="M 630.606882 349.576121 
L 636.593916 349.576121 
L 636.593916 328.602947 
L 630.606882 328.602947 
z
" clip-path="url(#pf6144938ed)" style="fill: #cc6600"/>
   </g>
   <g id="patch_90">
    <path d="M 650.506175 360.710229 
L 656.483887 360.710229 
L 656.483887 360.710229 
L 650.506175 360.710229 
z
" clip-path="url(#pf6144938ed)" style="fill: #cc6600"/>
   </g>
   <g id="patch_91">
    <path d="M 670.403914 358.422519 
L 676.375411 358.422519 
L 676.375411 358.422519 
L 670.403914 358.422519 
z
" clip-path="url(#pf6144938ed)" style="fill: #cc6600"/>
   </g>
   <g id="patch_92">
    <path d="M 690.298546 352.183185 
L 696.270043 352.183185 
L 696.270043 352.183185 
L 690.298546 352.183185 
z
" clip-path="url(#pf6144938ed)" style="fill: #cc6600"/>
   </g>
   <g id="patch_93">
    <path d="M 66.60339 351.363454 
L 86.498021 351.363454 
L 86.498021 14.76 
L 66.60339 14.76 
z
" clip-path="url(#pf6144938ed)" style="fill: #006600"/>
   </g>
   <g id="patch_94">
    <path d="M 126.783765 365.015952 
L 145.685437 365.015952 
L 145.685437 14.76 
L 126.783765 14.76 
z
" clip-path="url(#pf6144938ed)" style="fill: #006600"/>
   </g>
   <g id="patch_95">
    <path d="M 147.985088 365.029708 
L 164.273379 365.029708 
L 164.273379 14.76 
L 147.985088 14.76 
z
" clip-path="url(#pf6144938ed)" style="fill: #006600"/>
   </g>
   <g id="patch_96">
    <path d="M 166.409887 365.012276 
L 185.637843 365.012276 
L 185.637843 14.76 
L 166.409887 14.76 
z
" clip-path="url(#pf6144938ed)" style="fill: #006600"/>
   </g>
   <g id="patch_97">
    <path d="M 186.049707 365.020822 
L 205.787287 365.020822 
L 205.787287 14.76 
L 186.049707 14.76 
z
" clip-path="url(#pf6144938ed)" style="fill: #006600"/>
   </g>
   <g id="patch_98">
    <path d="M 205.723708 364.093511 
L 225.902549 364.093511 
L 225.902549 14.76 
L 205.723708 14.76 
z
" clip-path="url(#pf6144938ed)" style="fill: #006600"/>
   </g>
   <g id="patch_99">
    <path d="M 226.294215 357.601677 
L 245.121307 357.601677 
L 245.121307 14.76 
L 226.294215 14.76 
z
" clip-path="url(#pf6144938ed)" style="fill: #006600"/>
   </g>
   <g id="patch_100">
    <path d="M 247.486214 333.249481 
L 263.718571 333.249481 
L 263.718571 14.76 
L 247.486214 14.76 
z
" clip-path="url(#pf6144938ed)" style="fill: #006600"/>
   </g>
   <g id="patch_101">
    <path d="M 267.800354 333.385228 
L 283.193695 333.385228 
L 283.193695 14.76 
L 267.800354 14.76 
z
" clip-path="url(#pf6144938ed)" style="fill: #006600"/>
   </g>
   <g id="patch_102">
    <path d="M 288.785708 328.700984 
L 301.997605 328.700984 
L 301.997605 14.76 
L 288.785708 14.76 
z
" clip-path="url(#pf6144938ed)" style="fill: #006600"/>
   </g>
   <g id="patch_103">
    <path d="M 309.410595 329.752611 
L 321.161982 329.752611 
L 321.161982 14.76 
L 309.410595 14.76 
z
" clip-path="url(#pf6144938ed)" style="fill: #006600"/>
   </g>
   <g id="patch_104">
    <path d="M 330.198624 327.769329 
L 340.163217 327.769329 
L 340.163217 14.76 
L 330.198624 14.76 
z
" clip-path="url(#pf6144938ed)" style="fill: #006600"/>
   </g>
   <g id="patch_105">
    <path d="M 350.414878 331.355358 
L 359.736226 331.355358 
L 359.736226 14.76 
L 350.414878 14.76 
z
" clip-path="url(#pf6144938ed)" style="fill: #006600"/>
   </g>
   <g id="patch_106">
    <path d="M 370.783399 332.239913 
L 379.156969 332.239913 
L 379.156969 14.76 
L 370.783399 14.76 
z
" clip-path="url(#pf6144938ed)" style="fill: #006600"/>
   </g>
   <g id="patch_107">
    <path d="M 391.095985 333.818866 
L 398.633646 333.818866 
L 398.633646 14.76 
L 391.095985 14.76 
z
" clip-path="url(#pf6144938ed)" style="fill: #006600"/>
   </g>
   <g id="patch_108">
    <path d="M 410.951774 329.116246 
L 418.567122 329.116246 
L 418.567122 14.76 
L 410.951774 14.76 
z
" clip-path="url(#pf6144938ed)" style="fill: #006600"/>
   </g>
   <g id="patch_109">
    <path d="M 431.270575 330.120224 
L 438.037584 330.120224 
L 438.037584 14.76 
L 431.270575 14.76 
z
" clip-path="url(#pf6144938ed)" style="fill: #006600"/>
   </g>
   <g id="patch_110">
    <path d="M 451.312812 330.259092 
L 457.784611 330.259092 
L 457.784611 14.76 
L 451.312812 14.76 
z
" clip-path="url(#pf6144938ed)" style="fill: #006600"/>
   </g>
   <g id="patch_111">
    <path d="M 471.21832 335.404883 
L 477.668367 335.404883 
L 477.668367 14.76 
L 471.21832 14.76 
z
" clip-path="url(#pf6144938ed)" style="fill: #006600"/>
   </g>
   <g id="patch_112">
    <path d="M 491.049249 348.240148 
L 497.626702 348.240148 
L 497.626702 14.76 
L 491.049249 14.76 
z
" clip-path="url(#pf6144938ed)" style="fill: #006600"/>
   </g>
   <g id="patch_113">
    <path d="M 511.148974 341.967238 
L 517.316241 341.967238 
L 517.316241 14.76 
L 511.148974 14.76 
z
" clip-path="url(#pf6144938ed)" style="fill: #006600"/>
   </g>
   <g id="patch_114">
    <path d="M 531.051374 341.250075 
L 537.203104 341.250075 
L 537.203104 14.76 
L 531.051374 14.76 
z
" clip-path="url(#pf6144938ed)" style="fill: #006600"/>
   </g>
   <g id="patch_115">
    <path d="M 550.998833 339.994451 
L 557.044909 339.994451 
L 557.044909 14.76 
L 550.998833 14.76 
z
" clip-path="url(#pf6144938ed)" style="fill: #006600"/>
   </g>
   <g id="patch_116">
    <path d="M 570.909002 342.671879 
L 576.924004 342.671879 
L 576.924004 14.76 
L 570.909002 14.76 
z
" clip-path="url(#pf6144938ed)" style="fill: #006600"/>
   </g>
   <g id="patch_117">
    <path d="M 590.811403 349.374145 
L 596.810867 349.374145 
L 596.810867 14.76 
L 590.811403 14.76 
z
" clip-path="url(#pf6144938ed)" style="fill: #006600"/>
   </g>
   <g id="patch_118">
    <path d="M 610.715357 356.862686 
L 616.696177 356.862686 
L 616.696177 14.76 
L 610.715357 14.76 
z
" clip-path="url(#pf6144938ed)" style="fill: #006600"/>
   </g>
   <g id="patch_119">
    <path d="M 630.606882 328.602947 
L 636.593916 328.602947 
L 636.593916 14.76 
L 630.606882 14.76 
z
" clip-path="url(#pf6144938ed)" style="fill: #006600"/>
   </g>
   <g id="patch_120">
    <path d="M 650.506175 360.710229 
L 656.483887 360.710229 
L 656.483887 14.76 
L 650.506175 14.76 
z
" clip-path="url(#pf6144938ed)" style="fill: #006600"/>
   </g>
   <g id="patch_121">
    <path d="M 670.403914 358.422519 
L 676.375411 358.422519 
L 676.375411 14.76 
L 670.403914 14.76 
z
" clip-path="url(#pf6144938ed)" style="fill: #006600"/>
   </g>
   <g id="patch_122">
    <path d="M 690.298546 352.183185 
L 696.270043 352.183185 
L 696.270043 14.76 
L 690.298546 14.76 
z
" clip-path="url(#pf6144938ed)" style="fill: #006600"/>
   </g>
   <g id="matplotlib.axis_1">
    <g id="xtick_1">
     <g id="line2d_1">
      <defs>
       <path id="mce27be1597" d="M 0 0 
L 0 3.5 
" style="stroke: #000000; stroke-width: 0.8"/>
      </defs>
      <g>
       <use xlink:href="#mce27be1597" x="76.550706" y="365.161" style="stroke: #000000; stroke-width: 0.8"/>
      </g>
     </g>
     <g id="text_1">
      <!-- Weighted -->
      <g transform="translate(73.711174 419.500063) rotate(-90) scale(0.1 -0.1)">
       <defs>
        <path id="DejaVuSans-57" d="M 213 4666 
L 850 4666 
L 1831 722 
L 2809 4666 
L 3519 4666 
L 4500 722 
L 5478 4666 
L 6119 4666 
L 4947 0 
L 4153 0 
L 3169 4050 
L 2175 0 
L 1381 0 
L 213 4666 
z
" transform="scale(0.015625)"/>
        <path id="DejaVuSans-65" d="M 3597 1894 
L 3597 1613 
L 953 1613 
Q 991 1019 1311 708 
Q 1631 397 2203 397 
Q 2534 397 2845 478 
Q 3156 559 3463 722 
L 3463 178 
Q 3153 47 2828 -22 
Q 2503 -91 2169 -91 
Q 1331 -91 842 396 
Q 353 884 353 1716 
Q 353 2575 817 3079 
Q 1281 3584 2069 3584 
Q 2775 3584 3186 3129 
Q 3597 2675 3597 1894 
z
M 3022 2063 
Q 3016 2534 2758 2815 
Q 2500 3097 2075 3097 
Q 1594 3097 1305 2825 
Q 1016 2553 972 2059 
L 3022 2063 
z
" transform="scale(0.015625)"/>
        <path id="DejaVuSans-69" d="M 603 3500 
L 1178 3500 
L 1178 0 
L 603 0 
L 603 3500 
z
M 603 4863 
L 1178 4863 
L 1178 4134 
L 603 4134 
L 603 4863 
z
" transform="scale(0.015625)"/>
        <path id="DejaVuSans-67" d="M 2906 1791 
Q 2906 2416 2648 2759 
Q 2391 3103 1925 3103 
Q 1463 3103 1205 2759 
Q 947 2416 947 1791 
Q 947 1169 1205 825 
Q 1463 481 1925 481 
Q 2391 481 2648 825 
Q 2906 1169 2906 1791 
z
M 3481 434 
Q 3481 -459 3084 -895 
Q 2688 -1331 1869 -1331 
Q 1566 -1331 1297 -1286 
Q 1028 -1241 775 -1147 
L 775 -588 
Q 1028 -725 1275 -790 
Q 1522 -856 1778 -856 
Q 2344 -856 2625 -561 
Q 2906 -266 2906 331 
L 2906 616 
Q 2728 306 2450 153 
Q 2172 0 1784 0 
Q 1141 0 747 490 
Q 353 981 353 1791 
Q 353 2603 747 3093 
Q 1141 3584 1784 3584 
Q 2172 3584 2450 3431 
Q 2728 3278 2906 2969 
L 2906 3500 
L 3481 3500 
L 3481 434 
z
" transform="scale(0.015625)"/>
        <path id="DejaVuSans-68" d="M 3513 2113 
L 3513 0 
L 2938 0 
L 2938 2094 
Q 2938 2591 2744 2837 
Q 2550 3084 2163 3084 
Q 1697 3084 1428 2787 
Q 1159 2491 1159 1978 
L 1159 0 
L 581 0 
L 581 4863 
L 1159 4863 
L 1159 2956 
Q 1366 3272 1645 3428 
Q 1925 3584 2291 3584 
Q 2894 3584 3203 3211 
Q 3513 2838 3513 2113 
z
" transform="scale(0.015625)"/>
        <path id="DejaVuSans-74" d="M 1172 4494 
L 1172 3500 
L 2356 3500 
L 2356 3053 
L 1172 3053 
L 1172 1153 
Q 1172 725 1289 603 
Q 1406 481 1766 481 
L 2356 481 
L 2356 0 
L 1766 0 
Q 1100 0 847 248 
Q 594 497 594 1153 
L 594 3053 
L 172 3053 
L 172 3500 
L 594 3500 
L 594 4494 
L 1172 4494 
z
" transform="scale(0.015625)"/>
        <path id="DejaVuSans-64" d="M 2906 2969 
L 2906 4863 
L 3481 4863 
L 3481 0 
L 2906 0 
L 2906 525 
Q 2725 213 2448 61 
Q 2172 -91 1784 -91 
Q 1150 -91 751 415 
Q 353 922 353 1747 
Q 353 2572 751 3078 
Q 1150 3584 1784 3584 
Q 2172 3584 2448 3432 
Q 2725 3281 2906 2969 
z
M 947 1747 
Q 947 1113 1208 752 
Q 1469 391 1925 391 
Q 2381 391 2643 752 
Q 2906 1113 2906 1747 
Q 2906 2381 2643 2742 
Q 2381 3103 1925 3103 
Q 1469 3103 1208 2742 
Q 947 2381 947 1747 
z
" transform="scale(0.015625)"/>
       </defs>
       <use xlink:href="#DejaVuSans-57"/>
       <use xlink:href="#DejaVuSans-65" transform="translate(93.001953 0)"/>
       <use xlink:href="#DejaVuSans-69" transform="translate(154.525391 0)"/>
       <use xlink:href="#DejaVuSans-67" transform="translate(182.308594 0)"/>
       <use xlink:href="#DejaVuSans-68" transform="translate(245.785156 0)"/>
       <use xlink:href="#DejaVuSans-74" transform="translate(309.164062 0)"/>
       <use xlink:href="#DejaVuSans-65" transform="translate(348.373047 0)"/>
       <use xlink:href="#DejaVuSans-64" transform="translate(409.896484 0)"/>
      </g>
      <!-- Average -->
      <g transform="translate(84.908987 416.363344) rotate(-90) scale(0.1 -0.1)">
       <defs>
        <path id="DejaVuSans-41" d="M 2188 4044 
L 1331 1722 
L 3047 1722 
L 2188 4044 
z
M 1831 4666 
L 2547 4666 
L 4325 0 
L 3669 0 
L 3244 1197 
L 1141 1197 
L 716 0 
L 50 0 
L 1831 4666 
z
" transform="scale(0.015625)"/>
        <path id="DejaVuSans-76" d="M 191 3500 
L 800 3500 
L 1894 563 
L 2988 3500 
L 3597 3500 
L 2284 0 
L 1503 0 
L 191 3500 
z
" transform="scale(0.015625)"/>
        <path id="DejaVuSans-72" d="M 2631 2963 
Q 2534 3019 2420 3045 
Q 2306 3072 2169 3072 
Q 1681 3072 1420 2755 
Q 1159 2438 1159 1844 
L 1159 0 
L 581 0 
L 581 3500 
L 1159 3500 
L 1159 2956 
Q 1341 3275 1631 3429 
Q 1922 3584 2338 3584 
Q 2397 3584 2469 3576 
Q 2541 3569 2628 3553 
L 2631 2963 
z
" transform="scale(0.015625)"/>
        <path id="DejaVuSans-61" d="M 2194 1759 
Q 1497 1759 1228 1600 
Q 959 1441 959 1056 
Q 959 750 1161 570 
Q 1363 391 1709 391 
Q 2188 391 2477 730 
Q 2766 1069 2766 1631 
L 2766 1759 
L 2194 1759 
z
M 3341 1997 
L 3341 0 
L 2766 0 
L 2766 531 
Q 2569 213 2275 61 
Q 1981 -91 1556 -91 
Q 1019 -91 701 211 
Q 384 513 384 1019 
Q 384 1609 779 1909 
Q 1175 2209 1959 2209 
L 2766 2209 
L 2766 2266 
Q 2766 2663 2505 2880 
Q 2244 3097 1772 3097 
Q 1472 3097 1187 3025 
Q 903 2953 641 2809 
L 641 3341 
Q 956 3463 1253 3523 
Q 1550 3584 1831 3584 
Q 2591 3584 2966 3190 
Q 3341 2797 3341 1997 
z
" transform="scale(0.015625)"/>
       </defs>
       <use xlink:href="#DejaVuSans-41"/>
       <use xlink:href="#DejaVuSans-76" transform="translate(62.533203 0)"/>
       <use xlink:href="#DejaVuSans-65" transform="translate(121.712891 0)"/>
       <use xlink:href="#DejaVuSans-72" transform="translate(183.236328 0)"/>
       <use xlink:href="#DejaVuSans-61" transform="translate(224.349609 0)"/>
       <use xlink:href="#DejaVuSans-67" transform="translate(285.628906 0)"/>
       <use xlink:href="#DejaVuSans-65" transform="translate(349.105469 0)"/>
      </g>
     </g>
    </g>
    <g id="xtick_2">
     <g id="line2d_2">
      <g>
       <use xlink:href="#mce27be1597" x="136.234601" y="365.161" style="stroke: #000000; stroke-width: 0.8"/>
      </g>
     </g>
     <g id="text_2">
      <!-- 1 -->
      <g transform="translate(138.993976 378.5235) rotate(-90) scale(0.1 -0.1)">
       <defs>
        <path id="DejaVuSans-31" d="M 794 531 
L 1825 531 
L 1825 4091 
L 703 3866 
L 703 4441 
L 1819 4666 
L 2450 4666 
L 2450 531 
L 3481 531 
L 3481 0 
L 794 0 
L 794 531 
z
" transform="scale(0.015625)"/>
       </defs>
       <use xlink:href="#DejaVuSans-31"/>
      </g>
     </g>
    </g>
    <g id="xtick_3">
     <g id="line2d_3">
      <g>
       <use xlink:href="#mce27be1597" x="156.129233" y="365.161" style="stroke: #000000; stroke-width: 0.8"/>
      </g>
     </g>
     <g id="text_3">
      <!-- 2 -->
      <g transform="translate(158.888608 378.5235) rotate(-90) scale(0.1 -0.1)">
       <defs>
        <path id="DejaVuSans-32" d="M 1228 531 
L 3431 531 
L 3431 0 
L 469 0 
L 469 531 
Q 828 903 1448 1529 
Q 2069 2156 2228 2338 
Q 2531 2678 2651 2914 
Q 2772 3150 2772 3378 
Q 2772 3750 2511 3984 
Q 2250 4219 1831 4219 
Q 1534 4219 1204 4116 
Q 875 4013 500 3803 
L 500 4441 
Q 881 4594 1212 4672 
Q 1544 4750 1819 4750 
Q 2544 4750 2975 4387 
Q 3406 4025 3406 3419 
Q 3406 3131 3298 2873 
Q 3191 2616 2906 2266 
Q 2828 2175 2409 1742 
Q 1991 1309 1228 531 
z
" transform="scale(0.015625)"/>
       </defs>
       <use xlink:href="#DejaVuSans-32"/>
      </g>
     </g>
    </g>
    <g id="xtick_4">
     <g id="line2d_4">
      <g>
       <use xlink:href="#mce27be1597" x="176.023865" y="365.161" style="stroke: #000000; stroke-width: 0.8"/>
      </g>
     </g>
     <g id="text_4">
      <!-- 3 -->
      <g transform="translate(178.78324 378.5235) rotate(-90) scale(0.1 -0.1)">
       <defs>
        <path id="DejaVuSans-33" d="M 2597 2516 
Q 3050 2419 3304 2112 
Q 3559 1806 3559 1356 
Q 3559 666 3084 287 
Q 2609 -91 1734 -91 
Q 1441 -91 1130 -33 
Q 819 25 488 141 
L 488 750 
Q 750 597 1062 519 
Q 1375 441 1716 441 
Q 2309 441 2620 675 
Q 2931 909 2931 1356 
Q 2931 1769 2642 2001 
Q 2353 2234 1838 2234 
L 1294 2234 
L 1294 2753 
L 1863 2753 
Q 2328 2753 2575 2939 
Q 2822 3125 2822 3475 
Q 2822 3834 2567 4026 
Q 2313 4219 1838 4219 
Q 1578 4219 1281 4162 
Q 984 4106 628 3988 
L 628 4550 
Q 988 4650 1302 4700 
Q 1616 4750 1894 4750 
Q 2613 4750 3031 4423 
Q 3450 4097 3450 3541 
Q 3450 3153 3228 2886 
Q 3006 2619 2597 2516 
z
" transform="scale(0.015625)"/>
       </defs>
       <use xlink:href="#DejaVuSans-33"/>
      </g>
     </g>
    </g>
    <g id="xtick_5">
     <g id="line2d_5">
      <g>
       <use xlink:href="#mce27be1597" x="195.918497" y="365.161" style="stroke: #000000; stroke-width: 0.8"/>
      </g>
     </g>
     <g id="text_5">
      <!-- 4 -->
      <g transform="translate(198.677872 378.5235) rotate(-90) scale(0.1 -0.1)">
       <defs>
        <path id="DejaVuSans-34" d="M 2419 4116 
L 825 1625 
L 2419 1625 
L 2419 4116 
z
M 2253 4666 
L 3047 4666 
L 3047 1625 
L 3713 1625 
L 3713 1100 
L 3047 1100 
L 3047 0 
L 2419 0 
L 2419 1100 
L 313 1100 
L 313 1709 
L 2253 4666 
z
" transform="scale(0.015625)"/>
       </defs>
       <use xlink:href="#DejaVuSans-34"/>
      </g>
     </g>
    </g>
    <g id="xtick_6">
     <g id="line2d_6">
      <g>
       <use xlink:href="#mce27be1597" x="215.813129" y="365.161" style="stroke: #000000; stroke-width: 0.8"/>
      </g>
     </g>
     <g id="text_6">
      <!-- 5 -->
      <g transform="translate(218.572504 378.5235) rotate(-90) scale(0.1 -0.1)">
       <defs>
        <path id="DejaVuSans-35" d="M 691 4666 
L 3169 4666 
L 3169 4134 
L 1269 4134 
L 1269 2991 
Q 1406 3038 1543 3061 
Q 1681 3084 1819 3084 
Q 2600 3084 3056 2656 
Q 3513 2228 3513 1497 
Q 3513 744 3044 326 
Q 2575 -91 1722 -91 
Q 1428 -91 1123 -41 
Q 819 9 494 109 
L 494 744 
Q 775 591 1075 516 
Q 1375 441 1709 441 
Q 2250 441 2565 725 
Q 2881 1009 2881 1497 
Q 2881 1984 2565 2268 
Q 2250 2553 1709 2553 
Q 1456 2553 1204 2497 
Q 953 2441 691 2322 
L 691 4666 
z
" transform="scale(0.015625)"/>
       </defs>
       <use xlink:href="#DejaVuSans-35"/>
      </g>
     </g>
    </g>
    <g id="xtick_7">
     <g id="line2d_7">
      <g>
       <use xlink:href="#mce27be1597" x="235.707761" y="365.161" style="stroke: #000000; stroke-width: 0.8"/>
      </g>
     </g>
     <g id="text_7">
      <!-- 6 -->
      <g transform="translate(238.467136 378.5235) rotate(-90) scale(0.1 -0.1)">
       <defs>
        <path id="DejaVuSans-36" d="M 2113 2584 
Q 1688 2584 1439 2293 
Q 1191 2003 1191 1497 
Q 1191 994 1439 701 
Q 1688 409 2113 409 
Q 2538 409 2786 701 
Q 3034 994 3034 1497 
Q 3034 2003 2786 2293 
Q 2538 2584 2113 2584 
z
M 3366 4563 
L 3366 3988 
Q 3128 4100 2886 4159 
Q 2644 4219 2406 4219 
Q 1781 4219 1451 3797 
Q 1122 3375 1075 2522 
Q 1259 2794 1537 2939 
Q 1816 3084 2150 3084 
Q 2853 3084 3261 2657 
Q 3669 2231 3669 1497 
Q 3669 778 3244 343 
Q 2819 -91 2113 -91 
Q 1303 -91 875 529 
Q 447 1150 447 2328 
Q 447 3434 972 4092 
Q 1497 4750 2381 4750 
Q 2619 4750 2861 4703 
Q 3103 4656 3366 4563 
z
" transform="scale(0.015625)"/>
       </defs>
       <use xlink:href="#DejaVuSans-36"/>
      </g>
     </g>
    </g>
    <g id="xtick_8">
     <g id="line2d_8">
      <g>
       <use xlink:href="#mce27be1597" x="255.602393" y="365.161" style="stroke: #000000; stroke-width: 0.8"/>
      </g>
     </g>
     <g id="text_8">
      <!-- 7 -->
      <g transform="translate(258.361768 378.5235) rotate(-90) scale(0.1 -0.1)">
       <defs>
        <path id="DejaVuSans-37" d="M 525 4666 
L 3525 4666 
L 3525 4397 
L 1831 0 
L 1172 0 
L 2766 4134 
L 525 4134 
L 525 4666 
z
" transform="scale(0.015625)"/>
       </defs>
       <use xlink:href="#DejaVuSans-37"/>
      </g>
     </g>
    </g>
    <g id="xtick_9">
     <g id="line2d_9">
      <g>
       <use xlink:href="#mce27be1597" x="275.497025" y="365.161" style="stroke: #000000; stroke-width: 0.8"/>
      </g>
     </g>
     <g id="text_9">
      <!-- 8 -->
      <g transform="translate(278.2564 378.5235) rotate(-90) scale(0.1 -0.1)">
       <defs>
        <path id="DejaVuSans-38" d="M 2034 2216 
Q 1584 2216 1326 1975 
Q 1069 1734 1069 1313 
Q 1069 891 1326 650 
Q 1584 409 2034 409 
Q 2484 409 2743 651 
Q 3003 894 3003 1313 
Q 3003 1734 2745 1975 
Q 2488 2216 2034 2216 
z
M 1403 2484 
Q 997 2584 770 2862 
Q 544 3141 544 3541 
Q 544 4100 942 4425 
Q 1341 4750 2034 4750 
Q 2731 4750 3128 4425 
Q 3525 4100 3525 3541 
Q 3525 3141 3298 2862 
Q 3072 2584 2669 2484 
Q 3125 2378 3379 2068 
Q 3634 1759 3634 1313 
Q 3634 634 3220 271 
Q 2806 -91 2034 -91 
Q 1263 -91 848 271 
Q 434 634 434 1313 
Q 434 1759 690 2068 
Q 947 2378 1403 2484 
z
M 1172 3481 
Q 1172 3119 1398 2916 
Q 1625 2713 2034 2713 
Q 2441 2713 2670 2916 
Q 2900 3119 2900 3481 
Q 2900 3844 2670 4047 
Q 2441 4250 2034 4250 
Q 1625 4250 1398 4047 
Q 1172 3844 1172 3481 
z
" transform="scale(0.015625)"/>
       </defs>
       <use xlink:href="#DejaVuSans-38"/>
      </g>
     </g>
    </g>
    <g id="xtick_10">
     <g id="line2d_10">
      <g>
       <use xlink:href="#mce27be1597" x="295.391656" y="365.161" style="stroke: #000000; stroke-width: 0.8"/>
      </g>
     </g>
     <g id="text_10">
      <!-- 9 -->
      <g transform="translate(298.151031 378.5235) rotate(-90) scale(0.1 -0.1)">
       <defs>
        <path id="DejaVuSans-39" d="M 703 97 
L 703 672 
Q 941 559 1184 500 
Q 1428 441 1663 441 
Q 2288 441 2617 861 
Q 2947 1281 2994 2138 
Q 2813 1869 2534 1725 
Q 2256 1581 1919 1581 
Q 1219 1581 811 2004 
Q 403 2428 403 3163 
Q 403 3881 828 4315 
Q 1253 4750 1959 4750 
Q 2769 4750 3195 4129 
Q 3622 3509 3622 2328 
Q 3622 1225 3098 567 
Q 2575 -91 1691 -91 
Q 1453 -91 1209 -44 
Q 966 3 703 97 
z
M 1959 2075 
Q 2384 2075 2632 2365 
Q 2881 2656 2881 3163 
Q 2881 3666 2632 3958 
Q 2384 4250 1959 4250 
Q 1534 4250 1286 3958 
Q 1038 3666 1038 3163 
Q 1038 2656 1286 2365 
Q 1534 2075 1959 2075 
z
" transform="scale(0.015625)"/>
       </defs>
       <use xlink:href="#DejaVuSans-39"/>
      </g>
     </g>
    </g>
    <g id="xtick_11">
     <g id="line2d_11">
      <g>
       <use xlink:href="#mce27be1597" x="315.286288" y="365.161" style="stroke: #000000; stroke-width: 0.8"/>
      </g>
     </g>
     <g id="text_11">
      <!-- 10 -->
      <g transform="translate(318.045663 384.886) rotate(-90) scale(0.1 -0.1)">
       <defs>
        <path id="DejaVuSans-30" d="M 2034 4250 
Q 1547 4250 1301 3770 
Q 1056 3291 1056 2328 
Q 1056 1369 1301 889 
Q 1547 409 2034 409 
Q 2525 409 2770 889 
Q 3016 1369 3016 2328 
Q 3016 3291 2770 3770 
Q 2525 4250 2034 4250 
z
M 2034 4750 
Q 2819 4750 3233 4129 
Q 3647 3509 3647 2328 
Q 3647 1150 3233 529 
Q 2819 -91 2034 -91 
Q 1250 -91 836 529 
Q 422 1150 422 2328 
Q 422 3509 836 4129 
Q 1250 4750 2034 4750 
z
" transform="scale(0.015625)"/>
       </defs>
       <use xlink:href="#DejaVuSans-31"/>
       <use xlink:href="#DejaVuSans-30" transform="translate(63.623047 0)"/>
      </g>
     </g>
    </g>
    <g id="xtick_12">
     <g id="line2d_12">
      <g>
       <use xlink:href="#mce27be1597" x="335.18092" y="365.161" style="stroke: #000000; stroke-width: 0.8"/>
      </g>
     </g>
     <g id="text_12">
      <!-- 11 -->
      <g transform="translate(337.940295 384.886) rotate(-90) scale(0.1 -0.1)">
       <use xlink:href="#DejaVuSans-31"/>
       <use xlink:href="#DejaVuSans-31" transform="translate(63.623047 0)"/>
      </g>
     </g>
    </g>
    <g id="xtick_13">
     <g id="line2d_13">
      <g>
       <use xlink:href="#mce27be1597" x="355.075552" y="365.161" style="stroke: #000000; stroke-width: 0.8"/>
      </g>
     </g>
     <g id="text_13">
      <!-- 12 -->
      <g transform="translate(357.834927 384.886) rotate(-90) scale(0.1 -0.1)">
       <use xlink:href="#DejaVuSans-31"/>
       <use xlink:href="#DejaVuSans-32" transform="translate(63.623047 0)"/>
      </g>
     </g>
    </g>
    <g id="xtick_14">
     <g id="line2d_14">
      <g>
       <use xlink:href="#mce27be1597" x="374.970184" y="365.161" style="stroke: #000000; stroke-width: 0.8"/>
      </g>
     </g>
     <g id="text_14">
      <!-- 13 -->
      <g transform="translate(377.729559 384.886) rotate(-90) scale(0.1 -0.1)">
       <use xlink:href="#DejaVuSans-31"/>
       <use xlink:href="#DejaVuSans-33" transform="translate(63.623047 0)"/>
      </g>
     </g>
    </g>
    <g id="xtick_15">
     <g id="line2d_15">
      <g>
       <use xlink:href="#mce27be1597" x="394.864816" y="365.161" style="stroke: #000000; stroke-width: 0.8"/>
      </g>
     </g>
     <g id="text_15">
      <!-- 14 -->
      <g transform="translate(397.624191 384.886) rotate(-90) scale(0.1 -0.1)">
       <use xlink:href="#DejaVuSans-31"/>
       <use xlink:href="#DejaVuSans-34" transform="translate(63.623047 0)"/>
      </g>
     </g>
    </g>
    <g id="xtick_16">
     <g id="line2d_16">
      <g>
       <use xlink:href="#mce27be1597" x="414.759448" y="365.161" style="stroke: #000000; stroke-width: 0.8"/>
      </g>
     </g>
     <g id="text_16">
      <!-- 15 -->
      <g transform="translate(417.518823 384.886) rotate(-90) scale(0.1 -0.1)">
       <use xlink:href="#DejaVuSans-31"/>
       <use xlink:href="#DejaVuSans-35" transform="translate(63.623047 0)"/>
      </g>
     </g>
    </g>
    <g id="xtick_17">
     <g id="line2d_17">
      <g>
       <use xlink:href="#mce27be1597" x="434.65408" y="365.161" style="stroke: #000000; stroke-width: 0.8"/>
      </g>
     </g>
     <g id="text_17">
      <!-- 16 -->
      <g transform="translate(437.413455 384.886) rotate(-90) scale(0.1 -0.1)">
       <use xlink:href="#DejaVuSans-31"/>
       <use xlink:href="#DejaVuSans-36" transform="translate(63.623047 0)"/>
      </g>
     </g>
    </g>
    <g id="xtick_18">
     <g id="line2d_18">
      <g>
       <use xlink:href="#mce27be1597" x="454.548712" y="365.161" style="stroke: #000000; stroke-width: 0.8"/>
      </g>
     </g>
     <g id="text_18">
      <!-- 17 -->
      <g transform="translate(457.308087 384.886) rotate(-90) scale(0.1 -0.1)">
       <use xlink:href="#DejaVuSans-31"/>
       <use xlink:href="#DejaVuSans-37" transform="translate(63.623047 0)"/>
      </g>
     </g>
    </g>
    <g id="xtick_19">
     <g id="line2d_19">
      <g>
       <use xlink:href="#mce27be1597" x="474.443344" y="365.161" style="stroke: #000000; stroke-width: 0.8"/>
      </g>
     </g>
     <g id="text_19">
      <!-- 18 -->
      <g transform="translate(477.202719 384.886) rotate(-90) scale(0.1 -0.1)">
       <use xlink:href="#DejaVuSans-31"/>
       <use xlink:href="#DejaVuSans-38" transform="translate(63.623047 0)"/>
      </g>
     </g>
    </g>
    <g id="xtick_20">
     <g id="line2d_20">
      <g>
       <use xlink:href="#mce27be1597" x="494.337975" y="365.161" style="stroke: #000000; stroke-width: 0.8"/>
      </g>
     </g>
     <g id="text_20">
      <!-- 19 -->
      <g transform="translate(497.09735 384.886) rotate(-90) scale(0.1 -0.1)">
       <use xlink:href="#DejaVuSans-31"/>
       <use xlink:href="#DejaVuSans-39" transform="translate(63.623047 0)"/>
      </g>
     </g>
    </g>
    <g id="xtick_21">
     <g id="line2d_21">
      <g>
       <use xlink:href="#mce27be1597" x="514.232607" y="365.161" style="stroke: #000000; stroke-width: 0.8"/>
      </g>
     </g>
     <g id="text_21">
      <!-- 20 -->
      <g transform="translate(516.991982 384.886) rotate(-90) scale(0.1 -0.1)">
       <use xlink:href="#DejaVuSans-32"/>
       <use xlink:href="#DejaVuSans-30" transform="translate(63.623047 0)"/>
      </g>
     </g>
    </g>
    <g id="xtick_22">
     <g id="line2d_22">
      <g>
       <use xlink:href="#mce27be1597" x="534.127239" y="365.161" style="stroke: #000000; stroke-width: 0.8"/>
      </g>
     </g>
     <g id="text_22">
      <!-- 21 -->
      <g transform="translate(536.886614 384.886) rotate(-90) scale(0.1 -0.1)">
       <use xlink:href="#DejaVuSans-32"/>
       <use xlink:href="#DejaVuSans-31" transform="translate(63.623047 0)"/>
      </g>
     </g>
    </g>
    <g id="xtick_23">
     <g id="line2d_23">
      <g>
       <use xlink:href="#mce27be1597" x="554.021871" y="365.161" style="stroke: #000000; stroke-width: 0.8"/>
      </g>
     </g>
     <g id="text_23">
      <!-- 22 -->
      <g transform="translate(556.781246 384.886) rotate(-90) scale(0.1 -0.1)">
       <use xlink:href="#DejaVuSans-32"/>
       <use xlink:href="#DejaVuSans-32" transform="translate(63.623047 0)"/>
      </g>
     </g>
    </g>
    <g id="xtick_24">
     <g id="line2d_24">
      <g>
       <use xlink:href="#mce27be1597" x="573.916503" y="365.161" style="stroke: #000000; stroke-width: 0.8"/>
      </g>
     </g>
     <g id="text_24">
      <!-- 23 -->
      <g transform="translate(576.675878 384.886) rotate(-90) scale(0.1 -0.1)">
       <use xlink:href="#DejaVuSans-32"/>
       <use xlink:href="#DejaVuSans-33" transform="translate(63.623047 0)"/>
      </g>
     </g>
    </g>
    <g id="xtick_25">
     <g id="line2d_25">
      <g>
       <use xlink:href="#mce27be1597" x="593.811135" y="365.161" style="stroke: #000000; stroke-width: 0.8"/>
      </g>
     </g>
     <g id="text_25">
      <!-- 24 -->
      <g transform="translate(596.57051 384.886) rotate(-90) scale(0.1 -0.1)">
       <use xlink:href="#DejaVuSans-32"/>
       <use xlink:href="#DejaVuSans-34" transform="translate(63.623047 0)"/>
      </g>
     </g>
    </g>
    <g id="xtick_26">
     <g id="line2d_26">
      <g>
       <use xlink:href="#mce27be1597" x="613.705767" y="365.161" style="stroke: #000000; stroke-width: 0.8"/>
      </g>
     </g>
     <g id="text_26">
      <!-- 25 -->
      <g transform="translate(616.465142 384.886) rotate(-90) scale(0.1 -0.1)">
       <use xlink:href="#DejaVuSans-32"/>
       <use xlink:href="#DejaVuSans-35" transform="translate(63.623047 0)"/>
      </g>
     </g>
    </g>
    <g id="xtick_27">
     <g id="line2d_27">
      <g>
       <use xlink:href="#mce27be1597" x="633.600399" y="365.161" style="stroke: #000000; stroke-width: 0.8"/>
      </g>
     </g>
     <g id="text_27">
      <!-- 26 -->
      <g transform="translate(636.359774 384.886) rotate(-90) scale(0.1 -0.1)">
       <use xlink:href="#DejaVuSans-32"/>
       <use xlink:href="#DejaVuSans-36" transform="translate(63.623047 0)"/>
      </g>
     </g>
    </g>
    <g id="xtick_28">
     <g id="line2d_28">
      <g>
       <use xlink:href="#mce27be1597" x="653.495031" y="365.161" style="stroke: #000000; stroke-width: 0.8"/>
      </g>
     </g>
     <g id="text_28">
      <!-- 27 -->
      <g transform="translate(656.254406 384.886) rotate(-90) scale(0.1 -0.1)">
       <use xlink:href="#DejaVuSans-32"/>
       <use xlink:href="#DejaVuSans-37" transform="translate(63.623047 0)"/>
      </g>
     </g>
    </g>
    <g id="xtick_29">
     <g id="line2d_29">
      <g>
       <use xlink:href="#mce27be1597" x="673.389663" y="365.161" style="stroke: #000000; stroke-width: 0.8"/>
      </g>
     </g>
     <g id="text_29">
      <!-- 28 -->
      <g transform="translate(676.149038 384.886) rotate(-90) scale(0.1 -0.1)">
       <use xlink:href="#DejaVuSans-32"/>
       <use xlink:href="#DejaVuSans-38" transform="translate(63.623047 0)"/>
      </g>
     </g>
    </g>
    <g id="xtick_30">
     <g id="line2d_30">
      <g>
       <use xlink:href="#mce27be1597" x="693.284294" y="365.161" style="stroke: #000000; stroke-width: 0.8"/>
      </g>
     </g>
     <g id="text_30">
      <!-- 29 -->
      <g transform="translate(696.043669 384.886) rotate(-90) scale(0.1 -0.1)">
       <use xlink:href="#DejaVuSans-32"/>
       <use xlink:href="#DejaVuSans-39" transform="translate(63.623047 0)"/>
      </g>
     </g>
    </g>
    <g id="text_31">
     <!-- Input Length -->
     <g transform="translate(353.134688 407.0985) scale(0.1 -0.1)">
      <defs>
       <path id="DejaVuSans-49" d="M 628 4666 
L 1259 4666 
L 1259 0 
L 628 0 
L 628 4666 
z
" transform="scale(0.015625)"/>
       <path id="DejaVuSans-6e" d="M 3513 2113 
L 3513 0 
L 2938 0 
L 2938 2094 
Q 2938 2591 2744 2837 
Q 2550 3084 2163 3084 
Q 1697 3084 1428 2787 
Q 1159 2491 1159 1978 
L 1159 0 
L 581 0 
L 581 3500 
L 1159 3500 
L 1159 2956 
Q 1366 3272 1645 3428 
Q 1925 3584 2291 3584 
Q 2894 3584 3203 3211 
Q 3513 2838 3513 2113 
z
" transform="scale(0.015625)"/>
       <path id="DejaVuSans-70" d="M 1159 525 
L 1159 -1331 
L 581 -1331 
L 581 3500 
L 1159 3500 
L 1159 2969 
Q 1341 3281 1617 3432 
Q 1894 3584 2278 3584 
Q 2916 3584 3314 3078 
Q 3713 2572 3713 1747 
Q 3713 922 3314 415 
Q 2916 -91 2278 -91 
Q 1894 -91 1617 61 
Q 1341 213 1159 525 
z
M 3116 1747 
Q 3116 2381 2855 2742 
Q 2594 3103 2138 3103 
Q 1681 3103 1420 2742 
Q 1159 2381 1159 1747 
Q 1159 1113 1420 752 
Q 1681 391 2138 391 
Q 2594 391 2855 752 
Q 3116 1113 3116 1747 
z
" transform="scale(0.015625)"/>
       <path id="DejaVuSans-75" d="M 544 1381 
L 544 3500 
L 1119 3500 
L 1119 1403 
Q 1119 906 1312 657 
Q 1506 409 1894 409 
Q 2359 409 2629 706 
Q 2900 1003 2900 1516 
L 2900 3500 
L 3475 3500 
L 3475 0 
L 2900 0 
L 2900 538 
Q 2691 219 2414 64 
Q 2138 -91 1772 -91 
Q 1169 -91 856 284 
Q 544 659 544 1381 
z
M 1991 3584 
L 1991 3584 
z
" transform="scale(0.015625)"/>
       <path id="DejaVuSans-20" transform="scale(0.015625)"/>
       <path id="DejaVuSans-4c" d="M 628 4666 
L 1259 4666 
L 1259 531 
L 3531 531 
L 3531 0 
L 628 0 
L 628 4666 
z
" transform="scale(0.015625)"/>
      </defs>
      <use xlink:href="#DejaVuSans-49"/>
      <use xlink:href="#DejaVuSans-6e" transform="translate(29.492188 0)"/>
      <use xlink:href="#DejaVuSans-70" transform="translate(92.871094 0)"/>
      <use xlink:href="#DejaVuSans-75" transform="translate(156.347656 0)"/>
      <use xlink:href="#DejaVuSans-74" transform="translate(219.726562 0)"/>
      <use xlink:href="#DejaVuSans-20" transform="translate(258.935547 0)"/>
      <use xlink:href="#DejaVuSans-4c" transform="translate(290.722656 0)"/>
      <use xlink:href="#DejaVuSans-65" transform="translate(344.685547 0)"/>
      <use xlink:href="#DejaVuSans-6e" transform="translate(406.208984 0)"/>
      <use xlink:href="#DejaVuSans-67" transform="translate(469.587891 0)"/>
      <use xlink:href="#DejaVuSans-74" transform="translate(533.064453 0)"/>
      <use xlink:href="#DejaVuSans-68" transform="translate(572.273438 0)"/>
     </g>
     <!-- (Bar width indicates relative number of samples) -->
     <g transform="translate(262.599531 418.296312) scale(0.1 -0.1)">
      <defs>
       <path id="DejaVuSans-28" d="M 1984 4856 
Q 1566 4138 1362 3434 
Q 1159 2731 1159 2009 
Q 1159 1288 1364 580 
Q 1569 -128 1984 -844 
L 1484 -844 
Q 1016 -109 783 600 
Q 550 1309 550 2009 
Q 550 2706 781 3412 
Q 1013 4119 1484 4856 
L 1984 4856 
z
" transform="scale(0.015625)"/>
       <path id="DejaVuSans-42" d="M 1259 2228 
L 1259 519 
L 2272 519 
Q 2781 519 3026 730 
Q 3272 941 3272 1375 
Q 3272 1813 3026 2020 
Q 2781 2228 2272 2228 
L 1259 2228 
z
M 1259 4147 
L 1259 2741 
L 2194 2741 
Q 2656 2741 2882 2914 
Q 3109 3088 3109 3444 
Q 3109 3797 2882 3972 
Q 2656 4147 2194 4147 
L 1259 4147 
z
M 628 4666 
L 2241 4666 
Q 2963 4666 3353 4366 
Q 3744 4066 3744 3513 
Q 3744 3084 3544 2831 
Q 3344 2578 2956 2516 
Q 3422 2416 3680 2098 
Q 3938 1781 3938 1306 
Q 3938 681 3513 340 
Q 3088 0 2303 0 
L 628 0 
L 628 4666 
z
" transform="scale(0.015625)"/>
       <path id="DejaVuSans-77" d="M 269 3500 
L 844 3500 
L 1563 769 
L 2278 3500 
L 2956 3500 
L 3675 769 
L 4391 3500 
L 4966 3500 
L 4050 0 
L 3372 0 
L 2619 2869 
L 1863 0 
L 1184 0 
L 269 3500 
z
" transform="scale(0.015625)"/>
       <path id="DejaVuSans-63" d="M 3122 3366 
L 3122 2828 
Q 2878 2963 2633 3030 
Q 2388 3097 2138 3097 
Q 1578 3097 1268 2742 
Q 959 2388 959 1747 
Q 959 1106 1268 751 
Q 1578 397 2138 397 
Q 2388 397 2633 464 
Q 2878 531 3122 666 
L 3122 134 
Q 2881 22 2623 -34 
Q 2366 -91 2075 -91 
Q 1284 -91 818 406 
Q 353 903 353 1747 
Q 353 2603 823 3093 
Q 1294 3584 2113 3584 
Q 2378 3584 2631 3529 
Q 2884 3475 3122 3366 
z
" transform="scale(0.015625)"/>
       <path id="DejaVuSans-73" d="M 2834 3397 
L 2834 2853 
Q 2591 2978 2328 3040 
Q 2066 3103 1784 3103 
Q 1356 3103 1142 2972 
Q 928 2841 928 2578 
Q 928 2378 1081 2264 
Q 1234 2150 1697 2047 
L 1894 2003 
Q 2506 1872 2764 1633 
Q 3022 1394 3022 966 
Q 3022 478 2636 193 
Q 2250 -91 1575 -91 
Q 1294 -91 989 -36 
Q 684 19 347 128 
L 347 722 
Q 666 556 975 473 
Q 1284 391 1588 391 
Q 1994 391 2212 530 
Q 2431 669 2431 922 
Q 2431 1156 2273 1281 
Q 2116 1406 1581 1522 
L 1381 1569 
Q 847 1681 609 1914 
Q 372 2147 372 2553 
Q 372 3047 722 3315 
Q 1072 3584 1716 3584 
Q 2034 3584 2315 3537 
Q 2597 3491 2834 3397 
z
" transform="scale(0.015625)"/>
       <path id="DejaVuSans-6c" d="M 603 4863 
L 1178 4863 
L 1178 0 
L 603 0 
L 603 4863 
z
" transform="scale(0.015625)"/>
       <path id="DejaVuSans-6d" d="M 3328 2828 
Q 3544 3216 3844 3400 
Q 4144 3584 4550 3584 
Q 5097 3584 5394 3201 
Q 5691 2819 5691 2113 
L 5691 0 
L 5113 0 
L 5113 2094 
Q 5113 2597 4934 2840 
Q 4756 3084 4391 3084 
Q 3944 3084 3684 2787 
Q 3425 2491 3425 1978 
L 3425 0 
L 2847 0 
L 2847 2094 
Q 2847 2600 2669 2842 
Q 2491 3084 2119 3084 
Q 1678 3084 1418 2786 
Q 1159 2488 1159 1978 
L 1159 0 
L 581 0 
L 581 3500 
L 1159 3500 
L 1159 2956 
Q 1356 3278 1631 3431 
Q 1906 3584 2284 3584 
Q 2666 3584 2933 3390 
Q 3200 3197 3328 2828 
z
" transform="scale(0.015625)"/>
       <path id="DejaVuSans-62" d="M 3116 1747 
Q 3116 2381 2855 2742 
Q 2594 3103 2138 3103 
Q 1681 3103 1420 2742 
Q 1159 2381 1159 1747 
Q 1159 1113 1420 752 
Q 1681 391 2138 391 
Q 2594 391 2855 752 
Q 3116 1113 3116 1747 
z
M 1159 2969 
Q 1341 3281 1617 3432 
Q 1894 3584 2278 3584 
Q 2916 3584 3314 3078 
Q 3713 2572 3713 1747 
Q 3713 922 3314 415 
Q 2916 -91 2278 -91 
Q 1894 -91 1617 61 
Q 1341 213 1159 525 
L 1159 0 
L 581 0 
L 581 4863 
L 1159 4863 
L 1159 2969 
z
" transform="scale(0.015625)"/>
       <path id="DejaVuSans-6f" d="M 1959 3097 
Q 1497 3097 1228 2736 
Q 959 2375 959 1747 
Q 959 1119 1226 758 
Q 1494 397 1959 397 
Q 2419 397 2687 759 
Q 2956 1122 2956 1747 
Q 2956 2369 2687 2733 
Q 2419 3097 1959 3097 
z
M 1959 3584 
Q 2709 3584 3137 3096 
Q 3566 2609 3566 1747 
Q 3566 888 3137 398 
Q 2709 -91 1959 -91 
Q 1206 -91 779 398 
Q 353 888 353 1747 
Q 353 2609 779 3096 
Q 1206 3584 1959 3584 
z
" transform="scale(0.015625)"/>
       <path id="DejaVuSans-66" d="M 2375 4863 
L 2375 4384 
L 1825 4384 
Q 1516 4384 1395 4259 
Q 1275 4134 1275 3809 
L 1275 3500 
L 2222 3500 
L 2222 3053 
L 1275 3053 
L 1275 0 
L 697 0 
L 697 3053 
L 147 3053 
L 147 3500 
L 697 3500 
L 697 3744 
Q 697 4328 969 4595 
Q 1241 4863 1831 4863 
L 2375 4863 
z
" transform="scale(0.015625)"/>
       <path id="DejaVuSans-29" d="M 513 4856 
L 1013 4856 
Q 1481 4119 1714 3412 
Q 1947 2706 1947 2009 
Q 1947 1309 1714 600 
Q 1481 -109 1013 -844 
L 513 -844 
Q 928 -128 1133 580 
Q 1338 1288 1338 2009 
Q 1338 2731 1133 3434 
Q 928 4138 513 4856 
z
" transform="scale(0.015625)"/>
      </defs>
      <use xlink:href="#DejaVuSans-28"/>
      <use xlink:href="#DejaVuSans-42" transform="translate(39.013672 0)"/>
      <use xlink:href="#DejaVuSans-61" transform="translate(107.617188 0)"/>
      <use xlink:href="#DejaVuSans-72" transform="translate(168.896484 0)"/>
      <use xlink:href="#DejaVuSans-20" transform="translate(210.009766 0)"/>
      <use xlink:href="#DejaVuSans-77" transform="translate(241.796875 0)"/>
      <use xlink:href="#DejaVuSans-69" transform="translate(323.583984 0)"/>
      <use xlink:href="#DejaVuSans-64" transform="translate(351.367188 0)"/>
      <use xlink:href="#DejaVuSans-74" transform="translate(414.84375 0)"/>
      <use xlink:href="#DejaVuSans-68" transform="translate(454.052734 0)"/>
      <use xlink:href="#DejaVuSans-20" transform="translate(517.431641 0)"/>
      <use xlink:href="#DejaVuSans-69" transform="translate(549.21875 0)"/>
      <use xlink:href="#DejaVuSans-6e" transform="translate(577.001953 0)"/>
      <use xlink:href="#DejaVuSans-64" transform="translate(640.380859 0)"/>
      <use xlink:href="#DejaVuSans-69" transform="translate(703.857422 0)"/>
      <use xlink:href="#DejaVuSans-63" transform="translate(731.640625 0)"/>
      <use xlink:href="#DejaVuSans-61" transform="translate(786.621094 0)"/>
      <use xlink:href="#DejaVuSans-74" transform="translate(847.900391 0)"/>
      <use xlink:href="#DejaVuSans-65" transform="translate(887.109375 0)"/>
      <use xlink:href="#DejaVuSans-73" transform="translate(948.632812 0)"/>
      <use xlink:href="#DejaVuSans-20" transform="translate(1000.732422 0)"/>
      <use xlink:href="#DejaVuSans-72" transform="translate(1032.519531 0)"/>
      <use xlink:href="#DejaVuSans-65" transform="translate(1071.382812 0)"/>
      <use xlink:href="#DejaVuSans-6c" transform="translate(1132.90625 0)"/>
      <use xlink:href="#DejaVuSans-61" transform="translate(1160.689453 0)"/>
      <use xlink:href="#DejaVuSans-74" transform="translate(1221.96875 0)"/>
      <use xlink:href="#DejaVuSans-69" transform="translate(1261.177734 0)"/>
      <use xlink:href="#DejaVuSans-76" transform="translate(1288.960938 0)"/>
      <use xlink:href="#DejaVuSans-65" transform="translate(1348.140625 0)"/>
      <use xlink:href="#DejaVuSans-20" transform="translate(1409.664062 0)"/>
      <use xlink:href="#DejaVuSans-6e" transform="translate(1441.451172 0)"/>
      <use xlink:href="#DejaVuSans-75" transform="translate(1504.830078 0)"/>
      <use xlink:href="#DejaVuSans-6d" transform="translate(1568.208984 0)"/>
      <use xlink:href="#DejaVuSans-62" transform="translate(1665.621094 0)"/>
      <use xlink:href="#DejaVuSans-65" transform="translate(1729.097656 0)"/>
      <use xlink:href="#DejaVuSans-72" transform="translate(1790.621094 0)"/>
      <use xlink:href="#DejaVuSans-20" transform="translate(1831.734375 0)"/>
      <use xlink:href="#DejaVuSans-6f" transform="translate(1863.521484 0)"/>
      <use xlink:href="#DejaVuSans-66" transform="translate(1924.703125 0)"/>
      <use xlink:href="#DejaVuSans-20" transform="translate(1959.908203 0)"/>
      <use xlink:href="#DejaVuSans-73" transform="translate(1991.695312 0)"/>
      <use xlink:href="#DejaVuSans-61" transform="translate(2043.794922 0)"/>
      <use xlink:href="#DejaVuSans-6d" transform="translate(2105.074219 0)"/>
      <use xlink:href="#DejaVuSans-70" transform="translate(2202.486328 0)"/>
      <use xlink:href="#DejaVuSans-6c" transform="translate(2265.962891 0)"/>
      <use xlink:href="#DejaVuSans-65" transform="translate(2293.746094 0)"/>
      <use xlink:href="#DejaVuSans-73" transform="translate(2355.269531 0)"/>
      <use xlink:href="#DejaVuSans-29" transform="translate(2407.369141 0)"/>
     </g>
    </g>
   </g>
   <g id="matplotlib.axis_2">
    <g id="ytick_1">
     <g id="line2d_31">
      <defs>
       <path id="meb6c5c1e48" d="M 0 0 
L -3.5 0 
" style="stroke: #000000; stroke-width: 0.8"/>
      </defs>
      <g>
       <use xlink:href="#meb6c5c1e48" x="60.635" y="363.909553" style="stroke: #000000; stroke-width: 0.8"/>
      </g>
     </g>
     <g id="text_32">
      <!-- 0.004 -->
      <g style="fill: #cc0000" transform="translate(25.006875 367.708771) scale(0.1 -0.1)">
       <defs>
        <path id="DejaVuSans-2e" d="M 684 794 
L 1344 794 
L 1344 0 
L 684 0 
L 684 794 
z
" transform="scale(0.015625)"/>
       </defs>
       <use xlink:href="#DejaVuSans-30"/>
       <use xlink:href="#DejaVuSans-2e" transform="translate(63.623047 0)"/>
       <use xlink:href="#DejaVuSans-30" transform="translate(95.410156 0)"/>
       <use xlink:href="#DejaVuSans-30" transform="translate(159.033203 0)"/>
       <use xlink:href="#DejaVuSans-34" transform="translate(222.65625 0)"/>
      </g>
     </g>
    </g>
    <g id="ytick_2">
     <g id="line2d_32">
      <g>
       <use xlink:href="#meb6c5c1e48" x="60.635" y="355.149528" style="stroke: #000000; stroke-width: 0.8"/>
      </g>
     </g>
     <g id="text_33">
      <!-- 0.022 -->
      <g style="fill: #0066cc" transform="translate(25.006875 358.948746) scale(0.1 -0.1)">
       <use xlink:href="#DejaVuSans-30"/>
       <use xlink:href="#DejaVuSans-2e" transform="translate(63.623047 0)"/>
       <use xlink:href="#DejaVuSans-30" transform="translate(95.410156 0)"/>
       <use xlink:href="#DejaVuSans-32" transform="translate(159.033203 0)"/>
       <use xlink:href="#DejaVuSans-32" transform="translate(222.65625 0)"/>
      </g>
     </g>
    </g>
    <g id="ytick_3">
     <g id="line2d_33">
      <g>
       <use xlink:href="#meb6c5c1e48" x="60.635" y="346.389503" style="stroke: #000000; stroke-width: 0.8"/>
      </g>
     </g>
     <g id="text_34">
      <!-- 0.039 -->
      <g style="fill: #cc6600" transform="translate(25.006875 350.188721) scale(0.1 -0.1)">
       <use xlink:href="#DejaVuSans-30"/>
       <use xlink:href="#DejaVuSans-2e" transform="translate(63.623047 0)"/>
       <use xlink:href="#DejaVuSans-30" transform="translate(95.410156 0)"/>
       <use xlink:href="#DejaVuSans-33" transform="translate(159.033203 0)"/>
       <use xlink:href="#DejaVuSans-39" transform="translate(222.65625 0)"/>
      </g>
     </g>
    </g>
    <g id="ytick_4">
     <g id="line2d_34">
      <g>
       <use xlink:href="#meb6c5c1e48" x="60.635" y="295.0808" style="stroke: #000000; stroke-width: 0.8"/>
      </g>
     </g>
     <g id="text_35">
      <!-- 0.200 -->
      <g transform="translate(25.006875 298.880019) scale(0.1 -0.1)">
       <use xlink:href="#DejaVuSans-30"/>
       <use xlink:href="#DejaVuSans-2e" transform="translate(63.623047 0)"/>
       <use xlink:href="#DejaVuSans-32" transform="translate(95.410156 0)"/>
       <use xlink:href="#DejaVuSans-30" transform="translate(159.033203 0)"/>
       <use xlink:href="#DejaVuSans-30" transform="translate(222.65625 0)"/>
      </g>
     </g>
    </g>
    <g id="ytick_5">
     <g id="line2d_35">
      <g>
       <use xlink:href="#meb6c5c1e48" x="60.635" y="225.0006" style="stroke: #000000; stroke-width: 0.8"/>
      </g>
     </g>
     <g id="text_36">
      <!-- 0.400 -->
      <g transform="translate(25.006875 228.799819) scale(0.1 -0.1)">
       <use xlink:href="#DejaVuSans-30"/>
       <use xlink:href="#DejaVuSans-2e" transform="translate(63.623047 0)"/>
       <use xlink:href="#DejaVuSans-34" transform="translate(95.410156 0)"/>
       <use xlink:href="#DejaVuSans-30" transform="translate(159.033203 0)"/>
       <use xlink:href="#DejaVuSans-30" transform="translate(222.65625 0)"/>
      </g>
     </g>
    </g>
    <g id="ytick_6">
     <g id="line2d_36">
      <g>
       <use xlink:href="#meb6c5c1e48" x="60.635" y="154.9204" style="stroke: #000000; stroke-width: 0.8"/>
      </g>
     </g>
     <g id="text_37">
      <!-- 0.600 -->
      <g transform="translate(25.006875 158.719619) scale(0.1 -0.1)">
       <use xlink:href="#DejaVuSans-30"/>
       <use xlink:href="#DejaVuSans-2e" transform="translate(63.623047 0)"/>
       <use xlink:href="#DejaVuSans-36" transform="translate(95.410156 0)"/>
       <use xlink:href="#DejaVuSans-30" transform="translate(159.033203 0)"/>
       <use xlink:href="#DejaVuSans-30" transform="translate(222.65625 0)"/>
      </g>
     </g>
    </g>
    <g id="ytick_7">
     <g id="line2d_37">
      <g>
       <use xlink:href="#meb6c5c1e48" x="60.635" y="84.8402" style="stroke: #000000; stroke-width: 0.8"/>
      </g>
     </g>
     <g id="text_38">
      <!-- 0.800 -->
      <g transform="translate(25.006875 88.639419) scale(0.1 -0.1)">
       <use xlink:href="#DejaVuSans-30"/>
       <use xlink:href="#DejaVuSans-2e" transform="translate(63.623047 0)"/>
       <use xlink:href="#DejaVuSans-38" transform="translate(95.410156 0)"/>
       <use xlink:href="#DejaVuSans-30" transform="translate(159.033203 0)"/>
       <use xlink:href="#DejaVuSans-30" transform="translate(222.65625 0)"/>
      </g>
     </g>
    </g>
    <g id="ytick_8">
     <g id="line2d_38">
      <g>
       <use xlink:href="#meb6c5c1e48" x="60.635" y="14.76" style="stroke: #000000; stroke-width: 0.8"/>
      </g>
     </g>
     <g id="text_39">
      <!-- 1.000 -->
      <g transform="translate(25.006875 18.559219) scale(0.1 -0.1)">
       <use xlink:href="#DejaVuSans-31"/>
       <use xlink:href="#DejaVuSans-2e" transform="translate(63.623047 0)"/>
       <use xlink:href="#DejaVuSans-30" transform="translate(95.410156 0)"/>
       <use xlink:href="#DejaVuSans-30" transform="translate(159.033203 0)"/>
       <use xlink:href="#DejaVuSans-30" transform="translate(222.65625 0)"/>
      </g>
     </g>
    </g>
    <g id="text_40">
     <!-- Ratio -->
     <g transform="translate(18.927187 202.794875) rotate(-90) scale(0.1 -0.1)">
      <defs>
       <path id="DejaVuSans-52" d="M 2841 2188 
Q 3044 2119 3236 1894 
Q 3428 1669 3622 1275 
L 4263 0 
L 3584 0 
L 2988 1197 
Q 2756 1666 2539 1819 
Q 2322 1972 1947 1972 
L 1259 1972 
L 1259 0 
L 628 0 
L 628 4666 
L 2053 4666 
Q 2853 4666 3247 4331 
Q 3641 3997 3641 3322 
Q 3641 2881 3436 2590 
Q 3231 2300 2841 2188 
z
M 1259 4147 
L 1259 2491 
L 2053 2491 
Q 2509 2491 2742 2702 
Q 2975 2913 2975 3322 
Q 2975 3731 2742 3939 
Q 2509 4147 2053 4147 
L 1259 4147 
z
" transform="scale(0.015625)"/>
      </defs>
      <use xlink:href="#DejaVuSans-52"/>
      <use xlink:href="#DejaVuSans-61" transform="translate(67.232422 0)"/>
      <use xlink:href="#DejaVuSans-74" transform="translate(128.511719 0)"/>
      <use xlink:href="#DejaVuSans-69" transform="translate(167.720703 0)"/>
      <use xlink:href="#DejaVuSans-6f" transform="translate(195.503906 0)"/>
     </g>
    </g>
   </g>
   <g id="LineCollection_1">
    <path d="M 35.120057 363.909553 
L 721 363.909553 
" clip-path="url(#pf6144938ed)" style="fill: none; stroke-dasharray: 5.55,2.4; stroke-dashoffset: 0; stroke: #cc0000; stroke-width: 1.5"/>
   </g>
   <g id="LineCollection_2">
    <path d="M 35.120057 357.427266 
L 721 357.427266 
" clip-path="url(#pf6144938ed)" style="fill: none; stroke-dasharray: 5.55,2.4; stroke-dashoffset: 0; stroke: #0066cc; stroke-width: 1.5"/>
   </g>
   <g id="LineCollection_3">
    <path d="M 35.120057 351.363454 
L 721 351.363454 
" clip-path="url(#pf6144938ed)" style="fill: none; stroke-dasharray: 5.55,2.4; stroke-dashoffset: 0; stroke: #cc6600; stroke-width: 1.5"/>
   </g>
   <g id="patch_123">
    <path d="M 60.635 365.161 
L 60.635 14.76 
" style="fill: none; stroke: #000000; stroke-width: 0.8; stroke-linejoin: miter; stroke-linecap: square"/>
   </g>
   <g id="patch_124">
    <path d="M 709.2 365.161 
L 709.2 14.76 
" style="fill: none; stroke: #000000; stroke-width: 0.8; stroke-linejoin: miter; stroke-linecap: square"/>
   </g>
   <g id="patch_125">
    <path d="M 60.635 365.161 
L 709.2 365.161 
" style="fill: none; stroke: #000000; stroke-width: 0.8; stroke-linejoin: miter; stroke-linecap: square"/>
   </g>
   <g id="patch_126">
    <path d="M 60.635 14.76 
L 709.2 14.76 
" style="fill: none; stroke: #000000; stroke-width: 0.8; stroke-linejoin: miter; stroke-linecap: square"/>
   </g>
   <g id="legend_1">
    <g id="patch_127">
     <path d="M 67.635 81.4725 
L 194.920937 81.4725 
Q 196.920937 81.4725 196.920937 79.4725 
L 196.920937 21.76 
Q 196.920937 19.76 194.920937 19.76 
L 67.635 19.76 
Q 65.635 19.76 65.635 21.76 
L 65.635 79.4725 
Q 65.635 81.4725 67.635 81.4725 
z
" style="fill: #ffffff; stroke: #cccccc; stroke-linejoin: miter"/>
    </g>
    <g id="patch_128">
     <path d="M 69.635 31.358438 
L 89.635 31.358438 
L 89.635 24.358438 
L 69.635 24.358438 
z
" style="fill: #cc0000"/>
    </g>
    <g id="text_41">
     <!-- Both Unstable -->
     <g transform="translate(97.635 31.358438) scale(0.1 -0.1)">
      <defs>
       <path id="DejaVuSans-55" d="M 556 4666 
L 1191 4666 
L 1191 1831 
Q 1191 1081 1462 751 
Q 1734 422 2344 422 
Q 2950 422 3222 751 
Q 3494 1081 3494 1831 
L 3494 4666 
L 4128 4666 
L 4128 1753 
Q 4128 841 3676 375 
Q 3225 -91 2344 -91 
Q 1459 -91 1007 375 
Q 556 841 556 1753 
L 556 4666 
z
" transform="scale(0.015625)"/>
      </defs>
      <use xlink:href="#DejaVuSans-42"/>
      <use xlink:href="#DejaVuSans-6f" transform="translate(68.603516 0)"/>
      <use xlink:href="#DejaVuSans-74" transform="translate(129.785156 0)"/>
      <use xlink:href="#DejaVuSans-68" transform="translate(168.994141 0)"/>
      <use xlink:href="#DejaVuSans-20" transform="translate(232.373047 0)"/>
      <use xlink:href="#DejaVuSans-55" transform="translate(264.160156 0)"/>
      <use xlink:href="#DejaVuSans-6e" transform="translate(337.353516 0)"/>
      <use xlink:href="#DejaVuSans-73" transform="translate(400.732422 0)"/>
      <use xlink:href="#DejaVuSans-74" transform="translate(452.832031 0)"/>
      <use xlink:href="#DejaVuSans-61" transform="translate(492.041016 0)"/>
      <use xlink:href="#DejaVuSans-62" transform="translate(553.320312 0)"/>
      <use xlink:href="#DejaVuSans-6c" transform="translate(616.796875 0)"/>
      <use xlink:href="#DejaVuSans-65" transform="translate(644.580078 0)"/>
     </g>
    </g>
    <g id="patch_129">
     <path d="M 69.635 46.036563 
L 89.635 46.036563 
L 89.635 39.036563 
L 69.635 39.036563 
z
" style="fill: #0066cc"/>
    </g>
    <g id="text_42">
     <!-- Coverage Unstable -->
     <g transform="translate(97.635 46.036563) scale(0.1 -0.1)">
      <defs>
       <path id="DejaVuSans-43" d="M 4122 4306 
L 4122 3641 
Q 3803 3938 3442 4084 
Q 3081 4231 2675 4231 
Q 1875 4231 1450 3742 
Q 1025 3253 1025 2328 
Q 1025 1406 1450 917 
Q 1875 428 2675 428 
Q 3081 428 3442 575 
Q 3803 722 4122 1019 
L 4122 359 
Q 3791 134 3420 21 
Q 3050 -91 2638 -91 
Q 1578 -91 968 557 
Q 359 1206 359 2328 
Q 359 3453 968 4101 
Q 1578 4750 2638 4750 
Q 3056 4750 3426 4639 
Q 3797 4528 4122 4306 
z
" transform="scale(0.015625)"/>
      </defs>
      <use xlink:href="#DejaVuSans-43"/>
      <use xlink:href="#DejaVuSans-6f" transform="translate(69.824219 0)"/>
      <use xlink:href="#DejaVuSans-76" transform="translate(131.005859 0)"/>
      <use xlink:href="#DejaVuSans-65" transform="translate(190.185547 0)"/>
      <use xlink:href="#DejaVuSans-72" transform="translate(251.708984 0)"/>
      <use xlink:href="#DejaVuSans-61" transform="translate(292.822266 0)"/>
      <use xlink:href="#DejaVuSans-67" transform="translate(354.101562 0)"/>
      <use xlink:href="#DejaVuSans-65" transform="translate(417.578125 0)"/>
      <use xlink:href="#DejaVuSans-20" transform="translate(479.101562 0)"/>
      <use xlink:href="#DejaVuSans-55" transform="translate(510.888672 0)"/>
      <use xlink:href="#DejaVuSans-6e" transform="translate(584.082031 0)"/>
      <use xlink:href="#DejaVuSans-73" transform="translate(647.460938 0)"/>
      <use xlink:href="#DejaVuSans-74" transform="translate(699.560547 0)"/>
      <use xlink:href="#DejaVuSans-61" transform="translate(738.769531 0)"/>
      <use xlink:href="#DejaVuSans-62" transform="translate(800.048828 0)"/>
      <use xlink:href="#DejaVuSans-6c" transform="translate(863.525391 0)"/>
      <use xlink:href="#DejaVuSans-65" transform="translate(891.308594 0)"/>
     </g>
    </g>
    <g id="patch_130">
     <path d="M 69.635 60.714688 
L 89.635 60.714688 
L 89.635 53.714688 
L 69.635 53.714688 
z
" style="fill: #cc6600"/>
    </g>
    <g id="text_43">
     <!-- State Unstable -->
     <g transform="translate(97.635 60.714688) scale(0.1 -0.1)">
      <defs>
       <path id="DejaVuSans-53" d="M 3425 4513 
L 3425 3897 
Q 3066 4069 2747 4153 
Q 2428 4238 2131 4238 
Q 1616 4238 1336 4038 
Q 1056 3838 1056 3469 
Q 1056 3159 1242 3001 
Q 1428 2844 1947 2747 
L 2328 2669 
Q 3034 2534 3370 2195 
Q 3706 1856 3706 1288 
Q 3706 609 3251 259 
Q 2797 -91 1919 -91 
Q 1588 -91 1214 -16 
Q 841 59 441 206 
L 441 856 
Q 825 641 1194 531 
Q 1563 422 1919 422 
Q 2459 422 2753 634 
Q 3047 847 3047 1241 
Q 3047 1584 2836 1778 
Q 2625 1972 2144 2069 
L 1759 2144 
Q 1053 2284 737 2584 
Q 422 2884 422 3419 
Q 422 4038 858 4394 
Q 1294 4750 2059 4750 
Q 2388 4750 2728 4690 
Q 3069 4631 3425 4513 
z
" transform="scale(0.015625)"/>
      </defs>
      <use xlink:href="#DejaVuSans-53"/>
      <use xlink:href="#DejaVuSans-74" transform="translate(63.476562 0)"/>
      <use xlink:href="#DejaVuSans-61" transform="translate(102.685547 0)"/>
      <use xlink:href="#DejaVuSans-74" transform="translate(163.964844 0)"/>
      <use xlink:href="#DejaVuSans-65" transform="translate(203.173828 0)"/>
      <use xlink:href="#DejaVuSans-20" transform="translate(264.697266 0)"/>
      <use xlink:href="#DejaVuSans-55" transform="translate(296.484375 0)"/>
      <use xlink:href="#DejaVuSans-6e" transform="translate(369.677734 0)"/>
      <use xlink:href="#DejaVuSans-73" transform="translate(433.056641 0)"/>
      <use xlink:href="#DejaVuSans-74" transform="translate(485.15625 0)"/>
      <use xlink:href="#DejaVuSans-61" transform="translate(524.365234 0)"/>
      <use xlink:href="#DejaVuSans-62" transform="translate(585.644531 0)"/>
      <use xlink:href="#DejaVuSans-6c" transform="translate(649.121094 0)"/>
      <use xlink:href="#DejaVuSans-65" transform="translate(676.904297 0)"/>
     </g>
    </g>
    <g id="patch_131">
     <path d="M 69.635 75.392813 
L 89.635 75.392813 
L 89.635 68.392813 
L 69.635 68.392813 
z
" style="fill: #006600"/>
    </g>
    <g id="text_44">
     <!-- Both Stable -->
     <g transform="translate(97.635 75.392813) scale(0.1 -0.1)">
      <use xlink:href="#DejaVuSans-42"/>
      <use xlink:href="#DejaVuSans-6f" transform="translate(68.603516 0)"/>
      <use xlink:href="#DejaVuSans-74" transform="translate(129.785156 0)"/>
      <use xlink:href="#DejaVuSans-68" transform="translate(168.994141 0)"/>
      <use xlink:href="#DejaVuSans-20" transform="translate(232.373047 0)"/>
      <use xlink:href="#DejaVuSans-53" transform="translate(264.160156 0)"/>
      <use xlink:href="#DejaVuSans-74" transform="translate(327.636719 0)"/>
      <use xlink:href="#DejaVuSans-61" transform="translate(366.845703 0)"/>
      <use xlink:href="#DejaVuSans-62" transform="translate(428.125 0)"/>
      <use xlink:href="#DejaVuSans-6c" transform="translate(491.601562 0)"/>
      <use xlink:href="#DejaVuSans-65" transform="translate(519.384766 0)"/>
     </g>
    </g>
   </g>
  </g>
 </g>
 <defs>
  <clipPath id="pf6144938ed">
   <rect x="60.635" y="14.76" width="648.565" height="350.401"/>
  </clipPath>
 </defs>
</svg>
