<?xml version="1.0" encoding="utf-8" standalone="no"?>
<!DOCTYPE svg PUBLIC "-//W3C//DTD SVG 1.1//EN"
  "http://www.w3.org/Graphics/SVG/1.1/DTD/svg11.dtd">
<svg xmlns:xlink="http://www.w3.org/1999/xlink" width="864pt" height="432pt" viewBox="0 0 864 432" xmlns="http://www.w3.org/2000/svg" version="1.1">
 <metadata>
  <rdf:RDF xmlns:dc="http://purl.org/dc/elements/1.1/" xmlns:cc="http://creativecommons.org/ns#" xmlns:rdf="http://www.w3.org/1999/02/22-rdf-syntax-ns#">
   <cc:Work>
    <dc:type rdf:resource="http://purl.org/dc/dcmitype/StillImage"/>
    <dc:date>2025-02-27T15:09:16.597678</dc:date>
    <dc:format>image/svg+xml</dc:format>
    <dc:creator>
     <cc:Agent>
      <dc:title>Matplotlib v3.10.0, https://matplotlib.org/</dc:title>
     </cc:Agent>
    </dc:creator>
   </cc:Work>
  </rdf:RDF>
 </metadata>
 <defs>
  <style type="text/css">*{stroke-linejoin: round; stroke-linecap: butt}</style>
 </defs>
 <g id="figure_1">
  <g id="patch_1">
   <path d="M 0 432 
L 864 432 
L 864 0 
L 0 0 
z
" style="fill: #ffffff"/>
  </g>
  <g id="axes_1">
   <g id="patch_2">
    <path d="M 89.345 390.04 
L 853.2 390.04 
L 853.2 14.469535 
L 89.345 14.469535 
z
" style="fill: #ffffff"/>
   </g>
   <g id="matplotlib.axis_1">
    <g id="xtick_1">
     <g id="line2d_1">
      <path d="M 124.065682 390.04 
L 124.065682 14.469535 
" clip-path="url(#pe1b49fc955)" style="fill: none; stroke: #b0b0b0; stroke-width: 0.8; stroke-linecap: square"/>
     </g>
     <g id="line2d_2">
      <defs>
       <path id="mdccfcab4dc" d="M 0 0 
L 0 3.5 
" style="stroke: #000000; stroke-width: 0.8"/>
      </defs>
      <g>
       <use xlink:href="#mdccfcab4dc" x="124.065682" y="390.04" style="stroke: #000000; stroke-width: 0.8"/>
      </g>
     </g>
     <g id="text_1">
      <!-- 0 -->
      <g transform="translate(120.884432 404.638438) scale(0.1 -0.1)">
       <defs>
        <path id="DejaVuSans-30" d="M 2034 4250 
Q 1547 4250 1301 3770 
Q 1056 3291 1056 2328 
Q 1056 1369 1301 889 
Q 1547 409 2034 409 
Q 2525 409 2770 889 
Q 3016 1369 3016 2328 
Q 3016 3291 2770 3770 
Q 2525 4250 2034 4250 
z
M 2034 4750 
Q 2819 4750 3233 4129 
Q 3647 3509 3647 2328 
Q 3647 1150 3233 529 
Q 2819 -91 2034 -91 
Q 1250 -91 836 529 
Q 422 1150 422 2328 
Q 422 3509 836 4129 
Q 1250 4750 2034 4750 
z
" transform="scale(0.015625)"/>
       </defs>
       <use xlink:href="#DejaVuSans-30"/>
      </g>
     </g>
    </g>
    <g id="xtick_2">
     <g id="line2d_3">
      <path d="M 238.95788 390.04 
L 238.95788 14.469535 
" clip-path="url(#pe1b49fc955)" style="fill: none; stroke: #b0b0b0; stroke-width: 0.8; stroke-linecap: square"/>
     </g>
     <g id="line2d_4">
      <g>
       <use xlink:href="#mdccfcab4dc" x="238.95788" y="390.04" style="stroke: #000000; stroke-width: 0.8"/>
      </g>
     </g>
     <g id="text_2">
      <!-- 10000000 -->
      <g transform="translate(213.50788 404.638438) scale(0.1 -0.1)">
       <defs>
        <path id="DejaVuSans-31" d="M 794 531 
L 1825 531 
L 1825 4091 
L 703 3866 
L 703 4441 
L 1819 4666 
L 2450 4666 
L 2450 531 
L 3481 531 
L 3481 0 
L 794 0 
L 794 531 
z
" transform="scale(0.015625)"/>
       </defs>
       <use xlink:href="#DejaVuSans-31"/>
       <use xlink:href="#DejaVuSans-30" transform="translate(63.623047 0)"/>
       <use xlink:href="#DejaVuSans-30" transform="translate(127.246094 0)"/>
       <use xlink:href="#DejaVuSans-30" transform="translate(190.869141 0)"/>
       <use xlink:href="#DejaVuSans-30" transform="translate(254.492188 0)"/>
       <use xlink:href="#DejaVuSans-30" transform="translate(318.115234 0)"/>
       <use xlink:href="#DejaVuSans-30" transform="translate(381.738281 0)"/>
       <use xlink:href="#DejaVuSans-30" transform="translate(445.361328 0)"/>
      </g>
     </g>
    </g>
    <g id="xtick_3">
     <g id="line2d_5">
      <path d="M 353.850077 390.04 
L 353.850077 14.469535 
" clip-path="url(#pe1b49fc955)" style="fill: none; stroke: #b0b0b0; stroke-width: 0.8; stroke-linecap: square"/>
     </g>
     <g id="line2d_6">
      <g>
       <use xlink:href="#mdccfcab4dc" x="353.850077" y="390.04" style="stroke: #000000; stroke-width: 0.8"/>
      </g>
     </g>
     <g id="text_3">
      <!-- 20000000 -->
      <g transform="translate(328.400077 404.638438) scale(0.1 -0.1)">
       <defs>
        <path id="DejaVuSans-32" d="M 1228 531 
L 3431 531 
L 3431 0 
L 469 0 
L 469 531 
Q 828 903 1448 1529 
Q 2069 2156 2228 2338 
Q 2531 2678 2651 2914 
Q 2772 3150 2772 3378 
Q 2772 3750 2511 3984 
Q 2250 4219 1831 4219 
Q 1534 4219 1204 4116 
Q 875 4013 500 3803 
L 500 4441 
Q 881 4594 1212 4672 
Q 1544 4750 1819 4750 
Q 2544 4750 2975 4387 
Q 3406 4025 3406 3419 
Q 3406 3131 3298 2873 
Q 3191 2616 2906 2266 
Q 2828 2175 2409 1742 
Q 1991 1309 1228 531 
z
" transform="scale(0.015625)"/>
       </defs>
       <use xlink:href="#DejaVuSans-32"/>
       <use xlink:href="#DejaVuSans-30" transform="translate(63.623047 0)"/>
       <use xlink:href="#DejaVuSans-30" transform="translate(127.246094 0)"/>
       <use xlink:href="#DejaVuSans-30" transform="translate(190.869141 0)"/>
       <use xlink:href="#DejaVuSans-30" transform="translate(254.492188 0)"/>
       <use xlink:href="#DejaVuSans-30" transform="translate(318.115234 0)"/>
       <use xlink:href="#DejaVuSans-30" transform="translate(381.738281 0)"/>
       <use xlink:href="#DejaVuSans-30" transform="translate(445.361328 0)"/>
      </g>
     </g>
    </g>
    <g id="xtick_4">
     <g id="line2d_7">
      <path d="M 468.742275 390.04 
L 468.742275 14.469535 
" clip-path="url(#pe1b49fc955)" style="fill: none; stroke: #b0b0b0; stroke-width: 0.8; stroke-linecap: square"/>
     </g>
     <g id="line2d_8">
      <g>
       <use xlink:href="#mdccfcab4dc" x="468.742275" y="390.04" style="stroke: #000000; stroke-width: 0.8"/>
      </g>
     </g>
     <g id="text_4">
      <!-- 30000000 -->
      <g transform="translate(443.292275 404.638438) scale(0.1 -0.1)">
       <defs>
        <path id="DejaVuSans-33" d="M 2597 2516 
Q 3050 2419 3304 2112 
Q 3559 1806 3559 1356 
Q 3559 666 3084 287 
Q 2609 -91 1734 -91 
Q 1441 -91 1130 -33 
Q 819 25 488 141 
L 488 750 
Q 750 597 1062 519 
Q 1375 441 1716 441 
Q 2309 441 2620 675 
Q 2931 909 2931 1356 
Q 2931 1769 2642 2001 
Q 2353 2234 1838 2234 
L 1294 2234 
L 1294 2753 
L 1863 2753 
Q 2328 2753 2575 2939 
Q 2822 3125 2822 3475 
Q 2822 3834 2567 4026 
Q 2313 4219 1838 4219 
Q 1578 4219 1281 4162 
Q 984 4106 628 3988 
L 628 4550 
Q 988 4650 1302 4700 
Q 1616 4750 1894 4750 
Q 2613 4750 3031 4423 
Q 3450 4097 3450 3541 
Q 3450 3153 3228 2886 
Q 3006 2619 2597 2516 
z
" transform="scale(0.015625)"/>
       </defs>
       <use xlink:href="#DejaVuSans-33"/>
       <use xlink:href="#DejaVuSans-30" transform="translate(63.623047 0)"/>
       <use xlink:href="#DejaVuSans-30" transform="translate(127.246094 0)"/>
       <use xlink:href="#DejaVuSans-30" transform="translate(190.869141 0)"/>
       <use xlink:href="#DejaVuSans-30" transform="translate(254.492188 0)"/>
       <use xlink:href="#DejaVuSans-30" transform="translate(318.115234 0)"/>
       <use xlink:href="#DejaVuSans-30" transform="translate(381.738281 0)"/>
       <use xlink:href="#DejaVuSans-30" transform="translate(445.361328 0)"/>
      </g>
     </g>
    </g>
    <g id="xtick_5">
     <g id="line2d_9">
      <path d="M 583.634473 390.04 
L 583.634473 14.469535 
" clip-path="url(#pe1b49fc955)" style="fill: none; stroke: #b0b0b0; stroke-width: 0.8; stroke-linecap: square"/>
     </g>
     <g id="line2d_10">
      <g>
       <use xlink:href="#mdccfcab4dc" x="583.634473" y="390.04" style="stroke: #000000; stroke-width: 0.8"/>
      </g>
     </g>
     <g id="text_5">
      <!-- 40000000 -->
      <g transform="translate(558.184473 404.638438) scale(0.1 -0.1)">
       <defs>
        <path id="DejaVuSans-34" d="M 2419 4116 
L 825 1625 
L 2419 1625 
L 2419 4116 
z
M 2253 4666 
L 3047 4666 
L 3047 1625 
L 3713 1625 
L 3713 1100 
L 3047 1100 
L 3047 0 
L 2419 0 
L 2419 1100 
L 313 1100 
L 313 1709 
L 2253 4666 
z
" transform="scale(0.015625)"/>
       </defs>
       <use xlink:href="#DejaVuSans-34"/>
       <use xlink:href="#DejaVuSans-30" transform="translate(63.623047 0)"/>
       <use xlink:href="#DejaVuSans-30" transform="translate(127.246094 0)"/>
       <use xlink:href="#DejaVuSans-30" transform="translate(190.869141 0)"/>
       <use xlink:href="#DejaVuSans-30" transform="translate(254.492188 0)"/>
       <use xlink:href="#DejaVuSans-30" transform="translate(318.115234 0)"/>
       <use xlink:href="#DejaVuSans-30" transform="translate(381.738281 0)"/>
       <use xlink:href="#DejaVuSans-30" transform="translate(445.361328 0)"/>
      </g>
     </g>
    </g>
    <g id="xtick_6">
     <g id="line2d_11">
      <path d="M 698.526671 390.04 
L 698.526671 14.469535 
" clip-path="url(#pe1b49fc955)" style="fill: none; stroke: #b0b0b0; stroke-width: 0.8; stroke-linecap: square"/>
     </g>
     <g id="line2d_12">
      <g>
       <use xlink:href="#mdccfcab4dc" x="698.526671" y="390.04" style="stroke: #000000; stroke-width: 0.8"/>
      </g>
     </g>
     <g id="text_6">
      <!-- 50000000 -->
      <g transform="translate(673.076671 404.638438) scale(0.1 -0.1)">
       <defs>
        <path id="DejaVuSans-35" d="M 691 4666 
L 3169 4666 
L 3169 4134 
L 1269 4134 
L 1269 2991 
Q 1406 3038 1543 3061 
Q 1681 3084 1819 3084 
Q 2600 3084 3056 2656 
Q 3513 2228 3513 1497 
Q 3513 744 3044 326 
Q 2575 -91 1722 -91 
Q 1428 -91 1123 -41 
Q 819 9 494 109 
L 494 744 
Q 775 591 1075 516 
Q 1375 441 1709 441 
Q 2250 441 2565 725 
Q 2881 1009 2881 1497 
Q 2881 1984 2565 2268 
Q 2250 2553 1709 2553 
Q 1456 2553 1204 2497 
Q 953 2441 691 2322 
L 691 4666 
z
" transform="scale(0.015625)"/>
       </defs>
       <use xlink:href="#DejaVuSans-35"/>
       <use xlink:href="#DejaVuSans-30" transform="translate(63.623047 0)"/>
       <use xlink:href="#DejaVuSans-30" transform="translate(127.246094 0)"/>
       <use xlink:href="#DejaVuSans-30" transform="translate(190.869141 0)"/>
       <use xlink:href="#DejaVuSans-30" transform="translate(254.492188 0)"/>
       <use xlink:href="#DejaVuSans-30" transform="translate(318.115234 0)"/>
       <use xlink:href="#DejaVuSans-30" transform="translate(381.738281 0)"/>
       <use xlink:href="#DejaVuSans-30" transform="translate(445.361328 0)"/>
      </g>
     </g>
    </g>
    <g id="xtick_7">
     <g id="line2d_13">
      <path d="M 813.418868 390.04 
L 813.418868 14.469535 
" clip-path="url(#pe1b49fc955)" style="fill: none; stroke: #b0b0b0; stroke-width: 0.8; stroke-linecap: square"/>
     </g>
     <g id="line2d_14">
      <g>
       <use xlink:href="#mdccfcab4dc" x="813.418868" y="390.04" style="stroke: #000000; stroke-width: 0.8"/>
      </g>
     </g>
     <g id="text_7">
      <!-- 60000000 -->
      <g transform="translate(787.968868 404.638438) scale(0.1 -0.1)">
       <defs>
        <path id="DejaVuSans-36" d="M 2113 2584 
Q 1688 2584 1439 2293 
Q 1191 2003 1191 1497 
Q 1191 994 1439 701 
Q 1688 409 2113 409 
Q 2538 409 2786 701 
Q 3034 994 3034 1497 
Q 3034 2003 2786 2293 
Q 2538 2584 2113 2584 
z
M 3366 4563 
L 3366 3988 
Q 3128 4100 2886 4159 
Q 2644 4219 2406 4219 
Q 1781 4219 1451 3797 
Q 1122 3375 1075 2522 
Q 1259 2794 1537 2939 
Q 1816 3084 2150 3084 
Q 2853 3084 3261 2657 
Q 3669 2231 3669 1497 
Q 3669 778 3244 343 
Q 2819 -91 2113 -91 
Q 1303 -91 875 529 
Q 447 1150 447 2328 
Q 447 3434 972 4092 
Q 1497 4750 2381 4750 
Q 2619 4750 2861 4703 
Q 3103 4656 3366 4563 
z
" transform="scale(0.015625)"/>
       </defs>
       <use xlink:href="#DejaVuSans-36"/>
       <use xlink:href="#DejaVuSans-30" transform="translate(63.623047 0)"/>
       <use xlink:href="#DejaVuSans-30" transform="translate(127.246094 0)"/>
       <use xlink:href="#DejaVuSans-30" transform="translate(190.869141 0)"/>
       <use xlink:href="#DejaVuSans-30" transform="translate(254.492188 0)"/>
       <use xlink:href="#DejaVuSans-30" transform="translate(318.115234 0)"/>
       <use xlink:href="#DejaVuSans-30" transform="translate(381.738281 0)"/>
       <use xlink:href="#DejaVuSans-30" transform="translate(445.361328 0)"/>
      </g>
     </g>
    </g>
    <g id="text_8">
     <!-- Executions -->
     <g transform="translate(444.133438 418.316562) scale(0.1 -0.1)">
      <defs>
       <path id="DejaVuSans-45" d="M 628 4666 
L 3578 4666 
L 3578 4134 
L 1259 4134 
L 1259 2753 
L 3481 2753 
L 3481 2222 
L 1259 2222 
L 1259 531 
L 3634 531 
L 3634 0 
L 628 0 
L 628 4666 
z
" transform="scale(0.015625)"/>
       <path id="DejaVuSans-78" d="M 3513 3500 
L 2247 1797 
L 3578 0 
L 2900 0 
L 1881 1375 
L 863 0 
L 184 0 
L 1544 1831 
L 300 3500 
L 978 3500 
L 1906 2253 
L 2834 3500 
L 3513 3500 
z
" transform="scale(0.015625)"/>
       <path id="DejaVuSans-65" d="M 3597 1894 
L 3597 1613 
L 953 1613 
Q 991 1019 1311 708 
Q 1631 397 2203 397 
Q 2534 397 2845 478 
Q 3156 559 3463 722 
L 3463 178 
Q 3153 47 2828 -22 
Q 2503 -91 2169 -91 
Q 1331 -91 842 396 
Q 353 884 353 1716 
Q 353 2575 817 3079 
Q 1281 3584 2069 3584 
Q 2775 3584 3186 3129 
Q 3597 2675 3597 1894 
z
M 3022 2063 
Q 3016 2534 2758 2815 
Q 2500 3097 2075 3097 
Q 1594 3097 1305 2825 
Q 1016 2553 972 2059 
L 3022 2063 
z
" transform="scale(0.015625)"/>
       <path id="DejaVuSans-63" d="M 3122 3366 
L 3122 2828 
Q 2878 2963 2633 3030 
Q 2388 3097 2138 3097 
Q 1578 3097 1268 2742 
Q 959 2388 959 1747 
Q 959 1106 1268 751 
Q 1578 397 2138 397 
Q 2388 397 2633 464 
Q 2878 531 3122 666 
L 3122 134 
Q 2881 22 2623 -34 
Q 2366 -91 2075 -91 
Q 1284 -91 818 406 
Q 353 903 353 1747 
Q 353 2603 823 3093 
Q 1294 3584 2113 3584 
Q 2378 3584 2631 3529 
Q 2884 3475 3122 3366 
z
" transform="scale(0.015625)"/>
       <path id="DejaVuSans-75" d="M 544 1381 
L 544 3500 
L 1119 3500 
L 1119 1403 
Q 1119 906 1312 657 
Q 1506 409 1894 409 
Q 2359 409 2629 706 
Q 2900 1003 2900 1516 
L 2900 3500 
L 3475 3500 
L 3475 0 
L 2900 0 
L 2900 538 
Q 2691 219 2414 64 
Q 2138 -91 1772 -91 
Q 1169 -91 856 284 
Q 544 659 544 1381 
z
M 1991 3584 
L 1991 3584 
z
" transform="scale(0.015625)"/>
       <path id="DejaVuSans-74" d="M 1172 4494 
L 1172 3500 
L 2356 3500 
L 2356 3053 
L 1172 3053 
L 1172 1153 
Q 1172 725 1289 603 
Q 1406 481 1766 481 
L 2356 481 
L 2356 0 
L 1766 0 
Q 1100 0 847 248 
Q 594 497 594 1153 
L 594 3053 
L 172 3053 
L 172 3500 
L 594 3500 
L 594 4494 
L 1172 4494 
z
" transform="scale(0.015625)"/>
       <path id="DejaVuSans-69" d="M 603 3500 
L 1178 3500 
L 1178 0 
L 603 0 
L 603 3500 
z
M 603 4863 
L 1178 4863 
L 1178 4134 
L 603 4134 
L 603 4863 
z
" transform="scale(0.015625)"/>
       <path id="DejaVuSans-6f" d="M 1959 3097 
Q 1497 3097 1228 2736 
Q 959 2375 959 1747 
Q 959 1119 1226 758 
Q 1494 397 1959 397 
Q 2419 397 2687 759 
Q 2956 1122 2956 1747 
Q 2956 2369 2687 2733 
Q 2419 3097 1959 3097 
z
M 1959 3584 
Q 2709 3584 3137 3096 
Q 3566 2609 3566 1747 
Q 3566 888 3137 398 
Q 2709 -91 1959 -91 
Q 1206 -91 779 398 
Q 353 888 353 1747 
Q 353 2609 779 3096 
Q 1206 3584 1959 3584 
z
" transform="scale(0.015625)"/>
       <path id="DejaVuSans-6e" d="M 3513 2113 
L 3513 0 
L 2938 0 
L 2938 2094 
Q 2938 2591 2744 2837 
Q 2550 3084 2163 3084 
Q 1697 3084 1428 2787 
Q 1159 2491 1159 1978 
L 1159 0 
L 581 0 
L 581 3500 
L 1159 3500 
L 1159 2956 
Q 1366 3272 1645 3428 
Q 1925 3584 2291 3584 
Q 2894 3584 3203 3211 
Q 3513 2838 3513 2113 
z
" transform="scale(0.015625)"/>
       <path id="DejaVuSans-73" d="M 2834 3397 
L 2834 2853 
Q 2591 2978 2328 3040 
Q 2066 3103 1784 3103 
Q 1356 3103 1142 2972 
Q 928 2841 928 2578 
Q 928 2378 1081 2264 
Q 1234 2150 1697 2047 
L 1894 2003 
Q 2506 1872 2764 1633 
Q 3022 1394 3022 966 
Q 3022 478 2636 193 
Q 2250 -91 1575 -91 
Q 1294 -91 989 -36 
Q 684 19 347 128 
L 347 722 
Q 666 556 975 473 
Q 1284 391 1588 391 
Q 1994 391 2212 530 
Q 2431 669 2431 922 
Q 2431 1156 2273 1281 
Q 2116 1406 1581 1522 
L 1381 1569 
Q 847 1681 609 1914 
Q 372 2147 372 2553 
Q 372 3047 722 3315 
Q 1072 3584 1716 3584 
Q 2034 3584 2315 3537 
Q 2597 3491 2834 3397 
z
" transform="scale(0.015625)"/>
      </defs>
      <use xlink:href="#DejaVuSans-45"/>
      <use xlink:href="#DejaVuSans-78" transform="translate(63.183594 0)"/>
      <use xlink:href="#DejaVuSans-65" transform="translate(119.238281 0)"/>
      <use xlink:href="#DejaVuSans-63" transform="translate(180.761719 0)"/>
      <use xlink:href="#DejaVuSans-75" transform="translate(235.742188 0)"/>
      <use xlink:href="#DejaVuSans-74" transform="translate(299.121094 0)"/>
      <use xlink:href="#DejaVuSans-69" transform="translate(338.330078 0)"/>
      <use xlink:href="#DejaVuSans-6f" transform="translate(366.113281 0)"/>
      <use xlink:href="#DejaVuSans-6e" transform="translate(427.294922 0)"/>
      <use xlink:href="#DejaVuSans-73" transform="translate(490.673828 0)"/>
     </g>
    </g>
   </g>
   <g id="matplotlib.axis_2">
    <g id="ytick_1">
     <g id="line2d_15">
      <path d="M 89.345 321.071894 
L 853.2 321.071894 
" clip-path="url(#pe1b49fc955)" style="fill: none; stroke: #b0b0b0; stroke-width: 0.8; stroke-linecap: square"/>
     </g>
     <g id="line2d_16">
      <defs>
       <path id="mff1102f408" d="M 0 0 
L -3.5 0 
" style="stroke: #000000; stroke-width: 0.8"/>
      </defs>
      <g>
       <use xlink:href="#mff1102f408" x="89.345" y="321.071894" style="stroke: #000000; stroke-width: 0.8"/>
      </g>
     </g>
     <g id="text_9">
      <!-- 10000 -->
      <g transform="translate(50.5325 324.871113) scale(0.1 -0.1)">
       <use xlink:href="#DejaVuSans-31"/>
       <use xlink:href="#DejaVuSans-30" transform="translate(63.623047 0)"/>
       <use xlink:href="#DejaVuSans-30" transform="translate(127.246094 0)"/>
       <use xlink:href="#DejaVuSans-30" transform="translate(190.869141 0)"/>
       <use xlink:href="#DejaVuSans-30" transform="translate(254.492188 0)"/>
      </g>
     </g>
    </g>
    <g id="ytick_2">
     <g id="line2d_17">
      <path d="M 89.345 244.503293 
L 853.2 244.503293 
" clip-path="url(#pe1b49fc955)" style="fill: none; stroke: #b0b0b0; stroke-width: 0.8; stroke-linecap: square"/>
     </g>
     <g id="line2d_18">
      <g>
       <use xlink:href="#mff1102f408" x="89.345" y="244.503293" style="stroke: #000000; stroke-width: 0.8"/>
      </g>
     </g>
     <g id="text_10">
      <!-- 100000 -->
      <g transform="translate(44.17 248.302511) scale(0.1 -0.1)">
       <use xlink:href="#DejaVuSans-31"/>
       <use xlink:href="#DejaVuSans-30" transform="translate(63.623047 0)"/>
       <use xlink:href="#DejaVuSans-30" transform="translate(127.246094 0)"/>
       <use xlink:href="#DejaVuSans-30" transform="translate(190.869141 0)"/>
       <use xlink:href="#DejaVuSans-30" transform="translate(254.492188 0)"/>
       <use xlink:href="#DejaVuSans-30" transform="translate(318.115234 0)"/>
      </g>
     </g>
    </g>
    <g id="ytick_3">
     <g id="line2d_19">
      <path d="M 89.345 167.934691 
L 853.2 167.934691 
" clip-path="url(#pe1b49fc955)" style="fill: none; stroke: #b0b0b0; stroke-width: 0.8; stroke-linecap: square"/>
     </g>
     <g id="line2d_20">
      <g>
       <use xlink:href="#mff1102f408" x="89.345" y="167.934691" style="stroke: #000000; stroke-width: 0.8"/>
      </g>
     </g>
     <g id="text_11">
      <!-- 1000000 -->
      <g transform="translate(37.8075 171.73391) scale(0.1 -0.1)">
       <use xlink:href="#DejaVuSans-31"/>
       <use xlink:href="#DejaVuSans-30" transform="translate(63.623047 0)"/>
       <use xlink:href="#DejaVuSans-30" transform="translate(127.246094 0)"/>
       <use xlink:href="#DejaVuSans-30" transform="translate(190.869141 0)"/>
       <use xlink:href="#DejaVuSans-30" transform="translate(254.492188 0)"/>
       <use xlink:href="#DejaVuSans-30" transform="translate(318.115234 0)"/>
       <use xlink:href="#DejaVuSans-30" transform="translate(381.738281 0)"/>
      </g>
     </g>
    </g>
    <g id="ytick_4">
     <g id="line2d_21">
      <path d="M 89.345 91.366089 
L 853.2 91.366089 
" clip-path="url(#pe1b49fc955)" style="fill: none; stroke: #b0b0b0; stroke-width: 0.8; stroke-linecap: square"/>
     </g>
     <g id="line2d_22">
      <g>
       <use xlink:href="#mff1102f408" x="89.345" y="91.366089" style="stroke: #000000; stroke-width: 0.8"/>
      </g>
     </g>
     <g id="text_12">
      <!-- 10000000 -->
      <g transform="translate(31.445 95.165308) scale(0.1 -0.1)">
       <use xlink:href="#DejaVuSans-31"/>
       <use xlink:href="#DejaVuSans-30" transform="translate(63.623047 0)"/>
       <use xlink:href="#DejaVuSans-30" transform="translate(127.246094 0)"/>
       <use xlink:href="#DejaVuSans-30" transform="translate(190.869141 0)"/>
       <use xlink:href="#DejaVuSans-30" transform="translate(254.492188 0)"/>
       <use xlink:href="#DejaVuSans-30" transform="translate(318.115234 0)"/>
       <use xlink:href="#DejaVuSans-30" transform="translate(381.738281 0)"/>
       <use xlink:href="#DejaVuSans-30" transform="translate(445.361328 0)"/>
      </g>
     </g>
    </g>
    <g id="ytick_5">
     <g id="line2d_23">
      <path d="M 89.345 14.797487 
L 853.2 14.797487 
" clip-path="url(#pe1b49fc955)" style="fill: none; stroke: #b0b0b0; stroke-width: 0.8; stroke-linecap: square"/>
     </g>
     <g id="line2d_24">
      <g>
       <use xlink:href="#mff1102f408" x="89.345" y="14.797487" style="stroke: #000000; stroke-width: 0.8"/>
      </g>
     </g>
     <g id="text_13">
      <!-- 100000000 -->
      <g transform="translate(25.0825 18.596706) scale(0.1 -0.1)">
       <use xlink:href="#DejaVuSans-31"/>
       <use xlink:href="#DejaVuSans-30" transform="translate(63.623047 0)"/>
       <use xlink:href="#DejaVuSans-30" transform="translate(127.246094 0)"/>
       <use xlink:href="#DejaVuSans-30" transform="translate(190.869141 0)"/>
       <use xlink:href="#DejaVuSans-30" transform="translate(254.492188 0)"/>
       <use xlink:href="#DejaVuSans-30" transform="translate(318.115234 0)"/>
       <use xlink:href="#DejaVuSans-30" transform="translate(381.738281 0)"/>
       <use xlink:href="#DejaVuSans-30" transform="translate(445.361328 0)"/>
       <use xlink:href="#DejaVuSans-30" transform="translate(508.984375 0)"/>
      </g>
     </g>
    </g>
    <g id="ytick_6">
     <g id="line2d_25">
      <path d="M 89.345 374.59105 
L 853.2 374.59105 
" clip-path="url(#pe1b49fc955)" style="fill: none; stroke: #b0b0b0; stroke-width: 0.8; stroke-linecap: square"/>
     </g>
     <g id="line2d_26">
      <defs>
       <path id="me0881cdedb" d="M 0 0 
L -2 0 
" style="stroke: #000000; stroke-width: 0.6"/>
      </defs>
      <g>
       <use xlink:href="#me0881cdedb" x="89.345" y="374.59105" style="stroke: #000000; stroke-width: 0.6"/>
      </g>
     </g>
    </g>
    <g id="ytick_7">
     <g id="line2d_27">
      <path d="M 89.345 361.107989 
L 853.2 361.107989 
" clip-path="url(#pe1b49fc955)" style="fill: none; stroke: #b0b0b0; stroke-width: 0.8; stroke-linecap: square"/>
     </g>
     <g id="line2d_28">
      <g>
       <use xlink:href="#me0881cdedb" x="89.345" y="361.107989" style="stroke: #000000; stroke-width: 0.6"/>
      </g>
     </g>
    </g>
    <g id="ytick_8">
     <g id="line2d_29">
      <path d="M 89.345 351.541604 
L 853.2 351.541604 
" clip-path="url(#pe1b49fc955)" style="fill: none; stroke: #b0b0b0; stroke-width: 0.8; stroke-linecap: square"/>
     </g>
     <g id="line2d_30">
      <g>
       <use xlink:href="#me0881cdedb" x="89.345" y="351.541604" style="stroke: #000000; stroke-width: 0.6"/>
      </g>
     </g>
    </g>
    <g id="ytick_9">
     <g id="line2d_31">
      <path d="M 89.345 344.12134 
L 853.2 344.12134 
" clip-path="url(#pe1b49fc955)" style="fill: none; stroke: #b0b0b0; stroke-width: 0.8; stroke-linecap: square"/>
     </g>
     <g id="line2d_32">
      <g>
       <use xlink:href="#me0881cdedb" x="89.345" y="344.12134" style="stroke: #000000; stroke-width: 0.6"/>
      </g>
     </g>
    </g>
    <g id="ytick_10">
     <g id="line2d_33">
      <path d="M 89.345 338.058543 
L 853.2 338.058543 
" clip-path="url(#pe1b49fc955)" style="fill: none; stroke: #b0b0b0; stroke-width: 0.8; stroke-linecap: square"/>
     </g>
     <g id="line2d_34">
      <g>
       <use xlink:href="#me0881cdedb" x="89.345" y="338.058543" style="stroke: #000000; stroke-width: 0.6"/>
      </g>
     </g>
    </g>
    <g id="ytick_11">
     <g id="line2d_35">
      <path d="M 89.345 332.932521 
L 853.2 332.932521 
" clip-path="url(#pe1b49fc955)" style="fill: none; stroke: #b0b0b0; stroke-width: 0.8; stroke-linecap: square"/>
     </g>
     <g id="line2d_36">
      <g>
       <use xlink:href="#me0881cdedb" x="89.345" y="332.932521" style="stroke: #000000; stroke-width: 0.6"/>
      </g>
     </g>
    </g>
    <g id="ytick_12">
     <g id="line2d_37">
      <path d="M 89.345 328.492159 
L 853.2 328.492159 
" clip-path="url(#pe1b49fc955)" style="fill: none; stroke: #b0b0b0; stroke-width: 0.8; stroke-linecap: square"/>
     </g>
     <g id="line2d_38">
      <g>
       <use xlink:href="#me0881cdedb" x="89.345" y="328.492159" style="stroke: #000000; stroke-width: 0.6"/>
      </g>
     </g>
    </g>
    <g id="ytick_13">
     <g id="line2d_39">
      <path d="M 89.345 324.575481 
L 853.2 324.575481 
" clip-path="url(#pe1b49fc955)" style="fill: none; stroke: #b0b0b0; stroke-width: 0.8; stroke-linecap: square"/>
     </g>
     <g id="line2d_40">
      <g>
       <use xlink:href="#me0881cdedb" x="89.345" y="324.575481" style="stroke: #000000; stroke-width: 0.6"/>
      </g>
     </g>
    </g>
    <g id="ytick_14">
     <g id="line2d_41">
      <path d="M 89.345 298.022448 
L 853.2 298.022448 
" clip-path="url(#pe1b49fc955)" style="fill: none; stroke: #b0b0b0; stroke-width: 0.8; stroke-linecap: square"/>
     </g>
     <g id="line2d_42">
      <g>
       <use xlink:href="#me0881cdedb" x="89.345" y="298.022448" style="stroke: #000000; stroke-width: 0.6"/>
      </g>
     </g>
    </g>
    <g id="ytick_15">
     <g id="line2d_43">
      <path d="M 89.345 284.539387 
L 853.2 284.539387 
" clip-path="url(#pe1b49fc955)" style="fill: none; stroke: #b0b0b0; stroke-width: 0.8; stroke-linecap: square"/>
     </g>
     <g id="line2d_44">
      <g>
       <use xlink:href="#me0881cdedb" x="89.345" y="284.539387" style="stroke: #000000; stroke-width: 0.6"/>
      </g>
     </g>
    </g>
    <g id="ytick_16">
     <g id="line2d_45">
      <path d="M 89.345 274.973003 
L 853.2 274.973003 
" clip-path="url(#pe1b49fc955)" style="fill: none; stroke: #b0b0b0; stroke-width: 0.8; stroke-linecap: square"/>
     </g>
     <g id="line2d_46">
      <g>
       <use xlink:href="#me0881cdedb" x="89.345" y="274.973003" style="stroke: #000000; stroke-width: 0.6"/>
      </g>
     </g>
    </g>
    <g id="ytick_17">
     <g id="line2d_47">
      <path d="M 89.345 267.552738 
L 853.2 267.552738 
" clip-path="url(#pe1b49fc955)" style="fill: none; stroke: #b0b0b0; stroke-width: 0.8; stroke-linecap: square"/>
     </g>
     <g id="line2d_48">
      <g>
       <use xlink:href="#me0881cdedb" x="89.345" y="267.552738" style="stroke: #000000; stroke-width: 0.6"/>
      </g>
     </g>
    </g>
    <g id="ytick_18">
     <g id="line2d_49">
      <path d="M 89.345 261.489941 
L 853.2 261.489941 
" clip-path="url(#pe1b49fc955)" style="fill: none; stroke: #b0b0b0; stroke-width: 0.8; stroke-linecap: square"/>
     </g>
     <g id="line2d_50">
      <g>
       <use xlink:href="#me0881cdedb" x="89.345" y="261.489941" style="stroke: #000000; stroke-width: 0.6"/>
      </g>
     </g>
    </g>
    <g id="ytick_19">
     <g id="line2d_51">
      <path d="M 89.345 256.363919 
L 853.2 256.363919 
" clip-path="url(#pe1b49fc955)" style="fill: none; stroke: #b0b0b0; stroke-width: 0.8; stroke-linecap: square"/>
     </g>
     <g id="line2d_52">
      <g>
       <use xlink:href="#me0881cdedb" x="89.345" y="256.363919" style="stroke: #000000; stroke-width: 0.6"/>
      </g>
     </g>
    </g>
    <g id="ytick_20">
     <g id="line2d_53">
      <path d="M 89.345 251.923557 
L 853.2 251.923557 
" clip-path="url(#pe1b49fc955)" style="fill: none; stroke: #b0b0b0; stroke-width: 0.8; stroke-linecap: square"/>
     </g>
     <g id="line2d_54">
      <g>
       <use xlink:href="#me0881cdedb" x="89.345" y="251.923557" style="stroke: #000000; stroke-width: 0.6"/>
      </g>
     </g>
    </g>
    <g id="ytick_21">
     <g id="line2d_55">
      <path d="M 89.345 248.00688 
L 853.2 248.00688 
" clip-path="url(#pe1b49fc955)" style="fill: none; stroke: #b0b0b0; stroke-width: 0.8; stroke-linecap: square"/>
     </g>
     <g id="line2d_56">
      <g>
       <use xlink:href="#me0881cdedb" x="89.345" y="248.00688" style="stroke: #000000; stroke-width: 0.6"/>
      </g>
     </g>
    </g>
    <g id="ytick_22">
     <g id="line2d_57">
      <path d="M 89.345 221.453847 
L 853.2 221.453847 
" clip-path="url(#pe1b49fc955)" style="fill: none; stroke: #b0b0b0; stroke-width: 0.8; stroke-linecap: square"/>
     </g>
     <g id="line2d_58">
      <g>
       <use xlink:href="#me0881cdedb" x="89.345" y="221.453847" style="stroke: #000000; stroke-width: 0.6"/>
      </g>
     </g>
    </g>
    <g id="ytick_23">
     <g id="line2d_59">
      <path d="M 89.345 207.970785 
L 853.2 207.970785 
" clip-path="url(#pe1b49fc955)" style="fill: none; stroke: #b0b0b0; stroke-width: 0.8; stroke-linecap: square"/>
     </g>
     <g id="line2d_60">
      <g>
       <use xlink:href="#me0881cdedb" x="89.345" y="207.970785" style="stroke: #000000; stroke-width: 0.6"/>
      </g>
     </g>
    </g>
    <g id="ytick_24">
     <g id="line2d_61">
      <path d="M 89.345 198.404401 
L 853.2 198.404401 
" clip-path="url(#pe1b49fc955)" style="fill: none; stroke: #b0b0b0; stroke-width: 0.8; stroke-linecap: square"/>
     </g>
     <g id="line2d_62">
      <g>
       <use xlink:href="#me0881cdedb" x="89.345" y="198.404401" style="stroke: #000000; stroke-width: 0.6"/>
      </g>
     </g>
    </g>
    <g id="ytick_25">
     <g id="line2d_63">
      <path d="M 89.345 190.984137 
L 853.2 190.984137 
" clip-path="url(#pe1b49fc955)" style="fill: none; stroke: #b0b0b0; stroke-width: 0.8; stroke-linecap: square"/>
     </g>
     <g id="line2d_64">
      <g>
       <use xlink:href="#me0881cdedb" x="89.345" y="190.984137" style="stroke: #000000; stroke-width: 0.6"/>
      </g>
     </g>
    </g>
    <g id="ytick_26">
     <g id="line2d_65">
      <path d="M 89.345 184.921339 
L 853.2 184.921339 
" clip-path="url(#pe1b49fc955)" style="fill: none; stroke: #b0b0b0; stroke-width: 0.8; stroke-linecap: square"/>
     </g>
     <g id="line2d_66">
      <g>
       <use xlink:href="#me0881cdedb" x="89.345" y="184.921339" style="stroke: #000000; stroke-width: 0.6"/>
      </g>
     </g>
    </g>
    <g id="ytick_27">
     <g id="line2d_67">
      <path d="M 89.345 179.795317 
L 853.2 179.795317 
" clip-path="url(#pe1b49fc955)" style="fill: none; stroke: #b0b0b0; stroke-width: 0.8; stroke-linecap: square"/>
     </g>
     <g id="line2d_68">
      <g>
       <use xlink:href="#me0881cdedb" x="89.345" y="179.795317" style="stroke: #000000; stroke-width: 0.6"/>
      </g>
     </g>
    </g>
    <g id="ytick_28">
     <g id="line2d_69">
      <path d="M 89.345 175.354955 
L 853.2 175.354955 
" clip-path="url(#pe1b49fc955)" style="fill: none; stroke: #b0b0b0; stroke-width: 0.8; stroke-linecap: square"/>
     </g>
     <g id="line2d_70">
      <g>
       <use xlink:href="#me0881cdedb" x="89.345" y="175.354955" style="stroke: #000000; stroke-width: 0.6"/>
      </g>
     </g>
    </g>
    <g id="ytick_29">
     <g id="line2d_71">
      <path d="M 89.345 171.438278 
L 853.2 171.438278 
" clip-path="url(#pe1b49fc955)" style="fill: none; stroke: #b0b0b0; stroke-width: 0.8; stroke-linecap: square"/>
     </g>
     <g id="line2d_72">
      <g>
       <use xlink:href="#me0881cdedb" x="89.345" y="171.438278" style="stroke: #000000; stroke-width: 0.6"/>
      </g>
     </g>
    </g>
    <g id="ytick_30">
     <g id="line2d_73">
      <path d="M 89.345 144.885245 
L 853.2 144.885245 
" clip-path="url(#pe1b49fc955)" style="fill: none; stroke: #b0b0b0; stroke-width: 0.8; stroke-linecap: square"/>
     </g>
     <g id="line2d_74">
      <g>
       <use xlink:href="#me0881cdedb" x="89.345" y="144.885245" style="stroke: #000000; stroke-width: 0.6"/>
      </g>
     </g>
    </g>
    <g id="ytick_31">
     <g id="line2d_75">
      <path d="M 89.345 131.402184 
L 853.2 131.402184 
" clip-path="url(#pe1b49fc955)" style="fill: none; stroke: #b0b0b0; stroke-width: 0.8; stroke-linecap: square"/>
     </g>
     <g id="line2d_76">
      <g>
       <use xlink:href="#me0881cdedb" x="89.345" y="131.402184" style="stroke: #000000; stroke-width: 0.6"/>
      </g>
     </g>
    </g>
    <g id="ytick_32">
     <g id="line2d_77">
      <path d="M 89.345 121.835799 
L 853.2 121.835799 
" clip-path="url(#pe1b49fc955)" style="fill: none; stroke: #b0b0b0; stroke-width: 0.8; stroke-linecap: square"/>
     </g>
     <g id="line2d_78">
      <g>
       <use xlink:href="#me0881cdedb" x="89.345" y="121.835799" style="stroke: #000000; stroke-width: 0.6"/>
      </g>
     </g>
    </g>
    <g id="ytick_33">
     <g id="line2d_79">
      <path d="M 89.345 114.415535 
L 853.2 114.415535 
" clip-path="url(#pe1b49fc955)" style="fill: none; stroke: #b0b0b0; stroke-width: 0.8; stroke-linecap: square"/>
     </g>
     <g id="line2d_80">
      <g>
       <use xlink:href="#me0881cdedb" x="89.345" y="114.415535" style="stroke: #000000; stroke-width: 0.6"/>
      </g>
     </g>
    </g>
    <g id="ytick_34">
     <g id="line2d_81">
      <path d="M 89.345 108.352738 
L 853.2 108.352738 
" clip-path="url(#pe1b49fc955)" style="fill: none; stroke: #b0b0b0; stroke-width: 0.8; stroke-linecap: square"/>
     </g>
     <g id="line2d_82">
      <g>
       <use xlink:href="#me0881cdedb" x="89.345" y="108.352738" style="stroke: #000000; stroke-width: 0.6"/>
      </g>
     </g>
    </g>
    <g id="ytick_35">
     <g id="line2d_83">
      <path d="M 89.345 103.226716 
L 853.2 103.226716 
" clip-path="url(#pe1b49fc955)" style="fill: none; stroke: #b0b0b0; stroke-width: 0.8; stroke-linecap: square"/>
     </g>
     <g id="line2d_84">
      <g>
       <use xlink:href="#me0881cdedb" x="89.345" y="103.226716" style="stroke: #000000; stroke-width: 0.6"/>
      </g>
     </g>
    </g>
    <g id="ytick_36">
     <g id="line2d_85">
      <path d="M 89.345 98.786353 
L 853.2 98.786353 
" clip-path="url(#pe1b49fc955)" style="fill: none; stroke: #b0b0b0; stroke-width: 0.8; stroke-linecap: square"/>
     </g>
     <g id="line2d_86">
      <g>
       <use xlink:href="#me0881cdedb" x="89.345" y="98.786353" style="stroke: #000000; stroke-width: 0.6"/>
      </g>
     </g>
    </g>
    <g id="ytick_37">
     <g id="line2d_87">
      <path d="M 89.345 94.869676 
L 853.2 94.869676 
" clip-path="url(#pe1b49fc955)" style="fill: none; stroke: #b0b0b0; stroke-width: 0.8; stroke-linecap: square"/>
     </g>
     <g id="line2d_88">
      <g>
       <use xlink:href="#me0881cdedb" x="89.345" y="94.869676" style="stroke: #000000; stroke-width: 0.6"/>
      </g>
     </g>
    </g>
    <g id="ytick_38">
     <g id="line2d_89">
      <path d="M 89.345 68.316643 
L 853.2 68.316643 
" clip-path="url(#pe1b49fc955)" style="fill: none; stroke: #b0b0b0; stroke-width: 0.8; stroke-linecap: square"/>
     </g>
     <g id="line2d_90">
      <g>
       <use xlink:href="#me0881cdedb" x="89.345" y="68.316643" style="stroke: #000000; stroke-width: 0.6"/>
      </g>
     </g>
    </g>
    <g id="ytick_39">
     <g id="line2d_91">
      <path d="M 89.345 54.833582 
L 853.2 54.833582 
" clip-path="url(#pe1b49fc955)" style="fill: none; stroke: #b0b0b0; stroke-width: 0.8; stroke-linecap: square"/>
     </g>
     <g id="line2d_92">
      <g>
       <use xlink:href="#me0881cdedb" x="89.345" y="54.833582" style="stroke: #000000; stroke-width: 0.6"/>
      </g>
     </g>
    </g>
    <g id="ytick_40">
     <g id="line2d_93">
      <path d="M 89.345 45.267197 
L 853.2 45.267197 
" clip-path="url(#pe1b49fc955)" style="fill: none; stroke: #b0b0b0; stroke-width: 0.8; stroke-linecap: square"/>
     </g>
     <g id="line2d_94">
      <g>
       <use xlink:href="#me0881cdedb" x="89.345" y="45.267197" style="stroke: #000000; stroke-width: 0.6"/>
      </g>
     </g>
    </g>
    <g id="ytick_41">
     <g id="line2d_95">
      <path d="M 89.345 37.846933 
L 853.2 37.846933 
" clip-path="url(#pe1b49fc955)" style="fill: none; stroke: #b0b0b0; stroke-width: 0.8; stroke-linecap: square"/>
     </g>
     <g id="line2d_96">
      <g>
       <use xlink:href="#me0881cdedb" x="89.345" y="37.846933" style="stroke: #000000; stroke-width: 0.6"/>
      </g>
     </g>
    </g>
    <g id="ytick_42">
     <g id="line2d_97">
      <path d="M 89.345 31.784136 
L 853.2 31.784136 
" clip-path="url(#pe1b49fc955)" style="fill: none; stroke: #b0b0b0; stroke-width: 0.8; stroke-linecap: square"/>
     </g>
     <g id="line2d_98">
      <g>
       <use xlink:href="#me0881cdedb" x="89.345" y="31.784136" style="stroke: #000000; stroke-width: 0.6"/>
      </g>
     </g>
    </g>
    <g id="ytick_43">
     <g id="line2d_99">
      <path d="M 89.345 26.658114 
L 853.2 26.658114 
" clip-path="url(#pe1b49fc955)" style="fill: none; stroke: #b0b0b0; stroke-width: 0.8; stroke-linecap: square"/>
     </g>
     <g id="line2d_100">
      <g>
       <use xlink:href="#me0881cdedb" x="89.345" y="26.658114" style="stroke: #000000; stroke-width: 0.6"/>
      </g>
     </g>
    </g>
    <g id="ytick_44">
     <g id="line2d_101">
      <path d="M 89.345 22.217752 
L 853.2 22.217752 
" clip-path="url(#pe1b49fc955)" style="fill: none; stroke: #b0b0b0; stroke-width: 0.8; stroke-linecap: square"/>
     </g>
     <g id="line2d_102">
      <g>
       <use xlink:href="#me0881cdedb" x="89.345" y="22.217752" style="stroke: #000000; stroke-width: 0.6"/>
      </g>
     </g>
    </g>
    <g id="ytick_45">
     <g id="line2d_103">
      <path d="M 89.345 18.301074 
L 853.2 18.301074 
" clip-path="url(#pe1b49fc955)" style="fill: none; stroke: #b0b0b0; stroke-width: 0.8; stroke-linecap: square"/>
     </g>
     <g id="line2d_104">
      <g>
       <use xlink:href="#me0881cdedb" x="89.345" y="18.301074" style="stroke: #000000; stroke-width: 0.6"/>
      </g>
     </g>
    </g>
    <g id="text_14">
     <!-- Executions -->
     <g transform="translate(19.002812 229.39383) rotate(-90) scale(0.1 -0.1)">
      <use xlink:href="#DejaVuSans-45"/>
      <use xlink:href="#DejaVuSans-78" transform="translate(63.183594 0)"/>
      <use xlink:href="#DejaVuSans-65" transform="translate(119.238281 0)"/>
      <use xlink:href="#DejaVuSans-63" transform="translate(180.761719 0)"/>
      <use xlink:href="#DejaVuSans-75" transform="translate(235.742188 0)"/>
      <use xlink:href="#DejaVuSans-74" transform="translate(299.121094 0)"/>
      <use xlink:href="#DejaVuSans-69" transform="translate(338.330078 0)"/>
      <use xlink:href="#DejaVuSans-6f" transform="translate(366.113281 0)"/>
      <use xlink:href="#DejaVuSans-6e" transform="translate(427.294922 0)"/>
      <use xlink:href="#DejaVuSans-73" transform="translate(490.673828 0)"/>
     </g>
    </g>
   </g>
   <g id="line2d_105">
    <path d="M 124.08979 433 
L 124.189765 318.512684 
L 124.189765 318.512684 
L 124.455166 280.475245 
L 124.455166 280.475245 
L 124.823109 258.35837 
L 124.823109 258.35837 
L 125.31325 241.76414 
L 125.31325 241.76414 
L 125.899568 228.953598 
L 125.899568 228.953598 
L 126.597699 218.226777 
L 126.597699 218.226777 
L 127.417179 208.902848 
L 127.417179 208.902848 
L 128.355125 200.697604 
L 128.355125 200.697604 
L 129.417165 193.341406 
L 129.417165 193.341406 
L 130.615548 186.621878 
L 130.615548 186.621878 
L 131.869551 180.796729 
L 133.311597 175.158221 
L 133.311597 175.158221 
L 134.864698 169.994871 
L 134.864698 169.994871 
L 136.530486 165.224552 
L 136.530486 165.224552 
L 138.308017 160.791554 
L 138.308017 160.791554 
L 140.283531 156.472162 
L 140.283531 156.472162 
L 142.383979 152.422309 
L 142.383979 152.422309 
L 144.656903 148.532853 
L 144.656903 148.532853 
L 146.991259 144.961832 
L 146.991259 144.961832 
L 149.60539 141.371098 
L 149.60539 141.371098 
L 152.402659 137.914976 
L 152.402659 137.914976 
L 155.388799 134.583365 
L 155.388799 134.583365 
L 158.617006 131.321564 
L 158.617006 131.321564 
L 162.063128 128.160068 
L 162.063128 128.160068 
L 165.777363 125.058789 
L 165.777363 125.058789 
L 169.751381 122.0326 
L 173.962054 119.100888 
L 178.610638 116.138784 
L 178.610638 116.138784 
L 183.54134 113.260979 
L 183.54134 113.260979 
L 188.911723 110.386271 
L 188.911723 110.386271 
L 194.710079 107.538359 
L 200.962168 104.718431 
L 200.962168 104.718431 
L 207.793153 101.888343 
L 207.793153 101.888343 
L 215.035463 99.129639 
L 215.035463 99.129639 
L 222.998009 96.339397 
L 222.998009 96.339397 
L 231.597667 93.567656 
L 231.597667 93.567656 
L 240.858231 90.820568 
L 240.858231 90.820568 
L 250.936402 88.068213 
L 250.936402 88.068213 
L 261.789429 85.338739 
L 261.789429 85.338739 
L 273.518762 82.620857 
L 273.518762 82.620857 
L 286.17338 79.91808 
L 286.17338 79.91808 
L 299.925218 77.210439 
L 299.925218 77.210439 
L 314.679628 74.5314 
L 314.679628 74.5314 
L 330.936885 71.809741 
L 330.936885 71.809741 
L 348.48622 69.102079 
L 348.48622 69.102079 
L 367.449361 66.404655 
L 367.449361 66.404655 
L 388.003311 63.708685 
L 388.003311 63.708685 
L 410.406474 60.999542 
L 434.547037 58.307979 
L 434.547037 58.307979 
L 460.705359 55.618141 
L 460.705359 55.618141 
L 489.044324 52.930419 
L 489.044324 52.930419 
L 519.854677 50.23549 
L 550.381293 47.764811 
L 550.381293 47.764811 
" clip-path="url(#pe1b49fc955)" style="fill: none; stroke: #1f77b4; stroke-opacity: 0.7; stroke-width: 1.5; stroke-linecap: square"/>
   </g>
   <g id="line2d_106">
    <path d="M 124.090938 433 
L 124.180666 321.045302 
L 124.180666 321.045302 
L 124.407923 284.775211 
L 124.407923 284.775211 
L 124.758114 261.34174 
L 124.758114 261.34174 
L 125.229057 244.087575 
L 125.229057 244.087575 
L 125.825015 230.333703 
L 125.825015 230.333703 
L 126.497341 219.571628 
L 126.497341 219.571628 
L 127.361479 209.460141 
L 128.274068 201.331996 
L 128.274068 201.331996 
L 129.313659 193.990881 
L 129.313659 193.990881 
L 130.465694 187.391517 
L 130.465694 187.391517 
L 131.677347 181.625987 
L 131.677347 181.625987 
L 133.123346 175.842261 
L 133.123346 175.842261 
L 134.67215 170.593132 
L 134.67215 170.593132 
L 136.282112 165.893849 
L 136.282112 165.893849 
L 138.093537 161.296138 
L 138.093537 161.296138 
L 140.049588 156.955337 
L 140.049588 156.955337 
L 142.204173 152.750325 
L 142.204173 152.750325 
L 144.317707 149.085192 
L 144.317707 149.085192 
L 146.6076 145.523036 
L 146.6076 145.523036 
L 149.17513 141.93608 
L 149.17513 141.93608 
L 151.82991 138.59398 
L 151.82991 138.59398 
L 154.881447 135.126392 
L 154.881447 135.126392 
L 158.185907 131.739078 
L 158.185907 131.739078 
L 161.433749 128.71548 
L 161.433749 128.71548 
L 165.175937 125.541747 
L 165.175937 125.541747 
L 168.507776 122.950333 
L 168.507776 122.950333 
" clip-path="url(#pe1b49fc955)" style="fill: none; stroke: #ff7f0e; stroke-opacity: 0.7; stroke-width: 1.5; stroke-linecap: square"/>
   </g>
   <g id="line2d_107">
    <path d="M 124.090961 433 
L 124.19821 316.323294 
L 124.19821 316.323294 
L 124.487807 277.799075 
L 124.487807 277.799075 
L 124.906268 254.894302 
L 124.906268 254.894302 
L 125.413781 239.187037 
L 126.053995 226.265097 
L 126.053995 226.265097 
L 126.777953 215.939939 
L 126.777953 215.939939 
L 127.589357 207.23695 
L 127.589357 207.23695 
L 128.580336 198.995971 
L 129.667216 191.822832 
L 129.667216 191.822832 
L 130.853915 185.433203 
L 130.853915 185.433203 
L 132.189376 179.461097 
L 132.189376 179.461097 
L 133.659261 173.930769 
L 135.235134 168.873321 
L 135.235134 168.873321 
L 136.951497 164.11994 
L 136.951497 164.11994 
L 138.773285 159.722604 
L 138.773285 159.722604 
L 140.772593 155.484206 
L 142.888735 151.518419 
L 142.888735 151.518419 
L 145.143471 147.756221 
L 145.143471 147.756221 
L 147.620053 144.062057 
L 147.620053 144.062057 
L 150.27188 140.514442 
L 150.27188 140.514442 
L 153.097079 137.109902 
L 153.097079 137.109902 
L 156.094421 133.842574 
L 156.094421 133.842574 
L 159.378511 130.596626 
L 159.378511 130.596626 
L 162.770634 127.546591 
L 162.770634 127.546591 
L 166.544728 124.45259 
L 166.544728 124.45259 
L 170.5815 121.433804 
L 170.5815 121.433804 
L 175.000553 118.415887 
L 175.000553 118.415887 
L 179.673712 115.496915 
L 179.673712 115.496915 
L 184.71918 112.608875 
L 184.71918 112.608875 
L 190.138703 109.762949 
L 190.138703 109.762949 
L 195.972963 106.949153 
L 195.972963 106.949153 
L 202.290241 104.149019 
L 202.290241 104.149019 
L 209.188966 101.33855 
L 216.622319 98.554577 
L 224.707088 95.769844 
L 224.707088 95.769844 
L 233.456496 92.997742 
L 233.456496 92.997742 
L 242.965044 90.22606 
L 242.965044 90.22606 
L 253.219046 87.475241 
L 253.219046 87.475241 
L 264.16324 84.770468 
L 276.126563 82.045626 
L 276.126563 82.045626 
L 289.042525 79.334677 
L 289.042525 79.334677 
L 303.097046 76.616022 
L 303.097046 76.616022 
L 318.155254 73.930525 
L 318.155254 73.930525 
L 334.657014 71.217065 
L 334.657014 71.217065 
L 352.378228 68.530328 
L 371.478378 65.85868 
L 371.478378 65.85868 
L 392.492942 63.147797 
L 392.492942 63.147797 
L 415.080576 60.461112 
L 415.080576 60.461112 
L 439.608463 57.770259 
L 439.608463 57.770259 
L 466.132625 55.086311 
L 466.132625 55.086311 
L 494.933411 52.398145 
L 494.933411 52.398145 
L 526.122357 49.713019 
L 526.122357 49.713019 
L 560.029446 47.020629 
L 560.029446 47.020629 
L 596.578664 44.343534 
L 596.578664 44.343534 
L 636.327642 41.657633 
L 636.327642 41.657633 
L 679.241705 38.982433 
L 679.241705 38.982433 
L 725.773608 36.305976 
L 725.773608 36.305976 
L 776.504924 33.614257 
L 776.504924 33.614257 
L 818.479318 31.540919 
L 818.479318 31.540919 
" clip-path="url(#pe1b49fc955)" style="fill: none; stroke: #2ca02c; stroke-opacity: 0.7; stroke-width: 1.5; stroke-linecap: square"/>
   </g>
   <g id="line2d_108">
    <path d="M 124.213145 433 
L 124.213376 312.720398 
L 124.213376 312.720398 
L 124.524711 275.012098 
L 124.524711 275.012098 
L 124.883439 255.809904 
L 124.883439 255.809904 
L 125.451236 238.275746 
L 125.451236 238.275746 
L 126.033693 226.606371 
L 126.033693 226.606371 
L 126.794705 215.735195 
L 126.794705 215.735195 
L 127.592562 207.206713 
L 127.592562 207.206713 
L 128.517732 199.460322 
L 128.517732 199.460322 
L 129.663448 191.845211 
L 129.663448 191.845211 
L 130.824744 185.576411 
L 130.824744 185.576411 
L 132.075368 179.931078 
L 132.075368 179.931078 
L 133.546816 174.322829 
L 133.546816 174.322829 
L 135.11267 169.239929 
L 135.11267 169.239929 
L 136.800758 164.511231 
L 136.800758 164.511231 
L 138.680601 159.932821 
L 138.680601 159.932821 
L 140.586651 155.856377 
L 140.586651 155.856377 
L 142.744488 151.774231 
L 142.744488 151.774231 
L 145.031578 147.93322 
L 145.031578 147.93322 
L 147.567203 144.136754 
L 147.567203 144.136754 
L 150.320135 140.453268 
L 150.320135 140.453268 
L 153.047767 137.166433 
L 153.047767 137.166433 
L 156.166286 133.768045 
L 156.166286 133.768045 
L 159.556514 130.429426 
L 159.556514 130.429426 
L 163.067068 127.292881 
L 163.067068 127.292881 
L 166.876859 124.193604 
L 166.876859 124.193604 
L 171.050168 121.100438 
L 171.050168 121.100438 
L 175.280258 118.233778 
L 175.280258 118.233778 
L 180.10226 115.241628 
L 180.10226 115.241628 
L 185.15646 112.369996 
L 185.15646 112.369996 
L 190.678684 109.492291 
L 190.678684 109.492291 
L 196.520711 106.696808 
L 196.520711 106.696808 
L 202.900365 103.890661 
L 202.900365 103.890661 
L 209.766334 101.113763 
L 209.766334 101.113763 
L 217.136646 98.370303 
L 217.136646 98.370303 
L 225.328402 95.565184 
L 225.328402 95.565184 
L 234.202009 92.771885 
L 234.202009 92.771885 
L 243.830929 89.98477 
L 243.830929 89.98477 
L 253.952104 87.287033 
L 253.952104 87.287033 
L 264.868414 84.603509 
L 264.868414 84.603509 
L 277.04817 81.844693 
L 277.04817 81.844693 
L 290.257062 79.090767 
L 290.257062 79.090767 
L 304.429153 76.369512 
L 304.429153 76.369512 
L 319.708907 73.665398 
L 319.708907 73.665398 
L 336.455858 70.934226 
L 336.455858 70.934226 
L 354.609871 68.206871 
L 354.609871 68.206871 
L 373.898019 65.53505 
L 373.898019 65.53505 
L 394.898819 62.851079 
L 394.898819 62.851079 
L 417.589454 60.175659 
L 417.589454 60.175659 
L 442.393415 57.478056 
L 442.393415 57.478056 
L 469.331477 54.776786 
L 469.331477 54.776786 
L 498.649691 52.066588 
L 498.649691 52.066588 
L 529.994247 49.394315 
L 529.994247 49.394315 
L 547.522568 47.988547 
L 547.522568 47.988547 
" clip-path="url(#pe1b49fc955)" style="fill: none; stroke: #d62728; stroke-opacity: 0.7; stroke-width: 1.5; stroke-linecap: square"/>
   </g>
   <g id="patch_3">
    <path d="M 89.345 390.04 
L 89.345 14.469535 
" style="fill: none; stroke: #000000; stroke-width: 0.8; stroke-linejoin: miter; stroke-linecap: square"/>
   </g>
   <g id="patch_4">
    <path d="M 853.2 390.04 
L 853.2 14.469535 
" style="fill: none; stroke: #000000; stroke-width: 0.8; stroke-linejoin: miter; stroke-linecap: square"/>
   </g>
   <g id="patch_5">
    <path d="M 89.345 390.04 
L 853.2 390.04 
" style="fill: none; stroke: #000000; stroke-width: 0.8; stroke-linejoin: miter; stroke-linecap: square"/>
   </g>
   <g id="patch_6">
    <path d="M 89.345 14.469535 
L 853.2 14.469535 
" style="fill: none; stroke: #000000; stroke-width: 0.8; stroke-linejoin: miter; stroke-linecap: square"/>
   </g>
   <g id="legend_1">
    <g id="patch_7">
     <path d="M 96.345 81.182035 
L 201.40125 81.182035 
Q 203.40125 81.182035 203.40125 79.182035 
L 203.40125 21.469535 
Q 203.40125 19.469535 201.40125 19.469535 
L 96.345 19.469535 
Q 94.345 19.469535 94.345 21.469535 
L 94.345 79.182035 
Q 94.345 81.182035 96.345 81.182035 
z
" style="fill: #ffffff; opacity: 0.8; stroke: #cccccc; stroke-linejoin: miter"/>
    </g>
    <g id="line2d_109">
     <path d="M 98.345 27.567972 
L 108.345 27.567972 
L 118.345 27.567972 
" style="fill: none; stroke: #1f77b4; stroke-opacity: 0.7; stroke-width: 1.5; stroke-linecap: square"/>
    </g>
    <g id="text_15">
     <!-- 10oc-state-diff -->
     <g transform="translate(126.345 31.067972) scale(0.1 -0.1)">
      <defs>
       <path id="DejaVuSans-2d" d="M 313 2009 
L 1997 2009 
L 1997 1497 
L 313 1497 
L 313 2009 
z
" transform="scale(0.015625)"/>
       <path id="DejaVuSans-61" d="M 2194 1759 
Q 1497 1759 1228 1600 
Q 959 1441 959 1056 
Q 959 750 1161 570 
Q 1363 391 1709 391 
Q 2188 391 2477 730 
Q 2766 1069 2766 1631 
L 2766 1759 
L 2194 1759 
z
M 3341 1997 
L 3341 0 
L 2766 0 
L 2766 531 
Q 2569 213 2275 61 
Q 1981 -91 1556 -91 
Q 1019 -91 701 211 
Q 384 513 384 1019 
Q 384 1609 779 1909 
Q 1175 2209 1959 2209 
L 2766 2209 
L 2766 2266 
Q 2766 2663 2505 2880 
Q 2244 3097 1772 3097 
Q 1472 3097 1187 3025 
Q 903 2953 641 2809 
L 641 3341 
Q 956 3463 1253 3523 
Q 1550 3584 1831 3584 
Q 2591 3584 2966 3190 
Q 3341 2797 3341 1997 
z
" transform="scale(0.015625)"/>
       <path id="DejaVuSans-64" d="M 2906 2969 
L 2906 4863 
L 3481 4863 
L 3481 0 
L 2906 0 
L 2906 525 
Q 2725 213 2448 61 
Q 2172 -91 1784 -91 
Q 1150 -91 751 415 
Q 353 922 353 1747 
Q 353 2572 751 3078 
Q 1150 3584 1784 3584 
Q 2172 3584 2448 3432 
Q 2725 3281 2906 2969 
z
M 947 1747 
Q 947 1113 1208 752 
Q 1469 391 1925 391 
Q 2381 391 2643 752 
Q 2906 1113 2906 1747 
Q 2906 2381 2643 2742 
Q 2381 3103 1925 3103 
Q 1469 3103 1208 2742 
Q 947 2381 947 1747 
z
" transform="scale(0.015625)"/>
       <path id="DejaVuSans-66" d="M 2375 4863 
L 2375 4384 
L 1825 4384 
Q 1516 4384 1395 4259 
Q 1275 4134 1275 3809 
L 1275 3500 
L 2222 3500 
L 2222 3053 
L 1275 3053 
L 1275 0 
L 697 0 
L 697 3053 
L 147 3053 
L 147 3500 
L 697 3500 
L 697 3744 
Q 697 4328 969 4595 
Q 1241 4863 1831 4863 
L 2375 4863 
z
" transform="scale(0.015625)"/>
      </defs>
      <use xlink:href="#DejaVuSans-31"/>
      <use xlink:href="#DejaVuSans-30" transform="translate(63.623047 0)"/>
      <use xlink:href="#DejaVuSans-6f" transform="translate(127.246094 0)"/>
      <use xlink:href="#DejaVuSans-63" transform="translate(188.427734 0)"/>
      <use xlink:href="#DejaVuSans-2d" transform="translate(243.408203 0)"/>
      <use xlink:href="#DejaVuSans-73" transform="translate(279.492188 0)"/>
      <use xlink:href="#DejaVuSans-74" transform="translate(331.591797 0)"/>
      <use xlink:href="#DejaVuSans-61" transform="translate(370.800781 0)"/>
      <use xlink:href="#DejaVuSans-74" transform="translate(432.080078 0)"/>
      <use xlink:href="#DejaVuSans-65" transform="translate(471.289062 0)"/>
      <use xlink:href="#DejaVuSans-2d" transform="translate(532.8125 0)"/>
      <use xlink:href="#DejaVuSans-64" transform="translate(568.896484 0)"/>
      <use xlink:href="#DejaVuSans-69" transform="translate(632.373047 0)"/>
      <use xlink:href="#DejaVuSans-66" transform="translate(660.15625 0)"/>
      <use xlink:href="#DejaVuSans-66" transform="translate(695.361328 0)"/>
     </g>
    </g>
    <g id="line2d_110">
     <path d="M 98.345 42.246097 
L 108.345 42.246097 
L 118.345 42.246097 
" style="fill: none; stroke: #ff7f0e; stroke-opacity: 0.7; stroke-width: 1.5; stroke-linecap: square"/>
    </g>
    <g id="text_16">
     <!-- 1oc-state-diff -->
     <g transform="translate(126.345 45.746097) scale(0.1 -0.1)">
      <use xlink:href="#DejaVuSans-31"/>
      <use xlink:href="#DejaVuSans-6f" transform="translate(63.623047 0)"/>
      <use xlink:href="#DejaVuSans-63" transform="translate(124.804688 0)"/>
      <use xlink:href="#DejaVuSans-2d" transform="translate(179.785156 0)"/>
      <use xlink:href="#DejaVuSans-73" transform="translate(215.869141 0)"/>
      <use xlink:href="#DejaVuSans-74" transform="translate(267.96875 0)"/>
      <use xlink:href="#DejaVuSans-61" transform="translate(307.177734 0)"/>
      <use xlink:href="#DejaVuSans-74" transform="translate(368.457031 0)"/>
      <use xlink:href="#DejaVuSans-65" transform="translate(407.666016 0)"/>
      <use xlink:href="#DejaVuSans-2d" transform="translate(469.189453 0)"/>
      <use xlink:href="#DejaVuSans-64" transform="translate(505.273438 0)"/>
      <use xlink:href="#DejaVuSans-69" transform="translate(568.75 0)"/>
      <use xlink:href="#DejaVuSans-66" transform="translate(596.533203 0)"/>
      <use xlink:href="#DejaVuSans-66" transform="translate(631.738281 0)"/>
     </g>
    </g>
    <g id="line2d_111">
     <path d="M 98.345 56.924222 
L 108.345 56.924222 
L 118.345 56.924222 
" style="fill: none; stroke: #2ca02c; stroke-opacity: 0.7; stroke-width: 1.5; stroke-linecap: square"/>
    </g>
    <g id="text_17">
     <!-- 20oc-state-diff -->
     <g transform="translate(126.345 60.424222) scale(0.1 -0.1)">
      <use xlink:href="#DejaVuSans-32"/>
      <use xlink:href="#DejaVuSans-30" transform="translate(63.623047 0)"/>
      <use xlink:href="#DejaVuSans-6f" transform="translate(127.246094 0)"/>
      <use xlink:href="#DejaVuSans-63" transform="translate(188.427734 0)"/>
      <use xlink:href="#DejaVuSans-2d" transform="translate(243.408203 0)"/>
      <use xlink:href="#DejaVuSans-73" transform="translate(279.492188 0)"/>
      <use xlink:href="#DejaVuSans-74" transform="translate(331.591797 0)"/>
      <use xlink:href="#DejaVuSans-61" transform="translate(370.800781 0)"/>
      <use xlink:href="#DejaVuSans-74" transform="translate(432.080078 0)"/>
      <use xlink:href="#DejaVuSans-65" transform="translate(471.289062 0)"/>
      <use xlink:href="#DejaVuSans-2d" transform="translate(532.8125 0)"/>
      <use xlink:href="#DejaVuSans-64" transform="translate(568.896484 0)"/>
      <use xlink:href="#DejaVuSans-69" transform="translate(632.373047 0)"/>
      <use xlink:href="#DejaVuSans-66" transform="translate(660.15625 0)"/>
      <use xlink:href="#DejaVuSans-66" transform="translate(695.361328 0)"/>
     </g>
    </g>
    <g id="line2d_112">
     <path d="M 98.345 71.602347 
L 108.345 71.602347 
L 118.345 71.602347 
" style="fill: none; stroke: #d62728; stroke-opacity: 0.7; stroke-width: 1.5; stroke-linecap: square"/>
    </g>
    <g id="text_18">
     <!-- 50oc-state-diff -->
     <g transform="translate(126.345 75.102347) scale(0.1 -0.1)">
      <use xlink:href="#DejaVuSans-35"/>
      <use xlink:href="#DejaVuSans-30" transform="translate(63.623047 0)"/>
      <use xlink:href="#DejaVuSans-6f" transform="translate(127.246094 0)"/>
      <use xlink:href="#DejaVuSans-63" transform="translate(188.427734 0)"/>
      <use xlink:href="#DejaVuSans-2d" transform="translate(243.408203 0)"/>
      <use xlink:href="#DejaVuSans-73" transform="translate(279.492188 0)"/>
      <use xlink:href="#DejaVuSans-74" transform="translate(331.591797 0)"/>
      <use xlink:href="#DejaVuSans-61" transform="translate(370.800781 0)"/>
      <use xlink:href="#DejaVuSans-74" transform="translate(432.080078 0)"/>
      <use xlink:href="#DejaVuSans-65" transform="translate(471.289062 0)"/>
      <use xlink:href="#DejaVuSans-2d" transform="translate(532.8125 0)"/>
      <use xlink:href="#DejaVuSans-64" transform="translate(568.896484 0)"/>
      <use xlink:href="#DejaVuSans-69" transform="translate(632.373047 0)"/>
      <use xlink:href="#DejaVuSans-66" transform="translate(660.15625 0)"/>
      <use xlink:href="#DejaVuSans-66" transform="translate(695.361328 0)"/>
     </g>
    </g>
   </g>
  </g>
 </g>
 <defs>
  <clipPath id="pe1b49fc955">
   <rect x="89.345" y="14.469535" width="763.855" height="375.570465"/>
  </clipPath>
 </defs>
</svg>
