<?xml version="1.0" encoding="utf-8" standalone="no"?>
<!DOCTYPE svg PUBLIC "-//W3C//DTD SVG 1.1//EN"
  "http://www.w3.org/Graphics/SVG/1.1/DTD/svg11.dtd">
<svg xmlns:xlink="http://www.w3.org/1999/xlink" width="864pt" height="432pt" viewBox="0 0 864 432" xmlns="http://www.w3.org/2000/svg" version="1.1">
 <metadata>
  <rdf:RDF xmlns:dc="http://purl.org/dc/elements/1.1/" xmlns:cc="http://creativecommons.org/ns#" xmlns:rdf="http://www.w3.org/1999/02/22-rdf-syntax-ns#">
   <cc:Work>
    <dc:type rdf:resource="http://purl.org/dc/dcmitype/StillImage"/>
    <dc:date>2025-02-27T15:09:15.372258</dc:date>
    <dc:format>image/svg+xml</dc:format>
    <dc:creator>
     <cc:Agent>
      <dc:title>Matplotlib v3.10.0, https://matplotlib.org/</dc:title>
     </cc:Agent>
    </dc:creator>
   </cc:Work>
  </rdf:RDF>
 </metadata>
 <defs>
  <style type="text/css">*{stroke-linejoin: round; stroke-linecap: butt}</style>
 </defs>
 <g id="figure_1">
  <g id="patch_1">
   <path d="M 0 432 
L 864 432 
L 864 0 
L 0 0 
z
" style="fill: #ffffff"/>
  </g>
  <g id="axes_1">
   <g id="patch_2">
    <path d="M 36.625 390.04 
L 853.2 390.04 
L 853.2 10.8 
L 36.625 10.8 
z
" style="fill: #ffffff"/>
   </g>
   <g id="matplotlib.axis_1">
    <g id="xtick_1">
     <g id="line2d_1">
      <path d="M 73.742045 390.04 
L 73.742045 10.8 
" clip-path="url(#p779fe043f5)" style="fill: none; stroke: #b0b0b0; stroke-width: 0.8; stroke-linecap: square"/>
     </g>
     <g id="line2d_2">
      <defs>
       <path id="m2b3a160553" d="M 0 0 
L 0 3.5 
" style="stroke: #000000; stroke-width: 0.8"/>
      </defs>
      <g>
       <use xlink:href="#m2b3a160553" x="73.742045" y="390.04" style="stroke: #000000; stroke-width: 0.8"/>
      </g>
     </g>
     <g id="text_1">
      <!-- 0 -->
      <g transform="translate(70.560795 404.638438) scale(0.1 -0.1)">
       <defs>
        <path id="DejaVuSans-30" d="M 2034 4250 
Q 1547 4250 1301 3770 
Q 1056 3291 1056 2328 
Q 1056 1369 1301 889 
Q 1547 409 2034 409 
Q 2525 409 2770 889 
Q 3016 1369 3016 2328 
Q 3016 3291 2770 3770 
Q 2525 4250 2034 4250 
z
M 2034 4750 
Q 2819 4750 3233 4129 
Q 3647 3509 3647 2328 
Q 3647 1150 3233 529 
Q 2819 -91 2034 -91 
Q 1250 -91 836 529 
Q 422 1150 422 2328 
Q 422 3509 836 4129 
Q 1250 4750 2034 4750 
z
" transform="scale(0.015625)"/>
       </defs>
       <use xlink:href="#DejaVuSans-30"/>
      </g>
     </g>
    </g>
    <g id="xtick_2">
     <g id="line2d_3">
      <path d="M 196.563911 390.04 
L 196.563911 10.8 
" clip-path="url(#p779fe043f5)" style="fill: none; stroke: #b0b0b0; stroke-width: 0.8; stroke-linecap: square"/>
     </g>
     <g id="line2d_4">
      <g>
       <use xlink:href="#m2b3a160553" x="196.563911" y="390.04" style="stroke: #000000; stroke-width: 0.8"/>
      </g>
     </g>
     <g id="text_2">
      <!-- 10000000 -->
      <g transform="translate(171.113911 404.638438) scale(0.1 -0.1)">
       <defs>
        <path id="DejaVuSans-31" d="M 794 531 
L 1825 531 
L 1825 4091 
L 703 3866 
L 703 4441 
L 1819 4666 
L 2450 4666 
L 2450 531 
L 3481 531 
L 3481 0 
L 794 0 
L 794 531 
z
" transform="scale(0.015625)"/>
       </defs>
       <use xlink:href="#DejaVuSans-31"/>
       <use xlink:href="#DejaVuSans-30" transform="translate(63.623047 0)"/>
       <use xlink:href="#DejaVuSans-30" transform="translate(127.246094 0)"/>
       <use xlink:href="#DejaVuSans-30" transform="translate(190.869141 0)"/>
       <use xlink:href="#DejaVuSans-30" transform="translate(254.492188 0)"/>
       <use xlink:href="#DejaVuSans-30" transform="translate(318.115234 0)"/>
       <use xlink:href="#DejaVuSans-30" transform="translate(381.738281 0)"/>
       <use xlink:href="#DejaVuSans-30" transform="translate(445.361328 0)"/>
      </g>
     </g>
    </g>
    <g id="xtick_3">
     <g id="line2d_5">
      <path d="M 319.385777 390.04 
L 319.385777 10.8 
" clip-path="url(#p779fe043f5)" style="fill: none; stroke: #b0b0b0; stroke-width: 0.8; stroke-linecap: square"/>
     </g>
     <g id="line2d_6">
      <g>
       <use xlink:href="#m2b3a160553" x="319.385777" y="390.04" style="stroke: #000000; stroke-width: 0.8"/>
      </g>
     </g>
     <g id="text_3">
      <!-- 20000000 -->
      <g transform="translate(293.935777 404.638438) scale(0.1 -0.1)">
       <defs>
        <path id="DejaVuSans-32" d="M 1228 531 
L 3431 531 
L 3431 0 
L 469 0 
L 469 531 
Q 828 903 1448 1529 
Q 2069 2156 2228 2338 
Q 2531 2678 2651 2914 
Q 2772 3150 2772 3378 
Q 2772 3750 2511 3984 
Q 2250 4219 1831 4219 
Q 1534 4219 1204 4116 
Q 875 4013 500 3803 
L 500 4441 
Q 881 4594 1212 4672 
Q 1544 4750 1819 4750 
Q 2544 4750 2975 4387 
Q 3406 4025 3406 3419 
Q 3406 3131 3298 2873 
Q 3191 2616 2906 2266 
Q 2828 2175 2409 1742 
Q 1991 1309 1228 531 
z
" transform="scale(0.015625)"/>
       </defs>
       <use xlink:href="#DejaVuSans-32"/>
       <use xlink:href="#DejaVuSans-30" transform="translate(63.623047 0)"/>
       <use xlink:href="#DejaVuSans-30" transform="translate(127.246094 0)"/>
       <use xlink:href="#DejaVuSans-30" transform="translate(190.869141 0)"/>
       <use xlink:href="#DejaVuSans-30" transform="translate(254.492188 0)"/>
       <use xlink:href="#DejaVuSans-30" transform="translate(318.115234 0)"/>
       <use xlink:href="#DejaVuSans-30" transform="translate(381.738281 0)"/>
       <use xlink:href="#DejaVuSans-30" transform="translate(445.361328 0)"/>
      </g>
     </g>
    </g>
    <g id="xtick_4">
     <g id="line2d_7">
      <path d="M 442.207643 390.04 
L 442.207643 10.8 
" clip-path="url(#p779fe043f5)" style="fill: none; stroke: #b0b0b0; stroke-width: 0.8; stroke-linecap: square"/>
     </g>
     <g id="line2d_8">
      <g>
       <use xlink:href="#m2b3a160553" x="442.207643" y="390.04" style="stroke: #000000; stroke-width: 0.8"/>
      </g>
     </g>
     <g id="text_4">
      <!-- 30000000 -->
      <g transform="translate(416.757643 404.638438) scale(0.1 -0.1)">
       <defs>
        <path id="DejaVuSans-33" d="M 2597 2516 
Q 3050 2419 3304 2112 
Q 3559 1806 3559 1356 
Q 3559 666 3084 287 
Q 2609 -91 1734 -91 
Q 1441 -91 1130 -33 
Q 819 25 488 141 
L 488 750 
Q 750 597 1062 519 
Q 1375 441 1716 441 
Q 2309 441 2620 675 
Q 2931 909 2931 1356 
Q 2931 1769 2642 2001 
Q 2353 2234 1838 2234 
L 1294 2234 
L 1294 2753 
L 1863 2753 
Q 2328 2753 2575 2939 
Q 2822 3125 2822 3475 
Q 2822 3834 2567 4026 
Q 2313 4219 1838 4219 
Q 1578 4219 1281 4162 
Q 984 4106 628 3988 
L 628 4550 
Q 988 4650 1302 4700 
Q 1616 4750 1894 4750 
Q 2613 4750 3031 4423 
Q 3450 4097 3450 3541 
Q 3450 3153 3228 2886 
Q 3006 2619 2597 2516 
z
" transform="scale(0.015625)"/>
       </defs>
       <use xlink:href="#DejaVuSans-33"/>
       <use xlink:href="#DejaVuSans-30" transform="translate(63.623047 0)"/>
       <use xlink:href="#DejaVuSans-30" transform="translate(127.246094 0)"/>
       <use xlink:href="#DejaVuSans-30" transform="translate(190.869141 0)"/>
       <use xlink:href="#DejaVuSans-30" transform="translate(254.492188 0)"/>
       <use xlink:href="#DejaVuSans-30" transform="translate(318.115234 0)"/>
       <use xlink:href="#DejaVuSans-30" transform="translate(381.738281 0)"/>
       <use xlink:href="#DejaVuSans-30" transform="translate(445.361328 0)"/>
      </g>
     </g>
    </g>
    <g id="xtick_5">
     <g id="line2d_9">
      <path d="M 565.029509 390.04 
L 565.029509 10.8 
" clip-path="url(#p779fe043f5)" style="fill: none; stroke: #b0b0b0; stroke-width: 0.8; stroke-linecap: square"/>
     </g>
     <g id="line2d_10">
      <g>
       <use xlink:href="#m2b3a160553" x="565.029509" y="390.04" style="stroke: #000000; stroke-width: 0.8"/>
      </g>
     </g>
     <g id="text_5">
      <!-- 40000000 -->
      <g transform="translate(539.579509 404.638438) scale(0.1 -0.1)">
       <defs>
        <path id="DejaVuSans-34" d="M 2419 4116 
L 825 1625 
L 2419 1625 
L 2419 4116 
z
M 2253 4666 
L 3047 4666 
L 3047 1625 
L 3713 1625 
L 3713 1100 
L 3047 1100 
L 3047 0 
L 2419 0 
L 2419 1100 
L 313 1100 
L 313 1709 
L 2253 4666 
z
" transform="scale(0.015625)"/>
       </defs>
       <use xlink:href="#DejaVuSans-34"/>
       <use xlink:href="#DejaVuSans-30" transform="translate(63.623047 0)"/>
       <use xlink:href="#DejaVuSans-30" transform="translate(127.246094 0)"/>
       <use xlink:href="#DejaVuSans-30" transform="translate(190.869141 0)"/>
       <use xlink:href="#DejaVuSans-30" transform="translate(254.492188 0)"/>
       <use xlink:href="#DejaVuSans-30" transform="translate(318.115234 0)"/>
       <use xlink:href="#DejaVuSans-30" transform="translate(381.738281 0)"/>
       <use xlink:href="#DejaVuSans-30" transform="translate(445.361328 0)"/>
      </g>
     </g>
    </g>
    <g id="xtick_6">
     <g id="line2d_11">
      <path d="M 687.851375 390.04 
L 687.851375 10.8 
" clip-path="url(#p779fe043f5)" style="fill: none; stroke: #b0b0b0; stroke-width: 0.8; stroke-linecap: square"/>
     </g>
     <g id="line2d_12">
      <g>
       <use xlink:href="#m2b3a160553" x="687.851375" y="390.04" style="stroke: #000000; stroke-width: 0.8"/>
      </g>
     </g>
     <g id="text_6">
      <!-- 50000000 -->
      <g transform="translate(662.401375 404.638438) scale(0.1 -0.1)">
       <defs>
        <path id="DejaVuSans-35" d="M 691 4666 
L 3169 4666 
L 3169 4134 
L 1269 4134 
L 1269 2991 
Q 1406 3038 1543 3061 
Q 1681 3084 1819 3084 
Q 2600 3084 3056 2656 
Q 3513 2228 3513 1497 
Q 3513 744 3044 326 
Q 2575 -91 1722 -91 
Q 1428 -91 1123 -41 
Q 819 9 494 109 
L 494 744 
Q 775 591 1075 516 
Q 1375 441 1709 441 
Q 2250 441 2565 725 
Q 2881 1009 2881 1497 
Q 2881 1984 2565 2268 
Q 2250 2553 1709 2553 
Q 1456 2553 1204 2497 
Q 953 2441 691 2322 
L 691 4666 
z
" transform="scale(0.015625)"/>
       </defs>
       <use xlink:href="#DejaVuSans-35"/>
       <use xlink:href="#DejaVuSans-30" transform="translate(63.623047 0)"/>
       <use xlink:href="#DejaVuSans-30" transform="translate(127.246094 0)"/>
       <use xlink:href="#DejaVuSans-30" transform="translate(190.869141 0)"/>
       <use xlink:href="#DejaVuSans-30" transform="translate(254.492188 0)"/>
       <use xlink:href="#DejaVuSans-30" transform="translate(318.115234 0)"/>
       <use xlink:href="#DejaVuSans-30" transform="translate(381.738281 0)"/>
       <use xlink:href="#DejaVuSans-30" transform="translate(445.361328 0)"/>
      </g>
     </g>
    </g>
    <g id="xtick_7">
     <g id="line2d_13">
      <path d="M 810.673241 390.04 
L 810.673241 10.8 
" clip-path="url(#p779fe043f5)" style="fill: none; stroke: #b0b0b0; stroke-width: 0.8; stroke-linecap: square"/>
     </g>
     <g id="line2d_14">
      <g>
       <use xlink:href="#m2b3a160553" x="810.673241" y="390.04" style="stroke: #000000; stroke-width: 0.8"/>
      </g>
     </g>
     <g id="text_7">
      <!-- 60000000 -->
      <g transform="translate(785.223241 404.638438) scale(0.1 -0.1)">
       <defs>
        <path id="DejaVuSans-36" d="M 2113 2584 
Q 1688 2584 1439 2293 
Q 1191 2003 1191 1497 
Q 1191 994 1439 701 
Q 1688 409 2113 409 
Q 2538 409 2786 701 
Q 3034 994 3034 1497 
Q 3034 2003 2786 2293 
Q 2538 2584 2113 2584 
z
M 3366 4563 
L 3366 3988 
Q 3128 4100 2886 4159 
Q 2644 4219 2406 4219 
Q 1781 4219 1451 3797 
Q 1122 3375 1075 2522 
Q 1259 2794 1537 2939 
Q 1816 3084 2150 3084 
Q 2853 3084 3261 2657 
Q 3669 2231 3669 1497 
Q 3669 778 3244 343 
Q 2819 -91 2113 -91 
Q 1303 -91 875 529 
Q 447 1150 447 2328 
Q 447 3434 972 4092 
Q 1497 4750 2381 4750 
Q 2619 4750 2861 4703 
Q 3103 4656 3366 4563 
z
" transform="scale(0.015625)"/>
       </defs>
       <use xlink:href="#DejaVuSans-36"/>
       <use xlink:href="#DejaVuSans-30" transform="translate(63.623047 0)"/>
       <use xlink:href="#DejaVuSans-30" transform="translate(127.246094 0)"/>
       <use xlink:href="#DejaVuSans-30" transform="translate(190.869141 0)"/>
       <use xlink:href="#DejaVuSans-30" transform="translate(254.492188 0)"/>
       <use xlink:href="#DejaVuSans-30" transform="translate(318.115234 0)"/>
       <use xlink:href="#DejaVuSans-30" transform="translate(381.738281 0)"/>
       <use xlink:href="#DejaVuSans-30" transform="translate(445.361328 0)"/>
      </g>
     </g>
    </g>
    <g id="text_8">
     <!-- Executions -->
     <g transform="translate(417.773438 418.316562) scale(0.1 -0.1)">
      <defs>
       <path id="DejaVuSans-45" d="M 628 4666 
L 3578 4666 
L 3578 4134 
L 1259 4134 
L 1259 2753 
L 3481 2753 
L 3481 2222 
L 1259 2222 
L 1259 531 
L 3634 531 
L 3634 0 
L 628 0 
L 628 4666 
z
" transform="scale(0.015625)"/>
       <path id="DejaVuSans-78" d="M 3513 3500 
L 2247 1797 
L 3578 0 
L 2900 0 
L 1881 1375 
L 863 0 
L 184 0 
L 1544 1831 
L 300 3500 
L 978 3500 
L 1906 2253 
L 2834 3500 
L 3513 3500 
z
" transform="scale(0.015625)"/>
       <path id="DejaVuSans-65" d="M 3597 1894 
L 3597 1613 
L 953 1613 
Q 991 1019 1311 708 
Q 1631 397 2203 397 
Q 2534 397 2845 478 
Q 3156 559 3463 722 
L 3463 178 
Q 3153 47 2828 -22 
Q 2503 -91 2169 -91 
Q 1331 -91 842 396 
Q 353 884 353 1716 
Q 353 2575 817 3079 
Q 1281 3584 2069 3584 
Q 2775 3584 3186 3129 
Q 3597 2675 3597 1894 
z
M 3022 2063 
Q 3016 2534 2758 2815 
Q 2500 3097 2075 3097 
Q 1594 3097 1305 2825 
Q 1016 2553 972 2059 
L 3022 2063 
z
" transform="scale(0.015625)"/>
       <path id="DejaVuSans-63" d="M 3122 3366 
L 3122 2828 
Q 2878 2963 2633 3030 
Q 2388 3097 2138 3097 
Q 1578 3097 1268 2742 
Q 959 2388 959 1747 
Q 959 1106 1268 751 
Q 1578 397 2138 397 
Q 2388 397 2633 464 
Q 2878 531 3122 666 
L 3122 134 
Q 2881 22 2623 -34 
Q 2366 -91 2075 -91 
Q 1284 -91 818 406 
Q 353 903 353 1747 
Q 353 2603 823 3093 
Q 1294 3584 2113 3584 
Q 2378 3584 2631 3529 
Q 2884 3475 3122 3366 
z
" transform="scale(0.015625)"/>
       <path id="DejaVuSans-75" d="M 544 1381 
L 544 3500 
L 1119 3500 
L 1119 1403 
Q 1119 906 1312 657 
Q 1506 409 1894 409 
Q 2359 409 2629 706 
Q 2900 1003 2900 1516 
L 2900 3500 
L 3475 3500 
L 3475 0 
L 2900 0 
L 2900 538 
Q 2691 219 2414 64 
Q 2138 -91 1772 -91 
Q 1169 -91 856 284 
Q 544 659 544 1381 
z
M 1991 3584 
L 1991 3584 
z
" transform="scale(0.015625)"/>
       <path id="DejaVuSans-74" d="M 1172 4494 
L 1172 3500 
L 2356 3500 
L 2356 3053 
L 1172 3053 
L 1172 1153 
Q 1172 725 1289 603 
Q 1406 481 1766 481 
L 2356 481 
L 2356 0 
L 1766 0 
Q 1100 0 847 248 
Q 594 497 594 1153 
L 594 3053 
L 172 3053 
L 172 3500 
L 594 3500 
L 594 4494 
L 1172 4494 
z
" transform="scale(0.015625)"/>
       <path id="DejaVuSans-69" d="M 603 3500 
L 1178 3500 
L 1178 0 
L 603 0 
L 603 3500 
z
M 603 4863 
L 1178 4863 
L 1178 4134 
L 603 4134 
L 603 4863 
z
" transform="scale(0.015625)"/>
       <path id="DejaVuSans-6f" d="M 1959 3097 
Q 1497 3097 1228 2736 
Q 959 2375 959 1747 
Q 959 1119 1226 758 
Q 1494 397 1959 397 
Q 2419 397 2687 759 
Q 2956 1122 2956 1747 
Q 2956 2369 2687 2733 
Q 2419 3097 1959 3097 
z
M 1959 3584 
Q 2709 3584 3137 3096 
Q 3566 2609 3566 1747 
Q 3566 888 3137 398 
Q 2709 -91 1959 -91 
Q 1206 -91 779 398 
Q 353 888 353 1747 
Q 353 2609 779 3096 
Q 1206 3584 1959 3584 
z
" transform="scale(0.015625)"/>
       <path id="DejaVuSans-6e" d="M 3513 2113 
L 3513 0 
L 2938 0 
L 2938 2094 
Q 2938 2591 2744 2837 
Q 2550 3084 2163 3084 
Q 1697 3084 1428 2787 
Q 1159 2491 1159 1978 
L 1159 0 
L 581 0 
L 581 3500 
L 1159 3500 
L 1159 2956 
Q 1366 3272 1645 3428 
Q 1925 3584 2291 3584 
Q 2894 3584 3203 3211 
Q 3513 2838 3513 2113 
z
" transform="scale(0.015625)"/>
       <path id="DejaVuSans-73" d="M 2834 3397 
L 2834 2853 
Q 2591 2978 2328 3040 
Q 2066 3103 1784 3103 
Q 1356 3103 1142 2972 
Q 928 2841 928 2578 
Q 928 2378 1081 2264 
Q 1234 2150 1697 2047 
L 1894 2003 
Q 2506 1872 2764 1633 
Q 3022 1394 3022 966 
Q 3022 478 2636 193 
Q 2250 -91 1575 -91 
Q 1294 -91 989 -36 
Q 684 19 347 128 
L 347 722 
Q 666 556 975 473 
Q 1284 391 1588 391 
Q 1994 391 2212 530 
Q 2431 669 2431 922 
Q 2431 1156 2273 1281 
Q 2116 1406 1581 1522 
L 1381 1569 
Q 847 1681 609 1914 
Q 372 2147 372 2553 
Q 372 3047 722 3315 
Q 1072 3584 1716 3584 
Q 2034 3584 2315 3537 
Q 2597 3491 2834 3397 
z
" transform="scale(0.015625)"/>
      </defs>
      <use xlink:href="#DejaVuSans-45"/>
      <use xlink:href="#DejaVuSans-78" transform="translate(63.183594 0)"/>
      <use xlink:href="#DejaVuSans-65" transform="translate(119.238281 0)"/>
      <use xlink:href="#DejaVuSans-63" transform="translate(180.761719 0)"/>
      <use xlink:href="#DejaVuSans-75" transform="translate(235.742188 0)"/>
      <use xlink:href="#DejaVuSans-74" transform="translate(299.121094 0)"/>
      <use xlink:href="#DejaVuSans-69" transform="translate(338.330078 0)"/>
      <use xlink:href="#DejaVuSans-6f" transform="translate(366.113281 0)"/>
      <use xlink:href="#DejaVuSans-6e" transform="translate(427.294922 0)"/>
      <use xlink:href="#DejaVuSans-73" transform="translate(490.673828 0)"/>
     </g>
    </g>
   </g>
   <g id="matplotlib.axis_2">
    <g id="ytick_1">
     <g id="line2d_15">
      <path d="M 36.625 390.04 
L 853.2 390.04 
" clip-path="url(#p779fe043f5)" style="fill: none; stroke: #b0b0b0; stroke-width: 0.8; stroke-linecap: square"/>
     </g>
     <g id="line2d_16">
      <defs>
       <path id="mf7875a9897" d="M 0 0 
L -2 0 
" style="stroke: #000000; stroke-width: 0.6"/>
      </defs>
      <g>
       <use xlink:href="#mf7875a9897" x="36.625" y="390.04" style="stroke: #000000; stroke-width: 0.6"/>
      </g>
     </g>
     <g id="text_9">
      <!-- 6 -->
      <g transform="translate(24.8625 393.839219) scale(0.1 -0.1)">
       <use xlink:href="#DejaVuSans-36"/>
      </g>
     </g>
    </g>
    <g id="ytick_2">
     <g id="line2d_17">
      <path d="M 36.625 211.49111 
L 853.2 211.49111 
" clip-path="url(#p779fe043f5)" style="fill: none; stroke: #b0b0b0; stroke-width: 0.8; stroke-linecap: square"/>
     </g>
     <g id="line2d_18">
      <g>
       <use xlink:href="#mf7875a9897" x="36.625" y="211.49111" style="stroke: #000000; stroke-width: 0.6"/>
      </g>
     </g>
     <g id="text_10">
      <!-- 7 -->
      <g transform="translate(24.8625 215.290329) scale(0.1 -0.1)">
       <defs>
        <path id="DejaVuSans-37" d="M 525 4666 
L 3525 4666 
L 3525 4397 
L 1831 0 
L 1172 0 
L 2766 4134 
L 525 4134 
L 525 4666 
z
" transform="scale(0.015625)"/>
       </defs>
       <use xlink:href="#DejaVuSans-37"/>
      </g>
     </g>
    </g>
    <g id="ytick_3">
     <g id="line2d_19">
      <path d="M 36.625 56.825027 
L 853.2 56.825027 
" clip-path="url(#p779fe043f5)" style="fill: none; stroke: #b0b0b0; stroke-width: 0.8; stroke-linecap: square"/>
     </g>
     <g id="line2d_20">
      <g>
       <use xlink:href="#mf7875a9897" x="36.625" y="56.825027" style="stroke: #000000; stroke-width: 0.6"/>
      </g>
     </g>
     <g id="text_11">
      <!-- 8 -->
      <g transform="translate(24.8625 60.624245) scale(0.1 -0.1)">
       <defs>
        <path id="DejaVuSans-38" d="M 2034 2216 
Q 1584 2216 1326 1975 
Q 1069 1734 1069 1313 
Q 1069 891 1326 650 
Q 1584 409 2034 409 
Q 2484 409 2743 651 
Q 3003 894 3003 1313 
Q 3003 1734 2745 1975 
Q 2488 2216 2034 2216 
z
M 1403 2484 
Q 997 2584 770 2862 
Q 544 3141 544 3541 
Q 544 4100 942 4425 
Q 1341 4750 2034 4750 
Q 2731 4750 3128 4425 
Q 3525 4100 3525 3541 
Q 3525 3141 3298 2862 
Q 3072 2584 2669 2484 
Q 3125 2378 3379 2068 
Q 3634 1759 3634 1313 
Q 3634 634 3220 271 
Q 2806 -91 2034 -91 
Q 1263 -91 848 271 
Q 434 634 434 1313 
Q 434 1759 690 2068 
Q 947 2378 1403 2484 
z
M 1172 3481 
Q 1172 3119 1398 2916 
Q 1625 2713 2034 2713 
Q 2441 2713 2670 2916 
Q 2900 3119 2900 3481 
Q 2900 3844 2670 4047 
Q 2441 4250 2034 4250 
Q 1625 4250 1398 4047 
Q 1172 3844 1172 3481 
z
" transform="scale(0.015625)"/>
       </defs>
       <use xlink:href="#DejaVuSans-38"/>
      </g>
     </g>
    </g>
    <g id="text_12">
     <!-- Code Coverage [%] -->
     <g transform="translate(18.782812 249.009063) rotate(-90) scale(0.1 -0.1)">
      <defs>
       <path id="DejaVuSans-43" d="M 4122 4306 
L 4122 3641 
Q 3803 3938 3442 4084 
Q 3081 4231 2675 4231 
Q 1875 4231 1450 3742 
Q 1025 3253 1025 2328 
Q 1025 1406 1450 917 
Q 1875 428 2675 428 
Q 3081 428 3442 575 
Q 3803 722 4122 1019 
L 4122 359 
Q 3791 134 3420 21 
Q 3050 -91 2638 -91 
Q 1578 -91 968 557 
Q 359 1206 359 2328 
Q 359 3453 968 4101 
Q 1578 4750 2638 4750 
Q 3056 4750 3426 4639 
Q 3797 4528 4122 4306 
z
" transform="scale(0.015625)"/>
       <path id="DejaVuSans-64" d="M 2906 2969 
L 2906 4863 
L 3481 4863 
L 3481 0 
L 2906 0 
L 2906 525 
Q 2725 213 2448 61 
Q 2172 -91 1784 -91 
Q 1150 -91 751 415 
Q 353 922 353 1747 
Q 353 2572 751 3078 
Q 1150 3584 1784 3584 
Q 2172 3584 2448 3432 
Q 2725 3281 2906 2969 
z
M 947 1747 
Q 947 1113 1208 752 
Q 1469 391 1925 391 
Q 2381 391 2643 752 
Q 2906 1113 2906 1747 
Q 2906 2381 2643 2742 
Q 2381 3103 1925 3103 
Q 1469 3103 1208 2742 
Q 947 2381 947 1747 
z
" transform="scale(0.015625)"/>
       <path id="DejaVuSans-20" transform="scale(0.015625)"/>
       <path id="DejaVuSans-76" d="M 191 3500 
L 800 3500 
L 1894 563 
L 2988 3500 
L 3597 3500 
L 2284 0 
L 1503 0 
L 191 3500 
z
" transform="scale(0.015625)"/>
       <path id="DejaVuSans-72" d="M 2631 2963 
Q 2534 3019 2420 3045 
Q 2306 3072 2169 3072 
Q 1681 3072 1420 2755 
Q 1159 2438 1159 1844 
L 1159 0 
L 581 0 
L 581 3500 
L 1159 3500 
L 1159 2956 
Q 1341 3275 1631 3429 
Q 1922 3584 2338 3584 
Q 2397 3584 2469 3576 
Q 2541 3569 2628 3553 
L 2631 2963 
z
" transform="scale(0.015625)"/>
       <path id="DejaVuSans-61" d="M 2194 1759 
Q 1497 1759 1228 1600 
Q 959 1441 959 1056 
Q 959 750 1161 570 
Q 1363 391 1709 391 
Q 2188 391 2477 730 
Q 2766 1069 2766 1631 
L 2766 1759 
L 2194 1759 
z
M 3341 1997 
L 3341 0 
L 2766 0 
L 2766 531 
Q 2569 213 2275 61 
Q 1981 -91 1556 -91 
Q 1019 -91 701 211 
Q 384 513 384 1019 
Q 384 1609 779 1909 
Q 1175 2209 1959 2209 
L 2766 2209 
L 2766 2266 
Q 2766 2663 2505 2880 
Q 2244 3097 1772 3097 
Q 1472 3097 1187 3025 
Q 903 2953 641 2809 
L 641 3341 
Q 956 3463 1253 3523 
Q 1550 3584 1831 3584 
Q 2591 3584 2966 3190 
Q 3341 2797 3341 1997 
z
" transform="scale(0.015625)"/>
       <path id="DejaVuSans-67" d="M 2906 1791 
Q 2906 2416 2648 2759 
Q 2391 3103 1925 3103 
Q 1463 3103 1205 2759 
Q 947 2416 947 1791 
Q 947 1169 1205 825 
Q 1463 481 1925 481 
Q 2391 481 2648 825 
Q 2906 1169 2906 1791 
z
M 3481 434 
Q 3481 -459 3084 -895 
Q 2688 -1331 1869 -1331 
Q 1566 -1331 1297 -1286 
Q 1028 -1241 775 -1147 
L 775 -588 
Q 1028 -725 1275 -790 
Q 1522 -856 1778 -856 
Q 2344 -856 2625 -561 
Q 2906 -266 2906 331 
L 2906 616 
Q 2728 306 2450 153 
Q 2172 0 1784 0 
Q 1141 0 747 490 
Q 353 981 353 1791 
Q 353 2603 747 3093 
Q 1141 3584 1784 3584 
Q 2172 3584 2450 3431 
Q 2728 3278 2906 2969 
L 2906 3500 
L 3481 3500 
L 3481 434 
z
" transform="scale(0.015625)"/>
       <path id="DejaVuSans-5b" d="M 550 4863 
L 1875 4863 
L 1875 4416 
L 1125 4416 
L 1125 -397 
L 1875 -397 
L 1875 -844 
L 550 -844 
L 550 4863 
z
" transform="scale(0.015625)"/>
       <path id="DejaVuSans-25" d="M 4653 2053 
Q 4381 2053 4226 1822 
Q 4072 1591 4072 1178 
Q 4072 772 4226 539 
Q 4381 306 4653 306 
Q 4919 306 5073 539 
Q 5228 772 5228 1178 
Q 5228 1588 5073 1820 
Q 4919 2053 4653 2053 
z
M 4653 2450 
Q 5147 2450 5437 2106 
Q 5728 1763 5728 1178 
Q 5728 594 5436 251 
Q 5144 -91 4653 -91 
Q 4153 -91 3862 251 
Q 3572 594 3572 1178 
Q 3572 1766 3864 2108 
Q 4156 2450 4653 2450 
z
M 1428 4353 
Q 1159 4353 1004 4120 
Q 850 3888 850 3481 
Q 850 3069 1003 2837 
Q 1156 2606 1428 2606 
Q 1700 2606 1854 2837 
Q 2009 3069 2009 3481 
Q 2009 3884 1853 4118 
Q 1697 4353 1428 4353 
z
M 4250 4750 
L 4750 4750 
L 1831 -91 
L 1331 -91 
L 4250 4750 
z
M 1428 4750 
Q 1922 4750 2215 4408 
Q 2509 4066 2509 3481 
Q 2509 2891 2217 2550 
Q 1925 2209 1428 2209 
Q 931 2209 642 2551 
Q 353 2894 353 3481 
Q 353 4063 643 4406 
Q 934 4750 1428 4750 
z
" transform="scale(0.015625)"/>
       <path id="DejaVuSans-5d" d="M 1947 4863 
L 1947 -844 
L 622 -844 
L 622 -397 
L 1369 -397 
L 1369 4416 
L 622 4416 
L 622 4863 
L 1947 4863 
z
" transform="scale(0.015625)"/>
      </defs>
      <use xlink:href="#DejaVuSans-43"/>
      <use xlink:href="#DejaVuSans-6f" transform="translate(69.824219 0)"/>
      <use xlink:href="#DejaVuSans-64" transform="translate(131.005859 0)"/>
      <use xlink:href="#DejaVuSans-65" transform="translate(194.482422 0)"/>
      <use xlink:href="#DejaVuSans-20" transform="translate(256.005859 0)"/>
      <use xlink:href="#DejaVuSans-43" transform="translate(287.792969 0)"/>
      <use xlink:href="#DejaVuSans-6f" transform="translate(357.617188 0)"/>
      <use xlink:href="#DejaVuSans-76" transform="translate(418.798828 0)"/>
      <use xlink:href="#DejaVuSans-65" transform="translate(477.978516 0)"/>
      <use xlink:href="#DejaVuSans-72" transform="translate(539.501953 0)"/>
      <use xlink:href="#DejaVuSans-61" transform="translate(580.615234 0)"/>
      <use xlink:href="#DejaVuSans-67" transform="translate(641.894531 0)"/>
      <use xlink:href="#DejaVuSans-65" transform="translate(705.371094 0)"/>
      <use xlink:href="#DejaVuSans-20" transform="translate(766.894531 0)"/>
      <use xlink:href="#DejaVuSans-5b" transform="translate(798.681641 0)"/>
      <use xlink:href="#DejaVuSans-25" transform="translate(837.695312 0)"/>
      <use xlink:href="#DejaVuSans-5d" transform="translate(932.714844 0)"/>
     </g>
    </g>
   </g>
   <g id="line2d_21">
    <path d="M 73.742045 433 
L 73.847672 332.691727 
L 73.874693 332.069888 
L 73.984005 331.063045 
L 74.012254 330.794133 
L 74.012254 330.794133 
L 74.098229 328.620581 
L 74.098229 328.620581 
L 74.154727 328.586502 
L 74.246057 325.47037 
L 74.274589 325.168774 
L 74.274589 325.168774 
L 74.376531 321.265735 
L 74.408047 321.178962 
L 74.517358 319.400487 
L 74.587367 318.700209 
L 74.587367 318.700209 
L 74.664745 317.860012 
L 74.664745 317.860012 
L 74.740084 317.741842 
L 74.740084 317.741842 
L 74.843561 316.26679 
L 74.843561 316.26679 
L 75.03396 316.097158 
L 75.03396 316.097158 
L 75.110109 314.578953 
L 75.147177 314.180255 
L 75.225807 313.614527 
L 75.264865 313.614527 
L 75.264865 313.508353 
L 75.345116 313.206702 
L 75.4574 313.177277 
L 75.4574 313.139446 
L 75.539814 312.717081 
L 75.702504 312.060726 
L 75.781969 311.565292 
L 75.781969 311.565292 
L 76.093691 310.719766 
L 76.093691 310.719766 
L 76.191236 310.112753 
L 76.355818 310.056156 
L 76.355818 310.056156 
L 76.448818 309.71035 
L 76.550982 309.674727 
L 76.550982 309.599294 
L 76.652924 309.413876 
L 76.652924 309.413876 
L 76.708194 309.413876 
L 76.708194 309.309133 
L 76.792388 308.963549 
L 76.792388 308.963549 
L 76.839109 308.843143 
L 76.944024 308.314549 
L 76.944024 308.314549 
L 77.232606 308.088531 
L 77.232606 308.088531 
L 77.324858 307.760046 
L 77.324858 307.760046 
L 77.393908 307.653361 
L 77.393908 307.653361 
L 77.497766 307.422244 
L 77.546133 307.422244 
L 77.546133 307.344867 
L 77.639478 306.995687 
L 77.639478 306.995687 
L 77.747782 306.892208 
L 77.855866 306.452263 
L 77.934594 306.451218 
L 77.934594 306.343609 
L 78.019587 306.096041 
L 78.019587 306.096041 
L 78.082226 306.096041 
L 78.082226 305.990554 
L 78.213879 305.870456 
L 78.213879 305.870456 
L 78.278164 305.792138 
L 78.278164 305.792138 
L 78.53921 305.686678 
L 78.53921 305.686678 
L 78.611675 305.204399 
L 78.611675 305.204399 
L 78.670654 305.204399 
L 78.670654 305.198137 
L 78.735749 305.088557 
L 78.862624 305.077078 
L 78.862624 305.077078 
L 78.931945 304.582536 
L 79.035877 304.500133 
L 79.035877 304.500133 
L 79.158367 304.317615 
L 79.2742 304.313443 
L 79.2742 304.262344 
L 79.373686 303.704566 
L 79.404391 303.704566 
L 79.404391 303.618056 
L 79.462879 303.448182 
L 79.462879 303.448182 
L 79.52316 303.415878 
L 79.594397 302.842884 
L 79.594397 302.842884 
L 79.646007 302.841842 
L 79.646007 302.758521 
L 79.718754 302.647089 
L 79.838309 302.636675 
L 79.838309 302.573154 
L 79.888666 302.393022 
L 80.140451 302.290994 
L 80.19631 302.182729 
L 80.334042 302.159828 
L 80.432546 301.889217 
L 80.432546 301.889217 
L 80.514836 301.789315 
L 80.514836 301.784112 
L 80.596955 301.522951 
L 80.596955 301.522951 
L 80.796786 301.426201 
L 80.796786 301.417879 
L 80.865566 301.355465 
L 80.915972 301.328419 
L 80.915972 301.328419 
L 80.969154 301.09856 
L 81.178394 301.002886 
L 81.178394 301.002886 
L 81.236243 300.635861 
L 81.236243 300.635861 
L 81.492965 300.582844 
L 81.492965 300.525672 
L 81.592451 300.294933 
L 81.592451 300.294933 
L 81.796753 300.202442 
L 81.796753 300.202442 
L 81.883023 299.903198 
L 82.620359 299.738023 
L 82.620359 299.738023 
L 82.707685 299.498094 
L 82.707685 299.498094 
L 83.099708 299.407744 
L 83.168489 299.128431 
L 83.168489 299.128431 
L 83.350977 299.052643 
L 83.350977 299.027728 
L 83.449259 298.651988 
L 83.449259 298.651988 
L 83.53069 298.651988 
L 83.53069 298.54095 
L 83.626098 298.335506 
L 83.81969 298.296081 
L 83.81969 298.296081 
L 83.92544 298.041929 
L 84.099134 297.962064 
L 84.099134 297.950656 
L 84.099134 297.849018 
L 84.120014 297.849018 
L 84.453905 297.748427 
L 84.453905 297.748427 
L 84.51776 297.600149 
L 84.935993 297.500616 
L 84.935993 297.491285 
L 85.031905 297.475734 
L 85.180495 297.388651 
L 85.180495 297.388651 
L 85.286392 297.277735 
L 85.286392 297.277735 
L 85.3515 297.277735 
L 85.3515 297.166828 
L 85.422208 297.096351 
L 85.422208 297.096351 
L 85.958731 297.022769 
L 85.958731 296.988571 
L 86.016457 296.959555 
L 86.016457 296.959555 
L 86.694753 296.86215 
L 86.694753 296.851788 
L 86.785691 296.692228 
L 87.16241 296.583449 
L 87.16241 296.583449 
L 87.251407 296.5503 
L 87.963786 296.480896 
L 87.963786 296.445678 
L 88.09071 296.400103 
L 88.09071 296.400103 
L 88.532107 296.295495 
L 88.532107 296.295495 
L 88.642819 296.251997 
L 88.642819 296.251997 
L 89.454303 296.104946 
L 89.558579 296.070774 
L 89.698374 296.063526 
L 89.698374 295.969302 
L 89.698374 295.944453 
L 89.698374 295.944453 
L 90.182796 295.867838 
L 90.182796 295.853344 
L 90.250925 295.626639 
L 90.250925 295.626639 
L 90.529338 295.543836 
L 90.529338 295.518996 
L 90.625483 295.212681 
L 90.625483 295.212681 
L 90.970674 295.117492 
L 90.970674 295.101972 
L 91.079224 295.047139 
L 91.079224 295.047139 
L 91.258716 294.964377 
L 91.258716 294.963343 
L 91.322853 294.77715 
L 91.322853 294.77715 
L 92.107415 294.667517 
L 92.107415 294.666483 
L 92.193488 294.658209 
L 92.193488 294.658209 
L 93.074453 294.547553 
L 93.074453 294.527905 
L 93.663138 294.40382 
L 93.750685 294.389344 
L 94.722906 294.280782 
L 94.722906 294.278714 
L 94.985917 294.166027 
L 95.083143 294.136048 
L 95.083143 294.136048 
L 95.514064 294.063687 
L 95.514064 294.026475 
L 95.622245 293.983063 
L 95.622245 293.983063 
L 96.047368 293.74639 
L 96.730295 293.643054 
L 96.730295 293.638921 
L 96.821281 293.600689 
L 96.821281 293.600689 
L 97.409156 293.4953 
L 97.494124 293.466372 
L 97.494124 293.466372 
L 98.249908 293.37959 
L 98.249908 293.362028 
L 98.249908 293.349631 
L 98.249908 293.349631 
L 98.873647 293.320706 
L 98.873647 293.319673 
L 98.967974 293.192619 
L 98.967974 293.192619 
L 99.503993 293.131679 
L 99.503993 293.084168 
L 99.503993 293.051119 
L 99.503993 293.051119 
L 99.623978 293.051119 
L 99.623978 293.007743 
L 99.73243 292.922028 
L 99.73243 292.922028 
L 100.027128 292.812571 
L 100.11357 292.746488 
L 101.188655 292.681442 
L 101.188655 292.640145 
L 101.293348 292.600913 
L 101.293348 292.600913 
L 102.402786 292.486325 
L 102.402786 292.476002 
L 102.402786 292.476002 
L 103.135283 292.378973 
L 103.135283 292.378973 
L 103.135283 292.293305 
L 103.23924 292.293305 
L 104.294427 292.188035 
L 104.294427 292.188035 
L 104.294427 292.129212 
L 105.605747 292.04253 
L 105.605747 291.948633 
L 105.605747 291.948633 
L 107.665838 291.682459 
L 107.665838 291.682459 
L 107.762167 291.674207 
L 107.762167 291.674207 
L 108.36252 291.564867 
L 108.36252 291.563836 
L 108.36252 291.549395 
L 108.36252 291.549395 
L 109.064189 291.461726 
L 109.064189 291.441099 
L 109.166377 291.413253 
L 109.166377 291.413253 
L 109.531932 291.39572 
L 109.531932 291.375094 
L 109.55404 291.294657 
L 109.55404 291.294657 
L 110.027616 291.188446 
L 110.027616 291.188446 
L 110.027616 291.097711 
L 110.027616 291.097711 
L 110.646393 291.070904 
L 110.646393 291.029664 
L 110.678044 290.935849 
L 110.678044 290.935849 
L 110.991977 290.908015 
L 110.991977 290.908015 
L 110.991977 290.816271 
L 110.991977 290.816271 
L 114.036866 290.493678 
L 114.036866 290.47616 
L 114.036866 290.47616 
L 114.54907 290.368994 
L 114.54907 290.368994 
L 114.54907 290.353538 
L 114.54907 290.353538 
L 115.838675 290.274202 
L 115.838675 290.245353 
L 115.898956 290.208264 
L 116.076421 290.205173 
L 116.076421 290.098032 
L 116.076421 290.085671 
L 116.076421 290.085671 
L 118.088329 289.96618 
L 118.088329 289.96618 
L 118.088329 289.93322 
L 118.174305 289.93322 
L 119.232882 289.861122 
L 119.232882 289.857002 
L 120.35513 289.686045 
L 120.35513 289.686045 
L 121.842355 289.598516 
L 121.842355 289.578952 
L 121.894898 289.564537 
L 121.945698 289.564537 
L 122.323055 289.474958 
L 122.323055 289.458485 
L 122.930938 289.31744 
L 122.930938 289.31744 
L 122.930938 289.301998 
L 122.930938 289.301998 
L 125.155205 289.105391 
L 125.155205 289.105391 
L 126.601997 289.002469 
L 126.601997 289.002469 
L 126.601997 288.970565 
L 127.478086 288.86148 
L 127.478086 288.86148 
L 127.570288 288.855306 
L 127.570288 288.855306 
L 129.136169 288.753435 
L 129.136169 288.752406 
L 129.214775 288.70919 
L 129.214775 288.70919 
L 129.737455 288.607332 
L 129.737455 288.601159 
L 131.264524 288.376898 
L 131.264524 288.376898 
L 131.264524 288.283297 
L 131.264524 288.283297 
L 132.028267 288.181476 
L 132.028267 288.176334 
L 132.051603 288.167078 
L 132.051603 288.167078 
L 132.404839 288.074522 
L 132.404839 288.06938 
L 132.459372 288.035445 
L 132.459372 288.035445 
L 134.409845 287.929533 
L 134.409845 287.92542 
L 134.409845 287.907941 
L 135.697178 287.812322 
L 135.697178 287.80204 
L 135.697178 287.774282 
L 135.786199 287.774282 
L 137.503322 287.669422 
L 137.503322 287.669422 
L 137.529373 287.62933 
L 137.58899 287.62933 
L 138.282799 287.583073 
L 138.282799 287.531679 
L 138.282799 287.438146 
L 138.369511 287.438146 
L 139.224707 287.337427 
L 139.224707 287.332288 
L 139.224707 287.323039 
L 139.224707 287.323039 
L 141.49292 287.215137 
L 141.49292 287.056899 
L 141.49292 287.056899 
L 142.697287 286.955186 
L 142.697287 286.955186 
L 142.732217 286.898682 
L 142.732217 286.898682 
L 143.393343 286.853482 
L 143.393343 286.752813 
L 143.468694 286.752813 
L 145.064691 286.664479 
L 145.064691 286.641883 
L 145.064691 286.59053 
L 145.064691 286.59053 
L 146.884898 286.519667 
L 146.884898 286.513505 
L 147.307406 286.413893 
L 147.307406 286.413893 
L 148.854716 286.308129 
L 148.854716 286.308129 
L 148.890334 286.200322 
L 148.890334 286.200322 
L 150.711033 286.104843 
L 150.711033 286.100737 
L 150.711033 286.078152 
L 150.721166 286.078152 
L 152.198651 285.981657 
L 152.198651 285.981657 
L 152.295681 285.870801 
L 152.295681 285.870801 
L 154.281108 285.760981 
L 154.281108 285.745587 
L 154.341463 285.745587 
L 155.174355 285.638858 
L 155.174355 285.638858 
L 155.245788 285.593706 
L 155.245788 285.593706 
L 156.980058 285.534191 
L 156.980058 285.534191 
L 156.980058 285.45108 
L 157.026386 285.45108 
L 159.826245 285.351559 
L 159.826245 285.348481 
L 159.891341 285.319756 
L 159.891341 285.319756 
L 161.654928 285.208962 
L 161.654928 285.208962 
L 161.654928 285.201782 
L 169.646382 284.796659 
L 169.646382 284.796659 
L 169.646382 284.785379 
L 171.85677 284.683865 
L 171.85677 284.677713 
L 171.85677 284.668485 
L 171.961242 284.668485 
L 173.414741 284.555704 
L 173.414741 284.555704 
L 173.522578 284.530073 
L 175.350463 284.432682 
L 175.350463 284.419356 
L 175.384976 284.403979 
L 175.384976 284.403979 
L 177.5482 284.346575 
L 177.5482 284.296349 
L 177.5482 284.268674 
L 177.5482 284.268674 
L 179.416296 284.162081 
L 179.416296 284.157981 
L 179.502517 284.133384 
L 179.502517 284.133384 
L 182.367214 284.027828 
L 182.367214 284.024754 
L 182.469893 283.997086 
L 182.469893 283.997086 
L 185.199364 283.886419 
L 185.199364 283.886419 
L 185.228841 283.876173 
L 185.228841 283.876173 
L 186.644523 283.767567 
L 186.644523 283.753223 
L 186.644523 283.753223 
L 188.440068 283.656922 
L 188.440068 283.649751 
L 188.549465 283.632336 
L 188.549465 283.632336 
L 190.285896 283.525801 
L 190.369661 283.481756 
L 190.369661 283.481756 
L 191.965977 283.383429 
L 191.965977 283.37626 
L 191.965977 283.360897 
L 191.965977 283.360897 
L 195.229685 283.268725 
L 195.229685 283.268725 
L 195.229685 283.238002 
L 198.455847 283.137648 
L 198.455847 283.136624 
L 198.455847 283.121264 
L 198.455847 283.121264 
L 199.838846 283.017848 
L 199.838846 283.010681 
L 199.892887 283.000443 
L 199.892887 283.000443 
L 202.694479 282.891919 
L 202.694479 282.890895 
L 202.694479 282.884752 
L 204.089686 282.778286 
L 204.089686 282.775216 
L 204.089686 282.773168 
L 204.183252 282.773168 
L 207.182193 282.678995 
L 207.182193 282.667736 
L 207.182193 282.661595 
L 207.182193 282.661595 
L 211.860638 282.554126 
L 211.860638 282.554126 
L 211.872232 282.543892 
L 211.872232 282.543892 
L 214.287696 282.453831 
L 214.287696 282.43848 
L 214.287696 282.424153 
L 214.287696 282.424153 
L 217.323607 282.315683 
L 217.323607 282.315683 
L 217.323607 282.305451 
L 217.323607 282.305451 
L 219.715673 282.201085 
L 220.250084 282.151974 
L 220.250084 282.151974 
L 223.322362 282.048645 
L 223.322362 282.04353 
L 223.322362 282.040461 
L 223.346533 282.040461 
L 226.456469 281.945325 
L 226.456469 281.931004 
L 226.529057 281.922821 
L 226.529057 281.922821 
L 227.597128 281.845082 
L 227.597128 281.819512 
L 227.597128 281.799056 
L 227.597128 281.799056 
L 229.927734 281.690644 
L 229.927734 281.690644 
L 230.02071 281.679394 
L 230.02071 281.679394 
L 232.309152 281.58122 
L 232.309152 281.574062 
L 232.366878 281.530091 
L 232.366878 281.530091 
L 234.46798 281.41966 
L 234.46798 281.41966 
L 234.46798 281.418637 
L 234.46798 281.418637 
L 236.055293 281.309239 
L 236.055293 281.309239 
L 236.055293 281.294926 
L 236.131368 281.294926 
L 238.875909 281.189629 
L 238.875909 281.188606 
L 238.875909 281.165095 
L 238.907867 281.165095 
L 240.748034 281.059809 
L 240.748034 281.058787 
L 240.748034 281.051632 
L 240.748034 281.051632 
L 245.40577 280.944312 
L 245.40577 280.942268 
L 245.503819 280.913652 
L 245.503819 280.913652 
L 249.28252 280.803279 
L 249.28252 280.802257 
L 249.367992 280.802257 
L 274.589167 279.893107 
L 274.589167 279.893107 
L 279.080689 279.782832 
L 279.080689 279.782832 
L 279.164613 279.761391 
L 279.164613 279.761391 
L 281.782708 279.654191 
L 281.782708 279.654191 
L 281.782708 279.646024 
L 283.745979 279.541897 
L 283.745979 279.541897 
L 283.745979 279.528626 
L 283.745979 279.528626 
L 285.89379 279.429614 
L 285.89379 279.428593 
L 285.89379 279.406138 
L 285.89379 279.406138 
L 293.207463 279.326527 
L 293.207463 279.295909 
L 293.207463 279.294888 
L 293.207463 279.294888 
L 296.570056 279.197936 
L 296.570056 279.197936 
L 296.639106 279.156096 
L 296.639106 279.156096 
L 299.90575 279.052014 
L 299.90575 279.050993 
L 299.960701 279.028545 
L 299.960701 279.028545 
L 303.151195 278.924474 
L 303.151195 278.921413 
L 303.151195 278.914271 
L 303.240646 278.914271 
L 307.007016 278.80919 
L 307.007016 278.804089 
L 307.007016 278.781646 
L 307.105273 278.781646 
L 310.883335 278.672496 
L 310.883335 278.671476 
L 310.960738 278.653116 
L 310.960738 278.653116 
L 312.937826 278.555198 
L 312.937826 278.555198 
L 312.937826 278.538879 
L 313.030777 278.538879 
L 315.442962 278.433832 
L 315.442962 278.432812 
L 315.442962 278.415475 
L 315.442962 278.415475 
L 320.77886 278.30636 
L 320.77886 278.30636 
L 320.841646 278.297182 
L 320.841646 278.297182 
L 325.664284 278.187059 
L 325.664284 278.187059 
L 325.664284 278.186039 
L 325.664284 278.186039 
L 329.434915 278.077966 
L 329.434915 278.077966 
L 329.507368 278.06777 
L 329.507368 278.06777 
L 335.514425 277.90568 
L 335.514425 277.90568 
L 335.514425 277.895486 
L 335.514425 277.895486 
L 339.277786 277.789478 
L 339.277786 277.78744 
L 339.277786 277.781324 
L 342.13025 277.67125 
L 342.13025 277.670231 
L 342.13025 277.649848 
L 345.18779 277.563224 
L 345.18779 277.540805 
L 352.264736 277.352297 
L 352.264736 277.352297 
L 355.392579 277.244301 
L 355.392579 277.244301 
L 355.447702 277.229019 
L 355.447702 277.229019 
L 419.388544 275.744604 
L 419.388544 275.744604 
L 424.644878 275.633706 
L 424.644878 275.633706 
L 424.644878 275.632689 
L 424.644878 275.632689 
L 430.52285 275.526887 
L 430.52285 275.526887 
L 430.52285 275.520784 
L 430.52285 275.520784 
L 435.642753 275.411941 
L 435.642753 275.411941 
L 435.682203 275.398718 
L 435.682203 275.398718 
L 441.948698 275.29904 
L 441.948698 275.298023 
L 442.047864 275.27158 
L 442.047864 275.27158 
L 450.457084 275.165811 
L 450.457084 275.165811 
L 450.457084 275.158693 
L 455.095624 275.050901 
L 455.095624 275.050901 
L 455.112819 275.033615 
L 455.112819 275.033615 
L 461.096627 274.923801 
L 461.096627 274.923801 
L 461.187736 274.917701 
L 461.187736 274.917701 
L 467.126738 274.790615 
L 467.126738 274.790615 
L 473.919328 274.716404 
L 473.919328 274.684891 
L 473.919328 274.672692 
L 473.919328 274.672692 
L 474.794802 274.638131 
L 474.794802 274.638131 
L 483.58714 274.528355 
L 483.58714 274.528355 
L 483.686626 274.524289 
L 483.686626 274.524289 
L 488.949359 274.43485 
L 488.949359 274.43485 
L 488.949359 274.412492 
L 488.949359 274.412492 
L 494.175024 274.301721 
L 494.175024 274.300704 
L 494.258592 274.300704 
L 497.570029 274.194009 
L 497.570029 274.194009 
L 497.570029 274.186896 
L 497.619182 274.186896 
L 505.094256 274.077163 
L 505.094256 274.076147 
L 505.094256 274.071067 
L 505.198729 274.071067 
L 514.628562 273.968456 
L 514.628562 273.968456 
L 514.628562 273.957281 
L 514.669093 273.957281 
L 521.131267 273.851632 
L 521.131267 273.851632 
L 521.131267 273.845537 
L 521.131267 273.845537 
L 529.48125 273.735836 
L 529.48125 273.735836 
" clip-path="url(#p779fe043f5)" style="fill: none; stroke: #1f77b4; stroke-opacity: 0.7; stroke-width: 1.5; stroke-linecap: square"/>
   </g>
   <g id="line2d_22">
    <path d="M 73.742045 433 
L 73.833032 322.304342 
L 73.833032 322.304342 
L 73.896948 322.2302 
L 73.896948 322.219609 
L 73.97074 311.697527 
L 73.97074 311.697527 
L 74.010215 311.697527 
L 74.010215 311.603072 
L 74.107907 302.643965 
L 74.107907 302.643965 
L 74.158534 302.643965 
L 74.158534 302.633551 
L 74.220044 299.036033 
L 74.220044 299.036033 
L 74.344487 298.911464 
L 74.344487 298.911464 
L 74.414618 298.797287 
L 74.414618 298.797287 
L 74.531753 298.786908 
L 74.531753 298.6935 
L 74.612988 297.842796 
L 74.612988 297.842796 
L 74.68463 297.842796 
L 74.68463 297.842796 
L 74.78613 296.495398 
L 74.78613 296.495398 
L 74.85674 296.495398 
L 74.85674 296.443606 
L 74.957306 294.394514 
L 74.957306 294.394514 
L 75.065684 294.394514 
L 75.065684 294.394514 
L 75.169027 293.763958 
L 75.169027 293.763958 
L 75.365542 293.712288 
L 75.365542 293.670954 
L 75.426633 292.34904 
L 75.426633 292.34904 
L 75.622804 292.245829 
L 75.622804 292.245829 
L 75.622804 291.915616 
L 75.622804 291.915616 
L 75.871212 291.915616 
L 75.871212 291.843394 
L 75.949277 290.544174 
L 75.949277 290.544174 
L 76.212816 290.461733 
L 76.212816 290.451428 
L 76.317964 290.368994 
L 76.317964 290.368994 
L 76.560648 290.35869 
L 76.560648 290.286566 
L 76.560648 290.204143 
L 76.560648 290.204143 
L 76.802349 290.162934 
L 76.802349 290.14233 
L 76.802349 290.070219 
L 76.802349 290.070219 
L 77.051075 290.070219 
L 77.051075 290.070219 
L 77.126623 288.834725 
L 77.412687 288.834725 
L 77.412687 288.731827 
L 77.412687 288.659803 
L 77.496477 288.659803 
L 77.586173 288.659803 
L 77.586173 288.556921 
L 77.586173 288.546633 
L 77.587426 288.546633 
L 77.711218 288.546633 
L 77.711218 288.474621 
L 77.782516 288.145481 
L 77.782516 288.145481 
L 78.057244 288.114629 
L 78.057244 288.104345 
L 78.088195 287.908969 
L 78.088195 287.908969 
L 78.550583 287.826715 
L 78.550583 287.826715 
L 78.571954 287.590269 
L 78.571954 287.590269 
L 78.741448 287.590269 
L 78.741448 287.590269 
L 78.741448 287.086695 
L 78.741448 287.086695 
L 78.881686 287.086695 
L 78.881686 287.086695 
L 78.881686 286.963405 
L 78.958155 286.963405 
L 79.343631 286.870945 
L 79.343631 286.870945 
L 79.352229 286.788765 
L 79.352229 286.788765 
L 79.830559 286.768221 
L 79.830559 286.716863 
L 79.886234 285.669644 
L 79.886234 285.669644 
L 80.064203 285.577288 
L 80.064203 285.577288 
L 80.064203 285.525982 
L 80.523372 285.454158 
L 80.523372 285.454158 
L 80.583776 285.24897 
L 80.583776 285.24897 
L 80.723265 285.24897 
L 80.723265 285.177163 
L 80.723265 285.10536 
L 80.723265 285.10536 
L 80.873697 285.10536 
L 80.873697 285.013049 
L 80.944172 284.838703 
L 80.944172 284.838703 
L 81.274072 284.736159 
L 81.274072 284.736159 
L 81.274072 284.664384 
L 81.274072 284.664384 
L 81.534909 284.613118 
L 81.534909 284.602866 
L 81.573217 284.490091 
L 81.573217 284.490091 
L 81.747575 284.490091 
L 81.747575 284.459336 
L 81.747575 284.346575 
L 82.44481 284.264574 
L 82.44481 284.264574 
L 82.44481 284.233825 
L 82.553225 284.233825 
L 82.762255 283.987863 
L 82.762255 283.987863 
L 82.86389 283.496096 
L 82.86389 283.496096 
L 83.157336 283.465368 
L 83.157336 283.465368 
L 83.424855 283.444883 
L 83.424855 283.055732 
L 83.524561 283.055732 
L 84.16256 282.984061 
L 84.16256 282.953346 
L 84.169536 282.93287 
L 84.254148 282.93287 
L 84.28758 282.93287 
L 84.28758 282.881681 
L 84.28758 282.799784 
L 84.28758 282.799784 
L 84.420829 282.799784 
L 84.420829 282.717892 
L 84.456767 282.400617 
L 84.456767 282.400617 
L 84.570451 282.400617 
L 84.570451 282.400617 
L 84.607592 281.776554 
L 84.607592 281.776554 
L 85.066443 281.694735 
L 85.066443 281.694735 
L 85.080555 281.582243 
L 85.080555 281.582243 
L 85.469593 281.510663 
L 85.469593 281.479987 
L 85.469593 281.418637 
L 85.469593 281.418637 
L 85.661023 281.418637 
L 85.661023 281.347067 
L 85.720051 281.132384 
L 85.720051 281.132384 
L 86.433118 281.081274 
L 86.433118 281.081274 
L 86.434371 280.784885 
L 86.434371 280.784885 
L 87.096835 280.692917 
L 87.096835 280.682699 
L 87.177996 280.529437 
L 87.177996 280.529437 
L 87.323049 280.529437 
L 87.323049 280.529437 
L 87.393069 280.396627 
L 87.393069 280.396627 
L 87.942378 280.335335 
L 87.942378 280.30469 
L 87.942378 280.263832 
L 87.942378 280.263832 
L 88.345234 280.161692 
L 88.345234 280.161692 
L 88.368226 279.998287 
L 88.368226 279.998287 
L 88.597583 279.998287 
L 88.597583 279.906382 
L 88.597583 279.589876 
L 88.678302 279.589876 
L 89.207652 279.549043 
L 89.207652 279.487795 
L 89.287437 279.365311 
L 89.899323 279.273456 
L 89.899323 279.26325 
L 89.899323 279.191813 
L 89.899323 279.191813 
L 90.102188 279.191813 
L 90.102188 279.099972 
L 90.102188 279.059156 
L 90.114876 279.059156 
L 90.227393 278.997935 
L 90.227393 278.997935 
L 90.227393 277.244301 
L 90.227393 277.244301 
L 90.489654 277.213738 
L 90.489654 277.20355 
L 90.489654 276.847044 
L 90.574819 276.847044 
L 90.705022 276.847044 
L 90.705022 276.755388 
L 90.705022 274.598489 
L 90.829134 274.598489 
L 90.829134 274.496847 
L 90.829134 273.958297 
L 90.829134 273.958297 
L 91.072813 273.958297 
L 91.072813 273.866869 
L 91.072813 271.999273 
L 91.072813 271.999273 
L 91.26934 271.999273 
L 91.26934 271.928282 
L 91.26934 271.472019 
L 91.26934 271.472019 
L 91.46723 271.472019 
L 91.46723 271.380788 
L 91.46723 271.228752 
L 91.46723 271.228752 
L 91.597385 271.228752 
L 91.597385 271.178078 
L 91.616385 270.468872 
L 91.616385 270.468872 
L 92.009563 270.327083 
L 92.009563 270.327083 
L 92.009563 270.134683 
L 92.009563 270.134683 
L 92.425094 270.134683 
L 92.425094 270.033432 
L 92.425094 270.013183 
L 92.425094 270.013183 
L 92.634345 270.013183 
L 92.634345 270.013183 
L 92.634345 269.132693 
L 92.634345 269.132693 
L 93.090346 269.092226 
L 93.090346 269.03153 
L 93.132425 268.000172 
L 93.132425 268.000172 
L 93.273916 268.000172 
L 93.273916 267.979959 
L 93.273916 265.677927 
L 93.273916 265.677927 
L 93.493779 265.66784 
L 93.493779 265.66784 
L 93.493779 265.486297 
L 93.493779 265.486297 
L 93.76212 265.415705 
L 93.76212 264.30696 
L 93.76212 264.30696 
L 94.007641 264.30696 
L 94.007641 264.206218 
L 94.007641 264.004759 
L 94.007641 264.004759 
L 95.22273 263.944329 
L 95.22273 263.944329 
L 95.22273 263.058374 
L 95.22273 263.058374 
L 95.391831 263.058374 
L 95.391831 263.058374 
L 95.391831 262.002155 
L 95.740142 262.002155 
L 95.740142 261.9921 
L 95.740142 260.705831 
L 95.740142 260.705831 
L 96.068297 260.705831 
L 96.068297 260.625487 
L 96.068297 259.511283 
L 96.068297 259.511283 
L 96.284329 259.511283 
L 96.284329 259.50125 
L 96.284329 259.350765 
L 96.284329 259.350765 
L 96.55504 259.320671 
L 96.55504 259.310639 
L 96.55504 257.125876 
L 96.55504 257.125876 
L 96.842701 257.125876 
L 96.842701 257.125876 
L 96.842701 256.405207 
L 96.842701 256.405207 
L 97.515925 256.405207 
L 97.515925 256.385195 
L 97.515925 256.275134 
L 97.839769 256.215105 
L 97.839769 256.215105 
L 97.839769 256.07505 
L 97.839769 256.07505 
L 98.187085 256.07505 
L 98.187085 255.965019 
L 98.187085 255.524998 
L 98.187085 255.524998 
L 98.670868 255.485004 
L 98.670868 255.475006 
L 98.781346 254.755363 
L 98.781346 254.755363 
L 99.317009 254.665439 
L 99.317009 254.665439 
L 99.317009 254.515581 
L 99.317009 254.515581 
L 100.072929 254.445654 
L 100.072929 254.405698 
L 100.072929 254.335778 
L 100.072929 254.335778 
L 100.584506 254.285837 
L 100.584506 254.235899 
L 100.584506 253.746617 
L 100.584506 253.746617 
L 100.850084 253.746617 
L 100.850084 253.726651 
L 100.857502 252.728774 
L 100.857502 252.728774 
L 101.902373 252.698851 
L 101.902373 252.61906 
L 101.941811 252.529302 
L 101.941811 252.529302 
L 103.180101 252.499384 
L 103.180101 252.499384 
L 103.180101 252.04074 
L 103.180101 252.04074 
L 103.391268 252.04074 
L 103.391268 251.951027 
L 103.391268 251.821453 
L 103.422514 251.821453 
L 103.794161 251.821453 
L 103.794161 251.811487 
L 103.794161 251.4926 
L 103.894949 251.4926 
L 104.650586 251.462709 
L 104.650586 251.422855 
L 104.650586 251.353115 
L 104.719464 251.353115 
L 105.028791 251.313265 
L 105.028791 251.313265 
L 105.063206 251.173802 
L 105.063206 251.173802 
L 105.576122 251.173802 
L 105.576122 251.114037 
L 105.576122 250.188074 
L 105.576122 250.188074 
L 106.488934 250.128359 
L 106.488934 250.098504 
L 106.488934 250.048745 
L 106.488934 250.048745 
L 106.684663 250.048745 
L 106.684663 250.018892 
L 106.684663 249.680602 
L 106.684663 249.680602 
L 107.114478 249.571176 
L 107.114478 249.571176 
L 107.201203 249.41203 
L 107.201203 249.41203 
L 107.227069 249.41203 
L 107.227069 249.41203 
L 107.281897 249.233017 
L 107.281897 249.233017 
L 107.467051 249.19324 
L 107.467051 249.163408 
L 107.467051 249.004318 
L 107.467051 249.004318 
L 107.988552 248.894956 
L 107.988552 248.537117 
L 107.988552 248.537117 
L 108.264803 248.46755 
L 108.264803 248.427799 
L 108.315025 248.258874 
L 108.315025 248.258874 
L 108.706397 248.258874 
L 108.706397 248.258874 
L 108.706397 248.089974 
L 108.706397 248.089974 
L 109.765576 248.06017 
L 109.765576 248.0105 
L 109.765576 247.672796 
L 109.765576 247.672796 
L 109.938263 247.672796 
L 109.938263 247.613211 
L 110.033315 247.374903 
L 110.033315 247.374903 
L 110.127728 247.374903 
L 110.127728 247.265695 
L 110.217192 247.007608 
L 110.217192 247.007608 
L 110.848742 246.918284 
L 110.848742 246.898435 
L 110.848742 246.88851 
L 110.848742 246.88851 
L 111.828848 246.809119 
L 111.828848 246.779348 
L 111.828848 246.729733 
L 111.828848 246.729733 
L 112.468124 246.670196 
L 112.468124 246.620585 
L 112.468124 246.570976 
L 112.468124 246.570976 
L 113.168982 246.471765 
L 113.168982 246.471765 
L 113.251678 246.342802 
L 113.251678 246.342802 
L 114.221848 246.233692 
L 114.221848 246.233692 
L 114.221848 246.203936 
L 114.221848 246.203936 
L 114.708738 246.203936 
L 114.708738 246.184099 
L 114.795733 245.906421 
L 114.795733 245.906421 
L 116.036234 245.817182 
L 116.036234 245.797352 
L 116.036234 245.62881 
L 116.043652 245.62881 
L 116.669307 245.589156 
L 116.669307 245.589156 
L 116.669307 245.281889 
L 116.669307 245.281889 
L 117.531946 245.232337 
L 117.531946 245.172878 
L 117.609594 244.855813 
L 117.609594 244.855813 
L 117.689662 244.756749 
L 117.689662 244.756749 
L 117.689662 244.647787 
L 117.689662 244.647787 
L 117.868036 244.519028 
L 117.868036 244.519028 
L 117.868036 244.479412 
L 117.868036 244.479412 
L 117.983403 244.479412 
L 117.983403 244.370477 
L 117.983403 244.152637 
L 117.983403 244.152637 
L 118.185997 244.043732 
L 118.185997 244.043732 
L 118.185997 243.895243 
L 118.227302 243.895243 
L 118.682443 243.806158 
L 118.682443 243.79626 
L 118.687577 243.766567 
L 118.687577 243.766567 
L 118.799222 243.766567 
L 118.799222 243.687389 
L 118.891793 243.242113 
L 118.979156 243.162971 
L 118.979156 243.133294 
L 118.979156 242.994812 
L 119.260345 242.994812 
L 119.260345 242.886016 
L 119.260345 242.826677 
L 119.260345 242.826677 
L 119.550794 242.826677 
L 119.550794 242.727786 
L 119.646251 242.480595 
L 119.715142 242.480595 
L 119.715142 242.381733 
L 119.715142 242.34219 
L 119.723936 242.34219 
L 119.969752 242.302649 
L 119.969752 242.302649 
L 119.969752 242.134615 
L 119.969752 242.134615 
L 120.599005 242.075315 
L 120.599005 242.065432 
L 120.664543 241.936959 
L 120.664543 241.936959 
L 121.251459 241.768978 
L 121.251459 241.768978 
L 121.251459 241.739336 
L 121.251459 241.739336 
" clip-path="url(#p779fe043f5)" style="fill: none; stroke: #ff7f0e; stroke-opacity: 0.7; stroke-width: 1.5; stroke-linecap: square"/>
   </g>
   <g id="line2d_23">
    <path d="M 73.742045 433 
L 73.826412 349.595282 
L 73.855263 349.136109 
L 73.941631 342.04398 
L 74.000242 341.904464 
L 74.097074 339.75138 
L 74.130212 339.654072 
L 74.193305 338.811435 
L 74.355995 338.184155 
L 74.450629 333.753472 
L 74.482453 333.753472 
L 74.482453 333.664154 
L 74.57705 331.49162 
L 74.640647 330.937652 
L 74.745598 328.672234 
L 74.778625 328.456584 
L 74.884903 327.697603 
L 74.919858 327.638013 
L 74.919858 327.638013 
L 75.030545 326.224173 
L 75.06878 326.132777 
L 75.143001 325.157625 
L 75.259878 324.830103 
L 75.336863 323.355013 
L 75.450682 323.296175 
L 75.557132 322.369484 
L 75.557132 322.369484 
L 75.600586 322.369484 
L 75.600586 322.277862 
L 75.637911 322.021571 
L 75.717623 321.853211 
L 75.792249 321.692817 
L 75.867588 321.112828 
L 75.946821 321.002261 
L 75.946821 321.001732 
L 76.023474 320.465446 
L 76.023474 320.465446 
L 76.390183 319.522525 
L 76.474562 319.084623 
L 76.779737 318.663253 
L 76.945313 318.555031 
L 77.024226 318.33809 
L 77.06461 318.33809 
L 77.06461 318.239925 
L 77.109207 317.954979 
L 77.109207 317.954979 
L 77.384561 317.885336 
L 77.384561 317.876894 
L 77.425412 317.699642 
L 77.508918 316.693086 
L 77.508918 316.693086 
L 77.606107 316.606655 
L 77.606107 316.606655 
L 77.700164 316.318422 
L 77.700164 316.318422 
L 77.986499 315.604734 
L 77.986499 315.330963 
L 78.080937 315.330963 
L 78.17083 315.232001 
L 78.249485 314.934111 
L 78.338359 314.402205 
L 78.520418 314.273868 
L 78.619019 313.973596 
L 78.662646 313.973596 
L 78.662646 313.88579 
L 78.759527 313.196193 
L 78.759527 313.196193 
L 78.799874 313.196193 
L 78.799874 313.088481 
L 78.846756 312.82686 
L 78.898365 312.82686 
L 79.04149 312.763828 
L 79.04149 312.738091 
L 79.146404 312.469198 
L 79.146404 312.469198 
L 79.313294 312.443467 
L 79.313294 312.396208 
L 79.421341 312.257593 
L 79.52515 312.226617 
L 79.52515 312.149443 
L 79.620558 311.829252 
L 79.674084 311.64715 
L 79.730189 311.018672 
L 79.957323 310.922175 
L 80.027147 310.681491 
L 80.213935 310.596556 
L 80.314526 310.336021 
L 80.376097 310.227526 
L 80.376097 310.227526 
L 80.473077 310.012139 
L 80.530127 309.896863 
L 80.590752 309.810937 
L 80.590752 309.810937 
L 80.703245 309.809366 
L 80.703245 309.703015 
L 80.813453 309.441635 
L 80.813453 309.441635 
L 80.998791 309.331652 
L 80.998791 309.331652 
L 81.213766 309.066167 
L 81.279206 308.800742 
L 81.579763 308.701288 
L 81.682283 308.603414 
L 81.787418 308.503978 
L 81.787418 308.496651 
L 81.851629 308.331293 
L 81.851629 308.331293 
L 82.135987 308.228217 
L 82.135987 308.227171 
L 82.216042 308.097948 
L 82.576364 307.991231 
L 82.576364 307.990708 
L 82.647478 307.46564 
L 82.963843 307.409696 
L 82.963843 307.389306 
L 83.01996 307.188559 
L 83.155469 307.13681 
L 83.264265 306.947082 
L 83.264265 306.947082 
L 83.326646 306.947082 
L 83.326646 306.840472 
L 83.699362 306.644 
L 83.768879 306.339953 
L 83.768879 306.339953 
L 83.836861 306.251157 
L 83.946516 306.174902 
L 84.058358 306.074107 
L 84.134409 305.943557 
L 84.35539 305.840694 
L 84.422144 305.756113 
L 84.723389 305.665796 
L 84.821315 304.958118 
L 84.821315 304.958118 
L 84.98339 304.923163 
L 84.98339 304.849604 
L 85.036904 304.445374 
L 85.097578 304.445374 
L 85.097578 304.353595 
L 85.156446 304.121571 
L 85.466056 304.028774 
L 85.545964 303.976123 
L 85.682394 303.864573 
L 85.787333 303.72437 
L 85.863299 303.564902 
L 85.863299 303.564902 
L 85.937311 303.202274 
L 86.241221 303.091841 
L 86.307005 302.861632 
L 86.545599 302.589294 
L 86.623996 302.497141 
L 86.840911 302.394583 
L 87.31945 301.663929 
L 87.408091 301.537516 
L 87.60124 301.384591 
L 87.687744 301.241047 
L 87.766043 301.158881 
L 87.838888 300.996647 
L 87.838888 300.996647 
L 87.898862 300.955572 
L 87.898862 300.955572 
L 87.966304 300.781409 
L 88.271909 300.673806 
L 88.271909 300.673806 
L 88.355366 300.608832 
L 88.581432 300.515797 
L 88.643838 300.289217 
L 88.643838 300.289217 
L 88.731877 300.237775 
L 88.826609 300.138015 
L 88.996239 300.066318 
L 88.996239 300.057486 
L 89.078136 299.935405 
L 89.078136 299.935405 
L 89.341773 299.817491 
L 89.400077 299.807103 
L 89.943601 299.673102 
L 89.943601 299.673102 
L 90.004754 299.418129 
L 90.004754 299.418129 
L 90.219618 299.322074 
L 90.295399 299.19384 
L 90.597541 299.08275 
L 90.663668 299.038628 
L 90.733591 298.942605 
L 91.272312 298.651988 
L 91.272312 298.651988 
L 91.74245 298.512933 
L 91.74245 298.512933 
L 91.844294 298.450156 
L 92.020039 298.334987 
L 92.033366 298.130098 
L 92.746408 298.013924 
L 92.820261 297.965695 
L 93.155343 297.853685 
L 93.155343 297.81687 
L 93.179908 297.81687 
L 93.548226 297.732873 
L 93.591914 297.526535 
L 93.591914 297.526535 
L 94.183645 297.416123 
L 94.183645 297.415605 
L 95.691431 296.884946 
L 95.691431 296.884946 
L 95.902279 296.861631 
L 95.902279 296.79739 
L 95.990919 296.721237 
L 95.990919 296.721237 
L 96.138281 296.618154 
L 96.242655 296.536833 
L 96.961372 296.356601 
L 96.961372 296.356601 
L 96.961372 296.323976 
L 96.961372 296.323976 
L 97.550794 296.247855 
L 97.550794 296.247337 
L 98.299651 296.11323 
L 98.642214 296.054207 
L 98.642214 296.031945 
L 98.642214 295.991563 
L 98.743345 295.991563 
L 99.076119 295.921675 
L 99.076119 295.899933 
L 99.78867 295.780359 
L 100.478929 295.67943 
L 100.478929 295.670114 
L 100.561146 295.627675 
L 100.561146 295.627675 
L 101.321081 295.525724 
L 101.321081 295.523136 
L 101.321081 295.492087 
L 101.321081 295.492087 
L 101.432358 295.386008 
L 101.532347 295.365829 
L 101.756952 295.25407 
L 101.79257 295.244758 
L 101.79257 295.244758 
L 102.317032 295.136115 
L 102.317032 295.134563 
L 102.427927 295.119044 
L 102.427927 295.119044 
L 103.206053 295.054898 
L 103.554437 295.002654 
L 103.554437 295.002654 
L 104.233876 294.902827 
L 104.233876 294.891965 
L 104.3375 294.812317 
L 104.3375 294.812317 
L 104.950394 294.672171 
L 105.054301 294.555826 
L 105.868303 294.441044 
L 105.868303 294.400201 
L 106.137897 294.319553 
L 106.137897 294.294222 
L 106.1589 294.266307 
L 106.867815 294.190321 
L 106.978183 294.097283 
L 107.981355 293.98668 
L 107.981355 293.98668 
L 107.981355 293.935001 
L 109.078744 293.797544 
L 109.078744 293.79341 
L 109.566875 293.743806 
L 109.566875 293.682837 
L 109.566875 293.67922 
L 109.566875 293.67922 
L 110.390408 293.566075 
L 110.468596 293.554193 
L 111.134278 293.452941 
L 111.134278 293.447775 
L 111.134278 293.441576 
L 111.166445 293.441576 
L 111.785038 293.354796 
L 111.785038 293.331553 
L 111.885211 293.312442 
L 113.103923 293.217409 
L 113.103923 293.216376 
L 113.206652 293.13581 
L 113.206652 293.13581 
L 113.526234 293.033562 
L 113.526234 293.024783 
L 113.586761 293.016005 
L 114.960228 292.894147 
L 114.960228 292.894147 
L 114.960228 292.881239 
L 114.960228 292.881239 
L 115.431373 292.784175 
L 115.431373 292.774366 
L 115.468846 292.713448 
L 115.468846 292.713448 
L 116.647125 292.582847 
L 116.647125 292.582847 
L 116.647125 292.578201 
L 116.720819 292.578201 
L 118.737099 292.459486 
L 118.834374 292.438325 
L 118.834374 292.438325 
L 120.62045 292.327881 
L 120.725511 292.315495 
L 120.725511 292.315495 
L 121.181524 292.249957 
L 121.181524 292.232928 
L 121.181524 292.181843 
L 122.79883 292.086386 
L 122.79883 292.046142 
L 122.79883 292.046142 
L 124.598748 291.910973 
L 124.598748 291.875893 
L 125.787971 291.774272 
L 125.787971 291.768082 
L 126.099693 291.711343 
L 126.099693 291.711343 
L 127.03013 291.608189 
L 127.03013 291.600969 
L 128.039578 291.500918 
L 128.039578 291.500918 
L 128.061711 291.424597 
L 128.061711 291.424597 
L 128.719409 291.323531 
L 128.719409 291.314766 
L 128.719409 291.300328 
L 128.719409 291.300328 
L 129.67193 291.197726 
L 129.67193 291.189477 
L 129.676843 291.132251 
L 130.723174 291.020901 
L 130.723174 290.989457 
L 130.723174 290.989457 
L 132.273592 290.887398 
L 132.273592 290.878635 
L 132.273592 290.876574 
L 133.173311 290.769371 
L 133.173311 290.767825 
L 133.18805 290.74721 
L 133.18805 290.74721 
L 134.05403 290.64981 
L 134.05403 290.649295 
L 134.05403 290.6091 
L 135.385382 290.550357 
L 135.385382 290.502953 
L 135.385382 290.492133 
L 135.421 290.492133 
L 136.68383 290.407634 
L 136.68383 290.407634 
L 137.541999 290.257202 
L 138.389322 290.151086 
L 138.389322 290.146966 
L 138.460584 290.136664 
L 139.500664 290.048071 
L 139.500664 290.025924 
L 139.500664 290.005837 
L 140.387867 289.875541 
L 140.443002 289.811171 
L 140.443002 289.811171 
L 141.424201 289.720543 
L 141.424201 289.708185 
L 141.424201 289.689134 
L 141.424201 289.689134 
L 143.275409 289.581011 
L 143.275409 289.578952 
L 143.275409 289.577922 
L 145.791636 289.361708 
L 145.791636 289.348324 
L 147.38584 289.240748 
L 147.38584 289.222219 
L 148.495302 289.113625 
L 148.495302 289.111567 
L 148.59351 289.092011 
L 148.59351 289.092011 
L 149.93755 289.013275 
L 149.93755 289.011732 
L 149.956256 288.938662 
L 149.956256 288.938662 
L 151.661072 288.828551 
L 151.661072 288.828036 
L 151.661072 288.819804 
L 151.755473 288.819804 
L 152.995458 288.71382 
L 152.995458 288.71382 
L 152.995458 288.699416 
L 152.995458 288.699416 
L 154.742673 288.602702 
L 154.742673 288.595501 
L 154.742673 288.569266 
L 154.742673 288.569266 
L 158.520145 288.458162 
L 158.520145 288.446846 
L 158.520145 288.446846 
L 161.265828 288.336782 
L 161.265828 288.335753 
L 161.265828 288.334211 
L 162.456316 288.223643 
L 162.456316 288.223643 
L 162.456316 288.2221 
L 162.456316 288.2221 
L 165.019228 288.1172 
L 165.019228 288.112058 
L 165.104503 288.096632 
L 165.104503 288.096632 
L 169.084275 287.881722 
L 169.084275 287.876581 
L 170.518528 287.773254 
L 170.518528 287.769141 
L 170.518528 287.760403 
L 173.366717 287.642694 
L 173.366717 287.642694 
L 173.366717 287.613397 
L 173.366717 287.613397 
L 178.728015 287.366203 
L 181.329554 287.258811 
L 181.329554 287.256755 
L 181.329554 287.249562 
L 181.329554 287.249562 
L 184.161335 287.143208 
L 184.161335 287.143208 
L 184.161335 287.12985 
L 184.161335 287.12985 
L 187.955044 287.026076 
L 187.955044 287.018884 
L 187.955044 287.016829 
L 187.955044 287.016829 
L 189.97781 286.901251 
L 189.97781 286.901251 
L 189.97781 286.892518 
L 189.97781 286.892518 
L 192.399808 286.77798 
L 192.399808 286.77798 
L 192.399808 286.763599 
L 192.463675 286.763599 
L 194.953017 286.652668 
L 194.953017 286.648559 
L 194.953017 286.648559 
L 197.333354 286.541233 
L 197.333354 286.526856 
L 197.333354 286.526856 
L 198.387202 286.419541 
L 198.387202 286.419541 
L 198.454803 286.404651 
L 198.454803 286.404651 
L 200.762098 286.303509 
L 200.762098 286.293754 
L 200.847643 286.27938 
L 200.847643 286.27938 
L 205.531725 286.144368 
L 205.531725 286.144368 
L 205.531725 286.140775 
L 205.531725 286.140775 
L 245.588247 284.803837 
L 245.588247 284.803837 
L 248.833852 284.710012 
L 248.833852 284.696682 
L 248.882759 284.676175 
L 248.907324 284.676175 
L 250.8174 284.568519 
L 250.8174 284.566469 
L 250.903498 284.530586 
L 250.903498 284.530586 
L 255.331374 284.447034 
L 255.331374 284.420381 
L 257.291525 284.361951 
L 257.291525 284.361951 
L 260.170715 284.252787 
L 260.170715 284.252787 
L 261.560027 284.207689 
L 261.560027 284.207689 
L 264.454533 284.099564 
L 264.454533 284.099564 
L 264.454533 284.09649 
L 264.454533 284.09649 
L 266.777328 283.993499 
L 266.777328 283.985814 
L 266.777328 283.980178 
L 270.357487 283.873099 
L 270.357487 283.869513 
L 270.357487 283.867976 
L 270.446508 283.867976 
L 274.737081 283.75937 
L 274.737081 283.75937 
L 274.737081 283.753736 
L 274.737081 283.753736 
L 278.974067 283.64719 
L 278.974067 283.646678 
L 278.974067 283.634385 
L 278.974067 283.634385 
L 285.569921 283.524777 
L 285.569921 283.524265 
L 285.569921 283.514022 
L 288.879405 283.404937 
L 288.879405 283.403913 
L 288.938617 283.395719 
L 292.032844 283.286134 
L 292.410976 283.277429 
L 292.410976 283.277429 
L 294.59691 283.16888 
L 294.59691 283.16888 
L 294.59691 283.165296 
L 294.697993 283.165296 
L 296.844661 283.068531 
L 296.844661 283.056756 
L 296.844661 283.052149 
L 296.844661 283.052149 
L 300.377399 282.946179 
L 300.377399 282.944132 
L 300.390909 282.931846 
L 300.390909 282.931846 
L 306.934305 282.825888 
L 306.934305 282.825888 
L 306.934305 282.819234 
L 307.025906 282.819234 
L 311.989371 282.708168 
L 311.989371 282.705097 
L 311.989371 282.705097 
L 318.575251 282.595577 
L 318.575251 282.595577 
L 318.606841 282.583295 
L 318.606841 282.583295 
L 321.99557 282.477881 
L 321.99557 282.477369 
L 322.09395 282.460995 
L 322.09395 282.460995 
L 333.629343 282.293172 
L 333.629343 282.293172 
L 333.736149 282.282428 
L 333.736149 282.282428 
L 339.425774 282.178576 
L 339.425774 282.171414 
L 339.425774 282.168856 
L 345.335225 282.061433 
L 345.335225 282.061433 
L 345.423485 282.051714 
L 345.423485 282.051714 
L 350.055024 281.941745 
L 350.055024 281.940722 
L 350.055024 281.94021 
L 350.11431 281.94021 
L 353.721809 281.834854 
L 353.721809 281.830763 
L 353.746472 281.813886 
L 353.746472 281.813886 
L 358.54129 281.707007 
L 358.54129 281.707007 
L 358.54129 281.697292 
L 358.54129 281.697292 
L 363.191461 281.588378 
L 363.191461 281.586333 
L 385.550457 281.179406 
L 385.550457 281.179406 
L 390.60605 281.075141 
L 390.60605 281.073608 
L 390.678515 281.064409 
L 390.678515 281.064409 
L 395.005382 280.955044 
L 395.005382 280.955044 
L 395.005382 280.949934 
L 395.005382 280.949934 
L 400.272524 280.841602 
L 400.272524 280.84058 
L 408.25473 280.711821 
L 408.25473 280.711821 
L 415.123346 280.603511 
L 415.123346 280.603511 
L 415.218889 280.596359 
L 420.108342 280.496744 
L 420.108342 280.486528 
L 420.172504 280.482952 
L 428.215113 280.334824 
L 428.215113 280.334824 
L 428.233438 280.328695 
L 428.233438 280.328695 
L 435.79547 280.222464 
L 435.79547 280.218889 
L 435.79547 280.214804 
L 435.864741 280.214804 
L 443.286437 280.110115 
L 443.286437 280.094795 
L 443.286437 280.094795 
L 575.297061 278.011189 
L 575.297061 278.011189 
L 584.034744 277.901603 
L 584.034744 277.901603 
L 584.034744 277.900074 
L 584.034744 277.900074 
L 592.444701 277.790497 
L 592.444701 277.790497 
L 592.492601 277.782853 
L 592.492601 277.782853 
L 602.946289 277.679403 
L 602.946289 277.672269 
L 602.946289 277.669721 
L 602.946289 277.669721 
L 605.286648 277.650357 
L 605.286648 277.650357 
L 610.826749 277.547429 
L 610.826749 277.540295 
L 617.632849 277.391524 
L 617.632849 277.391524 
L 617.632849 277.390506 
L 617.632849 277.390506 
L 627.531506 277.279449 
L 627.531506 277.279449 
L 627.531506 277.274355 
L 627.633448 277.274355 
L 640.356061 277.175535 
L 640.356061 277.165348 
L 640.356061 277.160764 
L 640.356061 277.160764 
L 647.651312 277.051767 
L 647.651312 277.051767 
L 647.70948 277.036488 
L 647.70948 277.036488 
L 661.919012 276.928521 
L 661.919012 276.928012 
L 661.919012 276.919864 
L 661.919012 276.919864 
L 672.343358 276.81089 
L 672.343358 276.809362 
L 672.402509 276.803252 
L 672.402509 276.803252 
L 687.308306 276.692252 
L 687.308306 276.692252 
L 687.308306 276.68716 
L 687.378953 276.68716 
L 699.938213 276.578717 
L 699.938213 276.578717 
L 699.966168 276.566499 
L 699.966168 276.566499 
L 714.923599 276.456031 
L 714.923599 276.456031 
L 715.023158 276.453995 
L 715.023158 276.453995 
L 776.017307 275.892146 
L 776.017307 275.892146 
L 789.23084 275.765463 
L 789.23084 275.765463 
L 789.298515 275.750709 
L 789.298515 275.750709 
L 802.655552 275.63981 
L 802.655552 275.63981 
L 802.655552 275.638284 
L 802.655552 275.638284 
L 815.306598 275.527396 
L 815.306598 275.527396 
L 815.306598 275.526887 
L 815.306598 275.526887 
L 816.082955 275.52231 
L 816.082955 275.521801 
" clip-path="url(#p779fe043f5)" style="fill: none; stroke: #2ca02c; stroke-opacity: 0.7; stroke-width: 1.5; stroke-linecap: square"/>
   </g>
   <g id="line2d_24">
    <path d="M 0 0 
" clip-path="url(#p779fe043f5)" style="fill: none; stroke: #d62728; stroke-opacity: 0.7; stroke-width: 1.5; stroke-linecap: square"/>
   </g>
   <g id="patch_3">
    <path d="M 36.625 390.04 
L 36.625 10.8 
" style="fill: none; stroke: #000000; stroke-width: 0.8; stroke-linejoin: miter; stroke-linecap: square"/>
   </g>
   <g id="patch_4">
    <path d="M 853.2 390.04 
L 853.2 10.8 
" style="fill: none; stroke: #000000; stroke-width: 0.8; stroke-linejoin: miter; stroke-linecap: square"/>
   </g>
   <g id="patch_5">
    <path d="M 36.625 390.04 
L 853.2 390.04 
" style="fill: none; stroke: #000000; stroke-width: 0.8; stroke-linejoin: miter; stroke-linecap: square"/>
   </g>
   <g id="patch_6">
    <path d="M 36.625 10.8 
L 853.2 10.8 
" style="fill: none; stroke: #000000; stroke-width: 0.8; stroke-linejoin: miter; stroke-linecap: square"/>
   </g>
   <g id="legend_1">
    <g id="patch_7">
     <path d="M 741.14375 77.5125 
L 846.2 77.5125 
Q 848.2 77.5125 848.2 75.5125 
L 848.2 17.8 
Q 848.2 15.8 846.2 15.8 
L 741.14375 15.8 
Q 739.14375 15.8 739.14375 17.8 
L 739.14375 75.5125 
Q 739.14375 77.5125 741.14375 77.5125 
z
" style="fill: #ffffff; opacity: 0.8; stroke: #cccccc; stroke-linejoin: miter"/>
    </g>
    <g id="line2d_25">
     <path d="M 743.14375 23.898438 
L 753.14375 23.898438 
L 763.14375 23.898438 
" style="fill: none; stroke: #1f77b4; stroke-opacity: 0.7; stroke-width: 1.5; stroke-linecap: square"/>
    </g>
    <g id="text_13">
     <!-- 10oc-state-diff -->
     <g transform="translate(771.14375 27.398438) scale(0.1 -0.1)">
      <defs>
       <path id="DejaVuSans-2d" d="M 313 2009 
L 1997 2009 
L 1997 1497 
L 313 1497 
L 313 2009 
z
" transform="scale(0.015625)"/>
       <path id="DejaVuSans-66" d="M 2375 4863 
L 2375 4384 
L 1825 4384 
Q 1516 4384 1395 4259 
Q 1275 4134 1275 3809 
L 1275 3500 
L 2222 3500 
L 2222 3053 
L 1275 3053 
L 1275 0 
L 697 0 
L 697 3053 
L 147 3053 
L 147 3500 
L 697 3500 
L 697 3744 
Q 697 4328 969 4595 
Q 1241 4863 1831 4863 
L 2375 4863 
z
" transform="scale(0.015625)"/>
      </defs>
      <use xlink:href="#DejaVuSans-31"/>
      <use xlink:href="#DejaVuSans-30" transform="translate(63.623047 0)"/>
      <use xlink:href="#DejaVuSans-6f" transform="translate(127.246094 0)"/>
      <use xlink:href="#DejaVuSans-63" transform="translate(188.427734 0)"/>
      <use xlink:href="#DejaVuSans-2d" transform="translate(243.408203 0)"/>
      <use xlink:href="#DejaVuSans-73" transform="translate(279.492188 0)"/>
      <use xlink:href="#DejaVuSans-74" transform="translate(331.591797 0)"/>
      <use xlink:href="#DejaVuSans-61" transform="translate(370.800781 0)"/>
      <use xlink:href="#DejaVuSans-74" transform="translate(432.080078 0)"/>
      <use xlink:href="#DejaVuSans-65" transform="translate(471.289062 0)"/>
      <use xlink:href="#DejaVuSans-2d" transform="translate(532.8125 0)"/>
      <use xlink:href="#DejaVuSans-64" transform="translate(568.896484 0)"/>
      <use xlink:href="#DejaVuSans-69" transform="translate(632.373047 0)"/>
      <use xlink:href="#DejaVuSans-66" transform="translate(660.15625 0)"/>
      <use xlink:href="#DejaVuSans-66" transform="translate(695.361328 0)"/>
     </g>
    </g>
    <g id="line2d_26">
     <path d="M 743.14375 38.576563 
L 753.14375 38.576563 
L 763.14375 38.576563 
" style="fill: none; stroke: #ff7f0e; stroke-opacity: 0.7; stroke-width: 1.5; stroke-linecap: square"/>
    </g>
    <g id="text_14">
     <!-- 1oc-state-diff -->
     <g transform="translate(771.14375 42.076563) scale(0.1 -0.1)">
      <use xlink:href="#DejaVuSans-31"/>
      <use xlink:href="#DejaVuSans-6f" transform="translate(63.623047 0)"/>
      <use xlink:href="#DejaVuSans-63" transform="translate(124.804688 0)"/>
      <use xlink:href="#DejaVuSans-2d" transform="translate(179.785156 0)"/>
      <use xlink:href="#DejaVuSans-73" transform="translate(215.869141 0)"/>
      <use xlink:href="#DejaVuSans-74" transform="translate(267.96875 0)"/>
      <use xlink:href="#DejaVuSans-61" transform="translate(307.177734 0)"/>
      <use xlink:href="#DejaVuSans-74" transform="translate(368.457031 0)"/>
      <use xlink:href="#DejaVuSans-65" transform="translate(407.666016 0)"/>
      <use xlink:href="#DejaVuSans-2d" transform="translate(469.189453 0)"/>
      <use xlink:href="#DejaVuSans-64" transform="translate(505.273438 0)"/>
      <use xlink:href="#DejaVuSans-69" transform="translate(568.75 0)"/>
      <use xlink:href="#DejaVuSans-66" transform="translate(596.533203 0)"/>
      <use xlink:href="#DejaVuSans-66" transform="translate(631.738281 0)"/>
     </g>
    </g>
    <g id="line2d_27">
     <path d="M 743.14375 53.254688 
L 753.14375 53.254688 
L 763.14375 53.254688 
" style="fill: none; stroke: #2ca02c; stroke-opacity: 0.7; stroke-width: 1.5; stroke-linecap: square"/>
    </g>
    <g id="text_15">
     <!-- 20oc-state-diff -->
     <g transform="translate(771.14375 56.754688) scale(0.1 -0.1)">
      <use xlink:href="#DejaVuSans-32"/>
      <use xlink:href="#DejaVuSans-30" transform="translate(63.623047 0)"/>
      <use xlink:href="#DejaVuSans-6f" transform="translate(127.246094 0)"/>
      <use xlink:href="#DejaVuSans-63" transform="translate(188.427734 0)"/>
      <use xlink:href="#DejaVuSans-2d" transform="translate(243.408203 0)"/>
      <use xlink:href="#DejaVuSans-73" transform="translate(279.492188 0)"/>
      <use xlink:href="#DejaVuSans-74" transform="translate(331.591797 0)"/>
      <use xlink:href="#DejaVuSans-61" transform="translate(370.800781 0)"/>
      <use xlink:href="#DejaVuSans-74" transform="translate(432.080078 0)"/>
      <use xlink:href="#DejaVuSans-65" transform="translate(471.289062 0)"/>
      <use xlink:href="#DejaVuSans-2d" transform="translate(532.8125 0)"/>
      <use xlink:href="#DejaVuSans-64" transform="translate(568.896484 0)"/>
      <use xlink:href="#DejaVuSans-69" transform="translate(632.373047 0)"/>
      <use xlink:href="#DejaVuSans-66" transform="translate(660.15625 0)"/>
      <use xlink:href="#DejaVuSans-66" transform="translate(695.361328 0)"/>
     </g>
    </g>
    <g id="line2d_28">
     <path d="M 743.14375 67.932813 
L 753.14375 67.932813 
L 763.14375 67.932813 
" style="fill: none; stroke: #d62728; stroke-opacity: 0.7; stroke-width: 1.5; stroke-linecap: square"/>
    </g>
    <g id="text_16">
     <!-- 50oc-state-diff -->
     <g transform="translate(771.14375 71.432813) scale(0.1 -0.1)">
      <use xlink:href="#DejaVuSans-35"/>
      <use xlink:href="#DejaVuSans-30" transform="translate(63.623047 0)"/>
      <use xlink:href="#DejaVuSans-6f" transform="translate(127.246094 0)"/>
      <use xlink:href="#DejaVuSans-63" transform="translate(188.427734 0)"/>
      <use xlink:href="#DejaVuSans-2d" transform="translate(243.408203 0)"/>
      <use xlink:href="#DejaVuSans-73" transform="translate(279.492188 0)"/>
      <use xlink:href="#DejaVuSans-74" transform="translate(331.591797 0)"/>
      <use xlink:href="#DejaVuSans-61" transform="translate(370.800781 0)"/>
      <use xlink:href="#DejaVuSans-74" transform="translate(432.080078 0)"/>
      <use xlink:href="#DejaVuSans-65" transform="translate(471.289062 0)"/>
      <use xlink:href="#DejaVuSans-2d" transform="translate(532.8125 0)"/>
      <use xlink:href="#DejaVuSans-64" transform="translate(568.896484 0)"/>
      <use xlink:href="#DejaVuSans-69" transform="translate(632.373047 0)"/>
      <use xlink:href="#DejaVuSans-66" transform="translate(660.15625 0)"/>
      <use xlink:href="#DejaVuSans-66" transform="translate(695.361328 0)"/>
     </g>
    </g>
   </g>
  </g>
 </g>
 <defs>
  <clipPath id="p779fe043f5">
   <rect x="36.625" y="10.8" width="816.575" height="379.24"/>
  </clipPath>
 </defs>
</svg>
