<?xml version="1.0" encoding="utf-8" standalone="no"?>
<!DOCTYPE svg PUBLIC "-//W3C//DTD SVG 1.1//EN"
  "http://www.w3.org/Graphics/SVG/1.1/DTD/svg11.dtd">
<svg xmlns:xlink="http://www.w3.org/1999/xlink" width="864pt" height="432pt" viewBox="0 0 864 432" xmlns="http://www.w3.org/2000/svg" version="1.1">
 <metadata>
  <rdf:RDF xmlns:dc="http://purl.org/dc/elements/1.1/" xmlns:cc="http://creativecommons.org/ns#" xmlns:rdf="http://www.w3.org/1999/02/22-rdf-syntax-ns#">
   <cc:Work>
    <dc:type rdf:resource="http://purl.org/dc/dcmitype/StillImage"/>
    <dc:date>2025-02-27T15:09:11.937545</dc:date>
    <dc:format>image/svg+xml</dc:format>
    <dc:creator>
     <cc:Agent>
      <dc:title>Matplotlib v3.10.0, https://matplotlib.org/</dc:title>
     </cc:Agent>
    </dc:creator>
   </cc:Work>
  </rdf:RDF>
 </metadata>
 <defs>
  <style type="text/css">*{stroke-linejoin: round; stroke-linecap: butt}</style>
 </defs>
 <g id="figure_1">
  <g id="patch_1">
   <path d="M 0 432 
L 864 432 
L 864 0 
L 0 0 
z
" style="fill: #ffffff"/>
  </g>
  <g id="axes_1">
   <g id="patch_2">
    <path d="M 54.2 390.04 
L 853.2 390.04 
L 853.2 10.8 
L 54.2 10.8 
z
" style="fill: #ffffff"/>
   </g>
   <g id="matplotlib.axis_1">
    <g id="xtick_1">
     <g id="line2d_1">
      <path d="M 90.275053 390.04 
L 90.275053 10.8 
" clip-path="url(#pdbc63721a3)" style="fill: none; stroke: #b0b0b0; stroke-width: 0.8; stroke-linecap: square"/>
     </g>
     <g id="line2d_2">
      <defs>
       <path id="md47523c444" d="M 0 0 
L 0 3.5 
" style="stroke: #000000; stroke-width: 0.8"/>
      </defs>
      <g>
       <use xlink:href="#md47523c444" x="90.275053" y="390.04" style="stroke: #000000; stroke-width: 0.8"/>
      </g>
     </g>
     <g id="text_1">
      <!-- 0 -->
      <g transform="translate(87.093803 404.638438) scale(0.1 -0.1)">
       <defs>
        <path id="DejaVuSans-30" d="M 2034 4250 
Q 1547 4250 1301 3770 
Q 1056 3291 1056 2328 
Q 1056 1369 1301 889 
Q 1547 409 2034 409 
Q 2525 409 2770 889 
Q 3016 1369 3016 2328 
Q 3016 3291 2770 3770 
Q 2525 4250 2034 4250 
z
M 2034 4750 
Q 2819 4750 3233 4129 
Q 3647 3509 3647 2328 
Q 3647 1150 3233 529 
Q 2819 -91 2034 -91 
Q 1250 -91 836 529 
Q 422 1150 422 2328 
Q 422 3509 836 4129 
Q 1250 4750 2034 4750 
z
" transform="scale(0.015625)"/>
       </defs>
       <use xlink:href="#DejaVuSans-30"/>
      </g>
     </g>
    </g>
    <g id="xtick_2">
     <g id="line2d_3">
      <path d="M 252.36095 390.04 
L 252.36095 10.8 
" clip-path="url(#pdbc63721a3)" style="fill: none; stroke: #b0b0b0; stroke-width: 0.8; stroke-linecap: square"/>
     </g>
     <g id="line2d_4">
      <g>
       <use xlink:href="#md47523c444" x="252.36095" y="390.04" style="stroke: #000000; stroke-width: 0.8"/>
      </g>
     </g>
     <g id="text_2">
      <!-- 20000 -->
      <g transform="translate(236.4547 404.638438) scale(0.1 -0.1)">
       <defs>
        <path id="DejaVuSans-32" d="M 1228 531 
L 3431 531 
L 3431 0 
L 469 0 
L 469 531 
Q 828 903 1448 1529 
Q 2069 2156 2228 2338 
Q 2531 2678 2651 2914 
Q 2772 3150 2772 3378 
Q 2772 3750 2511 3984 
Q 2250 4219 1831 4219 
Q 1534 4219 1204 4116 
Q 875 4013 500 3803 
L 500 4441 
Q 881 4594 1212 4672 
Q 1544 4750 1819 4750 
Q 2544 4750 2975 4387 
Q 3406 4025 3406 3419 
Q 3406 3131 3298 2873 
Q 3191 2616 2906 2266 
Q 2828 2175 2409 1742 
Q 1991 1309 1228 531 
z
" transform="scale(0.015625)"/>
       </defs>
       <use xlink:href="#DejaVuSans-32"/>
       <use xlink:href="#DejaVuSans-30" transform="translate(63.623047 0)"/>
       <use xlink:href="#DejaVuSans-30" transform="translate(127.246094 0)"/>
       <use xlink:href="#DejaVuSans-30" transform="translate(190.869141 0)"/>
       <use xlink:href="#DejaVuSans-30" transform="translate(254.492188 0)"/>
      </g>
     </g>
    </g>
    <g id="xtick_3">
     <g id="line2d_5">
      <path d="M 414.446848 390.04 
L 414.446848 10.8 
" clip-path="url(#pdbc63721a3)" style="fill: none; stroke: #b0b0b0; stroke-width: 0.8; stroke-linecap: square"/>
     </g>
     <g id="line2d_6">
      <g>
       <use xlink:href="#md47523c444" x="414.446848" y="390.04" style="stroke: #000000; stroke-width: 0.8"/>
      </g>
     </g>
     <g id="text_3">
      <!-- 40000 -->
      <g transform="translate(398.540598 404.638438) scale(0.1 -0.1)">
       <defs>
        <path id="DejaVuSans-34" d="M 2419 4116 
L 825 1625 
L 2419 1625 
L 2419 4116 
z
M 2253 4666 
L 3047 4666 
L 3047 1625 
L 3713 1625 
L 3713 1100 
L 3047 1100 
L 3047 0 
L 2419 0 
L 2419 1100 
L 313 1100 
L 313 1709 
L 2253 4666 
z
" transform="scale(0.015625)"/>
       </defs>
       <use xlink:href="#DejaVuSans-34"/>
       <use xlink:href="#DejaVuSans-30" transform="translate(63.623047 0)"/>
       <use xlink:href="#DejaVuSans-30" transform="translate(127.246094 0)"/>
       <use xlink:href="#DejaVuSans-30" transform="translate(190.869141 0)"/>
       <use xlink:href="#DejaVuSans-30" transform="translate(254.492188 0)"/>
      </g>
     </g>
    </g>
    <g id="xtick_4">
     <g id="line2d_7">
      <path d="M 576.532745 390.04 
L 576.532745 10.8 
" clip-path="url(#pdbc63721a3)" style="fill: none; stroke: #b0b0b0; stroke-width: 0.8; stroke-linecap: square"/>
     </g>
     <g id="line2d_8">
      <g>
       <use xlink:href="#md47523c444" x="576.532745" y="390.04" style="stroke: #000000; stroke-width: 0.8"/>
      </g>
     </g>
     <g id="text_4">
      <!-- 60000 -->
      <g transform="translate(560.626495 404.638438) scale(0.1 -0.1)">
       <defs>
        <path id="DejaVuSans-36" d="M 2113 2584 
Q 1688 2584 1439 2293 
Q 1191 2003 1191 1497 
Q 1191 994 1439 701 
Q 1688 409 2113 409 
Q 2538 409 2786 701 
Q 3034 994 3034 1497 
Q 3034 2003 2786 2293 
Q 2538 2584 2113 2584 
z
M 3366 4563 
L 3366 3988 
Q 3128 4100 2886 4159 
Q 2644 4219 2406 4219 
Q 1781 4219 1451 3797 
Q 1122 3375 1075 2522 
Q 1259 2794 1537 2939 
Q 1816 3084 2150 3084 
Q 2853 3084 3261 2657 
Q 3669 2231 3669 1497 
Q 3669 778 3244 343 
Q 2819 -91 2113 -91 
Q 1303 -91 875 529 
Q 447 1150 447 2328 
Q 447 3434 972 4092 
Q 1497 4750 2381 4750 
Q 2619 4750 2861 4703 
Q 3103 4656 3366 4563 
z
" transform="scale(0.015625)"/>
       </defs>
       <use xlink:href="#DejaVuSans-36"/>
       <use xlink:href="#DejaVuSans-30" transform="translate(63.623047 0)"/>
       <use xlink:href="#DejaVuSans-30" transform="translate(127.246094 0)"/>
       <use xlink:href="#DejaVuSans-30" transform="translate(190.869141 0)"/>
       <use xlink:href="#DejaVuSans-30" transform="translate(254.492188 0)"/>
      </g>
     </g>
    </g>
    <g id="xtick_5">
     <g id="line2d_9">
      <path d="M 738.618643 390.04 
L 738.618643 10.8 
" clip-path="url(#pdbc63721a3)" style="fill: none; stroke: #b0b0b0; stroke-width: 0.8; stroke-linecap: square"/>
     </g>
     <g id="line2d_10">
      <g>
       <use xlink:href="#md47523c444" x="738.618643" y="390.04" style="stroke: #000000; stroke-width: 0.8"/>
      </g>
     </g>
     <g id="text_5">
      <!-- 80000 -->
      <g transform="translate(722.712393 404.638438) scale(0.1 -0.1)">
       <defs>
        <path id="DejaVuSans-38" d="M 2034 2216 
Q 1584 2216 1326 1975 
Q 1069 1734 1069 1313 
Q 1069 891 1326 650 
Q 1584 409 2034 409 
Q 2484 409 2743 651 
Q 3003 894 3003 1313 
Q 3003 1734 2745 1975 
Q 2488 2216 2034 2216 
z
M 1403 2484 
Q 997 2584 770 2862 
Q 544 3141 544 3541 
Q 544 4100 942 4425 
Q 1341 4750 2034 4750 
Q 2731 4750 3128 4425 
Q 3525 4100 3525 3541 
Q 3525 3141 3298 2862 
Q 3072 2584 2669 2484 
Q 3125 2378 3379 2068 
Q 3634 1759 3634 1313 
Q 3634 634 3220 271 
Q 2806 -91 2034 -91 
Q 1263 -91 848 271 
Q 434 634 434 1313 
Q 434 1759 690 2068 
Q 947 2378 1403 2484 
z
M 1172 3481 
Q 1172 3119 1398 2916 
Q 1625 2713 2034 2713 
Q 2441 2713 2670 2916 
Q 2900 3119 2900 3481 
Q 2900 3844 2670 4047 
Q 2441 4250 2034 4250 
Q 1625 4250 1398 4047 
Q 1172 3844 1172 3481 
z
" transform="scale(0.015625)"/>
       </defs>
       <use xlink:href="#DejaVuSans-38"/>
       <use xlink:href="#DejaVuSans-30" transform="translate(63.623047 0)"/>
       <use xlink:href="#DejaVuSans-30" transform="translate(127.246094 0)"/>
       <use xlink:href="#DejaVuSans-30" transform="translate(190.869141 0)"/>
       <use xlink:href="#DejaVuSans-30" transform="translate(254.492188 0)"/>
      </g>
     </g>
    </g>
    <g id="text_6">
     <!-- Run Time (seconds) -->
     <g transform="translate(404.3625 418.316562) scale(0.1 -0.1)">
      <defs>
       <path id="DejaVuSans-52" d="M 2841 2188 
Q 3044 2119 3236 1894 
Q 3428 1669 3622 1275 
L 4263 0 
L 3584 0 
L 2988 1197 
Q 2756 1666 2539 1819 
Q 2322 1972 1947 1972 
L 1259 1972 
L 1259 0 
L 628 0 
L 628 4666 
L 2053 4666 
Q 2853 4666 3247 4331 
Q 3641 3997 3641 3322 
Q 3641 2881 3436 2590 
Q 3231 2300 2841 2188 
z
M 1259 4147 
L 1259 2491 
L 2053 2491 
Q 2509 2491 2742 2702 
Q 2975 2913 2975 3322 
Q 2975 3731 2742 3939 
Q 2509 4147 2053 4147 
L 1259 4147 
z
" transform="scale(0.015625)"/>
       <path id="DejaVuSans-75" d="M 544 1381 
L 544 3500 
L 1119 3500 
L 1119 1403 
Q 1119 906 1312 657 
Q 1506 409 1894 409 
Q 2359 409 2629 706 
Q 2900 1003 2900 1516 
L 2900 3500 
L 3475 3500 
L 3475 0 
L 2900 0 
L 2900 538 
Q 2691 219 2414 64 
Q 2138 -91 1772 -91 
Q 1169 -91 856 284 
Q 544 659 544 1381 
z
M 1991 3584 
L 1991 3584 
z
" transform="scale(0.015625)"/>
       <path id="DejaVuSans-6e" d="M 3513 2113 
L 3513 0 
L 2938 0 
L 2938 2094 
Q 2938 2591 2744 2837 
Q 2550 3084 2163 3084 
Q 1697 3084 1428 2787 
Q 1159 2491 1159 1978 
L 1159 0 
L 581 0 
L 581 3500 
L 1159 3500 
L 1159 2956 
Q 1366 3272 1645 3428 
Q 1925 3584 2291 3584 
Q 2894 3584 3203 3211 
Q 3513 2838 3513 2113 
z
" transform="scale(0.015625)"/>
       <path id="DejaVuSans-20" transform="scale(0.015625)"/>
       <path id="DejaVuSans-54" d="M -19 4666 
L 3928 4666 
L 3928 4134 
L 2272 4134 
L 2272 0 
L 1638 0 
L 1638 4134 
L -19 4134 
L -19 4666 
z
" transform="scale(0.015625)"/>
       <path id="DejaVuSans-69" d="M 603 3500 
L 1178 3500 
L 1178 0 
L 603 0 
L 603 3500 
z
M 603 4863 
L 1178 4863 
L 1178 4134 
L 603 4134 
L 603 4863 
z
" transform="scale(0.015625)"/>
       <path id="DejaVuSans-6d" d="M 3328 2828 
Q 3544 3216 3844 3400 
Q 4144 3584 4550 3584 
Q 5097 3584 5394 3201 
Q 5691 2819 5691 2113 
L 5691 0 
L 5113 0 
L 5113 2094 
Q 5113 2597 4934 2840 
Q 4756 3084 4391 3084 
Q 3944 3084 3684 2787 
Q 3425 2491 3425 1978 
L 3425 0 
L 2847 0 
L 2847 2094 
Q 2847 2600 2669 2842 
Q 2491 3084 2119 3084 
Q 1678 3084 1418 2786 
Q 1159 2488 1159 1978 
L 1159 0 
L 581 0 
L 581 3500 
L 1159 3500 
L 1159 2956 
Q 1356 3278 1631 3431 
Q 1906 3584 2284 3584 
Q 2666 3584 2933 3390 
Q 3200 3197 3328 2828 
z
" transform="scale(0.015625)"/>
       <path id="DejaVuSans-65" d="M 3597 1894 
L 3597 1613 
L 953 1613 
Q 991 1019 1311 708 
Q 1631 397 2203 397 
Q 2534 397 2845 478 
Q 3156 559 3463 722 
L 3463 178 
Q 3153 47 2828 -22 
Q 2503 -91 2169 -91 
Q 1331 -91 842 396 
Q 353 884 353 1716 
Q 353 2575 817 3079 
Q 1281 3584 2069 3584 
Q 2775 3584 3186 3129 
Q 3597 2675 3597 1894 
z
M 3022 2063 
Q 3016 2534 2758 2815 
Q 2500 3097 2075 3097 
Q 1594 3097 1305 2825 
Q 1016 2553 972 2059 
L 3022 2063 
z
" transform="scale(0.015625)"/>
       <path id="DejaVuSans-28" d="M 1984 4856 
Q 1566 4138 1362 3434 
Q 1159 2731 1159 2009 
Q 1159 1288 1364 580 
Q 1569 -128 1984 -844 
L 1484 -844 
Q 1016 -109 783 600 
Q 550 1309 550 2009 
Q 550 2706 781 3412 
Q 1013 4119 1484 4856 
L 1984 4856 
z
" transform="scale(0.015625)"/>
       <path id="DejaVuSans-73" d="M 2834 3397 
L 2834 2853 
Q 2591 2978 2328 3040 
Q 2066 3103 1784 3103 
Q 1356 3103 1142 2972 
Q 928 2841 928 2578 
Q 928 2378 1081 2264 
Q 1234 2150 1697 2047 
L 1894 2003 
Q 2506 1872 2764 1633 
Q 3022 1394 3022 966 
Q 3022 478 2636 193 
Q 2250 -91 1575 -91 
Q 1294 -91 989 -36 
Q 684 19 347 128 
L 347 722 
Q 666 556 975 473 
Q 1284 391 1588 391 
Q 1994 391 2212 530 
Q 2431 669 2431 922 
Q 2431 1156 2273 1281 
Q 2116 1406 1581 1522 
L 1381 1569 
Q 847 1681 609 1914 
Q 372 2147 372 2553 
Q 372 3047 722 3315 
Q 1072 3584 1716 3584 
Q 2034 3584 2315 3537 
Q 2597 3491 2834 3397 
z
" transform="scale(0.015625)"/>
       <path id="DejaVuSans-63" d="M 3122 3366 
L 3122 2828 
Q 2878 2963 2633 3030 
Q 2388 3097 2138 3097 
Q 1578 3097 1268 2742 
Q 959 2388 959 1747 
Q 959 1106 1268 751 
Q 1578 397 2138 397 
Q 2388 397 2633 464 
Q 2878 531 3122 666 
L 3122 134 
Q 2881 22 2623 -34 
Q 2366 -91 2075 -91 
Q 1284 -91 818 406 
Q 353 903 353 1747 
Q 353 2603 823 3093 
Q 1294 3584 2113 3584 
Q 2378 3584 2631 3529 
Q 2884 3475 3122 3366 
z
" transform="scale(0.015625)"/>
       <path id="DejaVuSans-6f" d="M 1959 3097 
Q 1497 3097 1228 2736 
Q 959 2375 959 1747 
Q 959 1119 1226 758 
Q 1494 397 1959 397 
Q 2419 397 2687 759 
Q 2956 1122 2956 1747 
Q 2956 2369 2687 2733 
Q 2419 3097 1959 3097 
z
M 1959 3584 
Q 2709 3584 3137 3096 
Q 3566 2609 3566 1747 
Q 3566 888 3137 398 
Q 2709 -91 1959 -91 
Q 1206 -91 779 398 
Q 353 888 353 1747 
Q 353 2609 779 3096 
Q 1206 3584 1959 3584 
z
" transform="scale(0.015625)"/>
       <path id="DejaVuSans-64" d="M 2906 2969 
L 2906 4863 
L 3481 4863 
L 3481 0 
L 2906 0 
L 2906 525 
Q 2725 213 2448 61 
Q 2172 -91 1784 -91 
Q 1150 -91 751 415 
Q 353 922 353 1747 
Q 353 2572 751 3078 
Q 1150 3584 1784 3584 
Q 2172 3584 2448 3432 
Q 2725 3281 2906 2969 
z
M 947 1747 
Q 947 1113 1208 752 
Q 1469 391 1925 391 
Q 2381 391 2643 752 
Q 2906 1113 2906 1747 
Q 2906 2381 2643 2742 
Q 2381 3103 1925 3103 
Q 1469 3103 1208 2742 
Q 947 2381 947 1747 
z
" transform="scale(0.015625)"/>
       <path id="DejaVuSans-29" d="M 513 4856 
L 1013 4856 
Q 1481 4119 1714 3412 
Q 1947 2706 1947 2009 
Q 1947 1309 1714 600 
Q 1481 -109 1013 -844 
L 513 -844 
Q 928 -128 1133 580 
Q 1338 1288 1338 2009 
Q 1338 2731 1133 3434 
Q 928 4138 513 4856 
z
" transform="scale(0.015625)"/>
      </defs>
      <use xlink:href="#DejaVuSans-52"/>
      <use xlink:href="#DejaVuSans-75" transform="translate(64.982422 0)"/>
      <use xlink:href="#DejaVuSans-6e" transform="translate(128.361328 0)"/>
      <use xlink:href="#DejaVuSans-20" transform="translate(191.740234 0)"/>
      <use xlink:href="#DejaVuSans-54" transform="translate(223.527344 0)"/>
      <use xlink:href="#DejaVuSans-69" transform="translate(281.486328 0)"/>
      <use xlink:href="#DejaVuSans-6d" transform="translate(309.269531 0)"/>
      <use xlink:href="#DejaVuSans-65" transform="translate(406.681641 0)"/>
      <use xlink:href="#DejaVuSans-20" transform="translate(468.205078 0)"/>
      <use xlink:href="#DejaVuSans-28" transform="translate(499.992188 0)"/>
      <use xlink:href="#DejaVuSans-73" transform="translate(539.005859 0)"/>
      <use xlink:href="#DejaVuSans-65" transform="translate(591.105469 0)"/>
      <use xlink:href="#DejaVuSans-63" transform="translate(652.628906 0)"/>
      <use xlink:href="#DejaVuSans-6f" transform="translate(707.609375 0)"/>
      <use xlink:href="#DejaVuSans-6e" transform="translate(768.791016 0)"/>
      <use xlink:href="#DejaVuSans-64" transform="translate(832.169922 0)"/>
      <use xlink:href="#DejaVuSans-73" transform="translate(895.646484 0)"/>
      <use xlink:href="#DejaVuSans-29" transform="translate(947.746094 0)"/>
     </g>
    </g>
   </g>
   <g id="matplotlib.axis_2">
    <g id="ytick_1">
     <g id="line2d_11">
      <path d="M 54.2 390.04 
L 853.2 390.04 
" clip-path="url(#pdbc63721a3)" style="fill: none; stroke: #b0b0b0; stroke-width: 0.8; stroke-linecap: square"/>
     </g>
     <g id="line2d_12">
      <defs>
       <path id="me9321c9510" d="M 0 0 
L -3.5 0 
" style="stroke: #000000; stroke-width: 0.8"/>
      </defs>
      <g>
       <use xlink:href="#me9321c9510" x="54.2" y="390.04" style="stroke: #000000; stroke-width: 0.8"/>
      </g>
     </g>
     <g id="text_7">
      <!-- 0.01 -->
      <g transform="translate(24.934375 393.839219) scale(0.1 -0.1)">
       <defs>
        <path id="DejaVuSans-2e" d="M 684 794 
L 1344 794 
L 1344 0 
L 684 0 
L 684 794 
z
" transform="scale(0.015625)"/>
        <path id="DejaVuSans-31" d="M 794 531 
L 1825 531 
L 1825 4091 
L 703 3866 
L 703 4441 
L 1819 4666 
L 2450 4666 
L 2450 531 
L 3481 531 
L 3481 0 
L 794 0 
L 794 531 
z
" transform="scale(0.015625)"/>
       </defs>
       <use xlink:href="#DejaVuSans-30"/>
       <use xlink:href="#DejaVuSans-2e" transform="translate(63.623047 0)"/>
       <use xlink:href="#DejaVuSans-30" transform="translate(95.410156 0)"/>
       <use xlink:href="#DejaVuSans-31" transform="translate(159.033203 0)"/>
      </g>
     </g>
    </g>
    <g id="ytick_2">
     <g id="line2d_13">
      <path d="M 54.2 194.851876 
L 853.2 194.851876 
" clip-path="url(#pdbc63721a3)" style="fill: none; stroke: #b0b0b0; stroke-width: 0.8; stroke-linecap: square"/>
     </g>
     <g id="line2d_14">
      <g>
       <use xlink:href="#me9321c9510" x="54.2" y="194.851876" style="stroke: #000000; stroke-width: 0.8"/>
      </g>
     </g>
     <g id="text_8">
      <!-- 0.1 -->
      <g transform="translate(31.296875 198.651095) scale(0.1 -0.1)">
       <use xlink:href="#DejaVuSans-30"/>
       <use xlink:href="#DejaVuSans-2e" transform="translate(63.623047 0)"/>
       <use xlink:href="#DejaVuSans-31" transform="translate(95.410156 0)"/>
      </g>
     </g>
    </g>
    <g id="ytick_3">
     <g id="line2d_15">
      <path d="M 54.2 331.28252 
L 853.2 331.28252 
" clip-path="url(#pdbc63721a3)" style="fill: none; stroke: #b0b0b0; stroke-width: 0.8; stroke-linecap: square"/>
     </g>
     <g id="line2d_16">
      <defs>
       <path id="m3fc605f4d9" d="M 0 0 
L -2 0 
" style="stroke: #000000; stroke-width: 0.6"/>
      </defs>
      <g>
       <use xlink:href="#m3fc605f4d9" x="54.2" y="331.28252" style="stroke: #000000; stroke-width: 0.6"/>
      </g>
     </g>
    </g>
    <g id="ytick_4">
     <g id="line2d_17">
      <path d="M 54.2 296.911597 
L 853.2 296.911597 
" clip-path="url(#pdbc63721a3)" style="fill: none; stroke: #b0b0b0; stroke-width: 0.8; stroke-linecap: square"/>
     </g>
     <g id="line2d_18">
      <g>
       <use xlink:href="#m3fc605f4d9" x="54.2" y="296.911597" style="stroke: #000000; stroke-width: 0.6"/>
      </g>
     </g>
    </g>
    <g id="ytick_5">
     <g id="line2d_19">
      <path d="M 54.2 272.52504 
L 853.2 272.52504 
" clip-path="url(#pdbc63721a3)" style="fill: none; stroke: #b0b0b0; stroke-width: 0.8; stroke-linecap: square"/>
     </g>
     <g id="line2d_20">
      <g>
       <use xlink:href="#m3fc605f4d9" x="54.2" y="272.52504" style="stroke: #000000; stroke-width: 0.6"/>
      </g>
     </g>
    </g>
    <g id="ytick_6">
     <g id="line2d_21">
      <path d="M 54.2 253.609356 
L 853.2 253.609356 
" clip-path="url(#pdbc63721a3)" style="fill: none; stroke: #b0b0b0; stroke-width: 0.8; stroke-linecap: square"/>
     </g>
     <g id="line2d_22">
      <g>
       <use xlink:href="#m3fc605f4d9" x="54.2" y="253.609356" style="stroke: #000000; stroke-width: 0.6"/>
      </g>
     </g>
    </g>
    <g id="ytick_7">
     <g id="line2d_23">
      <path d="M 54.2 238.154117 
L 853.2 238.154117 
" clip-path="url(#pdbc63721a3)" style="fill: none; stroke: #b0b0b0; stroke-width: 0.8; stroke-linecap: square"/>
     </g>
     <g id="line2d_24">
      <g>
       <use xlink:href="#m3fc605f4d9" x="54.2" y="238.154117" style="stroke: #000000; stroke-width: 0.6"/>
      </g>
     </g>
    </g>
    <g id="ytick_8">
     <g id="line2d_25">
      <path d="M 54.2 225.086899 
L 853.2 225.086899 
" clip-path="url(#pdbc63721a3)" style="fill: none; stroke: #b0b0b0; stroke-width: 0.8; stroke-linecap: square"/>
     </g>
     <g id="line2d_26">
      <g>
       <use xlink:href="#m3fc605f4d9" x="54.2" y="225.086899" style="stroke: #000000; stroke-width: 0.6"/>
      </g>
     </g>
    </g>
    <g id="ytick_9">
     <g id="line2d_27">
      <path d="M 54.2 213.76756 
L 853.2 213.76756 
" clip-path="url(#pdbc63721a3)" style="fill: none; stroke: #b0b0b0; stroke-width: 0.8; stroke-linecap: square"/>
     </g>
     <g id="line2d_28">
      <g>
       <use xlink:href="#m3fc605f4d9" x="54.2" y="213.76756" style="stroke: #000000; stroke-width: 0.6"/>
      </g>
     </g>
    </g>
    <g id="ytick_10">
     <g id="line2d_29">
      <path d="M 54.2 203.783195 
L 853.2 203.783195 
" clip-path="url(#pdbc63721a3)" style="fill: none; stroke: #b0b0b0; stroke-width: 0.8; stroke-linecap: square"/>
     </g>
     <g id="line2d_30">
      <g>
       <use xlink:href="#m3fc605f4d9" x="54.2" y="203.783195" style="stroke: #000000; stroke-width: 0.6"/>
      </g>
     </g>
    </g>
    <g id="ytick_11">
     <g id="line2d_31">
      <path d="M 54.2 136.094396 
L 853.2 136.094396 
" clip-path="url(#pdbc63721a3)" style="fill: none; stroke: #b0b0b0; stroke-width: 0.8; stroke-linecap: square"/>
     </g>
     <g id="line2d_32">
      <g>
       <use xlink:href="#m3fc605f4d9" x="54.2" y="136.094396" style="stroke: #000000; stroke-width: 0.6"/>
      </g>
     </g>
    </g>
    <g id="ytick_12">
     <g id="line2d_33">
      <path d="M 54.2 101.723474 
L 853.2 101.723474 
" clip-path="url(#pdbc63721a3)" style="fill: none; stroke: #b0b0b0; stroke-width: 0.8; stroke-linecap: square"/>
     </g>
     <g id="line2d_34">
      <g>
       <use xlink:href="#m3fc605f4d9" x="54.2" y="101.723474" style="stroke: #000000; stroke-width: 0.6"/>
      </g>
     </g>
    </g>
    <g id="ytick_13">
     <g id="line2d_35">
      <path d="M 54.2 77.336916 
L 853.2 77.336916 
" clip-path="url(#pdbc63721a3)" style="fill: none; stroke: #b0b0b0; stroke-width: 0.8; stroke-linecap: square"/>
     </g>
     <g id="line2d_36">
      <g>
       <use xlink:href="#m3fc605f4d9" x="54.2" y="77.336916" style="stroke: #000000; stroke-width: 0.6"/>
      </g>
     </g>
    </g>
    <g id="ytick_14">
     <g id="line2d_37">
      <path d="M 54.2 58.421232 
L 853.2 58.421232 
" clip-path="url(#pdbc63721a3)" style="fill: none; stroke: #b0b0b0; stroke-width: 0.8; stroke-linecap: square"/>
     </g>
     <g id="line2d_38">
      <g>
       <use xlink:href="#m3fc605f4d9" x="54.2" y="58.421232" style="stroke: #000000; stroke-width: 0.6"/>
      </g>
     </g>
    </g>
    <g id="ytick_15">
     <g id="line2d_39">
      <path d="M 54.2 42.965994 
L 853.2 42.965994 
" clip-path="url(#pdbc63721a3)" style="fill: none; stroke: #b0b0b0; stroke-width: 0.8; stroke-linecap: square"/>
     </g>
     <g id="line2d_40">
      <g>
       <use xlink:href="#m3fc605f4d9" x="54.2" y="42.965994" style="stroke: #000000; stroke-width: 0.6"/>
      </g>
     </g>
    </g>
    <g id="ytick_16">
     <g id="line2d_41">
      <path d="M 54.2 29.898775 
L 853.2 29.898775 
" clip-path="url(#pdbc63721a3)" style="fill: none; stroke: #b0b0b0; stroke-width: 0.8; stroke-linecap: square"/>
     </g>
     <g id="line2d_42">
      <g>
       <use xlink:href="#m3fc605f4d9" x="54.2" y="29.898775" style="stroke: #000000; stroke-width: 0.6"/>
      </g>
     </g>
    </g>
    <g id="ytick_17">
     <g id="line2d_43">
      <path d="M 54.2 18.579436 
L 853.2 18.579436 
" clip-path="url(#pdbc63721a3)" style="fill: none; stroke: #b0b0b0; stroke-width: 0.8; stroke-linecap: square"/>
     </g>
     <g id="line2d_44">
      <g>
       <use xlink:href="#m3fc605f4d9" x="54.2" y="18.579436" style="stroke: #000000; stroke-width: 0.6"/>
      </g>
     </g>
    </g>
    <g id="text_9">
     <!-- State-Diff Coverage [%] -->
     <g transform="translate(18.854687 260.005938) rotate(-90) scale(0.1 -0.1)">
      <defs>
       <path id="DejaVuSans-53" d="M 3425 4513 
L 3425 3897 
Q 3066 4069 2747 4153 
Q 2428 4238 2131 4238 
Q 1616 4238 1336 4038 
Q 1056 3838 1056 3469 
Q 1056 3159 1242 3001 
Q 1428 2844 1947 2747 
L 2328 2669 
Q 3034 2534 3370 2195 
Q 3706 1856 3706 1288 
Q 3706 609 3251 259 
Q 2797 -91 1919 -91 
Q 1588 -91 1214 -16 
Q 841 59 441 206 
L 441 856 
Q 825 641 1194 531 
Q 1563 422 1919 422 
Q 2459 422 2753 634 
Q 3047 847 3047 1241 
Q 3047 1584 2836 1778 
Q 2625 1972 2144 2069 
L 1759 2144 
Q 1053 2284 737 2584 
Q 422 2884 422 3419 
Q 422 4038 858 4394 
Q 1294 4750 2059 4750 
Q 2388 4750 2728 4690 
Q 3069 4631 3425 4513 
z
" transform="scale(0.015625)"/>
       <path id="DejaVuSans-74" d="M 1172 4494 
L 1172 3500 
L 2356 3500 
L 2356 3053 
L 1172 3053 
L 1172 1153 
Q 1172 725 1289 603 
Q 1406 481 1766 481 
L 2356 481 
L 2356 0 
L 1766 0 
Q 1100 0 847 248 
Q 594 497 594 1153 
L 594 3053 
L 172 3053 
L 172 3500 
L 594 3500 
L 594 4494 
L 1172 4494 
z
" transform="scale(0.015625)"/>
       <path id="DejaVuSans-61" d="M 2194 1759 
Q 1497 1759 1228 1600 
Q 959 1441 959 1056 
Q 959 750 1161 570 
Q 1363 391 1709 391 
Q 2188 391 2477 730 
Q 2766 1069 2766 1631 
L 2766 1759 
L 2194 1759 
z
M 3341 1997 
L 3341 0 
L 2766 0 
L 2766 531 
Q 2569 213 2275 61 
Q 1981 -91 1556 -91 
Q 1019 -91 701 211 
Q 384 513 384 1019 
Q 384 1609 779 1909 
Q 1175 2209 1959 2209 
L 2766 2209 
L 2766 2266 
Q 2766 2663 2505 2880 
Q 2244 3097 1772 3097 
Q 1472 3097 1187 3025 
Q 903 2953 641 2809 
L 641 3341 
Q 956 3463 1253 3523 
Q 1550 3584 1831 3584 
Q 2591 3584 2966 3190 
Q 3341 2797 3341 1997 
z
" transform="scale(0.015625)"/>
       <path id="DejaVuSans-2d" d="M 313 2009 
L 1997 2009 
L 1997 1497 
L 313 1497 
L 313 2009 
z
" transform="scale(0.015625)"/>
       <path id="DejaVuSans-44" d="M 1259 4147 
L 1259 519 
L 2022 519 
Q 2988 519 3436 956 
Q 3884 1394 3884 2338 
Q 3884 3275 3436 3711 
Q 2988 4147 2022 4147 
L 1259 4147 
z
M 628 4666 
L 1925 4666 
Q 3281 4666 3915 4102 
Q 4550 3538 4550 2338 
Q 4550 1131 3912 565 
Q 3275 0 1925 0 
L 628 0 
L 628 4666 
z
" transform="scale(0.015625)"/>
       <path id="DejaVuSans-66" d="M 2375 4863 
L 2375 4384 
L 1825 4384 
Q 1516 4384 1395 4259 
Q 1275 4134 1275 3809 
L 1275 3500 
L 2222 3500 
L 2222 3053 
L 1275 3053 
L 1275 0 
L 697 0 
L 697 3053 
L 147 3053 
L 147 3500 
L 697 3500 
L 697 3744 
Q 697 4328 969 4595 
Q 1241 4863 1831 4863 
L 2375 4863 
z
" transform="scale(0.015625)"/>
       <path id="DejaVuSans-43" d="M 4122 4306 
L 4122 3641 
Q 3803 3938 3442 4084 
Q 3081 4231 2675 4231 
Q 1875 4231 1450 3742 
Q 1025 3253 1025 2328 
Q 1025 1406 1450 917 
Q 1875 428 2675 428 
Q 3081 428 3442 575 
Q 3803 722 4122 1019 
L 4122 359 
Q 3791 134 3420 21 
Q 3050 -91 2638 -91 
Q 1578 -91 968 557 
Q 359 1206 359 2328 
Q 359 3453 968 4101 
Q 1578 4750 2638 4750 
Q 3056 4750 3426 4639 
Q 3797 4528 4122 4306 
z
" transform="scale(0.015625)"/>
       <path id="DejaVuSans-76" d="M 191 3500 
L 800 3500 
L 1894 563 
L 2988 3500 
L 3597 3500 
L 2284 0 
L 1503 0 
L 191 3500 
z
" transform="scale(0.015625)"/>
       <path id="DejaVuSans-72" d="M 2631 2963 
Q 2534 3019 2420 3045 
Q 2306 3072 2169 3072 
Q 1681 3072 1420 2755 
Q 1159 2438 1159 1844 
L 1159 0 
L 581 0 
L 581 3500 
L 1159 3500 
L 1159 2956 
Q 1341 3275 1631 3429 
Q 1922 3584 2338 3584 
Q 2397 3584 2469 3576 
Q 2541 3569 2628 3553 
L 2631 2963 
z
" transform="scale(0.015625)"/>
       <path id="DejaVuSans-67" d="M 2906 1791 
Q 2906 2416 2648 2759 
Q 2391 3103 1925 3103 
Q 1463 3103 1205 2759 
Q 947 2416 947 1791 
Q 947 1169 1205 825 
Q 1463 481 1925 481 
Q 2391 481 2648 825 
Q 2906 1169 2906 1791 
z
M 3481 434 
Q 3481 -459 3084 -895 
Q 2688 -1331 1869 -1331 
Q 1566 -1331 1297 -1286 
Q 1028 -1241 775 -1147 
L 775 -588 
Q 1028 -725 1275 -790 
Q 1522 -856 1778 -856 
Q 2344 -856 2625 -561 
Q 2906 -266 2906 331 
L 2906 616 
Q 2728 306 2450 153 
Q 2172 0 1784 0 
Q 1141 0 747 490 
Q 353 981 353 1791 
Q 353 2603 747 3093 
Q 1141 3584 1784 3584 
Q 2172 3584 2450 3431 
Q 2728 3278 2906 2969 
L 2906 3500 
L 3481 3500 
L 3481 434 
z
" transform="scale(0.015625)"/>
       <path id="DejaVuSans-5b" d="M 550 4863 
L 1875 4863 
L 1875 4416 
L 1125 4416 
L 1125 -397 
L 1875 -397 
L 1875 -844 
L 550 -844 
L 550 4863 
z
" transform="scale(0.015625)"/>
       <path id="DejaVuSans-25" d="M 4653 2053 
Q 4381 2053 4226 1822 
Q 4072 1591 4072 1178 
Q 4072 772 4226 539 
Q 4381 306 4653 306 
Q 4919 306 5073 539 
Q 5228 772 5228 1178 
Q 5228 1588 5073 1820 
Q 4919 2053 4653 2053 
z
M 4653 2450 
Q 5147 2450 5437 2106 
Q 5728 1763 5728 1178 
Q 5728 594 5436 251 
Q 5144 -91 4653 -91 
Q 4153 -91 3862 251 
Q 3572 594 3572 1178 
Q 3572 1766 3864 2108 
Q 4156 2450 4653 2450 
z
M 1428 4353 
Q 1159 4353 1004 4120 
Q 850 3888 850 3481 
Q 850 3069 1003 2837 
Q 1156 2606 1428 2606 
Q 1700 2606 1854 2837 
Q 2009 3069 2009 3481 
Q 2009 3884 1853 4118 
Q 1697 4353 1428 4353 
z
M 4250 4750 
L 4750 4750 
L 1831 -91 
L 1331 -91 
L 4250 4750 
z
M 1428 4750 
Q 1922 4750 2215 4408 
Q 2509 4066 2509 3481 
Q 2509 2891 2217 2550 
Q 1925 2209 1428 2209 
Q 931 2209 642 2551 
Q 353 2894 353 3481 
Q 353 4063 643 4406 
Q 934 4750 1428 4750 
z
" transform="scale(0.015625)"/>
       <path id="DejaVuSans-5d" d="M 1947 4863 
L 1947 -844 
L 622 -844 
L 622 -397 
L 1369 -397 
L 1369 4416 
L 622 4416 
L 622 4863 
L 1947 4863 
z
" transform="scale(0.015625)"/>
      </defs>
      <use xlink:href="#DejaVuSans-53"/>
      <use xlink:href="#DejaVuSans-74" transform="translate(63.476562 0)"/>
      <use xlink:href="#DejaVuSans-61" transform="translate(102.685547 0)"/>
      <use xlink:href="#DejaVuSans-74" transform="translate(163.964844 0)"/>
      <use xlink:href="#DejaVuSans-65" transform="translate(203.173828 0)"/>
      <use xlink:href="#DejaVuSans-2d" transform="translate(264.697266 0)"/>
      <use xlink:href="#DejaVuSans-44" transform="translate(300.78125 0)"/>
      <use xlink:href="#DejaVuSans-69" transform="translate(377.783203 0)"/>
      <use xlink:href="#DejaVuSans-66" transform="translate(405.566406 0)"/>
      <use xlink:href="#DejaVuSans-66" transform="translate(440.771484 0)"/>
      <use xlink:href="#DejaVuSans-20" transform="translate(475.976562 0)"/>
      <use xlink:href="#DejaVuSans-43" transform="translate(507.763672 0)"/>
      <use xlink:href="#DejaVuSans-6f" transform="translate(577.587891 0)"/>
      <use xlink:href="#DejaVuSans-76" transform="translate(638.769531 0)"/>
      <use xlink:href="#DejaVuSans-65" transform="translate(697.949219 0)"/>
      <use xlink:href="#DejaVuSans-72" transform="translate(759.472656 0)"/>
      <use xlink:href="#DejaVuSans-61" transform="translate(800.585938 0)"/>
      <use xlink:href="#DejaVuSans-67" transform="translate(861.865234 0)"/>
      <use xlink:href="#DejaVuSans-65" transform="translate(925.341797 0)"/>
      <use xlink:href="#DejaVuSans-20" transform="translate(986.865234 0)"/>
      <use xlink:href="#DejaVuSans-5b" transform="translate(1018.652344 0)"/>
      <use xlink:href="#DejaVuSans-25" transform="translate(1057.666016 0)"/>
      <use xlink:href="#DejaVuSans-5d" transform="translate(1152.685547 0)"/>
     </g>
    </g>
   </g>
   <g id="line2d_45">
    <path d="M 93.704793 433 
L 94.027341 427.955288 
L 94.059759 427.782408 
L 94.659476 420.743011 
L 98.338826 420.637115 
L 98.792667 417.011738 
L 99.262716 406.8473 
L 99.295133 406.242364 
L 99.522053 400.73243 
L 99.846225 392.277338 
L 100.097458 386.037206 
L 100.291961 381.249615 
L 100.373004 379.277769 
L 101.159121 364.362956 
L 101.369833 361.299564 
L 101.548127 358.571722 
L 101.985759 351.777764 
L 102.228888 348.337519 
L 102.350452 346.7624 
L 102.715146 342.594357 
L 103.622827 332.186066 
L 103.663348 331.786277 
L 103.882164 330.105625 
L 104.238753 327.025045 
L 104.303587 326.317722 
L 104.571029 323.959418 
L 104.603446 323.790438 
L 104.854679 321.837991 
L 105.008661 320.780567 
L 105.235581 318.967211 
L 105.470606 317.340327 
L 105.632692 315.866988 
L 106.272931 311.601965 
L 106.337765 311.273643 
L 106.637624 309.244612 
L 108.136919 300.722377 
L 108.17744 300.581041 
L 108.2909 299.782442 
L 108.631281 297.908389 
L 108.70422 297.610365 
L 109.10133 295.643817 
L 109.182373 295.329499 
L 109.44171 293.947119 
L 109.611901 293.178956 
L 109.903655 292.057021 
L 110.041428 291.443923 
L 110.389913 289.981267 
L 111.240864 286.333647 
L 111.40295 285.852111 
L 111.929729 284.063723 
L 112.659115 281.309211 
L 112.845514 280.713015 
L 112.958974 280.287547 
L 113.185895 279.538063 
L 113.218312 279.397957 
L 113.858551 277.435976 
L 113.93149 277.192064 
L 114.223244 276.233006 
L 114.425852 275.633081 
L 114.887796 274.393959 
L 114.936422 274.252685 
L 115.090404 273.900527 
L 115.560453 272.446443 
L 115.998085 271.339052 
L 116.28984 270.322271 
L 117.78103 266.501613 
L 118.056576 265.859938 
L 119.742269 261.734389 
L 119.815208 261.60054 
L 120.025919 261.11156 
L 120.106962 260.994784 
L 120.269048 260.585329 
L 121.411754 257.796464 
L 121.533318 257.533374 
L 124.523803 251.639595 
L 124.66968 251.362577 
L 124.985748 250.633007 
L 125.13973 250.373453 
L 125.585466 249.574905 
L 125.634091 249.483517 
L 125.844803 249.08048 
L 125.966368 248.829115 
L 126.331061 248.248943 
L 126.387791 248.141682 
L 128.324717 245.055371 
L 128.430073 244.835598 
L 128.632681 244.536822 
L 129.418797 243.224789 
L 129.702448 242.749727 
L 133.211607 237.32348 
L 133.333172 237.192708 
L 133.470945 236.986317 
L 133.5763 236.862117 
L 134.022037 236.24684 
L 134.10308 236.126719 
L 134.27327 235.86006 
L 135.813086 233.773967 
L 136.088632 233.441881 
L 136.599202 232.744093 
L 136.866644 232.364323 
L 137.150295 232.011972 
L 137.304276 231.769329 
L 137.912098 230.969267 
L 138.357834 230.409194 
L 138.46319 230.29426 
L 138.609068 230.076035 
L 138.852196 229.724701 
L 139.119638 229.427484 
L 139.233098 229.29726 
L 139.38708 229.117491 
L 139.678835 228.786609 
L 141.007939 227.167497 
L 141.129503 227.056873 
L 141.477988 226.607767 
L 141.713013 226.291864 
L 141.866994 226.126351 
L 142.045289 225.915923 
L 142.685528 225.256073 
L 142.847614 225.121554 
L 144.209135 223.528937 
L 144.363117 223.376472 
L 144.646767 223.008073 
L 144.857479 222.841146 
L 145.076295 222.579861 
L 145.724638 221.937764 
L 145.862411 221.813475 
L 146.146062 221.517437 
L 146.389191 221.235016 
L 146.559381 221.043908 
L 146.74578 220.878294 
L 146.980804 220.625479 
L 147.572418 220.13204 
L 147.750712 220.007887 
L 149.630909 218.130677 
L 149.817307 217.893174 
L 149.971289 217.791591 
L 150.384608 217.367226 
L 150.522381 217.225441 
L 150.70878 217.033569 
L 150.854657 216.901908 
L 151.073473 216.729861 
L 153.46424 214.424502 
L 153.626326 214.268998 
L 153.877559 214.058248 
L 154.404338 213.6176 
L 154.679884 213.433714 
L 154.866283 213.218156 
L 155.028369 213.087712 
L 155.393062 212.754505 
L 155.563252 212.645243 
L 155.757756 212.481614 
L 156.341265 212.028738 
L 156.608706 211.839249 
L 156.80321 211.672669 
L 157.25705 211.304653 
L 157.467762 211.094435 
L 157.751412 210.907021 
L 157.889185 210.817922 
L 158.610467 210.190205 
L 158.772553 210.035654 
L 158.950848 209.885788 
L 159.307437 209.683448 
L 159.607296 209.426821 
L 159.720756 209.3327 
L 159.907154 209.186254 
L 160.028719 209.053143 
L 160.620332 208.505444 
L 160.733793 208.39503 
L 163.310958 206.471949 
L 163.934989 206.041573 
L 164.080866 205.919609 
L 164.251057 205.770547 
L 164.421247 205.628029 
L 164.623854 205.489931 
L 164.8994 205.312408 
L 165.207363 205.091546 
L 165.482909 204.912779 
L 165.677412 204.755111 
L 166.414903 204.255009 
L 168.781357 202.578014 
L 168.927235 202.466982 
L 169.283824 202.187019 
L 169.494535 202.076498 
L 169.745768 201.944062 
L 170.005106 201.757798 
L 170.296861 201.536017 
L 170.580511 201.352637 
L 170.750701 201.247175 
L 171.204542 200.903839 
L 171.625965 200.644778 
L 171.852885 200.48302 
L 172.063597 200.309769 
L 173.335971 199.515003 
L 173.538578 199.407909 
L 174.697493 198.706389 
L 174.859579 198.598383 
L 175.99418 197.796514 
L 176.342664 197.601989 
L 176.747879 197.369906 
L 176.893757 197.263589 
L 177.217928 197.10815 
L 177.760916 196.80756 
L 177.931106 196.724566 
L 178.814474 196.198316 
L 178.992769 196.0972 
L 179.803198 195.610165 
L 179.989597 195.494881 
L 180.483959 195.190689 
L 180.694671 195.081521 
L 182.591076 194.105282 
L 182.753162 193.997502 
L 183.012499 193.888036 
L 184.066058 193.37724 
L 184.325395 193.205245 
L 184.681984 193.01555 
L 184.827861 192.910948 
L 185.135824 192.76868 
L 185.403266 192.594323 
L 186.829622 191.850604 
L 186.991708 191.747428 
L 187.332088 191.55919 
L 188.239769 191.148651 
L 188.393751 191.035748 
L 189.333849 190.527784 
L 189.463518 190.452464 
L 190.979021 189.67863 
L 191.22215 189.579796 
L 191.497696 189.446466 
L 191.659782 189.361729 
L 191.829972 189.252905 
L 192.672819 188.841333 
L 193.329267 188.590892 
L 193.5805 188.481342 
L 194.010027 188.286557 
L 194.155905 188.179104 
L 194.496285 187.998617 
L 194.763727 187.866051 
L 195.436383 187.615084 
L 195.987475 187.295669 
L 196.498046 187.113685 
L 197.924402 186.404653 
L 198.167531 186.276221 
L 198.410659 186.177944 
L 198.605163 186.071467 
L 202.705936 184.28315 
L 202.851813 184.201792 
L 203.451531 183.969536 
L 203.791911 183.836642 
L 205.372249 183.170454 
L 205.899028 182.958631 
L 206.142157 182.836912 
L 206.798605 182.595594 
L 207.171402 182.43775 
L 207.722494 182.218215 
L 208.549132 181.85991 
L 208.881408 181.716063 
L 209.124537 181.600846 
L 209.651316 181.42123 
L 210.1862 181.205879 
L 210.826439 180.95976 
L 211.142507 180.82212 
L 211.547721 180.641026 
L 211.831372 180.536604 
L 212.115022 180.416756 
L 212.512133 180.267572 
L 213.184789 180.008678 
L 213.590004 179.86021 
L 214.740814 179.328789 
L 219.173863 177.537456 
L 219.408887 177.406759 
L 219.838415 177.264273 
L 220.041022 177.180394 
L 227.326784 174.604487 
L 227.926501 174.38837 
L 228.380342 174.234958 
L 229.215084 173.913116 
L 229.531152 173.803709 
L 230.276747 173.53224 
L 233.721072 172.430911 
L 234.045244 172.324812 
L 234.223538 172.261217 
L 236.695348 171.514372 
L 237.116772 171.406617 
L 237.692177 171.233376 
L 239.928962 170.578549 
L 240.24503 170.471976 
L 240.617827 170.351723 
L 244.669975 169.086336 
L 245.107606 168.978903 
L 245.480404 168.862106 
L 246.080122 168.683148 
L 248.1143 168.116236 
L 248.495202 168.010025 
L 248.762643 167.929447 
L 250.237625 167.574476 
L 250.885969 167.376872 
L 259.646711 165.109666 
L 259.784484 165.059043 
L 260.416619 164.925492 
L 260.821834 164.815439 
L 263.180184 164.178646 
L 263.982509 164.006734 
L 264.501184 163.882508 
L 265.011755 163.772521 
L 266.21119 163.475248 
L 266.446215 163.414137 
L 267.783424 163.095291 
L 268.34262 162.995185 
L 269.161154 162.754906 
L 269.639307 162.651416 
L 270.409215 162.481312 
L 272.232681 162.030615 
L 272.759461 161.921753 
L 273.067424 161.858002 
L 273.553681 161.749362 
L 273.975105 161.677012 
L 276.171369 161.228079 
L 276.536062 161.133869 
L 277.014215 161.023677 
L 278.748534 160.648368 
L 279.315835 160.510514 
L 280.029013 160.347103 
L 280.166786 160.317649 
L 280.87186 160.154609 
L 282.103713 159.895372 
L 282.889829 159.72583 
L 284.324289 159.407181 
L 285.094197 159.242246 
L 285.410265 159.179267 
L 286.180173 159.01115 
L 286.480032 158.925406 
L 287.063541 158.815635 
L 288.635774 158.470362 
L 288.887007 158.418753 
L 289.429995 158.310834 
L 289.673124 158.267704 
L 290.183695 158.158781 
L 290.418719 158.085845 
L 290.977915 157.974768 
L 292.736547 157.57229 
L 294.908498 157.14216 
L 296.545566 156.777729 
L 297.372204 156.60843 
L 297.915192 156.493406 
L 299.876431 156.099052 
L 300.378897 156.001041 
L 301.878192 155.673991 
L 312.697426 153.460039 
L 313.848236 153.268999 
L 314.715395 153.14263 
L 319.602285 152.355943 
L 319.837309 152.301225 
L 320.493757 152.190781 
L 321.652672 151.987005 
L 325.607567 151.284791 
L 326.126242 151.175663 
L 327.00961 151.049074 
L 327.633641 150.942445 
L 327.868666 150.890828 
L 330.486353 150.424407 
L 330.753795 150.370921 
L 331.718206 150.217203 
L 332.828494 150.032239 
L 333.525464 149.925795 
L 333.809114 149.869369 
L 334.619543 149.75988 
L 335.91623 149.527279 
L 340.227715 148.840781 
L 341.435255 148.633131 
L 342.423979 148.479328 
L 342.740047 148.437721 
L 344.117777 148.236375 
L 344.352801 148.190633 
L 345.91693 147.979264 
L 346.143851 147.940022 
L 346.719256 147.832995 
L 347.513476 147.723987 
L 347.829544 147.646815 
L 348.721016 147.539101 
L 348.947937 147.495844 
L 350.187894 147.304087 
L 353.372882 146.796241 
L 354.013121 146.686468 
L 354.564213 146.588316 
L 355.901422 146.392351 
L 356.249906 146.330945 
L 356.914459 146.220734 
L 361.396134 145.536687 
L 361.712201 145.496499 
L 362.498318 145.388395 
L 363.025097 145.304067 
L 363.722066 145.193129 
L 364.20022 145.128482 
L 365.164631 145.018798 
L 366.193876 144.872431 
L 375.165331 143.632873 
L 375.392251 143.597607 
L 376.016282 143.519067 
L 376.769981 143.409434 
L 377.272447 143.339102 
L 389.71254 141.690073 
L 390.061025 141.656591 
L 424.88518 137.536446 
L 425.914425 137.426785 
L 426.741063 137.348142 
L 427.81083 137.239659 
L 429.261499 137.098652 
L 430.898566 136.925283 
L 431.417241 136.862919 
L 456.572973 134.085906 
L 457.513071 133.975221 
L 467.602918 132.965951 
L 468.802353 132.856718 
L 469.329133 132.799937 
L 470.666341 132.690031 
L 471.217433 132.62274 
L 473.486636 132.387641 
L 478.138501 131.992273 
L 479.451397 131.881655 
L 480.294244 131.812372 
L 481.445053 131.703738 
L 481.77733 131.676602 
L 484.046532 131.444108 
L 485.432367 131.330715 
L 486.801992 131.220956 
L 487.612422 131.16004 
L 492.264287 130.772076 
L 493.293533 130.663902 
L 493.479931 130.635367 
L 495.125103 130.52564 
L 496.146244 130.421229 
L 498.844975 130.168931 
L 499.282606 130.123373 
L 502.418969 129.847115 
L 502.832288 129.810292 
L 504.266748 129.700772 
L 504.728693 129.669995 
L 505.838981 129.558949 
L 506.722349 129.484715 
L 507.881263 129.373911 
L 512.776257 128.970278 
L 514.1783 128.860991 
L 514.794227 128.812746 
L 516.131436 128.702817 
L 516.658215 128.650439 
L 519.284006 128.402507 
L 520.791405 128.278812 
L 522.185344 128.167893 
L 529.06589 127.566255 
L 530.297743 127.456263 
L 548.386529 126.106392 
L 549.431983 126.007282 
L 550.939382 125.896841 
L 551.871376 125.820843 
L 556.70964 125.466271 
L 561.507383 125.095357 
L 563.103929 124.984479 
L 563.622603 124.944049 
L 567.10745 124.707515 
L 568.760726 124.601169 
L 568.939021 124.577823 
L 569.952058 124.489327 
L 571.451352 124.378436 
L 572.869604 124.26769 
L 573.112733 124.250048 
L 574.660653 124.139469 
L 575.527813 124.081033 
L 577.035211 123.972272 
L 577.448531 123.928328 
L 579.29631 123.818168 
L 580.082426 123.7751 
L 582.011249 123.665935 
L 582.529923 123.627721 
L 584.531684 123.51795 
L 585.439365 123.451203 
L 587.084537 123.340867 
L 594.726887 122.858351 
L 595.083476 122.838635 
L 595.950636 122.781876 
L 597.490452 122.670833 
L 607.207501 122.088867 
L 608.042244 122.040419 
L 610.295238 121.929563 
L 610.692348 121.893683 
L 612.515814 121.783797 
L 612.815673 121.762771 
L 614.622931 121.652277 
L 615.433361 121.609519 
L 617.751189 121.498448 
L 618.610244 121.444907 
L 620.798404 121.334051 
L 623.464717 121.189305 
L 625.401643 121.078783 
L 628.157104 120.927532 
L 629.713128 120.816581 
L 630.531662 120.773472 
L 632.379441 120.663491 
L 633.214184 120.617387 
L 634.964711 120.508375 
L 636.285711 120.430924 
L 637.776902 120.32062 
L 638.684583 120.257872 
L 640.273024 120.147029 
L 643.174362 119.983705 
L 644.884368 119.874743 
L 645.49219 119.844289 
L 647.664141 119.733985 
L 648.223338 119.689904 
L 651.537994 119.490305 
L 653.499234 119.379704 
L 664.067234 118.777721 
L 664.699369 118.743901 
L 666.822694 118.635019 
L 667.122553 118.617761 
L 667.68175 118.577256 
L 669.886118 118.466341 
L 670.72086 118.422165 
L 672.714517 118.311453 
L 673.638406 118.253909 
L 676.580265 118.093443 
L 678.922407 117.983159 
L 679.821983 117.928814 
L 682.261376 117.818001 
L 683.906548 117.702878 
L 686.110916 117.593101 
L 687.002389 117.541969 
L 688.939315 117.43092 
L 689.822683 117.382104 
L 692.262076 117.271264 
L 695.633463 117.074326 
L 697.578493 116.964623 
L 716.23458 115.946548 
L 718.552409 115.836841 
L 735.044649 114.962828 
L 736.697925 114.852952 
L 737.621814 114.802011 
L 756.286005 113.865453 
L 756.504821 113.845592 
L 816.881818 111.129354 
L 816.881818 111.129354 
" clip-path="url(#pdbc63721a3)" style="fill: none; stroke: #1f77b4; stroke-opacity: 0.7; stroke-width: 1.5; stroke-linecap: square"/>
   </g>
   <g id="line2d_46">
    <path d="M 93.299209 433 
L 93.403311 421.008329 
L 94.367722 420.743011 
L 98.249679 420.743011 
L 98.662998 410.289009 
L 98.711624 410.289009 
L 98.833188 403.108497 
L 99.0439 399.116152 
L 99.368072 387.976599 
L 99.457219 386.548875 
L 99.708452 379.586938 
L 99.740869 379.586938 
L 100.032624 374.371162 
L 100.089354 373.760211 
L 100.186606 371.655905 
L 100.583716 365.225509 
L 100.680968 363.051823 
L 100.997035 357.97587 
L 101.410354 351.414526 
L 101.57244 348.427771 
L 102.026281 341.599218 
L 102.083011 341.495143 
L 102.220784 339.643317 
L 102.309931 339.541614 
L 102.77998 334.894213 
L 102.95017 333.93744 
L 103.17709 330.397116 
L 103.460741 329.399287 
L 103.501262 329.309155 
L 104.011833 324.749634 
L 104.028041 324.749634 
L 104.117189 323.984794 
L 104.182023 323.900237 
L 104.400839 322.226557 
L 104.579133 321.156121 
L 104.773636 319.695947 
L 105.02487 316.848955 
L 105.073495 316.771221 
L 105.235581 315.460531 
L 105.36525 314.926671 
L 105.470606 314.245182 
L 105.729943 312.232985 
L 105.827195 312.232985 
L 106.046011 310.700312 
L 106.183784 310.195518 
L 106.34587 307.925414 
L 106.953692 304.967652 
L 107.091465 303.62634 
L 107.229238 302.96356 
L 107.302176 302.371457 
L 107.448054 301.199515 
L 107.512888 301.070293 
L 107.683078 300.043554 
L 107.909999 298.9661 
L 108.299005 296.728662 
L 108.371943 296.728662 
L 109.255312 290.749443 
L 109.32825 290.692302 
L 109.855029 287.662507 
L 110.009011 287.222718 
L 110.13868 286.295674 
L 111.273281 281.652521 
L 111.419158 281.345014 
L 111.597453 279.974876 
L 111.678496 279.673385 
L 111.824373 279.02381 
L 111.921625 278.626532 
L 112.010772 278.034083 
L 112.108023 277.690391 
L 112.286318 276.812957 
L 112.432195 275.992526 
L 112.488925 275.896525 
L 112.821201 275.132404 
L 112.958974 273.998984 
L 113.17779 273.344753 
L 113.501962 272.097107 
L 113.939594 270.551675 
L 114.061158 270.236966 
L 114.27187 269.61103 
L 114.38533 269.299788 
L 114.944527 267.542852 
L 115.106612 266.677853 
L 115.163343 266.677853 
L 115.293011 266.120301 
L 115.36595 266.034848 
L 115.625287 264.763287 
L 115.690122 264.679191 
L 115.811686 264.427401 
L 115.87652 264.301786 
L 115.973772 263.884409 
L 116.119649 263.842784 
L 116.225005 263.427655 
L 116.419508 262.726569 
L 116.484343 262.644468 
L 116.638324 261.705979 
L 116.938183 261.099472 
L 117.132686 260.058365 
L 117.165103 260.058365 
L 117.262355 259.740579 
L 117.335294 259.661319 
L 117.602735 259.147924 
L 117.708091 259.147924 
L 117.83776 258.520292 
L 119.085821 255.78991 
L 119.231699 255.714257 
L 119.353263 255.261751 
L 119.474827 255.186568 
L 119.604496 254.662144 
L 119.653122 254.587491 
L 119.863834 253.844549 
L 119.961085 253.549186 
L 120.098858 253.291584 
L 120.212318 253.181423 
L 120.447343 252.596302 
L 120.868766 251.438038 
L 121.047061 251.366169 
L 121.290189 250.544029 
L 121.622466 249.941444 
L 121.760239 249.694561 
L 121.898012 249.448394 
L 122.02768 249.167934 
L 122.343748 248.262793 
L 122.562564 247.848273 
L 122.619294 247.813821 
L 122.959674 246.345477 
L 123.575601 245.603953 
L 123.697165 245.503337 
L 124.037545 244.536822 
L 124.069963 244.536822 
L 124.175318 244.20608 
L 124.426552 243.679562 
L 124.66968 242.960898 
L 124.799349 242.701069 
L 124.993852 242.022784 
L 125.164042 241.926327 
L 125.447693 241.222314 
L 125.561153 241.126763 
L 126.322957 239.23803 
L 126.639024 238.401639 
L 126.695754 238.340011 
L 126.865944 237.879225 
L 127.457558 236.995411 
L 127.522392 236.904506 
L 127.984337 236.24083 
L 128.138319 236.180753 
L 128.284196 235.851086 
L 128.438178 235.373848 
L 128.592159 234.958458 
L 128.721828 234.781055 
L 128.851497 234.456777 
L 129.15946 233.753538 
L 129.248607 233.753538 
L 129.378276 233.404094 
L 129.459319 233.316958 
L 129.637613 233.056085 
L 129.775386 232.969305 
L 129.994202 232.565505 
L 130.026619 232.565505 
L 130.180601 232.192261 
L 130.561503 231.763629 
L 130.666859 231.365517 
L 130.715484 231.365517 
L 130.853257 231.110572 
L 131.04776 231.025761 
L 131.201742 230.687361 
L 131.282785 230.602971 
L 131.380037 230.462509 
L 131.493497 230.070447 
L 131.615061 229.98667 
L 131.841981 229.596798 
L 131.979754 229.181058 
L 132.222883 229.070538 
L 132.563264 228.712338 
L 132.72535 228.437827 
L 133.227816 227.483977 
L 133.438527 227.402715 
L 133.568196 226.9437 
L 133.641135 226.836057 
L 134.013932 226.406845 
L 134.167914 226.299881 
L 134.629859 225.343228 
L 134.986448 224.423387 
L 135.099908 224.318895 
L 135.197159 224.162398 
L 135.326828 223.928193 
L 135.53754 223.642819 
L 135.675313 223.358402 
L 135.76446 223.255213 
L 135.902233 223.126404 
L 136.137258 222.792414 
L 136.202092 222.715526 
L 136.315552 222.587534 
L 136.347969 222.587534 
L 136.477638 222.204714 
L 136.769393 221.975848 
L 136.923374 221.798268 
L 137.020626 221.722276 
L 138.560442 219.498286 
L 138.617172 219.424328 
L 138.690111 219.227419 
L 138.835988 219.129136 
L 139.516749 218.031233 
L 139.695043 217.958542 
L 139.89765 217.692543 
L 140.189405 217.379252 
L 140.343387 217.163035 
L 140.545994 217.067115 
L 140.675663 216.971304 
L 140.76481 216.875601 
L 140.935 216.780005 
L 141.137608 216.660663 
L 141.340215 216.565309 
L 141.494197 216.279891 
L 141.6887 216.184965 
L 142.304626 215.429358 
L 142.434295 215.194605 
L 142.563963 215.100886 
L 142.904344 214.424502 
L 143.042117 214.262042 
L 143.155577 214.076754 
L 143.269037 213.984262 
L 143.528375 213.79958 
L 143.63373 213.730427 
L 143.739086 213.638312 
L 144.144301 213.202126 
L 144.265865 212.996292 
L 144.460368 212.927792 
L 144.654872 212.699857 
L 145.230276 212.291111 
L 145.457197 212.200546 
L 145.643596 211.951989 
L 145.797577 211.861785 
L 147.175307 210.055509 
L 147.410332 209.945262 
L 147.580522 209.593431 
L 148.885313 208.006477 
L 148.901522 208.006477 
L 149.014982 207.748427 
L 149.120338 207.705496 
L 149.339154 207.405579 
L 149.412093 207.298723 
L 149.679534 207.00024 
L 149.857829 206.681598 
L 149.95508 206.639203 
L 150.068541 206.448687 
L 150.319774 206.300803 
L 150.449442 206.111045 
L 150.643945 206.026844 
L 150.806031 205.816707 
L 150.927596 205.732798 
L 151.073473 205.481568 
L 151.227455 205.356232 
L 151.462479 205.002115 
L 151.681295 204.960552 
L 151.827173 204.732315 
L 152.062197 204.628774 
L 152.297222 204.133529 
L 152.48362 203.948556 
L 152.645706 203.743502 
L 152.969878 203.212673 
L 153.277841 203.151637 
L 153.40751 203.050007 
L 153.553387 202.948499 
L 153.982915 202.604279 
L 154.072062 202.483123 
L 154.315191 202.382291 
L 154.452964 202.261451 
L 154.647467 202.180987 
L 154.95543 202.060434 
L 155.101308 201.960103 
L 155.230976 201.879924 
L 155.295811 201.81984 
L 155.384958 201.759798 
L 155.506522 201.699799 
L 155.733443 201.241209 
L 155.93605 201.141843 
L 156.065719 200.903839 
L 156.187283 200.785087 
L 156.357473 200.686254 
L 156.965295 200.115283 
L 157.119277 200.017227 
L 157.281363 199.88014 
L 157.419136 199.801903 
L 157.710891 199.528643 
L 157.864872 199.431263 
L 158.148523 199.198007 
L 158.286296 199.101006 
L 159.745069 197.525826 
L 159.971989 197.430719 
L 160.198909 197.146036 
L 160.563602 196.881191 
L 160.831044 196.786804 
L 161.211946 196.485469 
L 161.33351 196.410303 
L 161.568535 196.12902 
L 161.746829 195.867329 
L 161.884602 195.457726 
L 162.095314 195.364909 
L 162.460007 195.216614 
L 162.622093 195.105563 
L 163.12456 194.754857 
L 163.262333 194.607625 
L 163.319063 194.534104 
L 163.440627 194.405597 
L 163.545983 194.313925 
L 163.69186 194.130878 
L 163.772903 194.039502 
L 164.048449 193.547769 
L 164.356412 193.366367 
L 164.469873 193.293914 
L 164.664376 193.113054 
L 166.568885 191.822129 
L 166.633719 191.768765 
L 166.739075 191.662137 
L 167.063247 191.484721 
L 167.233437 191.289992 
L 167.533296 190.954692 
L 167.687278 190.849082 
L 167.800738 190.743604 
L 168.246474 190.392956 
L 168.546333 190.288044 
L 171.026247 188.387311 
L 171.139707 188.199561 
L 171.374732 188.046256 
L 171.585443 187.944206 
L 171.844781 187.757434 
L 172.023075 187.655731 
L 172.266204 187.469593 
L 172.517437 187.368235 
L 172.639002 187.266998 
L 173.222511 186.980814 
L 173.344075 186.947209 
L 173.473744 186.762618 
L 173.676351 186.578429 
L 173.878959 186.47813 
L 173.992419 186.41133 
L 174.211235 186.327904 
L 174.365217 186.24456 
L 174.543511 186.161298 
L 174.640763 186.011632 
L 174.84337 185.961802 
L 174.948726 185.878817 
L 175.167542 185.845646 
L 175.289106 185.729648 
L 175.394462 185.630348 
L 175.913137 185.217846 
L 176.042806 185.069835 
L 176.512855 184.971304 
L 177.671769 184.089645 
L 177.809542 183.959805 
L 178.036462 183.749239 
L 178.247174 183.684554 
L 178.425468 183.490796 
L 178.91983 183.136719 
L 179.122438 183.040409 
L 179.827511 182.608362 
L 180.01391 182.512649 
L 180.573106 182.257944 
L 180.767609 182.162626 
L 181.148511 182.067416 
L 181.310597 181.956472 
L 181.553726 181.861492 
L 181.788751 181.624508 
L 181.991358 181.5299 
L 182.177757 181.309557 
L 182.437094 181.199599 
L 182.971978 180.792431 
L 183.142168 180.698746 
L 183.271837 180.589578 
L 184.130892 180.154306 
L 184.341604 180.061323 
L 184.463168 179.983915 
L 184.665775 179.906578 
L 184.989947 179.829312 
L 185.087199 179.721257 
L 185.273597 179.644159 
L 185.800377 179.321111 
L 186.002984 179.259718 
L 186.10834 179.167711 
L 186.238009 179.060495 
L 186.424407 178.922846 
L 186.748579 178.831204 
L 186.983604 178.55687 
L 187.37261 178.344111 
L 188.183039 177.965508 
L 188.231665 177.889989 
L 188.337021 177.829623 
L 188.790861 177.573546 
L 188.896217 177.40826 
L 189.171763 177.348236 
L 189.333849 177.183388 
L 189.617499 177.078652 
L 189.812003 176.974045 
L 190.119966 176.869566 
L 191.416653 176.289819 
L 191.538217 176.230581 
L 191.789451 176.141802 
L 191.894806 176.023575 
L 191.992058 175.949766 
L 192.040684 175.890766 
L 192.761966 175.655173 
L 193.069929 175.552307 
L 193.394101 175.332299 
L 193.621021 175.273726 
L 194.099175 175.200567 
L 194.220739 175.11286 
L 194.415242 175.025243 
L 194.706997 174.762935 
L 194.893395 174.632085 
L 195.225672 174.559478 
L 195.914537 174.269668 
L 196.741175 173.879991 
L 196.878948 173.750495 
L 197.097764 173.664275 
L 197.25985 173.578142 
L 197.421935 173.492097 
L 197.746107 173.348881 
L 198.264782 173.248774 
L 198.507911 173.091702 
L 198.710518 173.020401 
L 198.953647 172.920681 
L 199.123837 172.821079 
L 199.277819 172.750005 
L 199.593886 172.664796 
L 199.950475 172.565493 
L 200.234126 172.423833 
L 200.371899 172.338951 
L 200.631236 172.240029 
L 200.785218 172.183554 
L 200.971617 172.113013 
L 201.16612 171.986187 
L 201.56323 171.901741 
L 201.701003 171.85955 
L 201.838776 171.789278 
L 202.049488 171.606843 
L 202.162948 171.508771 
L 202.325034 171.438789 
L 202.584371 171.368865 
L 202.730249 171.285032 
L 202.94096 171.187332 
L 203.103046 171.117614 
L 203.297549 171.020107 
L 203.419114 170.936618 
L 203.573095 170.839318 
L 203.710868 170.756006 
L 204.051249 170.645052 
L 204.440255 170.451231 
L 206.198887 169.858678 
L 206.320451 169.776325 
L 206.831022 169.666644 
L 206.985003 169.598166 
L 207.892684 169.174832 
L 208.030457 169.038722 
L 208.16823 168.929991 
L 208.476194 168.807836 
L 208.800365 168.699401 
L 209.440605 168.469436 
L 210.01601 168.374925 
L 210.121366 168.334453 
L 210.58331 168.226621 
L 210.656249 168.18622 
L 210.948004 168.078577 
L 211.183028 168.038246 
L 215.478304 166.75768 
L 215.648495 166.691511 
L 215.899728 166.598962 
L 216.248212 166.519713 
L 216.920869 166.414164 
L 217.026225 166.361439 
L 217.779924 166.098303 
L 219.198176 165.639772 
L 219.757372 165.535312 
L 219.911354 165.509217 
L 223.274636 164.626738 
L 223.793311 164.471956 
L 224.09317 164.381796 
L 224.279569 164.317456 
L 224.782035 164.214612 
L 227.626642 163.205672 
L 228.064274 163.104167 
L 228.22636 163.091487 
L 228.534323 163.002783 
L 231.249262 162.346731 
L 231.589643 162.246249 
L 233.737281 161.50885 
L 234.029035 161.459088 
L 234.166808 161.334811 
L 234.32079 161.297564 
L 234.863778 161.198317 
L 235.75525 160.975436 
L 235.941649 160.876565 
L 236.136152 160.851866 
L 236.476532 160.753139 
L 236.484637 160.703819 
L 237.060042 160.519123 
L 237.521986 160.408499 
L 238.194643 160.298018 
L 238.664692 160.077489 
L 239.507539 159.808729 
L 241.703803 159.067958 
L 242.003662 159.007526 
L 242.173852 158.922992 
L 242.749257 158.826485 
L 242.935655 158.706006 
L 243.316557 158.597721 
L 243.462435 158.573676 
L 243.721772 158.46556 
L 244.848269 158.130078 
L 245.034668 158.094212 
L 245.391257 158.022525 
L 245.593864 157.855492 
L 246.250312 157.748288 
L 246.461024 157.617444 
L 246.955386 157.510539 
L 247.230932 157.427485 
L 247.927901 157.20246 
L 248.081883 157.155162 
L 248.406054 157.048839 
L 248.851791 156.954442 
L 249.273214 156.883712 
L 249.410987 156.789498 
L 249.929662 156.695389 
L 250.059331 156.613128 
L 250.521275 156.530948 
L 250.877864 156.355115 
L 251.307392 156.261486 
L 252.109717 155.992878 
L 252.506828 155.829793 
L 252.668914 155.736743 
L 253.22811 155.643794 
L 253.422613 155.620573 
L 253.771098 155.527751 
L 254.135791 155.446616 
L 254.249251 155.342413 
L 254.986742 155.088232 
L 255.408165 154.984469 
L 255.537834 154.938392 
L 256.015987 154.834812 
L 256.161865 154.800313 
L 256.891251 154.696901 
L 257.13438 154.513368 
L 257.572012 154.421751 
L 257.807037 154.295938 
L 258.28519 154.193139 
L 258.439172 154.147491 
L 258.876803 154.044872 
L 263.415209 152.565088 
L 264.152699 152.486738 
L 264.614644 152.285598 
L 265.222466 152.185207 
L 265.360239 152.129486 
L 265.514221 152.029279 
L 267.434939 151.485779 
L 267.702381 151.375287 
L 267.977927 151.320095 
L 268.610062 151.220841 
L 268.699209 151.143723 
L 269.817602 150.81401 
L 269.995896 150.759182 
L 270.717178 150.551159 
L 271.179123 150.441879 
L 271.454669 150.343646 
L 271.754528 150.321832 
L 272.224577 150.212846 
L 272.654105 150.13664 
L 273.010694 150.03876 
L 273.180884 149.97357 
L 274.234442 149.724137 
L 274.898994 149.615916 
L 276.455019 149.356749 
L 276.576583 149.335188 
L 276.981798 149.238229 
L 277.208718 149.119874 
L 277.613933 149.055386 
L 282.395467 148.040814 
L 282.598075 148.019585 
L 283.675946 147.913517 
L 283.821823 147.828759 
L 284.016326 147.744085 
L 284.162203 147.680635 
L 285.280596 147.574991 
L 285.734437 147.406233 
L 286.131547 147.30093 
L 286.55297 147.23781 
L 287.525486 146.985802 
L 287.64705 146.88102 
L 288.562836 146.776366 
L 290.856351 146.307019 
L 291.026541 146.244635 
L 292.404271 145.912695 
L 292.582566 145.819571 
L 292.687922 145.736879 
L 294.041339 145.499589 
L 294.462762 145.396627 
L 294.981437 145.293789 
L 295.40286 145.211609 
L 296.253811 145.108995 
L 296.44021 145.047486 
L 297.064241 144.90414 
L 297.185805 144.883681 
L 297.315474 144.750822 
L 297.842253 144.648765 
L 298.020548 144.587589 
L 298.879603 144.485727 
L 299.373965 144.383988 
L 299.592781 144.373821 
L 300.046621 144.282371 
L 300.160082 144.251909 
L 300.370793 144.15045 
L 302.712934 143.755916 
L 302.939855 143.665129 
L 304.033934 143.5543 
L 304.358106 143.413454 
L 304.730904 143.343119 
L 304.83626 143.292915 
L 305.833088 143.182571 
L 305.970861 143.172547 
L 306.489536 143.072371 
L 306.919063 142.932323 
L 307.470156 142.882362 
L 307.551198 142.812466 
L 308.029352 142.722684 
L 308.215751 142.662882 
L 308.6858 142.563306 
L 308.928929 142.493672 
L 309.917653 142.384363 
L 311.076567 142.136456 
L 311.700597 142.027607 
L 312.154438 141.8794 
L 312.737947 141.77088 
L 313.135058 141.711746 
L 317.008911 140.927204 
L 317.170996 140.888167 
L 318.013843 140.810146 
L 318.135408 140.751678 
L 319.107923 140.644591 
L 319.229487 140.615409 
L 319.991291 140.527923 
L 320.218211 140.430822 
L 320.809825 140.324139 
L 322.844003 139.90839 
L 322.957463 139.898746 
L 323.662537 139.802363 
L 323.840831 139.773469 
L 324.772825 139.66761 
L 325.129414 139.629148 
L 325.826383 139.523469 
L 326.888046 139.322083 
L 327.779518 139.216786 
L 328.200942 139.140288 
L 329.530046 139.035216 
L 330.534979 138.882616 
L 330.883463 138.806419 
L 331.83977 138.644728 
L 332.018065 138.606727 
L 332.804181 138.502314 
L 334.117077 138.218204 
L 335.186844 138.123711 
L 335.324617 138.038758 
L 336.467323 137.935042 
L 336.605096 137.897358 
L 338.436666 137.624652 
L 339.052593 137.530819 
L 339.490225 137.427722 
L 340.041317 137.334106 
L 343.931378 136.793164 
L 344.101568 136.765278 
L 344.693182 136.663107 
L 345.074084 136.625984 
L 346.411292 136.523981 
L 347.035323 136.40359 
L 347.716084 136.301855 
L 347.845753 136.26489 
L 348.729121 136.154093 
L 353.518759 135.364255 
L 357.149483 134.454999 
L 357.732992 134.346541 
L 357.862661 134.310419 
L 358.859489 134.057996 
L 359.48352 133.950044 
L 359.613189 133.932066 
L 359.961673 133.84223 
L 360.067029 133.815297 
L 360.512765 133.707654 
L 360.642434 133.635968 
L 361.274569 133.528552 
L 361.404238 133.465955 
L 362.084999 133.358754 
L 366.274919 132.488318 
L 366.582882 132.364696 
L 367.158287 132.258878 
L 367.368999 132.188406 
L 367.741796 132.100398 
L 368.16322 131.986124 
L 375.684005 130.264423 
L 375.821778 130.221395 
L 376.389079 130.118217 
L 376.567374 130.058088 
L 377.46695 129.758081 
L 380.044116 128.966039 
L 380.497957 128.855911 
L 386.624804 127.146224 
L 386.746368 127.129632 
L 387.370399 126.963889 
L 387.654049 126.864599 
L 388.075472 126.757165 
L 388.480687 126.64162 
L 388.804859 126.534468 
L 389.023675 126.460366 
L 393.27843 125.13748 
L 393.586393 125.048398 
L 393.716062 125.007938 
L 394.096963 124.935157 
L 394.502178 124.83014 
L 394.688577 124.757512 
L 395.377442 124.580238 
L 397.07124 124.130661 
L 397.484559 124.026635 
L 398.408448 123.731258 
L 399.251295 123.421025 
L 399.729448 123.317866 
L 399.964473 123.214832 
L 400.288645 123.104012 
L 400.475043 123.064469 
L 400.742485 122.961742 
L 401.139596 122.83548 
L 401.666375 122.725155 
L 403.765387 122.105283 
L 404.057142 121.972483 
L 404.381314 121.871071 
L 404.981031 121.699725 
L 405.345725 121.598638 
L 405.467289 121.528726 
L 405.831982 121.427843 
L 406.302031 121.226435 
L 406.650516 121.118183 
L 406.812602 121.040945 
L 413.466228 118.816066 
L 413.774191 118.733382 
L 414.398222 118.643274 
L 414.795332 118.575756 
L 415.135713 118.478325 
L 415.28159 118.425908 
L 415.727326 118.328648 
L 415.873204 118.283797 
L 416.302731 118.209097 
L 416.472922 118.127004 
L 416.675529 118.022636 
L 417.477854 117.75485 
L 417.7534 117.658357 
L 418.053259 117.532339 
L 418.353118 117.4287 
L 418.498995 117.384322 
L 419.803787 116.897693 
L 419.925351 116.838897 
L 421.513793 116.238578 
L 422.226971 116.027283 
L 422.502517 115.925467 
L 422.851002 115.838293 
L 422.996879 115.751209 
L 423.337259 115.64248 
L 424.07475 115.410989 
L 424.512382 115.302694 
L 424.731198 115.252204 
L 425.209351 115.144113 
L 425.638879 115.043351 
L 425.987364 114.935525 
L 426.360161 114.842187 
L 426.846419 114.734617 
L 427.259738 114.662979 
L 427.52718 114.555635 
L 428.79145 114.262921 
L 429.374959 114.07782 
L 429.731548 113.971215 
L 430.574395 113.722989 
L 430.906671 113.616828 
L 432.138523 113.299142 
L 432.243879 113.256874 
L 433.111039 113.003706 
L 433.394689 112.898442 
L 436.296027 112.151326 
L 436.920057 112.019346 
L 437.082143 111.956901 
L 438.573334 111.645364 
L 439.035278 111.548675 
L 439.553953 111.348739 
L 440.007794 111.238632 
L 440.753389 111.005127 
L 440.972205 110.950278 
L 441.531401 110.840686 
L 441.798843 110.74491 
L 442.560647 110.635583 
L 445.891512 109.813334 
L 446.288622 109.711956 
L 446.782984 109.556744 
L 447.220616 109.448938 
L 448.249862 109.166598 
L 451.613144 108.351761 
L 452.139923 108.245476 
L 452.739641 108.119435 
L 453.258316 108.01344 
L 453.412298 107.973727 
L 456.880936 107.144006 
L 457.391506 107.052314 
L 457.602218 106.960721 
L 459.53104 106.478225 
L 459.717439 106.367768 
L 460.381991 106.257455 
L 461.257255 106.024324 
L 461.565218 105.914456 
L 461.856973 105.817633 
L 463.55077 105.482831 
L 463.996507 105.386499 
L 464.628642 105.206971 
L 468.413347 104.353027 
L 468.599746 104.334007 
L 469.87212 104.080814 
L 470.082832 104.049218 
L 474.321378 103.113019 
L 475.002139 102.956946 
L 475.836881 102.776262 
L 476.517642 102.633233 
L 476.906648 102.533877 
L 477.044421 102.478041 
L 477.757599 102.378867 
L 482.425673 101.283309 
L 483.074017 101.142776 
L 485.173029 100.625425 
L 485.748434 100.516273 
L 486.599385 100.316524 
L 488.83617 99.882335 
L 489.152238 99.810186 
L 489.865416 99.702078 
L 490.335465 99.642077 
L 491.915802 99.300881 
L 492.053575 99.265045 
L 492.799171 99.157629 
L 493.958085 98.943205 
L 494.176901 98.901574 
L 495.10079 98.717455 
L 495.246668 98.693726 
L 496.130036 98.486387 
L 496.924257 98.379953 
L 497.888668 98.208755 
L 501.097969 97.708953 
L 508.829466 96.423093 
L 509.639895 96.319217 
L 510.442221 96.146371 
L 511.041938 96.037085 
L 511.260754 96.002602 
L 515.863994 95.241823 
L 516.090914 95.207662 
L 516.812196 95.099579 
L 517.468644 94.985955 
L 518.311491 94.900836 
L 519.016565 94.793143 
L 519.510926 94.730856 
L 520.434816 94.629031 
L 520.677945 94.583815 
L 521.374914 94.476523 
L 525.297393 93.919662 
L 525.864694 93.835608 
L 526.577872 93.729258 
L 527.007399 93.695701 
L 528.287878 93.589527 
L 528.425651 93.567191 
L 529.138829 93.466754 
L 529.398166 93.411007 
L 530.2167 93.305188 
L 530.694853 93.25511 
L 531.383718 93.155041 
L 531.715995 93.116157 
L 534.333682 92.778067 
L 535.371032 92.684085 
L 536.19767 92.546065 
L 537.186394 92.446829 
L 537.316062 92.419285 
L 539.188154 92.204742 
L 539.99048 92.09493 
L 540.201191 92.078471 
L 540.971099 92.018146 
L 542.008449 91.908576 
L 542.194848 91.897627 
L 543.134946 91.793679 
L 543.361866 91.76088 
L 544.528885 91.651642 
L 545.857989 91.444475 
L 545.995762 91.417254 
L 546.93586 91.308457 
L 548.743118 91.123822 
L 549.383357 91.026237 
L 552.795266 90.663987 
L 553.913658 90.529215 
L 564.57891 89.405507 
L 567.812524 89.092461 
L 568.720205 88.986605 
L 569.271297 88.923155 
L 570.486941 88.817511 
L 570.624714 88.785843 
L 571.718794 88.675099 
L 573.347757 88.522404 
L 573.874536 88.417258 
L 574.036622 88.380487 
L 574.944303 88.270272 
L 575.211745 88.217838 
L 576.176156 88.107833 
L 576.605684 88.071197 
L 577.489052 87.961382 
L 584.053531 87.222535 
L 584.993629 87.113814 
L 586.120126 86.979399 
L 587.10885 86.870989 
L 587.327666 86.855513 
L 588.802648 86.731807 
L 589.402365 86.623713 
L 590.374881 86.526032 
L 591.160997 86.423331 
L 591.614838 86.351515 
L 592.441476 86.243904 
L 592.603562 86.228542 
L 596.509832 85.723157 
L 597.085237 85.621424 
L 599.63809 85.276442 
L 600.294538 85.1803 
L 600.399894 85.160074 
L 601.194114 85.053964 
L 601.964023 84.912691 
L 602.985164 84.801855 
L 606.307925 84.390012 
L 607.612716 84.214833 
L 607.766698 84.189837 
L 608.593336 84.079942 
L 608.795943 84.059976 
L 612.061974 83.701396 
L 612.321311 83.671583 
L 612.872403 83.607024 
L 614.007005 83.497881 
L 614.436532 83.433453 
L 615.587342 83.324534 
L 626.722643 81.853066 
L 626.917146 81.83848 
L 627.824827 81.736445 
L 627.986913 81.697607 
L 629.137723 81.590893 
L 629.891423 81.474632 
L 630.507349 81.373034 
L 630.936877 81.319864 
L 631.795932 81.213625 
L 631.974226 81.17985 
L 634.567601 80.852444 
L 635.839975 80.660441 
L 636.545049 80.550236 
L 637.063724 80.511938 
L 637.857944 80.401926 
L 638.109178 80.363694 
L 639.203257 80.253874 
L 639.681411 80.196633 
L 644.357589 79.616867 
L 647.185988 79.300149 
L 647.947792 79.191697 
L 648.83116 79.083384 
L 650.516853 78.862478 
L 653.272313 78.576626 
L 654.601418 78.431726 
L 655.54962 78.324378 
L 660.26632 77.757234 
L 661.425234 77.650738 
L 661.579216 77.63223 
L 662.705713 77.52127 
L 665.542216 77.226083 
L 666.6444 77.120251 
L 666.774069 77.092665 
L 668.13559 76.945687 
L 669.359339 76.835621 
L 669.578155 76.826456 
L 670.745173 76.721121 
L 670.89105 76.702816 
L 671.434038 76.634204 
L 672.511909 76.524542 
L 675.008032 76.278319 
L 677.15567 76.073677 
L 677.301548 76.041889 
L 678.590131 75.932989 
L 683.444603 75.498785 
L 684.45764 75.390581 
L 686.394566 75.228533 
L 687.464333 75.120672 
L 688.461162 75.03538 
L 690.098229 74.932247 
L 690.868137 74.874009 
L 692.124303 74.766599 
L 692.253972 74.757654 
L 698.59153 74.28493 
L 700.714856 74.173821 
L 701.29026 74.129418 
L 702.643678 74.018513 
L 703.851218 73.907753 
L 705.958334 73.797138 
L 706.274402 73.739675 
L 707.562985 73.633691 
L 707.822322 73.593981 
L 709.216261 73.483774 
L 709.791666 73.439731 
L 711.355795 73.329725 
L 711.550298 73.298948 
L 712.806463 73.193514 
L 713.235991 73.15401 
L 714.492157 73.03999 
L 715.464672 72.930501 
L 717.895961 72.711944 
L 721.680666 72.41996 
L 721.98863 72.376466 
L 723.617593 72.26783 
L 724.703568 72.185359 
L 725.797648 72.076967 
L 726.06509 72.03798 
L 727.766992 71.851954 
L 733.577771 71.31349 
L 733.699336 71.292022 
L 754.835337 69.31893 
L 754.97311 69.297961 
L 755.969938 69.189009 
L 760.702846 68.671308 
L 761.375503 68.613056 
L 771.230325 67.460447 
L 772.348718 67.35383 
L 772.502699 67.325148 
L 773.361755 67.214609 
L 774.10735 67.140996 
L 776.546743 66.900157 
L 776.725037 66.887929 
L 779.521019 66.603114 
L 780.339553 66.501626 
L 782.195436 66.339497 
L 782.462878 66.319252 
L 790.502338 65.537482 
L 791.726087 65.433254 
L 792.106989 65.397205 
L 792.106989 65.397205 
" clip-path="url(#pdbc63721a3)" style="fill: none; stroke: #ff7f0e; stroke-opacity: 0.7; stroke-width: 1.5; stroke-linecap: square"/>
   </g>
   <g id="line2d_47">
    <path d="M 96.001872 433 
L 96.166875 431.926223 
L 96.28844 431.489074 
L 96.555881 429.483226 
L 96.693655 428.723091 
L 97.050243 427.037306 
L 97.317685 425.342432 
L 97.358207 425.244602 
L 97.55271 424.258662 
L 97.714796 423.420649 
L 98.160532 422.293546 
L 98.265888 422.185697 
L 98.541434 421.930105 
L 98.792667 421.822717 
L 98.979066 421.728864 
L 99.149256 421.621731 
L 99.351863 421.501368 
L 99.513949 421.40787 
L 99.708452 421.1413 
L 100.040728 420.809262 
L 100.332483 420.743011 
L 100.454047 420.623888 
L 100.851158 419.794682 
L 101.061869 418.779159 
L 101.110495 418.688615 
L 101.645379 415.691222 
L 103.152778 397.038001 
L 103.501262 391.974928 
L 103.557992 391.204892 
L 103.720078 388.690506 
L 103.93079 385.712403 
L 104.392735 378.921187 
L 105.073495 369.820209 
L 106.921275 346.475121 
L 109.320146 324.625942 
L 109.417397 324.039802 
L 110.600625 316.202052 
L 111.030152 313.651469 
L 111.273281 312.152011 
L 111.305698 312.008655 
L 111.881103 309.070603 
L 112.124232 307.830968 
L 114.27187 297.734414 
L 114.506895 296.538727 
L 114.839171 295.076474 
L 115.009361 294.309978 
L 115.19576 293.641975 
L 115.284907 293.367397 
L 115.463201 292.639509 
L 115.53614 292.467259 
L 116.014293 290.580987 
L 116.192588 289.975602 
L 116.306048 289.565945 
L 116.524864 288.780443 
L 116.638324 288.443233 
L 117.66757 284.910505 
L 117.983637 283.665825 
L 118.032263 283.550232 
L 118.267287 282.836531 
L 118.623876 281.62172 
L 121.363128 273.312174 
L 121.500901 272.940725 
L 121.784551 272.145285 
L 122.376165 270.531409 
L 123.024509 268.888039 
L 123.186594 268.524445 
L 123.445932 267.75395 
L 123.672852 267.180641 
L 124.110484 266.026307 
L 124.175318 265.932418 
L 124.345509 265.422118 
L 124.55622 264.887482 
L 124.783141 264.439973 
L 125.050582 263.82406 
L 129.402589 254.022262 
L 129.49984 253.901895 
L 129.588987 253.739208 
L 129.767282 253.427648 
L 130.828945 251.28539 
L 131.063969 250.800538 
L 136.129153 242.098418 
L 136.364178 241.741759 
L 136.655933 241.276507 
L 136.882853 240.907405 
L 137.125982 240.522519 
L 137.344798 240.175563 
L 137.879681 239.384472 
L 138.665798 238.229194 
L 138.779258 238.073985 
L 138.981865 237.750652 
L 139.735565 236.588612 
L 139.913859 236.303957 
L 140.003006 236.195768 
L 140.246135 235.842113 
L 140.610828 235.357491 
L 140.918792 234.903719 
L 141.007939 234.714624 
L 141.251068 234.358265 
L 141.477988 234.086849 
L 142.499129 232.618754 
L 143.17989 231.632614 
L 143.317663 231.471971 
L 143.779608 230.81974 
L 144.249657 230.178084 
L 144.452264 229.92668 
L 144.849375 229.401146 
L 145.319424 228.74809 
L 145.546344 228.491287 
L 145.87862 228.063183 
L 146.405399 227.425731 
L 146.656632 227.081144 
L 146.85924 226.856229 
L 147.207724 226.366718 
L 147.418436 226.086356 
L 147.742608 225.743177 
L 148.698915 224.518848 
L 148.836688 224.347617 
L 153.837038 218.869236 
L 154.015332 218.700482 
L 157.289467 215.404678 
L 157.451553 215.254405 
L 158.448381 214.33395 
L 158.764449 214.025871 
L 160.474455 212.420334 
L 160.741897 212.160954 
L 161.560431 211.457051 
L 161.998063 211.086618 
L 170.191505 204.447881 
L 170.426529 204.290044 
L 170.969517 203.894169 
L 171.358523 203.578794 
L 171.844781 203.246261 
L 172.387769 202.792415 
L 172.606585 202.656834 
L 173.417014 202.022294 
L 174.357112 201.352637 
L 175.710529 200.402256 
L 175.88072 200.27634 
L 176.27783 199.960407 
L 177.469161 199.117489 
L 177.736603 198.910238 
L 178.028358 198.72762 
L 179.025186 198.040301 
L 179.235898 197.896812 
L 179.535757 197.683941 
L 180.248935 197.23134 
L 180.548794 197.025807 
L 180.921591 196.795295 
L 183.393401 195.201799 
L 183.612217 195.045471 
L 183.831033 194.943874 
L 184.122788 194.769595 
L 184.357812 194.585562 
L 185.046677 194.179347 
L 185.265493 194.071472 
L 186.092131 193.578646 
L 186.310947 193.463368 
L 186.740475 193.207053 
L 186.926874 193.090474 
L 187.251045 192.949708 
L 188.58015 192.194835 
L 189.317641 191.750095 
L 189.617499 191.560964 
L 190.192904 191.256402 
L 190.679162 190.977591 
L 191.10869 190.721646 
L 192.518837 189.93579 
L 193.426518 189.425706 
L 199.31834 186.407157 
L 199.723555 186.168788 
L 200.169291 185.944368 
L 200.477255 185.8042 
L 204.991347 183.618304 
L 205.266893 183.482733 
L 205.534335 183.349793 
L 205.955758 183.155191 
L 206.425807 182.964241 
L 209.813402 181.412574 
L 210.210513 181.22315 
L 212.528341 180.217903 
L 212.901139 180.070617 
L 213.768298 179.708145 
L 214.100574 179.565591 
L 215.30001 179.050547 
L 215.810581 178.84189 
L 216.159065 178.698498 
L 221.151311 176.702669 
L 221.370127 176.63496 
L 221.929323 176.420288 
L 222.739753 176.101882 
L 224.32009 175.502388 
L 224.700992 175.375522 
L 236.45222 171.243147 
L 237.400422 170.968612 
L 238.364833 170.672777 
L 239.556164 170.307535 
L 239.912753 170.169596 
L 240.52868 170.006428 
L 243.559686 169.089738 
L 243.916275 168.982301 
L 244.564619 168.775969 
L 245.212962 168.585017 
L 245.618177 168.47484 
L 245.999079 168.366155 
L 246.979699 168.07656 
L 247.628042 167.911328 
L 248.592453 167.644013 
L 248.786956 167.576481 
L 251.258766 166.877578 
L 253.519865 166.209378 
L 254.168208 166.011647 
L 254.66257 165.880519 
L 255.092098 165.762023 
L 255.52973 165.651532 
L 260.465245 164.345116 
L 260.70027 164.284018 
L 261.364822 164.122159 
L 262.24819 163.891466 
L 262.831699 163.734826 
L 265.287301 163.139045 
L 266.203086 162.898991 
L 267.086454 162.650155 
L 267.864466 162.46495 
L 268.577644 162.300871 
L 268.812669 162.231187 
L 271.778841 161.539966 
L 272.216473 161.429867 
L 272.767565 161.297564 
L 274.307381 160.937728 
L 274.728804 160.833963 
L 274.923307 160.768558 
L 291.982848 156.986289 
L 292.922946 156.807155 
L 293.717167 156.635448 
L 294.592431 156.462916 
L 294.916603 156.382052 
L 301.853879 154.991382 
L 302.437388 154.881407 
L 303.920474 154.575266 
L 308.256272 153.768419 
L 308.79926 153.660018 
L 330.34858 150.002356 
L 336.280924 149.095685 
L 336.929267 148.996315 
L 338.023347 148.812922 
L 339.08501 148.64703 
L 340.211507 148.461722 
L 340.738286 148.369487 
L 341.718906 148.195419 
L 342.367249 148.097629 
L 343.031801 147.98722 
L 344.14209 147.810229 
L 344.944415 147.700722 
L 346.070912 147.518525 
L 347.229826 147.332507 
L 348.340115 147.157927 
L 349.580072 146.966408 
L 350.552587 146.8292 
L 351.946526 146.629025 
L 352.586765 146.539282 
L 364.978232 144.833068 
L 365.942643 144.70233 
L 367.01241 144.557527 
L 369.087109 144.251909 
L 369.581471 144.182904 
L 371.283373 143.976224 
L 372.06949 143.865998 
L 373.657932 143.680758 
L 374.37111 143.570916 
L 375.327416 143.447136 
L 376.113533 143.336089 
L 377.191404 143.183073 
L 396.406687 140.917931 
L 397.41162 140.807222 
L 399.988786 140.542012 
L 400.839737 140.451204 
L 402.168841 140.300396 
L 404.632547 140.042561 
L 405.483498 139.953733 
L 407.687866 139.712343 
L 408.149811 139.664724 
L 414.276658 139.048104 
L 415.378842 138.938855 
L 416.221688 138.854034 
L 422.745646 138.169054 
L 423.102235 138.137406 
L 424.236836 138.027437 
L 424.625842 137.986413 
L 427.316468 137.72 
L 427.92429 137.658927 
L 429.034579 137.551453 
L 429.269603 137.522379 
L 430.379892 137.413205 
L 431.611744 137.277051 
L 433.410898 137.114982 
L 434.375309 137.005864 
L 437.292855 136.727181 
L 442.714628 136.216398 
L 444.173401 136.063716 
L 445.656487 135.923269 
L 446.766776 135.814296 
L 449.279107 135.569731 
L 452.293905 135.288415 
L 453.201586 135.197131 
L 457.910181 134.778032 
L 459.101513 134.667346 
L 459.579666 134.622025 
L 460.973605 134.511091 
L 465.649783 134.100315 
L 466.760071 133.99051 
L 508.043349 130.665631 
L 514.923896 130.188279 
L 516.569067 130.082135 
L 522.809375 129.641365 
L 523.627908 129.582 
L 525.038056 129.471496 
L 530.249117 129.086073 
L 531.448553 129.008859 
L 533.109933 128.897828 
L 534.309369 128.822054 
L 544.439738 128.18259 
L 545.78505 128.085638 
L 553.265315 127.588353 
L 553.856928 127.54958 
L 555.485891 127.438778 
L 563.468622 126.918366 
L 564.246634 126.872868 
L 577.756494 126.072796 
L 580.682144 125.888666 
L 582.627175 125.778379 
L 589.41047 125.37725 
L 592.757544 125.182461 
L 593.989396 125.108721 
L 603.195875 124.538391 
L 603.819906 124.494554 
L 607.418213 124.294962 
L 608.560919 124.23722 
L 611.113771 124.095838 
L 614.679661 123.898379 
L 615.190232 123.862454 
L 617.240618 123.751582 
L 619.493612 123.640855 
L 621.543999 123.530272 
L 623.77268 123.422613 
L 626.090508 123.312315 
L 628.667674 123.171674 
L 704.953402 119.543384 
L 704.953402 119.543384 
" clip-path="url(#pdbc63721a3)" style="fill: none; stroke: #2ca02c; stroke-opacity: 0.7; stroke-width: 1.5; stroke-linecap: square"/>
   </g>
   <g id="line2d_48">
    <path d="M 0 0 
" clip-path="url(#pdbc63721a3)" style="fill: none; stroke: #d62728; stroke-opacity: 0.7; stroke-width: 1.5; stroke-linecap: square"/>
   </g>
   <g id="patch_3">
    <path d="M 54.2 390.04 
L 54.2 10.8 
" style="fill: none; stroke: #000000; stroke-width: 0.8; stroke-linejoin: miter; stroke-linecap: square"/>
   </g>
   <g id="patch_4">
    <path d="M 853.2 390.04 
L 853.2 10.8 
" style="fill: none; stroke: #000000; stroke-width: 0.8; stroke-linejoin: miter; stroke-linecap: square"/>
   </g>
   <g id="patch_5">
    <path d="M 54.2 390.04 
L 853.2 390.04 
" style="fill: none; stroke: #000000; stroke-width: 0.8; stroke-linejoin: miter; stroke-linecap: square"/>
   </g>
   <g id="patch_6">
    <path d="M 54.2 10.8 
L 853.2 10.8 
" style="fill: none; stroke: #000000; stroke-width: 0.8; stroke-linejoin: miter; stroke-linecap: square"/>
   </g>
   <g id="legend_1">
    <g id="patch_7">
     <path d="M 61.2 77.5125 
L 166.25625 77.5125 
Q 168.25625 77.5125 168.25625 75.5125 
L 168.25625 17.8 
Q 168.25625 15.8 166.25625 15.8 
L 61.2 15.8 
Q 59.2 15.8 59.2 17.8 
L 59.2 75.5125 
Q 59.2 77.5125 61.2 77.5125 
z
" style="fill: #ffffff; opacity: 0.8; stroke: #cccccc; stroke-linejoin: miter"/>
    </g>
    <g id="line2d_49">
     <path d="M 63.2 23.898438 
L 73.2 23.898438 
L 83.2 23.898438 
" style="fill: none; stroke: #1f77b4; stroke-opacity: 0.7; stroke-width: 1.5; stroke-linecap: square"/>
    </g>
    <g id="text_10">
     <!-- 10oc-state-diff -->
     <g transform="translate(91.2 27.398438) scale(0.1 -0.1)">
      <use xlink:href="#DejaVuSans-31"/>
      <use xlink:href="#DejaVuSans-30" transform="translate(63.623047 0)"/>
      <use xlink:href="#DejaVuSans-6f" transform="translate(127.246094 0)"/>
      <use xlink:href="#DejaVuSans-63" transform="translate(188.427734 0)"/>
      <use xlink:href="#DejaVuSans-2d" transform="translate(243.408203 0)"/>
      <use xlink:href="#DejaVuSans-73" transform="translate(279.492188 0)"/>
      <use xlink:href="#DejaVuSans-74" transform="translate(331.591797 0)"/>
      <use xlink:href="#DejaVuSans-61" transform="translate(370.800781 0)"/>
      <use xlink:href="#DejaVuSans-74" transform="translate(432.080078 0)"/>
      <use xlink:href="#DejaVuSans-65" transform="translate(471.289062 0)"/>
      <use xlink:href="#DejaVuSans-2d" transform="translate(532.8125 0)"/>
      <use xlink:href="#DejaVuSans-64" transform="translate(568.896484 0)"/>
      <use xlink:href="#DejaVuSans-69" transform="translate(632.373047 0)"/>
      <use xlink:href="#DejaVuSans-66" transform="translate(660.15625 0)"/>
      <use xlink:href="#DejaVuSans-66" transform="translate(695.361328 0)"/>
     </g>
    </g>
    <g id="line2d_50">
     <path d="M 63.2 38.576563 
L 73.2 38.576563 
L 83.2 38.576563 
" style="fill: none; stroke: #ff7f0e; stroke-opacity: 0.7; stroke-width: 1.5; stroke-linecap: square"/>
    </g>
    <g id="text_11">
     <!-- 1oc-state-diff -->
     <g transform="translate(91.2 42.076563) scale(0.1 -0.1)">
      <use xlink:href="#DejaVuSans-31"/>
      <use xlink:href="#DejaVuSans-6f" transform="translate(63.623047 0)"/>
      <use xlink:href="#DejaVuSans-63" transform="translate(124.804688 0)"/>
      <use xlink:href="#DejaVuSans-2d" transform="translate(179.785156 0)"/>
      <use xlink:href="#DejaVuSans-73" transform="translate(215.869141 0)"/>
      <use xlink:href="#DejaVuSans-74" transform="translate(267.96875 0)"/>
      <use xlink:href="#DejaVuSans-61" transform="translate(307.177734 0)"/>
      <use xlink:href="#DejaVuSans-74" transform="translate(368.457031 0)"/>
      <use xlink:href="#DejaVuSans-65" transform="translate(407.666016 0)"/>
      <use xlink:href="#DejaVuSans-2d" transform="translate(469.189453 0)"/>
      <use xlink:href="#DejaVuSans-64" transform="translate(505.273438 0)"/>
      <use xlink:href="#DejaVuSans-69" transform="translate(568.75 0)"/>
      <use xlink:href="#DejaVuSans-66" transform="translate(596.533203 0)"/>
      <use xlink:href="#DejaVuSans-66" transform="translate(631.738281 0)"/>
     </g>
    </g>
    <g id="line2d_51">
     <path d="M 63.2 53.254688 
L 73.2 53.254688 
L 83.2 53.254688 
" style="fill: none; stroke: #2ca02c; stroke-opacity: 0.7; stroke-width: 1.5; stroke-linecap: square"/>
    </g>
    <g id="text_12">
     <!-- 20oc-state-diff -->
     <g transform="translate(91.2 56.754688) scale(0.1 -0.1)">
      <use xlink:href="#DejaVuSans-32"/>
      <use xlink:href="#DejaVuSans-30" transform="translate(63.623047 0)"/>
      <use xlink:href="#DejaVuSans-6f" transform="translate(127.246094 0)"/>
      <use xlink:href="#DejaVuSans-63" transform="translate(188.427734 0)"/>
      <use xlink:href="#DejaVuSans-2d" transform="translate(243.408203 0)"/>
      <use xlink:href="#DejaVuSans-73" transform="translate(279.492188 0)"/>
      <use xlink:href="#DejaVuSans-74" transform="translate(331.591797 0)"/>
      <use xlink:href="#DejaVuSans-61" transform="translate(370.800781 0)"/>
      <use xlink:href="#DejaVuSans-74" transform="translate(432.080078 0)"/>
      <use xlink:href="#DejaVuSans-65" transform="translate(471.289062 0)"/>
      <use xlink:href="#DejaVuSans-2d" transform="translate(532.8125 0)"/>
      <use xlink:href="#DejaVuSans-64" transform="translate(568.896484 0)"/>
      <use xlink:href="#DejaVuSans-69" transform="translate(632.373047 0)"/>
      <use xlink:href="#DejaVuSans-66" transform="translate(660.15625 0)"/>
      <use xlink:href="#DejaVuSans-66" transform="translate(695.361328 0)"/>
     </g>
    </g>
    <g id="line2d_52">
     <path d="M 63.2 67.932813 
L 73.2 67.932813 
L 83.2 67.932813 
" style="fill: none; stroke: #d62728; stroke-opacity: 0.7; stroke-width: 1.5; stroke-linecap: square"/>
    </g>
    <g id="text_13">
     <!-- 50oc-state-diff -->
     <g transform="translate(91.2 71.432813) scale(0.1 -0.1)">
      <defs>
       <path id="DejaVuSans-35" d="M 691 4666 
L 3169 4666 
L 3169 4134 
L 1269 4134 
L 1269 2991 
Q 1406 3038 1543 3061 
Q 1681 3084 1819 3084 
Q 2600 3084 3056 2656 
Q 3513 2228 3513 1497 
Q 3513 744 3044 326 
Q 2575 -91 1722 -91 
Q 1428 -91 1123 -41 
Q 819 9 494 109 
L 494 744 
Q 775 591 1075 516 
Q 1375 441 1709 441 
Q 2250 441 2565 725 
Q 2881 1009 2881 1497 
Q 2881 1984 2565 2268 
Q 2250 2553 1709 2553 
Q 1456 2553 1204 2497 
Q 953 2441 691 2322 
L 691 4666 
z
" transform="scale(0.015625)"/>
      </defs>
      <use xlink:href="#DejaVuSans-35"/>
      <use xlink:href="#DejaVuSans-30" transform="translate(63.623047 0)"/>
      <use xlink:href="#DejaVuSans-6f" transform="translate(127.246094 0)"/>
      <use xlink:href="#DejaVuSans-63" transform="translate(188.427734 0)"/>
      <use xlink:href="#DejaVuSans-2d" transform="translate(243.408203 0)"/>
      <use xlink:href="#DejaVuSans-73" transform="translate(279.492188 0)"/>
      <use xlink:href="#DejaVuSans-74" transform="translate(331.591797 0)"/>
      <use xlink:href="#DejaVuSans-61" transform="translate(370.800781 0)"/>
      <use xlink:href="#DejaVuSans-74" transform="translate(432.080078 0)"/>
      <use xlink:href="#DejaVuSans-65" transform="translate(471.289062 0)"/>
      <use xlink:href="#DejaVuSans-2d" transform="translate(532.8125 0)"/>
      <use xlink:href="#DejaVuSans-64" transform="translate(568.896484 0)"/>
      <use xlink:href="#DejaVuSans-69" transform="translate(632.373047 0)"/>
      <use xlink:href="#DejaVuSans-66" transform="translate(660.15625 0)"/>
      <use xlink:href="#DejaVuSans-66" transform="translate(695.361328 0)"/>
     </g>
    </g>
   </g>
  </g>
 </g>
 <defs>
  <clipPath id="pdbc63721a3">
   <rect x="54.2" y="10.8" width="799" height="379.24"/>
  </clipPath>
 </defs>
</svg>
