<?xml version="1.0" encoding="utf-8" standalone="no"?>
<!DOCTYPE svg PUBLIC "-//W3C//DTD SVG 1.1//EN"
  "http://www.w3.org/Graphics/SVG/1.1/DTD/svg11.dtd">
<svg xmlns:xlink="http://www.w3.org/1999/xlink" width="864pt" height="432pt" viewBox="0 0 864 432" xmlns="http://www.w3.org/2000/svg" version="1.1">
 <metadata>
  <rdf:RDF xmlns:dc="http://purl.org/dc/elements/1.1/" xmlns:cc="http://creativecommons.org/ns#" xmlns:rdf="http://www.w3.org/1999/02/22-rdf-syntax-ns#">
   <cc:Work>
    <dc:type rdf:resource="http://purl.org/dc/dcmitype/StillImage"/>
    <dc:date>2025-02-27T15:09:13.866461</dc:date>
    <dc:format>image/svg+xml</dc:format>
    <dc:creator>
     <cc:Agent>
      <dc:title>Matplotlib v3.10.0, https://matplotlib.org/</dc:title>
     </cc:Agent>
    </dc:creator>
   </cc:Work>
  </rdf:RDF>
 </metadata>
 <defs>
  <style type="text/css">*{stroke-linejoin: round; stroke-linecap: butt}</style>
 </defs>
 <g id="figure_1">
  <g id="patch_1">
   <path d="M 0 432 
L 864 432 
L 864 0 
L 0 0 
z
" style="fill: #ffffff"/>
  </g>
  <g id="axes_1">
   <g id="patch_2">
    <path d="M 70.175 390.04 
L 853.2 390.04 
L 853.2 10.8 
L 70.175 10.8 
z
" style="fill: #ffffff"/>
   </g>
   <g id="matplotlib.axis_1">
    <g id="xtick_1">
     <g id="line2d_1">
      <path d="M 105.528778 390.04 
L 105.528778 10.8 
" clip-path="url(#pb9ebef489e)" style="fill: none; stroke: #b0b0b0; stroke-width: 0.8; stroke-linecap: square"/>
     </g>
     <g id="line2d_2">
      <defs>
       <path id="m55f5e150e7" d="M 0 0 
L 0 3.5 
" style="stroke: #000000; stroke-width: 0.8"/>
      </defs>
      <g>
       <use xlink:href="#m55f5e150e7" x="105.528778" y="390.04" style="stroke: #000000; stroke-width: 0.8"/>
      </g>
     </g>
     <g id="text_1">
      <!-- 0 -->
      <g transform="translate(102.347528 404.638438) scale(0.1 -0.1)">
       <defs>
        <path id="DejaVuSans-30" d="M 2034 4250 
Q 1547 4250 1301 3770 
Q 1056 3291 1056 2328 
Q 1056 1369 1301 889 
Q 1547 409 2034 409 
Q 2525 409 2770 889 
Q 3016 1369 3016 2328 
Q 3016 3291 2770 3770 
Q 2525 4250 2034 4250 
z
M 2034 4750 
Q 2819 4750 3233 4129 
Q 3647 3509 3647 2328 
Q 3647 1150 3233 529 
Q 2819 -91 2034 -91 
Q 1250 -91 836 529 
Q 422 1150 422 2328 
Q 422 3509 836 4129 
Q 1250 4750 2034 4750 
z
" transform="scale(0.015625)"/>
       </defs>
       <use xlink:href="#DejaVuSans-30"/>
      </g>
     </g>
    </g>
    <g id="xtick_2">
     <g id="line2d_3">
      <path d="M 264.373971 390.04 
L 264.373971 10.8 
" clip-path="url(#pb9ebef489e)" style="fill: none; stroke: #b0b0b0; stroke-width: 0.8; stroke-linecap: square"/>
     </g>
     <g id="line2d_4">
      <g>
       <use xlink:href="#m55f5e150e7" x="264.373971" y="390.04" style="stroke: #000000; stroke-width: 0.8"/>
      </g>
     </g>
     <g id="text_2">
      <!-- 20000 -->
      <g transform="translate(248.467721 404.638438) scale(0.1 -0.1)">
       <defs>
        <path id="DejaVuSans-32" d="M 1228 531 
L 3431 531 
L 3431 0 
L 469 0 
L 469 531 
Q 828 903 1448 1529 
Q 2069 2156 2228 2338 
Q 2531 2678 2651 2914 
Q 2772 3150 2772 3378 
Q 2772 3750 2511 3984 
Q 2250 4219 1831 4219 
Q 1534 4219 1204 4116 
Q 875 4013 500 3803 
L 500 4441 
Q 881 4594 1212 4672 
Q 1544 4750 1819 4750 
Q 2544 4750 2975 4387 
Q 3406 4025 3406 3419 
Q 3406 3131 3298 2873 
Q 3191 2616 2906 2266 
Q 2828 2175 2409 1742 
Q 1991 1309 1228 531 
z
" transform="scale(0.015625)"/>
       </defs>
       <use xlink:href="#DejaVuSans-32"/>
       <use xlink:href="#DejaVuSans-30" transform="translate(63.623047 0)"/>
       <use xlink:href="#DejaVuSans-30" transform="translate(127.246094 0)"/>
       <use xlink:href="#DejaVuSans-30" transform="translate(190.869141 0)"/>
       <use xlink:href="#DejaVuSans-30" transform="translate(254.492188 0)"/>
      </g>
     </g>
    </g>
    <g id="xtick_3">
     <g id="line2d_5">
      <path d="M 423.219165 390.04 
L 423.219165 10.8 
" clip-path="url(#pb9ebef489e)" style="fill: none; stroke: #b0b0b0; stroke-width: 0.8; stroke-linecap: square"/>
     </g>
     <g id="line2d_6">
      <g>
       <use xlink:href="#m55f5e150e7" x="423.219165" y="390.04" style="stroke: #000000; stroke-width: 0.8"/>
      </g>
     </g>
     <g id="text_3">
      <!-- 40000 -->
      <g transform="translate(407.312915 404.638438) scale(0.1 -0.1)">
       <defs>
        <path id="DejaVuSans-34" d="M 2419 4116 
L 825 1625 
L 2419 1625 
L 2419 4116 
z
M 2253 4666 
L 3047 4666 
L 3047 1625 
L 3713 1625 
L 3713 1100 
L 3047 1100 
L 3047 0 
L 2419 0 
L 2419 1100 
L 313 1100 
L 313 1709 
L 2253 4666 
z
" transform="scale(0.015625)"/>
       </defs>
       <use xlink:href="#DejaVuSans-34"/>
       <use xlink:href="#DejaVuSans-30" transform="translate(63.623047 0)"/>
       <use xlink:href="#DejaVuSans-30" transform="translate(127.246094 0)"/>
       <use xlink:href="#DejaVuSans-30" transform="translate(190.869141 0)"/>
       <use xlink:href="#DejaVuSans-30" transform="translate(254.492188 0)"/>
      </g>
     </g>
    </g>
    <g id="xtick_4">
     <g id="line2d_7">
      <path d="M 582.064359 390.04 
L 582.064359 10.8 
" clip-path="url(#pb9ebef489e)" style="fill: none; stroke: #b0b0b0; stroke-width: 0.8; stroke-linecap: square"/>
     </g>
     <g id="line2d_8">
      <g>
       <use xlink:href="#m55f5e150e7" x="582.064359" y="390.04" style="stroke: #000000; stroke-width: 0.8"/>
      </g>
     </g>
     <g id="text_4">
      <!-- 60000 -->
      <g transform="translate(566.158109 404.638438) scale(0.1 -0.1)">
       <defs>
        <path id="DejaVuSans-36" d="M 2113 2584 
Q 1688 2584 1439 2293 
Q 1191 2003 1191 1497 
Q 1191 994 1439 701 
Q 1688 409 2113 409 
Q 2538 409 2786 701 
Q 3034 994 3034 1497 
Q 3034 2003 2786 2293 
Q 2538 2584 2113 2584 
z
M 3366 4563 
L 3366 3988 
Q 3128 4100 2886 4159 
Q 2644 4219 2406 4219 
Q 1781 4219 1451 3797 
Q 1122 3375 1075 2522 
Q 1259 2794 1537 2939 
Q 1816 3084 2150 3084 
Q 2853 3084 3261 2657 
Q 3669 2231 3669 1497 
Q 3669 778 3244 343 
Q 2819 -91 2113 -91 
Q 1303 -91 875 529 
Q 447 1150 447 2328 
Q 447 3434 972 4092 
Q 1497 4750 2381 4750 
Q 2619 4750 2861 4703 
Q 3103 4656 3366 4563 
z
" transform="scale(0.015625)"/>
       </defs>
       <use xlink:href="#DejaVuSans-36"/>
       <use xlink:href="#DejaVuSans-30" transform="translate(63.623047 0)"/>
       <use xlink:href="#DejaVuSans-30" transform="translate(127.246094 0)"/>
       <use xlink:href="#DejaVuSans-30" transform="translate(190.869141 0)"/>
       <use xlink:href="#DejaVuSans-30" transform="translate(254.492188 0)"/>
      </g>
     </g>
    </g>
    <g id="xtick_5">
     <g id="line2d_9">
      <path d="M 740.909553 390.04 
L 740.909553 10.8 
" clip-path="url(#pb9ebef489e)" style="fill: none; stroke: #b0b0b0; stroke-width: 0.8; stroke-linecap: square"/>
     </g>
     <g id="line2d_10">
      <g>
       <use xlink:href="#m55f5e150e7" x="740.909553" y="390.04" style="stroke: #000000; stroke-width: 0.8"/>
      </g>
     </g>
     <g id="text_5">
      <!-- 80000 -->
      <g transform="translate(725.003303 404.638438) scale(0.1 -0.1)">
       <defs>
        <path id="DejaVuSans-38" d="M 2034 2216 
Q 1584 2216 1326 1975 
Q 1069 1734 1069 1313 
Q 1069 891 1326 650 
Q 1584 409 2034 409 
Q 2484 409 2743 651 
Q 3003 894 3003 1313 
Q 3003 1734 2745 1975 
Q 2488 2216 2034 2216 
z
M 1403 2484 
Q 997 2584 770 2862 
Q 544 3141 544 3541 
Q 544 4100 942 4425 
Q 1341 4750 2034 4750 
Q 2731 4750 3128 4425 
Q 3525 4100 3525 3541 
Q 3525 3141 3298 2862 
Q 3072 2584 2669 2484 
Q 3125 2378 3379 2068 
Q 3634 1759 3634 1313 
Q 3634 634 3220 271 
Q 2806 -91 2034 -91 
Q 1263 -91 848 271 
Q 434 634 434 1313 
Q 434 1759 690 2068 
Q 947 2378 1403 2484 
z
M 1172 3481 
Q 1172 3119 1398 2916 
Q 1625 2713 2034 2713 
Q 2441 2713 2670 2916 
Q 2900 3119 2900 3481 
Q 2900 3844 2670 4047 
Q 2441 4250 2034 4250 
Q 1625 4250 1398 4047 
Q 1172 3844 1172 3481 
z
" transform="scale(0.015625)"/>
       </defs>
       <use xlink:href="#DejaVuSans-38"/>
       <use xlink:href="#DejaVuSans-30" transform="translate(63.623047 0)"/>
       <use xlink:href="#DejaVuSans-30" transform="translate(127.246094 0)"/>
       <use xlink:href="#DejaVuSans-30" transform="translate(190.869141 0)"/>
       <use xlink:href="#DejaVuSans-30" transform="translate(254.492188 0)"/>
      </g>
     </g>
    </g>
    <g id="text_6">
     <!-- Run Time (seconds) -->
     <g transform="translate(412.35 418.316562) scale(0.1 -0.1)">
      <defs>
       <path id="DejaVuSans-52" d="M 2841 2188 
Q 3044 2119 3236 1894 
Q 3428 1669 3622 1275 
L 4263 0 
L 3584 0 
L 2988 1197 
Q 2756 1666 2539 1819 
Q 2322 1972 1947 1972 
L 1259 1972 
L 1259 0 
L 628 0 
L 628 4666 
L 2053 4666 
Q 2853 4666 3247 4331 
Q 3641 3997 3641 3322 
Q 3641 2881 3436 2590 
Q 3231 2300 2841 2188 
z
M 1259 4147 
L 1259 2491 
L 2053 2491 
Q 2509 2491 2742 2702 
Q 2975 2913 2975 3322 
Q 2975 3731 2742 3939 
Q 2509 4147 2053 4147 
L 1259 4147 
z
" transform="scale(0.015625)"/>
       <path id="DejaVuSans-75" d="M 544 1381 
L 544 3500 
L 1119 3500 
L 1119 1403 
Q 1119 906 1312 657 
Q 1506 409 1894 409 
Q 2359 409 2629 706 
Q 2900 1003 2900 1516 
L 2900 3500 
L 3475 3500 
L 3475 0 
L 2900 0 
L 2900 538 
Q 2691 219 2414 64 
Q 2138 -91 1772 -91 
Q 1169 -91 856 284 
Q 544 659 544 1381 
z
M 1991 3584 
L 1991 3584 
z
" transform="scale(0.015625)"/>
       <path id="DejaVuSans-6e" d="M 3513 2113 
L 3513 0 
L 2938 0 
L 2938 2094 
Q 2938 2591 2744 2837 
Q 2550 3084 2163 3084 
Q 1697 3084 1428 2787 
Q 1159 2491 1159 1978 
L 1159 0 
L 581 0 
L 581 3500 
L 1159 3500 
L 1159 2956 
Q 1366 3272 1645 3428 
Q 1925 3584 2291 3584 
Q 2894 3584 3203 3211 
Q 3513 2838 3513 2113 
z
" transform="scale(0.015625)"/>
       <path id="DejaVuSans-20" transform="scale(0.015625)"/>
       <path id="DejaVuSans-54" d="M -19 4666 
L 3928 4666 
L 3928 4134 
L 2272 4134 
L 2272 0 
L 1638 0 
L 1638 4134 
L -19 4134 
L -19 4666 
z
" transform="scale(0.015625)"/>
       <path id="DejaVuSans-69" d="M 603 3500 
L 1178 3500 
L 1178 0 
L 603 0 
L 603 3500 
z
M 603 4863 
L 1178 4863 
L 1178 4134 
L 603 4134 
L 603 4863 
z
" transform="scale(0.015625)"/>
       <path id="DejaVuSans-6d" d="M 3328 2828 
Q 3544 3216 3844 3400 
Q 4144 3584 4550 3584 
Q 5097 3584 5394 3201 
Q 5691 2819 5691 2113 
L 5691 0 
L 5113 0 
L 5113 2094 
Q 5113 2597 4934 2840 
Q 4756 3084 4391 3084 
Q 3944 3084 3684 2787 
Q 3425 2491 3425 1978 
L 3425 0 
L 2847 0 
L 2847 2094 
Q 2847 2600 2669 2842 
Q 2491 3084 2119 3084 
Q 1678 3084 1418 2786 
Q 1159 2488 1159 1978 
L 1159 0 
L 581 0 
L 581 3500 
L 1159 3500 
L 1159 2956 
Q 1356 3278 1631 3431 
Q 1906 3584 2284 3584 
Q 2666 3584 2933 3390 
Q 3200 3197 3328 2828 
z
" transform="scale(0.015625)"/>
       <path id="DejaVuSans-65" d="M 3597 1894 
L 3597 1613 
L 953 1613 
Q 991 1019 1311 708 
Q 1631 397 2203 397 
Q 2534 397 2845 478 
Q 3156 559 3463 722 
L 3463 178 
Q 3153 47 2828 -22 
Q 2503 -91 2169 -91 
Q 1331 -91 842 396 
Q 353 884 353 1716 
Q 353 2575 817 3079 
Q 1281 3584 2069 3584 
Q 2775 3584 3186 3129 
Q 3597 2675 3597 1894 
z
M 3022 2063 
Q 3016 2534 2758 2815 
Q 2500 3097 2075 3097 
Q 1594 3097 1305 2825 
Q 1016 2553 972 2059 
L 3022 2063 
z
" transform="scale(0.015625)"/>
       <path id="DejaVuSans-28" d="M 1984 4856 
Q 1566 4138 1362 3434 
Q 1159 2731 1159 2009 
Q 1159 1288 1364 580 
Q 1569 -128 1984 -844 
L 1484 -844 
Q 1016 -109 783 600 
Q 550 1309 550 2009 
Q 550 2706 781 3412 
Q 1013 4119 1484 4856 
L 1984 4856 
z
" transform="scale(0.015625)"/>
       <path id="DejaVuSans-73" d="M 2834 3397 
L 2834 2853 
Q 2591 2978 2328 3040 
Q 2066 3103 1784 3103 
Q 1356 3103 1142 2972 
Q 928 2841 928 2578 
Q 928 2378 1081 2264 
Q 1234 2150 1697 2047 
L 1894 2003 
Q 2506 1872 2764 1633 
Q 3022 1394 3022 966 
Q 3022 478 2636 193 
Q 2250 -91 1575 -91 
Q 1294 -91 989 -36 
Q 684 19 347 128 
L 347 722 
Q 666 556 975 473 
Q 1284 391 1588 391 
Q 1994 391 2212 530 
Q 2431 669 2431 922 
Q 2431 1156 2273 1281 
Q 2116 1406 1581 1522 
L 1381 1569 
Q 847 1681 609 1914 
Q 372 2147 372 2553 
Q 372 3047 722 3315 
Q 1072 3584 1716 3584 
Q 2034 3584 2315 3537 
Q 2597 3491 2834 3397 
z
" transform="scale(0.015625)"/>
       <path id="DejaVuSans-63" d="M 3122 3366 
L 3122 2828 
Q 2878 2963 2633 3030 
Q 2388 3097 2138 3097 
Q 1578 3097 1268 2742 
Q 959 2388 959 1747 
Q 959 1106 1268 751 
Q 1578 397 2138 397 
Q 2388 397 2633 464 
Q 2878 531 3122 666 
L 3122 134 
Q 2881 22 2623 -34 
Q 2366 -91 2075 -91 
Q 1284 -91 818 406 
Q 353 903 353 1747 
Q 353 2603 823 3093 
Q 1294 3584 2113 3584 
Q 2378 3584 2631 3529 
Q 2884 3475 3122 3366 
z
" transform="scale(0.015625)"/>
       <path id="DejaVuSans-6f" d="M 1959 3097 
Q 1497 3097 1228 2736 
Q 959 2375 959 1747 
Q 959 1119 1226 758 
Q 1494 397 1959 397 
Q 2419 397 2687 759 
Q 2956 1122 2956 1747 
Q 2956 2369 2687 2733 
Q 2419 3097 1959 3097 
z
M 1959 3584 
Q 2709 3584 3137 3096 
Q 3566 2609 3566 1747 
Q 3566 888 3137 398 
Q 2709 -91 1959 -91 
Q 1206 -91 779 398 
Q 353 888 353 1747 
Q 353 2609 779 3096 
Q 1206 3584 1959 3584 
z
" transform="scale(0.015625)"/>
       <path id="DejaVuSans-64" d="M 2906 2969 
L 2906 4863 
L 3481 4863 
L 3481 0 
L 2906 0 
L 2906 525 
Q 2725 213 2448 61 
Q 2172 -91 1784 -91 
Q 1150 -91 751 415 
Q 353 922 353 1747 
Q 353 2572 751 3078 
Q 1150 3584 1784 3584 
Q 2172 3584 2448 3432 
Q 2725 3281 2906 2969 
z
M 947 1747 
Q 947 1113 1208 752 
Q 1469 391 1925 391 
Q 2381 391 2643 752 
Q 2906 1113 2906 1747 
Q 2906 2381 2643 2742 
Q 2381 3103 1925 3103 
Q 1469 3103 1208 2742 
Q 947 2381 947 1747 
z
" transform="scale(0.015625)"/>
       <path id="DejaVuSans-29" d="M 513 4856 
L 1013 4856 
Q 1481 4119 1714 3412 
Q 1947 2706 1947 2009 
Q 1947 1309 1714 600 
Q 1481 -109 1013 -844 
L 513 -844 
Q 928 -128 1133 580 
Q 1338 1288 1338 2009 
Q 1338 2731 1133 3434 
Q 928 4138 513 4856 
z
" transform="scale(0.015625)"/>
      </defs>
      <use xlink:href="#DejaVuSans-52"/>
      <use xlink:href="#DejaVuSans-75" transform="translate(64.982422 0)"/>
      <use xlink:href="#DejaVuSans-6e" transform="translate(128.361328 0)"/>
      <use xlink:href="#DejaVuSans-20" transform="translate(191.740234 0)"/>
      <use xlink:href="#DejaVuSans-54" transform="translate(223.527344 0)"/>
      <use xlink:href="#DejaVuSans-69" transform="translate(281.486328 0)"/>
      <use xlink:href="#DejaVuSans-6d" transform="translate(309.269531 0)"/>
      <use xlink:href="#DejaVuSans-65" transform="translate(406.681641 0)"/>
      <use xlink:href="#DejaVuSans-20" transform="translate(468.205078 0)"/>
      <use xlink:href="#DejaVuSans-28" transform="translate(499.992188 0)"/>
      <use xlink:href="#DejaVuSans-73" transform="translate(539.005859 0)"/>
      <use xlink:href="#DejaVuSans-65" transform="translate(591.105469 0)"/>
      <use xlink:href="#DejaVuSans-63" transform="translate(652.628906 0)"/>
      <use xlink:href="#DejaVuSans-6f" transform="translate(707.609375 0)"/>
      <use xlink:href="#DejaVuSans-6e" transform="translate(768.791016 0)"/>
      <use xlink:href="#DejaVuSans-64" transform="translate(832.169922 0)"/>
      <use xlink:href="#DejaVuSans-73" transform="translate(895.646484 0)"/>
      <use xlink:href="#DejaVuSans-29" transform="translate(947.746094 0)"/>
     </g>
    </g>
   </g>
   <g id="matplotlib.axis_2">
    <g id="ytick_1">
     <g id="line2d_11">
      <path d="M 70.175 320.932591 
L 853.2 320.932591 
" clip-path="url(#pb9ebef489e)" style="fill: none; stroke: #b0b0b0; stroke-width: 0.8; stroke-linecap: square"/>
     </g>
     <g id="line2d_12">
      <defs>
       <path id="mf3cf3645f2" d="M 0 0 
L -3.5 0 
" style="stroke: #000000; stroke-width: 0.8"/>
      </defs>
      <g>
       <use xlink:href="#mf3cf3645f2" x="70.175" y="320.932591" style="stroke: #000000; stroke-width: 0.8"/>
      </g>
     </g>
     <g id="text_7">
      <!-- 100 -->
      <g transform="translate(44.0875 324.73181) scale(0.1 -0.1)">
       <defs>
        <path id="DejaVuSans-31" d="M 794 531 
L 1825 531 
L 1825 4091 
L 703 3866 
L 703 4441 
L 1819 4666 
L 2450 4666 
L 2450 531 
L 3481 531 
L 3481 0 
L 794 0 
L 794 531 
z
" transform="scale(0.015625)"/>
       </defs>
       <use xlink:href="#DejaVuSans-31"/>
       <use xlink:href="#DejaVuSans-30" transform="translate(63.623047 0)"/>
       <use xlink:href="#DejaVuSans-30" transform="translate(127.246094 0)"/>
      </g>
     </g>
    </g>
    <g id="ytick_2">
     <g id="line2d_13">
      <path d="M 70.175 221.733249 
L 853.2 221.733249 
" clip-path="url(#pb9ebef489e)" style="fill: none; stroke: #b0b0b0; stroke-width: 0.8; stroke-linecap: square"/>
     </g>
     <g id="line2d_14">
      <g>
       <use xlink:href="#mf3cf3645f2" x="70.175" y="221.733249" style="stroke: #000000; stroke-width: 0.8"/>
      </g>
     </g>
     <g id="text_8">
      <!-- 1000 -->
      <g transform="translate(37.725 225.532468) scale(0.1 -0.1)">
       <use xlink:href="#DejaVuSans-31"/>
       <use xlink:href="#DejaVuSans-30" transform="translate(63.623047 0)"/>
       <use xlink:href="#DejaVuSans-30" transform="translate(127.246094 0)"/>
       <use xlink:href="#DejaVuSans-30" transform="translate(190.869141 0)"/>
      </g>
     </g>
    </g>
    <g id="ytick_3">
     <g id="line2d_15">
      <path d="M 70.175 122.533908 
L 853.2 122.533908 
" clip-path="url(#pb9ebef489e)" style="fill: none; stroke: #b0b0b0; stroke-width: 0.8; stroke-linecap: square"/>
     </g>
     <g id="line2d_16">
      <g>
       <use xlink:href="#mf3cf3645f2" x="70.175" y="122.533908" style="stroke: #000000; stroke-width: 0.8"/>
      </g>
     </g>
     <g id="text_9">
      <!-- 10000 -->
      <g transform="translate(31.3625 126.333126) scale(0.1 -0.1)">
       <use xlink:href="#DejaVuSans-31"/>
       <use xlink:href="#DejaVuSans-30" transform="translate(63.623047 0)"/>
       <use xlink:href="#DejaVuSans-30" transform="translate(127.246094 0)"/>
       <use xlink:href="#DejaVuSans-30" transform="translate(190.869141 0)"/>
       <use xlink:href="#DejaVuSans-30" transform="translate(254.492188 0)"/>
      </g>
     </g>
    </g>
    <g id="ytick_4">
     <g id="line2d_17">
      <path d="M 70.175 23.334566 
L 853.2 23.334566 
" clip-path="url(#pb9ebef489e)" style="fill: none; stroke: #b0b0b0; stroke-width: 0.8; stroke-linecap: square"/>
     </g>
     <g id="line2d_18">
      <g>
       <use xlink:href="#mf3cf3645f2" x="70.175" y="23.334566" style="stroke: #000000; stroke-width: 0.8"/>
      </g>
     </g>
     <g id="text_10">
      <!-- 100000 -->
      <g transform="translate(25 27.133785) scale(0.1 -0.1)">
       <use xlink:href="#DejaVuSans-31"/>
       <use xlink:href="#DejaVuSans-30" transform="translate(63.623047 0)"/>
       <use xlink:href="#DejaVuSans-30" transform="translate(127.246094 0)"/>
       <use xlink:href="#DejaVuSans-30" transform="translate(190.869141 0)"/>
       <use xlink:href="#DejaVuSans-30" transform="translate(254.492188 0)"/>
       <use xlink:href="#DejaVuSans-30" transform="translate(318.115234 0)"/>
      </g>
     </g>
    </g>
    <g id="ytick_5">
     <g id="line2d_19">
      <path d="M 70.175 372.801818 
L 853.2 372.801818 
" clip-path="url(#pb9ebef489e)" style="fill: none; stroke: #b0b0b0; stroke-width: 0.8; stroke-linecap: square"/>
     </g>
     <g id="line2d_20">
      <defs>
       <path id="md3cfe4b187" d="M 0 0 
L -2 0 
" style="stroke: #000000; stroke-width: 0.6"/>
      </defs>
      <g>
       <use xlink:href="#md3cfe4b187" x="70.175" y="372.801818" style="stroke: #000000; stroke-width: 0.6"/>
      </g>
     </g>
    </g>
    <g id="ytick_6">
     <g id="line2d_21">
      <path d="M 70.175 360.407978 
L 853.2 360.407978 
" clip-path="url(#pb9ebef489e)" style="fill: none; stroke: #b0b0b0; stroke-width: 0.8; stroke-linecap: square"/>
     </g>
     <g id="line2d_22">
      <g>
       <use xlink:href="#md3cfe4b187" x="70.175" y="360.407978" style="stroke: #000000; stroke-width: 0.6"/>
      </g>
     </g>
    </g>
    <g id="ytick_7">
     <g id="line2d_23">
      <path d="M 70.175 350.794568 
L 853.2 350.794568 
" clip-path="url(#pb9ebef489e)" style="fill: none; stroke: #b0b0b0; stroke-width: 0.8; stroke-linecap: square"/>
     </g>
     <g id="line2d_24">
      <g>
       <use xlink:href="#md3cfe4b187" x="70.175" y="350.794568" style="stroke: #000000; stroke-width: 0.6"/>
      </g>
     </g>
    </g>
    <g id="ytick_8">
     <g id="line2d_25">
      <path d="M 70.175 342.939841 
L 853.2 342.939841 
" clip-path="url(#pb9ebef489e)" style="fill: none; stroke: #b0b0b0; stroke-width: 0.8; stroke-linecap: square"/>
     </g>
     <g id="line2d_26">
      <g>
       <use xlink:href="#md3cfe4b187" x="70.175" y="342.939841" style="stroke: #000000; stroke-width: 0.6"/>
      </g>
     </g>
    </g>
    <g id="ytick_9">
     <g id="line2d_27">
      <path d="M 70.175 336.298763 
L 853.2 336.298763 
" clip-path="url(#pb9ebef489e)" style="fill: none; stroke: #b0b0b0; stroke-width: 0.8; stroke-linecap: square"/>
     </g>
     <g id="line2d_28">
      <g>
       <use xlink:href="#md3cfe4b187" x="70.175" y="336.298763" style="stroke: #000000; stroke-width: 0.6"/>
      </g>
     </g>
    </g>
    <g id="ytick_10">
     <g id="line2d_29">
      <path d="M 70.175 330.546 
L 853.2 330.546 
" clip-path="url(#pb9ebef489e)" style="fill: none; stroke: #b0b0b0; stroke-width: 0.8; stroke-linecap: square"/>
     </g>
     <g id="line2d_30">
      <g>
       <use xlink:href="#md3cfe4b187" x="70.175" y="330.546" style="stroke: #000000; stroke-width: 0.6"/>
      </g>
     </g>
    </g>
    <g id="ytick_11">
     <g id="line2d_31">
      <path d="M 70.175 325.471704 
L 853.2 325.471704 
" clip-path="url(#pb9ebef489e)" style="fill: none; stroke: #b0b0b0; stroke-width: 0.8; stroke-linecap: square"/>
     </g>
     <g id="line2d_32">
      <g>
       <use xlink:href="#md3cfe4b187" x="70.175" y="325.471704" style="stroke: #000000; stroke-width: 0.6"/>
      </g>
     </g>
    </g>
    <g id="ytick_12">
     <g id="line2d_33">
      <path d="M 70.175 291.070614 
L 853.2 291.070614 
" clip-path="url(#pb9ebef489e)" style="fill: none; stroke: #b0b0b0; stroke-width: 0.8; stroke-linecap: square"/>
     </g>
     <g id="line2d_34">
      <g>
       <use xlink:href="#md3cfe4b187" x="70.175" y="291.070614" style="stroke: #000000; stroke-width: 0.6"/>
      </g>
     </g>
    </g>
    <g id="ytick_13">
     <g id="line2d_35">
      <path d="M 70.175 273.602477 
L 853.2 273.602477 
" clip-path="url(#pb9ebef489e)" style="fill: none; stroke: #b0b0b0; stroke-width: 0.8; stroke-linecap: square"/>
     </g>
     <g id="line2d_36">
      <g>
       <use xlink:href="#md3cfe4b187" x="70.175" y="273.602477" style="stroke: #000000; stroke-width: 0.6"/>
      </g>
     </g>
    </g>
    <g id="ytick_14">
     <g id="line2d_37">
      <path d="M 70.175 261.208636 
L 853.2 261.208636 
" clip-path="url(#pb9ebef489e)" style="fill: none; stroke: #b0b0b0; stroke-width: 0.8; stroke-linecap: square"/>
     </g>
     <g id="line2d_38">
      <g>
       <use xlink:href="#md3cfe4b187" x="70.175" y="261.208636" style="stroke: #000000; stroke-width: 0.6"/>
      </g>
     </g>
    </g>
    <g id="ytick_15">
     <g id="line2d_39">
      <path d="M 70.175 251.595227 
L 853.2 251.595227 
" clip-path="url(#pb9ebef489e)" style="fill: none; stroke: #b0b0b0; stroke-width: 0.8; stroke-linecap: square"/>
     </g>
     <g id="line2d_40">
      <g>
       <use xlink:href="#md3cfe4b187" x="70.175" y="251.595227" style="stroke: #000000; stroke-width: 0.6"/>
      </g>
     </g>
    </g>
    <g id="ytick_16">
     <g id="line2d_41">
      <path d="M 70.175 243.740499 
L 853.2 243.740499 
" clip-path="url(#pb9ebef489e)" style="fill: none; stroke: #b0b0b0; stroke-width: 0.8; stroke-linecap: square"/>
     </g>
     <g id="line2d_42">
      <g>
       <use xlink:href="#md3cfe4b187" x="70.175" y="243.740499" style="stroke: #000000; stroke-width: 0.6"/>
      </g>
     </g>
    </g>
    <g id="ytick_17">
     <g id="line2d_43">
      <path d="M 70.175 237.099422 
L 853.2 237.099422 
" clip-path="url(#pb9ebef489e)" style="fill: none; stroke: #b0b0b0; stroke-width: 0.8; stroke-linecap: square"/>
     </g>
     <g id="line2d_44">
      <g>
       <use xlink:href="#md3cfe4b187" x="70.175" y="237.099422" style="stroke: #000000; stroke-width: 0.6"/>
      </g>
     </g>
    </g>
    <g id="ytick_18">
     <g id="line2d_45">
      <path d="M 70.175 231.346659 
L 853.2 231.346659 
" clip-path="url(#pb9ebef489e)" style="fill: none; stroke: #b0b0b0; stroke-width: 0.8; stroke-linecap: square"/>
     </g>
     <g id="line2d_46">
      <g>
       <use xlink:href="#md3cfe4b187" x="70.175" y="231.346659" style="stroke: #000000; stroke-width: 0.6"/>
      </g>
     </g>
    </g>
    <g id="ytick_19">
     <g id="line2d_47">
      <path d="M 70.175 226.272362 
L 853.2 226.272362 
" clip-path="url(#pb9ebef489e)" style="fill: none; stroke: #b0b0b0; stroke-width: 0.8; stroke-linecap: square"/>
     </g>
     <g id="line2d_48">
      <g>
       <use xlink:href="#md3cfe4b187" x="70.175" y="226.272362" style="stroke: #000000; stroke-width: 0.6"/>
      </g>
     </g>
    </g>
    <g id="ytick_20">
     <g id="line2d_49">
      <path d="M 70.175 191.871272 
L 853.2 191.871272 
" clip-path="url(#pb9ebef489e)" style="fill: none; stroke: #b0b0b0; stroke-width: 0.8; stroke-linecap: square"/>
     </g>
     <g id="line2d_50">
      <g>
       <use xlink:href="#md3cfe4b187" x="70.175" y="191.871272" style="stroke: #000000; stroke-width: 0.6"/>
      </g>
     </g>
    </g>
    <g id="ytick_21">
     <g id="line2d_51">
      <path d="M 70.175 174.403135 
L 853.2 174.403135 
" clip-path="url(#pb9ebef489e)" style="fill: none; stroke: #b0b0b0; stroke-width: 0.8; stroke-linecap: square"/>
     </g>
     <g id="line2d_52">
      <g>
       <use xlink:href="#md3cfe4b187" x="70.175" y="174.403135" style="stroke: #000000; stroke-width: 0.6"/>
      </g>
     </g>
    </g>
    <g id="ytick_22">
     <g id="line2d_53">
      <path d="M 70.175 162.009294 
L 853.2 162.009294 
" clip-path="url(#pb9ebef489e)" style="fill: none; stroke: #b0b0b0; stroke-width: 0.8; stroke-linecap: square"/>
     </g>
     <g id="line2d_54">
      <g>
       <use xlink:href="#md3cfe4b187" x="70.175" y="162.009294" style="stroke: #000000; stroke-width: 0.6"/>
      </g>
     </g>
    </g>
    <g id="ytick_23">
     <g id="line2d_55">
      <path d="M 70.175 152.395885 
L 853.2 152.395885 
" clip-path="url(#pb9ebef489e)" style="fill: none; stroke: #b0b0b0; stroke-width: 0.8; stroke-linecap: square"/>
     </g>
     <g id="line2d_56">
      <g>
       <use xlink:href="#md3cfe4b187" x="70.175" y="152.395885" style="stroke: #000000; stroke-width: 0.6"/>
      </g>
     </g>
    </g>
    <g id="ytick_24">
     <g id="line2d_57">
      <path d="M 70.175 144.541158 
L 853.2 144.541158 
" clip-path="url(#pb9ebef489e)" style="fill: none; stroke: #b0b0b0; stroke-width: 0.8; stroke-linecap: square"/>
     </g>
     <g id="line2d_58">
      <g>
       <use xlink:href="#md3cfe4b187" x="70.175" y="144.541158" style="stroke: #000000; stroke-width: 0.6"/>
      </g>
     </g>
    </g>
    <g id="ytick_25">
     <g id="line2d_59">
      <path d="M 70.175 137.90008 
L 853.2 137.90008 
" clip-path="url(#pb9ebef489e)" style="fill: none; stroke: #b0b0b0; stroke-width: 0.8; stroke-linecap: square"/>
     </g>
     <g id="line2d_60">
      <g>
       <use xlink:href="#md3cfe4b187" x="70.175" y="137.90008" style="stroke: #000000; stroke-width: 0.6"/>
      </g>
     </g>
    </g>
    <g id="ytick_26">
     <g id="line2d_61">
      <path d="M 70.175 132.147317 
L 853.2 132.147317 
" clip-path="url(#pb9ebef489e)" style="fill: none; stroke: #b0b0b0; stroke-width: 0.8; stroke-linecap: square"/>
     </g>
     <g id="line2d_62">
      <g>
       <use xlink:href="#md3cfe4b187" x="70.175" y="132.147317" style="stroke: #000000; stroke-width: 0.6"/>
      </g>
     </g>
    </g>
    <g id="ytick_27">
     <g id="line2d_63">
      <path d="M 70.175 127.073021 
L 853.2 127.073021 
" clip-path="url(#pb9ebef489e)" style="fill: none; stroke: #b0b0b0; stroke-width: 0.8; stroke-linecap: square"/>
     </g>
     <g id="line2d_64">
      <g>
       <use xlink:href="#md3cfe4b187" x="70.175" y="127.073021" style="stroke: #000000; stroke-width: 0.6"/>
      </g>
     </g>
    </g>
    <g id="ytick_28">
     <g id="line2d_65">
      <path d="M 70.175 92.67193 
L 853.2 92.67193 
" clip-path="url(#pb9ebef489e)" style="fill: none; stroke: #b0b0b0; stroke-width: 0.8; stroke-linecap: square"/>
     </g>
     <g id="line2d_66">
      <g>
       <use xlink:href="#md3cfe4b187" x="70.175" y="92.67193" style="stroke: #000000; stroke-width: 0.6"/>
      </g>
     </g>
    </g>
    <g id="ytick_29">
     <g id="line2d_67">
      <path d="M 70.175 75.203793 
L 853.2 75.203793 
" clip-path="url(#pb9ebef489e)" style="fill: none; stroke: #b0b0b0; stroke-width: 0.8; stroke-linecap: square"/>
     </g>
     <g id="line2d_68">
      <g>
       <use xlink:href="#md3cfe4b187" x="70.175" y="75.203793" style="stroke: #000000; stroke-width: 0.6"/>
      </g>
     </g>
    </g>
    <g id="ytick_30">
     <g id="line2d_69">
      <path d="M 70.175 62.809953 
L 853.2 62.809953 
" clip-path="url(#pb9ebef489e)" style="fill: none; stroke: #b0b0b0; stroke-width: 0.8; stroke-linecap: square"/>
     </g>
     <g id="line2d_70">
      <g>
       <use xlink:href="#md3cfe4b187" x="70.175" y="62.809953" style="stroke: #000000; stroke-width: 0.6"/>
      </g>
     </g>
    </g>
    <g id="ytick_31">
     <g id="line2d_71">
      <path d="M 70.175 53.196543 
L 853.2 53.196543 
" clip-path="url(#pb9ebef489e)" style="fill: none; stroke: #b0b0b0; stroke-width: 0.8; stroke-linecap: square"/>
     </g>
     <g id="line2d_72">
      <g>
       <use xlink:href="#md3cfe4b187" x="70.175" y="53.196543" style="stroke: #000000; stroke-width: 0.6"/>
      </g>
     </g>
    </g>
    <g id="ytick_32">
     <g id="line2d_73">
      <path d="M 70.175 45.341816 
L 853.2 45.341816 
" clip-path="url(#pb9ebef489e)" style="fill: none; stroke: #b0b0b0; stroke-width: 0.8; stroke-linecap: square"/>
     </g>
     <g id="line2d_74">
      <g>
       <use xlink:href="#md3cfe4b187" x="70.175" y="45.341816" style="stroke: #000000; stroke-width: 0.6"/>
      </g>
     </g>
    </g>
    <g id="ytick_33">
     <g id="line2d_75">
      <path d="M 70.175 38.700738 
L 853.2 38.700738 
" clip-path="url(#pb9ebef489e)" style="fill: none; stroke: #b0b0b0; stroke-width: 0.8; stroke-linecap: square"/>
     </g>
     <g id="line2d_76">
      <g>
       <use xlink:href="#md3cfe4b187" x="70.175" y="38.700738" style="stroke: #000000; stroke-width: 0.6"/>
      </g>
     </g>
    </g>
    <g id="ytick_34">
     <g id="line2d_77">
      <path d="M 70.175 32.947975 
L 853.2 32.947975 
" clip-path="url(#pb9ebef489e)" style="fill: none; stroke: #b0b0b0; stroke-width: 0.8; stroke-linecap: square"/>
     </g>
     <g id="line2d_78">
      <g>
       <use xlink:href="#md3cfe4b187" x="70.175" y="32.947975" style="stroke: #000000; stroke-width: 0.6"/>
      </g>
     </g>
    </g>
    <g id="ytick_35">
     <g id="line2d_79">
      <path d="M 70.175 27.873679 
L 853.2 27.873679 
" clip-path="url(#pb9ebef489e)" style="fill: none; stroke: #b0b0b0; stroke-width: 0.8; stroke-linecap: square"/>
     </g>
     <g id="line2d_80">
      <g>
       <use xlink:href="#md3cfe4b187" x="70.175" y="27.873679" style="stroke: #000000; stroke-width: 0.6"/>
      </g>
     </g>
    </g>
    <g id="text_11">
     <!-- Run Time (seconds) -->
     <g transform="translate(18.920313 249.7575) rotate(-90) scale(0.1 -0.1)">
      <use xlink:href="#DejaVuSans-52"/>
      <use xlink:href="#DejaVuSans-75" transform="translate(64.982422 0)"/>
      <use xlink:href="#DejaVuSans-6e" transform="translate(128.361328 0)"/>
      <use xlink:href="#DejaVuSans-20" transform="translate(191.740234 0)"/>
      <use xlink:href="#DejaVuSans-54" transform="translate(223.527344 0)"/>
      <use xlink:href="#DejaVuSans-69" transform="translate(281.486328 0)"/>
      <use xlink:href="#DejaVuSans-6d" transform="translate(309.269531 0)"/>
      <use xlink:href="#DejaVuSans-65" transform="translate(406.681641 0)"/>
      <use xlink:href="#DejaVuSans-20" transform="translate(468.205078 0)"/>
      <use xlink:href="#DejaVuSans-28" transform="translate(499.992188 0)"/>
      <use xlink:href="#DejaVuSans-73" transform="translate(539.005859 0)"/>
      <use xlink:href="#DejaVuSans-65" transform="translate(591.105469 0)"/>
      <use xlink:href="#DejaVuSans-63" transform="translate(652.628906 0)"/>
      <use xlink:href="#DejaVuSans-6f" transform="translate(707.609375 0)"/>
      <use xlink:href="#DejaVuSans-6e" transform="translate(768.791016 0)"/>
      <use xlink:href="#DejaVuSans-64" transform="translate(832.169922 0)"/>
      <use xlink:href="#DejaVuSans-73" transform="translate(895.646484 0)"/>
      <use xlink:href="#DejaVuSans-29" transform="translate(947.746094 0)"/>
     </g>
    </g>
   </g>
   <g id="line2d_81">
    <path d="M 105.767045 372.801818 
L 106.076794 336.918655 
L 106.513618 311.665221 
L 107.061634 292.605494 
L 107.720841 277.1947 
L 108.491241 264.219451 
L 109.380774 252.907462 
L 110.381498 242.95782 
L 111.501357 234.012358 
L 112.732407 225.938578 
L 114.082591 218.537473 
L 115.551909 211.708228 
L 117.140361 205.370578 
L 118.855889 199.434035 
L 120.698494 193.854924 
L 122.668174 188.595566 
L 124.772873 183.605644 
L 127.01259 178.862541 
L 129.411153 174.302728 
L 131.960618 169.933008 
L 134.676871 165.718747 
L 137.559911 161.655328 
L 140.633565 157.707785 
L 143.897834 153.877225 
L 147.384486 150.130111 
L 151.093521 146.472212 
L 155.040825 142.892906 
L 159.250222 139.377599 
L 163.737599 135.921382 
L 168.526782 132.515077 
L 173.641597 129.152014 
L 179.105871 125.82747 
L 184.943432 122.538216 
L 191.186048 119.27817 
L 197.857547 116.046969 
L 204.997638 112.837861 
L 212.646034 109.64639 
L 220.834504 106.47286 
L 229.602759 103.315361 
L 239.006394 100.167992 
L 249.077179 97.034292 
L 259.87071 93.910944 
L 271.442583 90.796225 
L 283.856334 87.687721 
L 297.167562 84.586259 
L 311.439802 81.491617 
L 326.744537 78.4029 
L 343.177072 75.315952 
L 360.800946 72.23395 
L 379.719409 69.153896 
L 400.011882 66.077945 
L 421.789558 63.004258 
L 445.163629 59.932361 
L 470.237343 56.863757 
L 497.161603 53.795212 
L 526.055544 50.728508 
L 557.070068 47.662869 
L 590.356078 44.598641 
L 626.088304 41.535035 
L 664.449419 38.471784 
L 705.622093 35.409635 
L 749.820768 32.347952 
L 797.259885 29.287199 
L 817.607955 28.038182 
L 817.607955 28.038182 
" clip-path="url(#pb9ebef489e)" style="fill: none; stroke: #1f77b4; stroke-opacity: 0.7; stroke-width: 1.5; stroke-linecap: square"/>
   </g>
   <g id="line2d_82">
    <path d="M 105.767045 372.801818 
L 105.894122 354.386792 
L 106.251523 324.995658 
L 106.688348 304.628896 
L 107.228421 288.155762 
L 107.871744 274.326556 
L 108.59449 262.743516 
L 109.92879 247.176912 
L 110.969226 238.032636 
L 112.327352 228.431807 
L 114.019053 218.85868 
L 115.496314 211.947857 
L 117.084766 205.577348 
L 118.792351 199.639922 
L 120.587302 194.17187 
L 122.572867 188.8358 
L 124.645797 183.891072 
L 126.893456 179.102106 
L 129.268192 174.561392 
L 131.785888 170.218748 
L 134.502141 165.97778 
L 137.369297 161.912469 
L 140.411182 157.981569 
L 143.675451 154.127649 
L 147.130334 150.392506 
L 150.8076 146.743404 
L 154.754903 143.142415 
L 158.932532 139.633126 
L 163.404024 136.168979 
L 168.161438 132.765648 
L 173.252426 129.398873 
L 178.716701 126.055947 
L 184.530435 122.762848 
L 190.741282 119.502451 
L 197.388953 116.266177 
L 204.505218 113.051666 
L 212.121845 109.857732 
L 220.286488 106.678104 
L 228.983262 103.531005 
L 238.347186 100.381287 
L 248.322665 97.261335 
L 259.092369 94.128754 
L 270.632472 91.007096 
L 283.006513 87.893518 
L 296.270086 84.788491 
L 310.462904 81.696495 
L 325.696158 78.607557 
L 342.08104 75.515104 
L 359.625492 72.432787 
L 378.45659 69.352772 
L 398.661698 66.275926 
L 420.344067 63.201617 
L 443.575177 60.134324 
L 468.561526 57.062171 
L 495.406364 53.988731 
L 524.149401 50.92423 
L 555.028907 47.858058 
L 588.164014 44.793869 
L 623.713569 41.732018 
L 661.92378 38.666902 
L 702.90584 35.605082 
L 746.929786 32.541698 
L 793.328467 29.53275 
L 793.328467 29.53275 
" clip-path="url(#pb9ebef489e)" style="fill: none; stroke: #ff7f0e; stroke-opacity: 0.7; stroke-width: 1.5; stroke-linecap: square"/>
   </g>
   <g id="line2d_83">
    <path d="M 105.798814 367.409574 
L 106.116505 333.904718 
L 106.561271 309.629485 
L 107.11723 291.070614 
L 107.792322 275.81228 
L 108.578605 262.967318 
L 109.476081 251.854496 
L 110.49269 241.981817 
L 111.620491 233.161473 
L 112.867426 225.138567 
L 114.233494 217.784068 
L 115.710755 211.030828 
L 117.315091 204.727119 
L 119.038561 198.847533 
L 120.889108 193.316956 
L 122.874673 188.079611 
L 124.995256 183.110649 
L 127.2588 178.371621 
L 129.665305 173.846682 
L 132.230655 169.495103 
L 134.962792 165.298207 
L 137.861717 161.251301 
L 140.959198 157.31 
L 144.247294 153.48662 
L 147.74983 149.755698 
L 151.482692 146.105811 
L 155.453822 142.535037 
L 159.687046 139.028706 
L 164.206192 135.575954 
L 169.027144 132.174252 
L 174.173728 128.816746 
L 179.669772 125.498547 
L 185.547044 122.212 
L 191.829371 118.955817 
L 198.548523 115.725751 
L 205.736268 112.519129 
L 213.432318 109.331307 
L 221.676383 106.159451 
L 230.508176 103.002118 
L 239.967407 99.858923 
L 250.109673 96.72553 
L 260.974684 93.603887 
L 272.625979 90.490031 
L 285.119154 87.383714 
L 298.517746 84.283792 
L 312.893236 81.18859 
L 328.317104 78.097726 
L 344.852889 75.01322 
L 362.603839 71.93075 
L 381.649378 68.851715 
L 402.084812 65.775746 
L 424.013391 62.702383 
L 447.554249 59.63018 
L 472.810635 56.560851 
L 499.917567 53.493102 
L 529.010064 50.426884 
L 560.239029 47.361573 
L 593.763307 44.296934 
L 629.741744 41.233731 
L 668.364953 38.171026 
L 707.917406 35.245165 
L 707.917406 35.245165 
" clip-path="url(#pb9ebef489e)" style="fill: none; stroke: #2ca02c; stroke-opacity: 0.7; stroke-width: 1.5; stroke-linecap: square"/>
   </g>
   <g id="line2d_84">
    <path d="M 106.497733 312.365753 
L 107.037807 293.280417 
L 107.697015 277.665543 
L 108.467414 264.567354 
L 109.356947 253.174774 
L 110.365614 243.099072 
L 111.485472 234.12709 
L 112.716523 226.033682 
L 114.066707 218.61755 
L 115.536025 211.776557 
L 117.124477 205.429554 
L 118.832063 199.511127 
L 120.674667 193.922645 
L 122.644347 188.655499 
L 124.749046 183.659018 
L 127.004648 178.87847 
L 129.40321 174.317057 
L 131.952676 169.945955 
L 134.668928 165.730488 
L 137.544026 161.676698 
L 140.601796 157.746791 
L 143.874007 153.903987 
L 147.344775 150.171005 
L 151.045868 146.517292 
L 154.993171 142.934391 
L 159.202569 139.415831 
L 163.689945 135.956666 
L 168.479128 132.547678 
L 173.586001 129.187193 
L 179.042333 125.86469 
L 184.879894 122.572699 
L 191.114568 119.314137 
L 197.794008 116.076627 
L 204.9341 112.865389 
L 212.574554 109.675148 
L 220.763023 106.499576 
L 229.523336 103.342948 
L 238.911087 100.198764 
L 248.981872 97.062906 
L 259.759519 93.941993 
L 271.323449 90.827171 
L 283.737201 87.716512 
L 297.032543 84.616622 
L 311.304784 81.519875 
L 326.609518 78.429203 
L 343.026169 75.343317 
L 360.642101 72.260767 
L 379.544679 69.181359 
L 399.82921 66.104678 
L 421.598944 63.030232 
L 444.949188 59.959571 
L 470.022902 56.889096 
L 496.923335 53.82143 
L 525.793449 50.755367 
L 556.792089 47.689399 
L 590.062214 44.624761 
L 625.778556 41.560677 
L 664.107902 38.498116 
L 705.248807 35.436442 
L 749.423655 32.374514 
L 793.312582 29.533745 
L 793.312582 29.533745 
" clip-path="url(#pb9ebef489e)" style="fill: none; stroke: #d62728; stroke-opacity: 0.7; stroke-width: 1.5; stroke-linecap: square"/>
   </g>
   <g id="patch_3">
    <path d="M 70.175 390.04 
L 70.175 10.8 
" style="fill: none; stroke: #000000; stroke-width: 0.8; stroke-linejoin: miter; stroke-linecap: square"/>
   </g>
   <g id="patch_4">
    <path d="M 853.2 390.04 
L 853.2 10.8 
" style="fill: none; stroke: #000000; stroke-width: 0.8; stroke-linejoin: miter; stroke-linecap: square"/>
   </g>
   <g id="patch_5">
    <path d="M 70.175 390.04 
L 853.2 390.04 
" style="fill: none; stroke: #000000; stroke-width: 0.8; stroke-linejoin: miter; stroke-linecap: square"/>
   </g>
   <g id="patch_6">
    <path d="M 70.175 10.8 
L 853.2 10.8 
" style="fill: none; stroke: #000000; stroke-width: 0.8; stroke-linejoin: miter; stroke-linecap: square"/>
   </g>
   <g id="legend_1">
    <g id="patch_7">
     <path d="M 77.175 77.5125 
L 182.23125 77.5125 
Q 184.23125 77.5125 184.23125 75.5125 
L 184.23125 17.8 
Q 184.23125 15.8 182.23125 15.8 
L 77.175 15.8 
Q 75.175 15.8 75.175 17.8 
L 75.175 75.5125 
Q 75.175 77.5125 77.175 77.5125 
z
" style="fill: #ffffff; opacity: 0.8; stroke: #cccccc; stroke-linejoin: miter"/>
    </g>
    <g id="line2d_85">
     <path d="M 79.175 23.898438 
L 89.175 23.898438 
L 99.175 23.898438 
" style="fill: none; stroke: #1f77b4; stroke-opacity: 0.7; stroke-width: 1.5; stroke-linecap: square"/>
    </g>
    <g id="text_12">
     <!-- 10oc-state-diff -->
     <g transform="translate(107.175 27.398438) scale(0.1 -0.1)">
      <defs>
       <path id="DejaVuSans-2d" d="M 313 2009 
L 1997 2009 
L 1997 1497 
L 313 1497 
L 313 2009 
z
" transform="scale(0.015625)"/>
       <path id="DejaVuSans-74" d="M 1172 4494 
L 1172 3500 
L 2356 3500 
L 2356 3053 
L 1172 3053 
L 1172 1153 
Q 1172 725 1289 603 
Q 1406 481 1766 481 
L 2356 481 
L 2356 0 
L 1766 0 
Q 1100 0 847 248 
Q 594 497 594 1153 
L 594 3053 
L 172 3053 
L 172 3500 
L 594 3500 
L 594 4494 
L 1172 4494 
z
" transform="scale(0.015625)"/>
       <path id="DejaVuSans-61" d="M 2194 1759 
Q 1497 1759 1228 1600 
Q 959 1441 959 1056 
Q 959 750 1161 570 
Q 1363 391 1709 391 
Q 2188 391 2477 730 
Q 2766 1069 2766 1631 
L 2766 1759 
L 2194 1759 
z
M 3341 1997 
L 3341 0 
L 2766 0 
L 2766 531 
Q 2569 213 2275 61 
Q 1981 -91 1556 -91 
Q 1019 -91 701 211 
Q 384 513 384 1019 
Q 384 1609 779 1909 
Q 1175 2209 1959 2209 
L 2766 2209 
L 2766 2266 
Q 2766 2663 2505 2880 
Q 2244 3097 1772 3097 
Q 1472 3097 1187 3025 
Q 903 2953 641 2809 
L 641 3341 
Q 956 3463 1253 3523 
Q 1550 3584 1831 3584 
Q 2591 3584 2966 3190 
Q 3341 2797 3341 1997 
z
" transform="scale(0.015625)"/>
       <path id="DejaVuSans-66" d="M 2375 4863 
L 2375 4384 
L 1825 4384 
Q 1516 4384 1395 4259 
Q 1275 4134 1275 3809 
L 1275 3500 
L 2222 3500 
L 2222 3053 
L 1275 3053 
L 1275 0 
L 697 0 
L 697 3053 
L 147 3053 
L 147 3500 
L 697 3500 
L 697 3744 
Q 697 4328 969 4595 
Q 1241 4863 1831 4863 
L 2375 4863 
z
" transform="scale(0.015625)"/>
      </defs>
      <use xlink:href="#DejaVuSans-31"/>
      <use xlink:href="#DejaVuSans-30" transform="translate(63.623047 0)"/>
      <use xlink:href="#DejaVuSans-6f" transform="translate(127.246094 0)"/>
      <use xlink:href="#DejaVuSans-63" transform="translate(188.427734 0)"/>
      <use xlink:href="#DejaVuSans-2d" transform="translate(243.408203 0)"/>
      <use xlink:href="#DejaVuSans-73" transform="translate(279.492188 0)"/>
      <use xlink:href="#DejaVuSans-74" transform="translate(331.591797 0)"/>
      <use xlink:href="#DejaVuSans-61" transform="translate(370.800781 0)"/>
      <use xlink:href="#DejaVuSans-74" transform="translate(432.080078 0)"/>
      <use xlink:href="#DejaVuSans-65" transform="translate(471.289062 0)"/>
      <use xlink:href="#DejaVuSans-2d" transform="translate(532.8125 0)"/>
      <use xlink:href="#DejaVuSans-64" transform="translate(568.896484 0)"/>
      <use xlink:href="#DejaVuSans-69" transform="translate(632.373047 0)"/>
      <use xlink:href="#DejaVuSans-66" transform="translate(660.15625 0)"/>
      <use xlink:href="#DejaVuSans-66" transform="translate(695.361328 0)"/>
     </g>
    </g>
    <g id="line2d_86">
     <path d="M 79.175 38.576563 
L 89.175 38.576563 
L 99.175 38.576563 
" style="fill: none; stroke: #ff7f0e; stroke-opacity: 0.7; stroke-width: 1.5; stroke-linecap: square"/>
    </g>
    <g id="text_13">
     <!-- 1oc-state-diff -->
     <g transform="translate(107.175 42.076563) scale(0.1 -0.1)">
      <use xlink:href="#DejaVuSans-31"/>
      <use xlink:href="#DejaVuSans-6f" transform="translate(63.623047 0)"/>
      <use xlink:href="#DejaVuSans-63" transform="translate(124.804688 0)"/>
      <use xlink:href="#DejaVuSans-2d" transform="translate(179.785156 0)"/>
      <use xlink:href="#DejaVuSans-73" transform="translate(215.869141 0)"/>
      <use xlink:href="#DejaVuSans-74" transform="translate(267.96875 0)"/>
      <use xlink:href="#DejaVuSans-61" transform="translate(307.177734 0)"/>
      <use xlink:href="#DejaVuSans-74" transform="translate(368.457031 0)"/>
      <use xlink:href="#DejaVuSans-65" transform="translate(407.666016 0)"/>
      <use xlink:href="#DejaVuSans-2d" transform="translate(469.189453 0)"/>
      <use xlink:href="#DejaVuSans-64" transform="translate(505.273438 0)"/>
      <use xlink:href="#DejaVuSans-69" transform="translate(568.75 0)"/>
      <use xlink:href="#DejaVuSans-66" transform="translate(596.533203 0)"/>
      <use xlink:href="#DejaVuSans-66" transform="translate(631.738281 0)"/>
     </g>
    </g>
    <g id="line2d_87">
     <path d="M 79.175 53.254688 
L 89.175 53.254688 
L 99.175 53.254688 
" style="fill: none; stroke: #2ca02c; stroke-opacity: 0.7; stroke-width: 1.5; stroke-linecap: square"/>
    </g>
    <g id="text_14">
     <!-- 20oc-state-diff -->
     <g transform="translate(107.175 56.754688) scale(0.1 -0.1)">
      <use xlink:href="#DejaVuSans-32"/>
      <use xlink:href="#DejaVuSans-30" transform="translate(63.623047 0)"/>
      <use xlink:href="#DejaVuSans-6f" transform="translate(127.246094 0)"/>
      <use xlink:href="#DejaVuSans-63" transform="translate(188.427734 0)"/>
      <use xlink:href="#DejaVuSans-2d" transform="translate(243.408203 0)"/>
      <use xlink:href="#DejaVuSans-73" transform="translate(279.492188 0)"/>
      <use xlink:href="#DejaVuSans-74" transform="translate(331.591797 0)"/>
      <use xlink:href="#DejaVuSans-61" transform="translate(370.800781 0)"/>
      <use xlink:href="#DejaVuSans-74" transform="translate(432.080078 0)"/>
      <use xlink:href="#DejaVuSans-65" transform="translate(471.289062 0)"/>
      <use xlink:href="#DejaVuSans-2d" transform="translate(532.8125 0)"/>
      <use xlink:href="#DejaVuSans-64" transform="translate(568.896484 0)"/>
      <use xlink:href="#DejaVuSans-69" transform="translate(632.373047 0)"/>
      <use xlink:href="#DejaVuSans-66" transform="translate(660.15625 0)"/>
      <use xlink:href="#DejaVuSans-66" transform="translate(695.361328 0)"/>
     </g>
    </g>
    <g id="line2d_88">
     <path d="M 79.175 67.932813 
L 89.175 67.932813 
L 99.175 67.932813 
" style="fill: none; stroke: #d62728; stroke-opacity: 0.7; stroke-width: 1.5; stroke-linecap: square"/>
    </g>
    <g id="text_15">
     <!-- 50oc-state-diff -->
     <g transform="translate(107.175 71.432813) scale(0.1 -0.1)">
      <defs>
       <path id="DejaVuSans-35" d="M 691 4666 
L 3169 4666 
L 3169 4134 
L 1269 4134 
L 1269 2991 
Q 1406 3038 1543 3061 
Q 1681 3084 1819 3084 
Q 2600 3084 3056 2656 
Q 3513 2228 3513 1497 
Q 3513 744 3044 326 
Q 2575 -91 1722 -91 
Q 1428 -91 1123 -41 
Q 819 9 494 109 
L 494 744 
Q 775 591 1075 516 
Q 1375 441 1709 441 
Q 2250 441 2565 725 
Q 2881 1009 2881 1497 
Q 2881 1984 2565 2268 
Q 2250 2553 1709 2553 
Q 1456 2553 1204 2497 
Q 953 2441 691 2322 
L 691 4666 
z
" transform="scale(0.015625)"/>
      </defs>
      <use xlink:href="#DejaVuSans-35"/>
      <use xlink:href="#DejaVuSans-30" transform="translate(63.623047 0)"/>
      <use xlink:href="#DejaVuSans-6f" transform="translate(127.246094 0)"/>
      <use xlink:href="#DejaVuSans-63" transform="translate(188.427734 0)"/>
      <use xlink:href="#DejaVuSans-2d" transform="translate(243.408203 0)"/>
      <use xlink:href="#DejaVuSans-73" transform="translate(279.492188 0)"/>
      <use xlink:href="#DejaVuSans-74" transform="translate(331.591797 0)"/>
      <use xlink:href="#DejaVuSans-61" transform="translate(370.800781 0)"/>
      <use xlink:href="#DejaVuSans-74" transform="translate(432.080078 0)"/>
      <use xlink:href="#DejaVuSans-65" transform="translate(471.289062 0)"/>
      <use xlink:href="#DejaVuSans-2d" transform="translate(532.8125 0)"/>
      <use xlink:href="#DejaVuSans-64" transform="translate(568.896484 0)"/>
      <use xlink:href="#DejaVuSans-69" transform="translate(632.373047 0)"/>
      <use xlink:href="#DejaVuSans-66" transform="translate(660.15625 0)"/>
      <use xlink:href="#DejaVuSans-66" transform="translate(695.361328 0)"/>
     </g>
    </g>
   </g>
  </g>
 </g>
 <defs>
  <clipPath id="pb9ebef489e">
   <rect x="70.175" y="10.8" width="783.025" height="379.24"/>
  </clipPath>
 </defs>
</svg>
