<?xml version="1.0" encoding="utf-8" standalone="no"?>
<!DOCTYPE svg PUBLIC "-//W3C//DTD SVG 1.1//EN"
  "http://www.w3.org/Graphics/SVG/1.1/DTD/svg11.dtd">
<svg xmlns:xlink="http://www.w3.org/1999/xlink" width="864pt" height="432pt" viewBox="0 0 864 432" xmlns="http://www.w3.org/2000/svg" version="1.1">
 <metadata>
  <rdf:RDF xmlns:dc="http://purl.org/dc/elements/1.1/" xmlns:cc="http://creativecommons.org/ns#" xmlns:rdf="http://www.w3.org/1999/02/22-rdf-syntax-ns#">
   <cc:Work>
    <dc:type rdf:resource="http://purl.org/dc/dcmitype/StillImage"/>
    <dc:date>2025-02-27T15:09:11.694507</dc:date>
    <dc:format>image/svg+xml</dc:format>
    <dc:creator>
     <cc:Agent>
      <dc:title>Matplotlib v3.10.0, https://matplotlib.org/</dc:title>
     </cc:Agent>
    </dc:creator>
   </cc:Work>
  </rdf:RDF>
 </metadata>
 <defs>
  <style type="text/css">*{stroke-linejoin: round; stroke-linecap: butt}</style>
 </defs>
 <g id="figure_1">
  <g id="patch_1">
   <path d="M 0 432 
L 864 432 
L 864 0 
L 0 0 
z
" style="fill: #ffffff"/>
  </g>
  <g id="axes_1">
   <g id="patch_2">
    <path d="M 36.625 390.04 
L 853.2 390.04 
L 853.2 10.8 
L 36.625 10.8 
z
" style="fill: #ffffff"/>
   </g>
   <g id="matplotlib.axis_1">
    <g id="xtick_1">
     <g id="line2d_1">
      <path d="M 73.493569 390.04 
L 73.493569 10.8 
" clip-path="url(#p080000883e)" style="fill: none; stroke: #b0b0b0; stroke-width: 0.8; stroke-linecap: square"/>
     </g>
     <g id="line2d_2">
      <defs>
       <path id="mabdbadc063" d="M 0 0 
L 0 3.5 
" style="stroke: #000000; stroke-width: 0.8"/>
      </defs>
      <g>
       <use xlink:href="#mabdbadc063" x="73.493569" y="390.04" style="stroke: #000000; stroke-width: 0.8"/>
      </g>
     </g>
     <g id="text_1">
      <!-- 0 -->
      <g transform="translate(70.312319 404.638438) scale(0.1 -0.1)">
       <defs>
        <path id="DejaVuSans-30" d="M 2034 4250 
Q 1547 4250 1301 3770 
Q 1056 3291 1056 2328 
Q 1056 1369 1301 889 
Q 1547 409 2034 409 
Q 2525 409 2770 889 
Q 3016 1369 3016 2328 
Q 3016 3291 2770 3770 
Q 2525 4250 2034 4250 
z
M 2034 4750 
Q 2819 4750 3233 4129 
Q 3647 3509 3647 2328 
Q 3647 1150 3233 529 
Q 2819 -91 2034 -91 
Q 1250 -91 836 529 
Q 422 1150 422 2328 
Q 422 3509 836 4129 
Q 1250 4750 2034 4750 
z
" transform="scale(0.015625)"/>
       </defs>
       <use xlink:href="#DejaVuSans-30"/>
      </g>
     </g>
    </g>
    <g id="xtick_2">
     <g id="line2d_3">
      <path d="M 239.144747 390.04 
L 239.144747 10.8 
" clip-path="url(#p080000883e)" style="fill: none; stroke: #b0b0b0; stroke-width: 0.8; stroke-linecap: square"/>
     </g>
     <g id="line2d_4">
      <g>
       <use xlink:href="#mabdbadc063" x="239.144747" y="390.04" style="stroke: #000000; stroke-width: 0.8"/>
      </g>
     </g>
     <g id="text_2">
      <!-- 20000 -->
      <g transform="translate(223.238497 404.638438) scale(0.1 -0.1)">
       <defs>
        <path id="DejaVuSans-32" d="M 1228 531 
L 3431 531 
L 3431 0 
L 469 0 
L 469 531 
Q 828 903 1448 1529 
Q 2069 2156 2228 2338 
Q 2531 2678 2651 2914 
Q 2772 3150 2772 3378 
Q 2772 3750 2511 3984 
Q 2250 4219 1831 4219 
Q 1534 4219 1204 4116 
Q 875 4013 500 3803 
L 500 4441 
Q 881 4594 1212 4672 
Q 1544 4750 1819 4750 
Q 2544 4750 2975 4387 
Q 3406 4025 3406 3419 
Q 3406 3131 3298 2873 
Q 3191 2616 2906 2266 
Q 2828 2175 2409 1742 
Q 1991 1309 1228 531 
z
" transform="scale(0.015625)"/>
       </defs>
       <use xlink:href="#DejaVuSans-32"/>
       <use xlink:href="#DejaVuSans-30" transform="translate(63.623047 0)"/>
       <use xlink:href="#DejaVuSans-30" transform="translate(127.246094 0)"/>
       <use xlink:href="#DejaVuSans-30" transform="translate(190.869141 0)"/>
       <use xlink:href="#DejaVuSans-30" transform="translate(254.492188 0)"/>
      </g>
     </g>
    </g>
    <g id="xtick_3">
     <g id="line2d_5">
      <path d="M 404.795926 390.04 
L 404.795926 10.8 
" clip-path="url(#p080000883e)" style="fill: none; stroke: #b0b0b0; stroke-width: 0.8; stroke-linecap: square"/>
     </g>
     <g id="line2d_6">
      <g>
       <use xlink:href="#mabdbadc063" x="404.795926" y="390.04" style="stroke: #000000; stroke-width: 0.8"/>
      </g>
     </g>
     <g id="text_3">
      <!-- 40000 -->
      <g transform="translate(388.889676 404.638438) scale(0.1 -0.1)">
       <defs>
        <path id="DejaVuSans-34" d="M 2419 4116 
L 825 1625 
L 2419 1625 
L 2419 4116 
z
M 2253 4666 
L 3047 4666 
L 3047 1625 
L 3713 1625 
L 3713 1100 
L 3047 1100 
L 3047 0 
L 2419 0 
L 2419 1100 
L 313 1100 
L 313 1709 
L 2253 4666 
z
" transform="scale(0.015625)"/>
       </defs>
       <use xlink:href="#DejaVuSans-34"/>
       <use xlink:href="#DejaVuSans-30" transform="translate(63.623047 0)"/>
       <use xlink:href="#DejaVuSans-30" transform="translate(127.246094 0)"/>
       <use xlink:href="#DejaVuSans-30" transform="translate(190.869141 0)"/>
       <use xlink:href="#DejaVuSans-30" transform="translate(254.492188 0)"/>
      </g>
     </g>
    </g>
    <g id="xtick_4">
     <g id="line2d_7">
      <path d="M 570.447104 390.04 
L 570.447104 10.8 
" clip-path="url(#p080000883e)" style="fill: none; stroke: #b0b0b0; stroke-width: 0.8; stroke-linecap: square"/>
     </g>
     <g id="line2d_8">
      <g>
       <use xlink:href="#mabdbadc063" x="570.447104" y="390.04" style="stroke: #000000; stroke-width: 0.8"/>
      </g>
     </g>
     <g id="text_4">
      <!-- 60000 -->
      <g transform="translate(554.540854 404.638438) scale(0.1 -0.1)">
       <defs>
        <path id="DejaVuSans-36" d="M 2113 2584 
Q 1688 2584 1439 2293 
Q 1191 2003 1191 1497 
Q 1191 994 1439 701 
Q 1688 409 2113 409 
Q 2538 409 2786 701 
Q 3034 994 3034 1497 
Q 3034 2003 2786 2293 
Q 2538 2584 2113 2584 
z
M 3366 4563 
L 3366 3988 
Q 3128 4100 2886 4159 
Q 2644 4219 2406 4219 
Q 1781 4219 1451 3797 
Q 1122 3375 1075 2522 
Q 1259 2794 1537 2939 
Q 1816 3084 2150 3084 
Q 2853 3084 3261 2657 
Q 3669 2231 3669 1497 
Q 3669 778 3244 343 
Q 2819 -91 2113 -91 
Q 1303 -91 875 529 
Q 447 1150 447 2328 
Q 447 3434 972 4092 
Q 1497 4750 2381 4750 
Q 2619 4750 2861 4703 
Q 3103 4656 3366 4563 
z
" transform="scale(0.015625)"/>
       </defs>
       <use xlink:href="#DejaVuSans-36"/>
       <use xlink:href="#DejaVuSans-30" transform="translate(63.623047 0)"/>
       <use xlink:href="#DejaVuSans-30" transform="translate(127.246094 0)"/>
       <use xlink:href="#DejaVuSans-30" transform="translate(190.869141 0)"/>
       <use xlink:href="#DejaVuSans-30" transform="translate(254.492188 0)"/>
      </g>
     </g>
    </g>
    <g id="xtick_5">
     <g id="line2d_9">
      <path d="M 736.098283 390.04 
L 736.098283 10.8 
" clip-path="url(#p080000883e)" style="fill: none; stroke: #b0b0b0; stroke-width: 0.8; stroke-linecap: square"/>
     </g>
     <g id="line2d_10">
      <g>
       <use xlink:href="#mabdbadc063" x="736.098283" y="390.04" style="stroke: #000000; stroke-width: 0.8"/>
      </g>
     </g>
     <g id="text_5">
      <!-- 80000 -->
      <g transform="translate(720.192033 404.638438) scale(0.1 -0.1)">
       <defs>
        <path id="DejaVuSans-38" d="M 2034 2216 
Q 1584 2216 1326 1975 
Q 1069 1734 1069 1313 
Q 1069 891 1326 650 
Q 1584 409 2034 409 
Q 2484 409 2743 651 
Q 3003 894 3003 1313 
Q 3003 1734 2745 1975 
Q 2488 2216 2034 2216 
z
M 1403 2484 
Q 997 2584 770 2862 
Q 544 3141 544 3541 
Q 544 4100 942 4425 
Q 1341 4750 2034 4750 
Q 2731 4750 3128 4425 
Q 3525 4100 3525 3541 
Q 3525 3141 3298 2862 
Q 3072 2584 2669 2484 
Q 3125 2378 3379 2068 
Q 3634 1759 3634 1313 
Q 3634 634 3220 271 
Q 2806 -91 2034 -91 
Q 1263 -91 848 271 
Q 434 634 434 1313 
Q 434 1759 690 2068 
Q 947 2378 1403 2484 
z
M 1172 3481 
Q 1172 3119 1398 2916 
Q 1625 2713 2034 2713 
Q 2441 2713 2670 2916 
Q 2900 3119 2900 3481 
Q 2900 3844 2670 4047 
Q 2441 4250 2034 4250 
Q 1625 4250 1398 4047 
Q 1172 3844 1172 3481 
z
" transform="scale(0.015625)"/>
       </defs>
       <use xlink:href="#DejaVuSans-38"/>
       <use xlink:href="#DejaVuSans-30" transform="translate(63.623047 0)"/>
       <use xlink:href="#DejaVuSans-30" transform="translate(127.246094 0)"/>
       <use xlink:href="#DejaVuSans-30" transform="translate(190.869141 0)"/>
       <use xlink:href="#DejaVuSans-30" transform="translate(254.492188 0)"/>
      </g>
     </g>
    </g>
    <g id="text_6">
     <!-- Run Time (seconds) -->
     <g transform="translate(395.575 418.316562) scale(0.1 -0.1)">
      <defs>
       <path id="DejaVuSans-52" d="M 2841 2188 
Q 3044 2119 3236 1894 
Q 3428 1669 3622 1275 
L 4263 0 
L 3584 0 
L 2988 1197 
Q 2756 1666 2539 1819 
Q 2322 1972 1947 1972 
L 1259 1972 
L 1259 0 
L 628 0 
L 628 4666 
L 2053 4666 
Q 2853 4666 3247 4331 
Q 3641 3997 3641 3322 
Q 3641 2881 3436 2590 
Q 3231 2300 2841 2188 
z
M 1259 4147 
L 1259 2491 
L 2053 2491 
Q 2509 2491 2742 2702 
Q 2975 2913 2975 3322 
Q 2975 3731 2742 3939 
Q 2509 4147 2053 4147 
L 1259 4147 
z
" transform="scale(0.015625)"/>
       <path id="DejaVuSans-75" d="M 544 1381 
L 544 3500 
L 1119 3500 
L 1119 1403 
Q 1119 906 1312 657 
Q 1506 409 1894 409 
Q 2359 409 2629 706 
Q 2900 1003 2900 1516 
L 2900 3500 
L 3475 3500 
L 3475 0 
L 2900 0 
L 2900 538 
Q 2691 219 2414 64 
Q 2138 -91 1772 -91 
Q 1169 -91 856 284 
Q 544 659 544 1381 
z
M 1991 3584 
L 1991 3584 
z
" transform="scale(0.015625)"/>
       <path id="DejaVuSans-6e" d="M 3513 2113 
L 3513 0 
L 2938 0 
L 2938 2094 
Q 2938 2591 2744 2837 
Q 2550 3084 2163 3084 
Q 1697 3084 1428 2787 
Q 1159 2491 1159 1978 
L 1159 0 
L 581 0 
L 581 3500 
L 1159 3500 
L 1159 2956 
Q 1366 3272 1645 3428 
Q 1925 3584 2291 3584 
Q 2894 3584 3203 3211 
Q 3513 2838 3513 2113 
z
" transform="scale(0.015625)"/>
       <path id="DejaVuSans-20" transform="scale(0.015625)"/>
       <path id="DejaVuSans-54" d="M -19 4666 
L 3928 4666 
L 3928 4134 
L 2272 4134 
L 2272 0 
L 1638 0 
L 1638 4134 
L -19 4134 
L -19 4666 
z
" transform="scale(0.015625)"/>
       <path id="DejaVuSans-69" d="M 603 3500 
L 1178 3500 
L 1178 0 
L 603 0 
L 603 3500 
z
M 603 4863 
L 1178 4863 
L 1178 4134 
L 603 4134 
L 603 4863 
z
" transform="scale(0.015625)"/>
       <path id="DejaVuSans-6d" d="M 3328 2828 
Q 3544 3216 3844 3400 
Q 4144 3584 4550 3584 
Q 5097 3584 5394 3201 
Q 5691 2819 5691 2113 
L 5691 0 
L 5113 0 
L 5113 2094 
Q 5113 2597 4934 2840 
Q 4756 3084 4391 3084 
Q 3944 3084 3684 2787 
Q 3425 2491 3425 1978 
L 3425 0 
L 2847 0 
L 2847 2094 
Q 2847 2600 2669 2842 
Q 2491 3084 2119 3084 
Q 1678 3084 1418 2786 
Q 1159 2488 1159 1978 
L 1159 0 
L 581 0 
L 581 3500 
L 1159 3500 
L 1159 2956 
Q 1356 3278 1631 3431 
Q 1906 3584 2284 3584 
Q 2666 3584 2933 3390 
Q 3200 3197 3328 2828 
z
" transform="scale(0.015625)"/>
       <path id="DejaVuSans-65" d="M 3597 1894 
L 3597 1613 
L 953 1613 
Q 991 1019 1311 708 
Q 1631 397 2203 397 
Q 2534 397 2845 478 
Q 3156 559 3463 722 
L 3463 178 
Q 3153 47 2828 -22 
Q 2503 -91 2169 -91 
Q 1331 -91 842 396 
Q 353 884 353 1716 
Q 353 2575 817 3079 
Q 1281 3584 2069 3584 
Q 2775 3584 3186 3129 
Q 3597 2675 3597 1894 
z
M 3022 2063 
Q 3016 2534 2758 2815 
Q 2500 3097 2075 3097 
Q 1594 3097 1305 2825 
Q 1016 2553 972 2059 
L 3022 2063 
z
" transform="scale(0.015625)"/>
       <path id="DejaVuSans-28" d="M 1984 4856 
Q 1566 4138 1362 3434 
Q 1159 2731 1159 2009 
Q 1159 1288 1364 580 
Q 1569 -128 1984 -844 
L 1484 -844 
Q 1016 -109 783 600 
Q 550 1309 550 2009 
Q 550 2706 781 3412 
Q 1013 4119 1484 4856 
L 1984 4856 
z
" transform="scale(0.015625)"/>
       <path id="DejaVuSans-73" d="M 2834 3397 
L 2834 2853 
Q 2591 2978 2328 3040 
Q 2066 3103 1784 3103 
Q 1356 3103 1142 2972 
Q 928 2841 928 2578 
Q 928 2378 1081 2264 
Q 1234 2150 1697 2047 
L 1894 2003 
Q 2506 1872 2764 1633 
Q 3022 1394 3022 966 
Q 3022 478 2636 193 
Q 2250 -91 1575 -91 
Q 1294 -91 989 -36 
Q 684 19 347 128 
L 347 722 
Q 666 556 975 473 
Q 1284 391 1588 391 
Q 1994 391 2212 530 
Q 2431 669 2431 922 
Q 2431 1156 2273 1281 
Q 2116 1406 1581 1522 
L 1381 1569 
Q 847 1681 609 1914 
Q 372 2147 372 2553 
Q 372 3047 722 3315 
Q 1072 3584 1716 3584 
Q 2034 3584 2315 3537 
Q 2597 3491 2834 3397 
z
" transform="scale(0.015625)"/>
       <path id="DejaVuSans-63" d="M 3122 3366 
L 3122 2828 
Q 2878 2963 2633 3030 
Q 2388 3097 2138 3097 
Q 1578 3097 1268 2742 
Q 959 2388 959 1747 
Q 959 1106 1268 751 
Q 1578 397 2138 397 
Q 2388 397 2633 464 
Q 2878 531 3122 666 
L 3122 134 
Q 2881 22 2623 -34 
Q 2366 -91 2075 -91 
Q 1284 -91 818 406 
Q 353 903 353 1747 
Q 353 2603 823 3093 
Q 1294 3584 2113 3584 
Q 2378 3584 2631 3529 
Q 2884 3475 3122 3366 
z
" transform="scale(0.015625)"/>
       <path id="DejaVuSans-6f" d="M 1959 3097 
Q 1497 3097 1228 2736 
Q 959 2375 959 1747 
Q 959 1119 1226 758 
Q 1494 397 1959 397 
Q 2419 397 2687 759 
Q 2956 1122 2956 1747 
Q 2956 2369 2687 2733 
Q 2419 3097 1959 3097 
z
M 1959 3584 
Q 2709 3584 3137 3096 
Q 3566 2609 3566 1747 
Q 3566 888 3137 398 
Q 2709 -91 1959 -91 
Q 1206 -91 779 398 
Q 353 888 353 1747 
Q 353 2609 779 3096 
Q 1206 3584 1959 3584 
z
" transform="scale(0.015625)"/>
       <path id="DejaVuSans-64" d="M 2906 2969 
L 2906 4863 
L 3481 4863 
L 3481 0 
L 2906 0 
L 2906 525 
Q 2725 213 2448 61 
Q 2172 -91 1784 -91 
Q 1150 -91 751 415 
Q 353 922 353 1747 
Q 353 2572 751 3078 
Q 1150 3584 1784 3584 
Q 2172 3584 2448 3432 
Q 2725 3281 2906 2969 
z
M 947 1747 
Q 947 1113 1208 752 
Q 1469 391 1925 391 
Q 2381 391 2643 752 
Q 2906 1113 2906 1747 
Q 2906 2381 2643 2742 
Q 2381 3103 1925 3103 
Q 1469 3103 1208 2742 
Q 947 2381 947 1747 
z
" transform="scale(0.015625)"/>
       <path id="DejaVuSans-29" d="M 513 4856 
L 1013 4856 
Q 1481 4119 1714 3412 
Q 1947 2706 1947 2009 
Q 1947 1309 1714 600 
Q 1481 -109 1013 -844 
L 513 -844 
Q 928 -128 1133 580 
Q 1338 1288 1338 2009 
Q 1338 2731 1133 3434 
Q 928 4138 513 4856 
z
" transform="scale(0.015625)"/>
      </defs>
      <use xlink:href="#DejaVuSans-52"/>
      <use xlink:href="#DejaVuSans-75" transform="translate(64.982422 0)"/>
      <use xlink:href="#DejaVuSans-6e" transform="translate(128.361328 0)"/>
      <use xlink:href="#DejaVuSans-20" transform="translate(191.740234 0)"/>
      <use xlink:href="#DejaVuSans-54" transform="translate(223.527344 0)"/>
      <use xlink:href="#DejaVuSans-69" transform="translate(281.486328 0)"/>
      <use xlink:href="#DejaVuSans-6d" transform="translate(309.269531 0)"/>
      <use xlink:href="#DejaVuSans-65" transform="translate(406.681641 0)"/>
      <use xlink:href="#DejaVuSans-20" transform="translate(468.205078 0)"/>
      <use xlink:href="#DejaVuSans-28" transform="translate(499.992188 0)"/>
      <use xlink:href="#DejaVuSans-73" transform="translate(539.005859 0)"/>
      <use xlink:href="#DejaVuSans-65" transform="translate(591.105469 0)"/>
      <use xlink:href="#DejaVuSans-63" transform="translate(652.628906 0)"/>
      <use xlink:href="#DejaVuSans-6f" transform="translate(707.609375 0)"/>
      <use xlink:href="#DejaVuSans-6e" transform="translate(768.791016 0)"/>
      <use xlink:href="#DejaVuSans-64" transform="translate(832.169922 0)"/>
      <use xlink:href="#DejaVuSans-73" transform="translate(895.646484 0)"/>
      <use xlink:href="#DejaVuSans-29" transform="translate(947.746094 0)"/>
     </g>
    </g>
   </g>
   <g id="matplotlib.axis_2">
    <g id="ytick_1">
     <g id="line2d_11">
      <path d="M 36.625 390.04 
L 853.2 390.04 
" clip-path="url(#p080000883e)" style="fill: none; stroke: #b0b0b0; stroke-width: 0.8; stroke-linecap: square"/>
     </g>
     <g id="line2d_12">
      <defs>
       <path id="m81a7979195" d="M 0 0 
L -2 0 
" style="stroke: #000000; stroke-width: 0.6"/>
      </defs>
      <g>
       <use xlink:href="#m81a7979195" x="36.625" y="390.04" style="stroke: #000000; stroke-width: 0.6"/>
      </g>
     </g>
     <g id="text_7">
      <!-- 6 -->
      <g transform="translate(24.8625 393.839219) scale(0.1 -0.1)">
       <use xlink:href="#DejaVuSans-36"/>
      </g>
     </g>
    </g>
    <g id="ytick_2">
     <g id="line2d_13">
      <path d="M 36.625 211.49111 
L 853.2 211.49111 
" clip-path="url(#p080000883e)" style="fill: none; stroke: #b0b0b0; stroke-width: 0.8; stroke-linecap: square"/>
     </g>
     <g id="line2d_14">
      <g>
       <use xlink:href="#m81a7979195" x="36.625" y="211.49111" style="stroke: #000000; stroke-width: 0.6"/>
      </g>
     </g>
     <g id="text_8">
      <!-- 7 -->
      <g transform="translate(24.8625 215.290329) scale(0.1 -0.1)">
       <defs>
        <path id="DejaVuSans-37" d="M 525 4666 
L 3525 4666 
L 3525 4397 
L 1831 0 
L 1172 0 
L 2766 4134 
L 525 4134 
L 525 4666 
z
" transform="scale(0.015625)"/>
       </defs>
       <use xlink:href="#DejaVuSans-37"/>
      </g>
     </g>
    </g>
    <g id="ytick_3">
     <g id="line2d_15">
      <path d="M 36.625 56.825027 
L 853.2 56.825027 
" clip-path="url(#p080000883e)" style="fill: none; stroke: #b0b0b0; stroke-width: 0.8; stroke-linecap: square"/>
     </g>
     <g id="line2d_16">
      <g>
       <use xlink:href="#m81a7979195" x="36.625" y="56.825027" style="stroke: #000000; stroke-width: 0.6"/>
      </g>
     </g>
     <g id="text_9">
      <!-- 8 -->
      <g transform="translate(24.8625 60.624245) scale(0.1 -0.1)">
       <use xlink:href="#DejaVuSans-38"/>
      </g>
     </g>
    </g>
    <g id="text_10">
     <!-- Code Coverage [%] -->
     <g transform="translate(18.782812 249.009063) rotate(-90) scale(0.1 -0.1)">
      <defs>
       <path id="DejaVuSans-43" d="M 4122 4306 
L 4122 3641 
Q 3803 3938 3442 4084 
Q 3081 4231 2675 4231 
Q 1875 4231 1450 3742 
Q 1025 3253 1025 2328 
Q 1025 1406 1450 917 
Q 1875 428 2675 428 
Q 3081 428 3442 575 
Q 3803 722 4122 1019 
L 4122 359 
Q 3791 134 3420 21 
Q 3050 -91 2638 -91 
Q 1578 -91 968 557 
Q 359 1206 359 2328 
Q 359 3453 968 4101 
Q 1578 4750 2638 4750 
Q 3056 4750 3426 4639 
Q 3797 4528 4122 4306 
z
" transform="scale(0.015625)"/>
       <path id="DejaVuSans-76" d="M 191 3500 
L 800 3500 
L 1894 563 
L 2988 3500 
L 3597 3500 
L 2284 0 
L 1503 0 
L 191 3500 
z
" transform="scale(0.015625)"/>
       <path id="DejaVuSans-72" d="M 2631 2963 
Q 2534 3019 2420 3045 
Q 2306 3072 2169 3072 
Q 1681 3072 1420 2755 
Q 1159 2438 1159 1844 
L 1159 0 
L 581 0 
L 581 3500 
L 1159 3500 
L 1159 2956 
Q 1341 3275 1631 3429 
Q 1922 3584 2338 3584 
Q 2397 3584 2469 3576 
Q 2541 3569 2628 3553 
L 2631 2963 
z
" transform="scale(0.015625)"/>
       <path id="DejaVuSans-61" d="M 2194 1759 
Q 1497 1759 1228 1600 
Q 959 1441 959 1056 
Q 959 750 1161 570 
Q 1363 391 1709 391 
Q 2188 391 2477 730 
Q 2766 1069 2766 1631 
L 2766 1759 
L 2194 1759 
z
M 3341 1997 
L 3341 0 
L 2766 0 
L 2766 531 
Q 2569 213 2275 61 
Q 1981 -91 1556 -91 
Q 1019 -91 701 211 
Q 384 513 384 1019 
Q 384 1609 779 1909 
Q 1175 2209 1959 2209 
L 2766 2209 
L 2766 2266 
Q 2766 2663 2505 2880 
Q 2244 3097 1772 3097 
Q 1472 3097 1187 3025 
Q 903 2953 641 2809 
L 641 3341 
Q 956 3463 1253 3523 
Q 1550 3584 1831 3584 
Q 2591 3584 2966 3190 
Q 3341 2797 3341 1997 
z
" transform="scale(0.015625)"/>
       <path id="DejaVuSans-67" d="M 2906 1791 
Q 2906 2416 2648 2759 
Q 2391 3103 1925 3103 
Q 1463 3103 1205 2759 
Q 947 2416 947 1791 
Q 947 1169 1205 825 
Q 1463 481 1925 481 
Q 2391 481 2648 825 
Q 2906 1169 2906 1791 
z
M 3481 434 
Q 3481 -459 3084 -895 
Q 2688 -1331 1869 -1331 
Q 1566 -1331 1297 -1286 
Q 1028 -1241 775 -1147 
L 775 -588 
Q 1028 -725 1275 -790 
Q 1522 -856 1778 -856 
Q 2344 -856 2625 -561 
Q 2906 -266 2906 331 
L 2906 616 
Q 2728 306 2450 153 
Q 2172 0 1784 0 
Q 1141 0 747 490 
Q 353 981 353 1791 
Q 353 2603 747 3093 
Q 1141 3584 1784 3584 
Q 2172 3584 2450 3431 
Q 2728 3278 2906 2969 
L 2906 3500 
L 3481 3500 
L 3481 434 
z
" transform="scale(0.015625)"/>
       <path id="DejaVuSans-5b" d="M 550 4863 
L 1875 4863 
L 1875 4416 
L 1125 4416 
L 1125 -397 
L 1875 -397 
L 1875 -844 
L 550 -844 
L 550 4863 
z
" transform="scale(0.015625)"/>
       <path id="DejaVuSans-25" d="M 4653 2053 
Q 4381 2053 4226 1822 
Q 4072 1591 4072 1178 
Q 4072 772 4226 539 
Q 4381 306 4653 306 
Q 4919 306 5073 539 
Q 5228 772 5228 1178 
Q 5228 1588 5073 1820 
Q 4919 2053 4653 2053 
z
M 4653 2450 
Q 5147 2450 5437 2106 
Q 5728 1763 5728 1178 
Q 5728 594 5436 251 
Q 5144 -91 4653 -91 
Q 4153 -91 3862 251 
Q 3572 594 3572 1178 
Q 3572 1766 3864 2108 
Q 4156 2450 4653 2450 
z
M 1428 4353 
Q 1159 4353 1004 4120 
Q 850 3888 850 3481 
Q 850 3069 1003 2837 
Q 1156 2606 1428 2606 
Q 1700 2606 1854 2837 
Q 2009 3069 2009 3481 
Q 2009 3884 1853 4118 
Q 1697 4353 1428 4353 
z
M 4250 4750 
L 4750 4750 
L 1831 -91 
L 1331 -91 
L 4250 4750 
z
M 1428 4750 
Q 1922 4750 2215 4408 
Q 2509 4066 2509 3481 
Q 2509 2891 2217 2550 
Q 1925 2209 1428 2209 
Q 931 2209 642 2551 
Q 353 2894 353 3481 
Q 353 4063 643 4406 
Q 934 4750 1428 4750 
z
" transform="scale(0.015625)"/>
       <path id="DejaVuSans-5d" d="M 1947 4863 
L 1947 -844 
L 622 -844 
L 622 -397 
L 1369 -397 
L 1369 4416 
L 622 4416 
L 622 4863 
L 1947 4863 
z
" transform="scale(0.015625)"/>
      </defs>
      <use xlink:href="#DejaVuSans-43"/>
      <use xlink:href="#DejaVuSans-6f" transform="translate(69.824219 0)"/>
      <use xlink:href="#DejaVuSans-64" transform="translate(131.005859 0)"/>
      <use xlink:href="#DejaVuSans-65" transform="translate(194.482422 0)"/>
      <use xlink:href="#DejaVuSans-20" transform="translate(256.005859 0)"/>
      <use xlink:href="#DejaVuSans-43" transform="translate(287.792969 0)"/>
      <use xlink:href="#DejaVuSans-6f" transform="translate(357.617188 0)"/>
      <use xlink:href="#DejaVuSans-76" transform="translate(418.798828 0)"/>
      <use xlink:href="#DejaVuSans-65" transform="translate(477.978516 0)"/>
      <use xlink:href="#DejaVuSans-72" transform="translate(539.501953 0)"/>
      <use xlink:href="#DejaVuSans-61" transform="translate(580.615234 0)"/>
      <use xlink:href="#DejaVuSans-67" transform="translate(641.894531 0)"/>
      <use xlink:href="#DejaVuSans-65" transform="translate(705.371094 0)"/>
      <use xlink:href="#DejaVuSans-20" transform="translate(766.894531 0)"/>
      <use xlink:href="#DejaVuSans-5b" transform="translate(798.681641 0)"/>
      <use xlink:href="#DejaVuSans-25" transform="translate(837.695312 0)"/>
      <use xlink:href="#DejaVuSans-5d" transform="translate(932.714844 0)"/>
     </g>
    </g>
   </g>
   <g id="line2d_17">
    <path d="M 76.277426 433 
L 76.458725 416.895208 
L 76.582963 414.649302 
L 76.607811 414.53001 
L 76.756897 412.479873 
L 76.947396 409.088906 
L 77.278698 406.701982 
L 77.402937 406.178042 
L 77.717674 398.814477 
L 77.89989 394.798872 
L 77.916455 394.753769 
L 78.032411 392.365792 
L 78.264323 387.066782 
L 78.744711 376.896187 
L 81.842388 376.789602 
L 82.422167 374.390697 
L 82.985381 368.058571 
L 83.200728 364.487394 
L 83.258706 363.821904 
L 83.449205 361.117759 
L 84.691588 345.110555 
L 84.799262 344.447465 
L 84.981478 342.991944 
L 85.031173 342.781697 
L 85.056021 342.559632 
L 85.834581 335.54771 
L 85.967102 335.252048 
L 86.199014 333.637948 
L 86.232144 333.530991 
L 86.513751 331.478275 
L 86.555164 331.365113 
L 86.712533 330.798401 
L 86.745663 330.794133 
L 86.894749 329.887546 
L 87.02727 329.583732 
L 87.052118 329.489939 
L 87.242617 328.620581 
L 87.342007 328.482141 
L 87.656744 327.450749 
L 87.814113 327.1263 
L 87.971482 326.18857 
L 88.286219 325.47037 
L 88.45187 324.848148 
L 88.501565 324.715465 
L 88.74176 324.02894 
L 88.832868 323.97272 
L 88.965389 323.625915 
L 88.990236 323.534724 
L 89.213866 322.34777 
L 89.246996 322.253501 
L 89.404364 321.540912 
L 89.752232 320.774811 
L 89.893035 320.378204 
L 89.917883 320.268236 
L 90.042121 319.785134 
L 90.050404 319.78302 
L 90.174642 319.593851 
L 90.530792 318.833261 
L 90.704726 318.103775 
L 91.334201 317.100559 
L 91.491569 316.627208 
L 91.62409 316.558699 
L 91.756611 316.202516 
L 91.856002 316.09189 
L 92.054783 315.138836 
L 92.096196 315.051468 
L 92.212152 314.769409 
L 92.27013 314.667338 
L 92.410933 314.29175 
L 93.6616 313.177277 
L 93.785838 313.139446 
L 93.901794 313.028061 
L 93.984619 312.922991 
L 94.075728 312.717081 
L 94.224814 312.240268 
L 94.448443 312.060726 
L 94.572681 311.81928 
L 94.638942 311.71432 
L 95.301546 311.266245 
L 95.417502 311.158188 
L 95.533458 311.038602 
L 95.699109 310.737593 
L 95.790217 310.633779 
L 95.922738 310.514248 
L 96.063542 310.137908 
L 96.5108 309.892671 
L 96.618473 309.78055 
L 96.93321 309.673679 
L 97.074014 309.58777 
L 97.123709 309.559484 
L 97.25623 309.417019 
L 97.372186 309.309133 
L 97.537837 309.264097 
L 97.562685 309.25886 
L 97.670358 308.950985 
L 97.736619 308.828485 
L 97.852574 308.705999 
L 97.96853 308.586666 
L 98.25842 308.314549 
L 98.780221 308.208859 
L 98.921025 307.957754 
L 99.045263 307.772598 
L 99.227479 307.735989 
L 99.335153 307.624077 
L 99.608477 307.513221 
L 99.964627 307.344867 
L 100.088865 307.151446 
L 100.312494 306.995687 
L 100.445015 306.739619 
L 101.322967 306.096041 
L 101.447205 305.956089 
L 101.911028 305.853747 
L 102.118092 305.780651 
L 102.573633 305.686678 
L 102.689589 305.476831 
L 102.871805 305.381838 
L 102.987761 305.204399 
L 103.037456 305.198137 
L 103.161695 304.914294 
L 103.203108 304.779701 
L 103.327346 304.598183 
L 104.072776 304.168493 
L 104.188732 304.055882 
L 104.387513 303.831736 
L 104.627708 303.498204 
L 104.743664 303.415878 
L 104.876184 303.289795 
L 105.166074 303.083507 
L 105.306878 302.842884 
L 105.356573 302.758521 
L 105.489094 302.666875 
L 105.886657 302.573154 
L 106.010895 302.361788 
L 106.491283 302.251434 
L 106.822586 302.159828 
L 106.938542 301.998495 
L 107.054497 301.889217 
L 107.162171 301.784112 
L 107.269844 301.661328 
L 107.435495 301.544799 
L 107.625994 301.437644 
L 108.42112 301.328419 
L 108.537076 301.0996 
L 108.909791 301.002886 
L 109.025746 300.897861 
L 109.539265 300.762695 
L 109.969958 300.603635 
L 110.226718 300.542304 
L 110.740236 300.45603 
L 110.856192 300.362487 
L 111.62647 300.256481 
L 112.156554 299.879303 
L 112.802593 299.77438 
L 113.34096 299.497055 
L 113.813066 299.382821 
L 113.937304 299.128431 
L 114.301737 299.027728 
L 114.417692 298.90316 
L 114.533648 298.867868 
L 114.666169 298.74643 
L 114.939494 298.642648 
L 115.113427 298.490104 
L 115.361904 298.360406 
L 115.792597 298.084457 
L 116.148747 297.983845 
L 116.314398 297.849018 
L 116.885895 297.748427 
L 117.034981 297.689321 
L 117.266893 297.585633 
L 117.399414 297.554528 
L 118.078583 297.446706 
L 118.227669 297.402128 
L 118.832296 297.293283 
L 121.010609 296.86215 
L 121.689779 296.756463 
L 121.847148 296.696372 
L 122.691969 296.586557 
L 126.907791 295.74361 
L 127.015464 295.626639 
L 128.034219 295.380316 
L 128.150175 295.274765 
L 128.55602 295.195091 
L 129.251755 295.092661 
L 129.400841 295.058519 
L 142.901413 293.319673 
L 143.017368 293.226705 
L 144.243187 293.116186 
L 144.383991 293.070742 
L 144.781553 293.007743 
L 144.905792 292.922028 
L 145.112856 292.812571 
L 145.609809 292.742358 
L 146.595434 292.640145 
L 146.727955 292.609173 
L 147.945491 292.506971 
L 148.086294 292.476002 
L 149.254135 292.378973 
L 149.370091 292.293305 
L 150.496519 292.188035 
L 150.637323 292.150883 
L 150.902364 292.138499 
L 157.205392 291.46482 
L 158.472623 291.375094 
L 158.588579 291.282282 
L 159.888941 291.071935 
L 160.17883 291.029664 
L 160.294786 290.935849 
L 160.526698 290.908015 
L 160.634371 290.808025 
L 162.324013 290.697736 
L 162.613903 290.674031 
L 163.99709 290.566846 
L 164.146176 290.542113 
L 165.024127 290.448337 
L 165.131801 290.38342 
L 167.177593 290.274202 
L 167.326679 290.227839 
L 167.765654 290.186629 
L 167.88161 290.094942 
L 170.316683 289.989871 
L 170.482334 289.976481 
L 171.865521 289.873481 
L 172.031172 289.861122 
L 172.171976 289.817865 
L 172.279649 289.724148 
L 173.753945 289.617051 
L 174.010704 289.610873 
L 175.19511 289.557329 
L 175.311066 289.473928 
L 175.443587 289.449218 
L 175.808019 289.409066 
L 175.932258 289.326705 
L 177.116663 289.216558 
L 177.381705 289.156856 
L 180.313731 289.048783 
L 180.570491 289.002469 
L 181.067444 288.960273 
L 181.191682 288.875887 
L 182.707391 288.770927 
L 182.881324 288.763724 
L 183.775841 288.69993 
L 183.891797 288.607332 
L 186.252326 288.538403 
L 186.368282 288.447875 
L 187.378754 288.376898 
L 187.511275 288.283297 
L 188.621138 288.176334 
L 189.399698 288.05087 
L 192.265464 287.947013 
L 192.41455 287.932618 
L 193.855715 287.83494 
L 193.979953 287.812322 
L 195.719291 287.70129 
L 200.249851 287.318929 
L 200.382371 287.302486 
L 202.080296 287.191503 
L 207.820109 286.589503 
L 209.236427 286.513505 
L 209.352383 286.426216 
L 209.534599 286.413893 
L 211.497566 286.308129 
L 211.679782 286.293754 
L 212.566016 286.184922 
L 212.938731 286.160282 
L 215.415216 286.054541 
L 215.597432 286.047355 
L 216.831534 285.981657 
L 216.939207 285.892355 
L 217.195966 285.863616 
L 219.357714 285.760981 
L 219.5068 285.745587 
L 222.182067 285.638858 
L 222.389131 285.604994 
L 224.178163 285.534191 
L 224.294119 285.45108 
L 226.985951 285.348481 
L 227.143319 285.320781 
L 229.048308 285.209988 
L 230.423213 285.151518 
L 233.761084 285.043818 
L 234.075821 285.008946 
L 235.193967 284.98228 
L 236.891891 284.879723 
L 237.04926 284.869468 
L 238.192253 284.838703 
L 240.478239 284.733083 
L 240.660456 284.718728 
L 242.896746 284.644903 
L 243.012702 284.562881 
L 245.46434 284.453185 
L 246.168357 284.433707 
L 248.984427 284.322999 
L 249.158361 284.268674 
L 252.214625 284.157981 
L 252.595623 284.133384 
L 253.829724 284.092391 
L 256.844576 283.98274 
L 256.968814 283.967369 
L 257.714244 283.939702 
L 260.6794 283.830065 
L 261.192919 283.816746 
L 263.876468 283.70917 
L 264.017272 283.6979 
L 267.330295 283.589311 
L 267.678163 283.540142 
L 270.088387 283.431567 
L 270.303734 283.386502 
L 273.426259 283.282038 
L 273.782409 283.248243 
L 277.575821 283.137648 
L 279.074964 283.063924 
L 281.758513 282.956417 
L 282.07325 282.924679 
L 285.949488 282.81821 
L 286.082009 282.797736 
L 289.254229 282.689231 
L 289.643509 282.661595 
L 294.546784 282.554126 
L 294.720718 282.543892 
L 296.816205 282.43848 
L 296.998421 282.424153 
L 298.116567 282.396523 
L 301.487568 282.292149 
L 301.661502 282.274754 
L 304.626658 282.165275 
L 304.800592 282.15709 
L 309.877801 282.048645 
L 310.267081 282.040461 
L 314.060493 281.931004 
L 314.234427 281.922821 
L 316.023459 281.819512 
L 316.180828 281.799056 
L 321.473383 281.690644 
L 321.672164 281.680417 
L 326.492614 281.574062 
L 326.666547 281.543384 
L 329.225858 281.438064 
L 329.391509 281.41966 
L 334.112568 281.309239 
L 334.236806 281.290837 
L 340.067728 281.188606 
L 340.200249 281.165095 
L 343.513272 281.058787 
L 343.728619 281.051632 
L 350.17245 280.942268 
L 350.379514 280.923872 
L 354.661597 280.813498 
L 355.009464 280.802257 
L 359.308112 280.691895 
L 359.424068 280.612196 
L 365.064491 280.514112 
L 365.197012 280.497766 
L 369.131227 280.400713 
L 369.255465 280.378239 
L 375.326581 280.267918 
L 376.279075 280.261789 
L 380.43692 280.154543 
L 380.561158 280.133095 
L 388.91826 280.024839 
L 389.158455 280.001351 
L 396.066109 279.891065 
L 398.981569 279.822653 
L 404.398363 279.712384 
L 404.530884 279.696049 
L 408.084102 279.586813 
L 408.672163 279.556188 
L 412.904551 279.445945 
L 414.171783 279.401034 
L 422.065061 279.293868 
L 422.280408 279.287744 
L 427.249943 279.179567 
L 427.581245 279.155076 
L 433.138842 279.050993 
L 433.304494 279.040789 
L 438.158073 278.940798 
L 438.356855 278.928555 
L 444.477666 278.818371 
L 444.817251 278.80919 
L 450.142936 278.699018 
L 451.261081 278.672496 
L 454.739756 278.562337 
L 455.021363 278.555198 
L 460.388461 278.454228 
L 460.54583 278.433832 
L 466.17797 278.323695 
L 466.351904 278.315537 
L 474.071249 278.207451 
L 474.775266 278.190118 
L 481.508987 278.080005 
L 484.093145 278.032088 
L 490.594954 277.929126 
L 490.719192 277.906699 
L 494.438061 277.796613 
L 494.769363 277.78744 
L 501.254607 277.677365 
L 501.585909 277.67125 
L 506.28212 277.563224 
L 506.406359 277.537748 
L 513.007558 277.426677 
L 513.322295 277.423621 
L 518.714241 277.315618 
L 518.846762 277.301354 
L 527.874752 277.190307 
L 529.084005 277.152614 
L 535.006035 277.046674 
L 535.130273 277.028339 
L 541.135128 276.923429 
L 541.317345 276.911207 
L 547.413308 276.826675 
L 547.520981 276.792049 
L 548.697105 276.758443 
L 558.818392 276.650502 
L 559.058586 276.633192 
L 566.131891 276.522209 
L 568.566964 276.48352 
L 579.574484 276.373569 
L 579.839526 276.35728 
L 591.294305 276.249377 
L 591.509652 276.236144 
L 592.197104 276.221894 
L 599.817058 276.11095 
L 600.860661 276.093648 
L 608.356377 275.991875 
L 608.538593 275.977627 
L 618.146361 275.869759 
L 618.444533 275.861619 
L 627.116373 275.752744 
L 628.093715 275.744604 
L 636.102949 275.633706 
L 637.080291 275.62455 
L 647.922161 275.513663 
L 648.60133 275.500439 
L 656.478044 275.389564 
L 656.635413 275.376341 
L 663.766696 275.27158 
L 663.990325 275.261409 
L 678.526216 275.158693 
L 678.650454 275.138354 
L 688.498417 275.027514 
L 688.796589 275.013278 
L 699.472807 274.9055 
L 699.630176 274.885165 
L 708.558775 274.781466 
L 708.724426 274.773333 
L 720.054966 274.672692 
L 720.179205 274.646263 
L 736.943104 274.537503 
L 737.166733 274.528355 
L 747.602757 274.43485 
L 747.751843 274.412492 
L 755.595427 274.301721 
L 756.688724 274.279364 
L 765.211478 274.169622 
L 765.675301 274.166574 
L 778.074292 274.057859 
L 778.256508 274.051763 
L 793.496416 273.952201 
L 793.653785 273.931883 
L 808.347045 273.821159 
L 810.699291 273.787638 
L 816.082955 273.735836 
L 816.082955 273.735836 
" clip-path="url(#p080000883e)" style="fill: none; stroke: #1f77b4; stroke-opacity: 0.7; stroke-width: 1.5; stroke-linecap: square"/>
   </g>
   <g id="line2d_18">
    <path d="M 75.256403 433 
L 75.266036 428.962578 
L 75.79612 424.708194 
L 75.936924 408.849193 
L 76.549833 408.484012 
L 76.690636 406.432009 
L 77.378089 406.39784 
L 77.659696 377.601452 
L 81.643607 377.601452 
L 81.834106 375.880694 
L 81.933496 374.794049 
L 82.347624 370.667443 
L 82.455297 370.557012 
L 82.604384 365.774433 
L 82.654079 365.763436 
L 82.877708 359.698035 
L 82.968816 358.34233 
L 83.275271 353.14198 
L 83.391227 353.054961 
L 83.623138 348.820702 
L 83.780507 348.495629 
L 83.904745 346.276742 
L 84.070396 344.126856 
L 84.128374 344.126856 
L 84.335438 342.487416 
L 84.376851 342.358085 
L 84.476242 341.399333 
L 84.608763 341.291658 
L 84.625328 341.291658 
L 84.774414 339.301466 
L 84.915217 339.065022 
L 85.113999 335.566995 
L 85.254802 335.37416 
L 85.395606 333.501045 
L 85.503279 333.372714 
L 85.586105 333.308554 
L 85.702061 333.233705 
L 85.826299 333.126786 
L 86.008515 332.955736 
L 86.041645 332.955736 
L 86.157601 331.887246 
L 86.265275 331.812489 
L 86.397795 330.905105 
L 86.563447 328.080757 
L 86.588294 328.080757 
L 86.712533 327.240113 
L 86.778793 327.240113 
L 86.886466 327.06993 
L 87.118378 326.984848 
L 87.325442 326.740272 
L 87.424833 325.87935 
L 87.855526 325.773107 
L 88.352479 325.220804 
L 88.493283 323.268613 
L 88.518131 323.247412 
L 88.783172 322.2302 
L 88.998519 322.124292 
L 89.122757 320.949362 
L 89.155888 320.907044 
L 89.304974 320.029302 
L 89.387799 320.018731 
L 89.478907 317.315687 
L 89.859905 317.273502 
L 89.975861 315.566297 
L 90.16636 315.545236 
L 90.389989 315.534706 
L 90.497662 314.860966 
L 90.539075 314.860966 
L 90.646748 313.809031 
L 90.895225 313.788002 
L 91.011181 313.651323 
L 91.110572 313.64081 
L 91.243092 312.77906 
L 91.276223 312.77906 
L 91.350766 311.959942 
L 91.781459 311.529612 
L 92.021653 311.529612 
L 92.129326 311.35123 
L 92.427498 311.319753 
L 92.560019 310.250063 
L 92.684258 310.040436 
L 92.990712 309.967075 
L 93.106668 309.128998 
L 93.214341 309.055695 
L 93.330297 307.506947 
L 94.01775 307.433746 
L 94.133706 307.224628 
L 94.183401 307.203718 
L 94.282792 306.378085 
L 94.481573 306.378085 
L 94.605811 306.137821 
L 94.69692 305.312947 
L 94.746615 305.312947 
L 95.019939 304.457369 
L 95.516893 304.363502 
L 95.641131 304.269643 
L 96.196063 304.227931 
L 96.287171 304.113229 
L 96.54393 304.071522 
L 96.676451 303.977687 
L 96.999471 303.894284 
L 97.082297 303.790039 
L 97.247948 303.790039 
L 97.363904 302.758521 
L 97.57925 302.758521 
L 97.703488 302.643965 
L 97.827727 302.633551 
L 97.985095 302.498182 
L 98.167312 302.414886 
L 98.299833 302.310774 
L 98.366093 302.310774 
L 98.523462 301.759138 
L 98.722243 301.66549 
L 98.904459 301.467813 
L 99.442826 301.374189 
L 99.732715 301.176562 
L 99.981192 301.166161 
L 100.105431 300.926976 
L 100.353907 300.833395 
L 100.461581 300.022679 
L 100.618949 299.212529 
L 100.801165 299.212529 
L 100.917121 299.067177 
L 101.712247 299.025652 
L 101.844768 298.859564 
L 102.880088 298.755771 
L 103.020891 298.745393 
L 103.492997 298.651988 
L 103.675213 298.153957 
L 104.495187 298.050227 
L 104.60286 297.956879 
L 105.190922 297.853167 
L 105.356573 297.842796 
L 105.464246 297.531719 
L 106.681782 297.469513 
L 106.797738 296.557551 
L 108.040122 296.453964 
L 109.000899 296.132905 
L 109.746329 296.029356 
L 110.135609 295.915463 
L 111.452536 295.832639 
L 111.62647 295.780877 
L 111.825251 295.67736 
L 112.156554 295.594552 
L 112.255944 295.553151 
L 112.363618 295.460003 
L 112.786028 295.428956 
L 112.910267 295.32547 
L 113.912456 295.232341 
L 114.069825 295.180606 
L 114.641321 295.077142 
L 114.773842 294.952998 
L 115.850575 294.849555 
L 116.032791 294.549621 
L 117.167502 294.518598 
L 117.275175 294.394514 
L 117.830107 294.394514 
L 117.93778 294.229089 
L 118.351908 294.001668 
L 118.467864 293.970659 
L 119.089056 293.867304 
L 119.536314 293.712288 
L 120.43083 293.670954 
L 120.546786 293.4953 
L 120.902936 293.4953 
L 121.035457 293.371325 
L 121.905126 293.268023 
L 122.087342 293.185388 
L 122.153602 292.999481 
L 123.677593 292.937518 
L 123.810114 292.565813 
L 124.100004 292.472905 
L 124.257372 292.369683 
L 125.947014 292.26647 
L 126.06297 292.235508 
L 126.203774 292.225188 
L 126.344577 292.080711 
L 127.471005 291.987842 
L 127.785742 291.915616 
L 128.431782 291.843394 
L 128.572586 291.688649 
L 129.566493 291.606126 
L 129.798404 291.47204 
L 131.37209 291.368907 
L 131.521177 291.348281 
L 132.531649 291.245159 
L 133.127993 291.17298 
L 133.616664 291.069873 
L 133.724337 291.038943 
L 135.057829 290.966776 
L 135.19035 290.832764 
L 135.80326 290.791532 
L 135.960628 290.585397 
L 137.865617 290.544174 
L 137.97329 290.461733 
L 141.352574 290.35869 
L 141.402269 290.327779 
L 142.992521 290.245353 
L 143.083629 290.204143 
L 144.375708 290.14233 
L 144.491664 290.08052 
L 146.139893 290.070219 
L 146.272414 289.95691 
L 146.669977 289.884811 
L 146.77765 289.833314 
L 148.13599 289.802416 
L 148.227098 289.668539 
L 148.889703 289.565566 
L 149.452917 289.225822 
L 149.56059 289.009673 
L 149.809067 289.009673 
L 149.925022 288.845015 
L 151.283362 288.793565 
L 151.449013 288.731827 
L 152.037075 288.639226 
L 152.360095 288.587784 
L 153.950346 288.546633 
L 154.066302 288.474621 
L 155.51575 288.382041 
L 155.755944 288.207187 
L 158.0088 288.104345 
L 158.149603 288.03236 
L 160.029744 287.980946 
L 160.17883 287.908969 
L 161.719386 287.826715 
L 161.885038 287.795872 
L 162.655316 287.765029 
L 162.796119 287.682786 
L 165.314017 287.590269 
L 165.429973 287.466924 
L 166.904268 287.39498 
L 167.036789 287.292209 
L 167.119615 287.292209 
L 167.243853 287.086695 
L 167.997566 287.086695 
L 168.130087 286.963405 
L 171.940064 286.870945 
L 172.08915 286.8504 
L 176.859904 286.768221 
L 176.94273 286.716863 
L 177.240902 286.644964 
L 177.348575 286.521721 
L 177.862094 286.511451 
L 178.002897 286.182868 
L 178.549546 286.111003 
L 178.673785 285.987816 
L 179.601431 285.957022 
L 179.709104 285.751745 
L 180.86038 285.64912 
L 180.992901 285.525982 
L 183.187779 285.454158 
L 183.278887 285.351559 
L 187.469862 285.24897 
L 188.306401 285.10536 
L 191.031362 285.013049 
L 191.230144 284.972024 
L 194.046214 284.869468 
L 194.236713 284.838703 
L 195.354858 284.736159 
L 195.512227 284.705398 
L 199.612093 284.602866 
L 199.703202 284.520846 
L 204.415978 284.459336 
L 204.565064 284.377327 
L 209.236427 284.295324 
L 209.418643 284.233825 
L 211.903411 284.131335 
L 212.292691 284.090341 
L 212.739949 283.987863 
L 212.889035 283.977616 
L 215.125326 283.977616 
L 215.224717 283.772689 
L 215.630562 283.711219 
L 217.146271 283.608774 
L 217.552116 283.59853 
L 219.308019 283.496096 
L 219.804972 283.485853 
L 222.074393 283.444883 
L 222.173784 283.301496 
L 223.159409 283.260532 
L 223.267082 283.055732 
L 225.453677 282.953346 
L 225.586198 282.943108 
L 229.048308 282.881681 
L 229.172546 282.799784 
L 231.301164 282.717892 
L 231.408837 282.574596 
L 232.493852 282.513188 
L 232.642938 282.400617 
L 233.968148 282.400617 
L 234.084104 282.257359 
L 235.989092 282.2062 
L 236.096766 282.062967 
L 237.264606 281.991357 
L 237.488235 281.79701 
L 243.824393 281.694735 
L 243.990044 281.664054 
L 245.870185 281.572017 
L 245.969576 281.531114 
L 249.439968 281.479987 
L 249.597337 281.418637 
L 251.394652 281.347067 
L 251.510608 281.244832 
L 253.225097 281.142606 
L 253.813159 281.101718 
L 256.455295 281.081274 
L 256.596099 280.92796 
L 257.697679 280.85642 
L 257.772222 280.815542 
L 265.49985 280.723572 
L 265.615806 280.692917 
L 269.815063 280.59074 
L 269.931019 280.580522 
L 273.484237 280.529437 
L 273.600192 280.417058 
L 279.041834 280.335335 
L 279.124659 280.30469 
L 285.460817 280.202547 
L 285.626468 280.171906 
L 290.19844 280.079987 
L 290.289549 280.008499 
L 296.203296 279.906382 
L 296.335817 279.743013 
L 297.627896 279.640919 
L 297.727287 279.589876 
L 305.040786 279.487795 
L 305.239568 279.416345 
L 313.803733 279.314279 
L 314.010797 279.304073 
L 322.40103 279.202018 
L 322.574963 279.191813 
L 325.101144 279.099972 
L 325.183969 279.059156 
L 326.343528 278.997935 
L 326.509179 278.875502 
L 330.393699 278.773485 
L 330.501372 278.630676 
L 333.507941 278.569477 
L 333.63218 278.457288 
L 339.637035 278.365505 
L 339.736425 278.243139 
L 340.175401 278.171765 
L 340.316205 278.120786 
L 341.036787 278.059614 
L 341.152743 277.978057 
L 343.770032 277.876119 
L 344.068204 277.865925 
L 346.834578 277.784382 
L 346.875991 277.641695 
L 349.311064 277.631503 
L 349.410454 277.488835 
L 349.683779 277.488835 
L 349.808017 277.346184 
L 352.359045 277.244301 
L 352.367328 277.213738 
L 353.518604 277.20355 
L 353.642842 277.060934 
L 354.529076 277.02019 
L 354.678162 276.897966 
L 357.825534 276.847044 
L 357.933207 276.765572 
L 359.614567 276.694289 
L 359.705675 276.633192 
L 359.879609 276.551735 
L 360.070108 276.470284 
L 361.875705 276.429561 
L 361.958531 276.358298 
L 363.316871 276.327759 
L 363.341718 275.534008 
L 363.904932 275.452629 
L 364.020888 275.361084 
L 365.197012 275.259375 
L 365.362663 275.249205 
L 366.083245 275.218694 
L 366.232331 275.066154 
L 366.629894 275.055985 
L 366.770698 274.913634 
L 368.13732 274.811965 
L 368.236711 274.669643 
L 369.363139 274.588324 
L 369.487377 274.527339 
L 370.771174 274.435867 
L 370.936825 274.405378 
L 372.046688 274.313915 
L 372.179209 274.171655 
L 372.493946 274.080211 
L 372.659597 274.049731 
L 373.719765 273.948138 
L 373.959959 273.917661 
L 375.210625 273.866869 
L 375.351429 273.70435 
L 377.778219 273.602787 
L 378.357998 273.592631 
L 379.04545 273.552009 
L 379.153123 273.409842 
L 380.072487 273.409842 
L 380.180161 273.267692 
L 380.486615 273.247387 
L 380.610854 273.105257 
L 380.768222 273.105257 
L 380.875896 272.963145 
L 381.919498 272.892095 
L 382.093432 272.800752 
L 383.377228 272.699269 
L 383.758226 272.394871 
L 384.379418 272.313711 
L 384.453961 272.222414 
L 384.93435 272.21227 
L 385.050305 272.070268 
L 385.199391 271.999273 
L 387.021554 271.928282 
L 387.13751 271.786314 
L 389.009369 271.705198 
L 389.108759 271.67478 
L 390.177209 271.664642 
L 390.284883 271.502431 
L 392.05735 271.461882 
L 392.156741 271.380788 
L 393.929209 271.309835 
L 394.012034 271.249022 
L 396.993755 271.178078 
L 397.142841 271.036202 
L 398.252704 270.934873 
L 398.468051 270.914608 
L 399.544783 270.813289 
L 399.652457 270.752502 
L 400.497278 270.661328 
L 400.621516 270.600549 
L 401.358664 270.560031 
L 401.466337 270.489129 
L 402.692156 270.428359 
L 402.824677 270.33721 
L 402.940633 270.327083 
L 403.147697 270.246068 
L 403.247087 270.165059 
L 406.692632 270.063806 
L 406.874848 270.013183 
L 407.07363 270.013183 
L 407.20615 269.87145 
L 407.288976 269.87145 
L 407.380084 269.729734 
L 410.187872 269.648761 
L 410.411501 269.618398 
L 410.949867 269.598156 
L 411.040975 269.456473 
L 411.297735 269.405877 
L 411.397125 269.163043 
L 412.747182 269.092226 
L 412.887986 268.960721 
L 413.707959 268.859573 
L 413.815633 268.82923 
L 414.635606 268.728094 
L 414.950343 268.647191 
L 416.167879 268.556182 
L 416.482616 268.485402 
L 417.070678 268.384296 
L 417.161786 268.353966 
L 418.354475 268.273089 
L 418.470431 268.192218 
L 419.563728 268.161893 
L 419.721097 268.000172 
L 420.872373 267.979959 
L 420.988329 267.808158 
L 421.013176 267.808158 
L 421.129132 267.666694 
L 422.056779 267.565659 
L 422.247277 267.545453 
L 423.332293 267.444429 
L 423.580769 267.414123 
L 424.094288 267.363616 
L 424.259939 267.303009 
L 424.458721 267.191906 
L 424.624372 267.161607 
L 426.098667 267.060616 
L 426.239471 266.959634 
L 426.860663 266.777889 
L 427.042879 266.626456 
L 427.722049 266.575983 
L 427.838005 266.49523 
L 428.318393 266.475043 
L 428.450914 266.313557 
L 428.873325 266.293373 
L 428.98928 266.131913 
L 429.038976 266.131913 
L 429.154932 265.980564 
L 429.751276 265.960386 
L 429.850667 265.788885 
L 430.803161 265.677927 
L 431.209006 265.66784 
L 431.465766 265.66784 
L 431.598287 265.486297 
L 432.525933 265.415705 
L 432.650172 265.335033 
L 433.09743 265.335033 
L 433.254798 265.173706 
L 433.494993 265.153542 
L 433.892555 265.072888 
L 434.008511 264.921678 
L 434.679398 264.841041 
L 434.770507 264.760409 
L 435.780979 264.730174 
L 435.921782 264.558854 
L 435.988043 264.558854 
L 436.128846 264.397636 
L 438.257464 264.286811 
L 438.597049 264.206218 
L 438.820678 264.206218 
L 438.953199 264.055121 
L 441.404836 263.944329 
L 441.479379 263.763055 
L 441.711291 263.752986 
L 441.835529 263.591879 
L 442.150267 263.581811 
L 442.307635 263.440862 
L 442.821154 263.420728 
L 442.995088 263.128823 
L 445.413595 263.058374 
L 445.521268 262.887302 
L 447.053541 262.786683 
L 447.202628 262.676012 
L 448.097144 262.585471 
L 448.24623 262.474819 
L 448.900552 262.464761 
L 449.041356 262.313891 
L 449.521744 262.223378 
L 449.654265 262.112761 
L 449.753656 262.052429 
L 450.946344 261.9921 
L 451.0623 261.881505 
L 452.023077 261.811132 
L 452.081055 261.700555 
L 457.332197 260.625487 
L 457.43987 260.474856 
L 457.920259 260.464815 
L 458.160453 260.223848 
L 458.558016 260.113422 
L 458.756797 260.093346 
L 459.295164 260.083308 
L 459.419402 259.972895 
L 460.347049 259.882565 
L 460.454722 259.732031 
L 460.96824 259.661788 
L 461.067631 259.511283 
L 462.367993 259.50125 
L 462.475666 259.390892 
L 464.016222 259.310639 
L 464.140461 259.170209 
L 464.297829 259.170209 
L 464.388937 259.019768 
L 465.391127 258.929512 
L 465.515365 258.819209 
L 468.538499 258.718943 
L 468.63789 258.698891 
L 468.770411 258.548511 
L 469.035453 258.538486 
L 469.159691 258.388126 
L 469.573819 258.338011 
L 469.70634 258.25783 
L 470.733377 258.217742 
L 470.832768 258.107507 
L 471.172353 258.077445 
L 472.737757 258.047383 
L 472.861995 257.897088 
L 472.977951 257.786883 
L 473.797924 257.756829 
L 473.938728 257.536457 
L 474.162357 257.536457 
L 474.27003 257.386227 
L 475.586957 257.376213 
L 475.802304 257.125876 
L 476.158454 257.125876 
L 476.290975 256.925645 
L 476.879036 256.865582 
L 476.970144 256.755476 
L 477.284882 256.655388 
L 477.44225 256.59534 
L 477.682444 256.575324 
L 477.7984 256.465245 
L 480.821534 256.385195 
L 480.978903 256.275134 
L 483.968907 256.215105 
L 484.07658 256.07505 
L 485.318964 255.965019 
L 485.46805 255.794991 
L 486.031264 255.684986 
L 486.163785 255.574992 
L 489.278027 255.475006 
L 489.3857 255.315047 
L 490.694344 255.27506 
L 490.868278 255.165105 
L 491.224428 255.155109 
L 491.398362 254.885265 
L 491.986424 254.875272 
L 492.143792 254.765355 
L 496.069725 254.665439 
L 496.218811 254.625475 
L 497.013937 254.515581 
L 497.138175 254.445654 
L 499.523552 254.335778 
L 499.664356 254.305813 
L 502.04145 254.215924 
L 502.165689 254.106069 
L 503.838765 254.086097 
L 503.987852 253.926329 
L 505.818297 253.896375 
L 505.959101 253.746617 
L 507.524504 253.726651 
L 507.632177 253.60686 
L 507.938632 253.497063 
L 508.062871 253.477101 
L 508.924257 253.407237 
L 509.048495 253.257542 
L 509.139603 253.237584 
L 509.255559 253.127822 
L 511.483567 253.087911 
L 511.574676 252.978163 
L 513.579055 252.948233 
L 513.670163 252.798598 
L 518.681111 252.688877 
L 519.964908 252.579167 
L 523.451865 252.499384 
L 523.600951 252.389692 
L 525.920068 252.349806 
L 526.069154 252.200248 
L 526.400456 252.170339 
L 526.499847 252.060678 
L 530.235281 251.951027 
L 530.351237 251.821453 
L 533.498609 251.811487 
L 533.614565 251.661998 
L 534.583624 251.661998 
L 534.716145 251.4926 
L 539.329531 251.422855 
L 539.470334 251.353115 
L 542.40236 251.313265 
L 542.510033 251.203685 
L 550.370182 251.114037 
L 550.49442 251.004475 
L 551.463479 250.894925 
L 551.604283 250.785384 
L 556.399884 250.685811 
L 556.540688 250.606159 
L 557.576008 250.606159 
L 557.683681 250.456825 
L 557.84105 250.436916 
L 558.23033 250.426961 
L 558.379416 250.287604 
L 563.274408 250.178121 
L 563.580863 250.168169 
L 568.417877 250.098504 
L 568.558681 250.048745 
L 570.770124 250.018892 
L 570.877797 249.909434 
L 574.671209 249.799987 
L 574.820296 249.790037 
L 576.087527 249.680602 
L 576.278026 249.571176 
L 580.129416 249.501547 
L 580.245372 249.441868 
L 582.854378 249.41203 
L 582.937203 249.26285 
L 583.599808 249.242961 
L 591.236327 249.163408 
L 591.368848 249.11369 
L 596.222428 249.004318 
L 596.412927 248.984433 
L 599.684537 248.894956 
L 599.825341 248.785605 
L 600.993182 248.765724 
L 601.15055 248.596749 
L 602.848475 248.487426 
L 604.049446 248.46755 
L 605.507176 248.407925 
L 605.639697 248.258874 
L 607.229949 248.258874 
L 607.354187 248.109843 
L 613.980234 248.0105 
L 614.06306 247.901232 
L 617.226997 247.791974 
L 617.367801 247.782042 
L 618.842096 247.672796 
L 619.355615 247.662865 
L 620.299827 247.633072 
L 621.740992 247.613211 
L 621.848665 247.503981 
L 622.966811 247.39476 
L 623.099332 247.374903 
L 623.911022 247.265695 
L 624.00213 247.126718 
L 628.126845 247.017534 
L 628.441582 247.007608 
L 636.218905 246.898435 
L 636.450817 246.88851 
L 640.567248 246.779348 
L 641.378939 246.769425 
L 648.916068 246.660274 
L 649.032024 246.64043 
L 655.94796 246.531291 
L 656.121894 246.511448 
L 661.745751 246.402322 
L 661.977663 246.392402 
L 669.713573 246.293205 
L 669.796399 246.273367 
L 674.003939 246.184099 
L 674.161307 246.025418 
L 681.358851 245.926253 
L 681.491372 245.88659 
L 690.767838 245.777522 
L 691.198531 245.757692 
L 691.885983 245.648637 
L 692.382937 245.62881 
L 695.215572 245.589156 
L 695.33981 245.440468 
L 697.0543 245.440468 
L 697.170256 245.281889 
L 708.567057 245.172878 
L 708.873512 245.162968 
L 711.913211 245.053968 
L 712.07058 244.944979 
L 713.445484 244.836 
L 713.834765 244.816187 
L 714.116372 244.756749 
L 714.265458 244.627977 
L 719.731947 244.519028 
L 720.063249 244.479412 
L 721.338763 244.370477 
L 721.504414 244.340769 
L 724.221093 244.241748 
L 724.453005 244.221945 
L 727.18625 244.122935 
L 727.327053 244.103134 
L 729.563344 244.043732 
L 729.671017 243.895243 
L 733.282213 243.79626 
L 733.53069 243.776464 
L 736.562106 243.687389 
L 736.70291 243.538945 
L 743.138458 243.439992 
L 743.320674 243.39052 
L 748.165971 243.281687 
L 748.455861 243.2619 
L 752.398359 243.153079 
L 752.580575 243.133294 
L 753.831242 243.103618 
L 753.996893 242.994812 
L 759.960335 242.886016 
L 760.092856 242.866236 
L 764.714524 242.806899 
L 764.822197 242.747564 
L 766.395884 242.648679 
L 766.660925 242.619015 
L 773.038496 242.510255 
L 773.220712 242.480595 
L 776.310107 242.381733 
L 776.459193 242.361961 
L 779.904737 242.302649 
L 780.053823 242.144499 
L 783.988039 242.065432 
L 784.103995 242.006135 
L 787.03602 241.936959 
L 787.143694 241.877669 
L 789.388267 241.768978 
L 789.504223 241.759097 
L 790.763172 241.739336 
L 790.763172 241.739336 
" clip-path="url(#p080000883e)" style="fill: none; stroke: #ff7f0e; stroke-opacity: 0.7; stroke-width: 1.5; stroke-linecap: square"/>
   </g>
   <g id="line2d_19">
    <path d="M 78.899159 433 
L 79.042883 425.432769 
L 79.142274 422.010074 
L 79.349338 416.162743 
L 79.697205 409.96028 
L 79.821444 407.81044 
L 81.10524 388.59057 
L 81.154936 388.33656 
L 81.444825 386.537093 
L 81.651889 385.979669 
L 82.488428 381.979243 
L 82.687209 380.706943 
L 83.581725 378.582873 
L 83.689399 378.493921 
L 83.838485 378.403865 
L 83.987571 378.312149 
L 84.227765 377.609784 
L 85.130564 374.907655 
L 85.337628 373.94983 
L 85.403888 373.628148 
L 85.594387 372.738865 
L 85.627518 372.634321 
L 86.199014 369.624844 
L 86.513751 367.676834 
L 86.729098 366.282608 
L 86.770511 366.063142 
L 87.118378 363.577658 
L 87.872091 358.242355 
L 88.932259 350.244508 
L 89.1973 348.068299 
L 90.539075 339.738477 
L 90.605335 339.514307 
L 90.779269 338.511179 
L 90.804117 338.402698 
L 91.317636 335.42558 
L 91.359048 335.340953 
L 91.524699 334.312535 
L 91.55783 334.204981 
L 91.740046 333.139615 
L 91.756611 333.050345 
L 91.963675 331.899528 
L 92.187304 330.942454 
L 92.212152 330.899769 
L 92.394368 330.03042 
L 92.59315 329.362584 
L 92.642845 329.283727 
L 93.189494 327.081097 
L 93.206059 326.984316 
L 93.752708 325.293013 
L 93.901794 324.619412 
L 94.11714 323.916503 
L 94.208249 323.810441 
L 94.3739 323.533133 
L 94.423595 323.464214 
L 94.630659 322.682537 
L 94.705202 322.567582 
L 94.879136 322.026336 
L 94.928831 321.96386 
L 95.102765 321.514979 
L 95.160743 321.407019 
L 95.293264 321.268909 
L 95.458915 320.831934 
L 95.500328 320.772167 
L 95.682544 320.235459 
L 95.740522 320.129205 
L 95.881325 319.975391 
L 96.088389 319.476033 
L 96.12152 319.39362 
L 96.278888 319.108389 
L 96.336866 318.993789 
L 96.47767 318.790493 
L 96.552213 318.670644 
L 96.93321 318.19454 
L 97.065731 317.952341 
L 97.305926 317.595202 
L 97.471577 316.975614 
L 97.645511 316.66937 
L 97.802879 316.452781 
L 97.960248 316.188292 
L 98.009943 316.082935 
L 98.233572 315.533126 
L 98.299833 315.432567 
L 98.465484 315.15989 
L 98.523462 315.056731 
L 98.705678 314.533186 
L 98.879612 314.390633 
L 99.053546 314.273868 
L 99.177784 314.076658 
L 99.302022 313.973596 
L 99.434543 313.88579 
L 99.625042 313.473139 
L 99.691303 313.424261 
L 99.823824 313.206177 
L 100.221386 312.891997 
L 100.345625 312.823183 
L 100.461581 312.754899 
L 100.569254 312.675063 
L 100.701775 312.561623 
L 100.842578 312.443467 
L 100.983382 312.299071 
L 101.339532 312.144718 
L 101.480335 311.862317 
L 101.679117 311.503903 
L 101.712247 311.417333 
L 101.886181 311.088428 
L 102.217483 310.752799 
L 102.482525 310.478076 
L 102.615046 310.388962 
L 102.78898 310.001659 
L 102.88837 309.895291 
L 103.012609 309.764833 
L 103.120282 309.683632 
L 103.269368 309.442158 
L 103.476432 309.331652 
L 103.617236 309.180836 
L 103.724909 309.008051 
L 103.849147 308.884498 
L 103.931973 308.781374 
L 104.089341 308.593993 
L 104.18045 308.496651 
L 104.304688 308.37106 
L 104.677403 308.285771 
L 104.809924 308.159157 
L 105.066683 308.038834 
L 105.207487 307.992801 
L 105.331725 307.890278 
L 105.480811 307.676371 
L 105.621615 307.614141 
L 105.754136 307.46564 
L 105.977765 307.27429 
L 106.118568 307.069905 
L 108.139513 305.340085 
L 108.263751 305.156391 
L 108.479098 305.038989 
L 108.677879 304.940379 
L 109.000899 304.755706 
L 109.149985 304.589316 
L 109.655221 304.219067 
L 109.771177 304.113229 
L 110.077631 303.92556 
L 110.20187 303.819227 
L 110.292978 303.72437 
L 110.450347 303.418483 
L 111.071539 302.98871 
L 111.33658 302.766853 
L 111.527079 302.604914 
L 111.974337 302.309733 
L 112.139989 302.037005 
L 112.30564 301.942814 
L 112.487856 301.762259 
L 112.520986 301.619189 
L 112.645225 301.538036 
L 112.72805 301.468853 
L 112.852289 301.386671 
L 113.167026 301.241047 
L 113.291264 301.085041 
L 113.622567 300.980009 
L 114.05326 300.771532 
L 114.243759 300.673806 
L 114.367997 300.583884 
L 114.641321 300.52931 
L 114.898081 300.3734 
L 115.022319 300.290256 
L 115.171405 300.162954 
L 115.419882 300.066318 
L 115.651794 299.915145 
L 115.776032 299.831515 
L 116.082487 299.724519 
L 116.877612 299.171517 
L 118.426451 298.517602 
L 118.666645 298.403464 
L 118.790883 298.336025 
L 119.097338 298.245246 
L 119.238142 298.128024 
L 119.561161 298.018073 
L 120.422548 297.760871 
L 120.629612 297.615183 
L 120.770415 297.468477 
L 121.457867 297.315051 
L 122.203298 297.064223 
L 122.410362 296.985462 
L 122.5346 296.915514 
L 123.064684 296.79739 
L 123.188922 296.730043 
L 123.85981 296.511972 
L 124.439589 296.410461 
L 124.903412 296.247855 
L 125.209867 296.120478 
L 125.549452 296.053171 
L 126.021557 295.914428 
L 126.518511 295.746715 
L 127.015464 295.640613 
L 127.247376 295.613701 
L 128.4235 295.361689 
L 128.837627 295.252001 
L 129.417407 295.119044 
L 129.707296 295.054898 
L 129.831535 294.998516 
L 131.073918 294.736295 
L 131.322395 294.579611 
L 131.653697 294.513945 
L 131.794501 294.441044 
L 131.918739 294.376419 
L 132.233477 294.322654 
L 132.920929 294.212548 
L 133.111428 294.136048 
L 133.666359 294.034745 
L 133.790598 293.981512 
L 134.030792 293.870404 
L 134.875613 293.707638 
L 135.447109 293.645637 
L 136.002041 293.535078 
L 136.987665 293.403351 
L 137.675118 293.308827 
L 137.799356 293.266474 
L 138.420548 293.155434 
L 138.65246 293.117219 
L 139.132848 293.014456 
L 139.290217 292.997415 
L 140.135038 292.894147 
L 140.325537 292.797082 
L 140.689969 292.719127 
L 141.402269 292.60814 
L 141.774984 292.565813 
L 144.276317 292.143659 
L 144.599337 292.088966 
L 145.203964 291.983199 
L 145.41931 291.956371 
L 146.115045 291.857322 
L 146.231001 291.809864 
L 146.959866 291.698964 
L 148.078012 291.518968 
L 148.23538 291.50556 
L 148.782029 291.400361 
L 149.278983 291.316828 
L 149.809067 291.212678 
L 149.958153 291.197726 
L 150.314303 291.114723 
L 150.430259 291.062141 
L 151.37447 290.951312 
L 155.532315 290.359205 
L 155.673118 290.298929 
L 155.83877 290.283475 
L 157.072871 290.098032 
L 157.346195 290.083095 
L 158.025365 289.990386 
L 158.141321 289.926525 
L 158.953012 289.81838 
L 159.118663 289.809626 
L 160.096005 289.698917 
L 160.269939 289.685015 
L 160.973956 289.581526 
L 163.375898 289.322073 
L 163.524984 289.297881 
L 164.866759 289.104362 
L 165.024127 289.092011 
L 165.868948 289.011732 
L 165.984904 288.953584 
L 167.161028 288.845015 
L 167.691111 288.796137 
L 168.718149 288.68604 
L 169.090864 288.663919 
L 170.672833 288.555377 
L 170.896462 288.545604 
L 172.594386 288.434502 
L 172.917406 288.395413 
L 174.134942 288.289468 
L 174.358571 288.264783 
L 175.965388 288.155765 
L 176.197299 288.131083 
L 177.158076 288.031332 
L 177.290597 288.014879 
L 178.889131 287.90537 
L 179.11276 287.890461 
L 180.206058 287.785591 
L 180.371709 287.760403 
L 183.775841 287.442257 
L 183.949775 287.419646 
L 185.755372 287.308652 
L 186.939778 287.199723 
L 189.234047 287.093374 
L 189.681305 287.070256 
L 191.097623 286.967514 
L 191.254992 286.937207 
L 193.035742 286.831909 
L 193.217958 286.812905 
L 193.714912 286.74511 
L 194.9076 286.638802 
L 195.139512 286.613639 
L 196.72148 286.503749 
L 196.911979 286.481669 
L 198.493948 286.371279 
L 199.032314 286.351255 
L 200.680544 286.24293 
L 200.89589 286.224963 
L 202.560684 286.117163 
L 202.742901 286.10741 
L 204.581629 285.999621 
L 204.854953 285.982684 
L 206.586008 285.874906 
L 206.759942 285.864129 
L 209.37723 285.75431 
L 210.106096 285.687603 
L 211.613521 285.578827 
L 211.953106 285.568566 
L 214.321918 285.463905 
L 214.479287 285.446462 
L 216.483666 285.338222 
L 217.113141 285.314113 
L 219.018129 285.210501 
L 219.167215 285.198191 
L 221.246137 285.08741 
L 227.557447 284.807939 
L 229.677782 284.697708 
L 231.980334 284.524435 
L 233.785932 284.420381 
L 233.9433 284.401416 
L 236.784218 284.290711 
L 237.653887 284.240487 
L 239.741092 284.130822 
L 240.055829 284.106738 
L 242.184446 283.999135 
L 242.764226 283.985814 
L 245.414644 283.875148 
L 246.193205 283.843385 
L 249.332295 283.733245 
L 250.110855 283.701486 
L 253.100859 283.59136 
L 254.318395 283.551922 
L 257.324964 283.442834 
L 257.498898 283.433104 
L 268.092291 282.889359 
L 272.390939 282.778286 
L 275.579724 282.692302 
L 279.166072 282.582783 
L 279.696156 282.564873 
L 282.628182 282.454854 
L 282.835246 282.448202 
L 287.887607 282.337172 
L 288.144366 282.318753 
L 291.357999 282.207735 
L 295.34191 282.072686 
L 298.977953 281.962203 
L 299.698536 281.94021 
L 302.46491 281.830763 
L 302.680257 281.81542 
L 306.308018 281.707007 
L 306.465386 281.693201 
L 310.614948 281.584288 
L 310.81373 281.559234 
L 314.938444 281.449312 
L 315.12066 281.428862 
L 319.551829 281.323041 
L 319.734046 281.315373 
L 325.200535 281.204452 
L 325.457294 281.197807 
L 329.755942 281.089963 
L 329.946441 281.06492 
L 333.425116 280.955044 
L 333.657027 280.949423 
L 338.286978 280.84058 
L 338.452629 280.830871 
L 342.610473 280.719996 
L 344.954438 280.686275 
L 350.106189 280.575414 
L 352.756608 280.522796 
L 357.162929 280.413994 
L 357.403124 280.407353 
L 362.911025 280.296518 
L 365.404076 280.253107 
L 371.433778 280.145351 
L 371.847906 280.132584 
L 375.889795 280.023818 
L 376.19625 280.012584 
L 381.198915 279.901787 
L 382.308778 279.876259 
L 386.681969 279.765986 
L 386.947011 279.755776 
L 391.659787 279.645513 
L 393.945774 279.615908 
L 401.516032 279.505659 
L 401.689966 279.496982 
L 406.891413 279.386234 
L 409.56668 279.332651 
L 416.582007 279.222939 
L 416.94644 279.214264 
L 424.409025 279.104564 
L 424.624372 279.097421 
L 429.92521 278.987732 
L 430.140556 278.98263 
L 434.26527 278.872442 
L 434.919593 278.86428 
L 441.785834 278.753592 
L 442.862567 278.73217 
L 451.410167 278.623536 
L 451.700057 278.618436 
L 458.185301 278.511341 
L 458.326104 278.497573 
L 464.115613 278.38692 
L 467.436919 278.293613 
L 475.885129 278.18502 
L 476.431778 278.177883 
L 483.604474 278.067261 
L 485.53431 278.059614 
L 492.408834 277.950533 
L 492.88094 277.947475 
L 498.952056 277.837894 
L 499.333053 277.835346 
L 501.61904 277.805787 
L 510.365422 277.694691 
L 510.920353 277.687556 
L 517.885985 277.577491 
L 518.540308 277.569338 
L 523.377322 277.458265 
L 524.006796 277.454189 
L 530.690822 277.344146 
L 530.980711 277.34007 
L 540.62161 277.231057 
L 540.911499 277.226472 
L 549.707577 277.116451 
L 550.113422 277.104736 
L 558.180635 277.003384 
L 558.395981 276.99167 
L 567.929206 276.885745 
L 568.07001 276.871995 
L 580.990802 276.760989 
L 581.968144 276.752333 
L 592.859709 276.641338 
L 595.12913 276.612827 
L 606.691582 276.508464 
L 606.848951 276.497264 
L 615.628463 276.393929 
L 615.777549 276.376623 
L 625.849141 276.270753 
L 626.023075 276.263628 
L 638.952149 276.155733 
L 639.167496 276.150644 
L 647.640554 276.039707 
L 652.734327 275.99391 
L 665.646837 275.885023 
L 665.82077 275.877391 
L 677.383223 275.76648 
L 682.990515 275.705433 
L 695.497179 275.597081 
L 695.66283 275.587417 
L 701.692533 275.521801 
L 701.692533 275.521801 
" clip-path="url(#p080000883e)" style="fill: none; stroke: #2ca02c; stroke-opacity: 0.7; stroke-width: 1.5; stroke-linecap: square"/>
   </g>
   <g id="line2d_20">
    <path d="M 0 0 
" clip-path="url(#p080000883e)" style="fill: none; stroke: #d62728; stroke-opacity: 0.7; stroke-width: 1.5; stroke-linecap: square"/>
   </g>
   <g id="patch_3">
    <path d="M 36.625 390.04 
L 36.625 10.8 
" style="fill: none; stroke: #000000; stroke-width: 0.8; stroke-linejoin: miter; stroke-linecap: square"/>
   </g>
   <g id="patch_4">
    <path d="M 853.2 390.04 
L 853.2 10.8 
" style="fill: none; stroke: #000000; stroke-width: 0.8; stroke-linejoin: miter; stroke-linecap: square"/>
   </g>
   <g id="patch_5">
    <path d="M 36.625 390.04 
L 853.2 390.04 
" style="fill: none; stroke: #000000; stroke-width: 0.8; stroke-linejoin: miter; stroke-linecap: square"/>
   </g>
   <g id="patch_6">
    <path d="M 36.625 10.8 
L 853.2 10.8 
" style="fill: none; stroke: #000000; stroke-width: 0.8; stroke-linejoin: miter; stroke-linecap: square"/>
   </g>
   <g id="legend_1">
    <g id="patch_7">
     <path d="M 741.14375 77.5125 
L 846.2 77.5125 
Q 848.2 77.5125 848.2 75.5125 
L 848.2 17.8 
Q 848.2 15.8 846.2 15.8 
L 741.14375 15.8 
Q 739.14375 15.8 739.14375 17.8 
L 739.14375 75.5125 
Q 739.14375 77.5125 741.14375 77.5125 
z
" style="fill: #ffffff; opacity: 0.8; stroke: #cccccc; stroke-linejoin: miter"/>
    </g>
    <g id="line2d_21">
     <path d="M 743.14375 23.898438 
L 753.14375 23.898438 
L 763.14375 23.898438 
" style="fill: none; stroke: #1f77b4; stroke-opacity: 0.7; stroke-width: 1.5; stroke-linecap: square"/>
    </g>
    <g id="text_11">
     <!-- 10oc-state-diff -->
     <g transform="translate(771.14375 27.398438) scale(0.1 -0.1)">
      <defs>
       <path id="DejaVuSans-31" d="M 794 531 
L 1825 531 
L 1825 4091 
L 703 3866 
L 703 4441 
L 1819 4666 
L 2450 4666 
L 2450 531 
L 3481 531 
L 3481 0 
L 794 0 
L 794 531 
z
" transform="scale(0.015625)"/>
       <path id="DejaVuSans-2d" d="M 313 2009 
L 1997 2009 
L 1997 1497 
L 313 1497 
L 313 2009 
z
" transform="scale(0.015625)"/>
       <path id="DejaVuSans-74" d="M 1172 4494 
L 1172 3500 
L 2356 3500 
L 2356 3053 
L 1172 3053 
L 1172 1153 
Q 1172 725 1289 603 
Q 1406 481 1766 481 
L 2356 481 
L 2356 0 
L 1766 0 
Q 1100 0 847 248 
Q 594 497 594 1153 
L 594 3053 
L 172 3053 
L 172 3500 
L 594 3500 
L 594 4494 
L 1172 4494 
z
" transform="scale(0.015625)"/>
       <path id="DejaVuSans-66" d="M 2375 4863 
L 2375 4384 
L 1825 4384 
Q 1516 4384 1395 4259 
Q 1275 4134 1275 3809 
L 1275 3500 
L 2222 3500 
L 2222 3053 
L 1275 3053 
L 1275 0 
L 697 0 
L 697 3053 
L 147 3053 
L 147 3500 
L 697 3500 
L 697 3744 
Q 697 4328 969 4595 
Q 1241 4863 1831 4863 
L 2375 4863 
z
" transform="scale(0.015625)"/>
      </defs>
      <use xlink:href="#DejaVuSans-31"/>
      <use xlink:href="#DejaVuSans-30" transform="translate(63.623047 0)"/>
      <use xlink:href="#DejaVuSans-6f" transform="translate(127.246094 0)"/>
      <use xlink:href="#DejaVuSans-63" transform="translate(188.427734 0)"/>
      <use xlink:href="#DejaVuSans-2d" transform="translate(243.408203 0)"/>
      <use xlink:href="#DejaVuSans-73" transform="translate(279.492188 0)"/>
      <use xlink:href="#DejaVuSans-74" transform="translate(331.591797 0)"/>
      <use xlink:href="#DejaVuSans-61" transform="translate(370.800781 0)"/>
      <use xlink:href="#DejaVuSans-74" transform="translate(432.080078 0)"/>
      <use xlink:href="#DejaVuSans-65" transform="translate(471.289062 0)"/>
      <use xlink:href="#DejaVuSans-2d" transform="translate(532.8125 0)"/>
      <use xlink:href="#DejaVuSans-64" transform="translate(568.896484 0)"/>
      <use xlink:href="#DejaVuSans-69" transform="translate(632.373047 0)"/>
      <use xlink:href="#DejaVuSans-66" transform="translate(660.15625 0)"/>
      <use xlink:href="#DejaVuSans-66" transform="translate(695.361328 0)"/>
     </g>
    </g>
    <g id="line2d_22">
     <path d="M 743.14375 38.576563 
L 753.14375 38.576563 
L 763.14375 38.576563 
" style="fill: none; stroke: #ff7f0e; stroke-opacity: 0.7; stroke-width: 1.5; stroke-linecap: square"/>
    </g>
    <g id="text_12">
     <!-- 1oc-state-diff -->
     <g transform="translate(771.14375 42.076563) scale(0.1 -0.1)">
      <use xlink:href="#DejaVuSans-31"/>
      <use xlink:href="#DejaVuSans-6f" transform="translate(63.623047 0)"/>
      <use xlink:href="#DejaVuSans-63" transform="translate(124.804688 0)"/>
      <use xlink:href="#DejaVuSans-2d" transform="translate(179.785156 0)"/>
      <use xlink:href="#DejaVuSans-73" transform="translate(215.869141 0)"/>
      <use xlink:href="#DejaVuSans-74" transform="translate(267.96875 0)"/>
      <use xlink:href="#DejaVuSans-61" transform="translate(307.177734 0)"/>
      <use xlink:href="#DejaVuSans-74" transform="translate(368.457031 0)"/>
      <use xlink:href="#DejaVuSans-65" transform="translate(407.666016 0)"/>
      <use xlink:href="#DejaVuSans-2d" transform="translate(469.189453 0)"/>
      <use xlink:href="#DejaVuSans-64" transform="translate(505.273438 0)"/>
      <use xlink:href="#DejaVuSans-69" transform="translate(568.75 0)"/>
      <use xlink:href="#DejaVuSans-66" transform="translate(596.533203 0)"/>
      <use xlink:href="#DejaVuSans-66" transform="translate(631.738281 0)"/>
     </g>
    </g>
    <g id="line2d_23">
     <path d="M 743.14375 53.254688 
L 753.14375 53.254688 
L 763.14375 53.254688 
" style="fill: none; stroke: #2ca02c; stroke-opacity: 0.7; stroke-width: 1.5; stroke-linecap: square"/>
    </g>
    <g id="text_13">
     <!-- 20oc-state-diff -->
     <g transform="translate(771.14375 56.754688) scale(0.1 -0.1)">
      <use xlink:href="#DejaVuSans-32"/>
      <use xlink:href="#DejaVuSans-30" transform="translate(63.623047 0)"/>
      <use xlink:href="#DejaVuSans-6f" transform="translate(127.246094 0)"/>
      <use xlink:href="#DejaVuSans-63" transform="translate(188.427734 0)"/>
      <use xlink:href="#DejaVuSans-2d" transform="translate(243.408203 0)"/>
      <use xlink:href="#DejaVuSans-73" transform="translate(279.492188 0)"/>
      <use xlink:href="#DejaVuSans-74" transform="translate(331.591797 0)"/>
      <use xlink:href="#DejaVuSans-61" transform="translate(370.800781 0)"/>
      <use xlink:href="#DejaVuSans-74" transform="translate(432.080078 0)"/>
      <use xlink:href="#DejaVuSans-65" transform="translate(471.289062 0)"/>
      <use xlink:href="#DejaVuSans-2d" transform="translate(532.8125 0)"/>
      <use xlink:href="#DejaVuSans-64" transform="translate(568.896484 0)"/>
      <use xlink:href="#DejaVuSans-69" transform="translate(632.373047 0)"/>
      <use xlink:href="#DejaVuSans-66" transform="translate(660.15625 0)"/>
      <use xlink:href="#DejaVuSans-66" transform="translate(695.361328 0)"/>
     </g>
    </g>
    <g id="line2d_24">
     <path d="M 743.14375 67.932813 
L 753.14375 67.932813 
L 763.14375 67.932813 
" style="fill: none; stroke: #d62728; stroke-opacity: 0.7; stroke-width: 1.5; stroke-linecap: square"/>
    </g>
    <g id="text_14">
     <!-- 50oc-state-diff -->
     <g transform="translate(771.14375 71.432813) scale(0.1 -0.1)">
      <defs>
       <path id="DejaVuSans-35" d="M 691 4666 
L 3169 4666 
L 3169 4134 
L 1269 4134 
L 1269 2991 
Q 1406 3038 1543 3061 
Q 1681 3084 1819 3084 
Q 2600 3084 3056 2656 
Q 3513 2228 3513 1497 
Q 3513 744 3044 326 
Q 2575 -91 1722 -91 
Q 1428 -91 1123 -41 
Q 819 9 494 109 
L 494 744 
Q 775 591 1075 516 
Q 1375 441 1709 441 
Q 2250 441 2565 725 
Q 2881 1009 2881 1497 
Q 2881 1984 2565 2268 
Q 2250 2553 1709 2553 
Q 1456 2553 1204 2497 
Q 953 2441 691 2322 
L 691 4666 
z
" transform="scale(0.015625)"/>
      </defs>
      <use xlink:href="#DejaVuSans-35"/>
      <use xlink:href="#DejaVuSans-30" transform="translate(63.623047 0)"/>
      <use xlink:href="#DejaVuSans-6f" transform="translate(127.246094 0)"/>
      <use xlink:href="#DejaVuSans-63" transform="translate(188.427734 0)"/>
      <use xlink:href="#DejaVuSans-2d" transform="translate(243.408203 0)"/>
      <use xlink:href="#DejaVuSans-73" transform="translate(279.492188 0)"/>
      <use xlink:href="#DejaVuSans-74" transform="translate(331.591797 0)"/>
      <use xlink:href="#DejaVuSans-61" transform="translate(370.800781 0)"/>
      <use xlink:href="#DejaVuSans-74" transform="translate(432.080078 0)"/>
      <use xlink:href="#DejaVuSans-65" transform="translate(471.289062 0)"/>
      <use xlink:href="#DejaVuSans-2d" transform="translate(532.8125 0)"/>
      <use xlink:href="#DejaVuSans-64" transform="translate(568.896484 0)"/>
      <use xlink:href="#DejaVuSans-69" transform="translate(632.373047 0)"/>
      <use xlink:href="#DejaVuSans-66" transform="translate(660.15625 0)"/>
      <use xlink:href="#DejaVuSans-66" transform="translate(695.361328 0)"/>
     </g>
    </g>
   </g>
  </g>
 </g>
 <defs>
  <clipPath id="p080000883e">
   <rect x="36.625" y="10.8" width="816.575" height="379.24"/>
  </clipPath>
 </defs>
</svg>
