<?xml version="1.0" encoding="utf-8" standalone="no"?>
<!DOCTYPE svg PUBLIC "-//W3C//DTD SVG 1.1//EN"
  "http://www.w3.org/Graphics/SVG/1.1/DTD/svg11.dtd">
<svg xmlns:xlink="http://www.w3.org/1999/xlink" width="864pt" height="432pt" viewBox="0 0 864 432" xmlns="http://www.w3.org/2000/svg" version="1.1">
 <metadata>
  <rdf:RDF xmlns:dc="http://purl.org/dc/elements/1.1/" xmlns:cc="http://creativecommons.org/ns#" xmlns:rdf="http://www.w3.org/1999/02/22-rdf-syntax-ns#">
   <cc:Work>
    <dc:type rdf:resource="http://purl.org/dc/dcmitype/StillImage"/>
    <dc:date>2025-02-27T15:09:13.208723</dc:date>
    <dc:format>image/svg+xml</dc:format>
    <dc:creator>
     <cc:Agent>
      <dc:title>Matplotlib v3.10.0, https://matplotlib.org/</dc:title>
     </cc:Agent>
    </dc:creator>
   </cc:Work>
  </rdf:RDF>
 </metadata>
 <defs>
  <style type="text/css">*{stroke-linejoin: round; stroke-linecap: butt}</style>
 </defs>
 <g id="figure_1">
  <g id="patch_1">
   <path d="M 0 432 
L 864 432 
L 864 0 
L 0 0 
z
" style="fill: #ffffff"/>
  </g>
  <g id="axes_1">
   <g id="patch_2">
    <path d="M 89.345 390.04 
L 853.2 390.04 
L 853.2 10.8 
L 89.345 10.8 
z
" style="fill: #ffffff"/>
   </g>
   <g id="matplotlib.axis_1">
    <g id="xtick_1">
     <g id="line2d_1">
      <path d="M 123.833247 390.04 
L 123.833247 10.8 
" clip-path="url(#pdc1f8b5619)" style="fill: none; stroke: #b0b0b0; stroke-width: 0.8; stroke-linecap: square"/>
     </g>
     <g id="line2d_2">
      <defs>
       <path id="me8ac0356b5" d="M 0 0 
L 0 3.5 
" style="stroke: #000000; stroke-width: 0.8"/>
      </defs>
      <g>
       <use xlink:href="#me8ac0356b5" x="123.833247" y="390.04" style="stroke: #000000; stroke-width: 0.8"/>
      </g>
     </g>
     <g id="text_1">
      <!-- 0 -->
      <g transform="translate(120.651997 404.638438) scale(0.1 -0.1)">
       <defs>
        <path id="DejaVuSans-30" d="M 2034 4250 
Q 1547 4250 1301 3770 
Q 1056 3291 1056 2328 
Q 1056 1369 1301 889 
Q 1547 409 2034 409 
Q 2525 409 2770 889 
Q 3016 1369 3016 2328 
Q 3016 3291 2770 3770 
Q 2525 4250 2034 4250 
z
M 2034 4750 
Q 2819 4750 3233 4129 
Q 3647 3509 3647 2328 
Q 3647 1150 3233 529 
Q 2819 -91 2034 -91 
Q 1250 -91 836 529 
Q 422 1150 422 2328 
Q 422 3509 836 4129 
Q 1250 4750 2034 4750 
z
" transform="scale(0.015625)"/>
       </defs>
       <use xlink:href="#DejaVuSans-30"/>
      </g>
     </g>
    </g>
    <g id="xtick_2">
     <g id="line2d_3">
      <path d="M 278.789597 390.04 
L 278.789597 10.8 
" clip-path="url(#pdc1f8b5619)" style="fill: none; stroke: #b0b0b0; stroke-width: 0.8; stroke-linecap: square"/>
     </g>
     <g id="line2d_4">
      <g>
       <use xlink:href="#me8ac0356b5" x="278.789597" y="390.04" style="stroke: #000000; stroke-width: 0.8"/>
      </g>
     </g>
     <g id="text_2">
      <!-- 20000 -->
      <g transform="translate(262.883347 404.638438) scale(0.1 -0.1)">
       <defs>
        <path id="DejaVuSans-32" d="M 1228 531 
L 3431 531 
L 3431 0 
L 469 0 
L 469 531 
Q 828 903 1448 1529 
Q 2069 2156 2228 2338 
Q 2531 2678 2651 2914 
Q 2772 3150 2772 3378 
Q 2772 3750 2511 3984 
Q 2250 4219 1831 4219 
Q 1534 4219 1204 4116 
Q 875 4013 500 3803 
L 500 4441 
Q 881 4594 1212 4672 
Q 1544 4750 1819 4750 
Q 2544 4750 2975 4387 
Q 3406 4025 3406 3419 
Q 3406 3131 3298 2873 
Q 3191 2616 2906 2266 
Q 2828 2175 2409 1742 
Q 1991 1309 1228 531 
z
" transform="scale(0.015625)"/>
       </defs>
       <use xlink:href="#DejaVuSans-32"/>
       <use xlink:href="#DejaVuSans-30" transform="translate(63.623047 0)"/>
       <use xlink:href="#DejaVuSans-30" transform="translate(127.246094 0)"/>
       <use xlink:href="#DejaVuSans-30" transform="translate(190.869141 0)"/>
       <use xlink:href="#DejaVuSans-30" transform="translate(254.492188 0)"/>
      </g>
     </g>
    </g>
    <g id="xtick_3">
     <g id="line2d_5">
      <path d="M 433.745946 390.04 
L 433.745946 10.8 
" clip-path="url(#pdc1f8b5619)" style="fill: none; stroke: #b0b0b0; stroke-width: 0.8; stroke-linecap: square"/>
     </g>
     <g id="line2d_6">
      <g>
       <use xlink:href="#me8ac0356b5" x="433.745946" y="390.04" style="stroke: #000000; stroke-width: 0.8"/>
      </g>
     </g>
     <g id="text_3">
      <!-- 40000 -->
      <g transform="translate(417.839696 404.638438) scale(0.1 -0.1)">
       <defs>
        <path id="DejaVuSans-34" d="M 2419 4116 
L 825 1625 
L 2419 1625 
L 2419 4116 
z
M 2253 4666 
L 3047 4666 
L 3047 1625 
L 3713 1625 
L 3713 1100 
L 3047 1100 
L 3047 0 
L 2419 0 
L 2419 1100 
L 313 1100 
L 313 1709 
L 2253 4666 
z
" transform="scale(0.015625)"/>
       </defs>
       <use xlink:href="#DejaVuSans-34"/>
       <use xlink:href="#DejaVuSans-30" transform="translate(63.623047 0)"/>
       <use xlink:href="#DejaVuSans-30" transform="translate(127.246094 0)"/>
       <use xlink:href="#DejaVuSans-30" transform="translate(190.869141 0)"/>
       <use xlink:href="#DejaVuSans-30" transform="translate(254.492188 0)"/>
      </g>
     </g>
    </g>
    <g id="xtick_4">
     <g id="line2d_7">
      <path d="M 588.702295 390.04 
L 588.702295 10.8 
" clip-path="url(#pdc1f8b5619)" style="fill: none; stroke: #b0b0b0; stroke-width: 0.8; stroke-linecap: square"/>
     </g>
     <g id="line2d_8">
      <g>
       <use xlink:href="#me8ac0356b5" x="588.702295" y="390.04" style="stroke: #000000; stroke-width: 0.8"/>
      </g>
     </g>
     <g id="text_4">
      <!-- 60000 -->
      <g transform="translate(572.796045 404.638438) scale(0.1 -0.1)">
       <defs>
        <path id="DejaVuSans-36" d="M 2113 2584 
Q 1688 2584 1439 2293 
Q 1191 2003 1191 1497 
Q 1191 994 1439 701 
Q 1688 409 2113 409 
Q 2538 409 2786 701 
Q 3034 994 3034 1497 
Q 3034 2003 2786 2293 
Q 2538 2584 2113 2584 
z
M 3366 4563 
L 3366 3988 
Q 3128 4100 2886 4159 
Q 2644 4219 2406 4219 
Q 1781 4219 1451 3797 
Q 1122 3375 1075 2522 
Q 1259 2794 1537 2939 
Q 1816 3084 2150 3084 
Q 2853 3084 3261 2657 
Q 3669 2231 3669 1497 
Q 3669 778 3244 343 
Q 2819 -91 2113 -91 
Q 1303 -91 875 529 
Q 447 1150 447 2328 
Q 447 3434 972 4092 
Q 1497 4750 2381 4750 
Q 2619 4750 2861 4703 
Q 3103 4656 3366 4563 
z
" transform="scale(0.015625)"/>
       </defs>
       <use xlink:href="#DejaVuSans-36"/>
       <use xlink:href="#DejaVuSans-30" transform="translate(63.623047 0)"/>
       <use xlink:href="#DejaVuSans-30" transform="translate(127.246094 0)"/>
       <use xlink:href="#DejaVuSans-30" transform="translate(190.869141 0)"/>
       <use xlink:href="#DejaVuSans-30" transform="translate(254.492188 0)"/>
      </g>
     </g>
    </g>
    <g id="xtick_5">
     <g id="line2d_9">
      <path d="M 743.658645 390.04 
L 743.658645 10.8 
" clip-path="url(#pdc1f8b5619)" style="fill: none; stroke: #b0b0b0; stroke-width: 0.8; stroke-linecap: square"/>
     </g>
     <g id="line2d_10">
      <g>
       <use xlink:href="#me8ac0356b5" x="743.658645" y="390.04" style="stroke: #000000; stroke-width: 0.8"/>
      </g>
     </g>
     <g id="text_5">
      <!-- 80000 -->
      <g transform="translate(727.752395 404.638438) scale(0.1 -0.1)">
       <defs>
        <path id="DejaVuSans-38" d="M 2034 2216 
Q 1584 2216 1326 1975 
Q 1069 1734 1069 1313 
Q 1069 891 1326 650 
Q 1584 409 2034 409 
Q 2484 409 2743 651 
Q 3003 894 3003 1313 
Q 3003 1734 2745 1975 
Q 2488 2216 2034 2216 
z
M 1403 2484 
Q 997 2584 770 2862 
Q 544 3141 544 3541 
Q 544 4100 942 4425 
Q 1341 4750 2034 4750 
Q 2731 4750 3128 4425 
Q 3525 4100 3525 3541 
Q 3525 3141 3298 2862 
Q 3072 2584 2669 2484 
Q 3125 2378 3379 2068 
Q 3634 1759 3634 1313 
Q 3634 634 3220 271 
Q 2806 -91 2034 -91 
Q 1263 -91 848 271 
Q 434 634 434 1313 
Q 434 1759 690 2068 
Q 947 2378 1403 2484 
z
M 1172 3481 
Q 1172 3119 1398 2916 
Q 1625 2713 2034 2713 
Q 2441 2713 2670 2916 
Q 2900 3119 2900 3481 
Q 2900 3844 2670 4047 
Q 2441 4250 2034 4250 
Q 1625 4250 1398 4047 
Q 1172 3844 1172 3481 
z
" transform="scale(0.015625)"/>
       </defs>
       <use xlink:href="#DejaVuSans-38"/>
       <use xlink:href="#DejaVuSans-30" transform="translate(63.623047 0)"/>
       <use xlink:href="#DejaVuSans-30" transform="translate(127.246094 0)"/>
       <use xlink:href="#DejaVuSans-30" transform="translate(190.869141 0)"/>
       <use xlink:href="#DejaVuSans-30" transform="translate(254.492188 0)"/>
      </g>
     </g>
    </g>
    <g id="text_6">
     <!-- Run Time (seconds) -->
     <g transform="translate(421.935 418.316562) scale(0.1 -0.1)">
      <defs>
       <path id="DejaVuSans-52" d="M 2841 2188 
Q 3044 2119 3236 1894 
Q 3428 1669 3622 1275 
L 4263 0 
L 3584 0 
L 2988 1197 
Q 2756 1666 2539 1819 
Q 2322 1972 1947 1972 
L 1259 1972 
L 1259 0 
L 628 0 
L 628 4666 
L 2053 4666 
Q 2853 4666 3247 4331 
Q 3641 3997 3641 3322 
Q 3641 2881 3436 2590 
Q 3231 2300 2841 2188 
z
M 1259 4147 
L 1259 2491 
L 2053 2491 
Q 2509 2491 2742 2702 
Q 2975 2913 2975 3322 
Q 2975 3731 2742 3939 
Q 2509 4147 2053 4147 
L 1259 4147 
z
" transform="scale(0.015625)"/>
       <path id="DejaVuSans-75" d="M 544 1381 
L 544 3500 
L 1119 3500 
L 1119 1403 
Q 1119 906 1312 657 
Q 1506 409 1894 409 
Q 2359 409 2629 706 
Q 2900 1003 2900 1516 
L 2900 3500 
L 3475 3500 
L 3475 0 
L 2900 0 
L 2900 538 
Q 2691 219 2414 64 
Q 2138 -91 1772 -91 
Q 1169 -91 856 284 
Q 544 659 544 1381 
z
M 1991 3584 
L 1991 3584 
z
" transform="scale(0.015625)"/>
       <path id="DejaVuSans-6e" d="M 3513 2113 
L 3513 0 
L 2938 0 
L 2938 2094 
Q 2938 2591 2744 2837 
Q 2550 3084 2163 3084 
Q 1697 3084 1428 2787 
Q 1159 2491 1159 1978 
L 1159 0 
L 581 0 
L 581 3500 
L 1159 3500 
L 1159 2956 
Q 1366 3272 1645 3428 
Q 1925 3584 2291 3584 
Q 2894 3584 3203 3211 
Q 3513 2838 3513 2113 
z
" transform="scale(0.015625)"/>
       <path id="DejaVuSans-20" transform="scale(0.015625)"/>
       <path id="DejaVuSans-54" d="M -19 4666 
L 3928 4666 
L 3928 4134 
L 2272 4134 
L 2272 0 
L 1638 0 
L 1638 4134 
L -19 4134 
L -19 4666 
z
" transform="scale(0.015625)"/>
       <path id="DejaVuSans-69" d="M 603 3500 
L 1178 3500 
L 1178 0 
L 603 0 
L 603 3500 
z
M 603 4863 
L 1178 4863 
L 1178 4134 
L 603 4134 
L 603 4863 
z
" transform="scale(0.015625)"/>
       <path id="DejaVuSans-6d" d="M 3328 2828 
Q 3544 3216 3844 3400 
Q 4144 3584 4550 3584 
Q 5097 3584 5394 3201 
Q 5691 2819 5691 2113 
L 5691 0 
L 5113 0 
L 5113 2094 
Q 5113 2597 4934 2840 
Q 4756 3084 4391 3084 
Q 3944 3084 3684 2787 
Q 3425 2491 3425 1978 
L 3425 0 
L 2847 0 
L 2847 2094 
Q 2847 2600 2669 2842 
Q 2491 3084 2119 3084 
Q 1678 3084 1418 2786 
Q 1159 2488 1159 1978 
L 1159 0 
L 581 0 
L 581 3500 
L 1159 3500 
L 1159 2956 
Q 1356 3278 1631 3431 
Q 1906 3584 2284 3584 
Q 2666 3584 2933 3390 
Q 3200 3197 3328 2828 
z
" transform="scale(0.015625)"/>
       <path id="DejaVuSans-65" d="M 3597 1894 
L 3597 1613 
L 953 1613 
Q 991 1019 1311 708 
Q 1631 397 2203 397 
Q 2534 397 2845 478 
Q 3156 559 3463 722 
L 3463 178 
Q 3153 47 2828 -22 
Q 2503 -91 2169 -91 
Q 1331 -91 842 396 
Q 353 884 353 1716 
Q 353 2575 817 3079 
Q 1281 3584 2069 3584 
Q 2775 3584 3186 3129 
Q 3597 2675 3597 1894 
z
M 3022 2063 
Q 3016 2534 2758 2815 
Q 2500 3097 2075 3097 
Q 1594 3097 1305 2825 
Q 1016 2553 972 2059 
L 3022 2063 
z
" transform="scale(0.015625)"/>
       <path id="DejaVuSans-28" d="M 1984 4856 
Q 1566 4138 1362 3434 
Q 1159 2731 1159 2009 
Q 1159 1288 1364 580 
Q 1569 -128 1984 -844 
L 1484 -844 
Q 1016 -109 783 600 
Q 550 1309 550 2009 
Q 550 2706 781 3412 
Q 1013 4119 1484 4856 
L 1984 4856 
z
" transform="scale(0.015625)"/>
       <path id="DejaVuSans-73" d="M 2834 3397 
L 2834 2853 
Q 2591 2978 2328 3040 
Q 2066 3103 1784 3103 
Q 1356 3103 1142 2972 
Q 928 2841 928 2578 
Q 928 2378 1081 2264 
Q 1234 2150 1697 2047 
L 1894 2003 
Q 2506 1872 2764 1633 
Q 3022 1394 3022 966 
Q 3022 478 2636 193 
Q 2250 -91 1575 -91 
Q 1294 -91 989 -36 
Q 684 19 347 128 
L 347 722 
Q 666 556 975 473 
Q 1284 391 1588 391 
Q 1994 391 2212 530 
Q 2431 669 2431 922 
Q 2431 1156 2273 1281 
Q 2116 1406 1581 1522 
L 1381 1569 
Q 847 1681 609 1914 
Q 372 2147 372 2553 
Q 372 3047 722 3315 
Q 1072 3584 1716 3584 
Q 2034 3584 2315 3537 
Q 2597 3491 2834 3397 
z
" transform="scale(0.015625)"/>
       <path id="DejaVuSans-63" d="M 3122 3366 
L 3122 2828 
Q 2878 2963 2633 3030 
Q 2388 3097 2138 3097 
Q 1578 3097 1268 2742 
Q 959 2388 959 1747 
Q 959 1106 1268 751 
Q 1578 397 2138 397 
Q 2388 397 2633 464 
Q 2878 531 3122 666 
L 3122 134 
Q 2881 22 2623 -34 
Q 2366 -91 2075 -91 
Q 1284 -91 818 406 
Q 353 903 353 1747 
Q 353 2603 823 3093 
Q 1294 3584 2113 3584 
Q 2378 3584 2631 3529 
Q 2884 3475 3122 3366 
z
" transform="scale(0.015625)"/>
       <path id="DejaVuSans-6f" d="M 1959 3097 
Q 1497 3097 1228 2736 
Q 959 2375 959 1747 
Q 959 1119 1226 758 
Q 1494 397 1959 397 
Q 2419 397 2687 759 
Q 2956 1122 2956 1747 
Q 2956 2369 2687 2733 
Q 2419 3097 1959 3097 
z
M 1959 3584 
Q 2709 3584 3137 3096 
Q 3566 2609 3566 1747 
Q 3566 888 3137 398 
Q 2709 -91 1959 -91 
Q 1206 -91 779 398 
Q 353 888 353 1747 
Q 353 2609 779 3096 
Q 1206 3584 1959 3584 
z
" transform="scale(0.015625)"/>
       <path id="DejaVuSans-64" d="M 2906 2969 
L 2906 4863 
L 3481 4863 
L 3481 0 
L 2906 0 
L 2906 525 
Q 2725 213 2448 61 
Q 2172 -91 1784 -91 
Q 1150 -91 751 415 
Q 353 922 353 1747 
Q 353 2572 751 3078 
Q 1150 3584 1784 3584 
Q 2172 3584 2448 3432 
Q 2725 3281 2906 2969 
z
M 947 1747 
Q 947 1113 1208 752 
Q 1469 391 1925 391 
Q 2381 391 2643 752 
Q 2906 1113 2906 1747 
Q 2906 2381 2643 2742 
Q 2381 3103 1925 3103 
Q 1469 3103 1208 2742 
Q 947 2381 947 1747 
z
" transform="scale(0.015625)"/>
       <path id="DejaVuSans-29" d="M 513 4856 
L 1013 4856 
Q 1481 4119 1714 3412 
Q 1947 2706 1947 2009 
Q 1947 1309 1714 600 
Q 1481 -109 1013 -844 
L 513 -844 
Q 928 -128 1133 580 
Q 1338 1288 1338 2009 
Q 1338 2731 1133 3434 
Q 928 4138 513 4856 
z
" transform="scale(0.015625)"/>
      </defs>
      <use xlink:href="#DejaVuSans-52"/>
      <use xlink:href="#DejaVuSans-75" transform="translate(64.982422 0)"/>
      <use xlink:href="#DejaVuSans-6e" transform="translate(128.361328 0)"/>
      <use xlink:href="#DejaVuSans-20" transform="translate(191.740234 0)"/>
      <use xlink:href="#DejaVuSans-54" transform="translate(223.527344 0)"/>
      <use xlink:href="#DejaVuSans-69" transform="translate(281.486328 0)"/>
      <use xlink:href="#DejaVuSans-6d" transform="translate(309.269531 0)"/>
      <use xlink:href="#DejaVuSans-65" transform="translate(406.681641 0)"/>
      <use xlink:href="#DejaVuSans-20" transform="translate(468.205078 0)"/>
      <use xlink:href="#DejaVuSans-28" transform="translate(499.992188 0)"/>
      <use xlink:href="#DejaVuSans-73" transform="translate(539.005859 0)"/>
      <use xlink:href="#DejaVuSans-65" transform="translate(591.105469 0)"/>
      <use xlink:href="#DejaVuSans-63" transform="translate(652.628906 0)"/>
      <use xlink:href="#DejaVuSans-6f" transform="translate(707.609375 0)"/>
      <use xlink:href="#DejaVuSans-6e" transform="translate(768.791016 0)"/>
      <use xlink:href="#DejaVuSans-64" transform="translate(832.169922 0)"/>
      <use xlink:href="#DejaVuSans-73" transform="translate(895.646484 0)"/>
      <use xlink:href="#DejaVuSans-29" transform="translate(947.746094 0)"/>
     </g>
    </g>
   </g>
   <g id="matplotlib.axis_2">
    <g id="ytick_1">
     <g id="line2d_11">
      <path d="M 89.345 339.501091 
L 853.2 339.501091 
" clip-path="url(#pdc1f8b5619)" style="fill: none; stroke: #b0b0b0; stroke-width: 0.8; stroke-linecap: square"/>
     </g>
     <g id="line2d_12">
      <defs>
       <path id="me6d54b1074" d="M 0 0 
L -3.5 0 
" style="stroke: #000000; stroke-width: 0.8"/>
      </defs>
      <g>
       <use xlink:href="#me6d54b1074" x="89.345" y="339.501091" style="stroke: #000000; stroke-width: 0.8"/>
      </g>
     </g>
     <g id="text_7">
      <!-- 100000000 -->
      <g transform="translate(25.0825 343.30031) scale(0.1 -0.1)">
       <defs>
        <path id="DejaVuSans-31" d="M 794 531 
L 1825 531 
L 1825 4091 
L 703 3866 
L 703 4441 
L 1819 4666 
L 2450 4666 
L 2450 531 
L 3481 531 
L 3481 0 
L 794 0 
L 794 531 
z
" transform="scale(0.015625)"/>
       </defs>
       <use xlink:href="#DejaVuSans-31"/>
       <use xlink:href="#DejaVuSans-30" transform="translate(63.623047 0)"/>
       <use xlink:href="#DejaVuSans-30" transform="translate(127.246094 0)"/>
       <use xlink:href="#DejaVuSans-30" transform="translate(190.869141 0)"/>
       <use xlink:href="#DejaVuSans-30" transform="translate(254.492188 0)"/>
       <use xlink:href="#DejaVuSans-30" transform="translate(318.115234 0)"/>
       <use xlink:href="#DejaVuSans-30" transform="translate(381.738281 0)"/>
       <use xlink:href="#DejaVuSans-30" transform="translate(445.361328 0)"/>
       <use xlink:href="#DejaVuSans-30" transform="translate(508.984375 0)"/>
      </g>
     </g>
    </g>
    <g id="ytick_2">
     <g id="line2d_13">
      <path d="M 89.345 279.227914 
L 853.2 279.227914 
" clip-path="url(#pdc1f8b5619)" style="fill: none; stroke: #b0b0b0; stroke-width: 0.8; stroke-linecap: square"/>
     </g>
     <g id="line2d_14">
      <defs>
       <path id="md58a859eaa" d="M 0 0 
L -2 0 
" style="stroke: #000000; stroke-width: 0.6"/>
      </defs>
      <g>
       <use xlink:href="#md58a859eaa" x="89.345" y="279.227914" style="stroke: #000000; stroke-width: 0.6"/>
      </g>
     </g>
     <g id="text_8">
      <!-- 105000000 -->
      <g transform="translate(26.6825 283.027133) scale(0.1 -0.1)">
       <defs>
        <path id="DejaVuSans-35" d="M 691 4666 
L 3169 4666 
L 3169 4134 
L 1269 4134 
L 1269 2991 
Q 1406 3038 1543 3061 
Q 1681 3084 1819 3084 
Q 2600 3084 3056 2656 
Q 3513 2228 3513 1497 
Q 3513 744 3044 326 
Q 2575 -91 1722 -91 
Q 1428 -91 1123 -41 
Q 819 9 494 109 
L 494 744 
Q 775 591 1075 516 
Q 1375 441 1709 441 
Q 2250 441 2565 725 
Q 2881 1009 2881 1497 
Q 2881 1984 2565 2268 
Q 2250 2553 1709 2553 
Q 1456 2553 1204 2497 
Q 953 2441 691 2322 
L 691 4666 
z
" transform="scale(0.015625)"/>
       </defs>
       <use xlink:href="#DejaVuSans-31"/>
       <use xlink:href="#DejaVuSans-30" transform="translate(63.623047 0)"/>
       <use xlink:href="#DejaVuSans-35" transform="translate(127.246094 0)"/>
       <use xlink:href="#DejaVuSans-30" transform="translate(190.869141 0)"/>
       <use xlink:href="#DejaVuSans-30" transform="translate(254.492188 0)"/>
       <use xlink:href="#DejaVuSans-30" transform="translate(318.115234 0)"/>
       <use xlink:href="#DejaVuSans-30" transform="translate(381.738281 0)"/>
       <use xlink:href="#DejaVuSans-30" transform="translate(445.361328 0)"/>
       <use xlink:href="#DejaVuSans-30" transform="translate(508.984375 0)"/>
      </g>
     </g>
    </g>
    <g id="ytick_3">
     <g id="line2d_15">
      <path d="M 89.345 221.759176 
L 853.2 221.759176 
" clip-path="url(#pdc1f8b5619)" style="fill: none; stroke: #b0b0b0; stroke-width: 0.8; stroke-linecap: square"/>
     </g>
     <g id="line2d_16">
      <g>
       <use xlink:href="#md58a859eaa" x="89.345" y="221.759176" style="stroke: #000000; stroke-width: 0.6"/>
      </g>
     </g>
     <g id="text_9">
      <!-- 110000000 -->
      <g transform="translate(26.6825 225.558395) scale(0.1 -0.1)">
       <use xlink:href="#DejaVuSans-31"/>
       <use xlink:href="#DejaVuSans-31" transform="translate(63.623047 0)"/>
       <use xlink:href="#DejaVuSans-30" transform="translate(127.246094 0)"/>
       <use xlink:href="#DejaVuSans-30" transform="translate(190.869141 0)"/>
       <use xlink:href="#DejaVuSans-30" transform="translate(254.492188 0)"/>
       <use xlink:href="#DejaVuSans-30" transform="translate(318.115234 0)"/>
       <use xlink:href="#DejaVuSans-30" transform="translate(381.738281 0)"/>
       <use xlink:href="#DejaVuSans-30" transform="translate(445.361328 0)"/>
       <use xlink:href="#DejaVuSans-30" transform="translate(508.984375 0)"/>
      </g>
     </g>
    </g>
    <g id="ytick_4">
     <g id="line2d_17">
      <path d="M 89.345 166.845465 
L 853.2 166.845465 
" clip-path="url(#pdc1f8b5619)" style="fill: none; stroke: #b0b0b0; stroke-width: 0.8; stroke-linecap: square"/>
     </g>
     <g id="line2d_18">
      <g>
       <use xlink:href="#md58a859eaa" x="89.345" y="166.845465" style="stroke: #000000; stroke-width: 0.6"/>
      </g>
     </g>
     <g id="text_10">
      <!-- 115000000 -->
      <g transform="translate(26.6825 170.644684) scale(0.1 -0.1)">
       <use xlink:href="#DejaVuSans-31"/>
       <use xlink:href="#DejaVuSans-31" transform="translate(63.623047 0)"/>
       <use xlink:href="#DejaVuSans-35" transform="translate(127.246094 0)"/>
       <use xlink:href="#DejaVuSans-30" transform="translate(190.869141 0)"/>
       <use xlink:href="#DejaVuSans-30" transform="translate(254.492188 0)"/>
       <use xlink:href="#DejaVuSans-30" transform="translate(318.115234 0)"/>
       <use xlink:href="#DejaVuSans-30" transform="translate(381.738281 0)"/>
       <use xlink:href="#DejaVuSans-30" transform="translate(445.361328 0)"/>
       <use xlink:href="#DejaVuSans-30" transform="translate(508.984375 0)"/>
      </g>
     </g>
    </g>
    <g id="ytick_5">
     <g id="line2d_19">
      <path d="M 89.345 114.269229 
L 853.2 114.269229 
" clip-path="url(#pdc1f8b5619)" style="fill: none; stroke: #b0b0b0; stroke-width: 0.8; stroke-linecap: square"/>
     </g>
     <g id="line2d_20">
      <g>
       <use xlink:href="#md58a859eaa" x="89.345" y="114.269229" style="stroke: #000000; stroke-width: 0.6"/>
      </g>
     </g>
     <g id="text_11">
      <!-- 120000000 -->
      <g transform="translate(26.6825 118.068448) scale(0.1 -0.1)">
       <use xlink:href="#DejaVuSans-31"/>
       <use xlink:href="#DejaVuSans-32" transform="translate(63.623047 0)"/>
       <use xlink:href="#DejaVuSans-30" transform="translate(127.246094 0)"/>
       <use xlink:href="#DejaVuSans-30" transform="translate(190.869141 0)"/>
       <use xlink:href="#DejaVuSans-30" transform="translate(254.492188 0)"/>
       <use xlink:href="#DejaVuSans-30" transform="translate(318.115234 0)"/>
       <use xlink:href="#DejaVuSans-30" transform="translate(381.738281 0)"/>
       <use xlink:href="#DejaVuSans-30" transform="translate(445.361328 0)"/>
       <use xlink:href="#DejaVuSans-30" transform="translate(508.984375 0)"/>
      </g>
     </g>
    </g>
    <g id="ytick_6">
     <g id="line2d_21">
      <path d="M 89.345 63.839571 
L 853.2 63.839571 
" clip-path="url(#pdc1f8b5619)" style="fill: none; stroke: #b0b0b0; stroke-width: 0.8; stroke-linecap: square"/>
     </g>
     <g id="line2d_22">
      <g>
       <use xlink:href="#md58a859eaa" x="89.345" y="63.839571" style="stroke: #000000; stroke-width: 0.6"/>
      </g>
     </g>
     <g id="text_12">
      <!-- 125000000 -->
      <g transform="translate(26.6825 67.63879) scale(0.1 -0.1)">
       <use xlink:href="#DejaVuSans-31"/>
       <use xlink:href="#DejaVuSans-32" transform="translate(63.623047 0)"/>
       <use xlink:href="#DejaVuSans-35" transform="translate(127.246094 0)"/>
       <use xlink:href="#DejaVuSans-30" transform="translate(190.869141 0)"/>
       <use xlink:href="#DejaVuSans-30" transform="translate(254.492188 0)"/>
       <use xlink:href="#DejaVuSans-30" transform="translate(318.115234 0)"/>
       <use xlink:href="#DejaVuSans-30" transform="translate(381.738281 0)"/>
       <use xlink:href="#DejaVuSans-30" transform="translate(445.361328 0)"/>
       <use xlink:href="#DejaVuSans-30" transform="translate(508.984375 0)"/>
      </g>
     </g>
    </g>
    <g id="ytick_7">
     <g id="line2d_23">
      <path d="M 89.345 15.388064 
L 853.2 15.388064 
" clip-path="url(#pdc1f8b5619)" style="fill: none; stroke: #b0b0b0; stroke-width: 0.8; stroke-linecap: square"/>
     </g>
     <g id="line2d_24">
      <g>
       <use xlink:href="#md58a859eaa" x="89.345" y="15.388064" style="stroke: #000000; stroke-width: 0.6"/>
      </g>
     </g>
     <g id="text_13">
      <!-- 130000000 -->
      <g transform="translate(26.6825 19.187283) scale(0.1 -0.1)">
       <defs>
        <path id="DejaVuSans-33" d="M 2597 2516 
Q 3050 2419 3304 2112 
Q 3559 1806 3559 1356 
Q 3559 666 3084 287 
Q 2609 -91 1734 -91 
Q 1441 -91 1130 -33 
Q 819 25 488 141 
L 488 750 
Q 750 597 1062 519 
Q 1375 441 1716 441 
Q 2309 441 2620 675 
Q 2931 909 2931 1356 
Q 2931 1769 2642 2001 
Q 2353 2234 1838 2234 
L 1294 2234 
L 1294 2753 
L 1863 2753 
Q 2328 2753 2575 2939 
Q 2822 3125 2822 3475 
Q 2822 3834 2567 4026 
Q 2313 4219 1838 4219 
Q 1578 4219 1281 4162 
Q 984 4106 628 3988 
L 628 4550 
Q 988 4650 1302 4700 
Q 1616 4750 1894 4750 
Q 2613 4750 3031 4423 
Q 3450 4097 3450 3541 
Q 3450 3153 3228 2886 
Q 3006 2619 2597 2516 
z
" transform="scale(0.015625)"/>
       </defs>
       <use xlink:href="#DejaVuSans-31"/>
       <use xlink:href="#DejaVuSans-33" transform="translate(63.623047 0)"/>
       <use xlink:href="#DejaVuSans-30" transform="translate(127.246094 0)"/>
       <use xlink:href="#DejaVuSans-30" transform="translate(190.869141 0)"/>
       <use xlink:href="#DejaVuSans-30" transform="translate(254.492188 0)"/>
       <use xlink:href="#DejaVuSans-30" transform="translate(318.115234 0)"/>
       <use xlink:href="#DejaVuSans-30" transform="translate(381.738281 0)"/>
       <use xlink:href="#DejaVuSans-30" transform="translate(445.361328 0)"/>
       <use xlink:href="#DejaVuSans-30" transform="translate(508.984375 0)"/>
      </g>
     </g>
    </g>
    <g id="text_14">
     <!-- Free Memory (bytes) -->
     <g transform="translate(19.002812 252.219219) rotate(-90) scale(0.1 -0.1)">
      <defs>
       <path id="DejaVuSans-46" d="M 628 4666 
L 3309 4666 
L 3309 4134 
L 1259 4134 
L 1259 2759 
L 3109 2759 
L 3109 2228 
L 1259 2228 
L 1259 0 
L 628 0 
L 628 4666 
z
" transform="scale(0.015625)"/>
       <path id="DejaVuSans-72" d="M 2631 2963 
Q 2534 3019 2420 3045 
Q 2306 3072 2169 3072 
Q 1681 3072 1420 2755 
Q 1159 2438 1159 1844 
L 1159 0 
L 581 0 
L 581 3500 
L 1159 3500 
L 1159 2956 
Q 1341 3275 1631 3429 
Q 1922 3584 2338 3584 
Q 2397 3584 2469 3576 
Q 2541 3569 2628 3553 
L 2631 2963 
z
" transform="scale(0.015625)"/>
       <path id="DejaVuSans-4d" d="M 628 4666 
L 1569 4666 
L 2759 1491 
L 3956 4666 
L 4897 4666 
L 4897 0 
L 4281 0 
L 4281 4097 
L 3078 897 
L 2444 897 
L 1241 4097 
L 1241 0 
L 628 0 
L 628 4666 
z
" transform="scale(0.015625)"/>
       <path id="DejaVuSans-79" d="M 2059 -325 
Q 1816 -950 1584 -1140 
Q 1353 -1331 966 -1331 
L 506 -1331 
L 506 -850 
L 844 -850 
Q 1081 -850 1212 -737 
Q 1344 -625 1503 -206 
L 1606 56 
L 191 3500 
L 800 3500 
L 1894 763 
L 2988 3500 
L 3597 3500 
L 2059 -325 
z
" transform="scale(0.015625)"/>
       <path id="DejaVuSans-62" d="M 3116 1747 
Q 3116 2381 2855 2742 
Q 2594 3103 2138 3103 
Q 1681 3103 1420 2742 
Q 1159 2381 1159 1747 
Q 1159 1113 1420 752 
Q 1681 391 2138 391 
Q 2594 391 2855 752 
Q 3116 1113 3116 1747 
z
M 1159 2969 
Q 1341 3281 1617 3432 
Q 1894 3584 2278 3584 
Q 2916 3584 3314 3078 
Q 3713 2572 3713 1747 
Q 3713 922 3314 415 
Q 2916 -91 2278 -91 
Q 1894 -91 1617 61 
Q 1341 213 1159 525 
L 1159 0 
L 581 0 
L 581 4863 
L 1159 4863 
L 1159 2969 
z
" transform="scale(0.015625)"/>
       <path id="DejaVuSans-74" d="M 1172 4494 
L 1172 3500 
L 2356 3500 
L 2356 3053 
L 1172 3053 
L 1172 1153 
Q 1172 725 1289 603 
Q 1406 481 1766 481 
L 2356 481 
L 2356 0 
L 1766 0 
Q 1100 0 847 248 
Q 594 497 594 1153 
L 594 3053 
L 172 3053 
L 172 3500 
L 594 3500 
L 594 4494 
L 1172 4494 
z
" transform="scale(0.015625)"/>
      </defs>
      <use xlink:href="#DejaVuSans-46"/>
      <use xlink:href="#DejaVuSans-72" transform="translate(50.269531 0)"/>
      <use xlink:href="#DejaVuSans-65" transform="translate(89.132812 0)"/>
      <use xlink:href="#DejaVuSans-65" transform="translate(150.65625 0)"/>
      <use xlink:href="#DejaVuSans-20" transform="translate(212.179688 0)"/>
      <use xlink:href="#DejaVuSans-4d" transform="translate(243.966797 0)"/>
      <use xlink:href="#DejaVuSans-65" transform="translate(330.246094 0)"/>
      <use xlink:href="#DejaVuSans-6d" transform="translate(391.769531 0)"/>
      <use xlink:href="#DejaVuSans-6f" transform="translate(489.181641 0)"/>
      <use xlink:href="#DejaVuSans-72" transform="translate(550.363281 0)"/>
      <use xlink:href="#DejaVuSans-79" transform="translate(591.476562 0)"/>
      <use xlink:href="#DejaVuSans-20" transform="translate(650.65625 0)"/>
      <use xlink:href="#DejaVuSans-28" transform="translate(682.443359 0)"/>
      <use xlink:href="#DejaVuSans-62" transform="translate(721.457031 0)"/>
      <use xlink:href="#DejaVuSans-79" transform="translate(784.933594 0)"/>
      <use xlink:href="#DejaVuSans-74" transform="translate(844.113281 0)"/>
      <use xlink:href="#DejaVuSans-65" transform="translate(883.322266 0)"/>
      <use xlink:href="#DejaVuSans-73" transform="translate(944.845703 0)"/>
      <use xlink:href="#DejaVuSans-29" transform="translate(996.945312 0)"/>
     </g>
    </g>
   </g>
   <g id="line2d_25">
    <path d="M 125.313079 433 
L 125.42155 101.055065 
L 125.653984 101.055065 
L 125.770202 109.15742 
L 126.072367 109.15742 
L 126.188584 112.452905 
L 126.606966 112.452905 
L 126.723183 120.021691 
L 127.211296 120.021691 
L 127.319765 107.822742 
L 127.916347 107.822742 
L 128.032564 113.928401 
L 128.706624 113.928401 
L 128.822842 106.896275 
L 128.946807 106.896275 
L 129.055276 106.749169 
L 129.279963 106.749169 
L 129.403928 107.098626 
L 130.240692 107.043849 
L 130.35691 107.391219 
L 132.340351 107.294745 
L 132.464316 108.034217 
L 132.689003 108.034217 
L 132.812968 108.528593 
L 133.827932 108.639469 
L 133.936401 108.983885 
L 134.176584 108.983885 
L 134.292801 109.515722 
L 134.517488 109.515722 
L 134.633705 109.754279 
L 134.866139 109.754279 
L 134.974609 109.96034 
L 135.563443 109.879708 
L 135.67966 110.955884 
L 136.082547 110.955884 
L 136.198764 111.44802 
L 136.431198 111.44802 
L 136.547416 111.638297 
L 136.865076 111.638297 
L 136.981294 111.756562 
L 137.570128 111.802179 
L 137.686345 111.876195 
L 138.360405 111.876195 
L 138.476622 112.366643 
L 139.274648 112.467338 
L 139.390865 112.669287 
L 140.057177 112.586299 
L 140.173394 112.799537 
L 140.483307 112.799537 
L 140.607272 113.281752 
L 141.281332 113.281752 
L 141.397549 113.39499 
L 141.629984 113.39499 
L 141.746201 113.688914 
L 141.939897 113.688914 
L 142.048366 113.234518 
L 142.288549 113.234518 
L 142.404766 113.693318 
L 142.730174 113.693318 
L 142.854139 114.759763 
L 143.078826 114.759763 
L 143.195043 114.324986 
L 143.427478 114.324986 
L 143.543695 114.048121 
L 143.768382 114.048121 
L 143.876851 114.316462 
L 144.109286 114.316462 
L 144.233251 114.586221 
L 144.558659 114.586221 
L 144.674876 124.768281 
L 145.232719 124.768281 
L 145.348936 116.849573 
L 146.239935 116.750336 
L 146.356153 117.006017 
L 146.681561 117.006017 
L 146.797778 117.336798 
L 147.371117 117.336798 
L 147.487334 117.195625 
L 147.712021 117.195625 
L 147.828238 117.424977 
L 148.153646 117.424977 
L 148.269864 117.860433 
L 149.261584 117.860433 
L 149.377801 118.203381 
L 150.292044 118.203381 
L 150.400513 118.412881 
L 150.725922 118.412881 
L 150.842139 118.730194 
L 151.074574 118.730194 
L 151.183043 118.596879 
L 151.508451 118.596879 
L 151.632416 118.86311 
L 151.857103 118.86311 
L 151.97332 119.063504 
L 152.996032 118.984012 
L 153.119997 119.395043 
L 153.832797 119.395043 
L 153.949014 119.652554 
L 154.863256 119.65731 
L 154.979474 119.936884 
L 156.009933 119.936884 
L 156.126151 120.133066 
L 156.350837 120.133066 
L 156.474802 120.397104 
L 156.916428 120.397104 
L 157.040393 120.573989 
L 158.001122 120.684255 
L 158.109592 120.7165 
L 158.566713 120.7165 
L 158.68293 120.891485 
L 158.915365 120.891485 
L 159.031582 121.084009 
L 159.256269 121.084009 
L 159.372486 121.260289 
L 159.814112 121.260289 
L 159.930329 121.393105 
L 160.588893 121.403666 
L 160.705111 121.542752 
L 161.278449 121.459746 
L 161.394666 121.674231 
L 162.673056 121.743829 
L 162.797021 122.310534 
L 163.021708 122.310534 
L 163.137925 122.046128 
L 163.362612 122.046128 
L 163.471081 122.354635 
L 164.935419 122.440935 
L 165.043888 122.615998 
L 165.57074 122.615998 
L 165.694705 122.762062 
L 165.919392 122.762062 
L 166.027861 123.108489 
L 166.717417 123.108489 
L 166.833634 123.23018 
L 167.159043 123.23018 
L 167.27526 123.074895 
L 167.778868 123.074895 
L 167.895085 123.450076 
L 168.987528 123.463227 
L 169.111493 123.647232 
L 169.429153 123.647232 
L 169.54537 123.883594 
L 186.141195 123.883594 
L 186.257413 127.581607 
L 187.086429 127.581607 
L 187.202646 127.874346 
L 187.435081 127.874346 
L 187.559046 128.155578 
L 187.783733 128.155578 
L 187.89995 127.997924 
L 188.132384 127.997924 
L 188.25635 128.416338 
L 188.82194 128.435624 
L 188.93041 128.25382 
L 189.60447 128.363524 
L 189.712939 128.65699 
L 190.45673 128.745272 
L 190.572947 128.990405 
L 190.797634 128.990405 
L 190.921599 128.811645 
L 191.146285 128.811645 
L 191.254755 129.154771 
L 192.130258 129.11472 
L 192.246476 129.356174 
L 192.571884 129.356174 
L 192.695849 129.204785 
L 192.920536 129.204785 
L 193.036753 129.353548 
L 193.354413 129.353548 
L 193.470631 129.476565 
L 194.408117 129.44088 
L 194.524334 129.657923 
L 195.469568 129.657923 
L 195.585785 129.969255 
L 195.825967 129.969255 
L 195.942184 129.779094 
L 196.174619 129.779094 
L 196.290836 130.14397 
L 196.608497 130.14397 
L 196.732462 130.007624 
L 198.0186 130.043451 
L 198.134817 130.390257 
L 198.58419 130.390257 
L 198.700408 130.51755 
L 198.901851 130.51755 
L 199.01032 130.357424 
L 199.242755 130.357424 
L 199.358972 130.556687 
L 214.536946 130.556687 
L 214.660911 133.152915 
L 214.893346 133.152915 
L 215.001815 133.768678 
L 215.954797 133.784073 
L 216.071014 133.933472 
L 216.962013 134.006023 
L 217.078231 134.204536 
L 219.170141 134.262916 
L 219.286359 134.575996 
L 220.115375 134.575996 
L 220.231592 134.80483 
L 221.006374 134.761873 
L 221.114843 134.919137 
L 222.920085 135.024576 
L 223.036302 135.399718 
L 223.617388 135.399718 
L 223.725858 135.164911 
L 224.399918 135.164911 
L 224.516135 135.605284 
L 226.065699 135.519987 
L 226.181916 135.721719 
L 227.212376 135.780505 
L 227.328593 135.517893 
L 227.909679 135.517893 
L 228.025897 135.789556 
L 229.164826 135.816416 
L 229.288791 136.014046 
L 229.691677 136.014046 
L 229.807895 135.795842 
L 230.210781 135.795842 
L 230.334746 136.041791 
L 230.745381 136.041791 
L 230.869346 136.268339 
L 231.520162 136.268339 
L 231.63638 136.389237 
L 232.682335 136.477445 
L 232.798552 136.581132 
L 233.751534 136.546163 
L 233.867751 136.796581 
L 234.805237 136.757581 
L 234.921454 136.66776 
L 236.044888 136.753514 
L 236.153357 136.994746 
L 238.276259 136.994746 
L 238.392476 137.493004 
L 238.803111 137.493004 
L 238.919328 137.372753 
L 239.33771 137.372753 
L 239.461675 137.55519 
L 240.290692 137.55519 
L 240.399161 137.952803 
L 242.444585 138.037806 
L 242.553054 138.083228 
L 243.165132 138.083228 
L 243.281349 138.277905 
L 243.684236 138.277905 
L 243.808201 138.620605 
L 245.590199 138.642024 
L 245.698668 138.832546 
L 246.736876 138.922315 
L 246.853093 139.067883 
L 247.891301 139.137124 
L 247.99977 139.351801 
L 249.037978 139.41862 
L 249.154195 139.504523 
L 250.269881 139.510827 
L 250.386098 139.639273 
L 251.470792 139.639273 
L 251.58701 139.812461 
L 252.005392 139.812461 
L 252.121609 140.010227 
L 252.539991 140.010227 
L 252.663956 139.695052 
L 253.066843 139.695052 
L 253.18306 140.127834 
L 253.578199 140.127834 
L 253.694416 140.005896 
L 254.112798 140.005896 
L 254.229015 140.157353 
L 255.158753 140.157353 
L 255.282718 140.454055 
L 255.693353 140.454055 
L 255.817318 140.626853 
L 256.754804 140.543732 
L 256.871021 140.81604 
L 258.776984 140.852139 
L 258.893201 141.009002 
L 259.551766 141.009002 
L 259.667983 141.221901 
L 260.3188 141.221901 
L 260.435017 141.025539 
L 260.845651 141.025539 
L 260.961869 141.190631 
L 261.550703 141.190631 
L 261.66692 141.450537 
L 262.317737 141.450537 
L 262.433954 141.65025 
L 263.805318 141.599056 
L 263.921535 141.830163 
L 264.502621 141.830163 
L 264.618839 141.952786 
L 265.75002 141.939394 
L 265.873985 141.743803 
L 266.377593 141.743803 
L 266.49381 142.250636 
L 268.144095 142.181558 
L 268.252565 142.416143 
L 268.771669 142.416143 
L 268.887886 142.543038 
L 270.82484 142.462737 
L 270.941058 142.728769 
L 272.025752 142.737197 
L 272.141969 143.11119 
L 273.993698 143.17054 
L 274.102167 143.228966 
L 275.326322 143.266358 
L 275.44254 143.413578 
L 276.992103 143.423443 
L 277.116068 143.545972 
L 293.890093 143.545972 
L 294.00631 117.106183 
L 295.013526 117.106183 
L 295.121996 117.361567 
L 295.966508 117.361567 
L 296.074977 117.617292 
L 296.49336 117.617292 
L 296.617325 117.477161 
L 297.004716 117.477161 
L 297.136428 117.719283 
L 298.949418 117.709497 
L 299.065635 118.029933 
L 300.088347 117.998956 
L 300.204564 117.880752 
L 300.901868 117.880752 
L 301.018085 118.017542 
L 301.428719 118.017542 
L 301.544937 118.262621 
L 303.017022 118.194871 
L 303.133239 118.512789 
L 303.551621 118.512789 
L 303.675586 118.358675 
L 304.078473 118.358675 
L 304.186942 118.497542 
L 304.682803 118.497542 
L 304.79902 118.61378 
L 305.387854 118.61378 
L 305.504071 118.785243 
L 307.154356 118.873567 
L 307.270574 119.094012 
L 308.913111 119.00497 
L 309.044824 119.297337 
L 310.671866 119.292086 
L 310.788083 119.550114 
L 311.198717 119.550114 
L 311.322682 119.407241 
L 311.725569 119.407241 
L 311.841786 119.547591 
L 312.446116 119.547591 
L 312.562333 119.759222 
L 314.398566 119.767536 
L 314.514783 119.926832 
L 315.452269 119.926832 
L 315.560738 120.038736 
L 318.621126 120.126529 
L 318.737344 120.238244 
L 319.2487 120.238244 
L 319.364917 120.405795 
L 319.868525 120.405795 
L 319.984742 120.581232 
L 321.123671 120.645305 
L 321.247636 120.738398 
L 322.448548 120.815477 
L 322.557018 121.020494 
L 324.098833 121.076225 
L 324.222798 121.154526 
L 325.431458 121.242399 
L 325.555423 121.31396 
L 326.152005 121.31396 
L 326.260474 121.514089 
L 326.919039 121.514089 
L 327.035256 121.360469 
L 328.259411 121.376207 
L 328.375628 121.57212 
L 329.909696 121.57212 
L 330.033661 121.834146 
L 330.529522 121.834146 
L 330.637991 121.979952 
L 332.040346 121.920451 
L 332.156563 122.255783 
L 333.783605 122.189348 
L 333.892075 122.408188 
L 335.457134 122.509912 
L 335.581099 122.527074 
L 336.177681 122.527074 
L 336.28615 122.668402 
L 336.797506 122.668402 
L 336.913723 122.825004 
L 337.518053 122.825004 
L 337.63427 122.702523 
L 338.564008 122.702523 
L 338.680226 122.967319 
L 341.694127 122.966738 
L 341.802596 123.341057 
L 345.963174 123.374284 
L 346.087139 123.660177 
L 347.520485 123.680633 
L 347.636703 123.968133 
L 349.736361 124.045497 
L 349.860326 124.202274 
L 351.40989 124.266535 
L 351.526107 124.435837 
L 354.361808 124.399509 
L 354.478026 124.827795 
L 357.468683 124.910156 
L 357.5849 125.059773 
L 358.25896 125.059773 
L 358.382926 125.208577 
L 360.350871 125.161134 
L 360.482584 125.372482 
L 361.745478 125.411914 
L 361.861696 125.523402 
L 362.94639 125.600822 
L 363.070355 125.707257 
L 365.301727 125.803974 
L 365.417944 125.876216 
L 366.502638 125.887106 
L 366.618856 126.08303 
L 369.206627 126.166306 
L 369.322844 126.274743 
L 371.298537 126.177407 
L 371.422502 126.418538 
L 371.887371 126.418538 
L 372.011336 126.789993 
L 375.102716 126.85181 
L 375.211185 126.935096 
L 376.745253 126.981151 
L 376.86147 127.271459 
L 379.642937 127.256561 
L 379.751406 127.547017 
L 380.859344 127.443504 
L 380.975561 127.694665 
L 381.471422 127.694665 
L 381.595387 127.833503 
L 383.578828 127.741747 
L 383.695045 127.965279 
L 385.562269 127.999256 
L 385.670739 128.195682 
L 386.166599 128.195682 
L 386.282816 127.973815 
L 387.429493 127.973815 
L 387.553458 128.388015 
L 391.481602 128.49419 
L 391.590071 128.774937 
L 392.790983 128.762688 
L 392.899452 128.952151 
L 395.247041 129.053249 
L 395.355511 129.192532 
L 396.533179 129.192532 
L 396.649396 129.363803 
L 397.137509 129.363803 
L 397.261474 129.18503 
L 397.757334 129.18503 
L 397.873551 129.307488 
L 398.710315 129.307488 
L 398.826533 129.461057 
L 402.088364 129.431084 
L 402.212329 129.869834 
L 402.770172 129.869834 
L 402.886389 129.991651 
L 440.641504 129.991651 
L 440.757721 133.611644 
L 441.834668 133.611644 
L 441.950885 133.820134 
L 442.880623 133.820134 
L 442.989092 134.013011 
L 444.019552 134.013011 
L 444.135769 133.851679 
L 445.142986 133.851679 
L 445.266951 134.034559 
L 446.537593 134.034559 
L 446.65381 134.203239 
L 448.714729 134.201146 
L 448.838695 134.448452 
L 450.961597 134.485622 
L 451.085562 134.727752 
L 452.007552 134.727752 
L 452.123769 134.550796 
L 453.138733 134.550796 
L 453.247203 134.874627 
L 455.24614 134.929605 
L 455.362357 135.059083 
L 457.345798 135.08266 
L 457.462015 135.183255 
L 459.925821 135.235273 
L 460.026543 135.544914 
L 461.049255 135.544914 
L 461.157724 135.669764 
L 462.281158 135.669764 
L 462.397375 135.796051 
L 464.628747 135.797727 
L 464.744964 135.996863 
L 467.88283 136.107551 
L 468.006795 136.256602 
L 469.246446 136.256602 
L 469.370411 135.942969 
L 470.292401 135.942969 
L 470.416366 136.26989 
L 472.39206 136.379008 
L 472.508277 136.736908 
L 475.963803 136.787565 
L 476.072273 137.025827 
L 477.009759 137.025827 
L 477.125976 137.15565 
L 480.782946 137.236026 
L 480.899163 137.420751 
L 481.968362 137.420751 
L 482.076831 137.538154 
L 484.92028 137.6285 
L 485.02875 137.797629 
L 487.492556 137.823945 
L 487.608773 137.940924 
L 488.693468 137.940924 
L 488.817433 138.105352 
L 491.103039 138.169752 
L 491.219256 138.329801 
L 494.783252 138.271649 
L 494.891722 138.539803 
L 496.232094 138.539803 
L 496.356059 138.729511 
L 498.959326 138.666216 
L 499.075543 138.862539 
L 500.160237 138.862539 
L 500.284203 138.988102 
L 501.361149 138.988102 
L 501.477366 139.273809 
L 502.562061 139.273809 
L 502.678278 139.138552 
L 503.840451 139.138552 
L 503.964416 139.257883 
L 505.219562 139.257883 
L 505.33578 139.425176 
L 506.776874 139.425176 
L 506.893091 139.54651 
L 509.814018 139.511625 
L 509.937983 139.827216 
L 513.424501 139.876529 
L 513.540718 140.091041 
L 516.151733 140.168749 
L 516.26795 140.28696 
L 517.360392 140.28696 
L 517.468862 140.50537 
L 520.963127 140.547896 
L 521.079345 140.794204 
L 523.543151 140.888029 
L 523.667116 141.04052 
L 525.952722 141.011569 
L 526.068939 141.198206 
L 529.795639 141.239661 
L 529.904109 141.534603 
L 532.367915 141.586679 
L 532.484132 141.691931 
L 533.568826 141.691931 
L 533.685044 141.81732 
L 536.048128 141.851511 
L 536.164345 142.012207 
L 539.743837 141.964788 
L 539.860054 142.400346 
L 543.42405 142.402789 
L 543.548015 142.631055 
L 547.274715 142.682839 
L 547.398681 143.036247 
L 551.528267 143.029504 
L 551.652232 143.222727 
L 552.829901 143.222727 
L 552.946118 143.363027 
L 554.015317 143.363027 
L 554.131534 143.475683 
L 555.309202 143.475683 
L 555.417672 143.598428 
L 559.353563 143.644771 
L 559.46978 143.805236 
L 560.546727 143.805236 
L 560.670692 143.935437 
L 563.041524 143.927676 
L 563.165489 144.084972 
L 565.443347 144.172761 
L 565.559565 144.272116 
L 566.644259 144.272116 
L 566.760476 144.138083 
L 567.845171 144.138083 
L 567.969136 144.501065 
L 570.766098 144.574619 
L 570.890063 144.765848 
L 573.578556 144.824644 
L 573.694773 144.898176 
L 574.756224 144.898176 
L 574.864693 145.082699 
L 575.94164 145.082699 
L 576.057857 144.905394 
L 577.1503 144.905394 
L 577.258769 145.243309 
L 578.343464 145.243309 
L 578.467429 145.127832 
L 579.552123 145.127832 
L 579.66834 145.344397 
L 580.977721 145.344397 
L 581.086191 145.527425 
L 582.178633 145.527425 
L 582.287103 145.693203 
L 584.774152 145.6671 
L 584.882621 145.531099 
L 586.315968 145.531099 
L 586.424437 145.887773 
L 587.679584 145.887773 
L 587.795801 146.003068 
L 590.484293 146.068727 
L 590.600511 146.136628 
L 591.677457 146.136628 
L 591.793675 146.35037 
L 595.698575 146.405819 
L 595.814792 146.467356 
L 598.44905 146.569306 
L 598.565267 146.713622 
L 600.951595 146.656003 
L 601.07556 146.83077 
L 602.842062 146.83077 
L 602.95828 147.003193 
L 604.368382 147.003193 
L 604.492347 147.211714 
L 608.056344 147.141639 
L 608.172561 147.41236 
L 610.458167 147.502586 
L 610.574384 147.690248 
L 613.619276 147.709202 
L 613.735494 147.855725 
L 614.92091 147.855725 
L 615.029379 147.742669 
L 616.369752 147.742669 
L 616.485969 147.954912 
L 617.570663 147.954912 
L 617.686881 148.179423 
L 618.779323 148.179423 
L 618.887792 148.061343 
L 619.980235 148.061343 
L 620.096452 148.246975 
L 621.258624 148.246975 
L 621.374842 148.114499 
L 622.55251 148.114499 
L 622.676475 148.240372 
L 623.753422 148.240372 
L 623.869639 148.389963 
L 626.147497 148.470734 
L 626.263715 148.534449 
L 627.340661 148.534449 
L 627.464626 171.604227 
L 628.526077 171.604227 
L 628.642295 169.585749 
L 629.734737 169.585749 
L 629.850954 170.189054 
L 631.447004 170.189054 
L 631.555474 172.505683 
L 632.74089 172.505683 
L 632.857107 172.264148 
L 633.94955 172.264148 
L 634.073515 171.882865 
L 636.025965 171.944391 
L 636.14993 172.035649 
L 636.583807 172.035649 
L 636.700025 172.253229 
L 652.404851 172.217927 
L 652.521068 173.391598 
L 711.001594 173.360626 
L 711.117812 177.038454 
L 711.435472 177.038454 
L 711.559437 177.300207 
L 730.735285 177.300207 
L 730.851503 178.741472 
L 731.300876 178.741472 
L 731.417093 179.01591 
L 731.928449 179.01591 
L 732.052414 178.758956 
L 747.114171 178.758956 
L 747.230389 196.596636 
L 747.981927 196.617236 
L 748.105892 196.72922 
L 748.555266 196.72922 
L 748.671483 196.354526 
L 748.989143 196.354526 
L 749.105361 196.796882 
L 749.632212 196.796882 
L 749.748429 196.664071 
L 766.661915 196.772669 
L 766.778132 200.117756 
L 768.459409 200.185957 
L 768.575626 202.017671 
L 768.893286 202.017671 
L 769.017251 199.671209 
L 769.334912 199.671209 
L 769.451129 199.87778 
L 785.620824 199.961548 
L 785.737042 202.952045 
L 786.06245 202.952045 
L 786.186415 202.123204 
L 786.504075 202.123204 
L 786.612545 202.534105 
L 787.061918 202.534105 
L 787.178136 201.923728 
L 787.503544 201.923728 
L 787.612013 202.270975 
L 792.702329 202.324437 
L 792.818547 202.449499 
L 793.136207 202.449499 
L 793.252425 202.301442 
L 793.80252 202.301442 
L 793.910989 202.502129 
L 794.515319 202.502129 
L 794.623788 202.646672 
L 796.32056 202.555556 
L 796.452273 202.837947 
L 797.575707 202.756284 
L 797.691924 202.961558 
L 799.140766 202.978636 
L 799.256983 202.736599 
L 800.264199 202.736599 
L 800.380417 203.002218 
L 802.131423 203.084561 
L 802.247641 203.164122 
L 804.510003 203.244882 
L 804.626221 203.315646 
L 807.051287 203.33919 
L 807.159757 203.476617 
L 809.894736 203.394557 
L 810.018702 203.653678 
L 810.847718 203.653678 
L 810.963935 203.864679 
L 812.61422 203.866848 
L 812.730438 203.688871 
L 813.729906 203.688871 
L 813.838376 203.838468 
L 815.3492 203.857905 
L 815.465417 203.959522 
L 816.170469 203.959522 
L 816.286686 204.12527 
L 816.983989 204.12527 
L 817.100207 203.998975 
L 818.479318 203.950931 
L 818.479318 203.950931 
" clip-path="url(#pdc1f8b5619)" style="fill: none; stroke: #1f77b4; stroke-opacity: 0.7; stroke-width: 1.5; stroke-linecap: square"/>
   </g>
   <g id="line2d_26">
    <path d="M 124.414303 433 
L 124.522803 37.64166 
L 124.538299 37.64166 
L 124.941185 38.873109 
L 125.49128 38.958883 
L 126.118853 39.087788 
L 127.590939 38.983524 
L 127.714904 38.905729 
L 129.125007 38.963571 
L 129.140502 39.023276 
L 130.442136 38.991854 
L 130.465379 39.282508 
L 131.224665 39.282508 
L 131.333135 39.135526 
L 131.790256 39.135526 
L 131.906473 39.290879 
L 132.441073 39.290879 
L 132.565038 39.421563 
L 134.285053 39.515089 
L 134.40127 39.562998 
L 134.726679 39.562998 
L 134.866139 39.6846 
L 137.694093 39.734028 
L 137.802562 39.834013 
L 140.36709 39.896242 
L 140.537542 39.978481 
L 146.29417 40.01144 
L 146.418135 40.177297 
L 147.371117 40.207043 
L 147.487334 40.304157 
L 150.795652 40.351981 
L 150.888626 40.497556 
L 154.979474 40.545193 
L 155.080195 40.625032 
L 159.883842 40.650094 
L 160.038798 40.755624 
L 164.40082 40.838735 
L 164.524785 40.894767 
L 168.204998 40.90148 
L 168.313467 41.0517 
L 173.473514 41.05364 
L 173.589731 41.198406 
L 180.400063 41.305497 
L 180.51628 41.478516 
L 188.876175 41.545486 
L 189.007888 41.606014 
L 193.896761 41.649112 
L 194.043969 41.741487 
L 196.771201 41.749835 
L 196.887418 41.860935 
L 203.426576 41.959423 
L 203.542793 42.061725 
L 210.678533 42.128183 
L 210.794751 42.180349 
L 215.923806 42.283408 
L 216.132997 42.293469 
L 223.849823 42.392729 
L 223.981536 42.414564 
L 230.915833 42.494912 
L 231.03205 42.585951 
L 236.920391 42.672644 
L 237.044356 42.734005 
L 242.986932 42.808932 
L 243.087654 42.930194 
L 251.075654 42.980607 
L 251.199619 43.090107 
L 263.108014 43.164707 
L 263.216484 43.251946 
L 272.436386 43.360031 
L 272.568099 43.458522 
L 281.811246 43.487375 
L 281.935211 43.585448 
L 289.272394 43.607614 
L 289.396359 43.698813 
L 293.409728 43.765592 
L 293.494954 44.018936 
L 294.068293 44.018936 
L 294.192258 43.814639 
L 296.640568 43.843578 
L 296.764533 44.047218 
L 298.422566 44.047218 
L 298.577523 44.176967 
L 300.22006 44.176967 
L 300.336277 44.480558 
L 306.519035 44.501962 
L 306.619757 44.798898 
L 310.29997 44.688507 
L 310.385196 48.041855 
L 312.345394 48.041855 
L 312.446116 47.914003 
L 317.660397 47.965088 
L 317.79211 48.036157 
L 325.392719 48.100049 
L 325.547675 48.263014 
L 336.859489 48.272382 
L 336.975706 48.447434 
L 342.042779 48.457272 
L 342.182239 48.582331 
L 350.177987 48.641214 
L 350.4879 48.724506 
L 356.066328 48.736377 
L 356.182545 48.887514 
L 357.69337 48.887514 
L 357.801839 48.742821 
L 360.21141 48.742821 
L 360.312132 48.917822 
L 364.945327 48.932898 
L 365.030553 49.032615 
L 366.572369 49.032615 
L 366.727325 48.920556 
L 373.274231 48.967034 
L 373.367205 49.050934 
L 379.131581 49.111285 
L 379.24005 49.165505 
L 383.788019 49.211993 
L 383.919732 49.284072 
L 388.901579 49.275985 
L 389.017796 64.66273 
L 391.140698 64.66273 
L 391.256915 63.958527 
L 395.425241 63.989444 
L 395.53371 64.08643 
L 400.879704 64.107583 
L 400.988174 64.230756 
L 404.885326 64.271883 
L 405.001543 64.348603 
L 409.441043 64.453725 
L 409.580503 64.506329 
L 412.842335 64.514635 
L 412.958552 64.690896 
L 420.799343 64.76602 
L 420.938804 64.848428 
L 422.263681 64.848428 
L 422.403141 64.736903 
L 423.751262 64.736903 
L 423.859731 64.922889 
L 426.501737 64.921939 
L 426.63345 65.051604 
L 427.958326 65.051604 
L 428.0513 65.168262 
L 431.258897 65.229089 
L 431.375114 65.320117 
L 435.713892 65.342954 
L 435.822361 65.203721 
L 438.627071 65.196083 
L 438.789775 65.32166 
L 445.933263 65.426905 
L 446.04948 62.854171 
L 450.341771 62.903033 
L 450.457988 62.973584 
L 453.549368 62.973584 
L 453.68108 63.095815 
L 459.677891 63.128251 
L 459.794108 63.323992 
L 464.520277 63.387692 
L 464.620999 63.580391 
L 467.046066 63.580391 
L 467.154535 63.35758 
L 471.617278 63.457481 
L 471.741243 63.551737 
L 476.056777 63.61616 
L 476.165247 63.664381 
L 480.070147 63.754305 
L 480.178616 63.811069 
L 483.32423 63.837753 
L 483.440447 63.990274 
L 493.590088 64.022615 
L 493.698558 64.243964 
L 500.369429 64.317598 
L 500.524385 64.383959 
L 506.900839 64.474331 
L 506.993812 64.587771 
L 511.456555 64.653395 
L 511.518538 64.703713 
L 513.796396 64.703713 
L 513.920361 64.825086 
L 524.372167 64.932622 
L 524.488384 64.950546 
L 529.68717 64.993596 
L 529.857622 65.063673 
L 532.662332 65.063673 
L 532.763053 65.182707 
L 543.044407 65.257386 
L 543.145129 65.312953 
L 551.086642 65.409766 
L 551.195111 30.736459 
L 551.791693 30.736459 
L 551.90791 29.630286 
L 553.5427 29.645551 
L 553.736395 28.081078 
L 561.972325 28.175631 
L 562.042056 28.193259 
L 569.325004 28.264468 
L 569.495456 28.320124 
L 576.646691 28.356077 
L 576.762909 28.432212 
L 585.789116 28.515113 
L 585.905333 28.558064 
L 591.390788 28.6306 
L 591.56124 28.673671 
L 598.418059 28.738452 
L 598.557519 28.799778 
L 607.351292 28.888122 
L 607.475257 28.912294 
L 610.729341 29.015212 
L 610.876549 29.023552 
L 618.438419 29.099689 
L 618.554636 29.149195 
L 626.472906 29.222457 
L 626.573627 29.305604 
L 632.903594 29.392139 
L 633.05855 29.449153 
L 639.132839 29.481717 
L 639.249057 29.564343 
L 645.478302 29.660509 
L 645.586771 51.611062 
L 646.105875 51.611062 
L 646.22984 50.535048 
L 647.058857 50.535048 
L 647.198317 50.415422 
L 651.568086 50.478577 
L 651.676556 50.590973 
L 652.180164 50.590973 
L 652.288633 50.456013 
L 652.93945 50.479281 
L 653.055667 51.894051 
L 654.798926 51.81767 
L 654.946135 51.727749 
L 659.238426 51.793046 
L 659.362391 51.886965 
L 665.026045 51.978699 
L 665.157758 52.024118 
L 672.006829 52.132582 
L 672.169533 52.200563 
L 675.756773 52.309474 
L 675.903981 52.351028 
L 678.948873 52.246421 
L 679.065091 52.493794 
L 679.646177 52.493794 
L 679.793385 52.351772 
L 682.489626 52.430301 
L 682.613591 52.511264 
L 691.291147 52.578482 
L 691.407364 52.649426 
L 693.166118 52.658397 
L 693.274588 52.528107 
L 693.731709 52.528107 
L 693.894413 52.706309 
L 697.628861 52.706152 
L 697.737331 52.821807 
L 698.760043 52.776986 
L 698.837521 52.701412 
L 709.49077 52.75771 
L 709.614735 60.215951 
L 710.048613 60.215951 
L 710.133839 64.348207 
L 710.614203 64.348207 
L 710.730421 58.234071 
L 712.566653 58.234071 
L 712.698366 58.659426 
L 715.52632 58.722531 
L 715.658033 58.503901 
L 732.021423 58.539208 
L 732.153136 58.682573 
L 735.934071 58.768986 
L 736.089027 58.828357 
L 736.553896 58.828357 
L 736.670114 60.156514 
L 737.065252 60.156514 
L 737.189217 59.466337 
L 739.234641 59.466337 
L 739.343111 60.959356 
L 739.668519 60.959356 
L 739.792484 61.294201 
L 741.527995 61.294201 
L 741.667456 60.270228 
L 746.192181 60.311695 
L 746.308398 60.600431 
L 747.555797 60.600431 
L 747.656519 60.161401 
L 749.655456 60.161401 
L 749.771673 63.350546 
L 752.956026 63.350546 
L 753.064495 63.926504 
L 756.078396 63.970704 
L 756.155874 64.078285 
L 758.534454 64.07093 
L 758.666167 64.199557 
L 768.606617 64.265911 
L 768.769321 64.349671 
L 772.743952 64.411485 
L 772.945395 64.479196 
L 774.208289 64.479196 
L 774.34775 64.81203 
L 776.245965 64.81203 
L 776.36993 65.244445 
L 778.554815 65.244445 
L 778.671032 65.602148 
L 780.445282 65.602148 
L 780.546004 65.717552 
L 782.637915 65.717552 
L 782.76188 65.84924 
L 786.752006 65.84924 
L 786.945701 66.865724 
L 789.672933 66.865724 
L 789.78915 69.726275 
L 792.539625 69.726275 
L 792.648095 69.299078 
L 794.79424 69.299078 
L 794.79424 69.299078 
" clip-path="url(#pdc1f8b5619)" style="fill: none; stroke: #ff7f0e; stroke-opacity: 0.7; stroke-width: 1.5; stroke-linecap: square"/>
   </g>
   <g id="line2d_27">
    <path d="M 126.622461 433 
L 126.730931 151.013248 
L 127.296522 151.013248 
L 127.412739 153.652575 
L 127.924095 153.652575 
L 128.040312 157.859618 
L 128.613651 157.859618 
L 128.729868 172.034053 
L 129.365189 172.034053 
L 129.481406 160.75775 
L 130.209701 160.75775 
L 130.325918 162.065415 
L 131.2789 162.065415 
L 131.402865 167.243378 
L 131.658543 167.243378 
L 131.77476 169.083721 
L 132.154403 169.083721 
L 132.262873 166.571483 
L 132.859455 166.571483 
L 132.967924 168.15697 
L 133.595497 168.15697 
L 133.719462 166.364265 
L 134.409018 166.364265 
L 134.525235 170.832313 
L 135.307765 170.832313 
L 135.423982 176.340947 
L 136.229755 176.340947 
L 136.345973 176.030695 
L 137.167241 176.030695 
L 137.283458 177.128876 
L 138.228692 177.128876 
L 138.344909 179.373183 
L 139.414108 179.373183 
L 139.530325 182.102406 
L 140.026186 182.102406 
L 140.142403 198.108639 
L 140.54529 198.108639 
L 140.661507 199.395629 
L 142.761165 199.395629 
L 142.88513 201.674385 
L 143.473965 201.674385 
L 143.590182 213.315182 
L 144.148025 213.315182 
L 144.256494 214.541838 
L 144.659381 214.541838 
L 144.775598 204.68924 
L 145.271458 204.68924 
L 145.387675 207.173778 
L 145.782814 207.173778 
L 145.899031 213.391879 
L 146.394892 213.391879 
L 146.518857 207.866841 
L 147.014717 207.866841 
L 147.130934 213.359308 
L 147.619047 213.359308 
L 147.735264 205.578373 
L 148.145899 205.578373 
L 148.262116 215.463748 
L 149.114376 215.463748 
L 149.230593 223.686935 
L 149.641227 223.686935 
L 149.757445 211.934642 
L 150.245557 211.934642 
L 150.369522 212.265234 
L 150.756913 212.265234 
L 150.87313 212.484132 
L 151.283765 212.484132 
L 151.399982 215.902896 
L 152.128277 215.902896 
L 152.236746 213.711257 
L 152.64738 213.711257 
L 152.763598 214.177642 
L 153.274954 214.177642 
L 153.391171 214.698651 
L 153.801805 214.698651 
L 153.910275 215.006929 
L 154.413883 215.006929 
L 154.5301 214.510085 
L 154.948482 214.510085 
L 155.0647 215.048971 
L 155.467586 215.048971 
L 155.583803 216.037658 
L 155.994438 216.037658 
L 156.110655 216.457822 
L 156.521289 216.457822 
L 156.645254 216.769135 
L 157.048141 216.769135 
L 157.164358 217.071128 
L 157.567245 217.071128 
L 157.683462 217.270827 
L 158.272296 217.270827 
L 158.388513 216.859336 
L 159.031582 216.859336 
L 159.147799 218.700677 
L 159.64366 218.700677 
L 159.759877 218.531797 
L 160.348711 218.531797 
L 160.464928 218.989338 
L 161.48764 218.941291 
L 161.603857 219.773244 
L 162.006744 219.773244 
L 162.122961 220.029902 
L 162.525848 220.029902 
L 162.649813 220.149323 
L 163.230899 220.149323 
L 163.347116 221.046559 
L 163.757751 221.046559 
L 163.873968 220.676985 
L 164.671993 220.676985 
L 164.78821 221.811646 
L 165.183349 221.811646 
L 165.291819 222.266944 
L 165.803175 222.266944 
L 165.919392 222.694492 
L 166.322278 222.694492 
L 166.438496 222.990203 
L 166.841382 222.990203 
L 166.957599 222.828108 
L 167.437964 222.828108 
L 167.554181 222.633083 
L 168.12752 222.633083 
L 168.243737 223.549897 
L 168.840319 223.549897 
L 168.956536 224.079779 
L 169.359423 224.079779 
L 169.47564 224.225609 
L 169.870779 224.225609 
L 169.979248 224.085 
L 172.040168 224.085 
L 172.156385 226.069947 
L 173.357297 226.155826 
L 173.465766 226.188691 
L 174.039104 226.188691 
L 174.155322 226.431534 
L 175.007582 226.431534 
L 175.123799 227.659103 
L 175.526685 227.659103 
L 175.650651 228.306854 
L 176.123267 228.306854 
L 176.247232 228.584985 
L 179.423838 228.584985 
L 179.540055 230.010181 
L 180.128889 230.010181 
L 180.245106 230.494208 
L 205.8284 230.494208 
L 205.936869 242.654226 
L 206.339756 242.654226 
L 206.463721 242.911661 
L 207.300485 242.911661 
L 207.416702 243.447401 
L 207.819589 243.447401 
L 207.935806 243.894555 
L 208.509144 243.894555 
L 208.625362 243.588631 
L 209.028248 243.588631 
L 209.144465 244.676628 
L 209.640326 244.676628 
L 209.764291 244.931784 
L 210.353125 244.931784 
L 210.469342 245.089068 
L 210.980698 245.089068 
L 211.089168 244.972842 
L 211.57728 244.972842 
L 211.693497 246.149248 
L 212.995131 246.149248 
L 213.1036 245.901536 
L 213.583965 245.901536 
L 213.700182 246.768171 
L 214.196042 246.768171 
L 214.31226 246.541235 
L 214.769381 246.541235 
L 214.893346 247.386029 
L 216.01678 247.386029 
L 216.132997 247.798504 
L 217.178952 247.901552 
L 217.302917 248.352754 
L 218.124186 248.352754 
L 218.240403 248.79131 
L 219.766723 248.850589 
L 219.88294 249.38202 
L 220.789435 249.471556 
L 220.905652 249.834958 
L 222.509451 249.918139 
L 222.625668 250.151488 
L 223.028554 250.151488 
L 223.144772 250.812064 
L 223.547658 250.812064 
L 223.663875 250.645404 
L 224.066762 250.645404 
L 224.182979 250.451915 
L 224.585866 250.451915 
L 224.702083 251.157597 
L 225.275421 251.157597 
L 225.383891 251.850517 
L 226.840481 251.957219 
L 226.956698 252.459456 
L 227.607514 252.459456 
L 227.723732 252.615399 
L 228.312566 252.615399 
L 228.428783 252.462081 
L 228.83167 252.462081 
L 228.947887 253.136242 
L 229.350773 253.136242 
L 229.459243 253.61711 
L 229.947355 253.61711 
L 230.055825 253.214669 
L 230.466459 253.214669 
L 230.582676 253.629694 
L 230.985563 253.629694 
L 231.10178 254.440189 
L 232.341431 254.440189 
L 232.457648 254.805102 
L 233.100717 254.71038 
L 233.216934 254.582128 
L 233.867751 254.593522 
L 233.983968 254.87579 
L 234.410098 254.87579 
L 234.526315 255.497948 
L 237.547964 255.478512 
L 237.664182 256.918316 
L 238.865093 256.918316 
L 238.981311 257.267086 
L 240.36817 257.267086 
L 240.484387 257.9955 
L 241.600073 257.9955 
L 241.71629 258.44425 
L 244.621722 258.515933 
L 244.737939 214.812331 
L 245.768399 214.812331 
L 245.884616 214.089825 
L 247.163006 214.089825 
L 247.279223 214.483647 
L 248.433648 214.483647 
L 248.549865 215.255314 
L 249.464108 215.255314 
L 249.580325 214.973332 
L 251.339079 214.973332 
L 251.455297 215.998131 
L 252.470261 215.998131 
L 252.586478 216.514093 
L 254.10505 216.514093 
L 254.229015 217.064326 
L 255.38344 217.064326 
L 255.499657 217.244375 
L 256.723813 217.244375 
L 256.84003 217.897882 
L 258.25788 217.897882 
L 258.381845 218.385518 
L 259.760957 218.385518 
L 259.884922 218.691178 
L 261.66692 218.691178 
L 261.783137 219.48588 
L 263.456666 219.48588 
L 263.572883 220.233759 
L 265.424612 220.233759 
L 265.540829 220.812538 
L 267.144627 220.812538 
L 267.260844 221.6807 
L 269.693659 221.78276 
L 269.809876 222.032916 
L 270.948805 222.032916 
L 271.065023 222.719038 
L 272.265934 222.719038 
L 272.382152 222.997892 
L 273.730272 222.997892 
L 273.846489 223.117511 
L 275.132627 223.117511 
L 275.248844 223.788037 
L 276.457504 223.788037 
L 276.573721 224.350703 
L 279.982761 224.381044 
L 280.098978 225.468289 
L 281.485837 225.468289 
L 281.602054 225.79112 
L 282.841705 225.79112 
L 282.957922 226.240448 
L 284.189825 226.240448 
L 284.306043 226.969466 
L 285.499207 226.969466 
L 285.615424 226.683354 
L 286.700118 226.683354 
L 286.816336 227.736019 
L 288.342656 227.736019 
L 288.458873 228.129837 
L 289.520324 228.129837 
L 289.636541 228.306809 
L 290.814209 228.306809 
L 290.930427 228.725881 
L 291.852417 228.725881 
L 291.968634 229.334734 
L 293.254772 229.334734 
L 293.370989 229.598087 
L 294.54091 229.598087 
L 294.657127 230.037903 
L 296.31516 230.037903 
L 296.439125 230.500949 
L 297.531567 230.500949 
L 297.647784 231.064373 
L 300.297538 230.961724 
L 300.413755 231.726774 
L 301.932327 231.726774 
L 302.048545 231.976506 
L 303.288196 231.976506 
L 303.404413 232.185469 
L 304.496855 232.185469 
L 304.613072 232.906311 
L 305.697767 232.906311 
L 305.813984 233.173419 
L 307.301565 233.173419 
L 307.417782 233.60875 
L 308.541216 233.60875 
L 308.657433 233.75707 
L 309.842849 233.75707 
L 309.959066 234.480916 
L 312.562333 234.460447 
L 312.67855 234.944178 
L 313.693514 234.944178 
L 313.809732 235.630832 
L 317.598414 235.613205 
L 317.722379 236.596808 
L 320.403124 236.689515 
L 320.519342 236.861306 
L 321.720253 236.861306 
L 321.844218 237.071871 
L 322.874678 237.071871 
L 322.983148 237.633978 
L 324.354511 237.633978 
L 324.470728 238.217464 
L 325.609658 238.217464 
L 325.725875 238.513864 
L 326.849308 238.513864 
L 326.965526 238.903071 
L 327.879768 238.903071 
L 327.995985 239.473759 
L 330.266096 239.469794 
L 330.374565 239.608702 
L 331.304303 239.608702 
L 331.420521 240.138588 
L 333.008823 240.138588 
L 333.125041 240.643797 
L 334.411178 240.643797 
L 334.535143 241.053433 
L 335.441638 241.053433 
L 335.557855 240.889772 
L 336.588315 240.889772 
L 336.704532 241.672181 
L 337.765983 241.672181 
L 337.882201 241.525328 
L 339.176086 241.525328 
L 339.300051 242.244242 
L 340.407989 242.244242 
L 340.531954 242.575553 
L 341.608901 242.575553 
L 341.71737 242.795822 
L 342.864047 242.795822 
L 342.980264 243.460156 
L 343.545855 243.460156 
L 343.654325 243.252202 
L 344.243159 243.252202 
L 344.359376 243.628273 
L 345.599027 243.538108 
L 345.715244 243.913534 
L 346.29633 243.913534 
L 346.4048 243.673815 
L 346.985886 243.673815 
L 347.102103 244.248908 
L 348.35725 244.194058 
L 348.481215 243.777435 
L 349.054553 243.777435 
L 349.178518 244.85141 
L 349.837083 244.85141 
L 349.9533 244.355001 
L 350.526639 244.355001 
L 350.642856 244.662899 
L 351.65782 244.662899 
L 351.774037 245.113881 
L 352.448097 245.113881 
L 352.564315 244.740744 
L 353.129905 244.740744 
L 353.25387 245.236026 
L 354.245591 245.236026 
L 354.361808 245.889306 
L 354.935147 245.889306 
L 355.059112 246.17399 
L 356.298763 246.239925 
L 356.41498 246.447282 
L 357.329222 246.447282 
L 357.44544 246.232685 
L 358.111752 246.232685 
L 358.227969 246.699321 
L 360.017715 246.699321 
L 360.133932 247.423088 
L 360.707271 247.423088 
L 360.81574 247.243998 
L 361.381331 247.243998 
L 361.497548 247.642525 
L 362.148365 247.642525 
L 362.264582 247.483952 
L 362.845668 247.483952 
L 362.954138 247.849889 
L 365.456683 247.760149 
L 365.580648 248.498907 
L 366.239212 248.498907 
L 366.35543 248.377769 
L 366.928768 248.377769 
L 367.044985 248.72432 
L 367.626072 248.72432 
L 367.742289 248.582961 
L 368.424097 248.582961 
L 368.540314 249.191118 
L 369.470052 249.191118 
L 369.58627 249.400396 
L 370.237086 249.400396 
L 370.353304 249.610674 
L 370.926642 249.610674 
L 371.042859 249.905914 
L 371.616198 249.905914 
L 371.732415 249.779722 
L 372.305754 249.779722 
L 372.421971 249.249681 
L 373.088283 249.249681 
L 373.212248 250.334448 
L 373.870813 250.334448 
L 373.98703 250.678284 
L 379.402754 250.590086 
L 379.518972 251.839838 
L 380.177536 251.839838 
L 380.286006 251.227341 
L 380.952318 251.227341 
L 381.068535 252.159 
L 383.509098 252.141229 
L 383.625315 252.422937 
L 385.360826 252.422937 
L 385.477043 253.018059 
L 388.049319 252.95752 
L 388.165536 253.632736 
L 391.109707 253.619046 
L 391.225924 254.487931 
L 391.899984 254.487931 
L 392.016201 254.220555 
L 392.667018 254.220555 
L 392.783235 254.955158 
L 393.364321 254.955158 
L 393.480539 254.785077 
L 394.906137 254.785077 
L 395.022354 255.218446 
L 395.673171 255.218446 
L 395.797136 254.985983 
L 396.440205 254.985983 
L 396.556422 255.333701 
L 397.129761 255.333701 
L 397.245978 255.588529 
L 398.501124 255.588529 
L 398.617342 255.888018 
L 399.182932 255.888018 
L 399.29915 256.135893 
L 401.243852 256.025135 
L 401.360069 256.520065 
L 403.111076 256.520065 
L 403.227293 256.774491 
L 403.792884 256.774491 
L 403.916849 257.24508 
L 405.520647 257.355901 
L 405.636864 257.398115 
L 406.272185 257.398115 
L 406.388403 257.51029 
L 406.946245 257.51029 
L 407.062463 257.850209 
L 407.635801 257.850209 
L 407.752018 257.615724 
L 408.302114 257.615724 
L 408.418331 258.333285 
L 408.991669 258.333285 
L 409.107887 257.923986 
L 409.944651 257.923986 
L 410.068616 258.089688 
L 411.08358 258.089688 
L 411.199797 258.471507 
L 412.710622 258.543423 
L 412.819091 258.974224 
L 414.391898 258.974224 
L 414.500367 259.371414 
L 415.863983 259.370673 
L 415.980201 259.053809 
L 416.631017 259.053809 
L 416.747235 259.856058 
L 418.947615 259.75298 
L 419.063832 260.495748 
L 419.962579 260.495748 
L 420.071048 260.318415 
L 421.326195 260.29019 
L 421.442412 260.758273 
L 422.01575 260.758273 
L 422.131968 260.379361 
L 422.79828 260.379361 
L 422.914497 260.941141 
L 424.952173 260.948189 
L 425.076138 261.391147 
L 426.021372 261.391147 
L 426.137589 261.714226 
L 427.392736 261.696455 
L 427.508953 261.484342 
L 428.090039 261.484342 
L 428.206257 262.111926 
L 429.01203 262.111926 
L 429.120499 262.281812 
L 431.793496 262.261573 
L 431.901966 262.718051 
L 433.265581 262.654945 
L 433.381799 262.946818 
L 435.403979 263.012864 
L 435.527944 263.394628 
L 438.255176 263.410844 
L 438.371393 263.788037 
L 438.944732 263.788037 
L 439.068697 263.633837 
L 440.075913 263.633837 
L 440.19213 263.793846 
L 440.765469 263.793846 
L 440.881686 264.447158 
L 443.17504 264.543001 
L 443.291257 264.7175 
L 444.786586 264.618063 
L 444.910551 265.172886 
L 446.948227 265.225558 
L 447.056696 265.683971 
L 448.67599 265.722513 
L 448.792208 265.808679 
L 450.481232 265.808679 
L 450.597449 266.38835 
L 452.123769 266.38835 
L 452.239986 266.244489 
L 453.929011 266.244489 
L 454.045228 266.950772 
L 459.120048 267.043129 
L 459.236266 267.752293 
L 460.731594 267.752293 
L 460.847812 268.028443 
L 462.467105 268.028443 
L 462.591071 268.37738 
L 464.256851 268.37738 
L 464.373069 268.95359 
L 465.914884 268.95359 
L 466.038849 269.167503 
L 469.238698 269.25321 
L 469.362663 269.63023 
L 470.950966 269.63023 
L 471.067183 269.927258 
L 472.469538 269.927258 
L 472.585755 269.576997 
L 474.042345 269.576997 
L 474.158562 270.264864 
L 475.793351 270.264864 
L 475.909569 270.583495 
L 477.46688 270.583495 
L 477.583097 271.047407 
L 479.496808 271.047407 
L 479.613026 271.450837 
L 482.960083 271.432411 
L 483.084048 271.998212 
L 484.92028 271.998212 
L 485.02875 272.520553 
L 486.617052 272.520553 
L 486.725522 272.730076 
L 488.321572 272.730076 
L 488.430042 272.470237 
L 490.196544 272.470237 
L 490.312761 273.07079 
L 491.924307 273.07079 
L 492.048273 273.539198 
L 493.721801 273.539198 
L 493.838018 273.87306 
L 495.573529 273.87306 
L 495.689747 274.233025 
L 497.66544 274.233025 
L 497.781657 274.739714 
L 499.695368 274.739714 
L 499.819333 274.910501 
L 501.43088 274.910501 
L 501.547097 275.241028 
L 502.988191 275.241028 
L 503.104408 275.479023 
L 505.196319 275.479023 
L 505.312536 275.59731 
L 506.962821 275.59731 
L 507.071291 276.158074 
L 508.63635 276.158074 
L 508.752567 276.339668 
L 510.689521 276.339668 
L 510.797991 276.483159 
L 512.579989 276.483159 
L 512.696206 277.020508 
L 514.958569 277.020508 
L 515.074786 277.539761 
L 519.297347 277.564623 
L 519.413564 277.657212 
L 520.815919 277.657212 
L 520.924388 278.281924 
L 522.419717 278.281924 
L 522.535934 278.068448 
L 524.542619 278.068448 
L 524.658836 278.967881 
L 526.309121 278.967881 
L 526.425339 279.150595 
L 532.174219 279.166407 
L 532.298184 279.418809 
L 533.971713 279.418809 
L 534.080182 280.006927 
L 535.691728 280.006927 
L 535.815693 280.588259 
L 537.628683 280.588259 
L 537.752648 280.979029 
L 539.27122 280.979029 
L 539.387437 281.098598 
L 540.967992 281.098598 
L 541.084209 281.462043 
L 542.711251 281.462043 
L 542.827468 281.783246 
L 544.34604 281.783246 
L 544.462258 282.055192 
L 546.011821 282.055192 
L 546.128038 282.227701 
L 547.995262 282.227701 
L 548.11148 282.482617 
L 553.1863 282.585296 
L 553.302517 283.150044 
L 554.89082 283.150044 
L 555.007037 283.297445 
L 558.307608 283.269399 
L 558.423825 283.983691 
L 561.732143 283.987376 
L 561.84836 284.20131 
L 563.762071 284.20131 
L 563.878288 284.602488 
L 565.544069 284.602488 
L 565.660286 284.934957 
L 567.194354 284.934957 
L 567.318319 285.639285 
L 571.478897 285.748236 
L 571.595115 286.053708 
L 574.942172 286.128053 
L 575.058389 286.391254 
L 576.452996 286.391254 
L 576.561466 286.567447 
L 578.67662 286.567447 
L 578.792837 287.145054 
L 580.977721 287.145054 
L 581.093939 287.316618 
L 583.123867 287.316618 
L 583.240084 287.449214 
L 585.301004 287.449214 
L 585.417221 287.759467 
L 587.501384 287.759467 
L 587.609853 288.171995 
L 591.476014 288.202238 
L 591.599979 288.603486 
L 592.746656 288.603486 
L 592.862873 288.878313 
L 594.358202 288.878313 
L 594.474419 289.271383 
L 595.962 289.271383 
L 596.07047 289.429386 
L 599.340049 289.450454 
L 599.456266 289.88282 
L 601.129795 289.88282 
L 601.238264 290.169517 
L 603.082245 290.169517 
L 603.198462 289.700173 
L 604.62406 289.700173 
L 604.740278 290.53792 
L 606.336328 290.53792 
L 606.452545 290.974705 
L 609.419959 290.974705 
L 609.536177 290.723398 
L 610.946279 290.723398 
L 611.062497 291.540688 
L 611.961244 291.540688 
L 612.069713 291.307325 
L 613.944685 291.307325 
L 614.060902 291.733209 
L 615.370283 291.733209 
L 615.4865 291.991093 
L 617.97355 291.991093 
L 618.089767 292.444136 
L 621.87845 292.338874 
L 621.994667 292.936556 
L 622.901162 292.936556 
L 623.009631 293.06852 
L 627.263183 292.996374 
L 627.387148 293.703362 
L 628.363373 293.703362 
L 628.47959 293.827121 
L 629.572033 293.827121 
L 629.680502 293.987661 
L 630.703214 293.987661 
L 630.819431 294.315663 
L 633.267742 294.405466 
L 633.383959 294.598721 
L 636.607051 294.529487 
L 636.723268 294.879985 
L 642.07701 294.823603 
L 642.193227 295.699172 
L 643.091974 295.699172 
L 643.208191 295.462161 
L 644.494329 295.462161 
L 644.610546 295.88576 
L 645.842449 295.88576 
L 645.966414 296.016322 
L 650.870783 296.012792 
L 650.979252 296.919136 
L 654.829918 296.905244 
L 654.946135 297.391614 
L 656.518942 297.391614 
L 656.635159 297.507051 
L 659.989964 297.40661 
L 660.106181 297.644519 
L 662.856656 297.699167 
L 662.965126 297.951849 
L 664.638655 297.951849 
L 664.76262 298.265564 
L 666.296687 298.265564 
L 666.412905 298.674062 
L 669.744466 298.752947 
L 669.852936 299.250424 
L 672.773863 299.316431 
L 672.89008 299.422146 
L 674.478383 299.422146 
L 674.5946 299.737478 
L 678.739682 299.763747 
L 678.848152 300.369198 
L 680.312489 300.369198 
L 680.428707 299.988615 
L 681.327453 299.988615 
L 681.443671 300.499229 
L 684.922441 300.436031 
L 685.038658 300.805881 
L 686.874891 300.805881 
L 686.991108 301.0341 
L 688.897071 301.0341 
L 689.021036 301.363882 
L 690.345913 301.363882 
L 690.46213 324.75843 
L 692.158902 324.75843 
L 692.275119 324.92807 
L 693.26684 324.92807 
L 693.383057 325.545006 
L 695.28902 325.545006 
L 695.405238 327.020993 
L 696.303985 327.020993 
L 696.420202 326.464388 
L 698.031748 326.464388 
L 698.140217 327.674704 
L 700.573032 327.674704 
L 700.689249 344.208549 
L 701.913404 344.208549 
L 702.037369 343.046207 
L 704.369462 343.046207 
L 704.48568 344.342385 
L 707.166425 344.380683 
L 707.282642 344.857823 
L 709.730952 344.833902 
L 709.847169 348.657395 
L 711.474211 348.657395 
L 711.474211 348.657395 
" clip-path="url(#pdc1f8b5619)" style="fill: none; stroke: #2ca02c; stroke-opacity: 0.7; stroke-width: 1.5; stroke-linecap: square"/>
   </g>
   <g id="line2d_28">
    <path d="M 131.503586 433 
L 131.612056 263.185382 
L 132.867202 263.185382 
L 132.98342 276.272623 
L 134.842896 276.272623 
L 134.93587 294.9021 
L 137.306702 294.9021 
L 137.422919 312.388713 
L 139.979699 312.388713 
L 140.095916 337.987671 
L 146.743544 337.987671 
L 146.852013 363.855096 
L 153.197476 363.855096 
L 153.313693 372.801818 
L 157.660218 372.801818 
L 157.784183 350.618014 
L 182.267287 350.618014 
L 182.375756 269.871723 
L 189.131853 269.871723 
L 189.240322 265.224767 
L 195.756237 265.224767 
L 195.872454 262.446056 
L 205.216322 262.446056 
L 205.324791 288.253626 
L 710.536725 288.253626 
L 710.676186 276.049027 
L 770.481589 276.049027 
L 770.597806 283.445336 
L 776.780565 283.445336 
L 776.90453 279.267446 
L 794.778745 279.267446 
L 794.778745 279.267446 
" clip-path="url(#pdc1f8b5619)" style="fill: none; stroke: #d62728; stroke-opacity: 0.7; stroke-width: 1.5; stroke-linecap: square"/>
   </g>
   <g id="patch_3">
    <path d="M 89.345 390.04 
L 89.345 10.8 
" style="fill: none; stroke: #000000; stroke-width: 0.8; stroke-linejoin: miter; stroke-linecap: square"/>
   </g>
   <g id="patch_4">
    <path d="M 853.2 390.04 
L 853.2 10.8 
" style="fill: none; stroke: #000000; stroke-width: 0.8; stroke-linejoin: miter; stroke-linecap: square"/>
   </g>
   <g id="patch_5">
    <path d="M 89.345 390.04 
L 853.2 390.04 
" style="fill: none; stroke: #000000; stroke-width: 0.8; stroke-linejoin: miter; stroke-linecap: square"/>
   </g>
   <g id="patch_6">
    <path d="M 89.345 10.8 
L 853.2 10.8 
" style="fill: none; stroke: #000000; stroke-width: 0.8; stroke-linejoin: miter; stroke-linecap: square"/>
   </g>
   <g id="legend_1">
    <g id="patch_7">
     <path d="M 741.14375 385.04 
L 846.2 385.04 
Q 848.2 385.04 848.2 383.04 
L 848.2 325.3275 
Q 848.2 323.3275 846.2 323.3275 
L 741.14375 323.3275 
Q 739.14375 323.3275 739.14375 325.3275 
L 739.14375 383.04 
Q 739.14375 385.04 741.14375 385.04 
z
" style="fill: #ffffff; opacity: 0.8; stroke: #cccccc; stroke-linejoin: miter"/>
    </g>
    <g id="line2d_29">
     <path d="M 743.14375 331.425937 
L 753.14375 331.425937 
L 763.14375 331.425937 
" style="fill: none; stroke: #1f77b4; stroke-opacity: 0.7; stroke-width: 1.5; stroke-linecap: square"/>
    </g>
    <g id="text_15">
     <!-- 10oc-state-diff -->
     <g transform="translate(771.14375 334.925937) scale(0.1 -0.1)">
      <defs>
       <path id="DejaVuSans-2d" d="M 313 2009 
L 1997 2009 
L 1997 1497 
L 313 1497 
L 313 2009 
z
" transform="scale(0.015625)"/>
       <path id="DejaVuSans-61" d="M 2194 1759 
Q 1497 1759 1228 1600 
Q 959 1441 959 1056 
Q 959 750 1161 570 
Q 1363 391 1709 391 
Q 2188 391 2477 730 
Q 2766 1069 2766 1631 
L 2766 1759 
L 2194 1759 
z
M 3341 1997 
L 3341 0 
L 2766 0 
L 2766 531 
Q 2569 213 2275 61 
Q 1981 -91 1556 -91 
Q 1019 -91 701 211 
Q 384 513 384 1019 
Q 384 1609 779 1909 
Q 1175 2209 1959 2209 
L 2766 2209 
L 2766 2266 
Q 2766 2663 2505 2880 
Q 2244 3097 1772 3097 
Q 1472 3097 1187 3025 
Q 903 2953 641 2809 
L 641 3341 
Q 956 3463 1253 3523 
Q 1550 3584 1831 3584 
Q 2591 3584 2966 3190 
Q 3341 2797 3341 1997 
z
" transform="scale(0.015625)"/>
       <path id="DejaVuSans-66" d="M 2375 4863 
L 2375 4384 
L 1825 4384 
Q 1516 4384 1395 4259 
Q 1275 4134 1275 3809 
L 1275 3500 
L 2222 3500 
L 2222 3053 
L 1275 3053 
L 1275 0 
L 697 0 
L 697 3053 
L 147 3053 
L 147 3500 
L 697 3500 
L 697 3744 
Q 697 4328 969 4595 
Q 1241 4863 1831 4863 
L 2375 4863 
z
" transform="scale(0.015625)"/>
      </defs>
      <use xlink:href="#DejaVuSans-31"/>
      <use xlink:href="#DejaVuSans-30" transform="translate(63.623047 0)"/>
      <use xlink:href="#DejaVuSans-6f" transform="translate(127.246094 0)"/>
      <use xlink:href="#DejaVuSans-63" transform="translate(188.427734 0)"/>
      <use xlink:href="#DejaVuSans-2d" transform="translate(243.408203 0)"/>
      <use xlink:href="#DejaVuSans-73" transform="translate(279.492188 0)"/>
      <use xlink:href="#DejaVuSans-74" transform="translate(331.591797 0)"/>
      <use xlink:href="#DejaVuSans-61" transform="translate(370.800781 0)"/>
      <use xlink:href="#DejaVuSans-74" transform="translate(432.080078 0)"/>
      <use xlink:href="#DejaVuSans-65" transform="translate(471.289062 0)"/>
      <use xlink:href="#DejaVuSans-2d" transform="translate(532.8125 0)"/>
      <use xlink:href="#DejaVuSans-64" transform="translate(568.896484 0)"/>
      <use xlink:href="#DejaVuSans-69" transform="translate(632.373047 0)"/>
      <use xlink:href="#DejaVuSans-66" transform="translate(660.15625 0)"/>
      <use xlink:href="#DejaVuSans-66" transform="translate(695.361328 0)"/>
     </g>
    </g>
    <g id="line2d_30">
     <path d="M 743.14375 346.104062 
L 753.14375 346.104062 
L 763.14375 346.104062 
" style="fill: none; stroke: #ff7f0e; stroke-opacity: 0.7; stroke-width: 1.5; stroke-linecap: square"/>
    </g>
    <g id="text_16">
     <!-- 1oc-state-diff -->
     <g transform="translate(771.14375 349.604062) scale(0.1 -0.1)">
      <use xlink:href="#DejaVuSans-31"/>
      <use xlink:href="#DejaVuSans-6f" transform="translate(63.623047 0)"/>
      <use xlink:href="#DejaVuSans-63" transform="translate(124.804688 0)"/>
      <use xlink:href="#DejaVuSans-2d" transform="translate(179.785156 0)"/>
      <use xlink:href="#DejaVuSans-73" transform="translate(215.869141 0)"/>
      <use xlink:href="#DejaVuSans-74" transform="translate(267.96875 0)"/>
      <use xlink:href="#DejaVuSans-61" transform="translate(307.177734 0)"/>
      <use xlink:href="#DejaVuSans-74" transform="translate(368.457031 0)"/>
      <use xlink:href="#DejaVuSans-65" transform="translate(407.666016 0)"/>
      <use xlink:href="#DejaVuSans-2d" transform="translate(469.189453 0)"/>
      <use xlink:href="#DejaVuSans-64" transform="translate(505.273438 0)"/>
      <use xlink:href="#DejaVuSans-69" transform="translate(568.75 0)"/>
      <use xlink:href="#DejaVuSans-66" transform="translate(596.533203 0)"/>
      <use xlink:href="#DejaVuSans-66" transform="translate(631.738281 0)"/>
     </g>
    </g>
    <g id="line2d_31">
     <path d="M 743.14375 360.782187 
L 753.14375 360.782187 
L 763.14375 360.782187 
" style="fill: none; stroke: #2ca02c; stroke-opacity: 0.7; stroke-width: 1.5; stroke-linecap: square"/>
    </g>
    <g id="text_17">
     <!-- 20oc-state-diff -->
     <g transform="translate(771.14375 364.282187) scale(0.1 -0.1)">
      <use xlink:href="#DejaVuSans-32"/>
      <use xlink:href="#DejaVuSans-30" transform="translate(63.623047 0)"/>
      <use xlink:href="#DejaVuSans-6f" transform="translate(127.246094 0)"/>
      <use xlink:href="#DejaVuSans-63" transform="translate(188.427734 0)"/>
      <use xlink:href="#DejaVuSans-2d" transform="translate(243.408203 0)"/>
      <use xlink:href="#DejaVuSans-73" transform="translate(279.492188 0)"/>
      <use xlink:href="#DejaVuSans-74" transform="translate(331.591797 0)"/>
      <use xlink:href="#DejaVuSans-61" transform="translate(370.800781 0)"/>
      <use xlink:href="#DejaVuSans-74" transform="translate(432.080078 0)"/>
      <use xlink:href="#DejaVuSans-65" transform="translate(471.289062 0)"/>
      <use xlink:href="#DejaVuSans-2d" transform="translate(532.8125 0)"/>
      <use xlink:href="#DejaVuSans-64" transform="translate(568.896484 0)"/>
      <use xlink:href="#DejaVuSans-69" transform="translate(632.373047 0)"/>
      <use xlink:href="#DejaVuSans-66" transform="translate(660.15625 0)"/>
      <use xlink:href="#DejaVuSans-66" transform="translate(695.361328 0)"/>
     </g>
    </g>
    <g id="line2d_32">
     <path d="M 743.14375 375.460312 
L 753.14375 375.460312 
L 763.14375 375.460312 
" style="fill: none; stroke: #d62728; stroke-opacity: 0.7; stroke-width: 1.5; stroke-linecap: square"/>
    </g>
    <g id="text_18">
     <!-- 50oc-state-diff -->
     <g transform="translate(771.14375 378.960312) scale(0.1 -0.1)">
      <use xlink:href="#DejaVuSans-35"/>
      <use xlink:href="#DejaVuSans-30" transform="translate(63.623047 0)"/>
      <use xlink:href="#DejaVuSans-6f" transform="translate(127.246094 0)"/>
      <use xlink:href="#DejaVuSans-63" transform="translate(188.427734 0)"/>
      <use xlink:href="#DejaVuSans-2d" transform="translate(243.408203 0)"/>
      <use xlink:href="#DejaVuSans-73" transform="translate(279.492188 0)"/>
      <use xlink:href="#DejaVuSans-74" transform="translate(331.591797 0)"/>
      <use xlink:href="#DejaVuSans-61" transform="translate(370.800781 0)"/>
      <use xlink:href="#DejaVuSans-74" transform="translate(432.080078 0)"/>
      <use xlink:href="#DejaVuSans-65" transform="translate(471.289062 0)"/>
      <use xlink:href="#DejaVuSans-2d" transform="translate(532.8125 0)"/>
      <use xlink:href="#DejaVuSans-64" transform="translate(568.896484 0)"/>
      <use xlink:href="#DejaVuSans-69" transform="translate(632.373047 0)"/>
      <use xlink:href="#DejaVuSans-66" transform="translate(660.15625 0)"/>
      <use xlink:href="#DejaVuSans-66" transform="translate(695.361328 0)"/>
     </g>
    </g>
   </g>
  </g>
 </g>
 <defs>
  <clipPath id="pdc1f8b5619">
   <rect x="89.345" y="10.8" width="763.855" height="379.24"/>
  </clipPath>
 </defs>
</svg>
