<?xml version="1.0" encoding="utf-8" standalone="no"?>
<!DOCTYPE svg PUBLIC "-//W3C//DTD SVG 1.1//EN"
  "http://www.w3.org/Graphics/SVG/1.1/DTD/svg11.dtd">
<svg xmlns:xlink="http://www.w3.org/1999/xlink" width="720pt" height="432pt" viewBox="0 0 720 432" xmlns="http://www.w3.org/2000/svg" version="1.1">
 <metadata>
  <rdf:RDF xmlns:dc="http://purl.org/dc/elements/1.1/" xmlns:cc="http://creativecommons.org/ns#" xmlns:rdf="http://www.w3.org/1999/02/22-rdf-syntax-ns#">
   <cc:Work>
    <dc:type rdf:resource="http://purl.org/dc/dcmitype/StillImage"/>
    <dc:date>2025-02-12T15:42:50.811080</dc:date>
    <dc:format>image/svg+xml</dc:format>
    <dc:creator>
     <cc:Agent>
      <dc:title>Matplotlib v3.9.2, https://matplotlib.org/</dc:title>
     </cc:Agent>
    </dc:creator>
   </cc:Work>
  </rdf:RDF>
 </metadata>
 <defs>
  <style type="text/css">*{stroke-linejoin: round; stroke-linecap: butt}</style>
 </defs>
 <g id="figure_1">
  <g id="patch_1">
   <path d="M 0 432 
L 720 432 
L 720 0 
L 0 0 
z
" style="fill: #ffffff"/>
  </g>
  <g id="axes_1">
   <g id="patch_2">
    <path d="M 60.32 365.026 
L 709.2 365.026 
L 709.2 14.76 
L 60.32 14.76 
z
" style="fill: #ffffff"/>
   </g>
   <g id="patch_3">
    <path d="M 63.038771 365.026 
L 72.101341 365.026 
L 72.101341 332.426565 
L 63.038771 332.426565 
z
" clip-path="url(#pbdfedd9495)" style="fill: #cc0000"/>
   </g>
   <g id="patch_4">
    <path d="M 92.1699 365.026 
L 97.34563 365.026 
L 97.34563 365.023654 
L 92.1699 365.023654 
z
" clip-path="url(#pbdfedd9495)" style="fill: #cc0000"/>
   </g>
   <g id="patch_5">
    <path d="M 101.072241 365.026 
L 106.56843 365.026 
L 106.56843 365.015624 
L 101.072241 365.015624 
z
" clip-path="url(#pbdfedd9495)" style="fill: #cc0000"/>
   </g>
   <g id="patch_6">
    <path d="M 108.955161 365.026 
L 116.810649 365.026 
L 116.810649 365.02039 
L 108.955161 365.02039 
z
" clip-path="url(#pbdfedd9495)" style="fill: #cc0000"/>
   </g>
   <g id="patch_7">
    <path d="M 118.340616 365.026 
L 125.550333 365.026 
L 125.550333 365.019583 
L 118.340616 365.019583 
z
" clip-path="url(#pbdfedd9495)" style="fill: #cc0000"/>
   </g>
   <g id="patch_8">
    <path d="M 126.983998 365.026 
L 135.032091 365.026 
L 135.032091 358.996926 
L 126.983998 358.996926 
z
" clip-path="url(#pbdfedd9495)" style="fill: #cc0000"/>
   </g>
   <g id="patch_9">
    <path d="M 135.474597 365.026 
L 144.666632 365.026 
L 144.666632 357.101725 
L 135.474597 357.101725 
z
" clip-path="url(#pbdfedd9495)" style="fill: #cc0000"/>
   </g>
   <g id="patch_10">
    <path d="M 144.585297 365.026 
L 153.681071 365.026 
L 153.681071 341.208755 
L 144.585297 341.208755 
z
" clip-path="url(#pbdfedd9495)" style="fill: #cc0000"/>
   </g>
   <g id="patch_11">
    <path d="M 154.34362 365.026 
L 162.047888 365.026 
L 162.047888 332.985957 
L 154.34362 332.985957 
z
" clip-path="url(#pbdfedd9495)" style="fill: #cc0000"/>
   </g>
   <g id="patch_12">
    <path d="M 163.472215 365.026 
L 171.044433 365.026 
L 171.044433 326.554109 
L 163.472215 326.554109 
z
" clip-path="url(#pbdfedd9495)" style="fill: #cc0000"/>
   </g>
   <g id="patch_13">
    <path d="M 172.701391 365.026 
L 179.940397 365.026 
L 179.940397 325.560921 
L 172.701391 325.560921 
z
" clip-path="url(#pbdfedd9495)" style="fill: #cc0000"/>
   </g>
   <g id="patch_14">
    <path d="M 182.000869 365.026 
L 188.766058 365.026 
L 188.766058 318.816536 
L 182.000869 318.816536 
z
" clip-path="url(#pbdfedd9495)" style="fill: #cc0000"/>
   </g>
   <g id="patch_15">
    <path d="M 191.148388 365.026 
L 197.743679 365.026 
L 197.743679 305.645958 
L 191.148388 305.645958 
z
" clip-path="url(#pbdfedd9495)" style="fill: #cc0000"/>
   </g>
   <g id="patch_16">
    <path d="M 200.488551 365.026 
L 206.528656 365.026 
L 206.528656 315.339847 
L 200.488551 315.339847 
z
" clip-path="url(#pbdfedd9495)" style="fill: #cc0000"/>
   </g>
   <g id="patch_17">
    <path d="M 209.537546 365.026 
L 215.604801 365.026 
L 215.604801 316.936931 
L 209.537546 316.936931 
z
" clip-path="url(#pbdfedd9495)" style="fill: #cc0000"/>
   </g>
   <g id="patch_18">
    <path d="M 218.985283 365.026 
L 224.282203 365.026 
L 224.282203 304.557943 
L 218.985283 304.557943 
z
" clip-path="url(#pbdfedd9495)" style="fill: #cc0000"/>
   </g>
   <g id="patch_19">
    <path d="M 228.11647 365.026 
L 233.276156 365.026 
L 233.276156 301.196667 
L 228.11647 301.196667 
z
" clip-path="url(#pbdfedd9495)" style="fill: #cc0000"/>
   </g>
   <g id="patch_20">
    <path d="M 237.509865 365.026 
L 242.007901 365.026 
L 242.007901 299.806164 
L 237.509865 299.806164 
z
" clip-path="url(#pbdfedd9495)" style="fill: #cc0000"/>
   </g>
   <g id="patch_21">
    <path d="M 246.642573 365.026 
L 251.000332 365.026 
L 251.000332 292.031464 
L 246.642573 292.031464 
z
" clip-path="url(#pbdfedd9495)" style="fill: #cc0000"/>
   </g>
   <g id="patch_22">
    <path d="M 255.727851 365.026 
L 260.040194 365.026 
L 260.040194 308.763182 
L 255.727851 308.763182 
z
" clip-path="url(#pbdfedd9495)" style="fill: #cc0000"/>
   </g>
   <g id="patch_23">
    <path d="M 264.988908 365.026 
L 268.904277 365.026 
L 268.904277 301.114369 
L 264.988908 301.114369 
z
" clip-path="url(#pbdfedd9495)" style="fill: #cc0000"/>
   </g>
   <g id="patch_24">
    <path d="M 274.090105 365.026 
L 277.928219 365.026 
L 277.928219 297.81175 
L 274.090105 297.81175 
z
" clip-path="url(#pbdfedd9495)" style="fill: #cc0000"/>
   </g>
   <g id="patch_25">
    <path d="M 283.286206 365.026 
L 286.857257 365.026 
L 286.857257 303.648648 
L 283.286206 303.648648 
z
" clip-path="url(#pbdfedd9495)" style="fill: #cc0000"/>
   </g>
   <g id="patch_26">
    <path d="M 292.354165 365.026 
L 295.914438 365.026 
L 295.914438 296.993207 
L 292.354165 296.993207 
z
" clip-path="url(#pbdfedd9495)" style="fill: #cc0000"/>
   </g>
   <g id="patch_27">
    <path d="M 301.515382 365.026 
L 304.878361 365.026 
L 304.878361 304.606801 
L 301.515382 304.606801 
z
" clip-path="url(#pbdfedd9495)" style="fill: #cc0000"/>
   </g>
   <g id="patch_28">
    <path d="M 310.633939 365.026 
L 313.884943 365.026 
L 313.884943 305.562441 
L 310.633939 305.562441 
z
" clip-path="url(#pbdfedd9495)" style="fill: #cc0000"/>
   </g>
   <g id="patch_29">
    <path d="M 319.743817 365.026 
L 322.900205 365.026 
L 322.900205 305.469167 
L 319.743817 305.469167 
z
" clip-path="url(#pbdfedd9495)" style="fill: #cc0000"/>
   </g>
   <g id="patch_30">
    <path d="M 328.837898 365.026 
L 331.931264 365.026 
L 331.931264 308.531826 
L 328.837898 308.531826 
z
" clip-path="url(#pbdfedd9495)" style="fill: #cc0000"/>
   </g>
   <g id="patch_31">
    <path d="M 337.926343 365.026 
L 340.967959 365.026 
L 340.967959 305.43826 
L 337.926343 305.43826 
z
" clip-path="url(#pbdfedd9495)" style="fill: #cc0000"/>
   </g>
   <g id="patch_32">
    <path d="M 347.022152 365.026 
L 349.99729 365.026 
L 349.99729 309.679492 
L 347.022152 309.679492 
z
" clip-path="url(#pbdfedd9495)" style="fill: #cc0000"/>
   </g>
   <g id="patch_33">
    <path d="M 356.115163 365.026 
L 359.029418 365.026 
L 359.029418 307.613163 
L 356.115163 307.613163 
z
" clip-path="url(#pbdfedd9495)" style="fill: #cc0000"/>
   </g>
   <g id="patch_34">
    <path d="M 365.196985 365.026 
L 368.072736 365.026 
L 368.072736 308.926953 
L 365.196985 308.926953 
z
" clip-path="url(#pbdfedd9495)" style="fill: #cc0000"/>
   </g>
   <g id="patch_35">
    <path d="M 374.262229 365.026 
L 377.132631 365.026 
L 377.132631 313.715782 
L 374.262229 313.715782 
z
" clip-path="url(#pbdfedd9495)" style="fill: #cc0000"/>
   </g>
   <g id="patch_36">
    <path d="M 383.335206 365.026 
L 386.184794 365.026 
L 386.184794 317.595588 
L 383.335206 317.595588 
z
" clip-path="url(#pbdfedd9495)" style="fill: #cc0000"/>
   </g>
   <g id="patch_37">
    <path d="M 392.410446 365.026 
L 395.234693 365.026 
L 395.234693 319.381395 
L 392.410446 319.381395 
z
" clip-path="url(#pbdfedd9495)" style="fill: #cc0000"/>
   </g>
   <g id="patch_38">
    <path d="M 401.476595 365.026 
L 404.293684 365.026 
L 404.293684 319.254722 
L 401.476595 319.254722 
z
" clip-path="url(#pbdfedd9495)" style="fill: #cc0000"/>
   </g>
   <g id="patch_39">
    <path d="M 410.54657 365.026 
L 413.348849 365.026 
L 413.348849 325.07886 
L 410.54657 325.07886 
z
" clip-path="url(#pbdfedd9495)" style="fill: #cc0000"/>
   </g>
   <g id="patch_40">
    <path d="M 419.617696 365.026 
L 422.402863 365.026 
L 422.402863 326.200735 
L 419.617696 326.200735 
z
" clip-path="url(#pbdfedd9495)" style="fill: #cc0000"/>
   </g>
   <g id="patch_41">
    <path d="M 428.687959 365.026 
L 431.45774 365.026 
L 431.45774 326.298785 
L 428.687959 326.298785 
z
" clip-path="url(#pbdfedd9495)" style="fill: #cc0000"/>
   </g>
   <g id="patch_42">
    <path d="M 437.75419 365.026 
L 440.516648 365.026 
L 440.516648 320.698551 
L 437.75419 320.698551 
z
" clip-path="url(#pbdfedd9495)" style="fill: #cc0000"/>
   </g>
   <g id="patch_43">
    <path d="M 446.820914 365.026 
L 449.575063 365.026 
L 449.575063 316.056641 
L 446.820914 316.056641 
z
" clip-path="url(#pbdfedd9495)" style="fill: #cc0000"/>
   </g>
   <g id="patch_44">
    <path d="M 455.885171 365.026 
L 458.635946 365.026 
L 458.635946 320.628888 
L 455.885171 320.628888 
z
" clip-path="url(#pbdfedd9495)" style="fill: #cc0000"/>
   </g>
   <g id="patch_45">
    <path d="M 464.95206 365.026 
L 467.694197 365.026 
L 467.694197 309.989094 
L 464.95206 309.989094 
z
" clip-path="url(#pbdfedd9495)" style="fill: #cc0000"/>
   </g>
   <g id="patch_46">
    <path d="M 474.018332 365.026 
L 476.753064 365.026 
L 476.753064 314.625468 
L 474.018332 314.625468 
z
" clip-path="url(#pbdfedd9495)" style="fill: #cc0000"/>
   </g>
   <g id="patch_47">
    <path d="M 483.083535 365.026 
L 485.813001 365.026 
L 485.813001 313.430193 
L 483.083535 313.430193 
z
" clip-path="url(#pbdfedd9495)" style="fill: #cc0000"/>
   </g>
   <g id="patch_48">
    <path d="M 492.146434 365.026 
L 494.875242 365.026 
L 494.875242 322.873086 
L 492.146434 322.873086 
z
" clip-path="url(#pbdfedd9495)" style="fill: #cc0000"/>
   </g>
   <g id="patch_49">
    <path d="M 501.207482 365.026 
L 503.939334 365.026 
L 503.939334 325.618015 
L 501.207482 325.618015 
z
" clip-path="url(#pbdfedd9495)" style="fill: #cc0000"/>
   </g>
   <g id="patch_50">
    <path d="M 510.270956 365.026 
L 513.000999 365.026 
L 513.000999 330.812061 
L 510.270956 330.812061 
z
" clip-path="url(#pbdfedd9495)" style="fill: #cc0000"/>
   </g>
   <g id="patch_51">
    <path d="M 519.33476 365.026 
L 522.062335 365.026 
L 522.062335 326.011429 
L 519.33476 326.011429 
z
" clip-path="url(#pbdfedd9495)" style="fill: #cc0000"/>
   </g>
   <g id="patch_52">
    <path d="M 528.398194 365.026 
L 531.124041 365.026 
L 531.124041 305.70608 
L 528.398194 305.70608 
z
" clip-path="url(#pbdfedd9495)" style="fill: #cc0000"/>
   </g>
   <g id="patch_53">
    <path d="M 537.462039 365.026 
L 540.185335 365.026 
L 540.185335 307.679419 
L 537.462039 307.679419 
z
" clip-path="url(#pbdfedd9495)" style="fill: #cc0000"/>
   </g>
   <g id="patch_54">
    <path d="M 546.525144 365.026 
L 549.24737 365.026 
L 549.24737 332.511228 
L 546.525144 332.511228 
z
" clip-path="url(#pbdfedd9495)" style="fill: #cc0000"/>
   </g>
   <g id="patch_55">
    <path d="M 555.588536 365.026 
L 558.309117 365.026 
L 558.309117 333.581666 
L 555.588536 333.581666 
z
" clip-path="url(#pbdfedd9495)" style="fill: #cc0000"/>
   </g>
   <g id="patch_56">
    <path d="M 564.650736 365.026 
L 567.372057 365.026 
L 567.372057 316.243434 
L 564.650736 316.243434 
z
" clip-path="url(#pbdfedd9495)" style="fill: #cc0000"/>
   </g>
   <g id="patch_57">
    <path d="M 573.713635 365.026 
L 576.434298 365.026 
L 576.434298 321.63556 
L 573.713635 321.63556 
z
" clip-path="url(#pbdfedd9495)" style="fill: #cc0000"/>
   </g>
   <g id="patch_58">
    <path d="M 582.776452 365.026 
L 585.496621 365.026 
L 585.496621 296.804256 
L 582.776452 296.804256 
z
" clip-path="url(#pbdfedd9495)" style="fill: #cc0000"/>
   </g>
   <g id="patch_59">
    <path d="M 591.839021 365.026 
L 594.559191 365.026 
L 594.559191 321.757847 
L 591.839021 321.757847 
z
" clip-path="url(#pbdfedd9495)" style="fill: #cc0000"/>
   </g>
   <g id="patch_60">
    <path d="M 600.901756 365.026 
L 603.621596 365.026 
L 603.621596 310.240805 
L 600.901756 310.240805 
z
" clip-path="url(#pbdfedd9495)" style="fill: #cc0000"/>
   </g>
   <g id="patch_61">
    <path d="M 609.964655 365.026 
L 612.683837 365.026 
L 612.683837 341.674933 
L 609.964655 341.674933 
z
" clip-path="url(#pbdfedd9495)" style="fill: #cc0000"/>
   </g>
   <g id="patch_62">
    <path d="M 619.027142 365.026 
L 621.746489 365.026 
L 621.746489 345.0108 
L 619.027142 345.0108 
z
" clip-path="url(#pbdfedd9495)" style="fill: #cc0000"/>
   </g>
   <g id="patch_63">
    <path d="M 628.089671 365.026 
L 630.8091 365.026 
L 630.8091 365.026 
L 628.089671 365.026 
z
" clip-path="url(#pbdfedd9495)" style="fill: #cc0000"/>
   </g>
   <g id="patch_64">
    <path d="M 637.152446 365.026 
L 639.871464 365.026 
L 639.871464 341.674933 
L 637.152446 341.674933 
z
" clip-path="url(#pbdfedd9495)" style="fill: #cc0000"/>
   </g>
   <g id="patch_65">
    <path d="M 646.214934 365.026 
L 648.934116 365.026 
L 648.934116 331.00016 
L 646.214934 331.00016 
z
" clip-path="url(#pbdfedd9495)" style="fill: #cc0000"/>
   </g>
   <g id="patch_66">
    <path d="M 655.277586 365.026 
L 657.996604 365.026 
L 657.996604 244.378822 
L 655.277586 244.378822 
z
" clip-path="url(#pbdfedd9495)" style="fill: #cc0000"/>
   </g>
   <g id="patch_67">
    <path d="M 682.465337 365.026 
L 685.184272 365.026 
L 685.184272 299.351125 
L 682.465337 299.351125 
z
" clip-path="url(#pbdfedd9495)" style="fill: #cc0000"/>
   </g>
   <g id="patch_68">
    <path d="M 700.590518 365.026 
L 703.309371 365.026 
L 703.309371 365.026 
L 700.590518 365.026 
z
" clip-path="url(#pbdfedd9495)" style="fill: #cc0000"/>
   </g>
   <g id="patch_69">
    <path d="M 63.038771 332.426565 
L 72.101341 332.426565 
L 72.101341 14.76 
L 63.038771 14.76 
z
" clip-path="url(#pbdfedd9495)" style="fill: #006600"/>
   </g>
   <g id="patch_70">
    <path d="M 92.1699 365.023654 
L 97.34563 365.023654 
L 97.34563 14.76 
L 92.1699 14.76 
z
" clip-path="url(#pbdfedd9495)" style="fill: #006600"/>
   </g>
   <g id="patch_71">
    <path d="M 101.072241 365.015624 
L 106.56843 365.015624 
L 106.56843 14.76 
L 101.072241 14.76 
z
" clip-path="url(#pbdfedd9495)" style="fill: #006600"/>
   </g>
   <g id="patch_72">
    <path d="M 108.955161 365.02039 
L 116.810649 365.02039 
L 116.810649 14.76 
L 108.955161 14.76 
z
" clip-path="url(#pbdfedd9495)" style="fill: #006600"/>
   </g>
   <g id="patch_73">
    <path d="M 118.340616 365.019583 
L 125.550333 365.019583 
L 125.550333 14.76 
L 118.340616 14.76 
z
" clip-path="url(#pbdfedd9495)" style="fill: #006600"/>
   </g>
   <g id="patch_74">
    <path d="M 126.983998 358.996926 
L 135.032091 358.996926 
L 135.032091 14.76 
L 126.983998 14.76 
z
" clip-path="url(#pbdfedd9495)" style="fill: #006600"/>
   </g>
   <g id="patch_75">
    <path d="M 135.474597 357.101725 
L 144.666632 357.101725 
L 144.666632 14.76 
L 135.474597 14.76 
z
" clip-path="url(#pbdfedd9495)" style="fill: #006600"/>
   </g>
   <g id="patch_76">
    <path d="M 144.585297 341.208755 
L 153.681071 341.208755 
L 153.681071 14.76 
L 144.585297 14.76 
z
" clip-path="url(#pbdfedd9495)" style="fill: #006600"/>
   </g>
   <g id="patch_77">
    <path d="M 154.34362 332.985957 
L 162.047888 332.985957 
L 162.047888 14.76 
L 154.34362 14.76 
z
" clip-path="url(#pbdfedd9495)" style="fill: #006600"/>
   </g>
   <g id="patch_78">
    <path d="M 163.472215 326.554109 
L 171.044433 326.554109 
L 171.044433 14.76 
L 163.472215 14.76 
z
" clip-path="url(#pbdfedd9495)" style="fill: #006600"/>
   </g>
   <g id="patch_79">
    <path d="M 172.701391 325.560921 
L 179.940397 325.560921 
L 179.940397 14.76 
L 172.701391 14.76 
z
" clip-path="url(#pbdfedd9495)" style="fill: #006600"/>
   </g>
   <g id="patch_80">
    <path d="M 182.000869 318.816536 
L 188.766058 318.816536 
L 188.766058 14.76 
L 182.000869 14.76 
z
" clip-path="url(#pbdfedd9495)" style="fill: #006600"/>
   </g>
   <g id="patch_81">
    <path d="M 191.148388 305.645958 
L 197.743679 305.645958 
L 197.743679 14.76 
L 191.148388 14.76 
z
" clip-path="url(#pbdfedd9495)" style="fill: #006600"/>
   </g>
   <g id="patch_82">
    <path d="M 200.488551 315.339847 
L 206.528656 315.339847 
L 206.528656 14.76 
L 200.488551 14.76 
z
" clip-path="url(#pbdfedd9495)" style="fill: #006600"/>
   </g>
   <g id="patch_83">
    <path d="M 209.537546 316.936931 
L 215.604801 316.936931 
L 215.604801 14.76 
L 209.537546 14.76 
z
" clip-path="url(#pbdfedd9495)" style="fill: #006600"/>
   </g>
   <g id="patch_84">
    <path d="M 218.985283 304.557943 
L 224.282203 304.557943 
L 224.282203 14.76 
L 218.985283 14.76 
z
" clip-path="url(#pbdfedd9495)" style="fill: #006600"/>
   </g>
   <g id="patch_85">
    <path d="M 228.11647 301.196667 
L 233.276156 301.196667 
L 233.276156 14.76 
L 228.11647 14.76 
z
" clip-path="url(#pbdfedd9495)" style="fill: #006600"/>
   </g>
   <g id="patch_86">
    <path d="M 237.509865 299.806164 
L 242.007901 299.806164 
L 242.007901 14.76 
L 237.509865 14.76 
z
" clip-path="url(#pbdfedd9495)" style="fill: #006600"/>
   </g>
   <g id="patch_87">
    <path d="M 246.642573 292.031464 
L 251.000332 292.031464 
L 251.000332 14.76 
L 246.642573 14.76 
z
" clip-path="url(#pbdfedd9495)" style="fill: #006600"/>
   </g>
   <g id="patch_88">
    <path d="M 255.727851 308.763182 
L 260.040194 308.763182 
L 260.040194 14.76 
L 255.727851 14.76 
z
" clip-path="url(#pbdfedd9495)" style="fill: #006600"/>
   </g>
   <g id="patch_89">
    <path d="M 264.988908 301.114369 
L 268.904277 301.114369 
L 268.904277 14.76 
L 264.988908 14.76 
z
" clip-path="url(#pbdfedd9495)" style="fill: #006600"/>
   </g>
   <g id="patch_90">
    <path d="M 274.090105 297.81175 
L 277.928219 297.81175 
L 277.928219 14.76 
L 274.090105 14.76 
z
" clip-path="url(#pbdfedd9495)" style="fill: #006600"/>
   </g>
   <g id="patch_91">
    <path d="M 283.286206 303.648648 
L 286.857257 303.648648 
L 286.857257 14.76 
L 283.286206 14.76 
z
" clip-path="url(#pbdfedd9495)" style="fill: #006600"/>
   </g>
   <g id="patch_92">
    <path d="M 292.354165 296.993207 
L 295.914438 296.993207 
L 295.914438 14.76 
L 292.354165 14.76 
z
" clip-path="url(#pbdfedd9495)" style="fill: #006600"/>
   </g>
   <g id="patch_93">
    <path d="M 301.515382 304.606801 
L 304.878361 304.606801 
L 304.878361 14.76 
L 301.515382 14.76 
z
" clip-path="url(#pbdfedd9495)" style="fill: #006600"/>
   </g>
   <g id="patch_94">
    <path d="M 310.633939 305.562441 
L 313.884943 305.562441 
L 313.884943 14.76 
L 310.633939 14.76 
z
" clip-path="url(#pbdfedd9495)" style="fill: #006600"/>
   </g>
   <g id="patch_95">
    <path d="M 319.743817 305.469167 
L 322.900205 305.469167 
L 322.900205 14.76 
L 319.743817 14.76 
z
" clip-path="url(#pbdfedd9495)" style="fill: #006600"/>
   </g>
   <g id="patch_96">
    <path d="M 328.837898 308.531826 
L 331.931264 308.531826 
L 331.931264 14.76 
L 328.837898 14.76 
z
" clip-path="url(#pbdfedd9495)" style="fill: #006600"/>
   </g>
   <g id="patch_97">
    <path d="M 337.926343 305.43826 
L 340.967959 305.43826 
L 340.967959 14.76 
L 337.926343 14.76 
z
" clip-path="url(#pbdfedd9495)" style="fill: #006600"/>
   </g>
   <g id="patch_98">
    <path d="M 347.022152 309.679492 
L 349.99729 309.679492 
L 349.99729 14.76 
L 347.022152 14.76 
z
" clip-path="url(#pbdfedd9495)" style="fill: #006600"/>
   </g>
   <g id="patch_99">
    <path d="M 356.115163 307.613163 
L 359.029418 307.613163 
L 359.029418 14.76 
L 356.115163 14.76 
z
" clip-path="url(#pbdfedd9495)" style="fill: #006600"/>
   </g>
   <g id="patch_100">
    <path d="M 365.196985 308.926953 
L 368.072736 308.926953 
L 368.072736 14.76 
L 365.196985 14.76 
z
" clip-path="url(#pbdfedd9495)" style="fill: #006600"/>
   </g>
   <g id="patch_101">
    <path d="M 374.262229 313.715782 
L 377.132631 313.715782 
L 377.132631 14.76 
L 374.262229 14.76 
z
" clip-path="url(#pbdfedd9495)" style="fill: #006600"/>
   </g>
   <g id="patch_102">
    <path d="M 383.335206 317.595588 
L 386.184794 317.595588 
L 386.184794 14.76 
L 383.335206 14.76 
z
" clip-path="url(#pbdfedd9495)" style="fill: #006600"/>
   </g>
   <g id="patch_103">
    <path d="M 392.410446 319.381395 
L 395.234693 319.381395 
L 395.234693 14.76 
L 392.410446 14.76 
z
" clip-path="url(#pbdfedd9495)" style="fill: #006600"/>
   </g>
   <g id="patch_104">
    <path d="M 401.476595 319.254722 
L 404.293684 319.254722 
L 404.293684 14.76 
L 401.476595 14.76 
z
" clip-path="url(#pbdfedd9495)" style="fill: #006600"/>
   </g>
   <g id="patch_105">
    <path d="M 410.54657 325.07886 
L 413.348849 325.07886 
L 413.348849 14.76 
L 410.54657 14.76 
z
" clip-path="url(#pbdfedd9495)" style="fill: #006600"/>
   </g>
   <g id="patch_106">
    <path d="M 419.617696 326.200735 
L 422.402863 326.200735 
L 422.402863 14.76 
L 419.617696 14.76 
z
" clip-path="url(#pbdfedd9495)" style="fill: #006600"/>
   </g>
   <g id="patch_107">
    <path d="M 428.687959 326.298785 
L 431.45774 326.298785 
L 431.45774 14.76 
L 428.687959 14.76 
z
" clip-path="url(#pbdfedd9495)" style="fill: #006600"/>
   </g>
   <g id="patch_108">
    <path d="M 437.75419 320.698551 
L 440.516648 320.698551 
L 440.516648 14.76 
L 437.75419 14.76 
z
" clip-path="url(#pbdfedd9495)" style="fill: #006600"/>
   </g>
   <g id="patch_109">
    <path d="M 446.820914 316.056641 
L 449.575063 316.056641 
L 449.575063 14.76 
L 446.820914 14.76 
z
" clip-path="url(#pbdfedd9495)" style="fill: #006600"/>
   </g>
   <g id="patch_110">
    <path d="M 455.885171 320.628888 
L 458.635946 320.628888 
L 458.635946 14.76 
L 455.885171 14.76 
z
" clip-path="url(#pbdfedd9495)" style="fill: #006600"/>
   </g>
   <g id="patch_111">
    <path d="M 464.95206 309.989094 
L 467.694197 309.989094 
L 467.694197 14.76 
L 464.95206 14.76 
z
" clip-path="url(#pbdfedd9495)" style="fill: #006600"/>
   </g>
   <g id="patch_112">
    <path d="M 474.018332 314.625468 
L 476.753064 314.625468 
L 476.753064 14.76 
L 474.018332 14.76 
z
" clip-path="url(#pbdfedd9495)" style="fill: #006600"/>
   </g>
   <g id="patch_113">
    <path d="M 483.083535 313.430193 
L 485.813001 313.430193 
L 485.813001 14.76 
L 483.083535 14.76 
z
" clip-path="url(#pbdfedd9495)" style="fill: #006600"/>
   </g>
   <g id="patch_114">
    <path d="M 492.146434 322.873086 
L 494.875242 322.873086 
L 494.875242 14.76 
L 492.146434 14.76 
z
" clip-path="url(#pbdfedd9495)" style="fill: #006600"/>
   </g>
   <g id="patch_115">
    <path d="M 501.207482 325.618015 
L 503.939334 325.618015 
L 503.939334 14.76 
L 501.207482 14.76 
z
" clip-path="url(#pbdfedd9495)" style="fill: #006600"/>
   </g>
   <g id="patch_116">
    <path d="M 510.270956 330.812061 
L 513.000999 330.812061 
L 513.000999 14.76 
L 510.270956 14.76 
z
" clip-path="url(#pbdfedd9495)" style="fill: #006600"/>
   </g>
   <g id="patch_117">
    <path d="M 519.33476 326.011429 
L 522.062335 326.011429 
L 522.062335 14.76 
L 519.33476 14.76 
z
" clip-path="url(#pbdfedd9495)" style="fill: #006600"/>
   </g>
   <g id="patch_118">
    <path d="M 528.398194 305.70608 
L 531.124041 305.70608 
L 531.124041 14.76 
L 528.398194 14.76 
z
" clip-path="url(#pbdfedd9495)" style="fill: #006600"/>
   </g>
   <g id="patch_119">
    <path d="M 537.462039 307.679419 
L 540.185335 307.679419 
L 540.185335 14.76 
L 537.462039 14.76 
z
" clip-path="url(#pbdfedd9495)" style="fill: #006600"/>
   </g>
   <g id="patch_120">
    <path d="M 546.525144 332.511228 
L 549.24737 332.511228 
L 549.24737 14.76 
L 546.525144 14.76 
z
" clip-path="url(#pbdfedd9495)" style="fill: #006600"/>
   </g>
   <g id="patch_121">
    <path d="M 555.588536 333.581666 
L 558.309117 333.581666 
L 558.309117 14.76 
L 555.588536 14.76 
z
" clip-path="url(#pbdfedd9495)" style="fill: #006600"/>
   </g>
   <g id="patch_122">
    <path d="M 564.650736 316.243434 
L 567.372057 316.243434 
L 567.372057 14.76 
L 564.650736 14.76 
z
" clip-path="url(#pbdfedd9495)" style="fill: #006600"/>
   </g>
   <g id="patch_123">
    <path d="M 573.713635 321.63556 
L 576.434298 321.63556 
L 576.434298 14.76 
L 573.713635 14.76 
z
" clip-path="url(#pbdfedd9495)" style="fill: #006600"/>
   </g>
   <g id="patch_124">
    <path d="M 582.776452 296.804256 
L 585.496621 296.804256 
L 585.496621 14.76 
L 582.776452 14.76 
z
" clip-path="url(#pbdfedd9495)" style="fill: #006600"/>
   </g>
   <g id="patch_125">
    <path d="M 591.839021 321.757847 
L 594.559191 321.757847 
L 594.559191 14.76 
L 591.839021 14.76 
z
" clip-path="url(#pbdfedd9495)" style="fill: #006600"/>
   </g>
   <g id="patch_126">
    <path d="M 600.901756 310.240805 
L 603.621596 310.240805 
L 603.621596 14.76 
L 600.901756 14.76 
z
" clip-path="url(#pbdfedd9495)" style="fill: #006600"/>
   </g>
   <g id="patch_127">
    <path d="M 609.964655 341.674933 
L 612.683837 341.674933 
L 612.683837 14.76 
L 609.964655 14.76 
z
" clip-path="url(#pbdfedd9495)" style="fill: #006600"/>
   </g>
   <g id="patch_128">
    <path d="M 619.027142 345.0108 
L 621.746489 345.0108 
L 621.746489 14.76 
L 619.027142 14.76 
z
" clip-path="url(#pbdfedd9495)" style="fill: #006600"/>
   </g>
   <g id="patch_129">
    <path d="M 628.089671 365.026 
L 630.8091 365.026 
L 630.8091 14.76 
L 628.089671 14.76 
z
" clip-path="url(#pbdfedd9495)" style="fill: #006600"/>
   </g>
   <g id="patch_130">
    <path d="M 637.152446 341.674933 
L 639.871464 341.674933 
L 639.871464 14.76 
L 637.152446 14.76 
z
" clip-path="url(#pbdfedd9495)" style="fill: #006600"/>
   </g>
   <g id="patch_131">
    <path d="M 646.214934 331.00016 
L 648.934116 331.00016 
L 648.934116 14.76 
L 646.214934 14.76 
z
" clip-path="url(#pbdfedd9495)" style="fill: #006600"/>
   </g>
   <g id="patch_132">
    <path d="M 655.277586 244.378822 
L 657.996604 244.378822 
L 657.996604 14.76 
L 655.277586 14.76 
z
" clip-path="url(#pbdfedd9495)" style="fill: #006600"/>
   </g>
   <g id="patch_133">
    <path d="M 682.465337 299.351125 
L 685.184272 299.351125 
L 685.184272 14.76 
L 682.465337 14.76 
z
" clip-path="url(#pbdfedd9495)" style="fill: #006600"/>
   </g>
   <g id="patch_134">
    <path d="M 700.590518 365.026 
L 703.309371 365.026 
L 703.309371 14.76 
L 700.590518 14.76 
z
" clip-path="url(#pbdfedd9495)" style="fill: #006600"/>
   </g>
   <g id="matplotlib.axis_1">
    <g id="xtick_1">
     <g id="line2d_1">
      <defs>
       <path id="m2db6d233d6" d="M 0 0 
L 0 3.5 
" style="stroke: #000000; stroke-width: 0.8"/>
      </defs>
      <g>
       <use xlink:href="#m2db6d233d6" x="67.570056" y="365.026" style="stroke: #000000; stroke-width: 0.8"/>
      </g>
     </g>
     <g id="text_1">
      <!-- Weighted -->
      <g transform="translate(64.730525 419.365063) rotate(-90) scale(0.1 -0.1)">
       <defs>
        <path id="DejaVuSans-57" d="M 213 4666 
L 850 4666 
L 1831 722 
L 2809 4666 
L 3519 4666 
L 4500 722 
L 5478 4666 
L 6119 4666 
L 4947 0 
L 4153 0 
L 3169 4050 
L 2175 0 
L 1381 0 
L 213 4666 
z
" transform="scale(0.015625)"/>
        <path id="DejaVuSans-65" d="M 3597 1894 
L 3597 1613 
L 953 1613 
Q 991 1019 1311 708 
Q 1631 397 2203 397 
Q 2534 397 2845 478 
Q 3156 559 3463 722 
L 3463 178 
Q 3153 47 2828 -22 
Q 2503 -91 2169 -91 
Q 1331 -91 842 396 
Q 353 884 353 1716 
Q 353 2575 817 3079 
Q 1281 3584 2069 3584 
Q 2775 3584 3186 3129 
Q 3597 2675 3597 1894 
z
M 3022 2063 
Q 3016 2534 2758 2815 
Q 2500 3097 2075 3097 
Q 1594 3097 1305 2825 
Q 1016 2553 972 2059 
L 3022 2063 
z
" transform="scale(0.015625)"/>
        <path id="DejaVuSans-69" d="M 603 3500 
L 1178 3500 
L 1178 0 
L 603 0 
L 603 3500 
z
M 603 4863 
L 1178 4863 
L 1178 4134 
L 603 4134 
L 603 4863 
z
" transform="scale(0.015625)"/>
        <path id="DejaVuSans-67" d="M 2906 1791 
Q 2906 2416 2648 2759 
Q 2391 3103 1925 3103 
Q 1463 3103 1205 2759 
Q 947 2416 947 1791 
Q 947 1169 1205 825 
Q 1463 481 1925 481 
Q 2391 481 2648 825 
Q 2906 1169 2906 1791 
z
M 3481 434 
Q 3481 -459 3084 -895 
Q 2688 -1331 1869 -1331 
Q 1566 -1331 1297 -1286 
Q 1028 -1241 775 -1147 
L 775 -588 
Q 1028 -725 1275 -790 
Q 1522 -856 1778 -856 
Q 2344 -856 2625 -561 
Q 2906 -266 2906 331 
L 2906 616 
Q 2728 306 2450 153 
Q 2172 0 1784 0 
Q 1141 0 747 490 
Q 353 981 353 1791 
Q 353 2603 747 3093 
Q 1141 3584 1784 3584 
Q 2172 3584 2450 3431 
Q 2728 3278 2906 2969 
L 2906 3500 
L 3481 3500 
L 3481 434 
z
" transform="scale(0.015625)"/>
        <path id="DejaVuSans-68" d="M 3513 2113 
L 3513 0 
L 2938 0 
L 2938 2094 
Q 2938 2591 2744 2837 
Q 2550 3084 2163 3084 
Q 1697 3084 1428 2787 
Q 1159 2491 1159 1978 
L 1159 0 
L 581 0 
L 581 4863 
L 1159 4863 
L 1159 2956 
Q 1366 3272 1645 3428 
Q 1925 3584 2291 3584 
Q 2894 3584 3203 3211 
Q 3513 2838 3513 2113 
z
" transform="scale(0.015625)"/>
        <path id="DejaVuSans-74" d="M 1172 4494 
L 1172 3500 
L 2356 3500 
L 2356 3053 
L 1172 3053 
L 1172 1153 
Q 1172 725 1289 603 
Q 1406 481 1766 481 
L 2356 481 
L 2356 0 
L 1766 0 
Q 1100 0 847 248 
Q 594 497 594 1153 
L 594 3053 
L 172 3053 
L 172 3500 
L 594 3500 
L 594 4494 
L 1172 4494 
z
" transform="scale(0.015625)"/>
        <path id="DejaVuSans-64" d="M 2906 2969 
L 2906 4863 
L 3481 4863 
L 3481 0 
L 2906 0 
L 2906 525 
Q 2725 213 2448 61 
Q 2172 -91 1784 -91 
Q 1150 -91 751 415 
Q 353 922 353 1747 
Q 353 2572 751 3078 
Q 1150 3584 1784 3584 
Q 2172 3584 2448 3432 
Q 2725 3281 2906 2969 
z
M 947 1747 
Q 947 1113 1208 752 
Q 1469 391 1925 391 
Q 2381 391 2643 752 
Q 2906 1113 2906 1747 
Q 2906 2381 2643 2742 
Q 2381 3103 1925 3103 
Q 1469 3103 1208 2742 
Q 947 2381 947 1747 
z
" transform="scale(0.015625)"/>
       </defs>
       <use xlink:href="#DejaVuSans-57"/>
       <use xlink:href="#DejaVuSans-65" x="93.001953"/>
       <use xlink:href="#DejaVuSans-69" x="154.525391"/>
       <use xlink:href="#DejaVuSans-67" x="182.308594"/>
       <use xlink:href="#DejaVuSans-68" x="245.785156"/>
       <use xlink:href="#DejaVuSans-74" x="309.164062"/>
       <use xlink:href="#DejaVuSans-65" x="348.373047"/>
       <use xlink:href="#DejaVuSans-64" x="409.896484"/>
      </g>
      <!-- Average -->
      <g transform="translate(75.928337 416.228344) rotate(-90) scale(0.1 -0.1)">
       <defs>
        <path id="DejaVuSans-41" d="M 2188 4044 
L 1331 1722 
L 3047 1722 
L 2188 4044 
z
M 1831 4666 
L 2547 4666 
L 4325 0 
L 3669 0 
L 3244 1197 
L 1141 1197 
L 716 0 
L 50 0 
L 1831 4666 
z
" transform="scale(0.015625)"/>
        <path id="DejaVuSans-76" d="M 191 3500 
L 800 3500 
L 1894 563 
L 2988 3500 
L 3597 3500 
L 2284 0 
L 1503 0 
L 191 3500 
z
" transform="scale(0.015625)"/>
        <path id="DejaVuSans-72" d="M 2631 2963 
Q 2534 3019 2420 3045 
Q 2306 3072 2169 3072 
Q 1681 3072 1420 2755 
Q 1159 2438 1159 1844 
L 1159 0 
L 581 0 
L 581 3500 
L 1159 3500 
L 1159 2956 
Q 1341 3275 1631 3429 
Q 1922 3584 2338 3584 
Q 2397 3584 2469 3576 
Q 2541 3569 2628 3553 
L 2631 2963 
z
" transform="scale(0.015625)"/>
        <path id="DejaVuSans-61" d="M 2194 1759 
Q 1497 1759 1228 1600 
Q 959 1441 959 1056 
Q 959 750 1161 570 
Q 1363 391 1709 391 
Q 2188 391 2477 730 
Q 2766 1069 2766 1631 
L 2766 1759 
L 2194 1759 
z
M 3341 1997 
L 3341 0 
L 2766 0 
L 2766 531 
Q 2569 213 2275 61 
Q 1981 -91 1556 -91 
Q 1019 -91 701 211 
Q 384 513 384 1019 
Q 384 1609 779 1909 
Q 1175 2209 1959 2209 
L 2766 2209 
L 2766 2266 
Q 2766 2663 2505 2880 
Q 2244 3097 1772 3097 
Q 1472 3097 1187 3025 
Q 903 2953 641 2809 
L 641 3341 
Q 956 3463 1253 3523 
Q 1550 3584 1831 3584 
Q 2591 3584 2966 3190 
Q 3341 2797 3341 1997 
z
" transform="scale(0.015625)"/>
       </defs>
       <use xlink:href="#DejaVuSans-41"/>
       <use xlink:href="#DejaVuSans-76" x="62.533203"/>
       <use xlink:href="#DejaVuSans-65" x="121.712891"/>
       <use xlink:href="#DejaVuSans-72" x="183.236328"/>
       <use xlink:href="#DejaVuSans-61" x="224.349609"/>
       <use xlink:href="#DejaVuSans-67" x="285.628906"/>
       <use xlink:href="#DejaVuSans-65" x="349.105469"/>
      </g>
     </g>
    </g>
    <g id="xtick_2">
     <g id="line2d_2">
      <g>
       <use xlink:href="#m2db6d233d6" x="94.757765" y="365.026" style="stroke: #000000; stroke-width: 0.8"/>
      </g>
     </g>
     <g id="text_2">
      <!-- 1 -->
      <g transform="translate(97.51714 378.3885) rotate(-90) scale(0.1 -0.1)">
       <defs>
        <path id="DejaVuSans-31" d="M 794 531 
L 1825 531 
L 1825 4091 
L 703 3866 
L 703 4441 
L 1819 4666 
L 2450 4666 
L 2450 531 
L 3481 531 
L 3481 0 
L 794 0 
L 794 531 
z
" transform="scale(0.015625)"/>
       </defs>
       <use xlink:href="#DejaVuSans-31"/>
      </g>
     </g>
    </g>
    <g id="xtick_3">
     <g id="line2d_3">
      <g>
       <use xlink:href="#m2db6d233d6" x="103.820335" y="365.026" style="stroke: #000000; stroke-width: 0.8"/>
      </g>
     </g>
     <g id="text_3">
      <!-- 2 -->
      <g transform="translate(106.57971 378.3885) rotate(-90) scale(0.1 -0.1)">
       <defs>
        <path id="DejaVuSans-32" d="M 1228 531 
L 3431 531 
L 3431 0 
L 469 0 
L 469 531 
Q 828 903 1448 1529 
Q 2069 2156 2228 2338 
Q 2531 2678 2651 2914 
Q 2772 3150 2772 3378 
Q 2772 3750 2511 3984 
Q 2250 4219 1831 4219 
Q 1534 4219 1204 4116 
Q 875 4013 500 3803 
L 500 4441 
Q 881 4594 1212 4672 
Q 1544 4750 1819 4750 
Q 2544 4750 2975 4387 
Q 3406 4025 3406 3419 
Q 3406 3131 3298 2873 
Q 3191 2616 2906 2266 
Q 2828 2175 2409 1742 
Q 1991 1309 1228 531 
z
" transform="scale(0.015625)"/>
       </defs>
       <use xlink:href="#DejaVuSans-32"/>
      </g>
     </g>
    </g>
    <g id="xtick_4">
     <g id="line2d_4">
      <g>
       <use xlink:href="#m2db6d233d6" x="112.882905" y="365.026" style="stroke: #000000; stroke-width: 0.8"/>
      </g>
     </g>
     <g id="text_4">
      <!-- 3 -->
      <g transform="translate(115.64228 378.3885) rotate(-90) scale(0.1 -0.1)">
       <defs>
        <path id="DejaVuSans-33" d="M 2597 2516 
Q 3050 2419 3304 2112 
Q 3559 1806 3559 1356 
Q 3559 666 3084 287 
Q 2609 -91 1734 -91 
Q 1441 -91 1130 -33 
Q 819 25 488 141 
L 488 750 
Q 750 597 1062 519 
Q 1375 441 1716 441 
Q 2309 441 2620 675 
Q 2931 909 2931 1356 
Q 2931 1769 2642 2001 
Q 2353 2234 1838 2234 
L 1294 2234 
L 1294 2753 
L 1863 2753 
Q 2328 2753 2575 2939 
Q 2822 3125 2822 3475 
Q 2822 3834 2567 4026 
Q 2313 4219 1838 4219 
Q 1578 4219 1281 4162 
Q 984 4106 628 3988 
L 628 4550 
Q 988 4650 1302 4700 
Q 1616 4750 1894 4750 
Q 2613 4750 3031 4423 
Q 3450 4097 3450 3541 
Q 3450 3153 3228 2886 
Q 3006 2619 2597 2516 
z
" transform="scale(0.015625)"/>
       </defs>
       <use xlink:href="#DejaVuSans-33"/>
      </g>
     </g>
    </g>
    <g id="xtick_5">
     <g id="line2d_5">
      <g>
       <use xlink:href="#m2db6d233d6" x="121.945475" y="365.026" style="stroke: #000000; stroke-width: 0.8"/>
      </g>
     </g>
     <g id="text_5">
      <!-- 4 -->
      <g transform="translate(124.70485 378.3885) rotate(-90) scale(0.1 -0.1)">
       <defs>
        <path id="DejaVuSans-34" d="M 2419 4116 
L 825 1625 
L 2419 1625 
L 2419 4116 
z
M 2253 4666 
L 3047 4666 
L 3047 1625 
L 3713 1625 
L 3713 1100 
L 3047 1100 
L 3047 0 
L 2419 0 
L 2419 1100 
L 313 1100 
L 313 1709 
L 2253 4666 
z
" transform="scale(0.015625)"/>
       </defs>
       <use xlink:href="#DejaVuSans-34"/>
      </g>
     </g>
    </g>
    <g id="xtick_6">
     <g id="line2d_6">
      <g>
       <use xlink:href="#m2db6d233d6" x="131.008045" y="365.026" style="stroke: #000000; stroke-width: 0.8"/>
      </g>
     </g>
     <g id="text_6">
      <!-- 5 -->
      <g transform="translate(133.76742 378.3885) rotate(-90) scale(0.1 -0.1)">
       <defs>
        <path id="DejaVuSans-35" d="M 691 4666 
L 3169 4666 
L 3169 4134 
L 1269 4134 
L 1269 2991 
Q 1406 3038 1543 3061 
Q 1681 3084 1819 3084 
Q 2600 3084 3056 2656 
Q 3513 2228 3513 1497 
Q 3513 744 3044 326 
Q 2575 -91 1722 -91 
Q 1428 -91 1123 -41 
Q 819 9 494 109 
L 494 744 
Q 775 591 1075 516 
Q 1375 441 1709 441 
Q 2250 441 2565 725 
Q 2881 1009 2881 1497 
Q 2881 1984 2565 2268 
Q 2250 2553 1709 2553 
Q 1456 2553 1204 2497 
Q 953 2441 691 2322 
L 691 4666 
z
" transform="scale(0.015625)"/>
       </defs>
       <use xlink:href="#DejaVuSans-35"/>
      </g>
     </g>
    </g>
    <g id="xtick_7">
     <g id="line2d_7">
      <g>
       <use xlink:href="#m2db6d233d6" x="140.070615" y="365.026" style="stroke: #000000; stroke-width: 0.8"/>
      </g>
     </g>
     <g id="text_7">
      <!-- 6 -->
      <g transform="translate(142.82999 378.3885) rotate(-90) scale(0.1 -0.1)">
       <defs>
        <path id="DejaVuSans-36" d="M 2113 2584 
Q 1688 2584 1439 2293 
Q 1191 2003 1191 1497 
Q 1191 994 1439 701 
Q 1688 409 2113 409 
Q 2538 409 2786 701 
Q 3034 994 3034 1497 
Q 3034 2003 2786 2293 
Q 2538 2584 2113 2584 
z
M 3366 4563 
L 3366 3988 
Q 3128 4100 2886 4159 
Q 2644 4219 2406 4219 
Q 1781 4219 1451 3797 
Q 1122 3375 1075 2522 
Q 1259 2794 1537 2939 
Q 1816 3084 2150 3084 
Q 2853 3084 3261 2657 
Q 3669 2231 3669 1497 
Q 3669 778 3244 343 
Q 2819 -91 2113 -91 
Q 1303 -91 875 529 
Q 447 1150 447 2328 
Q 447 3434 972 4092 
Q 1497 4750 2381 4750 
Q 2619 4750 2861 4703 
Q 3103 4656 3366 4563 
z
" transform="scale(0.015625)"/>
       </defs>
       <use xlink:href="#DejaVuSans-36"/>
      </g>
     </g>
    </g>
    <g id="xtick_8">
     <g id="line2d_8">
      <g>
       <use xlink:href="#m2db6d233d6" x="149.133184" y="365.026" style="stroke: #000000; stroke-width: 0.8"/>
      </g>
     </g>
     <g id="text_8">
      <!-- 7 -->
      <g transform="translate(151.892559 378.3885) rotate(-90) scale(0.1 -0.1)">
       <defs>
        <path id="DejaVuSans-37" d="M 525 4666 
L 3525 4666 
L 3525 4397 
L 1831 0 
L 1172 0 
L 2766 4134 
L 525 4134 
L 525 4666 
z
" transform="scale(0.015625)"/>
       </defs>
       <use xlink:href="#DejaVuSans-37"/>
      </g>
     </g>
    </g>
    <g id="xtick_9">
     <g id="line2d_9">
      <g>
       <use xlink:href="#m2db6d233d6" x="158.195754" y="365.026" style="stroke: #000000; stroke-width: 0.8"/>
      </g>
     </g>
     <g id="text_9">
      <!-- 8 -->
      <g transform="translate(160.955129 378.3885) rotate(-90) scale(0.1 -0.1)">
       <defs>
        <path id="DejaVuSans-38" d="M 2034 2216 
Q 1584 2216 1326 1975 
Q 1069 1734 1069 1313 
Q 1069 891 1326 650 
Q 1584 409 2034 409 
Q 2484 409 2743 651 
Q 3003 894 3003 1313 
Q 3003 1734 2745 1975 
Q 2488 2216 2034 2216 
z
M 1403 2484 
Q 997 2584 770 2862 
Q 544 3141 544 3541 
Q 544 4100 942 4425 
Q 1341 4750 2034 4750 
Q 2731 4750 3128 4425 
Q 3525 4100 3525 3541 
Q 3525 3141 3298 2862 
Q 3072 2584 2669 2484 
Q 3125 2378 3379 2068 
Q 3634 1759 3634 1313 
Q 3634 634 3220 271 
Q 2806 -91 2034 -91 
Q 1263 -91 848 271 
Q 434 634 434 1313 
Q 434 1759 690 2068 
Q 947 2378 1403 2484 
z
M 1172 3481 
Q 1172 3119 1398 2916 
Q 1625 2713 2034 2713 
Q 2441 2713 2670 2916 
Q 2900 3119 2900 3481 
Q 2900 3844 2670 4047 
Q 2441 4250 2034 4250 
Q 1625 4250 1398 4047 
Q 1172 3844 1172 3481 
z
" transform="scale(0.015625)"/>
       </defs>
       <use xlink:href="#DejaVuSans-38"/>
      </g>
     </g>
    </g>
    <g id="xtick_10">
     <g id="line2d_10">
      <g>
       <use xlink:href="#m2db6d233d6" x="167.258324" y="365.026" style="stroke: #000000; stroke-width: 0.8"/>
      </g>
     </g>
     <g id="text_10">
      <!-- 9 -->
      <g transform="translate(170.017699 378.3885) rotate(-90) scale(0.1 -0.1)">
       <defs>
        <path id="DejaVuSans-39" d="M 703 97 
L 703 672 
Q 941 559 1184 500 
Q 1428 441 1663 441 
Q 2288 441 2617 861 
Q 2947 1281 2994 2138 
Q 2813 1869 2534 1725 
Q 2256 1581 1919 1581 
Q 1219 1581 811 2004 
Q 403 2428 403 3163 
Q 403 3881 828 4315 
Q 1253 4750 1959 4750 
Q 2769 4750 3195 4129 
Q 3622 3509 3622 2328 
Q 3622 1225 3098 567 
Q 2575 -91 1691 -91 
Q 1453 -91 1209 -44 
Q 966 3 703 97 
z
M 1959 2075 
Q 2384 2075 2632 2365 
Q 2881 2656 2881 3163 
Q 2881 3666 2632 3958 
Q 2384 4250 1959 4250 
Q 1534 4250 1286 3958 
Q 1038 3666 1038 3163 
Q 1038 2656 1286 2365 
Q 1534 2075 1959 2075 
z
" transform="scale(0.015625)"/>
       </defs>
       <use xlink:href="#DejaVuSans-39"/>
      </g>
     </g>
    </g>
    <g id="xtick_11">
     <g id="line2d_11">
      <g>
       <use xlink:href="#m2db6d233d6" x="176.320894" y="365.026" style="stroke: #000000; stroke-width: 0.8"/>
      </g>
     </g>
     <g id="text_11">
      <!-- 10 -->
      <g transform="translate(179.080269 384.751) rotate(-90) scale(0.1 -0.1)">
       <defs>
        <path id="DejaVuSans-30" d="M 2034 4250 
Q 1547 4250 1301 3770 
Q 1056 3291 1056 2328 
Q 1056 1369 1301 889 
Q 1547 409 2034 409 
Q 2525 409 2770 889 
Q 3016 1369 3016 2328 
Q 3016 3291 2770 3770 
Q 2525 4250 2034 4250 
z
M 2034 4750 
Q 2819 4750 3233 4129 
Q 3647 3509 3647 2328 
Q 3647 1150 3233 529 
Q 2819 -91 2034 -91 
Q 1250 -91 836 529 
Q 422 1150 422 2328 
Q 422 3509 836 4129 
Q 1250 4750 2034 4750 
z
" transform="scale(0.015625)"/>
       </defs>
       <use xlink:href="#DejaVuSans-31"/>
       <use xlink:href="#DejaVuSans-30" x="63.623047"/>
      </g>
     </g>
    </g>
    <g id="xtick_12">
     <g id="line2d_12">
      <g>
       <use xlink:href="#m2db6d233d6" x="185.383464" y="365.026" style="stroke: #000000; stroke-width: 0.8"/>
      </g>
     </g>
     <g id="text_12">
      <!-- 11 -->
      <g transform="translate(188.142839 384.751) rotate(-90) scale(0.1 -0.1)">
       <use xlink:href="#DejaVuSans-31"/>
       <use xlink:href="#DejaVuSans-31" x="63.623047"/>
      </g>
     </g>
    </g>
    <g id="xtick_13">
     <g id="line2d_13">
      <g>
       <use xlink:href="#m2db6d233d6" x="194.446034" y="365.026" style="stroke: #000000; stroke-width: 0.8"/>
      </g>
     </g>
     <g id="text_13">
      <!-- 12 -->
      <g transform="translate(197.205409 384.751) rotate(-90) scale(0.1 -0.1)">
       <use xlink:href="#DejaVuSans-31"/>
       <use xlink:href="#DejaVuSans-32" x="63.623047"/>
      </g>
     </g>
    </g>
    <g id="xtick_14">
     <g id="line2d_14">
      <g>
       <use xlink:href="#m2db6d233d6" x="203.508603" y="365.026" style="stroke: #000000; stroke-width: 0.8"/>
      </g>
     </g>
     <g id="text_14">
      <!-- 13 -->
      <g transform="translate(206.267978 384.751) rotate(-90) scale(0.1 -0.1)">
       <use xlink:href="#DejaVuSans-31"/>
       <use xlink:href="#DejaVuSans-33" x="63.623047"/>
      </g>
     </g>
    </g>
    <g id="xtick_15">
     <g id="line2d_15">
      <g>
       <use xlink:href="#m2db6d233d6" x="212.571173" y="365.026" style="stroke: #000000; stroke-width: 0.8"/>
      </g>
     </g>
     <g id="text_15">
      <!-- 14 -->
      <g transform="translate(215.330548 384.751) rotate(-90) scale(0.1 -0.1)">
       <use xlink:href="#DejaVuSans-31"/>
       <use xlink:href="#DejaVuSans-34" x="63.623047"/>
      </g>
     </g>
    </g>
    <g id="xtick_16">
     <g id="line2d_16">
      <g>
       <use xlink:href="#m2db6d233d6" x="221.633743" y="365.026" style="stroke: #000000; stroke-width: 0.8"/>
      </g>
     </g>
     <g id="text_16">
      <!-- 15 -->
      <g transform="translate(224.393118 384.751) rotate(-90) scale(0.1 -0.1)">
       <use xlink:href="#DejaVuSans-31"/>
       <use xlink:href="#DejaVuSans-35" x="63.623047"/>
      </g>
     </g>
    </g>
    <g id="xtick_17">
     <g id="line2d_17">
      <g>
       <use xlink:href="#m2db6d233d6" x="230.696313" y="365.026" style="stroke: #000000; stroke-width: 0.8"/>
      </g>
     </g>
     <g id="text_17">
      <!-- 16 -->
      <g transform="translate(233.455688 384.751) rotate(-90) scale(0.1 -0.1)">
       <use xlink:href="#DejaVuSans-31"/>
       <use xlink:href="#DejaVuSans-36" x="63.623047"/>
      </g>
     </g>
    </g>
    <g id="xtick_18">
     <g id="line2d_18">
      <g>
       <use xlink:href="#m2db6d233d6" x="239.758883" y="365.026" style="stroke: #000000; stroke-width: 0.8"/>
      </g>
     </g>
     <g id="text_18">
      <!-- 17 -->
      <g transform="translate(242.518258 384.751) rotate(-90) scale(0.1 -0.1)">
       <use xlink:href="#DejaVuSans-31"/>
       <use xlink:href="#DejaVuSans-37" x="63.623047"/>
      </g>
     </g>
    </g>
    <g id="xtick_19">
     <g id="line2d_19">
      <g>
       <use xlink:href="#m2db6d233d6" x="248.821453" y="365.026" style="stroke: #000000; stroke-width: 0.8"/>
      </g>
     </g>
     <g id="text_19">
      <!-- 18 -->
      <g transform="translate(251.580828 384.751) rotate(-90) scale(0.1 -0.1)">
       <use xlink:href="#DejaVuSans-31"/>
       <use xlink:href="#DejaVuSans-38" x="63.623047"/>
      </g>
     </g>
    </g>
    <g id="xtick_20">
     <g id="line2d_20">
      <g>
       <use xlink:href="#m2db6d233d6" x="257.884022" y="365.026" style="stroke: #000000; stroke-width: 0.8"/>
      </g>
     </g>
     <g id="text_20">
      <!-- 19 -->
      <g transform="translate(260.643397 384.751) rotate(-90) scale(0.1 -0.1)">
       <use xlink:href="#DejaVuSans-31"/>
       <use xlink:href="#DejaVuSans-39" x="63.623047"/>
      </g>
     </g>
    </g>
    <g id="xtick_21">
     <g id="line2d_21">
      <g>
       <use xlink:href="#m2db6d233d6" x="266.946592" y="365.026" style="stroke: #000000; stroke-width: 0.8"/>
      </g>
     </g>
     <g id="text_21">
      <!-- 20 -->
      <g transform="translate(269.705967 384.751) rotate(-90) scale(0.1 -0.1)">
       <use xlink:href="#DejaVuSans-32"/>
       <use xlink:href="#DejaVuSans-30" x="63.623047"/>
      </g>
     </g>
    </g>
    <g id="xtick_22">
     <g id="line2d_22">
      <g>
       <use xlink:href="#m2db6d233d6" x="276.009162" y="365.026" style="stroke: #000000; stroke-width: 0.8"/>
      </g>
     </g>
     <g id="text_22">
      <!-- 21 -->
      <g transform="translate(278.768537 384.751) rotate(-90) scale(0.1 -0.1)">
       <use xlink:href="#DejaVuSans-32"/>
       <use xlink:href="#DejaVuSans-31" x="63.623047"/>
      </g>
     </g>
    </g>
    <g id="xtick_23">
     <g id="line2d_23">
      <g>
       <use xlink:href="#m2db6d233d6" x="285.071732" y="365.026" style="stroke: #000000; stroke-width: 0.8"/>
      </g>
     </g>
     <g id="text_23">
      <!-- 22 -->
      <g transform="translate(287.831107 384.751) rotate(-90) scale(0.1 -0.1)">
       <use xlink:href="#DejaVuSans-32"/>
       <use xlink:href="#DejaVuSans-32" x="63.623047"/>
      </g>
     </g>
    </g>
    <g id="xtick_24">
     <g id="line2d_24">
      <g>
       <use xlink:href="#m2db6d233d6" x="294.134302" y="365.026" style="stroke: #000000; stroke-width: 0.8"/>
      </g>
     </g>
     <g id="text_24">
      <!-- 23 -->
      <g transform="translate(296.893677 384.751) rotate(-90) scale(0.1 -0.1)">
       <use xlink:href="#DejaVuSans-32"/>
       <use xlink:href="#DejaVuSans-33" x="63.623047"/>
      </g>
     </g>
    </g>
    <g id="xtick_25">
     <g id="line2d_25">
      <g>
       <use xlink:href="#m2db6d233d6" x="303.196872" y="365.026" style="stroke: #000000; stroke-width: 0.8"/>
      </g>
     </g>
     <g id="text_25">
      <!-- 24 -->
      <g transform="translate(305.956247 384.751) rotate(-90) scale(0.1 -0.1)">
       <use xlink:href="#DejaVuSans-32"/>
       <use xlink:href="#DejaVuSans-34" x="63.623047"/>
      </g>
     </g>
    </g>
    <g id="xtick_26">
     <g id="line2d_26">
      <g>
       <use xlink:href="#m2db6d233d6" x="312.259441" y="365.026" style="stroke: #000000; stroke-width: 0.8"/>
      </g>
     </g>
     <g id="text_26">
      <!-- 25 -->
      <g transform="translate(315.018816 384.751) rotate(-90) scale(0.1 -0.1)">
       <use xlink:href="#DejaVuSans-32"/>
       <use xlink:href="#DejaVuSans-35" x="63.623047"/>
      </g>
     </g>
    </g>
    <g id="xtick_27">
     <g id="line2d_27">
      <g>
       <use xlink:href="#m2db6d233d6" x="321.322011" y="365.026" style="stroke: #000000; stroke-width: 0.8"/>
      </g>
     </g>
     <g id="text_27">
      <!-- 26 -->
      <g transform="translate(324.081386 384.751) rotate(-90) scale(0.1 -0.1)">
       <use xlink:href="#DejaVuSans-32"/>
       <use xlink:href="#DejaVuSans-36" x="63.623047"/>
      </g>
     </g>
    </g>
    <g id="xtick_28">
     <g id="line2d_28">
      <g>
       <use xlink:href="#m2db6d233d6" x="330.384581" y="365.026" style="stroke: #000000; stroke-width: 0.8"/>
      </g>
     </g>
     <g id="text_28">
      <!-- 27 -->
      <g transform="translate(333.143956 384.751) rotate(-90) scale(0.1 -0.1)">
       <use xlink:href="#DejaVuSans-32"/>
       <use xlink:href="#DejaVuSans-37" x="63.623047"/>
      </g>
     </g>
    </g>
    <g id="xtick_29">
     <g id="line2d_29">
      <g>
       <use xlink:href="#m2db6d233d6" x="339.447151" y="365.026" style="stroke: #000000; stroke-width: 0.8"/>
      </g>
     </g>
     <g id="text_29">
      <!-- 28 -->
      <g transform="translate(342.206526 384.751) rotate(-90) scale(0.1 -0.1)">
       <use xlink:href="#DejaVuSans-32"/>
       <use xlink:href="#DejaVuSans-38" x="63.623047"/>
      </g>
     </g>
    </g>
    <g id="xtick_30">
     <g id="line2d_30">
      <g>
       <use xlink:href="#m2db6d233d6" x="348.509721" y="365.026" style="stroke: #000000; stroke-width: 0.8"/>
      </g>
     </g>
     <g id="text_30">
      <!-- 29 -->
      <g transform="translate(351.269096 384.751) rotate(-90) scale(0.1 -0.1)">
       <use xlink:href="#DejaVuSans-32"/>
       <use xlink:href="#DejaVuSans-39" x="63.623047"/>
      </g>
     </g>
    </g>
    <g id="xtick_31">
     <g id="line2d_31">
      <g>
       <use xlink:href="#m2db6d233d6" x="357.572291" y="365.026" style="stroke: #000000; stroke-width: 0.8"/>
      </g>
     </g>
     <g id="text_31">
      <!-- 30 -->
      <g transform="translate(360.331666 384.751) rotate(-90) scale(0.1 -0.1)">
       <use xlink:href="#DejaVuSans-33"/>
       <use xlink:href="#DejaVuSans-30" x="63.623047"/>
      </g>
     </g>
    </g>
    <g id="xtick_32">
     <g id="line2d_32">
      <g>
       <use xlink:href="#m2db6d233d6" x="366.63486" y="365.026" style="stroke: #000000; stroke-width: 0.8"/>
      </g>
     </g>
     <g id="text_32">
      <!-- 31 -->
      <g transform="translate(369.394235 384.751) rotate(-90) scale(0.1 -0.1)">
       <use xlink:href="#DejaVuSans-33"/>
       <use xlink:href="#DejaVuSans-31" x="63.623047"/>
      </g>
     </g>
    </g>
    <g id="xtick_33">
     <g id="line2d_33">
      <g>
       <use xlink:href="#m2db6d233d6" x="375.69743" y="365.026" style="stroke: #000000; stroke-width: 0.8"/>
      </g>
     </g>
     <g id="text_33">
      <!-- 32 -->
      <g transform="translate(378.456805 384.751) rotate(-90) scale(0.1 -0.1)">
       <use xlink:href="#DejaVuSans-33"/>
       <use xlink:href="#DejaVuSans-32" x="63.623047"/>
      </g>
     </g>
    </g>
    <g id="xtick_34">
     <g id="line2d_34">
      <g>
       <use xlink:href="#m2db6d233d6" x="384.76" y="365.026" style="stroke: #000000; stroke-width: 0.8"/>
      </g>
     </g>
     <g id="text_34">
      <!-- 33 -->
      <g transform="translate(387.519375 384.751) rotate(-90) scale(0.1 -0.1)">
       <use xlink:href="#DejaVuSans-33"/>
       <use xlink:href="#DejaVuSans-33" x="63.623047"/>
      </g>
     </g>
    </g>
    <g id="xtick_35">
     <g id="line2d_35">
      <g>
       <use xlink:href="#m2db6d233d6" x="393.82257" y="365.026" style="stroke: #000000; stroke-width: 0.8"/>
      </g>
     </g>
     <g id="text_35">
      <!-- 34 -->
      <g transform="translate(396.581945 384.751) rotate(-90) scale(0.1 -0.1)">
       <use xlink:href="#DejaVuSans-33"/>
       <use xlink:href="#DejaVuSans-34" x="63.623047"/>
      </g>
     </g>
    </g>
    <g id="xtick_36">
     <g id="line2d_36">
      <g>
       <use xlink:href="#m2db6d233d6" x="402.88514" y="365.026" style="stroke: #000000; stroke-width: 0.8"/>
      </g>
     </g>
     <g id="text_36">
      <!-- 35 -->
      <g transform="translate(405.644515 384.751) rotate(-90) scale(0.1 -0.1)">
       <use xlink:href="#DejaVuSans-33"/>
       <use xlink:href="#DejaVuSans-35" x="63.623047"/>
      </g>
     </g>
    </g>
    <g id="xtick_37">
     <g id="line2d_37">
      <g>
       <use xlink:href="#m2db6d233d6" x="411.947709" y="365.026" style="stroke: #000000; stroke-width: 0.8"/>
      </g>
     </g>
     <g id="text_37">
      <!-- 36 -->
      <g transform="translate(414.707084 384.751) rotate(-90) scale(0.1 -0.1)">
       <use xlink:href="#DejaVuSans-33"/>
       <use xlink:href="#DejaVuSans-36" x="63.623047"/>
      </g>
     </g>
    </g>
    <g id="xtick_38">
     <g id="line2d_38">
      <g>
       <use xlink:href="#m2db6d233d6" x="421.010279" y="365.026" style="stroke: #000000; stroke-width: 0.8"/>
      </g>
     </g>
     <g id="text_38">
      <!-- 37 -->
      <g transform="translate(423.769654 384.751) rotate(-90) scale(0.1 -0.1)">
       <use xlink:href="#DejaVuSans-33"/>
       <use xlink:href="#DejaVuSans-37" x="63.623047"/>
      </g>
     </g>
    </g>
    <g id="xtick_39">
     <g id="line2d_39">
      <g>
       <use xlink:href="#m2db6d233d6" x="430.072849" y="365.026" style="stroke: #000000; stroke-width: 0.8"/>
      </g>
     </g>
     <g id="text_39">
      <!-- 38 -->
      <g transform="translate(432.832224 384.751) rotate(-90) scale(0.1 -0.1)">
       <use xlink:href="#DejaVuSans-33"/>
       <use xlink:href="#DejaVuSans-38" x="63.623047"/>
      </g>
     </g>
    </g>
    <g id="xtick_40">
     <g id="line2d_40">
      <g>
       <use xlink:href="#m2db6d233d6" x="439.135419" y="365.026" style="stroke: #000000; stroke-width: 0.8"/>
      </g>
     </g>
     <g id="text_40">
      <!-- 39 -->
      <g transform="translate(441.894794 384.751) rotate(-90) scale(0.1 -0.1)">
       <use xlink:href="#DejaVuSans-33"/>
       <use xlink:href="#DejaVuSans-39" x="63.623047"/>
      </g>
     </g>
    </g>
    <g id="xtick_41">
     <g id="line2d_41">
      <g>
       <use xlink:href="#m2db6d233d6" x="448.197989" y="365.026" style="stroke: #000000; stroke-width: 0.8"/>
      </g>
     </g>
     <g id="text_41">
      <!-- 40 -->
      <g transform="translate(450.957364 384.751) rotate(-90) scale(0.1 -0.1)">
       <use xlink:href="#DejaVuSans-34"/>
       <use xlink:href="#DejaVuSans-30" x="63.623047"/>
      </g>
     </g>
    </g>
    <g id="xtick_42">
     <g id="line2d_42">
      <g>
       <use xlink:href="#m2db6d233d6" x="457.260559" y="365.026" style="stroke: #000000; stroke-width: 0.8"/>
      </g>
     </g>
     <g id="text_42">
      <!-- 41 -->
      <g transform="translate(460.019934 384.751) rotate(-90) scale(0.1 -0.1)">
       <use xlink:href="#DejaVuSans-34"/>
       <use xlink:href="#DejaVuSans-31" x="63.623047"/>
      </g>
     </g>
    </g>
    <g id="xtick_43">
     <g id="line2d_43">
      <g>
       <use xlink:href="#m2db6d233d6" x="466.323128" y="365.026" style="stroke: #000000; stroke-width: 0.8"/>
      </g>
     </g>
     <g id="text_43">
      <!-- 42 -->
      <g transform="translate(469.082503 384.751) rotate(-90) scale(0.1 -0.1)">
       <use xlink:href="#DejaVuSans-34"/>
       <use xlink:href="#DejaVuSans-32" x="63.623047"/>
      </g>
     </g>
    </g>
    <g id="xtick_44">
     <g id="line2d_44">
      <g>
       <use xlink:href="#m2db6d233d6" x="475.385698" y="365.026" style="stroke: #000000; stroke-width: 0.8"/>
      </g>
     </g>
     <g id="text_44">
      <!-- 43 -->
      <g transform="translate(478.145073 384.751) rotate(-90) scale(0.1 -0.1)">
       <use xlink:href="#DejaVuSans-34"/>
       <use xlink:href="#DejaVuSans-33" x="63.623047"/>
      </g>
     </g>
    </g>
    <g id="xtick_45">
     <g id="line2d_45">
      <g>
       <use xlink:href="#m2db6d233d6" x="484.448268" y="365.026" style="stroke: #000000; stroke-width: 0.8"/>
      </g>
     </g>
     <g id="text_45">
      <!-- 44 -->
      <g transform="translate(487.207643 384.751) rotate(-90) scale(0.1 -0.1)">
       <use xlink:href="#DejaVuSans-34"/>
       <use xlink:href="#DejaVuSans-34" x="63.623047"/>
      </g>
     </g>
    </g>
    <g id="xtick_46">
     <g id="line2d_46">
      <g>
       <use xlink:href="#m2db6d233d6" x="493.510838" y="365.026" style="stroke: #000000; stroke-width: 0.8"/>
      </g>
     </g>
     <g id="text_46">
      <!-- 45 -->
      <g transform="translate(496.270213 384.751) rotate(-90) scale(0.1 -0.1)">
       <use xlink:href="#DejaVuSans-34"/>
       <use xlink:href="#DejaVuSans-35" x="63.623047"/>
      </g>
     </g>
    </g>
    <g id="xtick_47">
     <g id="line2d_47">
      <g>
       <use xlink:href="#m2db6d233d6" x="502.573408" y="365.026" style="stroke: #000000; stroke-width: 0.8"/>
      </g>
     </g>
     <g id="text_47">
      <!-- 46 -->
      <g transform="translate(505.332783 384.751) rotate(-90) scale(0.1 -0.1)">
       <use xlink:href="#DejaVuSans-34"/>
       <use xlink:href="#DejaVuSans-36" x="63.623047"/>
      </g>
     </g>
    </g>
    <g id="xtick_48">
     <g id="line2d_48">
      <g>
       <use xlink:href="#m2db6d233d6" x="511.635978" y="365.026" style="stroke: #000000; stroke-width: 0.8"/>
      </g>
     </g>
     <g id="text_48">
      <!-- 47 -->
      <g transform="translate(514.395353 384.751) rotate(-90) scale(0.1 -0.1)">
       <use xlink:href="#DejaVuSans-34"/>
       <use xlink:href="#DejaVuSans-37" x="63.623047"/>
      </g>
     </g>
    </g>
    <g id="xtick_49">
     <g id="line2d_49">
      <g>
       <use xlink:href="#m2db6d233d6" x="520.698547" y="365.026" style="stroke: #000000; stroke-width: 0.8"/>
      </g>
     </g>
     <g id="text_49">
      <!-- 48 -->
      <g transform="translate(523.457922 384.751) rotate(-90) scale(0.1 -0.1)">
       <use xlink:href="#DejaVuSans-34"/>
       <use xlink:href="#DejaVuSans-38" x="63.623047"/>
      </g>
     </g>
    </g>
    <g id="xtick_50">
     <g id="line2d_50">
      <g>
       <use xlink:href="#m2db6d233d6" x="529.761117" y="365.026" style="stroke: #000000; stroke-width: 0.8"/>
      </g>
     </g>
     <g id="text_50">
      <!-- 49 -->
      <g transform="translate(532.520492 384.751) rotate(-90) scale(0.1 -0.1)">
       <use xlink:href="#DejaVuSans-34"/>
       <use xlink:href="#DejaVuSans-39" x="63.623047"/>
      </g>
     </g>
    </g>
    <g id="xtick_51">
     <g id="line2d_51">
      <g>
       <use xlink:href="#m2db6d233d6" x="538.823687" y="365.026" style="stroke: #000000; stroke-width: 0.8"/>
      </g>
     </g>
     <g id="text_51">
      <!-- 50 -->
      <g transform="translate(541.583062 384.751) rotate(-90) scale(0.1 -0.1)">
       <use xlink:href="#DejaVuSans-35"/>
       <use xlink:href="#DejaVuSans-30" x="63.623047"/>
      </g>
     </g>
    </g>
    <g id="xtick_52">
     <g id="line2d_52">
      <g>
       <use xlink:href="#m2db6d233d6" x="547.886257" y="365.026" style="stroke: #000000; stroke-width: 0.8"/>
      </g>
     </g>
     <g id="text_52">
      <!-- 51 -->
      <g transform="translate(550.645632 384.751) rotate(-90) scale(0.1 -0.1)">
       <use xlink:href="#DejaVuSans-35"/>
       <use xlink:href="#DejaVuSans-31" x="63.623047"/>
      </g>
     </g>
    </g>
    <g id="xtick_53">
     <g id="line2d_53">
      <g>
       <use xlink:href="#m2db6d233d6" x="556.948827" y="365.026" style="stroke: #000000; stroke-width: 0.8"/>
      </g>
     </g>
     <g id="text_53">
      <!-- 52 -->
      <g transform="translate(559.708202 384.751) rotate(-90) scale(0.1 -0.1)">
       <use xlink:href="#DejaVuSans-35"/>
       <use xlink:href="#DejaVuSans-32" x="63.623047"/>
      </g>
     </g>
    </g>
    <g id="xtick_54">
     <g id="line2d_54">
      <g>
       <use xlink:href="#m2db6d233d6" x="566.011397" y="365.026" style="stroke: #000000; stroke-width: 0.8"/>
      </g>
     </g>
     <g id="text_54">
      <!-- 53 -->
      <g transform="translate(568.770772 384.751) rotate(-90) scale(0.1 -0.1)">
       <use xlink:href="#DejaVuSans-35"/>
       <use xlink:href="#DejaVuSans-33" x="63.623047"/>
      </g>
     </g>
    </g>
    <g id="xtick_55">
     <g id="line2d_55">
      <g>
       <use xlink:href="#m2db6d233d6" x="575.073966" y="365.026" style="stroke: #000000; stroke-width: 0.8"/>
      </g>
     </g>
     <g id="text_55">
      <!-- 54 -->
      <g transform="translate(577.833341 384.751) rotate(-90) scale(0.1 -0.1)">
       <use xlink:href="#DejaVuSans-35"/>
       <use xlink:href="#DejaVuSans-34" x="63.623047"/>
      </g>
     </g>
    </g>
    <g id="xtick_56">
     <g id="line2d_56">
      <g>
       <use xlink:href="#m2db6d233d6" x="584.136536" y="365.026" style="stroke: #000000; stroke-width: 0.8"/>
      </g>
     </g>
     <g id="text_56">
      <!-- 55 -->
      <g transform="translate(586.895911 384.751) rotate(-90) scale(0.1 -0.1)">
       <use xlink:href="#DejaVuSans-35"/>
       <use xlink:href="#DejaVuSans-35" x="63.623047"/>
      </g>
     </g>
    </g>
    <g id="xtick_57">
     <g id="line2d_57">
      <g>
       <use xlink:href="#m2db6d233d6" x="593.199106" y="365.026" style="stroke: #000000; stroke-width: 0.8"/>
      </g>
     </g>
     <g id="text_57">
      <!-- 56 -->
      <g transform="translate(595.958481 384.751) rotate(-90) scale(0.1 -0.1)">
       <use xlink:href="#DejaVuSans-35"/>
       <use xlink:href="#DejaVuSans-36" x="63.623047"/>
      </g>
     </g>
    </g>
    <g id="xtick_58">
     <g id="line2d_58">
      <g>
       <use xlink:href="#m2db6d233d6" x="602.261676" y="365.026" style="stroke: #000000; stroke-width: 0.8"/>
      </g>
     </g>
     <g id="text_58">
      <!-- 57 -->
      <g transform="translate(605.021051 384.751) rotate(-90) scale(0.1 -0.1)">
       <use xlink:href="#DejaVuSans-35"/>
       <use xlink:href="#DejaVuSans-37" x="63.623047"/>
      </g>
     </g>
    </g>
    <g id="xtick_59">
     <g id="line2d_59">
      <g>
       <use xlink:href="#m2db6d233d6" x="611.324246" y="365.026" style="stroke: #000000; stroke-width: 0.8"/>
      </g>
     </g>
     <g id="text_59">
      <!-- 58 -->
      <g transform="translate(614.083621 384.751) rotate(-90) scale(0.1 -0.1)">
       <use xlink:href="#DejaVuSans-35"/>
       <use xlink:href="#DejaVuSans-38" x="63.623047"/>
      </g>
     </g>
    </g>
    <g id="xtick_60">
     <g id="line2d_60">
      <g>
       <use xlink:href="#m2db6d233d6" x="620.386816" y="365.026" style="stroke: #000000; stroke-width: 0.8"/>
      </g>
     </g>
     <g id="text_60">
      <!-- 59 -->
      <g transform="translate(623.146191 384.751) rotate(-90) scale(0.1 -0.1)">
       <use xlink:href="#DejaVuSans-35"/>
       <use xlink:href="#DejaVuSans-39" x="63.623047"/>
      </g>
     </g>
    </g>
    <g id="xtick_61">
     <g id="line2d_61">
      <g>
       <use xlink:href="#m2db6d233d6" x="629.449385" y="365.026" style="stroke: #000000; stroke-width: 0.8"/>
      </g>
     </g>
     <g id="text_61">
      <!-- 60 -->
      <g transform="translate(632.20876 384.751) rotate(-90) scale(0.1 -0.1)">
       <use xlink:href="#DejaVuSans-36"/>
       <use xlink:href="#DejaVuSans-30" x="63.623047"/>
      </g>
     </g>
    </g>
    <g id="xtick_62">
     <g id="line2d_62">
      <g>
       <use xlink:href="#m2db6d233d6" x="638.511955" y="365.026" style="stroke: #000000; stroke-width: 0.8"/>
      </g>
     </g>
     <g id="text_62">
      <!-- 61 -->
      <g transform="translate(641.27133 384.751) rotate(-90) scale(0.1 -0.1)">
       <use xlink:href="#DejaVuSans-36"/>
       <use xlink:href="#DejaVuSans-31" x="63.623047"/>
      </g>
     </g>
    </g>
    <g id="xtick_63">
     <g id="line2d_63">
      <g>
       <use xlink:href="#m2db6d233d6" x="647.574525" y="365.026" style="stroke: #000000; stroke-width: 0.8"/>
      </g>
     </g>
     <g id="text_63">
      <!-- 62 -->
      <g transform="translate(650.3339 384.751) rotate(-90) scale(0.1 -0.1)">
       <use xlink:href="#DejaVuSans-36"/>
       <use xlink:href="#DejaVuSans-32" x="63.623047"/>
      </g>
     </g>
    </g>
    <g id="xtick_64">
     <g id="line2d_64">
      <g>
       <use xlink:href="#m2db6d233d6" x="656.637095" y="365.026" style="stroke: #000000; stroke-width: 0.8"/>
      </g>
     </g>
     <g id="text_64">
      <!-- 63 -->
      <g transform="translate(659.39647 384.751) rotate(-90) scale(0.1 -0.1)">
       <use xlink:href="#DejaVuSans-36"/>
       <use xlink:href="#DejaVuSans-33" x="63.623047"/>
      </g>
     </g>
    </g>
    <g id="xtick_65">
     <g id="line2d_65">
      <g>
       <use xlink:href="#m2db6d233d6" x="683.824804" y="365.026" style="stroke: #000000; stroke-width: 0.8"/>
      </g>
     </g>
     <g id="text_65">
      <!-- 66 -->
      <g transform="translate(686.584179 384.751) rotate(-90) scale(0.1 -0.1)">
       <use xlink:href="#DejaVuSans-36"/>
       <use xlink:href="#DejaVuSans-36" x="63.623047"/>
      </g>
     </g>
    </g>
    <g id="xtick_66">
     <g id="line2d_66">
      <g>
       <use xlink:href="#m2db6d233d6" x="701.949944" y="365.026" style="stroke: #000000; stroke-width: 0.8"/>
      </g>
     </g>
     <g id="text_66">
      <!-- 68 -->
      <g transform="translate(704.709319 384.751) rotate(-90) scale(0.1 -0.1)">
       <use xlink:href="#DejaVuSans-36"/>
       <use xlink:href="#DejaVuSans-38" x="63.623047"/>
      </g>
     </g>
    </g>
    <g id="text_67">
     <!-- Input Length -->
     <g transform="translate(352.977187 406.9635) scale(0.1 -0.1)">
      <defs>
       <path id="DejaVuSans-49" d="M 628 4666 
L 1259 4666 
L 1259 0 
L 628 0 
L 628 4666 
z
" transform="scale(0.015625)"/>
       <path id="DejaVuSans-6e" d="M 3513 2113 
L 3513 0 
L 2938 0 
L 2938 2094 
Q 2938 2591 2744 2837 
Q 2550 3084 2163 3084 
Q 1697 3084 1428 2787 
Q 1159 2491 1159 1978 
L 1159 0 
L 581 0 
L 581 3500 
L 1159 3500 
L 1159 2956 
Q 1366 3272 1645 3428 
Q 1925 3584 2291 3584 
Q 2894 3584 3203 3211 
Q 3513 2838 3513 2113 
z
" transform="scale(0.015625)"/>
       <path id="DejaVuSans-70" d="M 1159 525 
L 1159 -1331 
L 581 -1331 
L 581 3500 
L 1159 3500 
L 1159 2969 
Q 1341 3281 1617 3432 
Q 1894 3584 2278 3584 
Q 2916 3584 3314 3078 
Q 3713 2572 3713 1747 
Q 3713 922 3314 415 
Q 2916 -91 2278 -91 
Q 1894 -91 1617 61 
Q 1341 213 1159 525 
z
M 3116 1747 
Q 3116 2381 2855 2742 
Q 2594 3103 2138 3103 
Q 1681 3103 1420 2742 
Q 1159 2381 1159 1747 
Q 1159 1113 1420 752 
Q 1681 391 2138 391 
Q 2594 391 2855 752 
Q 3116 1113 3116 1747 
z
" transform="scale(0.015625)"/>
       <path id="DejaVuSans-75" d="M 544 1381 
L 544 3500 
L 1119 3500 
L 1119 1403 
Q 1119 906 1312 657 
Q 1506 409 1894 409 
Q 2359 409 2629 706 
Q 2900 1003 2900 1516 
L 2900 3500 
L 3475 3500 
L 3475 0 
L 2900 0 
L 2900 538 
Q 2691 219 2414 64 
Q 2138 -91 1772 -91 
Q 1169 -91 856 284 
Q 544 659 544 1381 
z
M 1991 3584 
L 1991 3584 
z
" transform="scale(0.015625)"/>
       <path id="DejaVuSans-20" transform="scale(0.015625)"/>
       <path id="DejaVuSans-4c" d="M 628 4666 
L 1259 4666 
L 1259 531 
L 3531 531 
L 3531 0 
L 628 0 
L 628 4666 
z
" transform="scale(0.015625)"/>
      </defs>
      <use xlink:href="#DejaVuSans-49"/>
      <use xlink:href="#DejaVuSans-6e" x="29.492188"/>
      <use xlink:href="#DejaVuSans-70" x="92.871094"/>
      <use xlink:href="#DejaVuSans-75" x="156.347656"/>
      <use xlink:href="#DejaVuSans-74" x="219.726562"/>
      <use xlink:href="#DejaVuSans-20" x="258.935547"/>
      <use xlink:href="#DejaVuSans-4c" x="290.722656"/>
      <use xlink:href="#DejaVuSans-65" x="344.685547"/>
      <use xlink:href="#DejaVuSans-6e" x="406.208984"/>
      <use xlink:href="#DejaVuSans-67" x="469.587891"/>
      <use xlink:href="#DejaVuSans-74" x="533.064453"/>
      <use xlink:href="#DejaVuSans-68" x="572.273438"/>
     </g>
     <!-- (Bar width indicates relative number of samples) -->
     <g transform="translate(262.442031 418.161313) scale(0.1 -0.1)">
      <defs>
       <path id="DejaVuSans-28" d="M 1984 4856 
Q 1566 4138 1362 3434 
Q 1159 2731 1159 2009 
Q 1159 1288 1364 580 
Q 1569 -128 1984 -844 
L 1484 -844 
Q 1016 -109 783 600 
Q 550 1309 550 2009 
Q 550 2706 781 3412 
Q 1013 4119 1484 4856 
L 1984 4856 
z
" transform="scale(0.015625)"/>
       <path id="DejaVuSans-42" d="M 1259 2228 
L 1259 519 
L 2272 519 
Q 2781 519 3026 730 
Q 3272 941 3272 1375 
Q 3272 1813 3026 2020 
Q 2781 2228 2272 2228 
L 1259 2228 
z
M 1259 4147 
L 1259 2741 
L 2194 2741 
Q 2656 2741 2882 2914 
Q 3109 3088 3109 3444 
Q 3109 3797 2882 3972 
Q 2656 4147 2194 4147 
L 1259 4147 
z
M 628 4666 
L 2241 4666 
Q 2963 4666 3353 4366 
Q 3744 4066 3744 3513 
Q 3744 3084 3544 2831 
Q 3344 2578 2956 2516 
Q 3422 2416 3680 2098 
Q 3938 1781 3938 1306 
Q 3938 681 3513 340 
Q 3088 0 2303 0 
L 628 0 
L 628 4666 
z
" transform="scale(0.015625)"/>
       <path id="DejaVuSans-77" d="M 269 3500 
L 844 3500 
L 1563 769 
L 2278 3500 
L 2956 3500 
L 3675 769 
L 4391 3500 
L 4966 3500 
L 4050 0 
L 3372 0 
L 2619 2869 
L 1863 0 
L 1184 0 
L 269 3500 
z
" transform="scale(0.015625)"/>
       <path id="DejaVuSans-63" d="M 3122 3366 
L 3122 2828 
Q 2878 2963 2633 3030 
Q 2388 3097 2138 3097 
Q 1578 3097 1268 2742 
Q 959 2388 959 1747 
Q 959 1106 1268 751 
Q 1578 397 2138 397 
Q 2388 397 2633 464 
Q 2878 531 3122 666 
L 3122 134 
Q 2881 22 2623 -34 
Q 2366 -91 2075 -91 
Q 1284 -91 818 406 
Q 353 903 353 1747 
Q 353 2603 823 3093 
Q 1294 3584 2113 3584 
Q 2378 3584 2631 3529 
Q 2884 3475 3122 3366 
z
" transform="scale(0.015625)"/>
       <path id="DejaVuSans-73" d="M 2834 3397 
L 2834 2853 
Q 2591 2978 2328 3040 
Q 2066 3103 1784 3103 
Q 1356 3103 1142 2972 
Q 928 2841 928 2578 
Q 928 2378 1081 2264 
Q 1234 2150 1697 2047 
L 1894 2003 
Q 2506 1872 2764 1633 
Q 3022 1394 3022 966 
Q 3022 478 2636 193 
Q 2250 -91 1575 -91 
Q 1294 -91 989 -36 
Q 684 19 347 128 
L 347 722 
Q 666 556 975 473 
Q 1284 391 1588 391 
Q 1994 391 2212 530 
Q 2431 669 2431 922 
Q 2431 1156 2273 1281 
Q 2116 1406 1581 1522 
L 1381 1569 
Q 847 1681 609 1914 
Q 372 2147 372 2553 
Q 372 3047 722 3315 
Q 1072 3584 1716 3584 
Q 2034 3584 2315 3537 
Q 2597 3491 2834 3397 
z
" transform="scale(0.015625)"/>
       <path id="DejaVuSans-6c" d="M 603 4863 
L 1178 4863 
L 1178 0 
L 603 0 
L 603 4863 
z
" transform="scale(0.015625)"/>
       <path id="DejaVuSans-6d" d="M 3328 2828 
Q 3544 3216 3844 3400 
Q 4144 3584 4550 3584 
Q 5097 3584 5394 3201 
Q 5691 2819 5691 2113 
L 5691 0 
L 5113 0 
L 5113 2094 
Q 5113 2597 4934 2840 
Q 4756 3084 4391 3084 
Q 3944 3084 3684 2787 
Q 3425 2491 3425 1978 
L 3425 0 
L 2847 0 
L 2847 2094 
Q 2847 2600 2669 2842 
Q 2491 3084 2119 3084 
Q 1678 3084 1418 2786 
Q 1159 2488 1159 1978 
L 1159 0 
L 581 0 
L 581 3500 
L 1159 3500 
L 1159 2956 
Q 1356 3278 1631 3431 
Q 1906 3584 2284 3584 
Q 2666 3584 2933 3390 
Q 3200 3197 3328 2828 
z
" transform="scale(0.015625)"/>
       <path id="DejaVuSans-62" d="M 3116 1747 
Q 3116 2381 2855 2742 
Q 2594 3103 2138 3103 
Q 1681 3103 1420 2742 
Q 1159 2381 1159 1747 
Q 1159 1113 1420 752 
Q 1681 391 2138 391 
Q 2594 391 2855 752 
Q 3116 1113 3116 1747 
z
M 1159 2969 
Q 1341 3281 1617 3432 
Q 1894 3584 2278 3584 
Q 2916 3584 3314 3078 
Q 3713 2572 3713 1747 
Q 3713 922 3314 415 
Q 2916 -91 2278 -91 
Q 1894 -91 1617 61 
Q 1341 213 1159 525 
L 1159 0 
L 581 0 
L 581 4863 
L 1159 4863 
L 1159 2969 
z
" transform="scale(0.015625)"/>
       <path id="DejaVuSans-6f" d="M 1959 3097 
Q 1497 3097 1228 2736 
Q 959 2375 959 1747 
Q 959 1119 1226 758 
Q 1494 397 1959 397 
Q 2419 397 2687 759 
Q 2956 1122 2956 1747 
Q 2956 2369 2687 2733 
Q 2419 3097 1959 3097 
z
M 1959 3584 
Q 2709 3584 3137 3096 
Q 3566 2609 3566 1747 
Q 3566 888 3137 398 
Q 2709 -91 1959 -91 
Q 1206 -91 779 398 
Q 353 888 353 1747 
Q 353 2609 779 3096 
Q 1206 3584 1959 3584 
z
" transform="scale(0.015625)"/>
       <path id="DejaVuSans-66" d="M 2375 4863 
L 2375 4384 
L 1825 4384 
Q 1516 4384 1395 4259 
Q 1275 4134 1275 3809 
L 1275 3500 
L 2222 3500 
L 2222 3053 
L 1275 3053 
L 1275 0 
L 697 0 
L 697 3053 
L 147 3053 
L 147 3500 
L 697 3500 
L 697 3744 
Q 697 4328 969 4595 
Q 1241 4863 1831 4863 
L 2375 4863 
z
" transform="scale(0.015625)"/>
       <path id="DejaVuSans-29" d="M 513 4856 
L 1013 4856 
Q 1481 4119 1714 3412 
Q 1947 2706 1947 2009 
Q 1947 1309 1714 600 
Q 1481 -109 1013 -844 
L 513 -844 
Q 928 -128 1133 580 
Q 1338 1288 1338 2009 
Q 1338 2731 1133 3434 
Q 928 4138 513 4856 
z
" transform="scale(0.015625)"/>
      </defs>
      <use xlink:href="#DejaVuSans-28"/>
      <use xlink:href="#DejaVuSans-42" x="39.013672"/>
      <use xlink:href="#DejaVuSans-61" x="107.617188"/>
      <use xlink:href="#DejaVuSans-72" x="168.896484"/>
      <use xlink:href="#DejaVuSans-20" x="210.009766"/>
      <use xlink:href="#DejaVuSans-77" x="241.796875"/>
      <use xlink:href="#DejaVuSans-69" x="323.583984"/>
      <use xlink:href="#DejaVuSans-64" x="351.367188"/>
      <use xlink:href="#DejaVuSans-74" x="414.84375"/>
      <use xlink:href="#DejaVuSans-68" x="454.052734"/>
      <use xlink:href="#DejaVuSans-20" x="517.431641"/>
      <use xlink:href="#DejaVuSans-69" x="549.21875"/>
      <use xlink:href="#DejaVuSans-6e" x="577.001953"/>
      <use xlink:href="#DejaVuSans-64" x="640.380859"/>
      <use xlink:href="#DejaVuSans-69" x="703.857422"/>
      <use xlink:href="#DejaVuSans-63" x="731.640625"/>
      <use xlink:href="#DejaVuSans-61" x="786.621094"/>
      <use xlink:href="#DejaVuSans-74" x="847.900391"/>
      <use xlink:href="#DejaVuSans-65" x="887.109375"/>
      <use xlink:href="#DejaVuSans-73" x="948.632812"/>
      <use xlink:href="#DejaVuSans-20" x="1000.732422"/>
      <use xlink:href="#DejaVuSans-72" x="1032.519531"/>
      <use xlink:href="#DejaVuSans-65" x="1071.382812"/>
      <use xlink:href="#DejaVuSans-6c" x="1132.90625"/>
      <use xlink:href="#DejaVuSans-61" x="1160.689453"/>
      <use xlink:href="#DejaVuSans-74" x="1221.96875"/>
      <use xlink:href="#DejaVuSans-69" x="1261.177734"/>
      <use xlink:href="#DejaVuSans-76" x="1288.960938"/>
      <use xlink:href="#DejaVuSans-65" x="1348.140625"/>
      <use xlink:href="#DejaVuSans-20" x="1409.664062"/>
      <use xlink:href="#DejaVuSans-6e" x="1441.451172"/>
      <use xlink:href="#DejaVuSans-75" x="1504.830078"/>
      <use xlink:href="#DejaVuSans-6d" x="1568.208984"/>
      <use xlink:href="#DejaVuSans-62" x="1665.621094"/>
      <use xlink:href="#DejaVuSans-65" x="1729.097656"/>
      <use xlink:href="#DejaVuSans-72" x="1790.621094"/>
      <use xlink:href="#DejaVuSans-20" x="1831.734375"/>
      <use xlink:href="#DejaVuSans-6f" x="1863.521484"/>
      <use xlink:href="#DejaVuSans-66" x="1924.703125"/>
      <use xlink:href="#DejaVuSans-20" x="1959.908203"/>
      <use xlink:href="#DejaVuSans-73" x="1991.695312"/>
      <use xlink:href="#DejaVuSans-61" x="2043.794922"/>
      <use xlink:href="#DejaVuSans-6d" x="2105.074219"/>
      <use xlink:href="#DejaVuSans-70" x="2202.486328"/>
      <use xlink:href="#DejaVuSans-6c" x="2265.962891"/>
      <use xlink:href="#DejaVuSans-65" x="2293.746094"/>
      <use xlink:href="#DejaVuSans-73" x="2355.269531"/>
      <use xlink:href="#DejaVuSans-29" x="2407.369141"/>
     </g>
    </g>
   </g>
   <g id="matplotlib.axis_2">
    <g id="ytick_1">
     <g id="line2d_67">
      <defs>
       <path id="m770c0bb5a0" d="M 0 0 
L -3.5 0 
" style="stroke: #000000; stroke-width: 0.8"/>
      </defs>
      <g>
       <use xlink:href="#m770c0bb5a0" x="60.32" y="365.026" style="stroke: #000000; stroke-width: 0.8"/>
      </g>
     </g>
     <g id="text_68">
      <!-- 0.000 -->
      <g transform="translate(24.691875 368.825219) scale(0.1 -0.1)">
       <defs>
        <path id="DejaVuSans-2e" d="M 684 794 
L 1344 794 
L 1344 0 
L 684 0 
L 684 794 
z
" transform="scale(0.015625)"/>
       </defs>
       <use xlink:href="#DejaVuSans-30"/>
       <use xlink:href="#DejaVuSans-2e" x="63.623047"/>
       <use xlink:href="#DejaVuSans-30" x="95.410156"/>
       <use xlink:href="#DejaVuSans-30" x="159.033203"/>
       <use xlink:href="#DejaVuSans-30" x="222.65625"/>
      </g>
     </g>
    </g>
    <g id="ytick_2">
     <g id="line2d_68">
      <g>
       <use xlink:href="#m770c0bb5a0" x="60.32" y="332.426565" style="stroke: #000000; stroke-width: 0.8"/>
      </g>
     </g>
     <g id="text_69">
      <!-- 0.093 -->
      <g style="fill: #cc0000" transform="translate(24.691875 336.225783) scale(0.1 -0.1)">
       <use xlink:href="#DejaVuSans-30"/>
       <use xlink:href="#DejaVuSans-2e" x="63.623047"/>
       <use xlink:href="#DejaVuSans-30" x="95.410156"/>
       <use xlink:href="#DejaVuSans-39" x="159.033203"/>
       <use xlink:href="#DejaVuSans-33" x="222.65625"/>
      </g>
     </g>
    </g>
    <g id="ytick_3">
     <g id="line2d_69">
      <g>
       <use xlink:href="#m770c0bb5a0" x="60.32" y="294.9728" style="stroke: #000000; stroke-width: 0.8"/>
      </g>
     </g>
     <g id="text_70">
      <!-- 0.200 -->
      <g transform="translate(24.691875 298.772019) scale(0.1 -0.1)">
       <use xlink:href="#DejaVuSans-30"/>
       <use xlink:href="#DejaVuSans-2e" x="63.623047"/>
       <use xlink:href="#DejaVuSans-32" x="95.410156"/>
       <use xlink:href="#DejaVuSans-30" x="159.033203"/>
       <use xlink:href="#DejaVuSans-30" x="222.65625"/>
      </g>
     </g>
    </g>
    <g id="ytick_4">
     <g id="line2d_70">
      <g>
       <use xlink:href="#m770c0bb5a0" x="60.32" y="224.9196" style="stroke: #000000; stroke-width: 0.8"/>
      </g>
     </g>
     <g id="text_71">
      <!-- 0.400 -->
      <g transform="translate(24.691875 228.718819) scale(0.1 -0.1)">
       <use xlink:href="#DejaVuSans-30"/>
       <use xlink:href="#DejaVuSans-2e" x="63.623047"/>
       <use xlink:href="#DejaVuSans-34" x="95.410156"/>
       <use xlink:href="#DejaVuSans-30" x="159.033203"/>
       <use xlink:href="#DejaVuSans-30" x="222.65625"/>
      </g>
     </g>
    </g>
    <g id="ytick_5">
     <g id="line2d_71">
      <g>
       <use xlink:href="#m770c0bb5a0" x="60.32" y="154.8664" style="stroke: #000000; stroke-width: 0.8"/>
      </g>
     </g>
     <g id="text_72">
      <!-- 0.600 -->
      <g transform="translate(24.691875 158.665619) scale(0.1 -0.1)">
       <use xlink:href="#DejaVuSans-30"/>
       <use xlink:href="#DejaVuSans-2e" x="63.623047"/>
       <use xlink:href="#DejaVuSans-36" x="95.410156"/>
       <use xlink:href="#DejaVuSans-30" x="159.033203"/>
       <use xlink:href="#DejaVuSans-30" x="222.65625"/>
      </g>
     </g>
    </g>
    <g id="ytick_6">
     <g id="line2d_72">
      <g>
       <use xlink:href="#m770c0bb5a0" x="60.32" y="84.8132" style="stroke: #000000; stroke-width: 0.8"/>
      </g>
     </g>
     <g id="text_73">
      <!-- 0.800 -->
      <g transform="translate(24.691875 88.612419) scale(0.1 -0.1)">
       <use xlink:href="#DejaVuSans-30"/>
       <use xlink:href="#DejaVuSans-2e" x="63.623047"/>
       <use xlink:href="#DejaVuSans-38" x="95.410156"/>
       <use xlink:href="#DejaVuSans-30" x="159.033203"/>
       <use xlink:href="#DejaVuSans-30" x="222.65625"/>
      </g>
     </g>
    </g>
    <g id="ytick_7">
     <g id="line2d_73">
      <g>
       <use xlink:href="#m770c0bb5a0" x="60.32" y="14.76" style="stroke: #000000; stroke-width: 0.8"/>
      </g>
     </g>
     <g id="text_74">
      <!-- 1.000 -->
      <g transform="translate(24.691875 18.559219) scale(0.1 -0.1)">
       <use xlink:href="#DejaVuSans-31"/>
       <use xlink:href="#DejaVuSans-2e" x="63.623047"/>
       <use xlink:href="#DejaVuSans-30" x="95.410156"/>
       <use xlink:href="#DejaVuSans-30" x="159.033203"/>
       <use xlink:href="#DejaVuSans-30" x="222.65625"/>
      </g>
     </g>
    </g>
    <g id="text_75">
     <!-- Ratio -->
     <g transform="translate(18.612188 202.727375) rotate(-90) scale(0.1 -0.1)">
      <defs>
       <path id="DejaVuSans-52" d="M 2841 2188 
Q 3044 2119 3236 1894 
Q 3428 1669 3622 1275 
L 4263 0 
L 3584 0 
L 2988 1197 
Q 2756 1666 2539 1819 
Q 2322 1972 1947 1972 
L 1259 1972 
L 1259 0 
L 628 0 
L 628 4666 
L 2053 4666 
Q 2853 4666 3247 4331 
Q 3641 3997 3641 3322 
Q 3641 2881 3436 2590 
Q 3231 2300 2841 2188 
z
M 1259 4147 
L 1259 2491 
L 2053 2491 
Q 2509 2491 2742 2702 
Q 2975 2913 2975 3322 
Q 2975 3731 2742 3939 
Q 2509 4147 2053 4147 
L 1259 4147 
z
" transform="scale(0.015625)"/>
      </defs>
      <use xlink:href="#DejaVuSans-52"/>
      <use xlink:href="#DejaVuSans-61" x="67.232422"/>
      <use xlink:href="#DejaVuSans-74" x="128.511719"/>
      <use xlink:href="#DejaVuSans-69" x="167.720703"/>
      <use xlink:href="#DejaVuSans-6f" x="195.503906"/>
     </g>
    </g>
   </g>
   <g id="LineCollection_1">
    <path d="M 31.025241 332.426565 
L 721 332.426565 
" clip-path="url(#pbdfedd9495)" style="fill: none; stroke-dasharray: 5.55,2.4; stroke-dashoffset: 0; stroke: #cc0000; stroke-width: 1.5"/>
   </g>
   <g id="patch_135">
    <path d="M 60.32 365.026 
L 60.32 14.76 
" style="fill: none; stroke: #000000; stroke-width: 0.8; stroke-linejoin: miter; stroke-linecap: square"/>
   </g>
   <g id="patch_136">
    <path d="M 709.2 365.026 
L 709.2 14.76 
" style="fill: none; stroke: #000000; stroke-width: 0.8; stroke-linejoin: miter; stroke-linecap: square"/>
   </g>
   <g id="patch_137">
    <path d="M 60.32 365.026 
L 709.2 365.026 
" style="fill: none; stroke: #000000; stroke-width: 0.8; stroke-linejoin: miter; stroke-linecap: square"/>
   </g>
   <g id="patch_138">
    <path d="M 60.32 14.76 
L 709.2 14.76 
" style="fill: none; stroke: #000000; stroke-width: 0.8; stroke-linejoin: miter; stroke-linecap: square"/>
   </g>
   <g id="legend_1">
    <g id="patch_139">
     <path d="M 626.00625 52.11625 
L 702.2 52.11625 
Q 704.2 52.11625 704.2 50.11625 
L 704.2 21.76 
Q 704.2 19.76 702.2 19.76 
L 626.00625 19.76 
Q 624.00625 19.76 624.00625 21.76 
L 624.00625 50.11625 
Q 624.00625 52.11625 626.00625 52.11625 
z
" style="fill: #ffffff; stroke: #cccccc; stroke-linejoin: miter"/>
    </g>
    <g id="patch_140">
     <path d="M 628.00625 31.358438 
L 648.00625 31.358438 
L 648.00625 24.358438 
L 628.00625 24.358438 
z
" style="fill: #cc0000"/>
    </g>
    <g id="text_76">
     <!-- Unstable -->
     <g transform="translate(656.00625 31.358438) scale(0.1 -0.1)">
      <defs>
       <path id="DejaVuSans-55" d="M 556 4666 
L 1191 4666 
L 1191 1831 
Q 1191 1081 1462 751 
Q 1734 422 2344 422 
Q 2950 422 3222 751 
Q 3494 1081 3494 1831 
L 3494 4666 
L 4128 4666 
L 4128 1753 
Q 4128 841 3676 375 
Q 3225 -91 2344 -91 
Q 1459 -91 1007 375 
Q 556 841 556 1753 
L 556 4666 
z
" transform="scale(0.015625)"/>
      </defs>
      <use xlink:href="#DejaVuSans-55"/>
      <use xlink:href="#DejaVuSans-6e" x="73.193359"/>
      <use xlink:href="#DejaVuSans-73" x="136.572266"/>
      <use xlink:href="#DejaVuSans-74" x="188.671875"/>
      <use xlink:href="#DejaVuSans-61" x="227.880859"/>
      <use xlink:href="#DejaVuSans-62" x="289.160156"/>
      <use xlink:href="#DejaVuSans-6c" x="352.636719"/>
      <use xlink:href="#DejaVuSans-65" x="380.419922"/>
     </g>
    </g>
    <g id="patch_141">
     <path d="M 628.00625 46.036563 
L 648.00625 46.036563 
L 648.00625 39.036563 
L 628.00625 39.036563 
z
" style="fill: #006600"/>
    </g>
    <g id="text_77">
     <!-- Stable -->
     <g transform="translate(656.00625 46.036563) scale(0.1 -0.1)">
      <defs>
       <path id="DejaVuSans-53" d="M 3425 4513 
L 3425 3897 
Q 3066 4069 2747 4153 
Q 2428 4238 2131 4238 
Q 1616 4238 1336 4038 
Q 1056 3838 1056 3469 
Q 1056 3159 1242 3001 
Q 1428 2844 1947 2747 
L 2328 2669 
Q 3034 2534 3370 2195 
Q 3706 1856 3706 1288 
Q 3706 609 3251 259 
Q 2797 -91 1919 -91 
Q 1588 -91 1214 -16 
Q 841 59 441 206 
L 441 856 
Q 825 641 1194 531 
Q 1563 422 1919 422 
Q 2459 422 2753 634 
Q 3047 847 3047 1241 
Q 3047 1584 2836 1778 
Q 2625 1972 2144 2069 
L 1759 2144 
Q 1053 2284 737 2584 
Q 422 2884 422 3419 
Q 422 4038 858 4394 
Q 1294 4750 2059 4750 
Q 2388 4750 2728 4690 
Q 3069 4631 3425 4513 
z
" transform="scale(0.015625)"/>
      </defs>
      <use xlink:href="#DejaVuSans-53"/>
      <use xlink:href="#DejaVuSans-74" x="63.476562"/>
      <use xlink:href="#DejaVuSans-61" x="102.685547"/>
      <use xlink:href="#DejaVuSans-62" x="163.964844"/>
      <use xlink:href="#DejaVuSans-6c" x="227.441406"/>
      <use xlink:href="#DejaVuSans-65" x="255.224609"/>
     </g>
    </g>
   </g>
  </g>
 </g>
 <defs>
  <clipPath id="pbdfedd9495">
   <rect x="60.32" y="14.76" width="648.88" height="350.266"/>
  </clipPath>
 </defs>
</svg>
